%TF.GenerationSoftware,KiCad,Pcbnew,9.0.2+dfsg-1*%
%TF.CreationDate,2025-07-08T11:28:32+01:00*%
%TF.ProjectId,low-noise-power-probe-panel,6c6f772d-6e6f-4697-9365-2d706f776572,rev?*%
%TF.SameCoordinates,Original*%
%TF.FileFunction,Soldermask,Top*%
%TF.FilePolarity,Negative*%
%FSLAX46Y46*%
G04 Gerber Fmt 4.6, Leading zero omitted, Abs format (unit mm)*
G04 Created by KiCad (PCBNEW 9.0.2+dfsg-1) date 2025-07-08 11:28:32*
%MOMM*%
%LPD*%
G01*
G04 APERTURE LIST*
G04 Aperture macros list*
%AMRoundRect*
0 Rectangle with rounded corners*
0 $1 Rounding radius*
0 $2 $3 $4 $5 $6 $7 $8 $9 X,Y pos of 4 corners*
0 Add a 4 corners polygon primitive as box body*
4,1,4,$2,$3,$4,$5,$6,$7,$8,$9,$2,$3,0*
0 Add four circle primitives for the rounded corners*
1,1,$1+$1,$2,$3*
1,1,$1+$1,$4,$5*
1,1,$1+$1,$6,$7*
1,1,$1+$1,$8,$9*
0 Add four rect primitives between the rounded corners*
20,1,$1+$1,$2,$3,$4,$5,0*
20,1,$1+$1,$4,$5,$6,$7,0*
20,1,$1+$1,$6,$7,$8,$9,0*
20,1,$1+$1,$8,$9,$2,$3,0*%
%AMFreePoly0*
4,1,9,3.862500,-0.866500,0.737500,-0.866500,0.737500,-0.450000,-0.737500,-0.450000,-0.737500,0.450000,0.737500,0.450000,0.737500,0.866500,3.862500,0.866500,3.862500,-0.866500,3.862500,-0.866500,$1*%
G04 Aperture macros list end*
%ADD10C,3.000000*%
%ADD11O,3.000000X2.000000*%
%ADD12C,1.500000*%
%ADD13RoundRect,0.200000X-0.200000X-0.275000X0.200000X-0.275000X0.200000X0.275000X-0.200000X0.275000X0*%
%ADD14R,0.900000X6.700000*%
%ADD15RoundRect,0.200000X0.200000X0.275000X-0.200000X0.275000X-0.200000X-0.275000X0.200000X-0.275000X0*%
%ADD16R,0.600000X0.450000*%
%ADD17RoundRect,0.140000X0.140000X0.170000X-0.140000X0.170000X-0.140000X-0.170000X0.140000X-0.170000X0*%
%ADD18RoundRect,0.140000X-0.170000X0.140000X-0.170000X-0.140000X0.170000X-0.140000X0.170000X0.140000X0*%
%ADD19RoundRect,0.200000X-0.275000X0.200000X-0.275000X-0.200000X0.275000X-0.200000X0.275000X0.200000X0*%
%ADD20C,2.000000*%
%ADD21C,3.200000*%
%ADD22R,6.700000X0.900000*%
%ADD23RoundRect,0.250000X-1.450000X0.312500X-1.450000X-0.312500X1.450000X-0.312500X1.450000X0.312500X0*%
%ADD24RoundRect,0.150000X0.512500X0.150000X-0.512500X0.150000X-0.512500X-0.150000X0.512500X-0.150000X0*%
%ADD25C,2.250000*%
%ADD26RoundRect,0.112500X0.187500X0.112500X-0.187500X0.112500X-0.187500X-0.112500X0.187500X-0.112500X0*%
%ADD27RoundRect,0.250000X-0.475000X0.250000X-0.475000X-0.250000X0.475000X-0.250000X0.475000X0.250000X0*%
%ADD28C,1.000000*%
%ADD29R,0.300000X0.650000*%
%ADD30R,2.480000X1.550000*%
%ADD31R,0.300000X0.700000*%
%ADD32R,1.000000X0.700000*%
%ADD33O,1.100000X2.100000*%
%ADD34O,1.100000X2.600000*%
%ADD35RoundRect,0.200000X0.275000X-0.200000X0.275000X0.200000X-0.275000X0.200000X-0.275000X-0.200000X0*%
%ADD36R,0.900000X1.300000*%
%ADD37FreePoly0,270.000000*%
%ADD38R,3.500000X3.500000*%
%ADD39RoundRect,0.750000X-1.000000X0.750000X-1.000000X-0.750000X1.000000X-0.750000X1.000000X0.750000X0*%
%ADD40RoundRect,0.875000X-0.875000X0.875000X-0.875000X-0.875000X0.875000X-0.875000X0.875000X0.875000X0*%
%ADD41RoundRect,0.150000X-0.825000X-0.150000X0.825000X-0.150000X0.825000X0.150000X-0.825000X0.150000X0*%
%ADD42RoundRect,0.250000X0.475000X-0.250000X0.475000X0.250000X-0.475000X0.250000X-0.475000X-0.250000X0*%
%ADD43RoundRect,0.250000X-0.625000X0.375000X-0.625000X-0.375000X0.625000X-0.375000X0.625000X0.375000X0*%
%ADD44RoundRect,0.140000X-0.140000X-0.170000X0.140000X-0.170000X0.140000X0.170000X-0.140000X0.170000X0*%
%ADD45RoundRect,0.140000X0.170000X-0.140000X0.170000X0.140000X-0.170000X0.140000X-0.170000X-0.140000X0*%
%ADD46R,1.700000X1.300000*%
%ADD47C,3.500000*%
%ADD48C,4.000000*%
%ADD49C,3.700000*%
%ADD50RoundRect,0.112500X0.112500X-0.187500X0.112500X0.187500X-0.112500X0.187500X-0.112500X-0.187500X0*%
%ADD51RoundRect,0.062500X-0.062500X0.362500X-0.062500X-0.362500X0.062500X-0.362500X0.062500X0.362500X0*%
%ADD52R,2.380000X1.650000*%
%ADD53RoundRect,0.200000X0.138157X-0.310705X0.338157X0.035705X-0.138157X0.310705X-0.338157X-0.035705X0*%
G04 APERTURE END LIST*
D10*
%TO.C,SW1*%
X238300000Y-124120000D03*
X233600000Y-124120000D03*
X228900000Y-124120000D03*
X238300000Y-120310000D03*
X233600000Y-120310000D03*
X228900000Y-120310000D03*
X238300000Y-116500000D03*
X233600000Y-116500000D03*
X228900000Y-116500000D03*
D11*
X231060000Y-138470000D03*
X236140000Y-138470000D03*
%TD*%
D12*
%TO.C,KiKit_TO_3*%
X172600000Y-142300000D03*
%TD*%
D13*
%TO.C,R1*%
X213775000Y-127453355D03*
X215425000Y-127453355D03*
%TD*%
D14*
%TO.C,J12*%
X225400000Y-123675000D03*
%TD*%
D15*
%TO.C,R22*%
X200950000Y-35025000D03*
X199300000Y-35025000D03*
%TD*%
D16*
%TO.C,D14*%
X218700000Y-34875000D03*
X216600000Y-34875000D03*
%TD*%
D17*
%TO.C,C24*%
X211510000Y-125175000D03*
X210550000Y-125175000D03*
%TD*%
D18*
%TO.C,C3*%
X214400000Y-123795000D03*
X214400000Y-124755000D03*
%TD*%
D19*
%TO.C,R13*%
X224700000Y-50475000D03*
X224700000Y-52125000D03*
%TD*%
D17*
%TO.C,C21*%
X204350000Y-125175000D03*
X203390000Y-125175000D03*
%TD*%
D20*
%TO.C,TP12*%
X240100000Y-85400000D03*
%TD*%
D21*
%TO.C,REF\u002A\u002A*%
X177800000Y-73475000D03*
%TD*%
D22*
%TO.C,J11*%
X207100000Y-129675000D03*
%TD*%
D11*
%TO.C,RV1*%
X183900000Y-136325000D03*
X180900000Y-124025000D03*
X183900000Y-126325000D03*
%TD*%
D23*
%TO.C,L1*%
X219300000Y-120037500D03*
X219300000Y-124312500D03*
%TD*%
D24*
%TO.C,U2*%
X212837500Y-123725000D03*
X212837500Y-122775000D03*
X212837500Y-121825000D03*
X210562500Y-121825000D03*
X210562500Y-123725000D03*
%TD*%
D18*
%TO.C,C4*%
X207200000Y-123795000D03*
X207200000Y-124755000D03*
%TD*%
D19*
%TO.C,R14*%
X222900000Y-50475000D03*
X222900000Y-52125000D03*
%TD*%
D25*
%TO.C,J1*%
X198100000Y-134775000D03*
X200640000Y-137315000D03*
X200640000Y-132235000D03*
X195560000Y-137315000D03*
X195560000Y-132235000D03*
%TD*%
D26*
%TO.C,D8*%
X236250000Y-51975000D03*
X234150000Y-51975000D03*
%TD*%
D14*
%TO.C,J8*%
X190400000Y-123675000D03*
%TD*%
D20*
%TO.C,TP2*%
X228600000Y-85500000D03*
%TD*%
D27*
%TO.C,C14*%
X227150000Y-45550000D03*
X227150000Y-47450000D03*
%TD*%
D28*
%TO.C,KiKit_FID_T_1*%
X180100000Y-22500000D03*
%TD*%
D19*
%TO.C,R8*%
X211650000Y-28450000D03*
X211650000Y-30100000D03*
%TD*%
D15*
%TO.C,R3*%
X205025000Y-120075000D03*
X203375000Y-120075000D03*
%TD*%
D28*
%TO.C,KiKit_FID_T_3*%
X180100000Y-142300000D03*
%TD*%
D15*
%TO.C,R24*%
X197750000Y-35025000D03*
X196100000Y-35025000D03*
%TD*%
D29*
%TO.C,U4*%
X235000000Y-86050000D03*
X235500000Y-86050000D03*
X236000000Y-86050000D03*
X236500000Y-86050000D03*
X237000000Y-86050000D03*
X237000000Y-82950000D03*
X236500000Y-82950000D03*
X236000000Y-82950000D03*
X235500000Y-82950000D03*
X235000000Y-82950000D03*
D30*
X236000000Y-84500000D03*
%TD*%
D19*
%TO.C,R10*%
X236300000Y-48475000D03*
X236300000Y-50125000D03*
%TD*%
D15*
%TO.C,R9*%
X233225000Y-82200000D03*
X231575000Y-82200000D03*
%TD*%
D21*
%TO.C,REF\u002A\u002A*%
X219800000Y-73475000D03*
%TD*%
D24*
%TO.C,U1*%
X205637500Y-123725000D03*
X205637500Y-122775000D03*
X205637500Y-121825000D03*
X203362500Y-121825000D03*
X203362500Y-123725000D03*
%TD*%
D15*
%TO.C,R5*%
X200400000Y-122375000D03*
X198750000Y-122375000D03*
%TD*%
D31*
%TO.C,J4*%
X224109483Y-32535000D03*
X223609483Y-32535000D03*
X223109483Y-32535000D03*
X222609483Y-32535000D03*
X222109483Y-32535000D03*
X221609483Y-32535000D03*
X220609483Y-32535000D03*
X220109483Y-32535000D03*
X219609483Y-32535000D03*
X219109483Y-32535000D03*
X218609483Y-32535000D03*
X218109483Y-32535000D03*
D32*
X218009483Y-31235000D03*
D31*
X218859483Y-31235000D03*
X219359483Y-31235000D03*
X219859483Y-31235000D03*
X220359483Y-31235000D03*
X220859483Y-31235000D03*
X221359483Y-31235000D03*
X221859483Y-31235000D03*
X222359483Y-31235000D03*
X222859483Y-31235000D03*
X223359483Y-31235000D03*
D32*
X224209483Y-31235000D03*
D33*
X225429483Y-32125000D03*
D34*
X225429483Y-26765000D03*
D33*
X216789483Y-32125000D03*
D34*
X216789483Y-26765000D03*
%TD*%
D35*
%TO.C,R12*%
X234600000Y-50125000D03*
X234600000Y-48475000D03*
%TD*%
D36*
%TO.C,Q1*%
X232300000Y-47500000D03*
D37*
X230800000Y-47587500D03*
D36*
X229300000Y-47500000D03*
%TD*%
D22*
%TO.C,J9*%
X207900000Y-117675000D03*
%TD*%
D15*
%TO.C,R6*%
X208925000Y-120075000D03*
X207275000Y-120075000D03*
%TD*%
D38*
%TO.C,J3*%
X234600000Y-38775000D03*
D39*
X234600000Y-32775000D03*
D40*
X229900000Y-35775000D03*
%TD*%
D15*
%TO.C,R7*%
X218425000Y-127453355D03*
X216775000Y-127453355D03*
%TD*%
D41*
%TO.C,U8*%
X197275000Y-29470000D03*
X197275000Y-30740000D03*
X197275000Y-32010000D03*
X197275000Y-33280000D03*
X202225000Y-33280000D03*
X202225000Y-32010000D03*
X202225000Y-30740000D03*
X202225000Y-29470000D03*
%TD*%
D42*
%TO.C,C9*%
X232200000Y-85850000D03*
X232200000Y-83950000D03*
%TD*%
D28*
%TO.C,KiKit_FID_T_2*%
X239900000Y-22500000D03*
%TD*%
D12*
%TO.C,KiKit_TO_1*%
X172600000Y-22500000D03*
%TD*%
%TO.C,KiKit_TO_2*%
X247400000Y-22500000D03*
%TD*%
D43*
%TO.C,F2*%
X231000000Y-42775000D03*
X231000000Y-45575000D03*
%TD*%
D44*
%TO.C,C1*%
X198920000Y-127453355D03*
X199880000Y-127453355D03*
%TD*%
D45*
%TO.C,C22*%
X207200000Y-122755000D03*
X207200000Y-121795000D03*
%TD*%
D46*
%TO.C,D2*%
X194600000Y-29625000D03*
X194600000Y-33125000D03*
%TD*%
D43*
%TO.C,F1*%
X234600000Y-42775000D03*
X234600000Y-45575000D03*
%TD*%
D35*
%TO.C,R21*%
X208125000Y-30125000D03*
X208125000Y-28475000D03*
%TD*%
D13*
%TO.C,R19*%
X204250000Y-31725000D03*
X205900000Y-31725000D03*
%TD*%
D20*
%TO.C,BT1*%
X181300000Y-110975000D03*
D47*
X198700000Y-102775000D03*
D48*
X216200000Y-102675000D03*
X181200000Y-47475000D03*
D47*
X198700000Y-47375000D03*
D49*
X189150000Y-111250000D03*
X189150000Y-38900000D03*
X208250000Y-111250000D03*
X208250000Y-38900000D03*
%TD*%
D13*
%TO.C,R26*%
X200125000Y-119175000D03*
X201775000Y-119175000D03*
%TD*%
D50*
%TO.C,D7*%
X238000000Y-50325000D03*
X238000000Y-48225000D03*
%TD*%
D15*
%TO.C,R4*%
X212125000Y-120075000D03*
X210475000Y-120075000D03*
%TD*%
D13*
%TO.C,R18*%
X204250000Y-33275000D03*
X205900000Y-33275000D03*
%TD*%
D15*
%TO.C,R23*%
X200650000Y-27625000D03*
X199000000Y-27625000D03*
%TD*%
D51*
%TO.C,U6*%
X225200000Y-45500000D03*
X224700000Y-45500000D03*
X224200000Y-45500000D03*
X223700000Y-45500000D03*
X223200000Y-45500000D03*
X223200000Y-48400000D03*
X223700000Y-48400000D03*
X224200000Y-48400000D03*
X224700000Y-48400000D03*
X225200000Y-48400000D03*
D52*
X224200000Y-46950000D03*
%TD*%
D15*
%TO.C,R15*%
X200400000Y-120775000D03*
X198750000Y-120775000D03*
%TD*%
D53*
%TO.C,R2*%
X199587500Y-125689470D03*
X200412500Y-124260530D03*
%TD*%
D45*
%TO.C,C25*%
X214400000Y-122755000D03*
X214400000Y-121795000D03*
%TD*%
D20*
%TO.C,TP1*%
X232000000Y-77475000D03*
%TD*%
D25*
%TO.C,J2*%
X216100000Y-134735000D03*
X218640000Y-137275000D03*
X218640000Y-132195000D03*
X213560000Y-137275000D03*
X213560000Y-132195000D03*
%TD*%
D20*
%TO.C,TP21*%
X226000000Y-35000000D03*
%TD*%
M02*
