%TF.GenerationSoftware,KiCad,Pcbnew,9.0.2+dfsg-1*%
%TF.CreationDate,2025-07-08T11:28:32+01:00*%
%TF.ProjectId,low-noise-power-probe-panel,6c6f772d-6e6f-4697-9365-2d706f776572,rev?*%
%TF.SameCoordinates,Original*%
%TF.FileFunction,Other,Comment*%
%FSLAX46Y46*%
G04 Gerber Fmt 4.6, Leading zero omitted, Abs format (unit mm)*
G04 Created by KiCad (PCBNEW 9.0.2+dfsg-1) date 2025-07-08 11:28:32*
%MOMM*%
%LPD*%
G01*
G04 APERTURE LIST*
%ADD10C,0.300000*%
%ADD11C,0.150000*%
G04 APERTURE END LIST*
D10*
X244900000Y-17000000D02*
X244900000Y-147800000D01*
X167100000Y-25000000D02*
X252900000Y-25000000D01*
X175100000Y-17000000D02*
X175100000Y-147800000D01*
X167100000Y-139800000D02*
X252900000Y-139800000D01*
X256287844Y-23909638D02*
X256954510Y-25909638D01*
X256954510Y-25909638D02*
X257621177Y-23909638D01*
X258287844Y-25147733D02*
X259811654Y-25147733D01*
X261906891Y-25719161D02*
X261811653Y-25814400D01*
X261811653Y-25814400D02*
X261525939Y-25909638D01*
X261525939Y-25909638D02*
X261335463Y-25909638D01*
X261335463Y-25909638D02*
X261049748Y-25814400D01*
X261049748Y-25814400D02*
X260859272Y-25623923D01*
X260859272Y-25623923D02*
X260764034Y-25433447D01*
X260764034Y-25433447D02*
X260668796Y-25052495D01*
X260668796Y-25052495D02*
X260668796Y-24766780D01*
X260668796Y-24766780D02*
X260764034Y-24385828D01*
X260764034Y-24385828D02*
X260859272Y-24195352D01*
X260859272Y-24195352D02*
X261049748Y-24004876D01*
X261049748Y-24004876D02*
X261335463Y-23909638D01*
X261335463Y-23909638D02*
X261525939Y-23909638D01*
X261525939Y-23909638D02*
X261811653Y-24004876D01*
X261811653Y-24004876D02*
X261906891Y-24100114D01*
X262764034Y-23909638D02*
X262764034Y-25528685D01*
X262764034Y-25528685D02*
X262859272Y-25719161D01*
X262859272Y-25719161D02*
X262954510Y-25814400D01*
X262954510Y-25814400D02*
X263144986Y-25909638D01*
X263144986Y-25909638D02*
X263525939Y-25909638D01*
X263525939Y-25909638D02*
X263716415Y-25814400D01*
X263716415Y-25814400D02*
X263811653Y-25719161D01*
X263811653Y-25719161D02*
X263906891Y-25528685D01*
X263906891Y-25528685D02*
X263906891Y-23909638D01*
X264573558Y-23909638D02*
X265716415Y-23909638D01*
X265144986Y-25909638D02*
X265144986Y-23909638D01*
X243809638Y-13612155D02*
X245809638Y-12945489D01*
X245809638Y-12945489D02*
X243809638Y-12278822D01*
X245047733Y-11612155D02*
X245047733Y-10088346D01*
X245619161Y-7993108D02*
X245714400Y-8088346D01*
X245714400Y-8088346D02*
X245809638Y-8374060D01*
X245809638Y-8374060D02*
X245809638Y-8564536D01*
X245809638Y-8564536D02*
X245714400Y-8850251D01*
X245714400Y-8850251D02*
X245523923Y-9040727D01*
X245523923Y-9040727D02*
X245333447Y-9135965D01*
X245333447Y-9135965D02*
X244952495Y-9231203D01*
X244952495Y-9231203D02*
X244666780Y-9231203D01*
X244666780Y-9231203D02*
X244285828Y-9135965D01*
X244285828Y-9135965D02*
X244095352Y-9040727D01*
X244095352Y-9040727D02*
X243904876Y-8850251D01*
X243904876Y-8850251D02*
X243809638Y-8564536D01*
X243809638Y-8564536D02*
X243809638Y-8374060D01*
X243809638Y-8374060D02*
X243904876Y-8088346D01*
X243904876Y-8088346D02*
X244000114Y-7993108D01*
X243809638Y-7135965D02*
X245428685Y-7135965D01*
X245428685Y-7135965D02*
X245619161Y-7040727D01*
X245619161Y-7040727D02*
X245714400Y-6945489D01*
X245714400Y-6945489D02*
X245809638Y-6755013D01*
X245809638Y-6755013D02*
X245809638Y-6374060D01*
X245809638Y-6374060D02*
X245714400Y-6183584D01*
X245714400Y-6183584D02*
X245619161Y-6088346D01*
X245619161Y-6088346D02*
X245428685Y-5993108D01*
X245428685Y-5993108D02*
X243809638Y-5993108D01*
X243809638Y-5326441D02*
X243809638Y-4183584D01*
X245809638Y-4755013D02*
X243809638Y-4755013D01*
X256287844Y-138709638D02*
X256954510Y-140709638D01*
X256954510Y-140709638D02*
X257621177Y-138709638D01*
X258287844Y-139947733D02*
X259811654Y-139947733D01*
X261906891Y-140519161D02*
X261811653Y-140614400D01*
X261811653Y-140614400D02*
X261525939Y-140709638D01*
X261525939Y-140709638D02*
X261335463Y-140709638D01*
X261335463Y-140709638D02*
X261049748Y-140614400D01*
X261049748Y-140614400D02*
X260859272Y-140423923D01*
X260859272Y-140423923D02*
X260764034Y-140233447D01*
X260764034Y-140233447D02*
X260668796Y-139852495D01*
X260668796Y-139852495D02*
X260668796Y-139566780D01*
X260668796Y-139566780D02*
X260764034Y-139185828D01*
X260764034Y-139185828D02*
X260859272Y-138995352D01*
X260859272Y-138995352D02*
X261049748Y-138804876D01*
X261049748Y-138804876D02*
X261335463Y-138709638D01*
X261335463Y-138709638D02*
X261525939Y-138709638D01*
X261525939Y-138709638D02*
X261811653Y-138804876D01*
X261811653Y-138804876D02*
X261906891Y-138900114D01*
X262764034Y-138709638D02*
X262764034Y-140328685D01*
X262764034Y-140328685D02*
X262859272Y-140519161D01*
X262859272Y-140519161D02*
X262954510Y-140614400D01*
X262954510Y-140614400D02*
X263144986Y-140709638D01*
X263144986Y-140709638D02*
X263525939Y-140709638D01*
X263525939Y-140709638D02*
X263716415Y-140614400D01*
X263716415Y-140614400D02*
X263811653Y-140519161D01*
X263811653Y-140519161D02*
X263906891Y-140328685D01*
X263906891Y-140328685D02*
X263906891Y-138709638D01*
X264573558Y-138709638D02*
X265716415Y-138709638D01*
X265144986Y-140709638D02*
X265144986Y-138709638D01*
X174009638Y-13612155D02*
X176009638Y-12945489D01*
X176009638Y-12945489D02*
X174009638Y-12278822D01*
X175247733Y-11612155D02*
X175247733Y-10088346D01*
X175819161Y-7993108D02*
X175914400Y-8088346D01*
X175914400Y-8088346D02*
X176009638Y-8374060D01*
X176009638Y-8374060D02*
X176009638Y-8564536D01*
X176009638Y-8564536D02*
X175914400Y-8850251D01*
X175914400Y-8850251D02*
X175723923Y-9040727D01*
X175723923Y-9040727D02*
X175533447Y-9135965D01*
X175533447Y-9135965D02*
X175152495Y-9231203D01*
X175152495Y-9231203D02*
X174866780Y-9231203D01*
X174866780Y-9231203D02*
X174485828Y-9135965D01*
X174485828Y-9135965D02*
X174295352Y-9040727D01*
X174295352Y-9040727D02*
X174104876Y-8850251D01*
X174104876Y-8850251D02*
X174009638Y-8564536D01*
X174009638Y-8564536D02*
X174009638Y-8374060D01*
X174009638Y-8374060D02*
X174104876Y-8088346D01*
X174104876Y-8088346D02*
X174200114Y-7993108D01*
X174009638Y-7135965D02*
X175628685Y-7135965D01*
X175628685Y-7135965D02*
X175819161Y-7040727D01*
X175819161Y-7040727D02*
X175914400Y-6945489D01*
X175914400Y-6945489D02*
X176009638Y-6755013D01*
X176009638Y-6755013D02*
X176009638Y-6374060D01*
X176009638Y-6374060D02*
X175914400Y-6183584D01*
X175914400Y-6183584D02*
X175819161Y-6088346D01*
X175819161Y-6088346D02*
X175628685Y-5993108D01*
X175628685Y-5993108D02*
X174009638Y-5993108D01*
X174009638Y-5326441D02*
X174009638Y-4183584D01*
X176009638Y-4755013D02*
X174009638Y-4755013D01*
D11*
X253539160Y-40742284D02*
X253682017Y-40789903D01*
X253682017Y-40789903D02*
X253920112Y-40789903D01*
X253920112Y-40789903D02*
X254015350Y-40742284D01*
X254015350Y-40742284D02*
X254062969Y-40694664D01*
X254062969Y-40694664D02*
X254110588Y-40599426D01*
X254110588Y-40599426D02*
X254110588Y-40504188D01*
X254110588Y-40504188D02*
X254062969Y-40408950D01*
X254062969Y-40408950D02*
X254015350Y-40361331D01*
X254015350Y-40361331D02*
X253920112Y-40313712D01*
X253920112Y-40313712D02*
X253729636Y-40266093D01*
X253729636Y-40266093D02*
X253634398Y-40218474D01*
X253634398Y-40218474D02*
X253586779Y-40170855D01*
X253586779Y-40170855D02*
X253539160Y-40075617D01*
X253539160Y-40075617D02*
X253539160Y-39980379D01*
X253539160Y-39980379D02*
X253586779Y-39885141D01*
X253586779Y-39885141D02*
X253634398Y-39837522D01*
X253634398Y-39837522D02*
X253729636Y-39789903D01*
X253729636Y-39789903D02*
X253967731Y-39789903D01*
X253967731Y-39789903D02*
X254110588Y-39837522D01*
X254396303Y-40123236D02*
X254777255Y-40123236D01*
X254539160Y-39789903D02*
X254539160Y-40647045D01*
X254539160Y-40647045D02*
X254586779Y-40742284D01*
X254586779Y-40742284D02*
X254682017Y-40789903D01*
X254682017Y-40789903D02*
X254777255Y-40789903D01*
X255539160Y-40789903D02*
X255539160Y-40266093D01*
X255539160Y-40266093D02*
X255491541Y-40170855D01*
X255491541Y-40170855D02*
X255396303Y-40123236D01*
X255396303Y-40123236D02*
X255205827Y-40123236D01*
X255205827Y-40123236D02*
X255110589Y-40170855D01*
X255539160Y-40742284D02*
X255443922Y-40789903D01*
X255443922Y-40789903D02*
X255205827Y-40789903D01*
X255205827Y-40789903D02*
X255110589Y-40742284D01*
X255110589Y-40742284D02*
X255062970Y-40647045D01*
X255062970Y-40647045D02*
X255062970Y-40551807D01*
X255062970Y-40551807D02*
X255110589Y-40456569D01*
X255110589Y-40456569D02*
X255205827Y-40408950D01*
X255205827Y-40408950D02*
X255443922Y-40408950D01*
X255443922Y-40408950D02*
X255539160Y-40361331D01*
X256443922Y-40742284D02*
X256348684Y-40789903D01*
X256348684Y-40789903D02*
X256158208Y-40789903D01*
X256158208Y-40789903D02*
X256062970Y-40742284D01*
X256062970Y-40742284D02*
X256015351Y-40694664D01*
X256015351Y-40694664D02*
X255967732Y-40599426D01*
X255967732Y-40599426D02*
X255967732Y-40313712D01*
X255967732Y-40313712D02*
X256015351Y-40218474D01*
X256015351Y-40218474D02*
X256062970Y-40170855D01*
X256062970Y-40170855D02*
X256158208Y-40123236D01*
X256158208Y-40123236D02*
X256348684Y-40123236D01*
X256348684Y-40123236D02*
X256443922Y-40170855D01*
X256872494Y-40789903D02*
X256872494Y-39789903D01*
X256967732Y-40408950D02*
X257253446Y-40789903D01*
X257253446Y-40123236D02*
X256872494Y-40504188D01*
X258110589Y-40123236D02*
X258110589Y-40789903D01*
X257682018Y-40123236D02*
X257682018Y-40647045D01*
X257682018Y-40647045D02*
X257729637Y-40742284D01*
X257729637Y-40742284D02*
X257824875Y-40789903D01*
X257824875Y-40789903D02*
X257967732Y-40789903D01*
X257967732Y-40789903D02*
X258062970Y-40742284D01*
X258062970Y-40742284D02*
X258110589Y-40694664D01*
X258586780Y-40123236D02*
X258586780Y-41123236D01*
X258586780Y-40170855D02*
X258682018Y-40123236D01*
X258682018Y-40123236D02*
X258872494Y-40123236D01*
X258872494Y-40123236D02*
X258967732Y-40170855D01*
X258967732Y-40170855D02*
X259015351Y-40218474D01*
X259015351Y-40218474D02*
X259062970Y-40313712D01*
X259062970Y-40313712D02*
X259062970Y-40599426D01*
X259062970Y-40599426D02*
X259015351Y-40694664D01*
X259015351Y-40694664D02*
X258967732Y-40742284D01*
X258967732Y-40742284D02*
X258872494Y-40789903D01*
X258872494Y-40789903D02*
X258682018Y-40789903D01*
X258682018Y-40789903D02*
X258586780Y-40742284D01*
X259491542Y-40694664D02*
X259539161Y-40742284D01*
X259539161Y-40742284D02*
X259491542Y-40789903D01*
X259491542Y-40789903D02*
X259443923Y-40742284D01*
X259443923Y-40742284D02*
X259491542Y-40694664D01*
X259491542Y-40694664D02*
X259491542Y-40789903D01*
X259491542Y-40170855D02*
X259539161Y-40218474D01*
X259539161Y-40218474D02*
X259491542Y-40266093D01*
X259491542Y-40266093D02*
X259443923Y-40218474D01*
X259443923Y-40218474D02*
X259491542Y-40170855D01*
X259491542Y-40170855D02*
X259491542Y-40266093D01*
X260682018Y-39885141D02*
X260729637Y-39837522D01*
X260729637Y-39837522D02*
X260824875Y-39789903D01*
X260824875Y-39789903D02*
X261062970Y-39789903D01*
X261062970Y-39789903D02*
X261158208Y-39837522D01*
X261158208Y-39837522D02*
X261205827Y-39885141D01*
X261205827Y-39885141D02*
X261253446Y-39980379D01*
X261253446Y-39980379D02*
X261253446Y-40075617D01*
X261253446Y-40075617D02*
X261205827Y-40218474D01*
X261205827Y-40218474D02*
X260634399Y-40789903D01*
X260634399Y-40789903D02*
X261253446Y-40789903D01*
X262205827Y-40789903D02*
X261634399Y-40789903D01*
X261920113Y-40789903D02*
X261920113Y-39789903D01*
X261920113Y-39789903D02*
X261824875Y-39932760D01*
X261824875Y-39932760D02*
X261729637Y-40027998D01*
X261729637Y-40027998D02*
X261634399Y-40075617D01*
X263158208Y-40789903D02*
X262586780Y-40789903D01*
X262872494Y-40789903D02*
X262872494Y-39789903D01*
X262872494Y-39789903D02*
X262777256Y-39932760D01*
X262777256Y-39932760D02*
X262682018Y-40027998D01*
X262682018Y-40027998D02*
X262586780Y-40075617D01*
X264015351Y-39789903D02*
X263824875Y-39789903D01*
X263824875Y-39789903D02*
X263729637Y-39837522D01*
X263729637Y-39837522D02*
X263682018Y-39885141D01*
X263682018Y-39885141D02*
X263586780Y-40027998D01*
X263586780Y-40027998D02*
X263539161Y-40218474D01*
X263539161Y-40218474D02*
X263539161Y-40599426D01*
X263539161Y-40599426D02*
X263586780Y-40694664D01*
X263586780Y-40694664D02*
X263634399Y-40742284D01*
X263634399Y-40742284D02*
X263729637Y-40789903D01*
X263729637Y-40789903D02*
X263920113Y-40789903D01*
X263920113Y-40789903D02*
X264015351Y-40742284D01*
X264015351Y-40742284D02*
X264062970Y-40694664D01*
X264062970Y-40694664D02*
X264110589Y-40599426D01*
X264110589Y-40599426D02*
X264110589Y-40361331D01*
X264110589Y-40361331D02*
X264062970Y-40266093D01*
X264062970Y-40266093D02*
X264015351Y-40218474D01*
X264015351Y-40218474D02*
X263920113Y-40170855D01*
X263920113Y-40170855D02*
X263729637Y-40170855D01*
X263729637Y-40170855D02*
X263634399Y-40218474D01*
X263634399Y-40218474D02*
X263586780Y-40266093D01*
X263586780Y-40266093D02*
X263539161Y-40361331D01*
X265443923Y-39789903D02*
X265443923Y-40027998D01*
X265205828Y-39932760D02*
X265443923Y-40027998D01*
X265443923Y-40027998D02*
X265682018Y-39932760D01*
X265301066Y-40218474D02*
X265443923Y-40027998D01*
X265443923Y-40027998D02*
X265586780Y-40218474D01*
X267348685Y-40789903D02*
X266777257Y-40789903D01*
X267062971Y-40789903D02*
X267062971Y-39789903D01*
X267062971Y-39789903D02*
X266967733Y-39932760D01*
X266967733Y-39932760D02*
X266872495Y-40027998D01*
X266872495Y-40027998D02*
X266777257Y-40075617D01*
X268539162Y-40789903D02*
X268539162Y-40123236D01*
X268539162Y-39789903D02*
X268491543Y-39837522D01*
X268491543Y-39837522D02*
X268539162Y-39885141D01*
X268539162Y-39885141D02*
X268586781Y-39837522D01*
X268586781Y-39837522D02*
X268539162Y-39789903D01*
X268539162Y-39789903D02*
X268539162Y-39885141D01*
X269015352Y-40789903D02*
X269015352Y-40123236D01*
X269015352Y-40218474D02*
X269062971Y-40170855D01*
X269062971Y-40170855D02*
X269158209Y-40123236D01*
X269158209Y-40123236D02*
X269301066Y-40123236D01*
X269301066Y-40123236D02*
X269396304Y-40170855D01*
X269396304Y-40170855D02*
X269443923Y-40266093D01*
X269443923Y-40266093D02*
X269443923Y-40789903D01*
X269443923Y-40266093D02*
X269491542Y-40170855D01*
X269491542Y-40170855D02*
X269586780Y-40123236D01*
X269586780Y-40123236D02*
X269729637Y-40123236D01*
X269729637Y-40123236D02*
X269824876Y-40170855D01*
X269824876Y-40170855D02*
X269872495Y-40266093D01*
X269872495Y-40266093D02*
X269872495Y-40789903D01*
X270348685Y-40123236D02*
X270348685Y-41123236D01*
X270348685Y-40170855D02*
X270443923Y-40123236D01*
X270443923Y-40123236D02*
X270634399Y-40123236D01*
X270634399Y-40123236D02*
X270729637Y-40170855D01*
X270729637Y-40170855D02*
X270777256Y-40218474D01*
X270777256Y-40218474D02*
X270824875Y-40313712D01*
X270824875Y-40313712D02*
X270824875Y-40599426D01*
X270824875Y-40599426D02*
X270777256Y-40694664D01*
X270777256Y-40694664D02*
X270729637Y-40742284D01*
X270729637Y-40742284D02*
X270634399Y-40789903D01*
X270634399Y-40789903D02*
X270443923Y-40789903D01*
X270443923Y-40789903D02*
X270348685Y-40742284D01*
X271634399Y-40742284D02*
X271539161Y-40789903D01*
X271539161Y-40789903D02*
X271348685Y-40789903D01*
X271348685Y-40789903D02*
X271253447Y-40742284D01*
X271253447Y-40742284D02*
X271205828Y-40647045D01*
X271205828Y-40647045D02*
X271205828Y-40266093D01*
X271205828Y-40266093D02*
X271253447Y-40170855D01*
X271253447Y-40170855D02*
X271348685Y-40123236D01*
X271348685Y-40123236D02*
X271539161Y-40123236D01*
X271539161Y-40123236D02*
X271634399Y-40170855D01*
X271634399Y-40170855D02*
X271682018Y-40266093D01*
X271682018Y-40266093D02*
X271682018Y-40361331D01*
X271682018Y-40361331D02*
X271205828Y-40456569D01*
X272539161Y-40789903D02*
X272539161Y-39789903D01*
X272539161Y-40742284D02*
X272443923Y-40789903D01*
X272443923Y-40789903D02*
X272253447Y-40789903D01*
X272253447Y-40789903D02*
X272158209Y-40742284D01*
X272158209Y-40742284D02*
X272110590Y-40694664D01*
X272110590Y-40694664D02*
X272062971Y-40599426D01*
X272062971Y-40599426D02*
X272062971Y-40313712D01*
X272062971Y-40313712D02*
X272110590Y-40218474D01*
X272110590Y-40218474D02*
X272158209Y-40170855D01*
X272158209Y-40170855D02*
X272253447Y-40123236D01*
X272253447Y-40123236D02*
X272443923Y-40123236D01*
X272443923Y-40123236D02*
X272539161Y-40170855D01*
X273443923Y-40789903D02*
X273443923Y-40266093D01*
X273443923Y-40266093D02*
X273396304Y-40170855D01*
X273396304Y-40170855D02*
X273301066Y-40123236D01*
X273301066Y-40123236D02*
X273110590Y-40123236D01*
X273110590Y-40123236D02*
X273015352Y-40170855D01*
X273443923Y-40742284D02*
X273348685Y-40789903D01*
X273348685Y-40789903D02*
X273110590Y-40789903D01*
X273110590Y-40789903D02*
X273015352Y-40742284D01*
X273015352Y-40742284D02*
X272967733Y-40647045D01*
X272967733Y-40647045D02*
X272967733Y-40551807D01*
X272967733Y-40551807D02*
X273015352Y-40456569D01*
X273015352Y-40456569D02*
X273110590Y-40408950D01*
X273110590Y-40408950D02*
X273348685Y-40408950D01*
X273348685Y-40408950D02*
X273443923Y-40361331D01*
X273920114Y-40123236D02*
X273920114Y-40789903D01*
X273920114Y-40218474D02*
X273967733Y-40170855D01*
X273967733Y-40170855D02*
X274062971Y-40123236D01*
X274062971Y-40123236D02*
X274205828Y-40123236D01*
X274205828Y-40123236D02*
X274301066Y-40170855D01*
X274301066Y-40170855D02*
X274348685Y-40266093D01*
X274348685Y-40266093D02*
X274348685Y-40789903D01*
X275253447Y-40742284D02*
X275158209Y-40789903D01*
X275158209Y-40789903D02*
X274967733Y-40789903D01*
X274967733Y-40789903D02*
X274872495Y-40742284D01*
X274872495Y-40742284D02*
X274824876Y-40694664D01*
X274824876Y-40694664D02*
X274777257Y-40599426D01*
X274777257Y-40599426D02*
X274777257Y-40313712D01*
X274777257Y-40313712D02*
X274824876Y-40218474D01*
X274824876Y-40218474D02*
X274872495Y-40170855D01*
X274872495Y-40170855D02*
X274967733Y-40123236D01*
X274967733Y-40123236D02*
X275158209Y-40123236D01*
X275158209Y-40123236D02*
X275253447Y-40170855D01*
X276062971Y-40742284D02*
X275967733Y-40789903D01*
X275967733Y-40789903D02*
X275777257Y-40789903D01*
X275777257Y-40789903D02*
X275682019Y-40742284D01*
X275682019Y-40742284D02*
X275634400Y-40647045D01*
X275634400Y-40647045D02*
X275634400Y-40266093D01*
X275634400Y-40266093D02*
X275682019Y-40170855D01*
X275682019Y-40170855D02*
X275777257Y-40123236D01*
X275777257Y-40123236D02*
X275967733Y-40123236D01*
X275967733Y-40123236D02*
X276062971Y-40170855D01*
X276062971Y-40170855D02*
X276110590Y-40266093D01*
X276110590Y-40266093D02*
X276110590Y-40361331D01*
X276110590Y-40361331D02*
X275634400Y-40456569D01*
X277729638Y-40742284D02*
X277634400Y-40789903D01*
X277634400Y-40789903D02*
X277443924Y-40789903D01*
X277443924Y-40789903D02*
X277348686Y-40742284D01*
X277348686Y-40742284D02*
X277301067Y-40694664D01*
X277301067Y-40694664D02*
X277253448Y-40599426D01*
X277253448Y-40599426D02*
X277253448Y-40313712D01*
X277253448Y-40313712D02*
X277301067Y-40218474D01*
X277301067Y-40218474D02*
X277348686Y-40170855D01*
X277348686Y-40170855D02*
X277443924Y-40123236D01*
X277443924Y-40123236D02*
X277634400Y-40123236D01*
X277634400Y-40123236D02*
X277729638Y-40170855D01*
X278301067Y-40789903D02*
X278205829Y-40742284D01*
X278205829Y-40742284D02*
X278158210Y-40694664D01*
X278158210Y-40694664D02*
X278110591Y-40599426D01*
X278110591Y-40599426D02*
X278110591Y-40313712D01*
X278110591Y-40313712D02*
X278158210Y-40218474D01*
X278158210Y-40218474D02*
X278205829Y-40170855D01*
X278205829Y-40170855D02*
X278301067Y-40123236D01*
X278301067Y-40123236D02*
X278443924Y-40123236D01*
X278443924Y-40123236D02*
X278539162Y-40170855D01*
X278539162Y-40170855D02*
X278586781Y-40218474D01*
X278586781Y-40218474D02*
X278634400Y-40313712D01*
X278634400Y-40313712D02*
X278634400Y-40599426D01*
X278634400Y-40599426D02*
X278586781Y-40694664D01*
X278586781Y-40694664D02*
X278539162Y-40742284D01*
X278539162Y-40742284D02*
X278443924Y-40789903D01*
X278443924Y-40789903D02*
X278301067Y-40789903D01*
X279062972Y-40123236D02*
X279062972Y-40789903D01*
X279062972Y-40218474D02*
X279110591Y-40170855D01*
X279110591Y-40170855D02*
X279205829Y-40123236D01*
X279205829Y-40123236D02*
X279348686Y-40123236D01*
X279348686Y-40123236D02*
X279443924Y-40170855D01*
X279443924Y-40170855D02*
X279491543Y-40266093D01*
X279491543Y-40266093D02*
X279491543Y-40789903D01*
X279824877Y-40123236D02*
X280205829Y-40123236D01*
X279967734Y-39789903D02*
X279967734Y-40647045D01*
X279967734Y-40647045D02*
X280015353Y-40742284D01*
X280015353Y-40742284D02*
X280110591Y-40789903D01*
X280110591Y-40789903D02*
X280205829Y-40789903D01*
X280539163Y-40789903D02*
X280539163Y-40123236D01*
X280539163Y-40313712D02*
X280586782Y-40218474D01*
X280586782Y-40218474D02*
X280634401Y-40170855D01*
X280634401Y-40170855D02*
X280729639Y-40123236D01*
X280729639Y-40123236D02*
X280824877Y-40123236D01*
X281301068Y-40789903D02*
X281205830Y-40742284D01*
X281205830Y-40742284D02*
X281158211Y-40694664D01*
X281158211Y-40694664D02*
X281110592Y-40599426D01*
X281110592Y-40599426D02*
X281110592Y-40313712D01*
X281110592Y-40313712D02*
X281158211Y-40218474D01*
X281158211Y-40218474D02*
X281205830Y-40170855D01*
X281205830Y-40170855D02*
X281301068Y-40123236D01*
X281301068Y-40123236D02*
X281443925Y-40123236D01*
X281443925Y-40123236D02*
X281539163Y-40170855D01*
X281539163Y-40170855D02*
X281586782Y-40218474D01*
X281586782Y-40218474D02*
X281634401Y-40313712D01*
X281634401Y-40313712D02*
X281634401Y-40599426D01*
X281634401Y-40599426D02*
X281586782Y-40694664D01*
X281586782Y-40694664D02*
X281539163Y-40742284D01*
X281539163Y-40742284D02*
X281443925Y-40789903D01*
X281443925Y-40789903D02*
X281301068Y-40789903D01*
X282205830Y-40789903D02*
X282110592Y-40742284D01*
X282110592Y-40742284D02*
X282062973Y-40647045D01*
X282062973Y-40647045D02*
X282062973Y-39789903D01*
X282729640Y-40789903D02*
X282634402Y-40742284D01*
X282634402Y-40742284D02*
X282586783Y-40647045D01*
X282586783Y-40647045D02*
X282586783Y-39789903D01*
X283491545Y-40742284D02*
X283396307Y-40789903D01*
X283396307Y-40789903D02*
X283205831Y-40789903D01*
X283205831Y-40789903D02*
X283110593Y-40742284D01*
X283110593Y-40742284D02*
X283062974Y-40647045D01*
X283062974Y-40647045D02*
X283062974Y-40266093D01*
X283062974Y-40266093D02*
X283110593Y-40170855D01*
X283110593Y-40170855D02*
X283205831Y-40123236D01*
X283205831Y-40123236D02*
X283396307Y-40123236D01*
X283396307Y-40123236D02*
X283491545Y-40170855D01*
X283491545Y-40170855D02*
X283539164Y-40266093D01*
X283539164Y-40266093D02*
X283539164Y-40361331D01*
X283539164Y-40361331D02*
X283062974Y-40456569D01*
X284396307Y-40789903D02*
X284396307Y-39789903D01*
X284396307Y-40742284D02*
X284301069Y-40789903D01*
X284301069Y-40789903D02*
X284110593Y-40789903D01*
X284110593Y-40789903D02*
X284015355Y-40742284D01*
X284015355Y-40742284D02*
X283967736Y-40694664D01*
X283967736Y-40694664D02*
X283920117Y-40599426D01*
X283920117Y-40599426D02*
X283920117Y-40313712D01*
X283920117Y-40313712D02*
X283967736Y-40218474D01*
X283967736Y-40218474D02*
X284015355Y-40170855D01*
X284015355Y-40170855D02*
X284110593Y-40123236D01*
X284110593Y-40123236D02*
X284301069Y-40123236D01*
X284301069Y-40123236D02*
X284396307Y-40170855D01*
X254110588Y-42399847D02*
X253539160Y-42399847D01*
X253824874Y-42399847D02*
X253824874Y-41399847D01*
X253824874Y-41399847D02*
X253729636Y-41542704D01*
X253729636Y-41542704D02*
X253634398Y-41637942D01*
X253634398Y-41637942D02*
X253539160Y-41685561D01*
X254539160Y-42304608D02*
X254586779Y-42352228D01*
X254586779Y-42352228D02*
X254539160Y-42399847D01*
X254539160Y-42399847D02*
X254491541Y-42352228D01*
X254491541Y-42352228D02*
X254539160Y-42304608D01*
X254539160Y-42304608D02*
X254539160Y-42399847D01*
X255443921Y-41399847D02*
X255253445Y-41399847D01*
X255253445Y-41399847D02*
X255158207Y-41447466D01*
X255158207Y-41447466D02*
X255110588Y-41495085D01*
X255110588Y-41495085D02*
X255015350Y-41637942D01*
X255015350Y-41637942D02*
X254967731Y-41828418D01*
X254967731Y-41828418D02*
X254967731Y-42209370D01*
X254967731Y-42209370D02*
X255015350Y-42304608D01*
X255015350Y-42304608D02*
X255062969Y-42352228D01*
X255062969Y-42352228D02*
X255158207Y-42399847D01*
X255158207Y-42399847D02*
X255348683Y-42399847D01*
X255348683Y-42399847D02*
X255443921Y-42352228D01*
X255443921Y-42352228D02*
X255491540Y-42304608D01*
X255491540Y-42304608D02*
X255539159Y-42209370D01*
X255539159Y-42209370D02*
X255539159Y-41971275D01*
X255539159Y-41971275D02*
X255491540Y-41876037D01*
X255491540Y-41876037D02*
X255443921Y-41828418D01*
X255443921Y-41828418D02*
X255348683Y-41780799D01*
X255348683Y-41780799D02*
X255158207Y-41780799D01*
X255158207Y-41780799D02*
X255062969Y-41828418D01*
X255062969Y-41828418D02*
X255015350Y-41876037D01*
X255015350Y-41876037D02*
X254967731Y-41971275D01*
X255967731Y-42399847D02*
X255967731Y-41733180D01*
X255967731Y-41828418D02*
X256015350Y-41780799D01*
X256015350Y-41780799D02*
X256110588Y-41733180D01*
X256110588Y-41733180D02*
X256253445Y-41733180D01*
X256253445Y-41733180D02*
X256348683Y-41780799D01*
X256348683Y-41780799D02*
X256396302Y-41876037D01*
X256396302Y-41876037D02*
X256396302Y-42399847D01*
X256396302Y-41876037D02*
X256443921Y-41780799D01*
X256443921Y-41780799D02*
X256539159Y-41733180D01*
X256539159Y-41733180D02*
X256682016Y-41733180D01*
X256682016Y-41733180D02*
X256777255Y-41780799D01*
X256777255Y-41780799D02*
X256824874Y-41876037D01*
X256824874Y-41876037D02*
X256824874Y-42399847D01*
X257301064Y-42399847D02*
X257301064Y-41733180D01*
X257301064Y-41828418D02*
X257348683Y-41780799D01*
X257348683Y-41780799D02*
X257443921Y-41733180D01*
X257443921Y-41733180D02*
X257586778Y-41733180D01*
X257586778Y-41733180D02*
X257682016Y-41780799D01*
X257682016Y-41780799D02*
X257729635Y-41876037D01*
X257729635Y-41876037D02*
X257729635Y-42399847D01*
X257729635Y-41876037D02*
X257777254Y-41780799D01*
X257777254Y-41780799D02*
X257872492Y-41733180D01*
X257872492Y-41733180D02*
X258015349Y-41733180D01*
X258015349Y-41733180D02*
X258110588Y-41780799D01*
X258110588Y-41780799D02*
X258158207Y-41876037D01*
X258158207Y-41876037D02*
X258158207Y-42399847D01*
X259253445Y-41733180D02*
X259634397Y-41733180D01*
X259396302Y-41399847D02*
X259396302Y-42256989D01*
X259396302Y-42256989D02*
X259443921Y-42352228D01*
X259443921Y-42352228D02*
X259539159Y-42399847D01*
X259539159Y-42399847D02*
X259634397Y-42399847D01*
X260110588Y-42399847D02*
X260015350Y-42352228D01*
X260015350Y-42352228D02*
X259967731Y-42304608D01*
X259967731Y-42304608D02*
X259920112Y-42209370D01*
X259920112Y-42209370D02*
X259920112Y-41923656D01*
X259920112Y-41923656D02*
X259967731Y-41828418D01*
X259967731Y-41828418D02*
X260015350Y-41780799D01*
X260015350Y-41780799D02*
X260110588Y-41733180D01*
X260110588Y-41733180D02*
X260253445Y-41733180D01*
X260253445Y-41733180D02*
X260348683Y-41780799D01*
X260348683Y-41780799D02*
X260396302Y-41828418D01*
X260396302Y-41828418D02*
X260443921Y-41923656D01*
X260443921Y-41923656D02*
X260443921Y-42209370D01*
X260443921Y-42209370D02*
X260396302Y-42304608D01*
X260396302Y-42304608D02*
X260348683Y-42352228D01*
X260348683Y-42352228D02*
X260253445Y-42399847D01*
X260253445Y-42399847D02*
X260110588Y-42399847D01*
X260729636Y-41733180D02*
X261110588Y-41733180D01*
X260872493Y-41399847D02*
X260872493Y-42256989D01*
X260872493Y-42256989D02*
X260920112Y-42352228D01*
X260920112Y-42352228D02*
X261015350Y-42399847D01*
X261015350Y-42399847D02*
X261110588Y-42399847D01*
X261872493Y-42399847D02*
X261872493Y-41876037D01*
X261872493Y-41876037D02*
X261824874Y-41780799D01*
X261824874Y-41780799D02*
X261729636Y-41733180D01*
X261729636Y-41733180D02*
X261539160Y-41733180D01*
X261539160Y-41733180D02*
X261443922Y-41780799D01*
X261872493Y-42352228D02*
X261777255Y-42399847D01*
X261777255Y-42399847D02*
X261539160Y-42399847D01*
X261539160Y-42399847D02*
X261443922Y-42352228D01*
X261443922Y-42352228D02*
X261396303Y-42256989D01*
X261396303Y-42256989D02*
X261396303Y-42161751D01*
X261396303Y-42161751D02*
X261443922Y-42066513D01*
X261443922Y-42066513D02*
X261539160Y-42018894D01*
X261539160Y-42018894D02*
X261777255Y-42018894D01*
X261777255Y-42018894D02*
X261872493Y-41971275D01*
X262491541Y-42399847D02*
X262396303Y-42352228D01*
X262396303Y-42352228D02*
X262348684Y-42256989D01*
X262348684Y-42256989D02*
X262348684Y-41399847D01*
X263491542Y-41733180D02*
X263872494Y-41733180D01*
X263634399Y-41399847D02*
X263634399Y-42256989D01*
X263634399Y-42256989D02*
X263682018Y-42352228D01*
X263682018Y-42352228D02*
X263777256Y-42399847D01*
X263777256Y-42399847D02*
X263872494Y-42399847D01*
X264205828Y-42399847D02*
X264205828Y-41399847D01*
X264634399Y-42399847D02*
X264634399Y-41876037D01*
X264634399Y-41876037D02*
X264586780Y-41780799D01*
X264586780Y-41780799D02*
X264491542Y-41733180D01*
X264491542Y-41733180D02*
X264348685Y-41733180D01*
X264348685Y-41733180D02*
X264253447Y-41780799D01*
X264253447Y-41780799D02*
X264205828Y-41828418D01*
X265110590Y-42399847D02*
X265110590Y-41733180D01*
X265110590Y-41399847D02*
X265062971Y-41447466D01*
X265062971Y-41447466D02*
X265110590Y-41495085D01*
X265110590Y-41495085D02*
X265158209Y-41447466D01*
X265158209Y-41447466D02*
X265110590Y-41399847D01*
X265110590Y-41399847D02*
X265110590Y-41495085D01*
X266015351Y-42352228D02*
X265920113Y-42399847D01*
X265920113Y-42399847D02*
X265729637Y-42399847D01*
X265729637Y-42399847D02*
X265634399Y-42352228D01*
X265634399Y-42352228D02*
X265586780Y-42304608D01*
X265586780Y-42304608D02*
X265539161Y-42209370D01*
X265539161Y-42209370D02*
X265539161Y-41923656D01*
X265539161Y-41923656D02*
X265586780Y-41828418D01*
X265586780Y-41828418D02*
X265634399Y-41780799D01*
X265634399Y-41780799D02*
X265729637Y-41733180D01*
X265729637Y-41733180D02*
X265920113Y-41733180D01*
X265920113Y-41733180D02*
X266015351Y-41780799D01*
X266443923Y-42399847D02*
X266443923Y-41399847D01*
X266539161Y-42018894D02*
X266824875Y-42399847D01*
X266824875Y-41733180D02*
X266443923Y-42114132D01*
X267253447Y-41733180D02*
X267253447Y-42399847D01*
X267253447Y-41828418D02*
X267301066Y-41780799D01*
X267301066Y-41780799D02*
X267396304Y-41733180D01*
X267396304Y-41733180D02*
X267539161Y-41733180D01*
X267539161Y-41733180D02*
X267634399Y-41780799D01*
X267634399Y-41780799D02*
X267682018Y-41876037D01*
X267682018Y-41876037D02*
X267682018Y-42399847D01*
X268539161Y-42352228D02*
X268443923Y-42399847D01*
X268443923Y-42399847D02*
X268253447Y-42399847D01*
X268253447Y-42399847D02*
X268158209Y-42352228D01*
X268158209Y-42352228D02*
X268110590Y-42256989D01*
X268110590Y-42256989D02*
X268110590Y-41876037D01*
X268110590Y-41876037D02*
X268158209Y-41780799D01*
X268158209Y-41780799D02*
X268253447Y-41733180D01*
X268253447Y-41733180D02*
X268443923Y-41733180D01*
X268443923Y-41733180D02*
X268539161Y-41780799D01*
X268539161Y-41780799D02*
X268586780Y-41876037D01*
X268586780Y-41876037D02*
X268586780Y-41971275D01*
X268586780Y-41971275D02*
X268110590Y-42066513D01*
X268967733Y-42352228D02*
X269062971Y-42399847D01*
X269062971Y-42399847D02*
X269253447Y-42399847D01*
X269253447Y-42399847D02*
X269348685Y-42352228D01*
X269348685Y-42352228D02*
X269396304Y-42256989D01*
X269396304Y-42256989D02*
X269396304Y-42209370D01*
X269396304Y-42209370D02*
X269348685Y-42114132D01*
X269348685Y-42114132D02*
X269253447Y-42066513D01*
X269253447Y-42066513D02*
X269110590Y-42066513D01*
X269110590Y-42066513D02*
X269015352Y-42018894D01*
X269015352Y-42018894D02*
X268967733Y-41923656D01*
X268967733Y-41923656D02*
X268967733Y-41876037D01*
X268967733Y-41876037D02*
X269015352Y-41780799D01*
X269015352Y-41780799D02*
X269110590Y-41733180D01*
X269110590Y-41733180D02*
X269253447Y-41733180D01*
X269253447Y-41733180D02*
X269348685Y-41780799D01*
X269777257Y-42352228D02*
X269872495Y-42399847D01*
X269872495Y-42399847D02*
X270062971Y-42399847D01*
X270062971Y-42399847D02*
X270158209Y-42352228D01*
X270158209Y-42352228D02*
X270205828Y-42256989D01*
X270205828Y-42256989D02*
X270205828Y-42209370D01*
X270205828Y-42209370D02*
X270158209Y-42114132D01*
X270158209Y-42114132D02*
X270062971Y-42066513D01*
X270062971Y-42066513D02*
X269920114Y-42066513D01*
X269920114Y-42066513D02*
X269824876Y-42018894D01*
X269824876Y-42018894D02*
X269777257Y-41923656D01*
X269777257Y-41923656D02*
X269777257Y-41876037D01*
X269777257Y-41876037D02*
X269824876Y-41780799D01*
X269824876Y-41780799D02*
X269920114Y-41733180D01*
X269920114Y-41733180D02*
X270062971Y-41733180D01*
X270062971Y-41733180D02*
X270158209Y-41780799D01*
X253586779Y-44009791D02*
X253586779Y-43009791D01*
X253586779Y-43485981D02*
X254158207Y-43485981D01*
X254158207Y-44009791D02*
X254158207Y-43009791D01*
X254586779Y-43724076D02*
X255062969Y-43724076D01*
X254491541Y-44009791D02*
X254824874Y-43009791D01*
X254824874Y-43009791D02*
X255158207Y-44009791D01*
X255443922Y-43962172D02*
X255586779Y-44009791D01*
X255586779Y-44009791D02*
X255824874Y-44009791D01*
X255824874Y-44009791D02*
X255920112Y-43962172D01*
X255920112Y-43962172D02*
X255967731Y-43914552D01*
X255967731Y-43914552D02*
X256015350Y-43819314D01*
X256015350Y-43819314D02*
X256015350Y-43724076D01*
X256015350Y-43724076D02*
X255967731Y-43628838D01*
X255967731Y-43628838D02*
X255920112Y-43581219D01*
X255920112Y-43581219D02*
X255824874Y-43533600D01*
X255824874Y-43533600D02*
X255634398Y-43485981D01*
X255634398Y-43485981D02*
X255539160Y-43438362D01*
X255539160Y-43438362D02*
X255491541Y-43390743D01*
X255491541Y-43390743D02*
X255443922Y-43295505D01*
X255443922Y-43295505D02*
X255443922Y-43200267D01*
X255443922Y-43200267D02*
X255491541Y-43105029D01*
X255491541Y-43105029D02*
X255539160Y-43057410D01*
X255539160Y-43057410D02*
X255634398Y-43009791D01*
X255634398Y-43009791D02*
X255872493Y-43009791D01*
X255872493Y-43009791D02*
X256015350Y-43057410D01*
X256920112Y-44009791D02*
X256443922Y-44009791D01*
X256443922Y-44009791D02*
X256443922Y-43009791D01*
X257872494Y-43343124D02*
X258253446Y-43343124D01*
X258015351Y-44009791D02*
X258015351Y-43152648D01*
X258015351Y-43152648D02*
X258062970Y-43057410D01*
X258062970Y-43057410D02*
X258158208Y-43009791D01*
X258158208Y-43009791D02*
X258253446Y-43009791D01*
X258586780Y-44009791D02*
X258586780Y-43343124D01*
X258586780Y-43009791D02*
X258539161Y-43057410D01*
X258539161Y-43057410D02*
X258586780Y-43105029D01*
X258586780Y-43105029D02*
X258634399Y-43057410D01*
X258634399Y-43057410D02*
X258586780Y-43009791D01*
X258586780Y-43009791D02*
X258586780Y-43105029D01*
X259062970Y-43343124D02*
X259062970Y-44009791D01*
X259062970Y-43438362D02*
X259110589Y-43390743D01*
X259110589Y-43390743D02*
X259205827Y-43343124D01*
X259205827Y-43343124D02*
X259348684Y-43343124D01*
X259348684Y-43343124D02*
X259443922Y-43390743D01*
X259443922Y-43390743D02*
X259491541Y-43485981D01*
X259491541Y-43485981D02*
X259491541Y-44009791D01*
X259967732Y-44009791D02*
X259967732Y-43343124D01*
X259967732Y-43009791D02*
X259920113Y-43057410D01*
X259920113Y-43057410D02*
X259967732Y-43105029D01*
X259967732Y-43105029D02*
X260015351Y-43057410D01*
X260015351Y-43057410D02*
X259967732Y-43009791D01*
X259967732Y-43009791D02*
X259967732Y-43105029D01*
X260396303Y-43962172D02*
X260491541Y-44009791D01*
X260491541Y-44009791D02*
X260682017Y-44009791D01*
X260682017Y-44009791D02*
X260777255Y-43962172D01*
X260777255Y-43962172D02*
X260824874Y-43866933D01*
X260824874Y-43866933D02*
X260824874Y-43819314D01*
X260824874Y-43819314D02*
X260777255Y-43724076D01*
X260777255Y-43724076D02*
X260682017Y-43676457D01*
X260682017Y-43676457D02*
X260539160Y-43676457D01*
X260539160Y-43676457D02*
X260443922Y-43628838D01*
X260443922Y-43628838D02*
X260396303Y-43533600D01*
X260396303Y-43533600D02*
X260396303Y-43485981D01*
X260396303Y-43485981D02*
X260443922Y-43390743D01*
X260443922Y-43390743D02*
X260539160Y-43343124D01*
X260539160Y-43343124D02*
X260682017Y-43343124D01*
X260682017Y-43343124D02*
X260777255Y-43390743D01*
X261253446Y-44009791D02*
X261253446Y-43009791D01*
X261682017Y-44009791D02*
X261682017Y-43485981D01*
X261682017Y-43485981D02*
X261634398Y-43390743D01*
X261634398Y-43390743D02*
X261539160Y-43343124D01*
X261539160Y-43343124D02*
X261396303Y-43343124D01*
X261396303Y-43343124D02*
X261301065Y-43390743D01*
X261301065Y-43390743D02*
X261253446Y-43438362D01*
X253920112Y-45095925D02*
X254062969Y-45143544D01*
X254062969Y-45143544D02*
X254110588Y-45191163D01*
X254110588Y-45191163D02*
X254158207Y-45286401D01*
X254158207Y-45286401D02*
X254158207Y-45429258D01*
X254158207Y-45429258D02*
X254110588Y-45524496D01*
X254110588Y-45524496D02*
X254062969Y-45572116D01*
X254062969Y-45572116D02*
X253967731Y-45619735D01*
X253967731Y-45619735D02*
X253586779Y-45619735D01*
X253586779Y-45619735D02*
X253586779Y-44619735D01*
X253586779Y-44619735D02*
X253920112Y-44619735D01*
X253920112Y-44619735D02*
X254015350Y-44667354D01*
X254015350Y-44667354D02*
X254062969Y-44714973D01*
X254062969Y-44714973D02*
X254110588Y-44810211D01*
X254110588Y-44810211D02*
X254110588Y-44905449D01*
X254110588Y-44905449D02*
X254062969Y-45000687D01*
X254062969Y-45000687D02*
X254015350Y-45048306D01*
X254015350Y-45048306D02*
X253920112Y-45095925D01*
X253920112Y-45095925D02*
X253586779Y-45095925D01*
X254729636Y-45619735D02*
X254634398Y-45572116D01*
X254634398Y-45572116D02*
X254586779Y-45476877D01*
X254586779Y-45476877D02*
X254586779Y-44619735D01*
X255539160Y-44953068D02*
X255539160Y-45619735D01*
X255110589Y-44953068D02*
X255110589Y-45476877D01*
X255110589Y-45476877D02*
X255158208Y-45572116D01*
X255158208Y-45572116D02*
X255253446Y-45619735D01*
X255253446Y-45619735D02*
X255396303Y-45619735D01*
X255396303Y-45619735D02*
X255491541Y-45572116D01*
X255491541Y-45572116D02*
X255539160Y-45524496D01*
X256396303Y-45572116D02*
X256301065Y-45619735D01*
X256301065Y-45619735D02*
X256110589Y-45619735D01*
X256110589Y-45619735D02*
X256015351Y-45572116D01*
X256015351Y-45572116D02*
X255967732Y-45476877D01*
X255967732Y-45476877D02*
X255967732Y-45095925D01*
X255967732Y-45095925D02*
X256015351Y-45000687D01*
X256015351Y-45000687D02*
X256110589Y-44953068D01*
X256110589Y-44953068D02*
X256301065Y-44953068D01*
X256301065Y-44953068D02*
X256396303Y-45000687D01*
X256396303Y-45000687D02*
X256443922Y-45095925D01*
X256443922Y-45095925D02*
X256443922Y-45191163D01*
X256443922Y-45191163D02*
X255967732Y-45286401D01*
X257586780Y-45572116D02*
X257682018Y-45619735D01*
X257682018Y-45619735D02*
X257872494Y-45619735D01*
X257872494Y-45619735D02*
X257967732Y-45572116D01*
X257967732Y-45572116D02*
X258015351Y-45476877D01*
X258015351Y-45476877D02*
X258015351Y-45429258D01*
X258015351Y-45429258D02*
X257967732Y-45334020D01*
X257967732Y-45334020D02*
X257872494Y-45286401D01*
X257872494Y-45286401D02*
X257729637Y-45286401D01*
X257729637Y-45286401D02*
X257634399Y-45238782D01*
X257634399Y-45238782D02*
X257586780Y-45143544D01*
X257586780Y-45143544D02*
X257586780Y-45095925D01*
X257586780Y-45095925D02*
X257634399Y-45000687D01*
X257634399Y-45000687D02*
X257729637Y-44953068D01*
X257729637Y-44953068D02*
X257872494Y-44953068D01*
X257872494Y-44953068D02*
X257967732Y-45000687D01*
X258586780Y-45619735D02*
X258491542Y-45572116D01*
X258491542Y-45572116D02*
X258443923Y-45524496D01*
X258443923Y-45524496D02*
X258396304Y-45429258D01*
X258396304Y-45429258D02*
X258396304Y-45143544D01*
X258396304Y-45143544D02*
X258443923Y-45048306D01*
X258443923Y-45048306D02*
X258491542Y-45000687D01*
X258491542Y-45000687D02*
X258586780Y-44953068D01*
X258586780Y-44953068D02*
X258729637Y-44953068D01*
X258729637Y-44953068D02*
X258824875Y-45000687D01*
X258824875Y-45000687D02*
X258872494Y-45048306D01*
X258872494Y-45048306D02*
X258920113Y-45143544D01*
X258920113Y-45143544D02*
X258920113Y-45429258D01*
X258920113Y-45429258D02*
X258872494Y-45524496D01*
X258872494Y-45524496D02*
X258824875Y-45572116D01*
X258824875Y-45572116D02*
X258729637Y-45619735D01*
X258729637Y-45619735D02*
X258586780Y-45619735D01*
X259491542Y-45619735D02*
X259396304Y-45572116D01*
X259396304Y-45572116D02*
X259348685Y-45476877D01*
X259348685Y-45476877D02*
X259348685Y-44619735D01*
X260301066Y-45619735D02*
X260301066Y-44619735D01*
X260301066Y-45572116D02*
X260205828Y-45619735D01*
X260205828Y-45619735D02*
X260015352Y-45619735D01*
X260015352Y-45619735D02*
X259920114Y-45572116D01*
X259920114Y-45572116D02*
X259872495Y-45524496D01*
X259872495Y-45524496D02*
X259824876Y-45429258D01*
X259824876Y-45429258D02*
X259824876Y-45143544D01*
X259824876Y-45143544D02*
X259872495Y-45048306D01*
X259872495Y-45048306D02*
X259920114Y-45000687D01*
X259920114Y-45000687D02*
X260015352Y-44953068D01*
X260015352Y-44953068D02*
X260205828Y-44953068D01*
X260205828Y-44953068D02*
X260301066Y-45000687D01*
X261158209Y-45572116D02*
X261062971Y-45619735D01*
X261062971Y-45619735D02*
X260872495Y-45619735D01*
X260872495Y-45619735D02*
X260777257Y-45572116D01*
X260777257Y-45572116D02*
X260729638Y-45476877D01*
X260729638Y-45476877D02*
X260729638Y-45095925D01*
X260729638Y-45095925D02*
X260777257Y-45000687D01*
X260777257Y-45000687D02*
X260872495Y-44953068D01*
X260872495Y-44953068D02*
X261062971Y-44953068D01*
X261062971Y-44953068D02*
X261158209Y-45000687D01*
X261158209Y-45000687D02*
X261205828Y-45095925D01*
X261205828Y-45095925D02*
X261205828Y-45191163D01*
X261205828Y-45191163D02*
X260729638Y-45286401D01*
X261634400Y-45619735D02*
X261634400Y-44953068D01*
X261634400Y-45143544D02*
X261682019Y-45048306D01*
X261682019Y-45048306D02*
X261729638Y-45000687D01*
X261729638Y-45000687D02*
X261824876Y-44953068D01*
X261824876Y-44953068D02*
X261920114Y-44953068D01*
X262253448Y-45619735D02*
X262253448Y-44953068D01*
X262253448Y-45048306D02*
X262301067Y-45000687D01*
X262301067Y-45000687D02*
X262396305Y-44953068D01*
X262396305Y-44953068D02*
X262539162Y-44953068D01*
X262539162Y-44953068D02*
X262634400Y-45000687D01*
X262634400Y-45000687D02*
X262682019Y-45095925D01*
X262682019Y-45095925D02*
X262682019Y-45619735D01*
X262682019Y-45095925D02*
X262729638Y-45000687D01*
X262729638Y-45000687D02*
X262824876Y-44953068D01*
X262824876Y-44953068D02*
X262967733Y-44953068D01*
X262967733Y-44953068D02*
X263062972Y-45000687D01*
X263062972Y-45000687D02*
X263110591Y-45095925D01*
X263110591Y-45095925D02*
X263110591Y-45619735D01*
X264015352Y-45619735D02*
X264015352Y-45095925D01*
X264015352Y-45095925D02*
X263967733Y-45000687D01*
X263967733Y-45000687D02*
X263872495Y-44953068D01*
X263872495Y-44953068D02*
X263682019Y-44953068D01*
X263682019Y-44953068D02*
X263586781Y-45000687D01*
X264015352Y-45572116D02*
X263920114Y-45619735D01*
X263920114Y-45619735D02*
X263682019Y-45619735D01*
X263682019Y-45619735D02*
X263586781Y-45572116D01*
X263586781Y-45572116D02*
X263539162Y-45476877D01*
X263539162Y-45476877D02*
X263539162Y-45381639D01*
X263539162Y-45381639D02*
X263586781Y-45286401D01*
X263586781Y-45286401D02*
X263682019Y-45238782D01*
X263682019Y-45238782D02*
X263920114Y-45238782D01*
X263920114Y-45238782D02*
X264015352Y-45191163D01*
X264443924Y-45572116D02*
X264539162Y-45619735D01*
X264539162Y-45619735D02*
X264729638Y-45619735D01*
X264729638Y-45619735D02*
X264824876Y-45572116D01*
X264824876Y-45572116D02*
X264872495Y-45476877D01*
X264872495Y-45476877D02*
X264872495Y-45429258D01*
X264872495Y-45429258D02*
X264824876Y-45334020D01*
X264824876Y-45334020D02*
X264729638Y-45286401D01*
X264729638Y-45286401D02*
X264586781Y-45286401D01*
X264586781Y-45286401D02*
X264491543Y-45238782D01*
X264491543Y-45238782D02*
X264443924Y-45143544D01*
X264443924Y-45143544D02*
X264443924Y-45095925D01*
X264443924Y-45095925D02*
X264491543Y-45000687D01*
X264491543Y-45000687D02*
X264586781Y-44953068D01*
X264586781Y-44953068D02*
X264729638Y-44953068D01*
X264729638Y-44953068D02*
X264824876Y-45000687D01*
X265301067Y-45619735D02*
X265301067Y-44619735D01*
X265396305Y-45238782D02*
X265682019Y-45619735D01*
X265682019Y-44953068D02*
X265301067Y-45334020D01*
%TO.C,REF\u002A\u002A*%
X181000000Y-73475000D02*
G75*
G02*
X174600000Y-73475000I-3200000J0D01*
G01*
X174600000Y-73475000D02*
G75*
G02*
X181000000Y-73475000I3200000J0D01*
G01*
X223000000Y-73475000D02*
G75*
G02*
X216600000Y-73475000I-3200000J0D01*
G01*
X216600000Y-73475000D02*
G75*
G02*
X223000000Y-73475000I3200000J0D01*
G01*
%TD*%
M02*
