M48
; DRILL file {KiCad 9.0.2+dfsg-1} date 2025-07-08T11:28:35+0100
; FORMAT={-:-/ absolute / metric / decimal}
; #@! TF.CreationDate,2025-07-08T11:28:35+01:00
; #@! TF.GenerationSoftware,Kicad,Pcbnew,9.0.2+dfsg-1
; #@! TF.FileFunction,Plated,1,6,PTH
FMAT,2
METRIC
; #@! TA.AperFunction,Plated,PTH,ViaDrill
T1C0.300
; #@! TA.AperFunction,Plated,PTH,ComponentDrill
T2C0.600
; #@! TA.AperFunction,Plated,PTH,ComponentDrill
T3C0.800
; #@! TA.AperFunction,Plated,PTH,ComponentDrill
T4C1.000
; #@! TA.AperFunction,Plated,PTH,ComponentDrill
T5C1.500
; #@! TA.AperFunction,Plated,PTH,ComponentDrill
T6C1.700
; #@! TA.AperFunction,Plated,PTH,ComponentDrill
T7C1.850
; #@! TA.AperFunction,Plated,PTH,ComponentDrill
T8C2.000
%
G90
G05
T1
X177.55Y-123.7
X177.55Y-128.7
X177.55Y-138.7
X177.6Y-31.825
X177.6Y-36.825
X177.6Y-41.825
X177.6Y-46.825
X177.6Y-51.825
X177.6Y-56.825
X177.6Y-61.825
X177.6Y-66.825
X177.6Y-76.825
X177.6Y-81.825
X177.6Y-86.825
X177.6Y-91.825
X177.6Y-96.825
X177.6Y-101.825
X177.6Y-106.825
X177.6Y-111.825
X180.6Y-114.775
X180.6Y-119.125
X180.6Y-129.775
X180.6Y-134.775
X182.865Y-26.825
X182.865Y-31.825
X182.865Y-36.825
X182.865Y-41.825
X182.865Y-51.825
X182.865Y-56.825
X182.865Y-61.825
X182.865Y-66.825
X182.865Y-71.825
X182.865Y-76.825
X182.865Y-81.825
X182.865Y-86.825
X182.865Y-91.825
X182.865Y-96.825
X182.865Y-101.825
X182.865Y-106.825
X182.865Y-111.825
X182.865Y-131.825
X183.5Y-122.875
X185.575Y-130.475
X185.6Y-114.775
X185.6Y-119.125
X185.6Y-138.775
X186.3Y-122.875
X187.865Y-26.825
X187.865Y-31.825
X187.865Y-41.825
X187.865Y-46.825
X187.865Y-51.825
X187.865Y-56.825
X187.865Y-61.825
X187.865Y-66.825
X187.865Y-71.825
X187.865Y-76.825
X187.865Y-81.825
X187.865Y-86.825
X187.865Y-91.825
X187.865Y-96.825
X187.865Y-101.825
X187.927Y-128.465
X189.6Y-135.775
X189.6Y-138.7
X190.85Y-104.575
X192.85Y-111.775
X192.85Y-135.775
X192.85Y-138.7
X192.865Y-41.825
X192.865Y-46.825
X192.865Y-51.825
X192.865Y-56.825
X192.865Y-61.825
X192.865Y-66.825
X192.865Y-71.825
X192.865Y-76.825
X192.865Y-81.825
X192.865Y-86.825
X192.865Y-91.825
X192.865Y-96.825
X192.865Y-101.825
X193.1Y-118.75
X197.8Y-120.775
X197.8Y-122.375
X197.85Y-111.775
X197.865Y-41.825
X197.865Y-51.825
X197.865Y-56.825
X197.865Y-61.825
X197.865Y-66.825
X197.865Y-71.825
X197.865Y-76.825
X197.865Y-81.825
X197.865Y-86.825
X197.865Y-91.825
X197.865Y-96.825
X199.2Y-119.175
X201.92Y-116.592
X202.3Y-125.175
X202.85Y-111.775
X202.85Y-135.775
X202.85Y-138.7
X202.865Y-41.825
X202.865Y-51.825
X202.865Y-56.825
X202.865Y-61.825
X202.865Y-66.825
X202.865Y-71.825
X202.865Y-76.825
X202.865Y-81.825
X202.865Y-86.825
X202.865Y-91.825
X202.945Y-28.83
X203.6Y-98.325
X204.1Y-116.375
X204.4Y-102.685
X205.4Y-125.175
X206.55Y-27.745
X206.9Y-41.825
X207.0Y-102.685
X207.05Y-30.125
X207.3Y-95.785
X207.85Y-115.275
X207.85Y-135.775
X207.85Y-138.7
X207.865Y-46.825
X207.865Y-51.825
X207.865Y-56.825
X207.865Y-61.825
X207.865Y-66.825
X207.865Y-71.825
X207.865Y-76.825
X207.865Y-81.825
X207.865Y-86.825
X207.865Y-91.825
X207.865Y-131.825
X208.12Y-27.755
X208.4Y-122.775
X208.405Y-121.825
X209.5Y-101.685
X209.5Y-125.175
X210.89Y-95.425
X211.66Y-27.735
X212.075Y-117.525
X212.15Y-115.975
X212.675Y-30.1
X212.8Y-125.175
X212.85Y-111.775
X212.865Y-51.825
X212.865Y-56.825
X212.865Y-61.825
X212.865Y-66.825
X212.865Y-71.825
X212.865Y-76.825
X212.865Y-81.825
X212.865Y-86.825
X212.865Y-91.825
X214.15Y-26.925
X214.625Y-116.5
X214.8Y-45.7
X215.425Y-121.8
X215.425Y-122.75
X215.7Y-45.675
X216.7Y-117.5
X216.8Y-123.175
X216.8Y-124.375
X216.95Y-30.4
X217.2Y-125.575
X217.85Y-106.775
X217.865Y-36.825
X217.865Y-41.825
X217.865Y-46.825
X217.865Y-61.825
X217.865Y-66.825
X217.865Y-71.825
X217.865Y-76.825
X217.865Y-81.825
X217.865Y-86.825
X217.865Y-91.825
X217.865Y-96.825
X218.1Y-33.45
X219.15Y-30.075
X219.95Y-35.85
X220.6Y-34.675
X221.1Y-30.075
X221.1Y-112.8
X221.3Y-37.1
X221.346Y-33.621
X221.6Y-52.1
X222.1Y-34.675
X222.6Y-46.95
X222.865Y-56.825
X222.865Y-66.825
X222.865Y-71.825
X222.865Y-76.825
X222.865Y-81.825
X222.865Y-86.825
X222.865Y-91.825
X222.865Y-96.825
X222.865Y-101.825
X222.865Y-106.775
X222.9Y-135.775
X222.9Y-138.7
X223.05Y-30.075
X223.5Y-113.1
X224.1Y-33.4
X224.8Y-130.3
X225.0Y-79.6
X225.05Y-30.4
X225.6Y-114.775
X225.75Y-49.375
X226.1Y-110.5
X226.7Y-121.475
X227.2Y-71.6
X227.2Y-74.6
X227.865Y-26.825
X227.865Y-31.825
X227.865Y-56.825
X227.865Y-76.825
X227.865Y-91.825
X227.865Y-96.825
X227.865Y-101.825
X227.865Y-106.825
X227.865Y-111.825
X227.865Y-131.825
X227.9Y-135.775
X227.9Y-138.7
X228.0Y-79.7
X228.6Y-83.575
X228.85Y-45.545
X228.953Y-68.432
X229.4Y-82.5
X229.75Y-53.1
X232.0Y-31.375
X232.0Y-75.475
X232.2Y-84.85
X232.5Y-136.9
X232.865Y-26.825
X232.865Y-56.825
X232.865Y-91.825
X232.865Y-96.825
X232.865Y-101.825
X232.865Y-106.825
X232.865Y-111.825
X233.33Y-86.05
X233.5Y-35.775
X233.6Y-50.125
X234.2Y-86.05
X235.2Y-136.9
X235.4Y-131.1
X236.0Y-87.175
X236.0Y-125.7
X236.15Y-46.175
X236.25Y-58.825
X236.25Y-59.925
X237.6Y-131.1
X237.865Y-26.825
X237.865Y-31.825
X237.865Y-36.825
X237.865Y-56.825
X237.865Y-91.825
X237.865Y-96.825
X237.865Y-101.825
X237.865Y-106.825
X237.865Y-136.825
X239.6Y-126.7
X240.1Y-85.4
X240.6Y-134.5
X241.7Y-79.675
X242.2Y-26.825
X242.2Y-31.825
X242.2Y-36.825
X242.2Y-42.8
X242.2Y-46.825
X242.2Y-51.825
X242.2Y-61.825
X242.2Y-66.825
X242.2Y-91.825
X242.2Y-96.825
X242.2Y-101.825
X242.2Y-106.825
X242.2Y-111.825
X242.2Y-126.825
X242.2Y-136.825
T4
X226.0Y-35.0
T5
X198.1Y-134.775
X216.1Y-134.735
T6
X195.56Y-132.235
X195.56Y-137.315
X200.64Y-132.235
X200.64Y-137.315
X213.56Y-132.195
X213.56Y-137.275
X218.64Y-132.195
X218.64Y-137.275
T7
X228.9Y-116.5
X228.9Y-120.31
X228.9Y-124.12
X233.6Y-116.5
X233.6Y-120.31
X233.6Y-124.12
X238.3Y-116.5
X238.3Y-120.31
X238.3Y-124.12
T8
X189.15Y-38.9
X189.15Y-111.25
X208.25Y-38.9
X208.25Y-111.25
T2
X216.789Y-27.515G85X216.789Y-26.015
G05
X216.789Y-32.625G85X216.789Y-31.625
G05
X225.429Y-27.515G85X225.429Y-26.015
G05
X225.429Y-32.625G85X225.429Y-31.625
G05
T3
X180.25Y-124.025G85X181.55Y-124.025
G05
X183.25Y-126.325G85X184.55Y-126.325
G05
X183.25Y-136.325G85X184.55Y-136.325
G05
X230.535Y-138.47G85X231.585Y-138.47
G05
X235.615Y-138.47G85X236.665Y-138.47
G05
T4
X229.9Y-34.775G85X229.9Y-36.775
G05
X235.6Y-32.775G85X233.6Y-32.775
G05
X235.6Y-38.775G85X233.6Y-38.775
G05
M30
