%TF.GenerationSoftware,KiCad,Pcbnew,9.0.2+dfsg-1*%
%TF.CreationDate,2025-07-08T11:28:32+01:00*%
%TF.ProjectId,low-noise-power-probe-panel,6c6f772d-6e6f-4697-9365-2d706f776572,rev?*%
%TF.SameCoordinates,Original*%
%TF.FileFunction,Legend,Top*%
%TF.FilePolarity,Positive*%
%FSLAX46Y46*%
G04 Gerber Fmt 4.6, Leading zero omitted, Abs format (unit mm)*
G04 Created by KiCad (PCBNEW 9.0.2+dfsg-1) date 2025-07-08 11:28:32*
%MOMM*%
%LPD*%
G01*
G04 APERTURE LIST*
G04 Aperture macros list*
%AMRoundRect*
0 Rectangle with rounded corners*
0 $1 Rounding radius*
0 $2 $3 $4 $5 $6 $7 $8 $9 X,Y pos of 4 corners*
0 Add a 4 corners polygon primitive as box body*
4,1,4,$2,$3,$4,$5,$6,$7,$8,$9,$2,$3,0*
0 Add four circle primitives for the rounded corners*
1,1,$1+$1,$2,$3*
1,1,$1+$1,$4,$5*
1,1,$1+$1,$6,$7*
1,1,$1+$1,$8,$9*
0 Add four rect primitives between the rounded corners*
20,1,$1+$1,$2,$3,$4,$5,0*
20,1,$1+$1,$4,$5,$6,$7,0*
20,1,$1+$1,$6,$7,$8,$9,0*
20,1,$1+$1,$8,$9,$2,$3,0*%
%AMFreePoly0*
4,1,9,3.862500,-0.866500,0.737500,-0.866500,0.737500,-0.450000,-0.737500,-0.450000,-0.737500,0.450000,0.737500,0.450000,0.737500,0.866500,3.862500,0.866500,3.862500,-0.866500,3.862500,-0.866500,$1*%
G04 Aperture macros list end*
%ADD10C,0.150000*%
%ADD11C,0.200000*%
%ADD12C,0.250000*%
%ADD13C,0.300000*%
%ADD14C,0.400000*%
%ADD15C,0.120000*%
%ADD16C,3.000000*%
%ADD17O,3.000000X2.000000*%
%ADD18C,1.500000*%
%ADD19RoundRect,0.200000X-0.200000X-0.275000X0.200000X-0.275000X0.200000X0.275000X-0.200000X0.275000X0*%
%ADD20R,0.900000X6.700000*%
%ADD21RoundRect,0.200000X0.200000X0.275000X-0.200000X0.275000X-0.200000X-0.275000X0.200000X-0.275000X0*%
%ADD22R,0.600000X0.450000*%
%ADD23RoundRect,0.140000X0.140000X0.170000X-0.140000X0.170000X-0.140000X-0.170000X0.140000X-0.170000X0*%
%ADD24RoundRect,0.140000X-0.170000X0.140000X-0.170000X-0.140000X0.170000X-0.140000X0.170000X0.140000X0*%
%ADD25RoundRect,0.200000X-0.275000X0.200000X-0.275000X-0.200000X0.275000X-0.200000X0.275000X0.200000X0*%
%ADD26C,2.000000*%
%ADD27C,3.200000*%
%ADD28R,6.700000X0.900000*%
%ADD29RoundRect,0.250000X-1.450000X0.312500X-1.450000X-0.312500X1.450000X-0.312500X1.450000X0.312500X0*%
%ADD30RoundRect,0.150000X0.512500X0.150000X-0.512500X0.150000X-0.512500X-0.150000X0.512500X-0.150000X0*%
%ADD31C,2.250000*%
%ADD32RoundRect,0.112500X0.187500X0.112500X-0.187500X0.112500X-0.187500X-0.112500X0.187500X-0.112500X0*%
%ADD33RoundRect,0.250000X-0.475000X0.250000X-0.475000X-0.250000X0.475000X-0.250000X0.475000X0.250000X0*%
%ADD34C,1.000000*%
%ADD35R,0.300000X0.650000*%
%ADD36R,2.480000X1.550000*%
%ADD37R,0.300000X0.700000*%
%ADD38R,1.000000X0.700000*%
%ADD39O,1.100000X2.100000*%
%ADD40O,1.100000X2.600000*%
%ADD41RoundRect,0.200000X0.275000X-0.200000X0.275000X0.200000X-0.275000X0.200000X-0.275000X-0.200000X0*%
%ADD42R,0.900000X1.300000*%
%ADD43FreePoly0,270.000000*%
%ADD44R,3.500000X3.500000*%
%ADD45RoundRect,0.750000X-1.000000X0.750000X-1.000000X-0.750000X1.000000X-0.750000X1.000000X0.750000X0*%
%ADD46RoundRect,0.875000X-0.875000X0.875000X-0.875000X-0.875000X0.875000X-0.875000X0.875000X0.875000X0*%
%ADD47RoundRect,0.150000X-0.825000X-0.150000X0.825000X-0.150000X0.825000X0.150000X-0.825000X0.150000X0*%
%ADD48RoundRect,0.250000X0.475000X-0.250000X0.475000X0.250000X-0.475000X0.250000X-0.475000X-0.250000X0*%
%ADD49RoundRect,0.250000X-0.625000X0.375000X-0.625000X-0.375000X0.625000X-0.375000X0.625000X0.375000X0*%
%ADD50RoundRect,0.140000X-0.140000X-0.170000X0.140000X-0.170000X0.140000X0.170000X-0.140000X0.170000X0*%
%ADD51RoundRect,0.140000X0.170000X-0.140000X0.170000X0.140000X-0.170000X0.140000X-0.170000X-0.140000X0*%
%ADD52R,1.700000X1.300000*%
%ADD53C,3.500000*%
%ADD54C,4.000000*%
%ADD55C,3.700000*%
%ADD56RoundRect,0.112500X0.112500X-0.187500X0.112500X0.187500X-0.112500X0.187500X-0.112500X-0.187500X0*%
%ADD57RoundRect,0.062500X-0.062500X0.362500X-0.062500X-0.362500X0.062500X-0.362500X0.062500X0.362500X0*%
%ADD58R,2.380000X1.650000*%
%ADD59RoundRect,0.200000X0.138157X-0.310705X0.338157X0.035705X-0.138157X0.310705X-0.338157X-0.035705X0*%
G04 APERTURE END LIST*
D10*
X238400000Y-113575000D02*
X238400000Y-114375000D01*
X229000000Y-113575000D02*
X238400000Y-113575000D01*
X233600000Y-113575000D02*
X233600000Y-114375000D01*
D11*
X190400000Y-117675000D02*
X225400000Y-117675000D01*
X225400000Y-129675000D01*
X190400000Y-129675000D01*
X190400000Y-117675000D01*
D10*
X229000000Y-113575000D02*
X229000000Y-114375000D01*
X224300000Y-84900000D02*
X226700000Y-85400000D01*
D12*
X232150000Y-90762756D02*
X232364286Y-90834184D01*
X232364286Y-90834184D02*
X232435715Y-90905613D01*
X232435715Y-90905613D02*
X232507143Y-91048470D01*
X232507143Y-91048470D02*
X232507143Y-91262756D01*
X232507143Y-91262756D02*
X232435715Y-91405613D01*
X232435715Y-91405613D02*
X232364286Y-91477042D01*
X232364286Y-91477042D02*
X232221429Y-91548470D01*
X232221429Y-91548470D02*
X231650000Y-91548470D01*
X231650000Y-91548470D02*
X231650000Y-90048470D01*
X231650000Y-90048470D02*
X232150000Y-90048470D01*
X232150000Y-90048470D02*
X232292858Y-90119899D01*
X232292858Y-90119899D02*
X232364286Y-90191327D01*
X232364286Y-90191327D02*
X232435715Y-90334184D01*
X232435715Y-90334184D02*
X232435715Y-90477042D01*
X232435715Y-90477042D02*
X232364286Y-90619899D01*
X232364286Y-90619899D02*
X232292858Y-90691327D01*
X232292858Y-90691327D02*
X232150000Y-90762756D01*
X232150000Y-90762756D02*
X231650000Y-90762756D01*
X233078572Y-91119899D02*
X233792858Y-91119899D01*
X232935715Y-91548470D02*
X233435715Y-90048470D01*
X233435715Y-90048470D02*
X233935715Y-91548470D01*
X234221429Y-90048470D02*
X235078572Y-90048470D01*
X234650000Y-91548470D02*
X234650000Y-90048470D01*
X235364286Y-90048470D02*
X236221429Y-90048470D01*
X235792857Y-91548470D02*
X235792857Y-90048470D01*
X236721428Y-90762756D02*
X237221428Y-90762756D01*
X237435714Y-91548470D02*
X236721428Y-91548470D01*
X236721428Y-91548470D02*
X236721428Y-90048470D01*
X236721428Y-90048470D02*
X237435714Y-90048470D01*
X238935714Y-91548470D02*
X238435714Y-90834184D01*
X238078571Y-91548470D02*
X238078571Y-90048470D01*
X238078571Y-90048470D02*
X238650000Y-90048470D01*
X238650000Y-90048470D02*
X238792857Y-90119899D01*
X238792857Y-90119899D02*
X238864286Y-90191327D01*
X238864286Y-90191327D02*
X238935714Y-90334184D01*
X238935714Y-90334184D02*
X238935714Y-90548470D01*
X238935714Y-90548470D02*
X238864286Y-90691327D01*
X238864286Y-90691327D02*
X238792857Y-90762756D01*
X238792857Y-90762756D02*
X238650000Y-90834184D01*
X238650000Y-90834184D02*
X238078571Y-90834184D01*
X239864286Y-90834184D02*
X239864286Y-91548470D01*
X239364286Y-90048470D02*
X239864286Y-90834184D01*
X239864286Y-90834184D02*
X240364286Y-90048470D01*
X232757142Y-93820529D02*
X232685714Y-93891958D01*
X232685714Y-93891958D02*
X232471428Y-93963386D01*
X232471428Y-93963386D02*
X232328571Y-93963386D01*
X232328571Y-93963386D02*
X232114285Y-93891958D01*
X232114285Y-93891958D02*
X231971428Y-93749100D01*
X231971428Y-93749100D02*
X231899999Y-93606243D01*
X231899999Y-93606243D02*
X231828571Y-93320529D01*
X231828571Y-93320529D02*
X231828571Y-93106243D01*
X231828571Y-93106243D02*
X231899999Y-92820529D01*
X231899999Y-92820529D02*
X231971428Y-92677672D01*
X231971428Y-92677672D02*
X232114285Y-92534815D01*
X232114285Y-92534815D02*
X232328571Y-92463386D01*
X232328571Y-92463386D02*
X232471428Y-92463386D01*
X232471428Y-92463386D02*
X232685714Y-92534815D01*
X232685714Y-92534815D02*
X232757142Y-92606243D01*
X233399999Y-93963386D02*
X233399999Y-92463386D01*
X233399999Y-93177672D02*
X234257142Y-93177672D01*
X234257142Y-93963386D02*
X234257142Y-92463386D01*
X234900000Y-93534815D02*
X235614286Y-93534815D01*
X234757143Y-93963386D02*
X235257143Y-92463386D01*
X235257143Y-92463386D02*
X235757143Y-93963386D01*
X237114285Y-93963386D02*
X236614285Y-93249100D01*
X236257142Y-93963386D02*
X236257142Y-92463386D01*
X236257142Y-92463386D02*
X236828571Y-92463386D01*
X236828571Y-92463386D02*
X236971428Y-92534815D01*
X236971428Y-92534815D02*
X237042857Y-92606243D01*
X237042857Y-92606243D02*
X237114285Y-92749100D01*
X237114285Y-92749100D02*
X237114285Y-92963386D01*
X237114285Y-92963386D02*
X237042857Y-93106243D01*
X237042857Y-93106243D02*
X236971428Y-93177672D01*
X236971428Y-93177672D02*
X236828571Y-93249100D01*
X236828571Y-93249100D02*
X236257142Y-93249100D01*
X238542857Y-92534815D02*
X238400000Y-92463386D01*
X238400000Y-92463386D02*
X238185714Y-92463386D01*
X238185714Y-92463386D02*
X237971428Y-92534815D01*
X237971428Y-92534815D02*
X237828571Y-92677672D01*
X237828571Y-92677672D02*
X237757142Y-92820529D01*
X237757142Y-92820529D02*
X237685714Y-93106243D01*
X237685714Y-93106243D02*
X237685714Y-93320529D01*
X237685714Y-93320529D02*
X237757142Y-93606243D01*
X237757142Y-93606243D02*
X237828571Y-93749100D01*
X237828571Y-93749100D02*
X237971428Y-93891958D01*
X237971428Y-93891958D02*
X238185714Y-93963386D01*
X238185714Y-93963386D02*
X238328571Y-93963386D01*
X238328571Y-93963386D02*
X238542857Y-93891958D01*
X238542857Y-93891958D02*
X238614285Y-93820529D01*
X238614285Y-93820529D02*
X238614285Y-93320529D01*
X238614285Y-93320529D02*
X238328571Y-93320529D01*
X239257142Y-93177672D02*
X239757142Y-93177672D01*
X239971428Y-93963386D02*
X239257142Y-93963386D01*
X239257142Y-93963386D02*
X239257142Y-92463386D01*
X239257142Y-92463386D02*
X239971428Y-92463386D01*
X211009500Y-138167856D02*
X211080928Y-137953571D01*
X211080928Y-137953571D02*
X211080928Y-137596428D01*
X211080928Y-137596428D02*
X211009500Y-137453571D01*
X211009500Y-137453571D02*
X210938071Y-137382142D01*
X210938071Y-137382142D02*
X210795214Y-137310713D01*
X210795214Y-137310713D02*
X210652357Y-137310713D01*
X210652357Y-137310713D02*
X210509500Y-137382142D01*
X210509500Y-137382142D02*
X210438071Y-137453571D01*
X210438071Y-137453571D02*
X210366642Y-137596428D01*
X210366642Y-137596428D02*
X210295214Y-137882142D01*
X210295214Y-137882142D02*
X210223785Y-138024999D01*
X210223785Y-138024999D02*
X210152357Y-138096428D01*
X210152357Y-138096428D02*
X210009500Y-138167856D01*
X210009500Y-138167856D02*
X209866642Y-138167856D01*
X209866642Y-138167856D02*
X209723785Y-138096428D01*
X209723785Y-138096428D02*
X209652357Y-138024999D01*
X209652357Y-138024999D02*
X209580928Y-137882142D01*
X209580928Y-137882142D02*
X209580928Y-137524999D01*
X209580928Y-137524999D02*
X209652357Y-137310713D01*
X210938071Y-135810714D02*
X211009500Y-135882142D01*
X211009500Y-135882142D02*
X211080928Y-136096428D01*
X211080928Y-136096428D02*
X211080928Y-136239285D01*
X211080928Y-136239285D02*
X211009500Y-136453571D01*
X211009500Y-136453571D02*
X210866642Y-136596428D01*
X210866642Y-136596428D02*
X210723785Y-136667857D01*
X210723785Y-136667857D02*
X210438071Y-136739285D01*
X210438071Y-136739285D02*
X210223785Y-136739285D01*
X210223785Y-136739285D02*
X209938071Y-136667857D01*
X209938071Y-136667857D02*
X209795214Y-136596428D01*
X209795214Y-136596428D02*
X209652357Y-136453571D01*
X209652357Y-136453571D02*
X209580928Y-136239285D01*
X209580928Y-136239285D02*
X209580928Y-136096428D01*
X209580928Y-136096428D02*
X209652357Y-135882142D01*
X209652357Y-135882142D02*
X209723785Y-135810714D01*
X209580928Y-134882142D02*
X209580928Y-134596428D01*
X209580928Y-134596428D02*
X209652357Y-134453571D01*
X209652357Y-134453571D02*
X209795214Y-134310714D01*
X209795214Y-134310714D02*
X210080928Y-134239285D01*
X210080928Y-134239285D02*
X210580928Y-134239285D01*
X210580928Y-134239285D02*
X210866642Y-134310714D01*
X210866642Y-134310714D02*
X211009500Y-134453571D01*
X211009500Y-134453571D02*
X211080928Y-134596428D01*
X211080928Y-134596428D02*
X211080928Y-134882142D01*
X211080928Y-134882142D02*
X211009500Y-135025000D01*
X211009500Y-135025000D02*
X210866642Y-135167857D01*
X210866642Y-135167857D02*
X210580928Y-135239285D01*
X210580928Y-135239285D02*
X210080928Y-135239285D01*
X210080928Y-135239285D02*
X209795214Y-135167857D01*
X209795214Y-135167857D02*
X209652357Y-135025000D01*
X209652357Y-135025000D02*
X209580928Y-134882142D01*
X211080928Y-133596428D02*
X209580928Y-133596428D01*
X209580928Y-133596428D02*
X209580928Y-133024999D01*
X209580928Y-133024999D02*
X209652357Y-132882142D01*
X209652357Y-132882142D02*
X209723785Y-132810713D01*
X209723785Y-132810713D02*
X209866642Y-132739285D01*
X209866642Y-132739285D02*
X210080928Y-132739285D01*
X210080928Y-132739285D02*
X210223785Y-132810713D01*
X210223785Y-132810713D02*
X210295214Y-132882142D01*
X210295214Y-132882142D02*
X210366642Y-133024999D01*
X210366642Y-133024999D02*
X210366642Y-133596428D01*
X210295214Y-132096428D02*
X210295214Y-131596428D01*
X211080928Y-131382142D02*
X211080928Y-132096428D01*
X211080928Y-132096428D02*
X209580928Y-132096428D01*
X209580928Y-132096428D02*
X209580928Y-131382142D01*
D13*
X194714286Y-23178328D02*
X194571429Y-23106900D01*
X194571429Y-23106900D02*
X194500000Y-22964042D01*
X194500000Y-22964042D02*
X194500000Y-21678328D01*
X195500000Y-23178328D02*
X195357143Y-23106900D01*
X195357143Y-23106900D02*
X195285714Y-23035471D01*
X195285714Y-23035471D02*
X195214286Y-22892614D01*
X195214286Y-22892614D02*
X195214286Y-22464042D01*
X195214286Y-22464042D02*
X195285714Y-22321185D01*
X195285714Y-22321185D02*
X195357143Y-22249757D01*
X195357143Y-22249757D02*
X195500000Y-22178328D01*
X195500000Y-22178328D02*
X195714286Y-22178328D01*
X195714286Y-22178328D02*
X195857143Y-22249757D01*
X195857143Y-22249757D02*
X195928572Y-22321185D01*
X195928572Y-22321185D02*
X196000000Y-22464042D01*
X196000000Y-22464042D02*
X196000000Y-22892614D01*
X196000000Y-22892614D02*
X195928572Y-23035471D01*
X195928572Y-23035471D02*
X195857143Y-23106900D01*
X195857143Y-23106900D02*
X195714286Y-23178328D01*
X195714286Y-23178328D02*
X195500000Y-23178328D01*
X196500000Y-22178328D02*
X196785715Y-23178328D01*
X196785715Y-23178328D02*
X197071429Y-22464042D01*
X197071429Y-22464042D02*
X197357143Y-23178328D01*
X197357143Y-23178328D02*
X197642857Y-22178328D01*
X199357143Y-22178328D02*
X199357143Y-23178328D01*
X199357143Y-22321185D02*
X199428572Y-22249757D01*
X199428572Y-22249757D02*
X199571429Y-22178328D01*
X199571429Y-22178328D02*
X199785715Y-22178328D01*
X199785715Y-22178328D02*
X199928572Y-22249757D01*
X199928572Y-22249757D02*
X200000001Y-22392614D01*
X200000001Y-22392614D02*
X200000001Y-23178328D01*
X200928572Y-23178328D02*
X200785715Y-23106900D01*
X200785715Y-23106900D02*
X200714286Y-23035471D01*
X200714286Y-23035471D02*
X200642858Y-22892614D01*
X200642858Y-22892614D02*
X200642858Y-22464042D01*
X200642858Y-22464042D02*
X200714286Y-22321185D01*
X200714286Y-22321185D02*
X200785715Y-22249757D01*
X200785715Y-22249757D02*
X200928572Y-22178328D01*
X200928572Y-22178328D02*
X201142858Y-22178328D01*
X201142858Y-22178328D02*
X201285715Y-22249757D01*
X201285715Y-22249757D02*
X201357144Y-22321185D01*
X201357144Y-22321185D02*
X201428572Y-22464042D01*
X201428572Y-22464042D02*
X201428572Y-22892614D01*
X201428572Y-22892614D02*
X201357144Y-23035471D01*
X201357144Y-23035471D02*
X201285715Y-23106900D01*
X201285715Y-23106900D02*
X201142858Y-23178328D01*
X201142858Y-23178328D02*
X200928572Y-23178328D01*
X202071429Y-23178328D02*
X202071429Y-22178328D01*
X202071429Y-21678328D02*
X202000001Y-21749757D01*
X202000001Y-21749757D02*
X202071429Y-21821185D01*
X202071429Y-21821185D02*
X202142858Y-21749757D01*
X202142858Y-21749757D02*
X202071429Y-21678328D01*
X202071429Y-21678328D02*
X202071429Y-21821185D01*
X202714287Y-23106900D02*
X202857144Y-23178328D01*
X202857144Y-23178328D02*
X203142858Y-23178328D01*
X203142858Y-23178328D02*
X203285715Y-23106900D01*
X203285715Y-23106900D02*
X203357144Y-22964042D01*
X203357144Y-22964042D02*
X203357144Y-22892614D01*
X203357144Y-22892614D02*
X203285715Y-22749757D01*
X203285715Y-22749757D02*
X203142858Y-22678328D01*
X203142858Y-22678328D02*
X202928573Y-22678328D01*
X202928573Y-22678328D02*
X202785715Y-22606900D01*
X202785715Y-22606900D02*
X202714287Y-22464042D01*
X202714287Y-22464042D02*
X202714287Y-22392614D01*
X202714287Y-22392614D02*
X202785715Y-22249757D01*
X202785715Y-22249757D02*
X202928573Y-22178328D01*
X202928573Y-22178328D02*
X203142858Y-22178328D01*
X203142858Y-22178328D02*
X203285715Y-22249757D01*
X204571430Y-23106900D02*
X204428573Y-23178328D01*
X204428573Y-23178328D02*
X204142859Y-23178328D01*
X204142859Y-23178328D02*
X204000001Y-23106900D01*
X204000001Y-23106900D02*
X203928573Y-22964042D01*
X203928573Y-22964042D02*
X203928573Y-22392614D01*
X203928573Y-22392614D02*
X204000001Y-22249757D01*
X204000001Y-22249757D02*
X204142859Y-22178328D01*
X204142859Y-22178328D02*
X204428573Y-22178328D01*
X204428573Y-22178328D02*
X204571430Y-22249757D01*
X204571430Y-22249757D02*
X204642859Y-22392614D01*
X204642859Y-22392614D02*
X204642859Y-22535471D01*
X204642859Y-22535471D02*
X203928573Y-22678328D01*
X206428572Y-22178328D02*
X206428572Y-23678328D01*
X206428572Y-22249757D02*
X206571430Y-22178328D01*
X206571430Y-22178328D02*
X206857144Y-22178328D01*
X206857144Y-22178328D02*
X207000001Y-22249757D01*
X207000001Y-22249757D02*
X207071430Y-22321185D01*
X207071430Y-22321185D02*
X207142858Y-22464042D01*
X207142858Y-22464042D02*
X207142858Y-22892614D01*
X207142858Y-22892614D02*
X207071430Y-23035471D01*
X207071430Y-23035471D02*
X207000001Y-23106900D01*
X207000001Y-23106900D02*
X206857144Y-23178328D01*
X206857144Y-23178328D02*
X206571430Y-23178328D01*
X206571430Y-23178328D02*
X206428572Y-23106900D01*
X208000001Y-23178328D02*
X207857144Y-23106900D01*
X207857144Y-23106900D02*
X207785715Y-23035471D01*
X207785715Y-23035471D02*
X207714287Y-22892614D01*
X207714287Y-22892614D02*
X207714287Y-22464042D01*
X207714287Y-22464042D02*
X207785715Y-22321185D01*
X207785715Y-22321185D02*
X207857144Y-22249757D01*
X207857144Y-22249757D02*
X208000001Y-22178328D01*
X208000001Y-22178328D02*
X208214287Y-22178328D01*
X208214287Y-22178328D02*
X208357144Y-22249757D01*
X208357144Y-22249757D02*
X208428573Y-22321185D01*
X208428573Y-22321185D02*
X208500001Y-22464042D01*
X208500001Y-22464042D02*
X208500001Y-22892614D01*
X208500001Y-22892614D02*
X208428573Y-23035471D01*
X208428573Y-23035471D02*
X208357144Y-23106900D01*
X208357144Y-23106900D02*
X208214287Y-23178328D01*
X208214287Y-23178328D02*
X208000001Y-23178328D01*
X209000001Y-22178328D02*
X209285716Y-23178328D01*
X209285716Y-23178328D02*
X209571430Y-22464042D01*
X209571430Y-22464042D02*
X209857144Y-23178328D01*
X209857144Y-23178328D02*
X210142858Y-22178328D01*
X211285716Y-23106900D02*
X211142859Y-23178328D01*
X211142859Y-23178328D02*
X210857145Y-23178328D01*
X210857145Y-23178328D02*
X210714287Y-23106900D01*
X210714287Y-23106900D02*
X210642859Y-22964042D01*
X210642859Y-22964042D02*
X210642859Y-22392614D01*
X210642859Y-22392614D02*
X210714287Y-22249757D01*
X210714287Y-22249757D02*
X210857145Y-22178328D01*
X210857145Y-22178328D02*
X211142859Y-22178328D01*
X211142859Y-22178328D02*
X211285716Y-22249757D01*
X211285716Y-22249757D02*
X211357145Y-22392614D01*
X211357145Y-22392614D02*
X211357145Y-22535471D01*
X211357145Y-22535471D02*
X210642859Y-22678328D01*
X212000001Y-23178328D02*
X212000001Y-22178328D01*
X212000001Y-22464042D02*
X212071430Y-22321185D01*
X212071430Y-22321185D02*
X212142859Y-22249757D01*
X212142859Y-22249757D02*
X212285716Y-22178328D01*
X212285716Y-22178328D02*
X212428573Y-22178328D01*
X214071429Y-22178328D02*
X214071429Y-23678328D01*
X214071429Y-22249757D02*
X214214287Y-22178328D01*
X214214287Y-22178328D02*
X214500001Y-22178328D01*
X214500001Y-22178328D02*
X214642858Y-22249757D01*
X214642858Y-22249757D02*
X214714287Y-22321185D01*
X214714287Y-22321185D02*
X214785715Y-22464042D01*
X214785715Y-22464042D02*
X214785715Y-22892614D01*
X214785715Y-22892614D02*
X214714287Y-23035471D01*
X214714287Y-23035471D02*
X214642858Y-23106900D01*
X214642858Y-23106900D02*
X214500001Y-23178328D01*
X214500001Y-23178328D02*
X214214287Y-23178328D01*
X214214287Y-23178328D02*
X214071429Y-23106900D01*
X215428572Y-23178328D02*
X215428572Y-22178328D01*
X215428572Y-22464042D02*
X215500001Y-22321185D01*
X215500001Y-22321185D02*
X215571430Y-22249757D01*
X215571430Y-22249757D02*
X215714287Y-22178328D01*
X215714287Y-22178328D02*
X215857144Y-22178328D01*
X216571429Y-23178328D02*
X216428572Y-23106900D01*
X216428572Y-23106900D02*
X216357143Y-23035471D01*
X216357143Y-23035471D02*
X216285715Y-22892614D01*
X216285715Y-22892614D02*
X216285715Y-22464042D01*
X216285715Y-22464042D02*
X216357143Y-22321185D01*
X216357143Y-22321185D02*
X216428572Y-22249757D01*
X216428572Y-22249757D02*
X216571429Y-22178328D01*
X216571429Y-22178328D02*
X216785715Y-22178328D01*
X216785715Y-22178328D02*
X216928572Y-22249757D01*
X216928572Y-22249757D02*
X217000001Y-22321185D01*
X217000001Y-22321185D02*
X217071429Y-22464042D01*
X217071429Y-22464042D02*
X217071429Y-22892614D01*
X217071429Y-22892614D02*
X217000001Y-23035471D01*
X217000001Y-23035471D02*
X216928572Y-23106900D01*
X216928572Y-23106900D02*
X216785715Y-23178328D01*
X216785715Y-23178328D02*
X216571429Y-23178328D01*
X217714286Y-23178328D02*
X217714286Y-21678328D01*
X217714286Y-22249757D02*
X217857144Y-22178328D01*
X217857144Y-22178328D02*
X218142858Y-22178328D01*
X218142858Y-22178328D02*
X218285715Y-22249757D01*
X218285715Y-22249757D02*
X218357144Y-22321185D01*
X218357144Y-22321185D02*
X218428572Y-22464042D01*
X218428572Y-22464042D02*
X218428572Y-22892614D01*
X218428572Y-22892614D02*
X218357144Y-23035471D01*
X218357144Y-23035471D02*
X218285715Y-23106900D01*
X218285715Y-23106900D02*
X218142858Y-23178328D01*
X218142858Y-23178328D02*
X217857144Y-23178328D01*
X217857144Y-23178328D02*
X217714286Y-23106900D01*
X219642858Y-23106900D02*
X219500001Y-23178328D01*
X219500001Y-23178328D02*
X219214287Y-23178328D01*
X219214287Y-23178328D02*
X219071429Y-23106900D01*
X219071429Y-23106900D02*
X219000001Y-22964042D01*
X219000001Y-22964042D02*
X219000001Y-22392614D01*
X219000001Y-22392614D02*
X219071429Y-22249757D01*
X219071429Y-22249757D02*
X219214287Y-22178328D01*
X219214287Y-22178328D02*
X219500001Y-22178328D01*
X219500001Y-22178328D02*
X219642858Y-22249757D01*
X219642858Y-22249757D02*
X219714287Y-22392614D01*
X219714287Y-22392614D02*
X219714287Y-22535471D01*
X219714287Y-22535471D02*
X219000001Y-22678328D01*
X221357143Y-22178328D02*
X221714286Y-23178328D01*
X221714286Y-23178328D02*
X222071429Y-22178328D01*
X222571429Y-21821185D02*
X222642857Y-21749757D01*
X222642857Y-21749757D02*
X222785715Y-21678328D01*
X222785715Y-21678328D02*
X223142857Y-21678328D01*
X223142857Y-21678328D02*
X223285715Y-21749757D01*
X223285715Y-21749757D02*
X223357143Y-21821185D01*
X223357143Y-21821185D02*
X223428572Y-21964042D01*
X223428572Y-21964042D02*
X223428572Y-22106900D01*
X223428572Y-22106900D02*
X223357143Y-22321185D01*
X223357143Y-22321185D02*
X222500000Y-23178328D01*
X222500000Y-23178328D02*
X223428572Y-23178328D01*
X224071428Y-23035471D02*
X224142857Y-23106900D01*
X224142857Y-23106900D02*
X224071428Y-23178328D01*
X224071428Y-23178328D02*
X224000000Y-23106900D01*
X224000000Y-23106900D02*
X224071428Y-23035471D01*
X224071428Y-23035471D02*
X224071428Y-23178328D01*
X225071429Y-21678328D02*
X225214286Y-21678328D01*
X225214286Y-21678328D02*
X225357143Y-21749757D01*
X225357143Y-21749757D02*
X225428572Y-21821185D01*
X225428572Y-21821185D02*
X225500000Y-21964042D01*
X225500000Y-21964042D02*
X225571429Y-22249757D01*
X225571429Y-22249757D02*
X225571429Y-22606900D01*
X225571429Y-22606900D02*
X225500000Y-22892614D01*
X225500000Y-22892614D02*
X225428572Y-23035471D01*
X225428572Y-23035471D02*
X225357143Y-23106900D01*
X225357143Y-23106900D02*
X225214286Y-23178328D01*
X225214286Y-23178328D02*
X225071429Y-23178328D01*
X225071429Y-23178328D02*
X224928572Y-23106900D01*
X224928572Y-23106900D02*
X224857143Y-23035471D01*
X224857143Y-23035471D02*
X224785714Y-22892614D01*
X224785714Y-22892614D02*
X224714286Y-22606900D01*
X224714286Y-22606900D02*
X224714286Y-22249757D01*
X224714286Y-22249757D02*
X224785714Y-21964042D01*
X224785714Y-21964042D02*
X224857143Y-21821185D01*
X224857143Y-21821185D02*
X224928572Y-21749757D01*
X224928572Y-21749757D02*
X225071429Y-21678328D01*
D10*
X239861904Y-137224847D02*
X239528571Y-136748656D01*
X239290476Y-137224847D02*
X239290476Y-136224847D01*
X239290476Y-136224847D02*
X239671428Y-136224847D01*
X239671428Y-136224847D02*
X239766666Y-136272466D01*
X239766666Y-136272466D02*
X239814285Y-136320085D01*
X239814285Y-136320085D02*
X239861904Y-136415323D01*
X239861904Y-136415323D02*
X239861904Y-136558180D01*
X239861904Y-136558180D02*
X239814285Y-136653418D01*
X239814285Y-136653418D02*
X239766666Y-136701037D01*
X239766666Y-136701037D02*
X239671428Y-136748656D01*
X239671428Y-136748656D02*
X239290476Y-136748656D01*
X240290476Y-136224847D02*
X240290476Y-137034370D01*
X240290476Y-137034370D02*
X240338095Y-137129608D01*
X240338095Y-137129608D02*
X240385714Y-137177228D01*
X240385714Y-137177228D02*
X240480952Y-137224847D01*
X240480952Y-137224847D02*
X240671428Y-137224847D01*
X240671428Y-137224847D02*
X240766666Y-137177228D01*
X240766666Y-137177228D02*
X240814285Y-137129608D01*
X240814285Y-137129608D02*
X240861904Y-137034370D01*
X240861904Y-137034370D02*
X240861904Y-136224847D01*
X241338095Y-137224847D02*
X241338095Y-136224847D01*
X241338095Y-136224847D02*
X241909523Y-137224847D01*
X241909523Y-137224847D02*
X241909523Y-136224847D01*
X238861905Y-138834791D02*
X238861905Y-137834791D01*
X238861905Y-137834791D02*
X239242857Y-137834791D01*
X239242857Y-137834791D02*
X239338095Y-137882410D01*
X239338095Y-137882410D02*
X239385714Y-137930029D01*
X239385714Y-137930029D02*
X239433333Y-138025267D01*
X239433333Y-138025267D02*
X239433333Y-138168124D01*
X239433333Y-138168124D02*
X239385714Y-138263362D01*
X239385714Y-138263362D02*
X239338095Y-138310981D01*
X239338095Y-138310981D02*
X239242857Y-138358600D01*
X239242857Y-138358600D02*
X238861905Y-138358600D01*
X240052381Y-137834791D02*
X240242857Y-137834791D01*
X240242857Y-137834791D02*
X240338095Y-137882410D01*
X240338095Y-137882410D02*
X240433333Y-137977648D01*
X240433333Y-137977648D02*
X240480952Y-138168124D01*
X240480952Y-138168124D02*
X240480952Y-138501457D01*
X240480952Y-138501457D02*
X240433333Y-138691933D01*
X240433333Y-138691933D02*
X240338095Y-138787172D01*
X240338095Y-138787172D02*
X240242857Y-138834791D01*
X240242857Y-138834791D02*
X240052381Y-138834791D01*
X240052381Y-138834791D02*
X239957143Y-138787172D01*
X239957143Y-138787172D02*
X239861905Y-138691933D01*
X239861905Y-138691933D02*
X239814286Y-138501457D01*
X239814286Y-138501457D02*
X239814286Y-138168124D01*
X239814286Y-138168124D02*
X239861905Y-137977648D01*
X239861905Y-137977648D02*
X239957143Y-137882410D01*
X239957143Y-137882410D02*
X240052381Y-137834791D01*
X240861905Y-138787172D02*
X241004762Y-138834791D01*
X241004762Y-138834791D02*
X241242857Y-138834791D01*
X241242857Y-138834791D02*
X241338095Y-138787172D01*
X241338095Y-138787172D02*
X241385714Y-138739552D01*
X241385714Y-138739552D02*
X241433333Y-138644314D01*
X241433333Y-138644314D02*
X241433333Y-138549076D01*
X241433333Y-138549076D02*
X241385714Y-138453838D01*
X241385714Y-138453838D02*
X241338095Y-138406219D01*
X241338095Y-138406219D02*
X241242857Y-138358600D01*
X241242857Y-138358600D02*
X241052381Y-138310981D01*
X241052381Y-138310981D02*
X240957143Y-138263362D01*
X240957143Y-138263362D02*
X240909524Y-138215743D01*
X240909524Y-138215743D02*
X240861905Y-138120505D01*
X240861905Y-138120505D02*
X240861905Y-138025267D01*
X240861905Y-138025267D02*
X240909524Y-137930029D01*
X240909524Y-137930029D02*
X240957143Y-137882410D01*
X240957143Y-137882410D02*
X241052381Y-137834791D01*
X241052381Y-137834791D02*
X241290476Y-137834791D01*
X241290476Y-137834791D02*
X241433333Y-137882410D01*
X242385714Y-138834791D02*
X241814286Y-138834791D01*
X242100000Y-138834791D02*
X242100000Y-137834791D01*
X242100000Y-137834791D02*
X242004762Y-137977648D01*
X242004762Y-137977648D02*
X241909524Y-138072886D01*
X241909524Y-138072886D02*
X241814286Y-138120505D01*
X243559580Y-133646428D02*
X243607200Y-133694047D01*
X243607200Y-133694047D02*
X243654819Y-133836904D01*
X243654819Y-133836904D02*
X243654819Y-133932142D01*
X243654819Y-133932142D02*
X243607200Y-134074999D01*
X243607200Y-134074999D02*
X243511961Y-134170237D01*
X243511961Y-134170237D02*
X243416723Y-134217856D01*
X243416723Y-134217856D02*
X243226247Y-134265475D01*
X243226247Y-134265475D02*
X243083390Y-134265475D01*
X243083390Y-134265475D02*
X242892914Y-134217856D01*
X242892914Y-134217856D02*
X242797676Y-134170237D01*
X242797676Y-134170237D02*
X242702438Y-134074999D01*
X242702438Y-134074999D02*
X242654819Y-133932142D01*
X242654819Y-133932142D02*
X242654819Y-133836904D01*
X242654819Y-133836904D02*
X242702438Y-133694047D01*
X242702438Y-133694047D02*
X242750057Y-133646428D01*
X243654819Y-132408332D02*
X243654819Y-132455952D01*
X243654819Y-132455952D02*
X243607200Y-132551190D01*
X243607200Y-132551190D02*
X243464342Y-132694047D01*
X243464342Y-132694047D02*
X243178628Y-132932142D01*
X243178628Y-132932142D02*
X243035771Y-133027380D01*
X243035771Y-133027380D02*
X242892914Y-133074999D01*
X242892914Y-133074999D02*
X242797676Y-133074999D01*
X242797676Y-133074999D02*
X242702438Y-133027380D01*
X242702438Y-133027380D02*
X242654819Y-132932142D01*
X242654819Y-132932142D02*
X242654819Y-132884523D01*
X242654819Y-132884523D02*
X242702438Y-132789285D01*
X242702438Y-132789285D02*
X242797676Y-132741666D01*
X242797676Y-132741666D02*
X242845295Y-132741666D01*
X242845295Y-132741666D02*
X242940533Y-132789285D01*
X242940533Y-132789285D02*
X242988152Y-132836904D01*
X242988152Y-132836904D02*
X243178628Y-133122618D01*
X243178628Y-133122618D02*
X243226247Y-133170237D01*
X243226247Y-133170237D02*
X243321485Y-133217856D01*
X243321485Y-133217856D02*
X243464342Y-133217856D01*
X243464342Y-133217856D02*
X243559580Y-133170237D01*
X243559580Y-133170237D02*
X243607200Y-133122618D01*
X243607200Y-133122618D02*
X243654819Y-133027380D01*
X243654819Y-133027380D02*
X243654819Y-132884523D01*
X243654819Y-132884523D02*
X243607200Y-132789285D01*
X243607200Y-132789285D02*
X243559580Y-132741666D01*
X243559580Y-132741666D02*
X243369104Y-132598809D01*
X243369104Y-132598809D02*
X243226247Y-132551190D01*
X243226247Y-132551190D02*
X243131009Y-132551190D01*
X243654819Y-131979761D02*
X242654819Y-131979761D01*
X243654819Y-131408333D02*
X243083390Y-131836904D01*
X242654819Y-131408333D02*
X243226247Y-131979761D01*
X242654819Y-130313094D02*
X242654819Y-129646428D01*
X242654819Y-129646428D02*
X243654819Y-130074999D01*
X242654819Y-129360713D02*
X242654819Y-128741666D01*
X242654819Y-128741666D02*
X243035771Y-129074999D01*
X243035771Y-129074999D02*
X243035771Y-128932142D01*
X243035771Y-128932142D02*
X243083390Y-128836904D01*
X243083390Y-128836904D02*
X243131009Y-128789285D01*
X243131009Y-128789285D02*
X243226247Y-128741666D01*
X243226247Y-128741666D02*
X243464342Y-128741666D01*
X243464342Y-128741666D02*
X243559580Y-128789285D01*
X243559580Y-128789285D02*
X243607200Y-128836904D01*
X243607200Y-128836904D02*
X243654819Y-128932142D01*
X243654819Y-128932142D02*
X243654819Y-129217856D01*
X243654819Y-129217856D02*
X243607200Y-129313094D01*
X243607200Y-129313094D02*
X243559580Y-129360713D01*
X242654819Y-128122618D02*
X242654819Y-128027380D01*
X242654819Y-128027380D02*
X242702438Y-127932142D01*
X242702438Y-127932142D02*
X242750057Y-127884523D01*
X242750057Y-127884523D02*
X242845295Y-127836904D01*
X242845295Y-127836904D02*
X243035771Y-127789285D01*
X243035771Y-127789285D02*
X243273866Y-127789285D01*
X243273866Y-127789285D02*
X243464342Y-127836904D01*
X243464342Y-127836904D02*
X243559580Y-127884523D01*
X243559580Y-127884523D02*
X243607200Y-127932142D01*
X243607200Y-127932142D02*
X243654819Y-128027380D01*
X243654819Y-128027380D02*
X243654819Y-128122618D01*
X243654819Y-128122618D02*
X243607200Y-128217856D01*
X243607200Y-128217856D02*
X243559580Y-128265475D01*
X243559580Y-128265475D02*
X243464342Y-128313094D01*
X243464342Y-128313094D02*
X243273866Y-128360713D01*
X243273866Y-128360713D02*
X243035771Y-128360713D01*
X243035771Y-128360713D02*
X242845295Y-128313094D01*
X242845295Y-128313094D02*
X242750057Y-128265475D01*
X242750057Y-128265475D02*
X242702438Y-128217856D01*
X242702438Y-128217856D02*
X242654819Y-128122618D01*
X243654819Y-126836904D02*
X243654819Y-127408332D01*
X243654819Y-127122618D02*
X242654819Y-127122618D01*
X242654819Y-127122618D02*
X242797676Y-127217856D01*
X242797676Y-127217856D02*
X242892914Y-127313094D01*
X242892914Y-127313094D02*
X242940533Y-127408332D01*
X243654819Y-126408332D02*
X242654819Y-126408332D01*
X242654819Y-126408332D02*
X243369104Y-126074999D01*
X243369104Y-126074999D02*
X242654819Y-125741666D01*
X242654819Y-125741666D02*
X243654819Y-125741666D01*
X243654819Y-125265475D02*
X242654819Y-125265475D01*
X242654819Y-125265475D02*
X242654819Y-125027380D01*
X242654819Y-125027380D02*
X242702438Y-124884523D01*
X242702438Y-124884523D02*
X242797676Y-124789285D01*
X242797676Y-124789285D02*
X242892914Y-124741666D01*
X242892914Y-124741666D02*
X243083390Y-124694047D01*
X243083390Y-124694047D02*
X243226247Y-124694047D01*
X243226247Y-124694047D02*
X243416723Y-124741666D01*
X243416723Y-124741666D02*
X243511961Y-124789285D01*
X243511961Y-124789285D02*
X243607200Y-124884523D01*
X243607200Y-124884523D02*
X243654819Y-125027380D01*
X243654819Y-125027380D02*
X243654819Y-125265475D01*
X243654819Y-124217856D02*
X243654819Y-124027380D01*
X243654819Y-124027380D02*
X243607200Y-123932142D01*
X243607200Y-123932142D02*
X243559580Y-123884523D01*
X243559580Y-123884523D02*
X243416723Y-123789285D01*
X243416723Y-123789285D02*
X243226247Y-123741666D01*
X243226247Y-123741666D02*
X242845295Y-123741666D01*
X242845295Y-123741666D02*
X242750057Y-123789285D01*
X242750057Y-123789285D02*
X242702438Y-123836904D01*
X242702438Y-123836904D02*
X242654819Y-123932142D01*
X242654819Y-123932142D02*
X242654819Y-124122618D01*
X242654819Y-124122618D02*
X242702438Y-124217856D01*
X242702438Y-124217856D02*
X242750057Y-124265475D01*
X242750057Y-124265475D02*
X242845295Y-124313094D01*
X242845295Y-124313094D02*
X243083390Y-124313094D01*
X243083390Y-124313094D02*
X243178628Y-124265475D01*
X243178628Y-124265475D02*
X243226247Y-124217856D01*
X243226247Y-124217856D02*
X243273866Y-124122618D01*
X243273866Y-124122618D02*
X243273866Y-123932142D01*
X243273866Y-123932142D02*
X243226247Y-123836904D01*
X243226247Y-123836904D02*
X243178628Y-123789285D01*
X243178628Y-123789285D02*
X243083390Y-123741666D01*
X243369104Y-123360713D02*
X243369104Y-122884523D01*
X243654819Y-123455951D02*
X242654819Y-123122618D01*
X242654819Y-123122618D02*
X243654819Y-122789285D01*
D12*
X192880928Y-138232143D02*
X191380928Y-138232143D01*
X191380928Y-138232143D02*
X191380928Y-137660714D01*
X191380928Y-137660714D02*
X191452357Y-137517857D01*
X191452357Y-137517857D02*
X191523785Y-137446428D01*
X191523785Y-137446428D02*
X191666642Y-137375000D01*
X191666642Y-137375000D02*
X191880928Y-137375000D01*
X191880928Y-137375000D02*
X192023785Y-137446428D01*
X192023785Y-137446428D02*
X192095214Y-137517857D01*
X192095214Y-137517857D02*
X192166642Y-137660714D01*
X192166642Y-137660714D02*
X192166642Y-138232143D01*
X192880928Y-135875000D02*
X192166642Y-136375000D01*
X192880928Y-136732143D02*
X191380928Y-136732143D01*
X191380928Y-136732143D02*
X191380928Y-136160714D01*
X191380928Y-136160714D02*
X191452357Y-136017857D01*
X191452357Y-136017857D02*
X191523785Y-135946428D01*
X191523785Y-135946428D02*
X191666642Y-135875000D01*
X191666642Y-135875000D02*
X191880928Y-135875000D01*
X191880928Y-135875000D02*
X192023785Y-135946428D01*
X192023785Y-135946428D02*
X192095214Y-136017857D01*
X192095214Y-136017857D02*
X192166642Y-136160714D01*
X192166642Y-136160714D02*
X192166642Y-136732143D01*
X191380928Y-134946428D02*
X191380928Y-134660714D01*
X191380928Y-134660714D02*
X191452357Y-134517857D01*
X191452357Y-134517857D02*
X191595214Y-134375000D01*
X191595214Y-134375000D02*
X191880928Y-134303571D01*
X191880928Y-134303571D02*
X192380928Y-134303571D01*
X192380928Y-134303571D02*
X192666642Y-134375000D01*
X192666642Y-134375000D02*
X192809500Y-134517857D01*
X192809500Y-134517857D02*
X192880928Y-134660714D01*
X192880928Y-134660714D02*
X192880928Y-134946428D01*
X192880928Y-134946428D02*
X192809500Y-135089286D01*
X192809500Y-135089286D02*
X192666642Y-135232143D01*
X192666642Y-135232143D02*
X192380928Y-135303571D01*
X192380928Y-135303571D02*
X191880928Y-135303571D01*
X191880928Y-135303571D02*
X191595214Y-135232143D01*
X191595214Y-135232143D02*
X191452357Y-135089286D01*
X191452357Y-135089286D02*
X191380928Y-134946428D01*
X192095214Y-133160714D02*
X192166642Y-132946428D01*
X192166642Y-132946428D02*
X192238071Y-132874999D01*
X192238071Y-132874999D02*
X192380928Y-132803571D01*
X192380928Y-132803571D02*
X192595214Y-132803571D01*
X192595214Y-132803571D02*
X192738071Y-132874999D01*
X192738071Y-132874999D02*
X192809500Y-132946428D01*
X192809500Y-132946428D02*
X192880928Y-133089285D01*
X192880928Y-133089285D02*
X192880928Y-133660714D01*
X192880928Y-133660714D02*
X191380928Y-133660714D01*
X191380928Y-133660714D02*
X191380928Y-133160714D01*
X191380928Y-133160714D02*
X191452357Y-133017857D01*
X191452357Y-133017857D02*
X191523785Y-132946428D01*
X191523785Y-132946428D02*
X191666642Y-132874999D01*
X191666642Y-132874999D02*
X191809500Y-132874999D01*
X191809500Y-132874999D02*
X191952357Y-132946428D01*
X191952357Y-132946428D02*
X192023785Y-133017857D01*
X192023785Y-133017857D02*
X192095214Y-133160714D01*
X192095214Y-133160714D02*
X192095214Y-133660714D01*
X192095214Y-132160714D02*
X192095214Y-131660714D01*
X192880928Y-131446428D02*
X192880928Y-132160714D01*
X192880928Y-132160714D02*
X191380928Y-132160714D01*
X191380928Y-132160714D02*
X191380928Y-131446428D01*
D10*
X204564132Y-138613094D02*
X204564132Y-138136904D01*
X204849847Y-138708332D02*
X203849847Y-138374999D01*
X203849847Y-138374999D02*
X204849847Y-138041666D01*
X204849847Y-137708332D02*
X203849847Y-137708332D01*
X203849847Y-137708332D02*
X204564132Y-137374999D01*
X204564132Y-137374999D02*
X203849847Y-137041666D01*
X203849847Y-137041666D02*
X204849847Y-137041666D01*
X204849847Y-136565475D02*
X203849847Y-136565475D01*
X203849847Y-136565475D02*
X203849847Y-136184523D01*
X203849847Y-136184523D02*
X203897466Y-136089285D01*
X203897466Y-136089285D02*
X203945085Y-136041666D01*
X203945085Y-136041666D02*
X204040323Y-135994047D01*
X204040323Y-135994047D02*
X204183180Y-135994047D01*
X204183180Y-135994047D02*
X204278418Y-136041666D01*
X204278418Y-136041666D02*
X204326037Y-136089285D01*
X204326037Y-136089285D02*
X204373656Y-136184523D01*
X204373656Y-136184523D02*
X204373656Y-136565475D01*
X204849847Y-135565475D02*
X203849847Y-135565475D01*
X204326037Y-135565475D02*
X204326037Y-134994047D01*
X204849847Y-134994047D02*
X203849847Y-134994047D01*
X204326037Y-134517856D02*
X204326037Y-134184523D01*
X204849847Y-134041666D02*
X204849847Y-134517856D01*
X204849847Y-134517856D02*
X203849847Y-134517856D01*
X203849847Y-134517856D02*
X203849847Y-134041666D01*
X204849847Y-133613094D02*
X203849847Y-133613094D01*
X203849847Y-133613094D02*
X204849847Y-133041666D01*
X204849847Y-133041666D02*
X203849847Y-133041666D01*
X203849847Y-132374999D02*
X203849847Y-132184523D01*
X203849847Y-132184523D02*
X203897466Y-132089285D01*
X203897466Y-132089285D02*
X203992704Y-131994047D01*
X203992704Y-131994047D02*
X204183180Y-131946428D01*
X204183180Y-131946428D02*
X204516513Y-131946428D01*
X204516513Y-131946428D02*
X204706989Y-131994047D01*
X204706989Y-131994047D02*
X204802228Y-132089285D01*
X204802228Y-132089285D02*
X204849847Y-132184523D01*
X204849847Y-132184523D02*
X204849847Y-132374999D01*
X204849847Y-132374999D02*
X204802228Y-132470237D01*
X204802228Y-132470237D02*
X204706989Y-132565475D01*
X204706989Y-132565475D02*
X204516513Y-132613094D01*
X204516513Y-132613094D02*
X204183180Y-132613094D01*
X204183180Y-132613094D02*
X203992704Y-132565475D01*
X203992704Y-132565475D02*
X203897466Y-132470237D01*
X203897466Y-132470237D02*
X203849847Y-132374999D01*
X204849847Y-131041666D02*
X204849847Y-131517856D01*
X204849847Y-131517856D02*
X203849847Y-131517856D01*
X206459791Y-138541666D02*
X206459791Y-139113094D01*
X206459791Y-138827380D02*
X205459791Y-138827380D01*
X205459791Y-138827380D02*
X205602648Y-138922618D01*
X205602648Y-138922618D02*
X205697886Y-139017856D01*
X205697886Y-139017856D02*
X205745505Y-139113094D01*
X205459791Y-138208332D02*
X205459791Y-137589285D01*
X205459791Y-137589285D02*
X205840743Y-137922618D01*
X205840743Y-137922618D02*
X205840743Y-137779761D01*
X205840743Y-137779761D02*
X205888362Y-137684523D01*
X205888362Y-137684523D02*
X205935981Y-137636904D01*
X205935981Y-137636904D02*
X206031219Y-137589285D01*
X206031219Y-137589285D02*
X206269314Y-137589285D01*
X206269314Y-137589285D02*
X206364552Y-137636904D01*
X206364552Y-137636904D02*
X206412172Y-137684523D01*
X206412172Y-137684523D02*
X206459791Y-137779761D01*
X206459791Y-137779761D02*
X206459791Y-138065475D01*
X206459791Y-138065475D02*
X206412172Y-138160713D01*
X206412172Y-138160713D02*
X206364552Y-138208332D01*
X205555029Y-137208332D02*
X205507410Y-137160713D01*
X205507410Y-137160713D02*
X205459791Y-137065475D01*
X205459791Y-137065475D02*
X205459791Y-136827380D01*
X205459791Y-136827380D02*
X205507410Y-136732142D01*
X205507410Y-136732142D02*
X205555029Y-136684523D01*
X205555029Y-136684523D02*
X205650267Y-136636904D01*
X205650267Y-136636904D02*
X205745505Y-136636904D01*
X205745505Y-136636904D02*
X205888362Y-136684523D01*
X205888362Y-136684523D02*
X206459791Y-137255951D01*
X206459791Y-137255951D02*
X206459791Y-136636904D01*
X205555029Y-136255951D02*
X205507410Y-136208332D01*
X205507410Y-136208332D02*
X205459791Y-136113094D01*
X205459791Y-136113094D02*
X205459791Y-135874999D01*
X205459791Y-135874999D02*
X205507410Y-135779761D01*
X205507410Y-135779761D02*
X205555029Y-135732142D01*
X205555029Y-135732142D02*
X205650267Y-135684523D01*
X205650267Y-135684523D02*
X205745505Y-135684523D01*
X205745505Y-135684523D02*
X205888362Y-135732142D01*
X205888362Y-135732142D02*
X206459791Y-136303570D01*
X206459791Y-136303570D02*
X206459791Y-135684523D01*
X205459791Y-135065475D02*
X205459791Y-134970237D01*
X205459791Y-134970237D02*
X205507410Y-134874999D01*
X205507410Y-134874999D02*
X205555029Y-134827380D01*
X205555029Y-134827380D02*
X205650267Y-134779761D01*
X205650267Y-134779761D02*
X205840743Y-134732142D01*
X205840743Y-134732142D02*
X206078838Y-134732142D01*
X206078838Y-134732142D02*
X206269314Y-134779761D01*
X206269314Y-134779761D02*
X206364552Y-134827380D01*
X206364552Y-134827380D02*
X206412172Y-134874999D01*
X206412172Y-134874999D02*
X206459791Y-134970237D01*
X206459791Y-134970237D02*
X206459791Y-135065475D01*
X206459791Y-135065475D02*
X206412172Y-135160713D01*
X206412172Y-135160713D02*
X206364552Y-135208332D01*
X206364552Y-135208332D02*
X206269314Y-135255951D01*
X206269314Y-135255951D02*
X206078838Y-135303570D01*
X206078838Y-135303570D02*
X205840743Y-135303570D01*
X205840743Y-135303570D02*
X205650267Y-135255951D01*
X205650267Y-135255951D02*
X205555029Y-135208332D01*
X205555029Y-135208332D02*
X205507410Y-135160713D01*
X205507410Y-135160713D02*
X205459791Y-135065475D01*
X205459791Y-134398808D02*
X205459791Y-133779761D01*
X205459791Y-133779761D02*
X205840743Y-134113094D01*
X205840743Y-134113094D02*
X205840743Y-133970237D01*
X205840743Y-133970237D02*
X205888362Y-133874999D01*
X205888362Y-133874999D02*
X205935981Y-133827380D01*
X205935981Y-133827380D02*
X206031219Y-133779761D01*
X206031219Y-133779761D02*
X206269314Y-133779761D01*
X206269314Y-133779761D02*
X206364552Y-133827380D01*
X206364552Y-133827380D02*
X206412172Y-133874999D01*
X206412172Y-133874999D02*
X206459791Y-133970237D01*
X206459791Y-133970237D02*
X206459791Y-134255951D01*
X206459791Y-134255951D02*
X206412172Y-134351189D01*
X206412172Y-134351189D02*
X206364552Y-134398808D01*
X206078838Y-133351189D02*
X206078838Y-132589285D01*
X206459791Y-131589285D02*
X206459791Y-132160713D01*
X206459791Y-131874999D02*
X205459791Y-131874999D01*
X205459791Y-131874999D02*
X205602648Y-131970237D01*
X205602648Y-131970237D02*
X205697886Y-132065475D01*
X205697886Y-132065475D02*
X205745505Y-132160713D01*
X205555029Y-131208332D02*
X205507410Y-131160713D01*
X205507410Y-131160713D02*
X205459791Y-131065475D01*
X205459791Y-131065475D02*
X205459791Y-130827380D01*
X205459791Y-130827380D02*
X205507410Y-130732142D01*
X205507410Y-130732142D02*
X205555029Y-130684523D01*
X205555029Y-130684523D02*
X205650267Y-130636904D01*
X205650267Y-130636904D02*
X205745505Y-130636904D01*
X205745505Y-130636904D02*
X205888362Y-130684523D01*
X205888362Y-130684523D02*
X206459791Y-131255951D01*
X206459791Y-131255951D02*
X206459791Y-130636904D01*
X230661904Y-111424847D02*
X230328571Y-110948656D01*
X230090476Y-111424847D02*
X230090476Y-110424847D01*
X230090476Y-110424847D02*
X230471428Y-110424847D01*
X230471428Y-110424847D02*
X230566666Y-110472466D01*
X230566666Y-110472466D02*
X230614285Y-110520085D01*
X230614285Y-110520085D02*
X230661904Y-110615323D01*
X230661904Y-110615323D02*
X230661904Y-110758180D01*
X230661904Y-110758180D02*
X230614285Y-110853418D01*
X230614285Y-110853418D02*
X230566666Y-110901037D01*
X230566666Y-110901037D02*
X230471428Y-110948656D01*
X230471428Y-110948656D02*
X230090476Y-110948656D01*
X231090476Y-110424847D02*
X231090476Y-111234370D01*
X231090476Y-111234370D02*
X231138095Y-111329608D01*
X231138095Y-111329608D02*
X231185714Y-111377228D01*
X231185714Y-111377228D02*
X231280952Y-111424847D01*
X231280952Y-111424847D02*
X231471428Y-111424847D01*
X231471428Y-111424847D02*
X231566666Y-111377228D01*
X231566666Y-111377228D02*
X231614285Y-111329608D01*
X231614285Y-111329608D02*
X231661904Y-111234370D01*
X231661904Y-111234370D02*
X231661904Y-110424847D01*
X232138095Y-111424847D02*
X232138095Y-110424847D01*
X232138095Y-110424847D02*
X232709523Y-111424847D01*
X232709523Y-111424847D02*
X232709523Y-110424847D01*
X229661905Y-113034791D02*
X229661905Y-112034791D01*
X229661905Y-112034791D02*
X230042857Y-112034791D01*
X230042857Y-112034791D02*
X230138095Y-112082410D01*
X230138095Y-112082410D02*
X230185714Y-112130029D01*
X230185714Y-112130029D02*
X230233333Y-112225267D01*
X230233333Y-112225267D02*
X230233333Y-112368124D01*
X230233333Y-112368124D02*
X230185714Y-112463362D01*
X230185714Y-112463362D02*
X230138095Y-112510981D01*
X230138095Y-112510981D02*
X230042857Y-112558600D01*
X230042857Y-112558600D02*
X229661905Y-112558600D01*
X230852381Y-112034791D02*
X231042857Y-112034791D01*
X231042857Y-112034791D02*
X231138095Y-112082410D01*
X231138095Y-112082410D02*
X231233333Y-112177648D01*
X231233333Y-112177648D02*
X231280952Y-112368124D01*
X231280952Y-112368124D02*
X231280952Y-112701457D01*
X231280952Y-112701457D02*
X231233333Y-112891933D01*
X231233333Y-112891933D02*
X231138095Y-112987172D01*
X231138095Y-112987172D02*
X231042857Y-113034791D01*
X231042857Y-113034791D02*
X230852381Y-113034791D01*
X230852381Y-113034791D02*
X230757143Y-112987172D01*
X230757143Y-112987172D02*
X230661905Y-112891933D01*
X230661905Y-112891933D02*
X230614286Y-112701457D01*
X230614286Y-112701457D02*
X230614286Y-112368124D01*
X230614286Y-112368124D02*
X230661905Y-112177648D01*
X230661905Y-112177648D02*
X230757143Y-112082410D01*
X230757143Y-112082410D02*
X230852381Y-112034791D01*
X231661905Y-112987172D02*
X231804762Y-113034791D01*
X231804762Y-113034791D02*
X232042857Y-113034791D01*
X232042857Y-113034791D02*
X232138095Y-112987172D01*
X232138095Y-112987172D02*
X232185714Y-112939552D01*
X232185714Y-112939552D02*
X232233333Y-112844314D01*
X232233333Y-112844314D02*
X232233333Y-112749076D01*
X232233333Y-112749076D02*
X232185714Y-112653838D01*
X232185714Y-112653838D02*
X232138095Y-112606219D01*
X232138095Y-112606219D02*
X232042857Y-112558600D01*
X232042857Y-112558600D02*
X231852381Y-112510981D01*
X231852381Y-112510981D02*
X231757143Y-112463362D01*
X231757143Y-112463362D02*
X231709524Y-112415743D01*
X231709524Y-112415743D02*
X231661905Y-112320505D01*
X231661905Y-112320505D02*
X231661905Y-112225267D01*
X231661905Y-112225267D02*
X231709524Y-112130029D01*
X231709524Y-112130029D02*
X231757143Y-112082410D01*
X231757143Y-112082410D02*
X231852381Y-112034791D01*
X231852381Y-112034791D02*
X232090476Y-112034791D01*
X232090476Y-112034791D02*
X232233333Y-112082410D01*
X233185714Y-113034791D02*
X232614286Y-113034791D01*
X232900000Y-113034791D02*
X232900000Y-112034791D01*
X232900000Y-112034791D02*
X232804762Y-112177648D01*
X232804762Y-112177648D02*
X232709524Y-112272886D01*
X232709524Y-112272886D02*
X232614286Y-112320505D01*
X192504761Y-124629819D02*
X192695237Y-124629819D01*
X192695237Y-124629819D02*
X192790475Y-124677438D01*
X192790475Y-124677438D02*
X192885713Y-124772676D01*
X192885713Y-124772676D02*
X192933332Y-124963152D01*
X192933332Y-124963152D02*
X192933332Y-125296485D01*
X192933332Y-125296485D02*
X192885713Y-125486961D01*
X192885713Y-125486961D02*
X192790475Y-125582200D01*
X192790475Y-125582200D02*
X192695237Y-125629819D01*
X192695237Y-125629819D02*
X192504761Y-125629819D01*
X192504761Y-125629819D02*
X192409523Y-125582200D01*
X192409523Y-125582200D02*
X192314285Y-125486961D01*
X192314285Y-125486961D02*
X192266666Y-125296485D01*
X192266666Y-125296485D02*
X192266666Y-124963152D01*
X192266666Y-124963152D02*
X192314285Y-124772676D01*
X192314285Y-124772676D02*
X192409523Y-124677438D01*
X192409523Y-124677438D02*
X192504761Y-124629819D01*
X193361904Y-125629819D02*
X193361904Y-124629819D01*
X193361904Y-124629819D02*
X193742856Y-124629819D01*
X193742856Y-124629819D02*
X193838094Y-124677438D01*
X193838094Y-124677438D02*
X193885713Y-124725057D01*
X193885713Y-124725057D02*
X193933332Y-124820295D01*
X193933332Y-124820295D02*
X193933332Y-124963152D01*
X193933332Y-124963152D02*
X193885713Y-125058390D01*
X193885713Y-125058390D02*
X193838094Y-125106009D01*
X193838094Y-125106009D02*
X193742856Y-125153628D01*
X193742856Y-125153628D02*
X193361904Y-125153628D01*
X194314285Y-125344104D02*
X194790475Y-125344104D01*
X194219047Y-125629819D02*
X194552380Y-124629819D01*
X194552380Y-124629819D02*
X194885713Y-125629819D01*
X195123809Y-124629819D02*
X195742856Y-124629819D01*
X195742856Y-124629819D02*
X195409523Y-125010771D01*
X195409523Y-125010771D02*
X195552380Y-125010771D01*
X195552380Y-125010771D02*
X195647618Y-125058390D01*
X195647618Y-125058390D02*
X195695237Y-125106009D01*
X195695237Y-125106009D02*
X195742856Y-125201247D01*
X195742856Y-125201247D02*
X195742856Y-125439342D01*
X195742856Y-125439342D02*
X195695237Y-125534580D01*
X195695237Y-125534580D02*
X195647618Y-125582200D01*
X195647618Y-125582200D02*
X195552380Y-125629819D01*
X195552380Y-125629819D02*
X195266666Y-125629819D01*
X195266666Y-125629819D02*
X195171428Y-125582200D01*
X195171428Y-125582200D02*
X195123809Y-125534580D01*
X196123809Y-124725057D02*
X196171428Y-124677438D01*
X196171428Y-124677438D02*
X196266666Y-124629819D01*
X196266666Y-124629819D02*
X196504761Y-124629819D01*
X196504761Y-124629819D02*
X196599999Y-124677438D01*
X196599999Y-124677438D02*
X196647618Y-124725057D01*
X196647618Y-124725057D02*
X196695237Y-124820295D01*
X196695237Y-124820295D02*
X196695237Y-124915533D01*
X196695237Y-124915533D02*
X196647618Y-125058390D01*
X196647618Y-125058390D02*
X196076190Y-125629819D01*
X196076190Y-125629819D02*
X196695237Y-125629819D01*
X197076190Y-124725057D02*
X197123809Y-124677438D01*
X197123809Y-124677438D02*
X197219047Y-124629819D01*
X197219047Y-124629819D02*
X197457142Y-124629819D01*
X197457142Y-124629819D02*
X197552380Y-124677438D01*
X197552380Y-124677438D02*
X197599999Y-124725057D01*
X197599999Y-124725057D02*
X197647618Y-124820295D01*
X197647618Y-124820295D02*
X197647618Y-124915533D01*
X197647618Y-124915533D02*
X197599999Y-125058390D01*
X197599999Y-125058390D02*
X197028571Y-125629819D01*
X197028571Y-125629819D02*
X197647618Y-125629819D01*
X199504762Y-125629819D02*
X200028571Y-124963152D01*
X199504762Y-124963152D02*
X200028571Y-125629819D01*
X200361905Y-124725057D02*
X200409524Y-124677438D01*
X200409524Y-124677438D02*
X200504762Y-124629819D01*
X200504762Y-124629819D02*
X200742857Y-124629819D01*
X200742857Y-124629819D02*
X200838095Y-124677438D01*
X200838095Y-124677438D02*
X200885714Y-124725057D01*
X200885714Y-124725057D02*
X200933333Y-124820295D01*
X200933333Y-124820295D02*
X200933333Y-124915533D01*
X200933333Y-124915533D02*
X200885714Y-125058390D01*
X200885714Y-125058390D02*
X200314286Y-125629819D01*
X200314286Y-125629819D02*
X200933333Y-125629819D01*
D14*
X219247619Y-39158366D02*
X221152381Y-39158366D01*
X220200000Y-40110747D02*
X220200000Y-38205985D01*
D10*
X190404762Y-116429819D02*
X190404762Y-115429819D01*
X190404762Y-115429819D02*
X190738095Y-116144104D01*
X190738095Y-116144104D02*
X191071428Y-115429819D01*
X191071428Y-115429819D02*
X191071428Y-116429819D01*
X191500000Y-116144104D02*
X191976190Y-116144104D01*
X191404762Y-116429819D02*
X191738095Y-115429819D01*
X191738095Y-115429819D02*
X192071428Y-116429819D01*
X192357143Y-116382200D02*
X192500000Y-116429819D01*
X192500000Y-116429819D02*
X192738095Y-116429819D01*
X192738095Y-116429819D02*
X192833333Y-116382200D01*
X192833333Y-116382200D02*
X192880952Y-116334580D01*
X192880952Y-116334580D02*
X192928571Y-116239342D01*
X192928571Y-116239342D02*
X192928571Y-116144104D01*
X192928571Y-116144104D02*
X192880952Y-116048866D01*
X192880952Y-116048866D02*
X192833333Y-116001247D01*
X192833333Y-116001247D02*
X192738095Y-115953628D01*
X192738095Y-115953628D02*
X192547619Y-115906009D01*
X192547619Y-115906009D02*
X192452381Y-115858390D01*
X192452381Y-115858390D02*
X192404762Y-115810771D01*
X192404762Y-115810771D02*
X192357143Y-115715533D01*
X192357143Y-115715533D02*
X192357143Y-115620295D01*
X192357143Y-115620295D02*
X192404762Y-115525057D01*
X192404762Y-115525057D02*
X192452381Y-115477438D01*
X192452381Y-115477438D02*
X192547619Y-115429819D01*
X192547619Y-115429819D02*
X192785714Y-115429819D01*
X192785714Y-115429819D02*
X192928571Y-115477438D01*
X193309524Y-116144104D02*
X193785714Y-116144104D01*
X193214286Y-116429819D02*
X193547619Y-115429819D01*
X193547619Y-115429819D02*
X193880952Y-116429819D01*
X194785714Y-116334580D02*
X194738095Y-116382200D01*
X194738095Y-116382200D02*
X194595238Y-116429819D01*
X194595238Y-116429819D02*
X194500000Y-116429819D01*
X194500000Y-116429819D02*
X194357143Y-116382200D01*
X194357143Y-116382200D02*
X194261905Y-116286961D01*
X194261905Y-116286961D02*
X194214286Y-116191723D01*
X194214286Y-116191723D02*
X194166667Y-116001247D01*
X194166667Y-116001247D02*
X194166667Y-115858390D01*
X194166667Y-115858390D02*
X194214286Y-115667914D01*
X194214286Y-115667914D02*
X194261905Y-115572676D01*
X194261905Y-115572676D02*
X194357143Y-115477438D01*
X194357143Y-115477438D02*
X194500000Y-115429819D01*
X194500000Y-115429819D02*
X194595238Y-115429819D01*
X194595238Y-115429819D02*
X194738095Y-115477438D01*
X194738095Y-115477438D02*
X194785714Y-115525057D01*
X195214286Y-116429819D02*
X195214286Y-115429819D01*
X195214286Y-115906009D02*
X195785714Y-115906009D01*
X195785714Y-116429819D02*
X195785714Y-115429819D01*
X197023810Y-116429819D02*
X197023810Y-115429819D01*
X197023810Y-115429819D02*
X197357143Y-116144104D01*
X197357143Y-116144104D02*
X197690476Y-115429819D01*
X197690476Y-115429819D02*
X197690476Y-116429819D01*
X198119048Y-116382200D02*
X198261905Y-116429819D01*
X198261905Y-116429819D02*
X198500000Y-116429819D01*
X198500000Y-116429819D02*
X198595238Y-116382200D01*
X198595238Y-116382200D02*
X198642857Y-116334580D01*
X198642857Y-116334580D02*
X198690476Y-116239342D01*
X198690476Y-116239342D02*
X198690476Y-116144104D01*
X198690476Y-116144104D02*
X198642857Y-116048866D01*
X198642857Y-116048866D02*
X198595238Y-116001247D01*
X198595238Y-116001247D02*
X198500000Y-115953628D01*
X198500000Y-115953628D02*
X198309524Y-115906009D01*
X198309524Y-115906009D02*
X198214286Y-115858390D01*
X198214286Y-115858390D02*
X198166667Y-115810771D01*
X198166667Y-115810771D02*
X198119048Y-115715533D01*
X198119048Y-115715533D02*
X198119048Y-115620295D01*
X198119048Y-115620295D02*
X198166667Y-115525057D01*
X198166667Y-115525057D02*
X198214286Y-115477438D01*
X198214286Y-115477438D02*
X198309524Y-115429819D01*
X198309524Y-115429819D02*
X198547619Y-115429819D01*
X198547619Y-115429819D02*
X198690476Y-115477438D01*
X199023810Y-115429819D02*
X199642857Y-115429819D01*
X199642857Y-115429819D02*
X199309524Y-115810771D01*
X199309524Y-115810771D02*
X199452381Y-115810771D01*
X199452381Y-115810771D02*
X199547619Y-115858390D01*
X199547619Y-115858390D02*
X199595238Y-115906009D01*
X199595238Y-115906009D02*
X199642857Y-116001247D01*
X199642857Y-116001247D02*
X199642857Y-116239342D01*
X199642857Y-116239342D02*
X199595238Y-116334580D01*
X199595238Y-116334580D02*
X199547619Y-116382200D01*
X199547619Y-116382200D02*
X199452381Y-116429819D01*
X199452381Y-116429819D02*
X199166667Y-116429819D01*
X199166667Y-116429819D02*
X199071429Y-116382200D01*
X199071429Y-116382200D02*
X199023810Y-116334580D01*
X200547619Y-115429819D02*
X200071429Y-115429819D01*
X200071429Y-115429819D02*
X200023810Y-115906009D01*
X200023810Y-115906009D02*
X200071429Y-115858390D01*
X200071429Y-115858390D02*
X200166667Y-115810771D01*
X200166667Y-115810771D02*
X200404762Y-115810771D01*
X200404762Y-115810771D02*
X200500000Y-115858390D01*
X200500000Y-115858390D02*
X200547619Y-115906009D01*
X200547619Y-115906009D02*
X200595238Y-116001247D01*
X200595238Y-116001247D02*
X200595238Y-116239342D01*
X200595238Y-116239342D02*
X200547619Y-116334580D01*
X200547619Y-116334580D02*
X200500000Y-116382200D01*
X200500000Y-116382200D02*
X200404762Y-116429819D01*
X200404762Y-116429819D02*
X200166667Y-116429819D01*
X200166667Y-116429819D02*
X200071429Y-116382200D01*
X200071429Y-116382200D02*
X200023810Y-116334580D01*
X201214286Y-115429819D02*
X201309524Y-115429819D01*
X201309524Y-115429819D02*
X201404762Y-115477438D01*
X201404762Y-115477438D02*
X201452381Y-115525057D01*
X201452381Y-115525057D02*
X201500000Y-115620295D01*
X201500000Y-115620295D02*
X201547619Y-115810771D01*
X201547619Y-115810771D02*
X201547619Y-116048866D01*
X201547619Y-116048866D02*
X201500000Y-116239342D01*
X201500000Y-116239342D02*
X201452381Y-116334580D01*
X201452381Y-116334580D02*
X201404762Y-116382200D01*
X201404762Y-116382200D02*
X201309524Y-116429819D01*
X201309524Y-116429819D02*
X201214286Y-116429819D01*
X201214286Y-116429819D02*
X201119048Y-116382200D01*
X201119048Y-116382200D02*
X201071429Y-116334580D01*
X201071429Y-116334580D02*
X201023810Y-116239342D01*
X201023810Y-116239342D02*
X200976191Y-116048866D01*
X200976191Y-116048866D02*
X200976191Y-115810771D01*
X200976191Y-115810771D02*
X201023810Y-115620295D01*
X201023810Y-115620295D02*
X201071429Y-115525057D01*
X201071429Y-115525057D02*
X201119048Y-115477438D01*
X201119048Y-115477438D02*
X201214286Y-115429819D01*
X201976191Y-116048866D02*
X202738096Y-116048866D01*
X203166667Y-115525057D02*
X203214286Y-115477438D01*
X203214286Y-115477438D02*
X203309524Y-115429819D01*
X203309524Y-115429819D02*
X203547619Y-115429819D01*
X203547619Y-115429819D02*
X203642857Y-115477438D01*
X203642857Y-115477438D02*
X203690476Y-115525057D01*
X203690476Y-115525057D02*
X203738095Y-115620295D01*
X203738095Y-115620295D02*
X203738095Y-115715533D01*
X203738095Y-115715533D02*
X203690476Y-115858390D01*
X203690476Y-115858390D02*
X203119048Y-116429819D01*
X203119048Y-116429819D02*
X203738095Y-116429819D01*
X204357143Y-115429819D02*
X204452381Y-115429819D01*
X204452381Y-115429819D02*
X204547619Y-115477438D01*
X204547619Y-115477438D02*
X204595238Y-115525057D01*
X204595238Y-115525057D02*
X204642857Y-115620295D01*
X204642857Y-115620295D02*
X204690476Y-115810771D01*
X204690476Y-115810771D02*
X204690476Y-116048866D01*
X204690476Y-116048866D02*
X204642857Y-116239342D01*
X204642857Y-116239342D02*
X204595238Y-116334580D01*
X204595238Y-116334580D02*
X204547619Y-116382200D01*
X204547619Y-116382200D02*
X204452381Y-116429819D01*
X204452381Y-116429819D02*
X204357143Y-116429819D01*
X204357143Y-116429819D02*
X204261905Y-116382200D01*
X204261905Y-116382200D02*
X204214286Y-116334580D01*
X204214286Y-116334580D02*
X204166667Y-116239342D01*
X204166667Y-116239342D02*
X204119048Y-116048866D01*
X204119048Y-116048866D02*
X204119048Y-115810771D01*
X204119048Y-115810771D02*
X204166667Y-115620295D01*
X204166667Y-115620295D02*
X204214286Y-115525057D01*
X204214286Y-115525057D02*
X204261905Y-115477438D01*
X204261905Y-115477438D02*
X204357143Y-115429819D01*
X205071429Y-116382200D02*
X205214286Y-116429819D01*
X205214286Y-116429819D02*
X205452381Y-116429819D01*
X205452381Y-116429819D02*
X205547619Y-116382200D01*
X205547619Y-116382200D02*
X205595238Y-116334580D01*
X205595238Y-116334580D02*
X205642857Y-116239342D01*
X205642857Y-116239342D02*
X205642857Y-116144104D01*
X205642857Y-116144104D02*
X205595238Y-116048866D01*
X205595238Y-116048866D02*
X205547619Y-116001247D01*
X205547619Y-116001247D02*
X205452381Y-115953628D01*
X205452381Y-115953628D02*
X205261905Y-115906009D01*
X205261905Y-115906009D02*
X205166667Y-115858390D01*
X205166667Y-115858390D02*
X205119048Y-115810771D01*
X205119048Y-115810771D02*
X205071429Y-115715533D01*
X205071429Y-115715533D02*
X205071429Y-115620295D01*
X205071429Y-115620295D02*
X205119048Y-115525057D01*
X205119048Y-115525057D02*
X205166667Y-115477438D01*
X205166667Y-115477438D02*
X205261905Y-115429819D01*
X205261905Y-115429819D02*
X205500000Y-115429819D01*
X205500000Y-115429819D02*
X205642857Y-115477438D01*
D12*
X180307143Y-119755928D02*
X180592857Y-119755928D01*
X180592857Y-119755928D02*
X180735714Y-119827357D01*
X180735714Y-119827357D02*
X180878571Y-119970214D01*
X180878571Y-119970214D02*
X180950000Y-120255928D01*
X180950000Y-120255928D02*
X180950000Y-120755928D01*
X180950000Y-120755928D02*
X180878571Y-121041642D01*
X180878571Y-121041642D02*
X180735714Y-121184500D01*
X180735714Y-121184500D02*
X180592857Y-121255928D01*
X180592857Y-121255928D02*
X180307143Y-121255928D01*
X180307143Y-121255928D02*
X180164286Y-121184500D01*
X180164286Y-121184500D02*
X180021428Y-121041642D01*
X180021428Y-121041642D02*
X179950000Y-120755928D01*
X179950000Y-120755928D02*
X179950000Y-120255928D01*
X179950000Y-120255928D02*
X180021428Y-119970214D01*
X180021428Y-119970214D02*
X180164286Y-119827357D01*
X180164286Y-119827357D02*
X180307143Y-119755928D01*
X182092857Y-120470214D02*
X181592857Y-120470214D01*
X181592857Y-121255928D02*
X181592857Y-119755928D01*
X181592857Y-119755928D02*
X182307143Y-119755928D01*
X183378571Y-120470214D02*
X182878571Y-120470214D01*
X182878571Y-121255928D02*
X182878571Y-119755928D01*
X182878571Y-119755928D02*
X183592857Y-119755928D01*
X184092857Y-121184500D02*
X184307143Y-121255928D01*
X184307143Y-121255928D02*
X184664285Y-121255928D01*
X184664285Y-121255928D02*
X184807143Y-121184500D01*
X184807143Y-121184500D02*
X184878571Y-121113071D01*
X184878571Y-121113071D02*
X184950000Y-120970214D01*
X184950000Y-120970214D02*
X184950000Y-120827357D01*
X184950000Y-120827357D02*
X184878571Y-120684500D01*
X184878571Y-120684500D02*
X184807143Y-120613071D01*
X184807143Y-120613071D02*
X184664285Y-120541642D01*
X184664285Y-120541642D02*
X184378571Y-120470214D01*
X184378571Y-120470214D02*
X184235714Y-120398785D01*
X184235714Y-120398785D02*
X184164285Y-120327357D01*
X184164285Y-120327357D02*
X184092857Y-120184500D01*
X184092857Y-120184500D02*
X184092857Y-120041642D01*
X184092857Y-120041642D02*
X184164285Y-119898785D01*
X184164285Y-119898785D02*
X184235714Y-119827357D01*
X184235714Y-119827357D02*
X184378571Y-119755928D01*
X184378571Y-119755928D02*
X184735714Y-119755928D01*
X184735714Y-119755928D02*
X184950000Y-119827357D01*
X185592856Y-120470214D02*
X186092856Y-120470214D01*
X186307142Y-121255928D02*
X185592856Y-121255928D01*
X185592856Y-121255928D02*
X185592856Y-119755928D01*
X185592856Y-119755928D02*
X186307142Y-119755928D01*
X186735714Y-119755928D02*
X187592857Y-119755928D01*
X187164285Y-121255928D02*
X187164285Y-119755928D01*
D10*
X214359580Y-33270238D02*
X214407200Y-33317857D01*
X214407200Y-33317857D02*
X214454819Y-33460714D01*
X214454819Y-33460714D02*
X214454819Y-33555952D01*
X214454819Y-33555952D02*
X214407200Y-33698809D01*
X214407200Y-33698809D02*
X214311961Y-33794047D01*
X214311961Y-33794047D02*
X214216723Y-33841666D01*
X214216723Y-33841666D02*
X214026247Y-33889285D01*
X214026247Y-33889285D02*
X213883390Y-33889285D01*
X213883390Y-33889285D02*
X213692914Y-33841666D01*
X213692914Y-33841666D02*
X213597676Y-33794047D01*
X213597676Y-33794047D02*
X213502438Y-33698809D01*
X213502438Y-33698809D02*
X213454819Y-33555952D01*
X213454819Y-33555952D02*
X213454819Y-33460714D01*
X213454819Y-33460714D02*
X213502438Y-33317857D01*
X213502438Y-33317857D02*
X213550057Y-33270238D01*
X214454819Y-32841666D02*
X213454819Y-32841666D01*
X213931009Y-32841666D02*
X213931009Y-32270238D01*
X214454819Y-32270238D02*
X213454819Y-32270238D01*
X214169104Y-31841666D02*
X214169104Y-31365476D01*
X214454819Y-31936904D02*
X213454819Y-31603571D01*
X213454819Y-31603571D02*
X214454819Y-31270238D01*
X214454819Y-30365476D02*
X213978628Y-30698809D01*
X214454819Y-30936904D02*
X213454819Y-30936904D01*
X213454819Y-30936904D02*
X213454819Y-30555952D01*
X213454819Y-30555952D02*
X213502438Y-30460714D01*
X213502438Y-30460714D02*
X213550057Y-30413095D01*
X213550057Y-30413095D02*
X213645295Y-30365476D01*
X213645295Y-30365476D02*
X213788152Y-30365476D01*
X213788152Y-30365476D02*
X213883390Y-30413095D01*
X213883390Y-30413095D02*
X213931009Y-30460714D01*
X213931009Y-30460714D02*
X213978628Y-30555952D01*
X213978628Y-30555952D02*
X213978628Y-30936904D01*
X213502438Y-29413095D02*
X213454819Y-29508333D01*
X213454819Y-29508333D02*
X213454819Y-29651190D01*
X213454819Y-29651190D02*
X213502438Y-29794047D01*
X213502438Y-29794047D02*
X213597676Y-29889285D01*
X213597676Y-29889285D02*
X213692914Y-29936904D01*
X213692914Y-29936904D02*
X213883390Y-29984523D01*
X213883390Y-29984523D02*
X214026247Y-29984523D01*
X214026247Y-29984523D02*
X214216723Y-29936904D01*
X214216723Y-29936904D02*
X214311961Y-29889285D01*
X214311961Y-29889285D02*
X214407200Y-29794047D01*
X214407200Y-29794047D02*
X214454819Y-29651190D01*
X214454819Y-29651190D02*
X214454819Y-29555952D01*
X214454819Y-29555952D02*
X214407200Y-29413095D01*
X214407200Y-29413095D02*
X214359580Y-29365476D01*
X214359580Y-29365476D02*
X214026247Y-29365476D01*
X214026247Y-29365476D02*
X214026247Y-29555952D01*
X213931009Y-28936904D02*
X213931009Y-28603571D01*
X214454819Y-28460714D02*
X214454819Y-28936904D01*
X214454819Y-28936904D02*
X213454819Y-28936904D01*
X213454819Y-28936904D02*
X213454819Y-28460714D01*
X239654819Y-82995237D02*
X240464342Y-82995237D01*
X240464342Y-82995237D02*
X240559580Y-82947618D01*
X240559580Y-82947618D02*
X240607200Y-82899999D01*
X240607200Y-82899999D02*
X240654819Y-82804761D01*
X240654819Y-82804761D02*
X240654819Y-82614285D01*
X240654819Y-82614285D02*
X240607200Y-82519047D01*
X240607200Y-82519047D02*
X240559580Y-82471428D01*
X240559580Y-82471428D02*
X240464342Y-82423809D01*
X240464342Y-82423809D02*
X239654819Y-82423809D01*
X240607200Y-81995237D02*
X240654819Y-81852380D01*
X240654819Y-81852380D02*
X240654819Y-81614285D01*
X240654819Y-81614285D02*
X240607200Y-81519047D01*
X240607200Y-81519047D02*
X240559580Y-81471428D01*
X240559580Y-81471428D02*
X240464342Y-81423809D01*
X240464342Y-81423809D02*
X240369104Y-81423809D01*
X240369104Y-81423809D02*
X240273866Y-81471428D01*
X240273866Y-81471428D02*
X240226247Y-81519047D01*
X240226247Y-81519047D02*
X240178628Y-81614285D01*
X240178628Y-81614285D02*
X240131009Y-81804761D01*
X240131009Y-81804761D02*
X240083390Y-81899999D01*
X240083390Y-81899999D02*
X240035771Y-81947618D01*
X240035771Y-81947618D02*
X239940533Y-81995237D01*
X239940533Y-81995237D02*
X239845295Y-81995237D01*
X239845295Y-81995237D02*
X239750057Y-81947618D01*
X239750057Y-81947618D02*
X239702438Y-81899999D01*
X239702438Y-81899999D02*
X239654819Y-81804761D01*
X239654819Y-81804761D02*
X239654819Y-81566666D01*
X239654819Y-81566666D02*
X239702438Y-81423809D01*
X240131009Y-80661904D02*
X240178628Y-80519047D01*
X240178628Y-80519047D02*
X240226247Y-80471428D01*
X240226247Y-80471428D02*
X240321485Y-80423809D01*
X240321485Y-80423809D02*
X240464342Y-80423809D01*
X240464342Y-80423809D02*
X240559580Y-80471428D01*
X240559580Y-80471428D02*
X240607200Y-80519047D01*
X240607200Y-80519047D02*
X240654819Y-80614285D01*
X240654819Y-80614285D02*
X240654819Y-80995237D01*
X240654819Y-80995237D02*
X239654819Y-80995237D01*
X239654819Y-80995237D02*
X239654819Y-80661904D01*
X239654819Y-80661904D02*
X239702438Y-80566666D01*
X239702438Y-80566666D02*
X239750057Y-80519047D01*
X239750057Y-80519047D02*
X239845295Y-80471428D01*
X239845295Y-80471428D02*
X239940533Y-80471428D01*
X239940533Y-80471428D02*
X240035771Y-80519047D01*
X240035771Y-80519047D02*
X240083390Y-80566666D01*
X240083390Y-80566666D02*
X240131009Y-80661904D01*
X240131009Y-80661904D02*
X240131009Y-80995237D01*
X240750057Y-80233333D02*
X240750057Y-79471428D01*
X239654819Y-79376189D02*
X240654819Y-79042856D01*
X240654819Y-79042856D02*
X239654819Y-78709523D01*
X239702438Y-77852380D02*
X239654819Y-77947618D01*
X239654819Y-77947618D02*
X239654819Y-78090475D01*
X239654819Y-78090475D02*
X239702438Y-78233332D01*
X239702438Y-78233332D02*
X239797676Y-78328570D01*
X239797676Y-78328570D02*
X239892914Y-78376189D01*
X239892914Y-78376189D02*
X240083390Y-78423808D01*
X240083390Y-78423808D02*
X240226247Y-78423808D01*
X240226247Y-78423808D02*
X240416723Y-78376189D01*
X240416723Y-78376189D02*
X240511961Y-78328570D01*
X240511961Y-78328570D02*
X240607200Y-78233332D01*
X240607200Y-78233332D02*
X240654819Y-78090475D01*
X240654819Y-78090475D02*
X240654819Y-77995237D01*
X240654819Y-77995237D02*
X240607200Y-77852380D01*
X240607200Y-77852380D02*
X240559580Y-77804761D01*
X240559580Y-77804761D02*
X240226247Y-77804761D01*
X240226247Y-77804761D02*
X240226247Y-77995237D01*
X240654819Y-77376189D02*
X239654819Y-77376189D01*
X239654819Y-77376189D02*
X240654819Y-76804761D01*
X240654819Y-76804761D02*
X239654819Y-76804761D01*
X240654819Y-76328570D02*
X239654819Y-76328570D01*
X239654819Y-76328570D02*
X239654819Y-76090475D01*
X239654819Y-76090475D02*
X239702438Y-75947618D01*
X239702438Y-75947618D02*
X239797676Y-75852380D01*
X239797676Y-75852380D02*
X239892914Y-75804761D01*
X239892914Y-75804761D02*
X240083390Y-75757142D01*
X240083390Y-75757142D02*
X240226247Y-75757142D01*
X240226247Y-75757142D02*
X240416723Y-75804761D01*
X240416723Y-75804761D02*
X240511961Y-75852380D01*
X240511961Y-75852380D02*
X240607200Y-75947618D01*
X240607200Y-75947618D02*
X240654819Y-76090475D01*
X240654819Y-76090475D02*
X240654819Y-76328570D01*
X226085714Y-137129608D02*
X226038095Y-137177228D01*
X226038095Y-137177228D02*
X225895238Y-137224847D01*
X225895238Y-137224847D02*
X225800000Y-137224847D01*
X225800000Y-137224847D02*
X225657143Y-137177228D01*
X225657143Y-137177228D02*
X225561905Y-137081989D01*
X225561905Y-137081989D02*
X225514286Y-136986751D01*
X225514286Y-136986751D02*
X225466667Y-136796275D01*
X225466667Y-136796275D02*
X225466667Y-136653418D01*
X225466667Y-136653418D02*
X225514286Y-136462942D01*
X225514286Y-136462942D02*
X225561905Y-136367704D01*
X225561905Y-136367704D02*
X225657143Y-136272466D01*
X225657143Y-136272466D02*
X225800000Y-136224847D01*
X225800000Y-136224847D02*
X225895238Y-136224847D01*
X225895238Y-136224847D02*
X226038095Y-136272466D01*
X226038095Y-136272466D02*
X226085714Y-136320085D01*
X226514286Y-137224847D02*
X226514286Y-136224847D01*
X226514286Y-136701037D02*
X227085714Y-136701037D01*
X227085714Y-137224847D02*
X227085714Y-136224847D01*
X228085714Y-136272466D02*
X227990476Y-136224847D01*
X227990476Y-136224847D02*
X227847619Y-136224847D01*
X227847619Y-136224847D02*
X227704762Y-136272466D01*
X227704762Y-136272466D02*
X227609524Y-136367704D01*
X227609524Y-136367704D02*
X227561905Y-136462942D01*
X227561905Y-136462942D02*
X227514286Y-136653418D01*
X227514286Y-136653418D02*
X227514286Y-136796275D01*
X227514286Y-136796275D02*
X227561905Y-136986751D01*
X227561905Y-136986751D02*
X227609524Y-137081989D01*
X227609524Y-137081989D02*
X227704762Y-137177228D01*
X227704762Y-137177228D02*
X227847619Y-137224847D01*
X227847619Y-137224847D02*
X227942857Y-137224847D01*
X227942857Y-137224847D02*
X228085714Y-137177228D01*
X228085714Y-137177228D02*
X228133333Y-137129608D01*
X228133333Y-137129608D02*
X228133333Y-136796275D01*
X228133333Y-136796275D02*
X227942857Y-136796275D01*
X225061905Y-138834791D02*
X225061905Y-137834791D01*
X225061905Y-137834791D02*
X225442857Y-137834791D01*
X225442857Y-137834791D02*
X225538095Y-137882410D01*
X225538095Y-137882410D02*
X225585714Y-137930029D01*
X225585714Y-137930029D02*
X225633333Y-138025267D01*
X225633333Y-138025267D02*
X225633333Y-138168124D01*
X225633333Y-138168124D02*
X225585714Y-138263362D01*
X225585714Y-138263362D02*
X225538095Y-138310981D01*
X225538095Y-138310981D02*
X225442857Y-138358600D01*
X225442857Y-138358600D02*
X225061905Y-138358600D01*
X226252381Y-137834791D02*
X226442857Y-137834791D01*
X226442857Y-137834791D02*
X226538095Y-137882410D01*
X226538095Y-137882410D02*
X226633333Y-137977648D01*
X226633333Y-137977648D02*
X226680952Y-138168124D01*
X226680952Y-138168124D02*
X226680952Y-138501457D01*
X226680952Y-138501457D02*
X226633333Y-138691933D01*
X226633333Y-138691933D02*
X226538095Y-138787172D01*
X226538095Y-138787172D02*
X226442857Y-138834791D01*
X226442857Y-138834791D02*
X226252381Y-138834791D01*
X226252381Y-138834791D02*
X226157143Y-138787172D01*
X226157143Y-138787172D02*
X226061905Y-138691933D01*
X226061905Y-138691933D02*
X226014286Y-138501457D01*
X226014286Y-138501457D02*
X226014286Y-138168124D01*
X226014286Y-138168124D02*
X226061905Y-137977648D01*
X226061905Y-137977648D02*
X226157143Y-137882410D01*
X226157143Y-137882410D02*
X226252381Y-137834791D01*
X227061905Y-138787172D02*
X227204762Y-138834791D01*
X227204762Y-138834791D02*
X227442857Y-138834791D01*
X227442857Y-138834791D02*
X227538095Y-138787172D01*
X227538095Y-138787172D02*
X227585714Y-138739552D01*
X227585714Y-138739552D02*
X227633333Y-138644314D01*
X227633333Y-138644314D02*
X227633333Y-138549076D01*
X227633333Y-138549076D02*
X227585714Y-138453838D01*
X227585714Y-138453838D02*
X227538095Y-138406219D01*
X227538095Y-138406219D02*
X227442857Y-138358600D01*
X227442857Y-138358600D02*
X227252381Y-138310981D01*
X227252381Y-138310981D02*
X227157143Y-138263362D01*
X227157143Y-138263362D02*
X227109524Y-138215743D01*
X227109524Y-138215743D02*
X227061905Y-138120505D01*
X227061905Y-138120505D02*
X227061905Y-138025267D01*
X227061905Y-138025267D02*
X227109524Y-137930029D01*
X227109524Y-137930029D02*
X227157143Y-137882410D01*
X227157143Y-137882410D02*
X227252381Y-137834791D01*
X227252381Y-137834791D02*
X227490476Y-137834791D01*
X227490476Y-137834791D02*
X227633333Y-137882410D01*
X228014286Y-137930029D02*
X228061905Y-137882410D01*
X228061905Y-137882410D02*
X228157143Y-137834791D01*
X228157143Y-137834791D02*
X228395238Y-137834791D01*
X228395238Y-137834791D02*
X228490476Y-137882410D01*
X228490476Y-137882410D02*
X228538095Y-137930029D01*
X228538095Y-137930029D02*
X228585714Y-138025267D01*
X228585714Y-138025267D02*
X228585714Y-138120505D01*
X228585714Y-138120505D02*
X228538095Y-138263362D01*
X228538095Y-138263362D02*
X227966667Y-138834791D01*
X227966667Y-138834791D02*
X228585714Y-138834791D01*
X176531009Y-138609523D02*
X176578628Y-138466666D01*
X176578628Y-138466666D02*
X176626247Y-138419047D01*
X176626247Y-138419047D02*
X176721485Y-138371428D01*
X176721485Y-138371428D02*
X176864342Y-138371428D01*
X176864342Y-138371428D02*
X176959580Y-138419047D01*
X176959580Y-138419047D02*
X177007200Y-138466666D01*
X177007200Y-138466666D02*
X177054819Y-138561904D01*
X177054819Y-138561904D02*
X177054819Y-138942856D01*
X177054819Y-138942856D02*
X176054819Y-138942856D01*
X176054819Y-138942856D02*
X176054819Y-138609523D01*
X176054819Y-138609523D02*
X176102438Y-138514285D01*
X176102438Y-138514285D02*
X176150057Y-138466666D01*
X176150057Y-138466666D02*
X176245295Y-138419047D01*
X176245295Y-138419047D02*
X176340533Y-138419047D01*
X176340533Y-138419047D02*
X176435771Y-138466666D01*
X176435771Y-138466666D02*
X176483390Y-138514285D01*
X176483390Y-138514285D02*
X176531009Y-138609523D01*
X176531009Y-138609523D02*
X176531009Y-138942856D01*
X176054819Y-137752380D02*
X176054819Y-137561904D01*
X176054819Y-137561904D02*
X176102438Y-137466666D01*
X176102438Y-137466666D02*
X176197676Y-137371428D01*
X176197676Y-137371428D02*
X176388152Y-137323809D01*
X176388152Y-137323809D02*
X176721485Y-137323809D01*
X176721485Y-137323809D02*
X176911961Y-137371428D01*
X176911961Y-137371428D02*
X177007200Y-137466666D01*
X177007200Y-137466666D02*
X177054819Y-137561904D01*
X177054819Y-137561904D02*
X177054819Y-137752380D01*
X177054819Y-137752380D02*
X177007200Y-137847618D01*
X177007200Y-137847618D02*
X176911961Y-137942856D01*
X176911961Y-137942856D02*
X176721485Y-137990475D01*
X176721485Y-137990475D02*
X176388152Y-137990475D01*
X176388152Y-137990475D02*
X176197676Y-137942856D01*
X176197676Y-137942856D02*
X176102438Y-137847618D01*
X176102438Y-137847618D02*
X176054819Y-137752380D01*
X176054819Y-136895237D02*
X176864342Y-136895237D01*
X176864342Y-136895237D02*
X176959580Y-136847618D01*
X176959580Y-136847618D02*
X177007200Y-136799999D01*
X177007200Y-136799999D02*
X177054819Y-136704761D01*
X177054819Y-136704761D02*
X177054819Y-136514285D01*
X177054819Y-136514285D02*
X177007200Y-136419047D01*
X177007200Y-136419047D02*
X176959580Y-136371428D01*
X176959580Y-136371428D02*
X176864342Y-136323809D01*
X176864342Y-136323809D02*
X176054819Y-136323809D01*
X177054819Y-135276190D02*
X176578628Y-135609523D01*
X177054819Y-135847618D02*
X176054819Y-135847618D01*
X176054819Y-135847618D02*
X176054819Y-135466666D01*
X176054819Y-135466666D02*
X176102438Y-135371428D01*
X176102438Y-135371428D02*
X176150057Y-135323809D01*
X176150057Y-135323809D02*
X176245295Y-135276190D01*
X176245295Y-135276190D02*
X176388152Y-135276190D01*
X176388152Y-135276190D02*
X176483390Y-135323809D01*
X176483390Y-135323809D02*
X176531009Y-135371428D01*
X176531009Y-135371428D02*
X176578628Y-135466666D01*
X176578628Y-135466666D02*
X176578628Y-135847618D01*
X177054819Y-134847618D02*
X176054819Y-134847618D01*
X176054819Y-134847618D02*
X177054819Y-134276190D01*
X177054819Y-134276190D02*
X176054819Y-134276190D01*
X177007200Y-133847618D02*
X177054819Y-133704761D01*
X177054819Y-133704761D02*
X177054819Y-133466666D01*
X177054819Y-133466666D02*
X177007200Y-133371428D01*
X177007200Y-133371428D02*
X176959580Y-133323809D01*
X176959580Y-133323809D02*
X176864342Y-133276190D01*
X176864342Y-133276190D02*
X176769104Y-133276190D01*
X176769104Y-133276190D02*
X176673866Y-133323809D01*
X176673866Y-133323809D02*
X176626247Y-133371428D01*
X176626247Y-133371428D02*
X176578628Y-133466666D01*
X176578628Y-133466666D02*
X176531009Y-133657142D01*
X176531009Y-133657142D02*
X176483390Y-133752380D01*
X176483390Y-133752380D02*
X176435771Y-133799999D01*
X176435771Y-133799999D02*
X176340533Y-133847618D01*
X176340533Y-133847618D02*
X176245295Y-133847618D01*
X176245295Y-133847618D02*
X176150057Y-133799999D01*
X176150057Y-133799999D02*
X176102438Y-133752380D01*
X176102438Y-133752380D02*
X176054819Y-133657142D01*
X176054819Y-133657142D02*
X176054819Y-133419047D01*
X176054819Y-133419047D02*
X176102438Y-133276190D01*
X176054819Y-132180951D02*
X176054819Y-131561904D01*
X176054819Y-131561904D02*
X176435771Y-131895237D01*
X176435771Y-131895237D02*
X176435771Y-131752380D01*
X176435771Y-131752380D02*
X176483390Y-131657142D01*
X176483390Y-131657142D02*
X176531009Y-131609523D01*
X176531009Y-131609523D02*
X176626247Y-131561904D01*
X176626247Y-131561904D02*
X176864342Y-131561904D01*
X176864342Y-131561904D02*
X176959580Y-131609523D01*
X176959580Y-131609523D02*
X177007200Y-131657142D01*
X177007200Y-131657142D02*
X177054819Y-131752380D01*
X177054819Y-131752380D02*
X177054819Y-132038094D01*
X177054819Y-132038094D02*
X177007200Y-132133332D01*
X177007200Y-132133332D02*
X176959580Y-132180951D01*
X176054819Y-130657142D02*
X176054819Y-131133332D01*
X176054819Y-131133332D02*
X176531009Y-131180951D01*
X176531009Y-131180951D02*
X176483390Y-131133332D01*
X176483390Y-131133332D02*
X176435771Y-131038094D01*
X176435771Y-131038094D02*
X176435771Y-130799999D01*
X176435771Y-130799999D02*
X176483390Y-130704761D01*
X176483390Y-130704761D02*
X176531009Y-130657142D01*
X176531009Y-130657142D02*
X176626247Y-130609523D01*
X176626247Y-130609523D02*
X176864342Y-130609523D01*
X176864342Y-130609523D02*
X176959580Y-130657142D01*
X176959580Y-130657142D02*
X177007200Y-130704761D01*
X177007200Y-130704761D02*
X177054819Y-130799999D01*
X177054819Y-130799999D02*
X177054819Y-131038094D01*
X177054819Y-131038094D02*
X177007200Y-131133332D01*
X177007200Y-131133332D02*
X176959580Y-131180951D01*
X177054819Y-130133332D02*
X177054819Y-129942856D01*
X177054819Y-129942856D02*
X177007200Y-129847618D01*
X177007200Y-129847618D02*
X176959580Y-129799999D01*
X176959580Y-129799999D02*
X176816723Y-129704761D01*
X176816723Y-129704761D02*
X176626247Y-129657142D01*
X176626247Y-129657142D02*
X176245295Y-129657142D01*
X176245295Y-129657142D02*
X176150057Y-129704761D01*
X176150057Y-129704761D02*
X176102438Y-129752380D01*
X176102438Y-129752380D02*
X176054819Y-129847618D01*
X176054819Y-129847618D02*
X176054819Y-130038094D01*
X176054819Y-130038094D02*
X176102438Y-130133332D01*
X176102438Y-130133332D02*
X176150057Y-130180951D01*
X176150057Y-130180951D02*
X176245295Y-130228570D01*
X176245295Y-130228570D02*
X176483390Y-130228570D01*
X176483390Y-130228570D02*
X176578628Y-130180951D01*
X176578628Y-130180951D02*
X176626247Y-130133332D01*
X176626247Y-130133332D02*
X176673866Y-130038094D01*
X176673866Y-130038094D02*
X176673866Y-129847618D01*
X176673866Y-129847618D02*
X176626247Y-129752380D01*
X176626247Y-129752380D02*
X176578628Y-129704761D01*
X176578628Y-129704761D02*
X176483390Y-129657142D01*
X176054819Y-129038094D02*
X176054819Y-128942856D01*
X176054819Y-128942856D02*
X176102438Y-128847618D01*
X176102438Y-128847618D02*
X176150057Y-128799999D01*
X176150057Y-128799999D02*
X176245295Y-128752380D01*
X176245295Y-128752380D02*
X176435771Y-128704761D01*
X176435771Y-128704761D02*
X176673866Y-128704761D01*
X176673866Y-128704761D02*
X176864342Y-128752380D01*
X176864342Y-128752380D02*
X176959580Y-128799999D01*
X176959580Y-128799999D02*
X177007200Y-128847618D01*
X177007200Y-128847618D02*
X177054819Y-128942856D01*
X177054819Y-128942856D02*
X177054819Y-129038094D01*
X177054819Y-129038094D02*
X177007200Y-129133332D01*
X177007200Y-129133332D02*
X176959580Y-129180951D01*
X176959580Y-129180951D02*
X176864342Y-129228570D01*
X176864342Y-129228570D02*
X176673866Y-129276189D01*
X176673866Y-129276189D02*
X176435771Y-129276189D01*
X176435771Y-129276189D02*
X176245295Y-129228570D01*
X176245295Y-129228570D02*
X176150057Y-129180951D01*
X176150057Y-129180951D02*
X176102438Y-129133332D01*
X176102438Y-129133332D02*
X176054819Y-129038094D01*
X177054819Y-128276189D02*
X176054819Y-128276189D01*
X176054819Y-128276189D02*
X176054819Y-127895237D01*
X176054819Y-127895237D02*
X176102438Y-127799999D01*
X176102438Y-127799999D02*
X176150057Y-127752380D01*
X176150057Y-127752380D02*
X176245295Y-127704761D01*
X176245295Y-127704761D02*
X176388152Y-127704761D01*
X176388152Y-127704761D02*
X176483390Y-127752380D01*
X176483390Y-127752380D02*
X176531009Y-127799999D01*
X176531009Y-127799999D02*
X176578628Y-127895237D01*
X176578628Y-127895237D02*
X176578628Y-128276189D01*
X176673866Y-127276189D02*
X176673866Y-126514285D01*
X176150057Y-126085713D02*
X176102438Y-126038094D01*
X176102438Y-126038094D02*
X176054819Y-125942856D01*
X176054819Y-125942856D02*
X176054819Y-125704761D01*
X176054819Y-125704761D02*
X176102438Y-125609523D01*
X176102438Y-125609523D02*
X176150057Y-125561904D01*
X176150057Y-125561904D02*
X176245295Y-125514285D01*
X176245295Y-125514285D02*
X176340533Y-125514285D01*
X176340533Y-125514285D02*
X176483390Y-125561904D01*
X176483390Y-125561904D02*
X177054819Y-126133332D01*
X177054819Y-126133332D02*
X177054819Y-125514285D01*
X176673866Y-125085713D02*
X176673866Y-124323809D01*
X176054819Y-123371428D02*
X176054819Y-123847618D01*
X176054819Y-123847618D02*
X176531009Y-123895237D01*
X176531009Y-123895237D02*
X176483390Y-123847618D01*
X176483390Y-123847618D02*
X176435771Y-123752380D01*
X176435771Y-123752380D02*
X176435771Y-123514285D01*
X176435771Y-123514285D02*
X176483390Y-123419047D01*
X176483390Y-123419047D02*
X176531009Y-123371428D01*
X176531009Y-123371428D02*
X176626247Y-123323809D01*
X176626247Y-123323809D02*
X176864342Y-123323809D01*
X176864342Y-123323809D02*
X176959580Y-123371428D01*
X176959580Y-123371428D02*
X177007200Y-123419047D01*
X177007200Y-123419047D02*
X177054819Y-123514285D01*
X177054819Y-123514285D02*
X177054819Y-123752380D01*
X177054819Y-123752380D02*
X177007200Y-123847618D01*
X177007200Y-123847618D02*
X176959580Y-123895237D01*
X176054819Y-122704761D02*
X176054819Y-122609523D01*
X176054819Y-122609523D02*
X176102438Y-122514285D01*
X176102438Y-122514285D02*
X176150057Y-122466666D01*
X176150057Y-122466666D02*
X176245295Y-122419047D01*
X176245295Y-122419047D02*
X176435771Y-122371428D01*
X176435771Y-122371428D02*
X176673866Y-122371428D01*
X176673866Y-122371428D02*
X176864342Y-122419047D01*
X176864342Y-122419047D02*
X176959580Y-122466666D01*
X176959580Y-122466666D02*
X177007200Y-122514285D01*
X177007200Y-122514285D02*
X177054819Y-122609523D01*
X177054819Y-122609523D02*
X177054819Y-122704761D01*
X177054819Y-122704761D02*
X177007200Y-122799999D01*
X177007200Y-122799999D02*
X176959580Y-122847618D01*
X176959580Y-122847618D02*
X176864342Y-122895237D01*
X176864342Y-122895237D02*
X176673866Y-122942856D01*
X176673866Y-122942856D02*
X176435771Y-122942856D01*
X176435771Y-122942856D02*
X176245295Y-122895237D01*
X176245295Y-122895237D02*
X176150057Y-122847618D01*
X176150057Y-122847618D02*
X176102438Y-122799999D01*
X176102438Y-122799999D02*
X176054819Y-122704761D01*
X176150057Y-121990475D02*
X176102438Y-121942856D01*
X176102438Y-121942856D02*
X176054819Y-121847618D01*
X176054819Y-121847618D02*
X176054819Y-121609523D01*
X176054819Y-121609523D02*
X176102438Y-121514285D01*
X176102438Y-121514285D02*
X176150057Y-121466666D01*
X176150057Y-121466666D02*
X176245295Y-121419047D01*
X176245295Y-121419047D02*
X176340533Y-121419047D01*
X176340533Y-121419047D02*
X176483390Y-121466666D01*
X176483390Y-121466666D02*
X177054819Y-122038094D01*
X177054819Y-122038094D02*
X177054819Y-121419047D01*
X177054819Y-120514285D02*
X177054819Y-120990475D01*
X177054819Y-120990475D02*
X176054819Y-120990475D01*
D14*
X176047619Y-39158366D02*
X177952381Y-39158366D01*
D12*
X221080928Y-104153570D02*
X221080928Y-105010713D01*
X221080928Y-104582142D02*
X219580928Y-104582142D01*
X219580928Y-104582142D02*
X219795214Y-104724999D01*
X219795214Y-104724999D02*
X219938071Y-104867856D01*
X219938071Y-104867856D02*
X220009500Y-105010713D01*
X220223785Y-103296428D02*
X220152357Y-103439285D01*
X220152357Y-103439285D02*
X220080928Y-103510714D01*
X220080928Y-103510714D02*
X219938071Y-103582142D01*
X219938071Y-103582142D02*
X219866642Y-103582142D01*
X219866642Y-103582142D02*
X219723785Y-103510714D01*
X219723785Y-103510714D02*
X219652357Y-103439285D01*
X219652357Y-103439285D02*
X219580928Y-103296428D01*
X219580928Y-103296428D02*
X219580928Y-103010714D01*
X219580928Y-103010714D02*
X219652357Y-102867857D01*
X219652357Y-102867857D02*
X219723785Y-102796428D01*
X219723785Y-102796428D02*
X219866642Y-102724999D01*
X219866642Y-102724999D02*
X219938071Y-102724999D01*
X219938071Y-102724999D02*
X220080928Y-102796428D01*
X220080928Y-102796428D02*
X220152357Y-102867857D01*
X220152357Y-102867857D02*
X220223785Y-103010714D01*
X220223785Y-103010714D02*
X220223785Y-103296428D01*
X220223785Y-103296428D02*
X220295214Y-103439285D01*
X220295214Y-103439285D02*
X220366642Y-103510714D01*
X220366642Y-103510714D02*
X220509500Y-103582142D01*
X220509500Y-103582142D02*
X220795214Y-103582142D01*
X220795214Y-103582142D02*
X220938071Y-103510714D01*
X220938071Y-103510714D02*
X221009500Y-103439285D01*
X221009500Y-103439285D02*
X221080928Y-103296428D01*
X221080928Y-103296428D02*
X221080928Y-103010714D01*
X221080928Y-103010714D02*
X221009500Y-102867857D01*
X221009500Y-102867857D02*
X220938071Y-102796428D01*
X220938071Y-102796428D02*
X220795214Y-102724999D01*
X220795214Y-102724999D02*
X220509500Y-102724999D01*
X220509500Y-102724999D02*
X220366642Y-102796428D01*
X220366642Y-102796428D02*
X220295214Y-102867857D01*
X220295214Y-102867857D02*
X220223785Y-103010714D01*
X219580928Y-101439286D02*
X219580928Y-101725000D01*
X219580928Y-101725000D02*
X219652357Y-101867857D01*
X219652357Y-101867857D02*
X219723785Y-101939286D01*
X219723785Y-101939286D02*
X219938071Y-102082143D01*
X219938071Y-102082143D02*
X220223785Y-102153571D01*
X220223785Y-102153571D02*
X220795214Y-102153571D01*
X220795214Y-102153571D02*
X220938071Y-102082143D01*
X220938071Y-102082143D02*
X221009500Y-102010714D01*
X221009500Y-102010714D02*
X221080928Y-101867857D01*
X221080928Y-101867857D02*
X221080928Y-101582143D01*
X221080928Y-101582143D02*
X221009500Y-101439286D01*
X221009500Y-101439286D02*
X220938071Y-101367857D01*
X220938071Y-101367857D02*
X220795214Y-101296428D01*
X220795214Y-101296428D02*
X220438071Y-101296428D01*
X220438071Y-101296428D02*
X220295214Y-101367857D01*
X220295214Y-101367857D02*
X220223785Y-101439286D01*
X220223785Y-101439286D02*
X220152357Y-101582143D01*
X220152357Y-101582143D02*
X220152357Y-101867857D01*
X220152357Y-101867857D02*
X220223785Y-102010714D01*
X220223785Y-102010714D02*
X220295214Y-102082143D01*
X220295214Y-102082143D02*
X220438071Y-102153571D01*
X219580928Y-99939286D02*
X219580928Y-100653572D01*
X219580928Y-100653572D02*
X220295214Y-100725000D01*
X220295214Y-100725000D02*
X220223785Y-100653572D01*
X220223785Y-100653572D02*
X220152357Y-100510715D01*
X220152357Y-100510715D02*
X220152357Y-100153572D01*
X220152357Y-100153572D02*
X220223785Y-100010715D01*
X220223785Y-100010715D02*
X220295214Y-99939286D01*
X220295214Y-99939286D02*
X220438071Y-99867857D01*
X220438071Y-99867857D02*
X220795214Y-99867857D01*
X220795214Y-99867857D02*
X220938071Y-99939286D01*
X220938071Y-99939286D02*
X221009500Y-100010715D01*
X221009500Y-100010715D02*
X221080928Y-100153572D01*
X221080928Y-100153572D02*
X221080928Y-100510715D01*
X221080928Y-100510715D02*
X221009500Y-100653572D01*
X221009500Y-100653572D02*
X220938071Y-100725000D01*
X219580928Y-98939286D02*
X219580928Y-98796429D01*
X219580928Y-98796429D02*
X219652357Y-98653572D01*
X219652357Y-98653572D02*
X219723785Y-98582144D01*
X219723785Y-98582144D02*
X219866642Y-98510715D01*
X219866642Y-98510715D02*
X220152357Y-98439286D01*
X220152357Y-98439286D02*
X220509500Y-98439286D01*
X220509500Y-98439286D02*
X220795214Y-98510715D01*
X220795214Y-98510715D02*
X220938071Y-98582144D01*
X220938071Y-98582144D02*
X221009500Y-98653572D01*
X221009500Y-98653572D02*
X221080928Y-98796429D01*
X221080928Y-98796429D02*
X221080928Y-98939286D01*
X221080928Y-98939286D02*
X221009500Y-99082144D01*
X221009500Y-99082144D02*
X220938071Y-99153572D01*
X220938071Y-99153572D02*
X220795214Y-99225001D01*
X220795214Y-99225001D02*
X220509500Y-99296429D01*
X220509500Y-99296429D02*
X220152357Y-99296429D01*
X220152357Y-99296429D02*
X219866642Y-99225001D01*
X219866642Y-99225001D02*
X219723785Y-99153572D01*
X219723785Y-99153572D02*
X219652357Y-99082144D01*
X219652357Y-99082144D02*
X219580928Y-98939286D01*
X221080928Y-95939287D02*
X221080928Y-96653573D01*
X221080928Y-96653573D02*
X219580928Y-96653573D01*
X221080928Y-95439287D02*
X219580928Y-95439287D01*
X220509500Y-94725001D02*
X220509500Y-93582144D01*
X221080928Y-92867858D02*
X219580928Y-92867858D01*
X219580928Y-91867857D02*
X219580928Y-91582143D01*
X219580928Y-91582143D02*
X219652357Y-91439286D01*
X219652357Y-91439286D02*
X219795214Y-91296429D01*
X219795214Y-91296429D02*
X220080928Y-91225000D01*
X220080928Y-91225000D02*
X220580928Y-91225000D01*
X220580928Y-91225000D02*
X220866642Y-91296429D01*
X220866642Y-91296429D02*
X221009500Y-91439286D01*
X221009500Y-91439286D02*
X221080928Y-91582143D01*
X221080928Y-91582143D02*
X221080928Y-91867857D01*
X221080928Y-91867857D02*
X221009500Y-92010715D01*
X221009500Y-92010715D02*
X220866642Y-92153572D01*
X220866642Y-92153572D02*
X220580928Y-92225000D01*
X220580928Y-92225000D02*
X220080928Y-92225000D01*
X220080928Y-92225000D02*
X219795214Y-92153572D01*
X219795214Y-92153572D02*
X219652357Y-92010715D01*
X219652357Y-92010715D02*
X219580928Y-91867857D01*
X221080928Y-90582143D02*
X219580928Y-90582143D01*
X219580928Y-90582143D02*
X221080928Y-89725000D01*
X221080928Y-89725000D02*
X219580928Y-89725000D01*
X219580928Y-88010714D02*
X219580928Y-87082142D01*
X219580928Y-87082142D02*
X220152357Y-87582142D01*
X220152357Y-87582142D02*
X220152357Y-87367857D01*
X220152357Y-87367857D02*
X220223785Y-87225000D01*
X220223785Y-87225000D02*
X220295214Y-87153571D01*
X220295214Y-87153571D02*
X220438071Y-87082142D01*
X220438071Y-87082142D02*
X220795214Y-87082142D01*
X220795214Y-87082142D02*
X220938071Y-87153571D01*
X220938071Y-87153571D02*
X221009500Y-87225000D01*
X221009500Y-87225000D02*
X221080928Y-87367857D01*
X221080928Y-87367857D02*
X221080928Y-87796428D01*
X221080928Y-87796428D02*
X221009500Y-87939285D01*
X221009500Y-87939285D02*
X220938071Y-88010714D01*
X220938071Y-86439286D02*
X221009500Y-86367857D01*
X221009500Y-86367857D02*
X221080928Y-86439286D01*
X221080928Y-86439286D02*
X221009500Y-86510714D01*
X221009500Y-86510714D02*
X220938071Y-86439286D01*
X220938071Y-86439286D02*
X221080928Y-86439286D01*
X219580928Y-85867857D02*
X219580928Y-84867857D01*
X219580928Y-84867857D02*
X221080928Y-85510714D01*
X219580928Y-84510714D02*
X221080928Y-84010714D01*
X221080928Y-84010714D02*
X219580928Y-83510714D01*
X221080928Y-81867858D02*
X219580928Y-81867858D01*
X219580928Y-81867858D02*
X221080928Y-81010715D01*
X221080928Y-81010715D02*
X219580928Y-81010715D01*
X219580928Y-80010714D02*
X219580928Y-79725000D01*
X219580928Y-79725000D02*
X219652357Y-79582143D01*
X219652357Y-79582143D02*
X219795214Y-79439286D01*
X219795214Y-79439286D02*
X220080928Y-79367857D01*
X220080928Y-79367857D02*
X220580928Y-79367857D01*
X220580928Y-79367857D02*
X220866642Y-79439286D01*
X220866642Y-79439286D02*
X221009500Y-79582143D01*
X221009500Y-79582143D02*
X221080928Y-79725000D01*
X221080928Y-79725000D02*
X221080928Y-80010714D01*
X221080928Y-80010714D02*
X221009500Y-80153572D01*
X221009500Y-80153572D02*
X220866642Y-80296429D01*
X220866642Y-80296429D02*
X220580928Y-80367857D01*
X220580928Y-80367857D02*
X220080928Y-80367857D01*
X220080928Y-80367857D02*
X219795214Y-80296429D01*
X219795214Y-80296429D02*
X219652357Y-80153572D01*
X219652357Y-80153572D02*
X219580928Y-80010714D01*
X221080928Y-78725000D02*
X219580928Y-78725000D01*
X219580928Y-78725000D02*
X220652357Y-78225000D01*
X220652357Y-78225000D02*
X219580928Y-77725000D01*
X219580928Y-77725000D02*
X221080928Y-77725000D01*
X220938071Y-77010714D02*
X221009500Y-76939285D01*
X221009500Y-76939285D02*
X221080928Y-77010714D01*
X221080928Y-77010714D02*
X221009500Y-77082142D01*
X221009500Y-77082142D02*
X220938071Y-77010714D01*
X220938071Y-77010714D02*
X221080928Y-77010714D01*
D10*
X235285714Y-111329608D02*
X235238095Y-111377228D01*
X235238095Y-111377228D02*
X235095238Y-111424847D01*
X235095238Y-111424847D02*
X235000000Y-111424847D01*
X235000000Y-111424847D02*
X234857143Y-111377228D01*
X234857143Y-111377228D02*
X234761905Y-111281989D01*
X234761905Y-111281989D02*
X234714286Y-111186751D01*
X234714286Y-111186751D02*
X234666667Y-110996275D01*
X234666667Y-110996275D02*
X234666667Y-110853418D01*
X234666667Y-110853418D02*
X234714286Y-110662942D01*
X234714286Y-110662942D02*
X234761905Y-110567704D01*
X234761905Y-110567704D02*
X234857143Y-110472466D01*
X234857143Y-110472466D02*
X235000000Y-110424847D01*
X235000000Y-110424847D02*
X235095238Y-110424847D01*
X235095238Y-110424847D02*
X235238095Y-110472466D01*
X235238095Y-110472466D02*
X235285714Y-110520085D01*
X235714286Y-111424847D02*
X235714286Y-110424847D01*
X235714286Y-110901037D02*
X236285714Y-110901037D01*
X236285714Y-111424847D02*
X236285714Y-110424847D01*
X237285714Y-110472466D02*
X237190476Y-110424847D01*
X237190476Y-110424847D02*
X237047619Y-110424847D01*
X237047619Y-110424847D02*
X236904762Y-110472466D01*
X236904762Y-110472466D02*
X236809524Y-110567704D01*
X236809524Y-110567704D02*
X236761905Y-110662942D01*
X236761905Y-110662942D02*
X236714286Y-110853418D01*
X236714286Y-110853418D02*
X236714286Y-110996275D01*
X236714286Y-110996275D02*
X236761905Y-111186751D01*
X236761905Y-111186751D02*
X236809524Y-111281989D01*
X236809524Y-111281989D02*
X236904762Y-111377228D01*
X236904762Y-111377228D02*
X237047619Y-111424847D01*
X237047619Y-111424847D02*
X237142857Y-111424847D01*
X237142857Y-111424847D02*
X237285714Y-111377228D01*
X237285714Y-111377228D02*
X237333333Y-111329608D01*
X237333333Y-111329608D02*
X237333333Y-110996275D01*
X237333333Y-110996275D02*
X237142857Y-110996275D01*
X234261905Y-113034791D02*
X234261905Y-112034791D01*
X234261905Y-112034791D02*
X234642857Y-112034791D01*
X234642857Y-112034791D02*
X234738095Y-112082410D01*
X234738095Y-112082410D02*
X234785714Y-112130029D01*
X234785714Y-112130029D02*
X234833333Y-112225267D01*
X234833333Y-112225267D02*
X234833333Y-112368124D01*
X234833333Y-112368124D02*
X234785714Y-112463362D01*
X234785714Y-112463362D02*
X234738095Y-112510981D01*
X234738095Y-112510981D02*
X234642857Y-112558600D01*
X234642857Y-112558600D02*
X234261905Y-112558600D01*
X235452381Y-112034791D02*
X235642857Y-112034791D01*
X235642857Y-112034791D02*
X235738095Y-112082410D01*
X235738095Y-112082410D02*
X235833333Y-112177648D01*
X235833333Y-112177648D02*
X235880952Y-112368124D01*
X235880952Y-112368124D02*
X235880952Y-112701457D01*
X235880952Y-112701457D02*
X235833333Y-112891933D01*
X235833333Y-112891933D02*
X235738095Y-112987172D01*
X235738095Y-112987172D02*
X235642857Y-113034791D01*
X235642857Y-113034791D02*
X235452381Y-113034791D01*
X235452381Y-113034791D02*
X235357143Y-112987172D01*
X235357143Y-112987172D02*
X235261905Y-112891933D01*
X235261905Y-112891933D02*
X235214286Y-112701457D01*
X235214286Y-112701457D02*
X235214286Y-112368124D01*
X235214286Y-112368124D02*
X235261905Y-112177648D01*
X235261905Y-112177648D02*
X235357143Y-112082410D01*
X235357143Y-112082410D02*
X235452381Y-112034791D01*
X236261905Y-112987172D02*
X236404762Y-113034791D01*
X236404762Y-113034791D02*
X236642857Y-113034791D01*
X236642857Y-113034791D02*
X236738095Y-112987172D01*
X236738095Y-112987172D02*
X236785714Y-112939552D01*
X236785714Y-112939552D02*
X236833333Y-112844314D01*
X236833333Y-112844314D02*
X236833333Y-112749076D01*
X236833333Y-112749076D02*
X236785714Y-112653838D01*
X236785714Y-112653838D02*
X236738095Y-112606219D01*
X236738095Y-112606219D02*
X236642857Y-112558600D01*
X236642857Y-112558600D02*
X236452381Y-112510981D01*
X236452381Y-112510981D02*
X236357143Y-112463362D01*
X236357143Y-112463362D02*
X236309524Y-112415743D01*
X236309524Y-112415743D02*
X236261905Y-112320505D01*
X236261905Y-112320505D02*
X236261905Y-112225267D01*
X236261905Y-112225267D02*
X236309524Y-112130029D01*
X236309524Y-112130029D02*
X236357143Y-112082410D01*
X236357143Y-112082410D02*
X236452381Y-112034791D01*
X236452381Y-112034791D02*
X236690476Y-112034791D01*
X236690476Y-112034791D02*
X236833333Y-112082410D01*
X237214286Y-112130029D02*
X237261905Y-112082410D01*
X237261905Y-112082410D02*
X237357143Y-112034791D01*
X237357143Y-112034791D02*
X237595238Y-112034791D01*
X237595238Y-112034791D02*
X237690476Y-112082410D01*
X237690476Y-112082410D02*
X237738095Y-112130029D01*
X237738095Y-112130029D02*
X237785714Y-112225267D01*
X237785714Y-112225267D02*
X237785714Y-112320505D01*
X237785714Y-112320505D02*
X237738095Y-112463362D01*
X237738095Y-112463362D02*
X237166667Y-113034791D01*
X237166667Y-113034791D02*
X237785714Y-113034791D01*
D12*
X220257142Y-54755928D02*
X220257142Y-55970214D01*
X220257142Y-55970214D02*
X220328571Y-56113071D01*
X220328571Y-56113071D02*
X220400000Y-56184500D01*
X220400000Y-56184500D02*
X220542857Y-56255928D01*
X220542857Y-56255928D02*
X220828571Y-56255928D01*
X220828571Y-56255928D02*
X220971428Y-56184500D01*
X220971428Y-56184500D02*
X221042857Y-56113071D01*
X221042857Y-56113071D02*
X221114285Y-55970214D01*
X221114285Y-55970214D02*
X221114285Y-54755928D01*
X221757143Y-56184500D02*
X221971429Y-56255928D01*
X221971429Y-56255928D02*
X222328571Y-56255928D01*
X222328571Y-56255928D02*
X222471429Y-56184500D01*
X222471429Y-56184500D02*
X222542857Y-56113071D01*
X222542857Y-56113071D02*
X222614286Y-55970214D01*
X222614286Y-55970214D02*
X222614286Y-55827357D01*
X222614286Y-55827357D02*
X222542857Y-55684500D01*
X222542857Y-55684500D02*
X222471429Y-55613071D01*
X222471429Y-55613071D02*
X222328571Y-55541642D01*
X222328571Y-55541642D02*
X222042857Y-55470214D01*
X222042857Y-55470214D02*
X221900000Y-55398785D01*
X221900000Y-55398785D02*
X221828571Y-55327357D01*
X221828571Y-55327357D02*
X221757143Y-55184500D01*
X221757143Y-55184500D02*
X221757143Y-55041642D01*
X221757143Y-55041642D02*
X221828571Y-54898785D01*
X221828571Y-54898785D02*
X221900000Y-54827357D01*
X221900000Y-54827357D02*
X222042857Y-54755928D01*
X222042857Y-54755928D02*
X222400000Y-54755928D01*
X222400000Y-54755928D02*
X222614286Y-54827357D01*
X223757142Y-55470214D02*
X223971428Y-55541642D01*
X223971428Y-55541642D02*
X224042857Y-55613071D01*
X224042857Y-55613071D02*
X224114285Y-55755928D01*
X224114285Y-55755928D02*
X224114285Y-55970214D01*
X224114285Y-55970214D02*
X224042857Y-56113071D01*
X224042857Y-56113071D02*
X223971428Y-56184500D01*
X223971428Y-56184500D02*
X223828571Y-56255928D01*
X223828571Y-56255928D02*
X223257142Y-56255928D01*
X223257142Y-56255928D02*
X223257142Y-54755928D01*
X223257142Y-54755928D02*
X223757142Y-54755928D01*
X223757142Y-54755928D02*
X223900000Y-54827357D01*
X223900000Y-54827357D02*
X223971428Y-54898785D01*
X223971428Y-54898785D02*
X224042857Y-55041642D01*
X224042857Y-55041642D02*
X224042857Y-55184500D01*
X224042857Y-55184500D02*
X223971428Y-55327357D01*
X223971428Y-55327357D02*
X223900000Y-55398785D01*
X223900000Y-55398785D02*
X223757142Y-55470214D01*
X223757142Y-55470214D02*
X223257142Y-55470214D01*
X224757142Y-55684500D02*
X225900000Y-55684500D01*
X227471428Y-56113071D02*
X227400000Y-56184500D01*
X227400000Y-56184500D02*
X227185714Y-56255928D01*
X227185714Y-56255928D02*
X227042857Y-56255928D01*
X227042857Y-56255928D02*
X226828571Y-56184500D01*
X226828571Y-56184500D02*
X226685714Y-56041642D01*
X226685714Y-56041642D02*
X226614285Y-55898785D01*
X226614285Y-55898785D02*
X226542857Y-55613071D01*
X226542857Y-55613071D02*
X226542857Y-55398785D01*
X226542857Y-55398785D02*
X226614285Y-55113071D01*
X226614285Y-55113071D02*
X226685714Y-54970214D01*
X226685714Y-54970214D02*
X226828571Y-54827357D01*
X226828571Y-54827357D02*
X227042857Y-54755928D01*
X227042857Y-54755928D02*
X227185714Y-54755928D01*
X227185714Y-54755928D02*
X227400000Y-54827357D01*
X227400000Y-54827357D02*
X227471428Y-54898785D01*
X229257142Y-56255928D02*
X229257142Y-54755928D01*
X229257142Y-54755928D02*
X229828571Y-54755928D01*
X229828571Y-54755928D02*
X229971428Y-54827357D01*
X229971428Y-54827357D02*
X230042857Y-54898785D01*
X230042857Y-54898785D02*
X230114285Y-55041642D01*
X230114285Y-55041642D02*
X230114285Y-55255928D01*
X230114285Y-55255928D02*
X230042857Y-55398785D01*
X230042857Y-55398785D02*
X229971428Y-55470214D01*
X229971428Y-55470214D02*
X229828571Y-55541642D01*
X229828571Y-55541642D02*
X229257142Y-55541642D01*
X230757142Y-56255928D02*
X230757142Y-54755928D01*
X230757142Y-54755928D02*
X231114285Y-54755928D01*
X231114285Y-54755928D02*
X231328571Y-54827357D01*
X231328571Y-54827357D02*
X231471428Y-54970214D01*
X231471428Y-54970214D02*
X231542857Y-55113071D01*
X231542857Y-55113071D02*
X231614285Y-55398785D01*
X231614285Y-55398785D02*
X231614285Y-55613071D01*
X231614285Y-55613071D02*
X231542857Y-55898785D01*
X231542857Y-55898785D02*
X231471428Y-56041642D01*
X231471428Y-56041642D02*
X231328571Y-56184500D01*
X231328571Y-56184500D02*
X231114285Y-56255928D01*
X231114285Y-56255928D02*
X230757142Y-56255928D01*
D14*
X219247619Y-111358366D02*
X221152381Y-111358366D01*
X176047619Y-111558366D02*
X177952381Y-111558366D01*
X177000000Y-112510747D02*
X177000000Y-110605985D01*
D10*
X222973866Y-87398809D02*
X222973866Y-86636905D01*
X223354819Y-87017857D02*
X222592914Y-87017857D01*
X222354819Y-86303571D02*
X223354819Y-85970238D01*
X223354819Y-85970238D02*
X222354819Y-85636905D01*
X223450057Y-85541667D02*
X223450057Y-84779762D01*
X222831009Y-84208333D02*
X222878628Y-84065476D01*
X222878628Y-84065476D02*
X222926247Y-84017857D01*
X222926247Y-84017857D02*
X223021485Y-83970238D01*
X223021485Y-83970238D02*
X223164342Y-83970238D01*
X223164342Y-83970238D02*
X223259580Y-84017857D01*
X223259580Y-84017857D02*
X223307200Y-84065476D01*
X223307200Y-84065476D02*
X223354819Y-84160714D01*
X223354819Y-84160714D02*
X223354819Y-84541666D01*
X223354819Y-84541666D02*
X222354819Y-84541666D01*
X222354819Y-84541666D02*
X222354819Y-84208333D01*
X222354819Y-84208333D02*
X222402438Y-84113095D01*
X222402438Y-84113095D02*
X222450057Y-84065476D01*
X222450057Y-84065476D02*
X222545295Y-84017857D01*
X222545295Y-84017857D02*
X222640533Y-84017857D01*
X222640533Y-84017857D02*
X222735771Y-84065476D01*
X222735771Y-84065476D02*
X222783390Y-84113095D01*
X222783390Y-84113095D02*
X222831009Y-84208333D01*
X222831009Y-84208333D02*
X222831009Y-84541666D01*
X223069104Y-83589285D02*
X223069104Y-83113095D01*
X223354819Y-83684523D02*
X222354819Y-83351190D01*
X222354819Y-83351190D02*
X223354819Y-83017857D01*
X222354819Y-82827380D02*
X222354819Y-82255952D01*
X223354819Y-82541666D02*
X222354819Y-82541666D01*
X223259580Y-81351190D02*
X223307200Y-81398809D01*
X223307200Y-81398809D02*
X223354819Y-81541666D01*
X223354819Y-81541666D02*
X223354819Y-81636904D01*
X223354819Y-81636904D02*
X223307200Y-81779761D01*
X223307200Y-81779761D02*
X223211961Y-81874999D01*
X223211961Y-81874999D02*
X223116723Y-81922618D01*
X223116723Y-81922618D02*
X222926247Y-81970237D01*
X222926247Y-81970237D02*
X222783390Y-81970237D01*
X222783390Y-81970237D02*
X222592914Y-81922618D01*
X222592914Y-81922618D02*
X222497676Y-81874999D01*
X222497676Y-81874999D02*
X222402438Y-81779761D01*
X222402438Y-81779761D02*
X222354819Y-81636904D01*
X222354819Y-81636904D02*
X222354819Y-81541666D01*
X222354819Y-81541666D02*
X222402438Y-81398809D01*
X222402438Y-81398809D02*
X222450057Y-81351190D01*
X223354819Y-80922618D02*
X222354819Y-80922618D01*
X222831009Y-80922618D02*
X222831009Y-80351190D01*
X223354819Y-80351190D02*
X222354819Y-80351190D01*
X222402438Y-79351190D02*
X222354819Y-79446428D01*
X222354819Y-79446428D02*
X222354819Y-79589285D01*
X222354819Y-79589285D02*
X222402438Y-79732142D01*
X222402438Y-79732142D02*
X222497676Y-79827380D01*
X222497676Y-79827380D02*
X222592914Y-79874999D01*
X222592914Y-79874999D02*
X222783390Y-79922618D01*
X222783390Y-79922618D02*
X222926247Y-79922618D01*
X222926247Y-79922618D02*
X223116723Y-79874999D01*
X223116723Y-79874999D02*
X223211961Y-79827380D01*
X223211961Y-79827380D02*
X223307200Y-79732142D01*
X223307200Y-79732142D02*
X223354819Y-79589285D01*
X223354819Y-79589285D02*
X223354819Y-79494047D01*
X223354819Y-79494047D02*
X223307200Y-79351190D01*
X223307200Y-79351190D02*
X223259580Y-79303571D01*
X223259580Y-79303571D02*
X222926247Y-79303571D01*
X222926247Y-79303571D02*
X222926247Y-79494047D01*
X229054819Y-80689285D02*
X230054819Y-80355952D01*
X230054819Y-80355952D02*
X229054819Y-80022619D01*
X230150057Y-79927381D02*
X230150057Y-79165476D01*
X229054819Y-78927380D02*
X229864342Y-78927380D01*
X229864342Y-78927380D02*
X229959580Y-78879761D01*
X229959580Y-78879761D02*
X230007200Y-78832142D01*
X230007200Y-78832142D02*
X230054819Y-78736904D01*
X230054819Y-78736904D02*
X230054819Y-78546428D01*
X230054819Y-78546428D02*
X230007200Y-78451190D01*
X230007200Y-78451190D02*
X229959580Y-78403571D01*
X229959580Y-78403571D02*
X229864342Y-78355952D01*
X229864342Y-78355952D02*
X229054819Y-78355952D01*
X230054819Y-77879761D02*
X229054819Y-77879761D01*
X229054819Y-77879761D02*
X230054819Y-77308333D01*
X230054819Y-77308333D02*
X229054819Y-77308333D01*
X230054819Y-76260714D02*
X229578628Y-76594047D01*
X230054819Y-76832142D02*
X229054819Y-76832142D01*
X229054819Y-76832142D02*
X229054819Y-76451190D01*
X229054819Y-76451190D02*
X229102438Y-76355952D01*
X229102438Y-76355952D02*
X229150057Y-76308333D01*
X229150057Y-76308333D02*
X229245295Y-76260714D01*
X229245295Y-76260714D02*
X229388152Y-76260714D01*
X229388152Y-76260714D02*
X229483390Y-76308333D01*
X229483390Y-76308333D02*
X229531009Y-76355952D01*
X229531009Y-76355952D02*
X229578628Y-76451190D01*
X229578628Y-76451190D02*
X229578628Y-76832142D01*
X229531009Y-75832142D02*
X229531009Y-75498809D01*
X230054819Y-75355952D02*
X230054819Y-75832142D01*
X230054819Y-75832142D02*
X229054819Y-75832142D01*
X229054819Y-75832142D02*
X229054819Y-75355952D01*
X229102438Y-74403571D02*
X229054819Y-74498809D01*
X229054819Y-74498809D02*
X229054819Y-74641666D01*
X229054819Y-74641666D02*
X229102438Y-74784523D01*
X229102438Y-74784523D02*
X229197676Y-74879761D01*
X229197676Y-74879761D02*
X229292914Y-74927380D01*
X229292914Y-74927380D02*
X229483390Y-74974999D01*
X229483390Y-74974999D02*
X229626247Y-74974999D01*
X229626247Y-74974999D02*
X229816723Y-74927380D01*
X229816723Y-74927380D02*
X229911961Y-74879761D01*
X229911961Y-74879761D02*
X230007200Y-74784523D01*
X230007200Y-74784523D02*
X230054819Y-74641666D01*
X230054819Y-74641666D02*
X230054819Y-74546428D01*
X230054819Y-74546428D02*
X230007200Y-74403571D01*
X230007200Y-74403571D02*
X229959580Y-74355952D01*
X229959580Y-74355952D02*
X229626247Y-74355952D01*
X229626247Y-74355952D02*
X229626247Y-74546428D01*
X223154819Y-42095237D02*
X223964342Y-42095237D01*
X223964342Y-42095237D02*
X224059580Y-42047618D01*
X224059580Y-42047618D02*
X224107200Y-41999999D01*
X224107200Y-41999999D02*
X224154819Y-41904761D01*
X224154819Y-41904761D02*
X224154819Y-41714285D01*
X224154819Y-41714285D02*
X224107200Y-41619047D01*
X224107200Y-41619047D02*
X224059580Y-41571428D01*
X224059580Y-41571428D02*
X223964342Y-41523809D01*
X223964342Y-41523809D02*
X223154819Y-41523809D01*
X224107200Y-41095237D02*
X224154819Y-40952380D01*
X224154819Y-40952380D02*
X224154819Y-40714285D01*
X224154819Y-40714285D02*
X224107200Y-40619047D01*
X224107200Y-40619047D02*
X224059580Y-40571428D01*
X224059580Y-40571428D02*
X223964342Y-40523809D01*
X223964342Y-40523809D02*
X223869104Y-40523809D01*
X223869104Y-40523809D02*
X223773866Y-40571428D01*
X223773866Y-40571428D02*
X223726247Y-40619047D01*
X223726247Y-40619047D02*
X223678628Y-40714285D01*
X223678628Y-40714285D02*
X223631009Y-40904761D01*
X223631009Y-40904761D02*
X223583390Y-40999999D01*
X223583390Y-40999999D02*
X223535771Y-41047618D01*
X223535771Y-41047618D02*
X223440533Y-41095237D01*
X223440533Y-41095237D02*
X223345295Y-41095237D01*
X223345295Y-41095237D02*
X223250057Y-41047618D01*
X223250057Y-41047618D02*
X223202438Y-40999999D01*
X223202438Y-40999999D02*
X223154819Y-40904761D01*
X223154819Y-40904761D02*
X223154819Y-40666666D01*
X223154819Y-40666666D02*
X223202438Y-40523809D01*
X223631009Y-39761904D02*
X223678628Y-39619047D01*
X223678628Y-39619047D02*
X223726247Y-39571428D01*
X223726247Y-39571428D02*
X223821485Y-39523809D01*
X223821485Y-39523809D02*
X223964342Y-39523809D01*
X223964342Y-39523809D02*
X224059580Y-39571428D01*
X224059580Y-39571428D02*
X224107200Y-39619047D01*
X224107200Y-39619047D02*
X224154819Y-39714285D01*
X224154819Y-39714285D02*
X224154819Y-40095237D01*
X224154819Y-40095237D02*
X223154819Y-40095237D01*
X223154819Y-40095237D02*
X223154819Y-39761904D01*
X223154819Y-39761904D02*
X223202438Y-39666666D01*
X223202438Y-39666666D02*
X223250057Y-39619047D01*
X223250057Y-39619047D02*
X223345295Y-39571428D01*
X223345295Y-39571428D02*
X223440533Y-39571428D01*
X223440533Y-39571428D02*
X223535771Y-39619047D01*
X223535771Y-39619047D02*
X223583390Y-39666666D01*
X223583390Y-39666666D02*
X223631009Y-39761904D01*
X223631009Y-39761904D02*
X223631009Y-40095237D01*
X224250057Y-39333333D02*
X224250057Y-38571428D01*
X223154819Y-38476189D02*
X224154819Y-38142856D01*
X224154819Y-38142856D02*
X223154819Y-37809523D01*
X223202438Y-36952380D02*
X223154819Y-37047618D01*
X223154819Y-37047618D02*
X223154819Y-37190475D01*
X223154819Y-37190475D02*
X223202438Y-37333332D01*
X223202438Y-37333332D02*
X223297676Y-37428570D01*
X223297676Y-37428570D02*
X223392914Y-37476189D01*
X223392914Y-37476189D02*
X223583390Y-37523808D01*
X223583390Y-37523808D02*
X223726247Y-37523808D01*
X223726247Y-37523808D02*
X223916723Y-37476189D01*
X223916723Y-37476189D02*
X224011961Y-37428570D01*
X224011961Y-37428570D02*
X224107200Y-37333332D01*
X224107200Y-37333332D02*
X224154819Y-37190475D01*
X224154819Y-37190475D02*
X224154819Y-37095237D01*
X224154819Y-37095237D02*
X224107200Y-36952380D01*
X224107200Y-36952380D02*
X224059580Y-36904761D01*
X224059580Y-36904761D02*
X223726247Y-36904761D01*
X223726247Y-36904761D02*
X223726247Y-37095237D01*
X224154819Y-36476189D02*
X223154819Y-36476189D01*
X223154819Y-36476189D02*
X224154819Y-35904761D01*
X224154819Y-35904761D02*
X223154819Y-35904761D01*
X224154819Y-35428570D02*
X223154819Y-35428570D01*
X223154819Y-35428570D02*
X223154819Y-35190475D01*
X223154819Y-35190475D02*
X223202438Y-35047618D01*
X223202438Y-35047618D02*
X223297676Y-34952380D01*
X223297676Y-34952380D02*
X223392914Y-34904761D01*
X223392914Y-34904761D02*
X223583390Y-34857142D01*
X223583390Y-34857142D02*
X223726247Y-34857142D01*
X223726247Y-34857142D02*
X223916723Y-34904761D01*
X223916723Y-34904761D02*
X224011961Y-34952380D01*
X224011961Y-34952380D02*
X224107200Y-35047618D01*
X224107200Y-35047618D02*
X224154819Y-35190475D01*
X224154819Y-35190475D02*
X224154819Y-35428570D01*
D15*
%TO.C,R1*%
X214362742Y-126930855D02*
X214837258Y-126930855D01*
X214362742Y-127975855D02*
X214837258Y-127975855D01*
%TO.C,R22*%
X199887742Y-34502500D02*
X200362258Y-34502500D01*
X199887742Y-35547500D02*
X200362258Y-35547500D01*
D11*
%TO.C,D14*%
X218650000Y-35675000D02*
X218650000Y-34075000D01*
D15*
X219150000Y-34025000D02*
X216600000Y-34025000D01*
X219150000Y-35725000D02*
X216600000Y-35725000D01*
X219150000Y-35725000D02*
X219150000Y-34025000D01*
%TO.C,C24*%
X211137836Y-124815000D02*
X210922164Y-124815000D01*
X211137836Y-125535000D02*
X210922164Y-125535000D01*
%TO.C,C3*%
X214040000Y-124167164D02*
X214040000Y-124382836D01*
X214760000Y-124167164D02*
X214760000Y-124382836D01*
D10*
%TO.C,R13*%
X224177500Y-51062742D02*
X224177500Y-51537258D01*
X225222500Y-51062742D02*
X225222500Y-51537258D01*
D15*
%TO.C,C21*%
X203977836Y-124815000D02*
X203762164Y-124815000D01*
X203977836Y-125535000D02*
X203762164Y-125535000D01*
%TO.C,TP12*%
X241300000Y-85400000D02*
G75*
G02*
X238900000Y-85400000I-1200000J0D01*
G01*
X238900000Y-85400000D02*
G75*
G02*
X241300000Y-85400000I1200000J0D01*
G01*
%TO.C,L1*%
X217590000Y-120788748D02*
X217590000Y-123561252D01*
X221010000Y-120788748D02*
X221010000Y-123561252D01*
D10*
%TO.C,U2*%
X211700000Y-121215000D02*
X210900000Y-121215000D01*
X211700000Y-121215000D02*
X212500000Y-121215000D01*
X211700000Y-124335000D02*
X210900000Y-124335000D01*
X211700000Y-124335000D02*
X213500000Y-124335000D01*
D15*
%TO.C,C4*%
X206840000Y-124167164D02*
X206840000Y-124382836D01*
X207560000Y-124167164D02*
X207560000Y-124382836D01*
D10*
%TO.C,R14*%
X222377500Y-51062742D02*
X222377500Y-51537258D01*
X223422500Y-51062742D02*
X223422500Y-51537258D01*
D15*
%TO.C,J1*%
X193950000Y-138925000D02*
X193950000Y-130625000D01*
X202250000Y-130625000D02*
X193950000Y-130625000D01*
X202250000Y-138925000D02*
X193950000Y-138925000D01*
X202250000Y-138925000D02*
X202250000Y-130625000D01*
%TO.C,D8*%
X236810000Y-51125000D02*
X234150000Y-51125000D01*
X236810000Y-52825000D02*
X234150000Y-52825000D01*
X236810000Y-52825000D02*
X236810000Y-51125000D01*
%TO.C,TP2*%
X229800000Y-85500000D02*
G75*
G02*
X227400000Y-85500000I-1200000J0D01*
G01*
X227400000Y-85500000D02*
G75*
G02*
X229800000Y-85500000I1200000J0D01*
G01*
D10*
%TO.C,C14*%
X226415000Y-46238748D02*
X226415000Y-46761252D01*
X227885000Y-46238748D02*
X227885000Y-46761252D01*
%TO.C,R8*%
X211127500Y-29037742D02*
X211127500Y-29512258D01*
X212172500Y-29037742D02*
X212172500Y-29512258D01*
%TO.C,R3*%
X204437258Y-119552500D02*
X203962742Y-119552500D01*
X204437258Y-120597500D02*
X203962742Y-120597500D01*
D15*
%TO.C,R24*%
X196687742Y-34502500D02*
X197162258Y-34502500D01*
X196687742Y-35547500D02*
X197162258Y-35547500D01*
%TO.C,U4*%
X234390000Y-86000000D02*
X234390000Y-83000000D01*
X237610000Y-86000000D02*
X237610000Y-83000000D01*
X234660000Y-87040000D02*
X234180000Y-86560000D01*
X234660000Y-86560000D01*
X234660000Y-87040000D01*
G36*
X234660000Y-87040000D02*
G01*
X234180000Y-86560000D01*
X234660000Y-86560000D01*
X234660000Y-87040000D01*
G37*
D10*
%TO.C,R10*%
X235777500Y-49062742D02*
X235777500Y-49537258D01*
X236822500Y-49062742D02*
X236822500Y-49537258D01*
%TO.C,R9*%
X232637258Y-81677500D02*
X232162742Y-81677500D01*
X232637258Y-82722500D02*
X232162742Y-82722500D01*
%TO.C,U1*%
X204500000Y-121215000D02*
X203700000Y-121215000D01*
X204500000Y-121215000D02*
X205300000Y-121215000D01*
X204500000Y-124335000D02*
X203700000Y-124335000D01*
X204500000Y-124335000D02*
X206300000Y-124335000D01*
%TO.C,R5*%
X199812258Y-121852500D02*
X199337742Y-121852500D01*
X199812258Y-122897500D02*
X199337742Y-122897500D01*
D15*
%TO.C,J4*%
X216359483Y-25095000D02*
X216359483Y-25320000D01*
X216359483Y-28195000D02*
X216359483Y-30920000D01*
X224234483Y-33595000D02*
X224009483Y-33595000D01*
X225859483Y-25085000D02*
X225859483Y-25295000D01*
X225859483Y-30945000D02*
X225859483Y-28245000D01*
X225859483Y-33445000D02*
X216359483Y-33445000D01*
D10*
%TO.C,R12*%
X234077500Y-49537258D02*
X234077500Y-49062742D01*
X235122500Y-49537258D02*
X235122500Y-49062742D01*
%TO.C,Q1*%
X232930000Y-46950000D02*
X232930000Y-48090000D01*
%TO.C,R6*%
X208337258Y-119552500D02*
X207862742Y-119552500D01*
X208337258Y-120597500D02*
X207862742Y-120597500D01*
D15*
%TO.C,J3*%
X238350000Y-39875000D02*
X239400000Y-39875000D01*
X239400000Y-38825000D02*
X239400000Y-39875000D01*
%TO.C,R7*%
X217837258Y-126930855D02*
X217362742Y-126930855D01*
X217837258Y-127975855D02*
X217362742Y-127975855D01*
%TO.C,U8*%
X196300000Y-28815000D02*
X199750000Y-28815000D01*
X197800000Y-33935000D02*
X199750000Y-33935000D01*
X201700000Y-28815000D02*
X199750000Y-28815000D01*
X201700000Y-33935000D02*
X199750000Y-33935000D01*
D10*
%TO.C,C9*%
X231465000Y-85161252D02*
X231465000Y-84638748D01*
X232935000Y-85161252D02*
X232935000Y-84638748D01*
D15*
%TO.C,F2*%
X230090000Y-43572936D02*
X230090000Y-44777064D01*
X231910000Y-43572936D02*
X231910000Y-44777064D01*
D10*
%TO.C,C1*%
X199292164Y-127093355D02*
X199507836Y-127093355D01*
X199292164Y-127813355D02*
X199507836Y-127813355D01*
D15*
%TO.C,C22*%
X206840000Y-122382836D02*
X206840000Y-122167164D01*
X207560000Y-122382836D02*
X207560000Y-122167164D01*
%TO.C,D2*%
X193600000Y-28825000D02*
X195600000Y-28825000D01*
X193600000Y-33125000D02*
X193600000Y-28825000D01*
X195600000Y-28825000D02*
X195600000Y-33125000D01*
%TO.C,F1*%
X233690000Y-43572936D02*
X233690000Y-44777064D01*
X235510000Y-43572936D02*
X235510000Y-44777064D01*
%TO.C,R21*%
X207602500Y-29537258D02*
X207602500Y-29062742D01*
X208647500Y-29537258D02*
X208647500Y-29062742D01*
%TO.C,R19*%
X205312258Y-31202500D02*
X204837742Y-31202500D01*
X205312258Y-32247500D02*
X204837742Y-32247500D01*
%TO.C,R26*%
X200712742Y-118652500D02*
X201187258Y-118652500D01*
X200712742Y-119697500D02*
X201187258Y-119697500D01*
%TO.C,D7*%
X237150000Y-50885000D02*
X237150000Y-48225000D01*
X237150000Y-50885000D02*
X238850000Y-50885000D01*
X238850000Y-50885000D02*
X238850000Y-48225000D01*
D10*
%TO.C,R4*%
X211537258Y-119552500D02*
X211062742Y-119552500D01*
X211537258Y-120597500D02*
X211062742Y-120597500D01*
D15*
%TO.C,R18*%
X205312258Y-32752500D02*
X204837742Y-32752500D01*
X205312258Y-33797500D02*
X204837742Y-33797500D01*
%TO.C,R23*%
X199587742Y-27102500D02*
X200062258Y-27102500D01*
X199587742Y-28147500D02*
X200062258Y-28147500D01*
%TO.C,U6*%
X222590000Y-45450000D02*
X222590000Y-48450000D01*
X225810000Y-45450000D02*
X225810000Y-48450000D01*
X225980000Y-44900000D02*
X225500000Y-44900000D01*
X225500000Y-44420000D01*
X225980000Y-44900000D01*
G36*
X225980000Y-44900000D02*
G01*
X225500000Y-44900000D01*
X225500000Y-44420000D01*
X225980000Y-44900000D01*
G37*
%TO.C,R15*%
X199812258Y-120252500D02*
X199337742Y-120252500D01*
X199812258Y-121297500D02*
X199337742Y-121297500D01*
D10*
%TO.C,R2*%
X199428873Y-124919221D02*
X199666131Y-124508279D01*
X200333869Y-125441721D02*
X200571127Y-125030779D01*
D15*
%TO.C,C25*%
X214040000Y-122382836D02*
X214040000Y-122167164D01*
X214760000Y-122382836D02*
X214760000Y-122167164D01*
%TO.C,TP1*%
X233200000Y-77475000D02*
G75*
G02*
X230800000Y-77475000I-1200000J0D01*
G01*
X230800000Y-77475000D02*
G75*
G02*
X233200000Y-77475000I1200000J0D01*
G01*
%TO.C,J2*%
X211950000Y-138885000D02*
X211950000Y-130585000D01*
X220250000Y-130585000D02*
X211950000Y-130585000D01*
X220250000Y-138885000D02*
X211950000Y-138885000D01*
X220250000Y-138885000D02*
X220250000Y-130585000D01*
%TD*%
%LPC*%
D16*
%TO.C,SW1*%
X238300000Y-124120000D03*
X233600000Y-124120000D03*
X228900000Y-124120000D03*
X238300000Y-120310000D03*
X233600000Y-120310000D03*
X228900000Y-120310000D03*
X238300000Y-116500000D03*
X233600000Y-116500000D03*
X228900000Y-116500000D03*
D17*
X231060000Y-138470000D03*
X236140000Y-138470000D03*
%TD*%
D18*
%TO.C,KiKit_TO_3*%
X172600000Y-142300000D03*
%TD*%
D19*
%TO.C,R1*%
X213775000Y-127453355D03*
X215425000Y-127453355D03*
%TD*%
D20*
%TO.C,J12*%
X225400000Y-123675000D03*
%TD*%
D21*
%TO.C,R22*%
X200950000Y-35025000D03*
X199300000Y-35025000D03*
%TD*%
D22*
%TO.C,D14*%
X218700000Y-34875000D03*
X216600000Y-34875000D03*
%TD*%
D23*
%TO.C,C24*%
X211510000Y-125175000D03*
X210550000Y-125175000D03*
%TD*%
D24*
%TO.C,C3*%
X214400000Y-123795000D03*
X214400000Y-124755000D03*
%TD*%
D25*
%TO.C,R13*%
X224700000Y-50475000D03*
X224700000Y-52125000D03*
%TD*%
D23*
%TO.C,C21*%
X204350000Y-125175000D03*
X203390000Y-125175000D03*
%TD*%
D26*
%TO.C,TP12*%
X240100000Y-85400000D03*
%TD*%
D27*
%TO.C,REF\u002A\u002A*%
X177800000Y-73475000D03*
%TD*%
D28*
%TO.C,J11*%
X207100000Y-129675000D03*
%TD*%
D17*
%TO.C,RV1*%
X183900000Y-136325000D03*
X180900000Y-124025000D03*
X183900000Y-126325000D03*
%TD*%
D29*
%TO.C,L1*%
X219300000Y-120037500D03*
X219300000Y-124312500D03*
%TD*%
D30*
%TO.C,U2*%
X212837500Y-123725000D03*
X212837500Y-122775000D03*
X212837500Y-121825000D03*
X210562500Y-121825000D03*
X210562500Y-123725000D03*
%TD*%
D24*
%TO.C,C4*%
X207200000Y-123795000D03*
X207200000Y-124755000D03*
%TD*%
D25*
%TO.C,R14*%
X222900000Y-50475000D03*
X222900000Y-52125000D03*
%TD*%
D31*
%TO.C,J1*%
X198100000Y-134775000D03*
X200640000Y-137315000D03*
X200640000Y-132235000D03*
X195560000Y-137315000D03*
X195560000Y-132235000D03*
%TD*%
D32*
%TO.C,D8*%
X236250000Y-51975000D03*
X234150000Y-51975000D03*
%TD*%
D20*
%TO.C,J8*%
X190400000Y-123675000D03*
%TD*%
D26*
%TO.C,TP2*%
X228600000Y-85500000D03*
%TD*%
D33*
%TO.C,C14*%
X227150000Y-45550000D03*
X227150000Y-47450000D03*
%TD*%
D34*
%TO.C,KiKit_FID_T_1*%
X180100000Y-22500000D03*
%TD*%
D25*
%TO.C,R8*%
X211650000Y-28450000D03*
X211650000Y-30100000D03*
%TD*%
D21*
%TO.C,R3*%
X205025000Y-120075000D03*
X203375000Y-120075000D03*
%TD*%
D34*
%TO.C,KiKit_FID_T_3*%
X180100000Y-142300000D03*
%TD*%
D21*
%TO.C,R24*%
X197750000Y-35025000D03*
X196100000Y-35025000D03*
%TD*%
D35*
%TO.C,U4*%
X235000000Y-86050000D03*
X235500000Y-86050000D03*
X236000000Y-86050000D03*
X236500000Y-86050000D03*
X237000000Y-86050000D03*
X237000000Y-82950000D03*
X236500000Y-82950000D03*
X236000000Y-82950000D03*
X235500000Y-82950000D03*
X235000000Y-82950000D03*
D36*
X236000000Y-84500000D03*
%TD*%
D25*
%TO.C,R10*%
X236300000Y-48475000D03*
X236300000Y-50125000D03*
%TD*%
D21*
%TO.C,R9*%
X233225000Y-82200000D03*
X231575000Y-82200000D03*
%TD*%
D27*
%TO.C,REF\u002A\u002A*%
X219800000Y-73475000D03*
%TD*%
D30*
%TO.C,U1*%
X205637500Y-123725000D03*
X205637500Y-122775000D03*
X205637500Y-121825000D03*
X203362500Y-121825000D03*
X203362500Y-123725000D03*
%TD*%
D21*
%TO.C,R5*%
X200400000Y-122375000D03*
X198750000Y-122375000D03*
%TD*%
D37*
%TO.C,J4*%
X224109483Y-32535000D03*
X223609483Y-32535000D03*
X223109483Y-32535000D03*
X222609483Y-32535000D03*
X222109483Y-32535000D03*
X221609483Y-32535000D03*
X220609483Y-32535000D03*
X220109483Y-32535000D03*
X219609483Y-32535000D03*
X219109483Y-32535000D03*
X218609483Y-32535000D03*
X218109483Y-32535000D03*
D38*
X218009483Y-31235000D03*
D37*
X218859483Y-31235000D03*
X219359483Y-31235000D03*
X219859483Y-31235000D03*
X220359483Y-31235000D03*
X220859483Y-31235000D03*
X221359483Y-31235000D03*
X221859483Y-31235000D03*
X222359483Y-31235000D03*
X222859483Y-31235000D03*
X223359483Y-31235000D03*
D38*
X224209483Y-31235000D03*
D39*
X225429483Y-32125000D03*
D40*
X225429483Y-26765000D03*
D39*
X216789483Y-32125000D03*
D40*
X216789483Y-26765000D03*
%TD*%
D41*
%TO.C,R12*%
X234600000Y-50125000D03*
X234600000Y-48475000D03*
%TD*%
D42*
%TO.C,Q1*%
X232300000Y-47500000D03*
D43*
X230800000Y-47587500D03*
D42*
X229300000Y-47500000D03*
%TD*%
D28*
%TO.C,J9*%
X207900000Y-117675000D03*
%TD*%
D21*
%TO.C,R6*%
X208925000Y-120075000D03*
X207275000Y-120075000D03*
%TD*%
D44*
%TO.C,J3*%
X234600000Y-38775000D03*
D45*
X234600000Y-32775000D03*
D46*
X229900000Y-35775000D03*
%TD*%
D21*
%TO.C,R7*%
X218425000Y-127453355D03*
X216775000Y-127453355D03*
%TD*%
D47*
%TO.C,U8*%
X197275000Y-29470000D03*
X197275000Y-30740000D03*
X197275000Y-32010000D03*
X197275000Y-33280000D03*
X202225000Y-33280000D03*
X202225000Y-32010000D03*
X202225000Y-30740000D03*
X202225000Y-29470000D03*
%TD*%
D48*
%TO.C,C9*%
X232200000Y-85850000D03*
X232200000Y-83950000D03*
%TD*%
D34*
%TO.C,KiKit_FID_T_2*%
X239900000Y-22500000D03*
%TD*%
D18*
%TO.C,KiKit_TO_1*%
X172600000Y-22500000D03*
%TD*%
%TO.C,KiKit_TO_2*%
X247400000Y-22500000D03*
%TD*%
D49*
%TO.C,F2*%
X231000000Y-42775000D03*
X231000000Y-45575000D03*
%TD*%
D50*
%TO.C,C1*%
X198920000Y-127453355D03*
X199880000Y-127453355D03*
%TD*%
D51*
%TO.C,C22*%
X207200000Y-122755000D03*
X207200000Y-121795000D03*
%TD*%
D52*
%TO.C,D2*%
X194600000Y-29625000D03*
X194600000Y-33125000D03*
%TD*%
D49*
%TO.C,F1*%
X234600000Y-42775000D03*
X234600000Y-45575000D03*
%TD*%
D41*
%TO.C,R21*%
X208125000Y-30125000D03*
X208125000Y-28475000D03*
%TD*%
D19*
%TO.C,R19*%
X204250000Y-31725000D03*
X205900000Y-31725000D03*
%TD*%
D26*
%TO.C,BT1*%
X181300000Y-110975000D03*
D53*
X198700000Y-102775000D03*
D54*
X216200000Y-102675000D03*
X181200000Y-47475000D03*
D53*
X198700000Y-47375000D03*
D55*
X189150000Y-111250000D03*
X189150000Y-38900000D03*
X208250000Y-111250000D03*
X208250000Y-38900000D03*
%TD*%
D19*
%TO.C,R26*%
X200125000Y-119175000D03*
X201775000Y-119175000D03*
%TD*%
D56*
%TO.C,D7*%
X238000000Y-50325000D03*
X238000000Y-48225000D03*
%TD*%
D21*
%TO.C,R4*%
X212125000Y-120075000D03*
X210475000Y-120075000D03*
%TD*%
D19*
%TO.C,R18*%
X204250000Y-33275000D03*
X205900000Y-33275000D03*
%TD*%
D21*
%TO.C,R23*%
X200650000Y-27625000D03*
X199000000Y-27625000D03*
%TD*%
D57*
%TO.C,U6*%
X225200000Y-45500000D03*
X224700000Y-45500000D03*
X224200000Y-45500000D03*
X223700000Y-45500000D03*
X223200000Y-45500000D03*
X223200000Y-48400000D03*
X223700000Y-48400000D03*
X224200000Y-48400000D03*
X224700000Y-48400000D03*
X225200000Y-48400000D03*
D58*
X224200000Y-46950000D03*
%TD*%
D21*
%TO.C,R15*%
X200400000Y-120775000D03*
X198750000Y-120775000D03*
%TD*%
D59*
%TO.C,R2*%
X199587500Y-125689470D03*
X200412500Y-124260530D03*
%TD*%
D51*
%TO.C,C25*%
X214400000Y-122755000D03*
X214400000Y-121795000D03*
%TD*%
D26*
%TO.C,TP1*%
X232000000Y-77475000D03*
%TD*%
D31*
%TO.C,J2*%
X216100000Y-134735000D03*
X218640000Y-137275000D03*
X218640000Y-132195000D03*
X213560000Y-137275000D03*
X213560000Y-132195000D03*
%TD*%
D26*
%TO.C,TP21*%
X226000000Y-35000000D03*
%TD*%
%LPD*%
M02*
