%TF.GenerationSoftware,KiCad,Pcbnew,9.0.2+dfsg-1*%
%TF.CreationDate,2025-07-12T21:44:10+01:00*%
%TF.ProjectId,low-noise-power-probe-panel,6c6f772d-6e6f-4697-9365-2d706f776572,rev?*%
%TF.SameCoordinates,Original*%
%TF.FileFunction,Paste,Bot*%
%TF.FilePolarity,Positive*%
%FSLAX46Y46*%
G04 Gerber Fmt 4.6, Leading zero omitted, Abs format (unit mm)*
G04 Created by KiCad (PCBNEW 9.0.2+dfsg-1) date 2025-07-12 21:44:10*
%MOMM*%
%LPD*%
G01*
G04 APERTURE LIST*
G04 Aperture macros list*
%AMRoundRect*
0 Rectangle with rounded corners*
0 $1 Rounding radius*
0 $2 $3 $4 $5 $6 $7 $8 $9 X,Y pos of 4 corners*
0 Add a 4 corners polygon primitive as box body*
4,1,4,$2,$3,$4,$5,$6,$7,$8,$9,$2,$3,0*
0 Add four circle primitives for the rounded corners*
1,1,$1+$1,$2,$3*
1,1,$1+$1,$4,$5*
1,1,$1+$1,$6,$7*
1,1,$1+$1,$8,$9*
0 Add four rect primitives between the rounded corners*
20,1,$1+$1,$2,$3,$4,$5,0*
20,1,$1+$1,$4,$5,$6,$7,0*
20,1,$1+$1,$6,$7,$8,$9,0*
20,1,$1+$1,$8,$9,$2,$3,0*%
G04 Aperture macros list end*
%ADD10RoundRect,0.200000X-0.275000X0.200000X-0.275000X-0.200000X0.275000X-0.200000X0.275000X0.200000X0*%
%ADD11RoundRect,0.150000X-0.587500X-0.150000X0.587500X-0.150000X0.587500X0.150000X-0.587500X0.150000X0*%
%ADD12RoundRect,0.250000X-0.250000X-0.475000X0.250000X-0.475000X0.250000X0.475000X-0.250000X0.475000X0*%
%ADD13RoundRect,0.150000X-0.150000X0.512500X-0.150000X-0.512500X0.150000X-0.512500X0.150000X0.512500X0*%
%ADD14RoundRect,0.150000X-0.150000X0.725000X-0.150000X-0.725000X0.150000X-0.725000X0.150000X0.725000X0*%
%ADD15RoundRect,0.200000X-0.200000X-0.275000X0.200000X-0.275000X0.200000X0.275000X-0.200000X0.275000X0*%
%ADD16RoundRect,0.140000X0.170000X-0.140000X0.170000X0.140000X-0.170000X0.140000X-0.170000X-0.140000X0*%
%ADD17RoundRect,0.218750X-0.218750X-0.256250X0.218750X-0.256250X0.218750X0.256250X-0.218750X0.256250X0*%
%ADD18RoundRect,0.140000X-0.170000X0.140000X-0.170000X-0.140000X0.170000X-0.140000X0.170000X0.140000X0*%
%ADD19RoundRect,0.250000X-0.475000X0.250000X-0.475000X-0.250000X0.475000X-0.250000X0.475000X0.250000X0*%
%ADD20RoundRect,0.250000X0.625000X-0.375000X0.625000X0.375000X-0.625000X0.375000X-0.625000X-0.375000X0*%
%ADD21RoundRect,0.250000X0.375000X0.625000X-0.375000X0.625000X-0.375000X-0.625000X0.375000X-0.625000X0*%
%ADD22RoundRect,0.140000X-0.140000X-0.170000X0.140000X-0.170000X0.140000X0.170000X-0.140000X0.170000X0*%
%ADD23RoundRect,0.242500X0.422500X0.242500X-0.422500X0.242500X-0.422500X-0.242500X0.422500X-0.242500X0*%
%ADD24RoundRect,0.087500X0.337500X0.087500X-0.337500X0.087500X-0.337500X-0.087500X0.337500X-0.087500X0*%
%ADD25R,0.600000X0.450000*%
%ADD26R,0.450000X0.600000*%
%ADD27R,0.300000X0.520000*%
%ADD28RoundRect,0.140000X0.140000X0.170000X-0.140000X0.170000X-0.140000X-0.170000X0.140000X-0.170000X0*%
%ADD29RoundRect,0.200000X0.200000X0.275000X-0.200000X0.275000X-0.200000X-0.275000X0.200000X-0.275000X0*%
%ADD30RoundRect,0.250000X0.475000X-0.250000X0.475000X0.250000X-0.475000X0.250000X-0.475000X-0.250000X0*%
%ADD31RoundRect,0.200000X0.275000X-0.200000X0.275000X0.200000X-0.275000X0.200000X-0.275000X-0.200000X0*%
%ADD32RoundRect,0.218750X0.256250X-0.218750X0.256250X0.218750X-0.256250X0.218750X-0.256250X-0.218750X0*%
G04 APERTURE END LIST*
D10*
%TO.C,R33*%
X169600000Y-100035000D03*
X169600000Y-101685000D03*
%TD*%
D11*
%TO.C,Q2*%
X244400000Y-100885000D03*
X244400000Y-98985000D03*
X246275000Y-99935000D03*
%TD*%
D12*
%TO.C,C5*%
X167150000Y-114375000D03*
X169050000Y-114375000D03*
%TD*%
D13*
%TO.C,U5*%
X177925000Y-117562500D03*
X178875000Y-117562500D03*
X179825000Y-117562500D03*
X179825000Y-119837500D03*
X177925000Y-119837500D03*
%TD*%
D14*
%TO.C,U7*%
X269395000Y-128525000D03*
X270665000Y-128525000D03*
X271935000Y-128525000D03*
X273205000Y-128525000D03*
X273205000Y-133675000D03*
X271935000Y-133675000D03*
X270665000Y-133675000D03*
X269395000Y-133675000D03*
%TD*%
D10*
%TO.C,R32*%
X172200000Y-100035000D03*
X172200000Y-101685000D03*
%TD*%
D15*
%TO.C,R27*%
X204175000Y-76475000D03*
X205825000Y-76475000D03*
%TD*%
D12*
%TO.C,C10*%
X247575000Y-114375000D03*
X249475000Y-114375000D03*
%TD*%
D16*
%TO.C,C17*%
X202900000Y-77985000D03*
X202900000Y-77025000D03*
%TD*%
%TO.C,C13*%
X176575000Y-119680000D03*
X176575000Y-118720000D03*
%TD*%
D15*
%TO.C,R34*%
X214975000Y-128515000D03*
X216625000Y-128515000D03*
%TD*%
D17*
%TO.C,D3*%
X143912500Y-138775000D03*
X145487500Y-138775000D03*
%TD*%
D18*
%TO.C,C18*%
X197500000Y-77015000D03*
X197500000Y-77975000D03*
%TD*%
D15*
%TO.C,R25*%
X145275000Y-130175000D03*
X146925000Y-130175000D03*
%TD*%
D19*
%TO.C,C12*%
X174775000Y-118050000D03*
X174775000Y-119950000D03*
%TD*%
D20*
%TO.C,F3*%
X224050000Y-107375000D03*
X224050000Y-104575000D03*
%TD*%
D15*
%TO.C,R28*%
X273875000Y-78075000D03*
X275525000Y-78075000D03*
%TD*%
D21*
%TO.C,F4*%
X168600000Y-38875000D03*
X165800000Y-38875000D03*
%TD*%
D15*
%TO.C,R17*%
X218275000Y-128525000D03*
X219925000Y-128525000D03*
%TD*%
D22*
%TO.C,C15*%
X264940000Y-76075000D03*
X265900000Y-76075000D03*
%TD*%
D13*
%TO.C,U5*%
X247625000Y-117562500D03*
X248575000Y-117562500D03*
X249525000Y-117562500D03*
X249525000Y-119837500D03*
X247625000Y-119837500D03*
%TD*%
D23*
%TO.C,U9*%
X200250000Y-78750000D03*
X200250000Y-77550000D03*
D24*
X201700000Y-77175000D03*
X201700000Y-77825000D03*
X201700000Y-78475000D03*
X201700000Y-79125000D03*
X198800000Y-79125000D03*
X198800000Y-78475000D03*
X198800000Y-77825000D03*
X198800000Y-77175000D03*
%TD*%
D25*
%TO.C,D15*%
X204250000Y-46175000D03*
X202150000Y-46175000D03*
%TD*%
D17*
%TO.C,D1*%
X241437500Y-26925000D03*
X243012500Y-26925000D03*
%TD*%
D25*
%TO.C,D15*%
X273950000Y-46175000D03*
X271850000Y-46175000D03*
%TD*%
D13*
%TO.C,U3*%
X236800000Y-117537500D03*
X237750000Y-117537500D03*
X238700000Y-117537500D03*
X238700000Y-119812500D03*
X236800000Y-119812500D03*
%TD*%
D16*
%TO.C,C17*%
X272600000Y-77985000D03*
X272600000Y-77025000D03*
%TD*%
D10*
%TO.C,R33*%
X239300000Y-100035000D03*
X239300000Y-101685000D03*
%TD*%
D26*
%TO.C,D10*%
X254050000Y-29375000D03*
X254050000Y-27275000D03*
%TD*%
D17*
%TO.C,D4*%
X151662500Y-138750000D03*
X153237500Y-138750000D03*
%TD*%
D12*
%TO.C,C5*%
X236850000Y-114375000D03*
X238750000Y-114375000D03*
%TD*%
D11*
%TO.C,Q3*%
X244400000Y-97325000D03*
X244400000Y-95425000D03*
X246275000Y-96375000D03*
%TD*%
D22*
%TO.C,C2*%
X200820000Y-80475000D03*
X201780000Y-80475000D03*
%TD*%
D27*
%TO.C,U10*%
X171500000Y-96585000D03*
X172000000Y-96585000D03*
X172500000Y-96585000D03*
X172500000Y-98465000D03*
X172000000Y-98465000D03*
X171500000Y-98465000D03*
%TD*%
D26*
%TO.C,D11*%
X188250000Y-29375000D03*
X188250000Y-27275000D03*
%TD*%
D15*
%TO.C,R29*%
X273875000Y-79675000D03*
X275525000Y-79675000D03*
%TD*%
D26*
%TO.C,D9*%
X257950000Y-34675000D03*
X257950000Y-36775000D03*
%TD*%
D23*
%TO.C,U9*%
X269950000Y-78750000D03*
X269950000Y-77550000D03*
D24*
X271400000Y-77175000D03*
X271400000Y-77825000D03*
X271400000Y-78475000D03*
X271400000Y-79125000D03*
X268500000Y-79125000D03*
X268500000Y-78475000D03*
X268500000Y-77825000D03*
X268500000Y-77175000D03*
%TD*%
D28*
%TO.C,C11*%
X248605000Y-115975000D03*
X247645000Y-115975000D03*
%TD*%
D10*
%TO.C,R31*%
X169900000Y-96675000D03*
X169900000Y-98325000D03*
%TD*%
D16*
%TO.C,C23*%
X170900000Y-100840000D03*
X170900000Y-99880000D03*
%TD*%
D29*
%TO.C,R16*%
X219975000Y-134125000D03*
X218325000Y-134125000D03*
%TD*%
D26*
%TO.C,D9*%
X188250000Y-34675000D03*
X188250000Y-36775000D03*
%TD*%
%TO.C,D12*%
X186300000Y-29375000D03*
X186300000Y-27275000D03*
%TD*%
D11*
%TO.C,Q3*%
X174700000Y-97325000D03*
X174700000Y-95425000D03*
X176575000Y-96375000D03*
%TD*%
D22*
%TO.C,C2*%
X270520000Y-80475000D03*
X271480000Y-80475000D03*
%TD*%
D26*
%TO.C,D11*%
X257950000Y-29375000D03*
X257950000Y-27275000D03*
%TD*%
D28*
%TO.C,C6*%
X168080000Y-115975000D03*
X167120000Y-115975000D03*
%TD*%
D22*
%TO.C,C15*%
X195240000Y-76075000D03*
X196200000Y-76075000D03*
%TD*%
D18*
%TO.C,C18*%
X267200000Y-77015000D03*
X267200000Y-77975000D03*
%TD*%
D15*
%TO.C,R29*%
X204175000Y-79675000D03*
X205825000Y-79675000D03*
%TD*%
D28*
%TO.C,C16*%
X275680000Y-75175000D03*
X274720000Y-75175000D03*
%TD*%
D25*
%TO.C,D13*%
X273950000Y-44175000D03*
X271850000Y-44175000D03*
%TD*%
D10*
%TO.C,R31*%
X239600000Y-96675000D03*
X239600000Y-98325000D03*
%TD*%
D30*
%TO.C,C7*%
X241850000Y-119950000D03*
X241850000Y-118050000D03*
%TD*%
D26*
%TO.C,D10*%
X184350000Y-29375000D03*
X184350000Y-27275000D03*
%TD*%
D20*
%TO.C,F3*%
X154350000Y-107375000D03*
X154350000Y-104575000D03*
%TD*%
D15*
%TO.C,R17*%
X148575000Y-128525000D03*
X150225000Y-128525000D03*
%TD*%
D11*
%TO.C,Q2*%
X174700000Y-100885000D03*
X174700000Y-98985000D03*
X176575000Y-99935000D03*
%TD*%
D26*
%TO.C,D12*%
X256000000Y-29375000D03*
X256000000Y-27275000D03*
%TD*%
D17*
%TO.C,D5*%
X246562500Y-26925000D03*
X248137500Y-26925000D03*
%TD*%
D29*
%TO.C,R11*%
X265925000Y-77375000D03*
X264275000Y-77375000D03*
%TD*%
D18*
%TO.C,C8*%
X170350000Y-118720000D03*
X170350000Y-119680000D03*
%TD*%
D29*
%TO.C,R30*%
X265925000Y-78975000D03*
X264275000Y-78975000D03*
%TD*%
D17*
%TO.C,D3*%
X213612500Y-138775000D03*
X215187500Y-138775000D03*
%TD*%
D30*
%TO.C,C7*%
X172150000Y-119950000D03*
X172150000Y-118050000D03*
%TD*%
D21*
%TO.C,F4*%
X238300000Y-38875000D03*
X235500000Y-38875000D03*
%TD*%
D14*
%TO.C,U7*%
X199695000Y-128525000D03*
X200965000Y-128525000D03*
X202235000Y-128525000D03*
X203505000Y-128525000D03*
X203505000Y-133675000D03*
X202235000Y-133675000D03*
X200965000Y-133675000D03*
X199695000Y-133675000D03*
%TD*%
D17*
%TO.C,D1*%
X171737500Y-26925000D03*
X173312500Y-26925000D03*
%TD*%
D10*
%TO.C,R32*%
X241900000Y-100035000D03*
X241900000Y-101685000D03*
%TD*%
D15*
%TO.C,R28*%
X204175000Y-78075000D03*
X205825000Y-78075000D03*
%TD*%
%TO.C,R27*%
X273875000Y-76475000D03*
X275525000Y-76475000D03*
%TD*%
D25*
%TO.C,D13*%
X204250000Y-44175000D03*
X202150000Y-44175000D03*
%TD*%
D19*
%TO.C,C12*%
X244475000Y-118050000D03*
X244475000Y-119950000D03*
%TD*%
D17*
%TO.C,D4*%
X221362500Y-138750000D03*
X222937500Y-138750000D03*
%TD*%
D16*
%TO.C,C13*%
X246275000Y-119680000D03*
X246275000Y-118720000D03*
%TD*%
D28*
%TO.C,C11*%
X178905000Y-115975000D03*
X177945000Y-115975000D03*
%TD*%
%TO.C,C16*%
X205980000Y-75175000D03*
X205020000Y-75175000D03*
%TD*%
D17*
%TO.C,D5*%
X176862500Y-26925000D03*
X178437500Y-26925000D03*
%TD*%
D16*
%TO.C,C23*%
X240600000Y-100840000D03*
X240600000Y-99880000D03*
%TD*%
D31*
%TO.C,R20*%
X267500000Y-131725000D03*
X267500000Y-130075000D03*
%TD*%
D16*
%TO.C,C20*%
X168300000Y-100840000D03*
X168300000Y-99880000D03*
%TD*%
%TO.C,C20*%
X238000000Y-100840000D03*
X238000000Y-99880000D03*
%TD*%
D18*
%TO.C,C8*%
X240050000Y-118720000D03*
X240050000Y-119680000D03*
%TD*%
D29*
%TO.C,R11*%
X196225000Y-77375000D03*
X194575000Y-77375000D03*
%TD*%
D32*
%TO.C,D6*%
X268600000Y-138937500D03*
X268600000Y-137362500D03*
%TD*%
D15*
%TO.C,R25*%
X214975000Y-130175000D03*
X216625000Y-130175000D03*
%TD*%
D13*
%TO.C,U3*%
X167100000Y-117537500D03*
X168050000Y-117537500D03*
X169000000Y-117537500D03*
X169000000Y-119812500D03*
X167100000Y-119812500D03*
%TD*%
D29*
%TO.C,R30*%
X196225000Y-78975000D03*
X194575000Y-78975000D03*
%TD*%
D31*
%TO.C,R20*%
X197800000Y-131725000D03*
X197800000Y-130075000D03*
%TD*%
D29*
%TO.C,R16*%
X150275000Y-134125000D03*
X148625000Y-134125000D03*
%TD*%
D12*
%TO.C,C10*%
X177875000Y-114375000D03*
X179775000Y-114375000D03*
%TD*%
D15*
%TO.C,R34*%
X145275000Y-128515000D03*
X146925000Y-128515000D03*
%TD*%
D27*
%TO.C,U10*%
X241200000Y-96585000D03*
X241700000Y-96585000D03*
X242200000Y-96585000D03*
X242200000Y-98465000D03*
X241700000Y-98465000D03*
X241200000Y-98465000D03*
%TD*%
D28*
%TO.C,C6*%
X237780000Y-115975000D03*
X236820000Y-115975000D03*
%TD*%
D32*
%TO.C,D6*%
X198900000Y-138937500D03*
X198900000Y-137362500D03*
%TD*%
M02*
