%TF.GenerationSoftware,KiCad,Pcbnew,9.0.2+dfsg-1*%
%TF.CreationDate,2025-07-12T21:44:13+01:00*%
%TF.ProjectId,low-noise-power-probe-panel,6c6f772d-6e6f-4697-9365-2d706f776572,rev?*%
%TF.SameCoordinates,Original*%
%TF.FileFunction,Drillmap*%
%TF.FilePolarity,Positive*%
%FSLAX45Y45*%
G04 Gerber Fmt 4.5, Leading zero omitted, Abs format (unit mm)*
G04 Created by KiCad (PCBNEW 9.0.2+dfsg-1) date 2025-07-12 21:44:13*
%MOMM*%
%LPD*%
G01*
G04 APERTURE LIST*
%ADD10C,0.100000*%
%ADD11C,0.200000*%
%ADD12C,0.150000*%
%ADD13C,0.320000*%
%ADD14C,0.350000*%
%ADD15C,0.450000*%
G04 APERTURE END LIST*
D10*
X28468775Y-14480000D02*
X28469875Y-14479973D01*
X13531225Y-2000000D02*
X13530124Y-2000027D01*
X28468773Y-2000000D02*
X13531227Y-2000000D01*
X13530027Y-2000124D02*
X13530000Y-2001225D01*
X28469875Y-2000027D02*
X28468775Y-2000000D01*
X28470000Y-2001225D02*
X28469973Y-2000124D01*
X13530000Y-14478775D02*
X13530027Y-14479875D01*
X28469973Y-14479875D02*
X28470000Y-14478775D01*
X13530000Y-2001227D02*
X13530000Y-14478773D01*
X13530124Y-14479973D02*
X13531225Y-14480000D01*
X28470000Y-14478773D02*
X28470000Y-2001227D01*
X13531227Y-14480000D02*
X28468773Y-14480000D01*
D11*
D12*
X13705000Y-2175000D02*
X13855000Y-2325000D01*
X13855000Y-2175000D02*
X13705000Y-2325000D01*
X13705000Y-14155000D02*
X13855000Y-14305000D01*
X13855000Y-14155000D02*
X13705000Y-14305000D01*
X28145000Y-2175000D02*
X28295000Y-2325000D01*
X28295000Y-2175000D02*
X28145000Y-2325000D01*
D11*
X14750000Y-11097500D02*
G75*
G02*
X14550000Y-11097500I-100000J0D01*
G01*
X14550000Y-11097500D02*
G75*
G02*
X14750000Y-11097500I100000J0D01*
G01*
X21720000Y-11097500D02*
G75*
G02*
X21520000Y-11097500I-100000J0D01*
G01*
X21520000Y-11097500D02*
G75*
G02*
X21720000Y-11097500I100000J0D01*
G01*
D13*
X14300000Y-7187500D02*
X14300000Y-7507500D01*
X14140000Y-7347500D02*
X14460000Y-7347500D01*
X18500000Y-7187500D02*
X18500000Y-7507500D01*
X18340000Y-7347500D02*
X18660000Y-7347500D01*
X21270000Y-7187500D02*
X21270000Y-7507500D01*
X21110000Y-7347500D02*
X21430000Y-7347500D01*
X25470000Y-7187500D02*
X25470000Y-7507500D01*
X25310000Y-7347500D02*
X25630000Y-7347500D01*
D14*
X16513745Y-4861245D02*
X16513745Y-4613755D01*
X16266255Y-4613755D01*
X16266255Y-4861245D01*
X16513745Y-4861245D01*
X16513745Y-10401245D02*
X16513745Y-10153755D01*
X16266255Y-10153755D01*
X16266255Y-10401245D01*
X16513745Y-10401245D01*
X23483745Y-4861245D02*
X23483745Y-4613755D01*
X23236255Y-4613755D01*
X23236255Y-4861245D01*
X23483745Y-4861245D01*
X23483745Y-10401245D02*
X23483745Y-10153755D01*
X23236255Y-10153755D01*
X23236255Y-10401245D01*
X23483745Y-10401245D01*
D15*
X14640000Y-4972500D02*
X14865000Y-4747500D01*
X14640000Y-4522500D01*
X14415000Y-4747500D01*
X14640000Y-4972500D01*
X18140000Y-10492500D02*
X18365000Y-10267500D01*
X18140000Y-10042500D01*
X17915000Y-10267500D01*
X18140000Y-10492500D01*
X21610000Y-4972500D02*
X21835000Y-4747500D01*
X21610000Y-4522500D01*
X21385000Y-4747500D01*
X21610000Y-4972500D01*
X25110000Y-10492500D02*
X25335000Y-10267500D01*
X25110000Y-10042500D01*
X24885000Y-10267500D01*
X25110000Y-10492500D01*
D11*
X13785777Y-14796484D02*
X13785777Y-14596484D01*
X13785777Y-14596484D02*
X13833396Y-14596484D01*
X13833396Y-14596484D02*
X13861967Y-14606008D01*
X13861967Y-14606008D02*
X13881015Y-14625055D01*
X13881015Y-14625055D02*
X13890539Y-14644103D01*
X13890539Y-14644103D02*
X13900062Y-14682198D01*
X13900062Y-14682198D02*
X13900062Y-14710769D01*
X13900062Y-14710769D02*
X13890539Y-14748865D01*
X13890539Y-14748865D02*
X13881015Y-14767912D01*
X13881015Y-14767912D02*
X13861967Y-14786960D01*
X13861967Y-14786960D02*
X13833396Y-14796484D01*
X13833396Y-14796484D02*
X13785777Y-14796484D01*
X13985777Y-14796484D02*
X13985777Y-14663150D01*
X13985777Y-14701246D02*
X13995301Y-14682198D01*
X13995301Y-14682198D02*
X14004824Y-14672674D01*
X14004824Y-14672674D02*
X14023872Y-14663150D01*
X14023872Y-14663150D02*
X14042920Y-14663150D01*
X14109586Y-14796484D02*
X14109586Y-14663150D01*
X14109586Y-14596484D02*
X14100062Y-14606008D01*
X14100062Y-14606008D02*
X14109586Y-14615531D01*
X14109586Y-14615531D02*
X14119110Y-14606008D01*
X14119110Y-14606008D02*
X14109586Y-14596484D01*
X14109586Y-14596484D02*
X14109586Y-14615531D01*
X14233396Y-14796484D02*
X14214348Y-14786960D01*
X14214348Y-14786960D02*
X14204824Y-14767912D01*
X14204824Y-14767912D02*
X14204824Y-14596484D01*
X14338158Y-14796484D02*
X14319110Y-14786960D01*
X14319110Y-14786960D02*
X14309586Y-14767912D01*
X14309586Y-14767912D02*
X14309586Y-14596484D01*
X14566729Y-14796484D02*
X14566729Y-14596484D01*
X14566729Y-14596484D02*
X14633396Y-14739341D01*
X14633396Y-14739341D02*
X14700062Y-14596484D01*
X14700062Y-14596484D02*
X14700062Y-14796484D01*
X14881015Y-14796484D02*
X14881015Y-14691722D01*
X14881015Y-14691722D02*
X14871491Y-14672674D01*
X14871491Y-14672674D02*
X14852443Y-14663150D01*
X14852443Y-14663150D02*
X14814348Y-14663150D01*
X14814348Y-14663150D02*
X14795301Y-14672674D01*
X14881015Y-14786960D02*
X14861967Y-14796484D01*
X14861967Y-14796484D02*
X14814348Y-14796484D01*
X14814348Y-14796484D02*
X14795301Y-14786960D01*
X14795301Y-14786960D02*
X14785777Y-14767912D01*
X14785777Y-14767912D02*
X14785777Y-14748865D01*
X14785777Y-14748865D02*
X14795301Y-14729817D01*
X14795301Y-14729817D02*
X14814348Y-14720293D01*
X14814348Y-14720293D02*
X14861967Y-14720293D01*
X14861967Y-14720293D02*
X14881015Y-14710769D01*
X14976253Y-14663150D02*
X14976253Y-14863150D01*
X14976253Y-14672674D02*
X14995301Y-14663150D01*
X14995301Y-14663150D02*
X15033396Y-14663150D01*
X15033396Y-14663150D02*
X15052443Y-14672674D01*
X15052443Y-14672674D02*
X15061967Y-14682198D01*
X15061967Y-14682198D02*
X15071491Y-14701246D01*
X15071491Y-14701246D02*
X15071491Y-14758388D01*
X15071491Y-14758388D02*
X15061967Y-14777436D01*
X15061967Y-14777436D02*
X15052443Y-14786960D01*
X15052443Y-14786960D02*
X15033396Y-14796484D01*
X15033396Y-14796484D02*
X14995301Y-14796484D01*
X14995301Y-14796484D02*
X14976253Y-14786960D01*
X15157205Y-14777436D02*
X15166729Y-14786960D01*
X15166729Y-14786960D02*
X15157205Y-14796484D01*
X15157205Y-14796484D02*
X15147682Y-14786960D01*
X15147682Y-14786960D02*
X15157205Y-14777436D01*
X15157205Y-14777436D02*
X15157205Y-14796484D01*
X15157205Y-14672674D02*
X15166729Y-14682198D01*
X15166729Y-14682198D02*
X15157205Y-14691722D01*
X15157205Y-14691722D02*
X15147682Y-14682198D01*
X15147682Y-14682198D02*
X15157205Y-14672674D01*
X15157205Y-14672674D02*
X15157205Y-14691722D01*
D12*
X13375000Y-15050000D02*
X13525000Y-15200000D01*
X13525000Y-15050000D02*
X13375000Y-15200000D01*
D11*
X13890539Y-15216484D02*
X13776253Y-15216484D01*
X13833396Y-15216484D02*
X13833396Y-15016484D01*
X13833396Y-15016484D02*
X13814348Y-15045055D01*
X13814348Y-15045055D02*
X13795301Y-15064103D01*
X13795301Y-15064103D02*
X13776253Y-15073627D01*
X13976253Y-15197436D02*
X13985777Y-15206960D01*
X13985777Y-15206960D02*
X13976253Y-15216484D01*
X13976253Y-15216484D02*
X13966729Y-15206960D01*
X13966729Y-15206960D02*
X13976253Y-15197436D01*
X13976253Y-15197436D02*
X13976253Y-15216484D01*
X14166729Y-15016484D02*
X14071491Y-15016484D01*
X14071491Y-15016484D02*
X14061967Y-15111722D01*
X14061967Y-15111722D02*
X14071491Y-15102198D01*
X14071491Y-15102198D02*
X14090539Y-15092674D01*
X14090539Y-15092674D02*
X14138158Y-15092674D01*
X14138158Y-15092674D02*
X14157205Y-15102198D01*
X14157205Y-15102198D02*
X14166729Y-15111722D01*
X14166729Y-15111722D02*
X14176253Y-15130769D01*
X14176253Y-15130769D02*
X14176253Y-15178388D01*
X14176253Y-15178388D02*
X14166729Y-15197436D01*
X14166729Y-15197436D02*
X14157205Y-15206960D01*
X14157205Y-15206960D02*
X14138158Y-15216484D01*
X14138158Y-15216484D02*
X14090539Y-15216484D01*
X14090539Y-15216484D02*
X14071491Y-15206960D01*
X14071491Y-15206960D02*
X14061967Y-15197436D01*
X14300062Y-15016484D02*
X14319110Y-15016484D01*
X14319110Y-15016484D02*
X14338158Y-15026008D01*
X14338158Y-15026008D02*
X14347682Y-15035531D01*
X14347682Y-15035531D02*
X14357205Y-15054579D01*
X14357205Y-15054579D02*
X14366729Y-15092674D01*
X14366729Y-15092674D02*
X14366729Y-15140293D01*
X14366729Y-15140293D02*
X14357205Y-15178388D01*
X14357205Y-15178388D02*
X14347682Y-15197436D01*
X14347682Y-15197436D02*
X14338158Y-15206960D01*
X14338158Y-15206960D02*
X14319110Y-15216484D01*
X14319110Y-15216484D02*
X14300062Y-15216484D01*
X14300062Y-15216484D02*
X14281015Y-15206960D01*
X14281015Y-15206960D02*
X14271491Y-15197436D01*
X14271491Y-15197436D02*
X14261967Y-15178388D01*
X14261967Y-15178388D02*
X14252443Y-15140293D01*
X14252443Y-15140293D02*
X14252443Y-15092674D01*
X14252443Y-15092674D02*
X14261967Y-15054579D01*
X14261967Y-15054579D02*
X14271491Y-15035531D01*
X14271491Y-15035531D02*
X14281015Y-15026008D01*
X14281015Y-15026008D02*
X14300062Y-15016484D01*
X14490539Y-15016484D02*
X14509586Y-15016484D01*
X14509586Y-15016484D02*
X14528634Y-15026008D01*
X14528634Y-15026008D02*
X14538158Y-15035531D01*
X14538158Y-15035531D02*
X14547682Y-15054579D01*
X14547682Y-15054579D02*
X14557205Y-15092674D01*
X14557205Y-15092674D02*
X14557205Y-15140293D01*
X14557205Y-15140293D02*
X14547682Y-15178388D01*
X14547682Y-15178388D02*
X14538158Y-15197436D01*
X14538158Y-15197436D02*
X14528634Y-15206960D01*
X14528634Y-15206960D02*
X14509586Y-15216484D01*
X14509586Y-15216484D02*
X14490539Y-15216484D01*
X14490539Y-15216484D02*
X14471491Y-15206960D01*
X14471491Y-15206960D02*
X14461967Y-15197436D01*
X14461967Y-15197436D02*
X14452443Y-15178388D01*
X14452443Y-15178388D02*
X14442920Y-15140293D01*
X14442920Y-15140293D02*
X14442920Y-15092674D01*
X14442920Y-15092674D02*
X14452443Y-15054579D01*
X14452443Y-15054579D02*
X14461967Y-15035531D01*
X14461967Y-15035531D02*
X14471491Y-15026008D01*
X14471491Y-15026008D02*
X14490539Y-15016484D01*
X14642920Y-15216484D02*
X14642920Y-15083150D01*
X14642920Y-15102198D02*
X14652443Y-15092674D01*
X14652443Y-15092674D02*
X14671491Y-15083150D01*
X14671491Y-15083150D02*
X14700063Y-15083150D01*
X14700063Y-15083150D02*
X14719110Y-15092674D01*
X14719110Y-15092674D02*
X14728634Y-15111722D01*
X14728634Y-15111722D02*
X14728634Y-15216484D01*
X14728634Y-15111722D02*
X14738158Y-15092674D01*
X14738158Y-15092674D02*
X14757205Y-15083150D01*
X14757205Y-15083150D02*
X14785777Y-15083150D01*
X14785777Y-15083150D02*
X14804824Y-15092674D01*
X14804824Y-15092674D02*
X14814348Y-15111722D01*
X14814348Y-15111722D02*
X14814348Y-15216484D01*
X14909586Y-15216484D02*
X14909586Y-15083150D01*
X14909586Y-15102198D02*
X14919110Y-15092674D01*
X14919110Y-15092674D02*
X14938158Y-15083150D01*
X14938158Y-15083150D02*
X14966729Y-15083150D01*
X14966729Y-15083150D02*
X14985777Y-15092674D01*
X14985777Y-15092674D02*
X14995301Y-15111722D01*
X14995301Y-15111722D02*
X14995301Y-15216484D01*
X14995301Y-15111722D02*
X15004824Y-15092674D01*
X15004824Y-15092674D02*
X15023872Y-15083150D01*
X15023872Y-15083150D02*
X15052443Y-15083150D01*
X15052443Y-15083150D02*
X15071491Y-15092674D01*
X15071491Y-15092674D02*
X15081015Y-15111722D01*
X15081015Y-15111722D02*
X15081015Y-15216484D01*
X15471491Y-15006960D02*
X15300063Y-15264103D01*
X15728634Y-15016484D02*
X15747682Y-15016484D01*
X15747682Y-15016484D02*
X15766729Y-15026008D01*
X15766729Y-15026008D02*
X15776253Y-15035531D01*
X15776253Y-15035531D02*
X15785777Y-15054579D01*
X15785777Y-15054579D02*
X15795301Y-15092674D01*
X15795301Y-15092674D02*
X15795301Y-15140293D01*
X15795301Y-15140293D02*
X15785777Y-15178388D01*
X15785777Y-15178388D02*
X15776253Y-15197436D01*
X15776253Y-15197436D02*
X15766729Y-15206960D01*
X15766729Y-15206960D02*
X15747682Y-15216484D01*
X15747682Y-15216484D02*
X15728634Y-15216484D01*
X15728634Y-15216484D02*
X15709586Y-15206960D01*
X15709586Y-15206960D02*
X15700063Y-15197436D01*
X15700063Y-15197436D02*
X15690539Y-15178388D01*
X15690539Y-15178388D02*
X15681015Y-15140293D01*
X15681015Y-15140293D02*
X15681015Y-15092674D01*
X15681015Y-15092674D02*
X15690539Y-15054579D01*
X15690539Y-15054579D02*
X15700063Y-15035531D01*
X15700063Y-15035531D02*
X15709586Y-15026008D01*
X15709586Y-15026008D02*
X15728634Y-15016484D01*
X15881015Y-15197436D02*
X15890539Y-15206960D01*
X15890539Y-15206960D02*
X15881015Y-15216484D01*
X15881015Y-15216484D02*
X15871491Y-15206960D01*
X15871491Y-15206960D02*
X15881015Y-15197436D01*
X15881015Y-15197436D02*
X15881015Y-15216484D01*
X16014348Y-15016484D02*
X16033396Y-15016484D01*
X16033396Y-15016484D02*
X16052444Y-15026008D01*
X16052444Y-15026008D02*
X16061967Y-15035531D01*
X16061967Y-15035531D02*
X16071491Y-15054579D01*
X16071491Y-15054579D02*
X16081015Y-15092674D01*
X16081015Y-15092674D02*
X16081015Y-15140293D01*
X16081015Y-15140293D02*
X16071491Y-15178388D01*
X16071491Y-15178388D02*
X16061967Y-15197436D01*
X16061967Y-15197436D02*
X16052444Y-15206960D01*
X16052444Y-15206960D02*
X16033396Y-15216484D01*
X16033396Y-15216484D02*
X16014348Y-15216484D01*
X16014348Y-15216484D02*
X15995301Y-15206960D01*
X15995301Y-15206960D02*
X15985777Y-15197436D01*
X15985777Y-15197436D02*
X15976253Y-15178388D01*
X15976253Y-15178388D02*
X15966729Y-15140293D01*
X15966729Y-15140293D02*
X15966729Y-15092674D01*
X15966729Y-15092674D02*
X15976253Y-15054579D01*
X15976253Y-15054579D02*
X15985777Y-15035531D01*
X15985777Y-15035531D02*
X15995301Y-15026008D01*
X15995301Y-15026008D02*
X16014348Y-15016484D01*
X16261967Y-15016484D02*
X16166729Y-15016484D01*
X16166729Y-15016484D02*
X16157206Y-15111722D01*
X16157206Y-15111722D02*
X16166729Y-15102198D01*
X16166729Y-15102198D02*
X16185777Y-15092674D01*
X16185777Y-15092674D02*
X16233396Y-15092674D01*
X16233396Y-15092674D02*
X16252444Y-15102198D01*
X16252444Y-15102198D02*
X16261967Y-15111722D01*
X16261967Y-15111722D02*
X16271491Y-15130769D01*
X16271491Y-15130769D02*
X16271491Y-15178388D01*
X16271491Y-15178388D02*
X16261967Y-15197436D01*
X16261967Y-15197436D02*
X16252444Y-15206960D01*
X16252444Y-15206960D02*
X16233396Y-15216484D01*
X16233396Y-15216484D02*
X16185777Y-15216484D01*
X16185777Y-15216484D02*
X16166729Y-15206960D01*
X16166729Y-15206960D02*
X16157206Y-15197436D01*
X16366729Y-15216484D02*
X16404825Y-15216484D01*
X16404825Y-15216484D02*
X16423872Y-15206960D01*
X16423872Y-15206960D02*
X16433396Y-15197436D01*
X16433396Y-15197436D02*
X16452444Y-15168865D01*
X16452444Y-15168865D02*
X16461967Y-15130769D01*
X16461967Y-15130769D02*
X16461967Y-15054579D01*
X16461967Y-15054579D02*
X16452444Y-15035531D01*
X16452444Y-15035531D02*
X16442920Y-15026008D01*
X16442920Y-15026008D02*
X16423872Y-15016484D01*
X16423872Y-15016484D02*
X16385777Y-15016484D01*
X16385777Y-15016484D02*
X16366729Y-15026008D01*
X16366729Y-15026008D02*
X16357206Y-15035531D01*
X16357206Y-15035531D02*
X16347682Y-15054579D01*
X16347682Y-15054579D02*
X16347682Y-15102198D01*
X16347682Y-15102198D02*
X16357206Y-15121246D01*
X16357206Y-15121246D02*
X16366729Y-15130769D01*
X16366729Y-15130769D02*
X16385777Y-15140293D01*
X16385777Y-15140293D02*
X16423872Y-15140293D01*
X16423872Y-15140293D02*
X16442920Y-15130769D01*
X16442920Y-15130769D02*
X16452444Y-15121246D01*
X16452444Y-15121246D02*
X16461967Y-15102198D01*
X16652444Y-15216484D02*
X16538158Y-15216484D01*
X16595301Y-15216484D02*
X16595301Y-15016484D01*
X16595301Y-15016484D02*
X16576253Y-15045055D01*
X16576253Y-15045055D02*
X16557206Y-15064103D01*
X16557206Y-15064103D02*
X16538158Y-15073627D01*
X16728634Y-15016484D02*
X16728634Y-15054579D01*
X16804825Y-15016484D02*
X16804825Y-15054579D01*
X17100063Y-15292674D02*
X17090539Y-15283150D01*
X17090539Y-15283150D02*
X17071491Y-15254579D01*
X17071491Y-15254579D02*
X17061968Y-15235531D01*
X17061968Y-15235531D02*
X17052444Y-15206960D01*
X17052444Y-15206960D02*
X17042920Y-15159341D01*
X17042920Y-15159341D02*
X17042920Y-15121246D01*
X17042920Y-15121246D02*
X17052444Y-15073627D01*
X17052444Y-15073627D02*
X17061968Y-15045055D01*
X17061968Y-15045055D02*
X17071491Y-15026008D01*
X17071491Y-15026008D02*
X17090539Y-14997436D01*
X17090539Y-14997436D02*
X17100063Y-14987912D01*
X17157206Y-15016484D02*
X17281015Y-15016484D01*
X17281015Y-15016484D02*
X17214349Y-15092674D01*
X17214349Y-15092674D02*
X17242920Y-15092674D01*
X17242920Y-15092674D02*
X17261968Y-15102198D01*
X17261968Y-15102198D02*
X17271491Y-15111722D01*
X17271491Y-15111722D02*
X17281015Y-15130769D01*
X17281015Y-15130769D02*
X17281015Y-15178388D01*
X17281015Y-15178388D02*
X17271491Y-15197436D01*
X17271491Y-15197436D02*
X17261968Y-15206960D01*
X17261968Y-15206960D02*
X17242920Y-15216484D01*
X17242920Y-15216484D02*
X17185777Y-15216484D01*
X17185777Y-15216484D02*
X17166730Y-15206960D01*
X17166730Y-15206960D02*
X17157206Y-15197436D01*
X17519111Y-15216484D02*
X17519111Y-15016484D01*
X17604825Y-15216484D02*
X17604825Y-15111722D01*
X17604825Y-15111722D02*
X17595301Y-15092674D01*
X17595301Y-15092674D02*
X17576253Y-15083150D01*
X17576253Y-15083150D02*
X17547682Y-15083150D01*
X17547682Y-15083150D02*
X17528634Y-15092674D01*
X17528634Y-15092674D02*
X17519111Y-15102198D01*
X17728634Y-15216484D02*
X17709587Y-15206960D01*
X17709587Y-15206960D02*
X17700063Y-15197436D01*
X17700063Y-15197436D02*
X17690539Y-15178388D01*
X17690539Y-15178388D02*
X17690539Y-15121246D01*
X17690539Y-15121246D02*
X17700063Y-15102198D01*
X17700063Y-15102198D02*
X17709587Y-15092674D01*
X17709587Y-15092674D02*
X17728634Y-15083150D01*
X17728634Y-15083150D02*
X17757206Y-15083150D01*
X17757206Y-15083150D02*
X17776253Y-15092674D01*
X17776253Y-15092674D02*
X17785777Y-15102198D01*
X17785777Y-15102198D02*
X17795301Y-15121246D01*
X17795301Y-15121246D02*
X17795301Y-15178388D01*
X17795301Y-15178388D02*
X17785777Y-15197436D01*
X17785777Y-15197436D02*
X17776253Y-15206960D01*
X17776253Y-15206960D02*
X17757206Y-15216484D01*
X17757206Y-15216484D02*
X17728634Y-15216484D01*
X17909587Y-15216484D02*
X17890539Y-15206960D01*
X17890539Y-15206960D02*
X17881015Y-15187912D01*
X17881015Y-15187912D02*
X17881015Y-15016484D01*
X18061968Y-15206960D02*
X18042920Y-15216484D01*
X18042920Y-15216484D02*
X18004825Y-15216484D01*
X18004825Y-15216484D02*
X17985777Y-15206960D01*
X17985777Y-15206960D02*
X17976253Y-15187912D01*
X17976253Y-15187912D02*
X17976253Y-15111722D01*
X17976253Y-15111722D02*
X17985777Y-15092674D01*
X17985777Y-15092674D02*
X18004825Y-15083150D01*
X18004825Y-15083150D02*
X18042920Y-15083150D01*
X18042920Y-15083150D02*
X18061968Y-15092674D01*
X18061968Y-15092674D02*
X18071492Y-15111722D01*
X18071492Y-15111722D02*
X18071492Y-15130769D01*
X18071492Y-15130769D02*
X17976253Y-15149817D01*
X18147682Y-15206960D02*
X18166730Y-15216484D01*
X18166730Y-15216484D02*
X18204825Y-15216484D01*
X18204825Y-15216484D02*
X18223873Y-15206960D01*
X18223873Y-15206960D02*
X18233396Y-15187912D01*
X18233396Y-15187912D02*
X18233396Y-15178388D01*
X18233396Y-15178388D02*
X18223873Y-15159341D01*
X18223873Y-15159341D02*
X18204825Y-15149817D01*
X18204825Y-15149817D02*
X18176253Y-15149817D01*
X18176253Y-15149817D02*
X18157206Y-15140293D01*
X18157206Y-15140293D02*
X18147682Y-15121246D01*
X18147682Y-15121246D02*
X18147682Y-15111722D01*
X18147682Y-15111722D02*
X18157206Y-15092674D01*
X18157206Y-15092674D02*
X18176253Y-15083150D01*
X18176253Y-15083150D02*
X18204825Y-15083150D01*
X18204825Y-15083150D02*
X18223873Y-15092674D01*
X18300063Y-15292674D02*
X18309587Y-15283150D01*
X18309587Y-15283150D02*
X18328634Y-15254579D01*
X18328634Y-15254579D02*
X18338158Y-15235531D01*
X18338158Y-15235531D02*
X18347682Y-15206960D01*
X18347682Y-15206960D02*
X18357206Y-15159341D01*
X18357206Y-15159341D02*
X18357206Y-15121246D01*
X18357206Y-15121246D02*
X18347682Y-15073627D01*
X18347682Y-15073627D02*
X18338158Y-15045055D01*
X18338158Y-15045055D02*
X18328634Y-15026008D01*
X18328634Y-15026008D02*
X18309587Y-14997436D01*
X18309587Y-14997436D02*
X18300063Y-14987912D01*
X18661968Y-15292674D02*
X18652444Y-15283150D01*
X18652444Y-15283150D02*
X18633396Y-15254579D01*
X18633396Y-15254579D02*
X18623873Y-15235531D01*
X18623873Y-15235531D02*
X18614349Y-15206960D01*
X18614349Y-15206960D02*
X18604825Y-15159341D01*
X18604825Y-15159341D02*
X18604825Y-15121246D01*
X18604825Y-15121246D02*
X18614349Y-15073627D01*
X18614349Y-15073627D02*
X18623873Y-15045055D01*
X18623873Y-15045055D02*
X18633396Y-15026008D01*
X18633396Y-15026008D02*
X18652444Y-14997436D01*
X18652444Y-14997436D02*
X18661968Y-14987912D01*
X18738158Y-15083150D02*
X18738158Y-15216484D01*
X18738158Y-15102198D02*
X18747682Y-15092674D01*
X18747682Y-15092674D02*
X18766730Y-15083150D01*
X18766730Y-15083150D02*
X18795301Y-15083150D01*
X18795301Y-15083150D02*
X18814349Y-15092674D01*
X18814349Y-15092674D02*
X18823873Y-15111722D01*
X18823873Y-15111722D02*
X18823873Y-15216484D01*
X18947682Y-15216484D02*
X18928634Y-15206960D01*
X18928634Y-15206960D02*
X18919111Y-15197436D01*
X18919111Y-15197436D02*
X18909587Y-15178388D01*
X18909587Y-15178388D02*
X18909587Y-15121246D01*
X18909587Y-15121246D02*
X18919111Y-15102198D01*
X18919111Y-15102198D02*
X18928634Y-15092674D01*
X18928634Y-15092674D02*
X18947682Y-15083150D01*
X18947682Y-15083150D02*
X18976254Y-15083150D01*
X18976254Y-15083150D02*
X18995301Y-15092674D01*
X18995301Y-15092674D02*
X19004825Y-15102198D01*
X19004825Y-15102198D02*
X19014349Y-15121246D01*
X19014349Y-15121246D02*
X19014349Y-15178388D01*
X19014349Y-15178388D02*
X19004825Y-15197436D01*
X19004825Y-15197436D02*
X18995301Y-15206960D01*
X18995301Y-15206960D02*
X18976254Y-15216484D01*
X18976254Y-15216484D02*
X18947682Y-15216484D01*
X19071492Y-15083150D02*
X19147682Y-15083150D01*
X19100063Y-15016484D02*
X19100063Y-15187912D01*
X19100063Y-15187912D02*
X19109587Y-15206960D01*
X19109587Y-15206960D02*
X19128634Y-15216484D01*
X19128634Y-15216484D02*
X19147682Y-15216484D01*
X19366730Y-15083150D02*
X19366730Y-15283150D01*
X19366730Y-15092674D02*
X19385777Y-15083150D01*
X19385777Y-15083150D02*
X19423873Y-15083150D01*
X19423873Y-15083150D02*
X19442920Y-15092674D01*
X19442920Y-15092674D02*
X19452444Y-15102198D01*
X19452444Y-15102198D02*
X19461968Y-15121246D01*
X19461968Y-15121246D02*
X19461968Y-15178388D01*
X19461968Y-15178388D02*
X19452444Y-15197436D01*
X19452444Y-15197436D02*
X19442920Y-15206960D01*
X19442920Y-15206960D02*
X19423873Y-15216484D01*
X19423873Y-15216484D02*
X19385777Y-15216484D01*
X19385777Y-15216484D02*
X19366730Y-15206960D01*
X19576254Y-15216484D02*
X19557206Y-15206960D01*
X19557206Y-15206960D02*
X19547682Y-15187912D01*
X19547682Y-15187912D02*
X19547682Y-15016484D01*
X19738158Y-15216484D02*
X19738158Y-15111722D01*
X19738158Y-15111722D02*
X19728635Y-15092674D01*
X19728635Y-15092674D02*
X19709587Y-15083150D01*
X19709587Y-15083150D02*
X19671492Y-15083150D01*
X19671492Y-15083150D02*
X19652444Y-15092674D01*
X19738158Y-15206960D02*
X19719111Y-15216484D01*
X19719111Y-15216484D02*
X19671492Y-15216484D01*
X19671492Y-15216484D02*
X19652444Y-15206960D01*
X19652444Y-15206960D02*
X19642920Y-15187912D01*
X19642920Y-15187912D02*
X19642920Y-15168865D01*
X19642920Y-15168865D02*
X19652444Y-15149817D01*
X19652444Y-15149817D02*
X19671492Y-15140293D01*
X19671492Y-15140293D02*
X19719111Y-15140293D01*
X19719111Y-15140293D02*
X19738158Y-15130769D01*
X19804825Y-15083150D02*
X19881015Y-15083150D01*
X19833396Y-15016484D02*
X19833396Y-15187912D01*
X19833396Y-15187912D02*
X19842920Y-15206960D01*
X19842920Y-15206960D02*
X19861968Y-15216484D01*
X19861968Y-15216484D02*
X19881015Y-15216484D01*
X20023873Y-15206960D02*
X20004825Y-15216484D01*
X20004825Y-15216484D02*
X19966730Y-15216484D01*
X19966730Y-15216484D02*
X19947682Y-15206960D01*
X19947682Y-15206960D02*
X19938158Y-15187912D01*
X19938158Y-15187912D02*
X19938158Y-15111722D01*
X19938158Y-15111722D02*
X19947682Y-15092674D01*
X19947682Y-15092674D02*
X19966730Y-15083150D01*
X19966730Y-15083150D02*
X20004825Y-15083150D01*
X20004825Y-15083150D02*
X20023873Y-15092674D01*
X20023873Y-15092674D02*
X20033396Y-15111722D01*
X20033396Y-15111722D02*
X20033396Y-15130769D01*
X20033396Y-15130769D02*
X19938158Y-15149817D01*
X20204825Y-15216484D02*
X20204825Y-15016484D01*
X20204825Y-15206960D02*
X20185777Y-15216484D01*
X20185777Y-15216484D02*
X20147682Y-15216484D01*
X20147682Y-15216484D02*
X20128635Y-15206960D01*
X20128635Y-15206960D02*
X20119111Y-15197436D01*
X20119111Y-15197436D02*
X20109587Y-15178388D01*
X20109587Y-15178388D02*
X20109587Y-15121246D01*
X20109587Y-15121246D02*
X20119111Y-15102198D01*
X20119111Y-15102198D02*
X20128635Y-15092674D01*
X20128635Y-15092674D02*
X20147682Y-15083150D01*
X20147682Y-15083150D02*
X20185777Y-15083150D01*
X20185777Y-15083150D02*
X20204825Y-15092674D01*
X20281016Y-15292674D02*
X20290539Y-15283150D01*
X20290539Y-15283150D02*
X20309587Y-15254579D01*
X20309587Y-15254579D02*
X20319111Y-15235531D01*
X20319111Y-15235531D02*
X20328635Y-15206960D01*
X20328635Y-15206960D02*
X20338158Y-15159341D01*
X20338158Y-15159341D02*
X20338158Y-15121246D01*
X20338158Y-15121246D02*
X20328635Y-15073627D01*
X20328635Y-15073627D02*
X20319111Y-15045055D01*
X20319111Y-15045055D02*
X20309587Y-15026008D01*
X20309587Y-15026008D02*
X20290539Y-14997436D01*
X20290539Y-14997436D02*
X20281016Y-14987912D01*
X13525000Y-15395000D02*
G75*
G02*
X13325000Y-15395000I-100000J0D01*
G01*
X13325000Y-15395000D02*
G75*
G02*
X13525000Y-15395000I100000J0D01*
G01*
X13776253Y-15305531D02*
X13785777Y-15296008D01*
X13785777Y-15296008D02*
X13804824Y-15286484D01*
X13804824Y-15286484D02*
X13852443Y-15286484D01*
X13852443Y-15286484D02*
X13871491Y-15296008D01*
X13871491Y-15296008D02*
X13881015Y-15305531D01*
X13881015Y-15305531D02*
X13890539Y-15324579D01*
X13890539Y-15324579D02*
X13890539Y-15343627D01*
X13890539Y-15343627D02*
X13881015Y-15372198D01*
X13881015Y-15372198D02*
X13766729Y-15486484D01*
X13766729Y-15486484D02*
X13890539Y-15486484D01*
X13976253Y-15467436D02*
X13985777Y-15476960D01*
X13985777Y-15476960D02*
X13976253Y-15486484D01*
X13976253Y-15486484D02*
X13966729Y-15476960D01*
X13966729Y-15476960D02*
X13976253Y-15467436D01*
X13976253Y-15467436D02*
X13976253Y-15486484D01*
X14109586Y-15286484D02*
X14128634Y-15286484D01*
X14128634Y-15286484D02*
X14147682Y-15296008D01*
X14147682Y-15296008D02*
X14157205Y-15305531D01*
X14157205Y-15305531D02*
X14166729Y-15324579D01*
X14166729Y-15324579D02*
X14176253Y-15362674D01*
X14176253Y-15362674D02*
X14176253Y-15410293D01*
X14176253Y-15410293D02*
X14166729Y-15448388D01*
X14166729Y-15448388D02*
X14157205Y-15467436D01*
X14157205Y-15467436D02*
X14147682Y-15476960D01*
X14147682Y-15476960D02*
X14128634Y-15486484D01*
X14128634Y-15486484D02*
X14109586Y-15486484D01*
X14109586Y-15486484D02*
X14090539Y-15476960D01*
X14090539Y-15476960D02*
X14081015Y-15467436D01*
X14081015Y-15467436D02*
X14071491Y-15448388D01*
X14071491Y-15448388D02*
X14061967Y-15410293D01*
X14061967Y-15410293D02*
X14061967Y-15362674D01*
X14061967Y-15362674D02*
X14071491Y-15324579D01*
X14071491Y-15324579D02*
X14081015Y-15305531D01*
X14081015Y-15305531D02*
X14090539Y-15296008D01*
X14090539Y-15296008D02*
X14109586Y-15286484D01*
X14300062Y-15286484D02*
X14319110Y-15286484D01*
X14319110Y-15286484D02*
X14338158Y-15296008D01*
X14338158Y-15296008D02*
X14347682Y-15305531D01*
X14347682Y-15305531D02*
X14357205Y-15324579D01*
X14357205Y-15324579D02*
X14366729Y-15362674D01*
X14366729Y-15362674D02*
X14366729Y-15410293D01*
X14366729Y-15410293D02*
X14357205Y-15448388D01*
X14357205Y-15448388D02*
X14347682Y-15467436D01*
X14347682Y-15467436D02*
X14338158Y-15476960D01*
X14338158Y-15476960D02*
X14319110Y-15486484D01*
X14319110Y-15486484D02*
X14300062Y-15486484D01*
X14300062Y-15486484D02*
X14281015Y-15476960D01*
X14281015Y-15476960D02*
X14271491Y-15467436D01*
X14271491Y-15467436D02*
X14261967Y-15448388D01*
X14261967Y-15448388D02*
X14252443Y-15410293D01*
X14252443Y-15410293D02*
X14252443Y-15362674D01*
X14252443Y-15362674D02*
X14261967Y-15324579D01*
X14261967Y-15324579D02*
X14271491Y-15305531D01*
X14271491Y-15305531D02*
X14281015Y-15296008D01*
X14281015Y-15296008D02*
X14300062Y-15286484D01*
X14490539Y-15286484D02*
X14509586Y-15286484D01*
X14509586Y-15286484D02*
X14528634Y-15296008D01*
X14528634Y-15296008D02*
X14538158Y-15305531D01*
X14538158Y-15305531D02*
X14547682Y-15324579D01*
X14547682Y-15324579D02*
X14557205Y-15362674D01*
X14557205Y-15362674D02*
X14557205Y-15410293D01*
X14557205Y-15410293D02*
X14547682Y-15448388D01*
X14547682Y-15448388D02*
X14538158Y-15467436D01*
X14538158Y-15467436D02*
X14528634Y-15476960D01*
X14528634Y-15476960D02*
X14509586Y-15486484D01*
X14509586Y-15486484D02*
X14490539Y-15486484D01*
X14490539Y-15486484D02*
X14471491Y-15476960D01*
X14471491Y-15476960D02*
X14461967Y-15467436D01*
X14461967Y-15467436D02*
X14452443Y-15448388D01*
X14452443Y-15448388D02*
X14442920Y-15410293D01*
X14442920Y-15410293D02*
X14442920Y-15362674D01*
X14442920Y-15362674D02*
X14452443Y-15324579D01*
X14452443Y-15324579D02*
X14461967Y-15305531D01*
X14461967Y-15305531D02*
X14471491Y-15296008D01*
X14471491Y-15296008D02*
X14490539Y-15286484D01*
X14642920Y-15486484D02*
X14642920Y-15353150D01*
X14642920Y-15372198D02*
X14652443Y-15362674D01*
X14652443Y-15362674D02*
X14671491Y-15353150D01*
X14671491Y-15353150D02*
X14700063Y-15353150D01*
X14700063Y-15353150D02*
X14719110Y-15362674D01*
X14719110Y-15362674D02*
X14728634Y-15381722D01*
X14728634Y-15381722D02*
X14728634Y-15486484D01*
X14728634Y-15381722D02*
X14738158Y-15362674D01*
X14738158Y-15362674D02*
X14757205Y-15353150D01*
X14757205Y-15353150D02*
X14785777Y-15353150D01*
X14785777Y-15353150D02*
X14804824Y-15362674D01*
X14804824Y-15362674D02*
X14814348Y-15381722D01*
X14814348Y-15381722D02*
X14814348Y-15486484D01*
X14909586Y-15486484D02*
X14909586Y-15353150D01*
X14909586Y-15372198D02*
X14919110Y-15362674D01*
X14919110Y-15362674D02*
X14938158Y-15353150D01*
X14938158Y-15353150D02*
X14966729Y-15353150D01*
X14966729Y-15353150D02*
X14985777Y-15362674D01*
X14985777Y-15362674D02*
X14995301Y-15381722D01*
X14995301Y-15381722D02*
X14995301Y-15486484D01*
X14995301Y-15381722D02*
X15004824Y-15362674D01*
X15004824Y-15362674D02*
X15023872Y-15353150D01*
X15023872Y-15353150D02*
X15052443Y-15353150D01*
X15052443Y-15353150D02*
X15071491Y-15362674D01*
X15071491Y-15362674D02*
X15081015Y-15381722D01*
X15081015Y-15381722D02*
X15081015Y-15486484D01*
X15471491Y-15276960D02*
X15300063Y-15534103D01*
X15728634Y-15286484D02*
X15747682Y-15286484D01*
X15747682Y-15286484D02*
X15766729Y-15296008D01*
X15766729Y-15296008D02*
X15776253Y-15305531D01*
X15776253Y-15305531D02*
X15785777Y-15324579D01*
X15785777Y-15324579D02*
X15795301Y-15362674D01*
X15795301Y-15362674D02*
X15795301Y-15410293D01*
X15795301Y-15410293D02*
X15785777Y-15448388D01*
X15785777Y-15448388D02*
X15776253Y-15467436D01*
X15776253Y-15467436D02*
X15766729Y-15476960D01*
X15766729Y-15476960D02*
X15747682Y-15486484D01*
X15747682Y-15486484D02*
X15728634Y-15486484D01*
X15728634Y-15486484D02*
X15709586Y-15476960D01*
X15709586Y-15476960D02*
X15700063Y-15467436D01*
X15700063Y-15467436D02*
X15690539Y-15448388D01*
X15690539Y-15448388D02*
X15681015Y-15410293D01*
X15681015Y-15410293D02*
X15681015Y-15362674D01*
X15681015Y-15362674D02*
X15690539Y-15324579D01*
X15690539Y-15324579D02*
X15700063Y-15305531D01*
X15700063Y-15305531D02*
X15709586Y-15296008D01*
X15709586Y-15296008D02*
X15728634Y-15286484D01*
X15881015Y-15467436D02*
X15890539Y-15476960D01*
X15890539Y-15476960D02*
X15881015Y-15486484D01*
X15881015Y-15486484D02*
X15871491Y-15476960D01*
X15871491Y-15476960D02*
X15881015Y-15467436D01*
X15881015Y-15467436D02*
X15881015Y-15486484D01*
X16014348Y-15286484D02*
X16033396Y-15286484D01*
X16033396Y-15286484D02*
X16052444Y-15296008D01*
X16052444Y-15296008D02*
X16061967Y-15305531D01*
X16061967Y-15305531D02*
X16071491Y-15324579D01*
X16071491Y-15324579D02*
X16081015Y-15362674D01*
X16081015Y-15362674D02*
X16081015Y-15410293D01*
X16081015Y-15410293D02*
X16071491Y-15448388D01*
X16071491Y-15448388D02*
X16061967Y-15467436D01*
X16061967Y-15467436D02*
X16052444Y-15476960D01*
X16052444Y-15476960D02*
X16033396Y-15486484D01*
X16033396Y-15486484D02*
X16014348Y-15486484D01*
X16014348Y-15486484D02*
X15995301Y-15476960D01*
X15995301Y-15476960D02*
X15985777Y-15467436D01*
X15985777Y-15467436D02*
X15976253Y-15448388D01*
X15976253Y-15448388D02*
X15966729Y-15410293D01*
X15966729Y-15410293D02*
X15966729Y-15362674D01*
X15966729Y-15362674D02*
X15976253Y-15324579D01*
X15976253Y-15324579D02*
X15985777Y-15305531D01*
X15985777Y-15305531D02*
X15995301Y-15296008D01*
X15995301Y-15296008D02*
X16014348Y-15286484D01*
X16147682Y-15286484D02*
X16281015Y-15286484D01*
X16281015Y-15286484D02*
X16195301Y-15486484D01*
X16385777Y-15372198D02*
X16366729Y-15362674D01*
X16366729Y-15362674D02*
X16357206Y-15353150D01*
X16357206Y-15353150D02*
X16347682Y-15334103D01*
X16347682Y-15334103D02*
X16347682Y-15324579D01*
X16347682Y-15324579D02*
X16357206Y-15305531D01*
X16357206Y-15305531D02*
X16366729Y-15296008D01*
X16366729Y-15296008D02*
X16385777Y-15286484D01*
X16385777Y-15286484D02*
X16423872Y-15286484D01*
X16423872Y-15286484D02*
X16442920Y-15296008D01*
X16442920Y-15296008D02*
X16452444Y-15305531D01*
X16452444Y-15305531D02*
X16461967Y-15324579D01*
X16461967Y-15324579D02*
X16461967Y-15334103D01*
X16461967Y-15334103D02*
X16452444Y-15353150D01*
X16452444Y-15353150D02*
X16442920Y-15362674D01*
X16442920Y-15362674D02*
X16423872Y-15372198D01*
X16423872Y-15372198D02*
X16385777Y-15372198D01*
X16385777Y-15372198D02*
X16366729Y-15381722D01*
X16366729Y-15381722D02*
X16357206Y-15391246D01*
X16357206Y-15391246D02*
X16347682Y-15410293D01*
X16347682Y-15410293D02*
X16347682Y-15448388D01*
X16347682Y-15448388D02*
X16357206Y-15467436D01*
X16357206Y-15467436D02*
X16366729Y-15476960D01*
X16366729Y-15476960D02*
X16385777Y-15486484D01*
X16385777Y-15486484D02*
X16423872Y-15486484D01*
X16423872Y-15486484D02*
X16442920Y-15476960D01*
X16442920Y-15476960D02*
X16452444Y-15467436D01*
X16452444Y-15467436D02*
X16461967Y-15448388D01*
X16461967Y-15448388D02*
X16461967Y-15410293D01*
X16461967Y-15410293D02*
X16452444Y-15391246D01*
X16452444Y-15391246D02*
X16442920Y-15381722D01*
X16442920Y-15381722D02*
X16423872Y-15372198D01*
X16528634Y-15286484D02*
X16661967Y-15286484D01*
X16661967Y-15286484D02*
X16576253Y-15486484D01*
X16728634Y-15286484D02*
X16728634Y-15324579D01*
X16804825Y-15286484D02*
X16804825Y-15324579D01*
X17100063Y-15562674D02*
X17090539Y-15553150D01*
X17090539Y-15553150D02*
X17071491Y-15524579D01*
X17071491Y-15524579D02*
X17061968Y-15505531D01*
X17061968Y-15505531D02*
X17052444Y-15476960D01*
X17052444Y-15476960D02*
X17042920Y-15429341D01*
X17042920Y-15429341D02*
X17042920Y-15391246D01*
X17042920Y-15391246D02*
X17052444Y-15343627D01*
X17052444Y-15343627D02*
X17061968Y-15315055D01*
X17061968Y-15315055D02*
X17071491Y-15296008D01*
X17071491Y-15296008D02*
X17090539Y-15267436D01*
X17090539Y-15267436D02*
X17100063Y-15257912D01*
X17166730Y-15305531D02*
X17176253Y-15296008D01*
X17176253Y-15296008D02*
X17195301Y-15286484D01*
X17195301Y-15286484D02*
X17242920Y-15286484D01*
X17242920Y-15286484D02*
X17261968Y-15296008D01*
X17261968Y-15296008D02*
X17271491Y-15305531D01*
X17271491Y-15305531D02*
X17281015Y-15324579D01*
X17281015Y-15324579D02*
X17281015Y-15343627D01*
X17281015Y-15343627D02*
X17271491Y-15372198D01*
X17271491Y-15372198D02*
X17157206Y-15486484D01*
X17157206Y-15486484D02*
X17281015Y-15486484D01*
X17519111Y-15486484D02*
X17519111Y-15286484D01*
X17604825Y-15486484D02*
X17604825Y-15381722D01*
X17604825Y-15381722D02*
X17595301Y-15362674D01*
X17595301Y-15362674D02*
X17576253Y-15353150D01*
X17576253Y-15353150D02*
X17547682Y-15353150D01*
X17547682Y-15353150D02*
X17528634Y-15362674D01*
X17528634Y-15362674D02*
X17519111Y-15372198D01*
X17728634Y-15486484D02*
X17709587Y-15476960D01*
X17709587Y-15476960D02*
X17700063Y-15467436D01*
X17700063Y-15467436D02*
X17690539Y-15448388D01*
X17690539Y-15448388D02*
X17690539Y-15391246D01*
X17690539Y-15391246D02*
X17700063Y-15372198D01*
X17700063Y-15372198D02*
X17709587Y-15362674D01*
X17709587Y-15362674D02*
X17728634Y-15353150D01*
X17728634Y-15353150D02*
X17757206Y-15353150D01*
X17757206Y-15353150D02*
X17776253Y-15362674D01*
X17776253Y-15362674D02*
X17785777Y-15372198D01*
X17785777Y-15372198D02*
X17795301Y-15391246D01*
X17795301Y-15391246D02*
X17795301Y-15448388D01*
X17795301Y-15448388D02*
X17785777Y-15467436D01*
X17785777Y-15467436D02*
X17776253Y-15476960D01*
X17776253Y-15476960D02*
X17757206Y-15486484D01*
X17757206Y-15486484D02*
X17728634Y-15486484D01*
X17909587Y-15486484D02*
X17890539Y-15476960D01*
X17890539Y-15476960D02*
X17881015Y-15457912D01*
X17881015Y-15457912D02*
X17881015Y-15286484D01*
X18061968Y-15476960D02*
X18042920Y-15486484D01*
X18042920Y-15486484D02*
X18004825Y-15486484D01*
X18004825Y-15486484D02*
X17985777Y-15476960D01*
X17985777Y-15476960D02*
X17976253Y-15457912D01*
X17976253Y-15457912D02*
X17976253Y-15381722D01*
X17976253Y-15381722D02*
X17985777Y-15362674D01*
X17985777Y-15362674D02*
X18004825Y-15353150D01*
X18004825Y-15353150D02*
X18042920Y-15353150D01*
X18042920Y-15353150D02*
X18061968Y-15362674D01*
X18061968Y-15362674D02*
X18071492Y-15381722D01*
X18071492Y-15381722D02*
X18071492Y-15400769D01*
X18071492Y-15400769D02*
X17976253Y-15419817D01*
X18147682Y-15476960D02*
X18166730Y-15486484D01*
X18166730Y-15486484D02*
X18204825Y-15486484D01*
X18204825Y-15486484D02*
X18223873Y-15476960D01*
X18223873Y-15476960D02*
X18233396Y-15457912D01*
X18233396Y-15457912D02*
X18233396Y-15448388D01*
X18233396Y-15448388D02*
X18223873Y-15429341D01*
X18223873Y-15429341D02*
X18204825Y-15419817D01*
X18204825Y-15419817D02*
X18176253Y-15419817D01*
X18176253Y-15419817D02*
X18157206Y-15410293D01*
X18157206Y-15410293D02*
X18147682Y-15391246D01*
X18147682Y-15391246D02*
X18147682Y-15381722D01*
X18147682Y-15381722D02*
X18157206Y-15362674D01*
X18157206Y-15362674D02*
X18176253Y-15353150D01*
X18176253Y-15353150D02*
X18204825Y-15353150D01*
X18204825Y-15353150D02*
X18223873Y-15362674D01*
X18300063Y-15562674D02*
X18309587Y-15553150D01*
X18309587Y-15553150D02*
X18328634Y-15524579D01*
X18328634Y-15524579D02*
X18338158Y-15505531D01*
X18338158Y-15505531D02*
X18347682Y-15476960D01*
X18347682Y-15476960D02*
X18357206Y-15429341D01*
X18357206Y-15429341D02*
X18357206Y-15391246D01*
X18357206Y-15391246D02*
X18347682Y-15343627D01*
X18347682Y-15343627D02*
X18338158Y-15315055D01*
X18338158Y-15315055D02*
X18328634Y-15296008D01*
X18328634Y-15296008D02*
X18309587Y-15267436D01*
X18309587Y-15267436D02*
X18300063Y-15257912D01*
X18661968Y-15562674D02*
X18652444Y-15553150D01*
X18652444Y-15553150D02*
X18633396Y-15524579D01*
X18633396Y-15524579D02*
X18623873Y-15505531D01*
X18623873Y-15505531D02*
X18614349Y-15476960D01*
X18614349Y-15476960D02*
X18604825Y-15429341D01*
X18604825Y-15429341D02*
X18604825Y-15391246D01*
X18604825Y-15391246D02*
X18614349Y-15343627D01*
X18614349Y-15343627D02*
X18623873Y-15315055D01*
X18623873Y-15315055D02*
X18633396Y-15296008D01*
X18633396Y-15296008D02*
X18652444Y-15267436D01*
X18652444Y-15267436D02*
X18661968Y-15257912D01*
X18738158Y-15353150D02*
X18738158Y-15486484D01*
X18738158Y-15372198D02*
X18747682Y-15362674D01*
X18747682Y-15362674D02*
X18766730Y-15353150D01*
X18766730Y-15353150D02*
X18795301Y-15353150D01*
X18795301Y-15353150D02*
X18814349Y-15362674D01*
X18814349Y-15362674D02*
X18823873Y-15381722D01*
X18823873Y-15381722D02*
X18823873Y-15486484D01*
X18947682Y-15486484D02*
X18928634Y-15476960D01*
X18928634Y-15476960D02*
X18919111Y-15467436D01*
X18919111Y-15467436D02*
X18909587Y-15448388D01*
X18909587Y-15448388D02*
X18909587Y-15391246D01*
X18909587Y-15391246D02*
X18919111Y-15372198D01*
X18919111Y-15372198D02*
X18928634Y-15362674D01*
X18928634Y-15362674D02*
X18947682Y-15353150D01*
X18947682Y-15353150D02*
X18976254Y-15353150D01*
X18976254Y-15353150D02*
X18995301Y-15362674D01*
X18995301Y-15362674D02*
X19004825Y-15372198D01*
X19004825Y-15372198D02*
X19014349Y-15391246D01*
X19014349Y-15391246D02*
X19014349Y-15448388D01*
X19014349Y-15448388D02*
X19004825Y-15467436D01*
X19004825Y-15467436D02*
X18995301Y-15476960D01*
X18995301Y-15476960D02*
X18976254Y-15486484D01*
X18976254Y-15486484D02*
X18947682Y-15486484D01*
X19071492Y-15353150D02*
X19147682Y-15353150D01*
X19100063Y-15286484D02*
X19100063Y-15457912D01*
X19100063Y-15457912D02*
X19109587Y-15476960D01*
X19109587Y-15476960D02*
X19128634Y-15486484D01*
X19128634Y-15486484D02*
X19147682Y-15486484D01*
X19366730Y-15353150D02*
X19366730Y-15553150D01*
X19366730Y-15362674D02*
X19385777Y-15353150D01*
X19385777Y-15353150D02*
X19423873Y-15353150D01*
X19423873Y-15353150D02*
X19442920Y-15362674D01*
X19442920Y-15362674D02*
X19452444Y-15372198D01*
X19452444Y-15372198D02*
X19461968Y-15391246D01*
X19461968Y-15391246D02*
X19461968Y-15448388D01*
X19461968Y-15448388D02*
X19452444Y-15467436D01*
X19452444Y-15467436D02*
X19442920Y-15476960D01*
X19442920Y-15476960D02*
X19423873Y-15486484D01*
X19423873Y-15486484D02*
X19385777Y-15486484D01*
X19385777Y-15486484D02*
X19366730Y-15476960D01*
X19576254Y-15486484D02*
X19557206Y-15476960D01*
X19557206Y-15476960D02*
X19547682Y-15457912D01*
X19547682Y-15457912D02*
X19547682Y-15286484D01*
X19738158Y-15486484D02*
X19738158Y-15381722D01*
X19738158Y-15381722D02*
X19728635Y-15362674D01*
X19728635Y-15362674D02*
X19709587Y-15353150D01*
X19709587Y-15353150D02*
X19671492Y-15353150D01*
X19671492Y-15353150D02*
X19652444Y-15362674D01*
X19738158Y-15476960D02*
X19719111Y-15486484D01*
X19719111Y-15486484D02*
X19671492Y-15486484D01*
X19671492Y-15486484D02*
X19652444Y-15476960D01*
X19652444Y-15476960D02*
X19642920Y-15457912D01*
X19642920Y-15457912D02*
X19642920Y-15438865D01*
X19642920Y-15438865D02*
X19652444Y-15419817D01*
X19652444Y-15419817D02*
X19671492Y-15410293D01*
X19671492Y-15410293D02*
X19719111Y-15410293D01*
X19719111Y-15410293D02*
X19738158Y-15400769D01*
X19804825Y-15353150D02*
X19881015Y-15353150D01*
X19833396Y-15286484D02*
X19833396Y-15457912D01*
X19833396Y-15457912D02*
X19842920Y-15476960D01*
X19842920Y-15476960D02*
X19861968Y-15486484D01*
X19861968Y-15486484D02*
X19881015Y-15486484D01*
X20023873Y-15476960D02*
X20004825Y-15486484D01*
X20004825Y-15486484D02*
X19966730Y-15486484D01*
X19966730Y-15486484D02*
X19947682Y-15476960D01*
X19947682Y-15476960D02*
X19938158Y-15457912D01*
X19938158Y-15457912D02*
X19938158Y-15381722D01*
X19938158Y-15381722D02*
X19947682Y-15362674D01*
X19947682Y-15362674D02*
X19966730Y-15353150D01*
X19966730Y-15353150D02*
X20004825Y-15353150D01*
X20004825Y-15353150D02*
X20023873Y-15362674D01*
X20023873Y-15362674D02*
X20033396Y-15381722D01*
X20033396Y-15381722D02*
X20033396Y-15400769D01*
X20033396Y-15400769D02*
X19938158Y-15419817D01*
X20204825Y-15486484D02*
X20204825Y-15286484D01*
X20204825Y-15476960D02*
X20185777Y-15486484D01*
X20185777Y-15486484D02*
X20147682Y-15486484D01*
X20147682Y-15486484D02*
X20128635Y-15476960D01*
X20128635Y-15476960D02*
X20119111Y-15467436D01*
X20119111Y-15467436D02*
X20109587Y-15448388D01*
X20109587Y-15448388D02*
X20109587Y-15391246D01*
X20109587Y-15391246D02*
X20119111Y-15372198D01*
X20119111Y-15372198D02*
X20128635Y-15362674D01*
X20128635Y-15362674D02*
X20147682Y-15353150D01*
X20147682Y-15353150D02*
X20185777Y-15353150D01*
X20185777Y-15353150D02*
X20204825Y-15362674D01*
X20281016Y-15562674D02*
X20290539Y-15553150D01*
X20290539Y-15553150D02*
X20309587Y-15524579D01*
X20309587Y-15524579D02*
X20319111Y-15505531D01*
X20319111Y-15505531D02*
X20328635Y-15476960D01*
X20328635Y-15476960D02*
X20338158Y-15429341D01*
X20338158Y-15429341D02*
X20338158Y-15391246D01*
X20338158Y-15391246D02*
X20328635Y-15343627D01*
X20328635Y-15343627D02*
X20319111Y-15315055D01*
X20319111Y-15315055D02*
X20309587Y-15296008D01*
X20309587Y-15296008D02*
X20290539Y-15267436D01*
X20290539Y-15267436D02*
X20281016Y-15257912D01*
X13425000Y-15615000D02*
X13425000Y-15815000D01*
X13325000Y-15715000D02*
X13525000Y-15715000D01*
X13766729Y-15606484D02*
X13890539Y-15606484D01*
X13890539Y-15606484D02*
X13823872Y-15682674D01*
X13823872Y-15682674D02*
X13852443Y-15682674D01*
X13852443Y-15682674D02*
X13871491Y-15692198D01*
X13871491Y-15692198D02*
X13881015Y-15701722D01*
X13881015Y-15701722D02*
X13890539Y-15720769D01*
X13890539Y-15720769D02*
X13890539Y-15768388D01*
X13890539Y-15768388D02*
X13881015Y-15787436D01*
X13881015Y-15787436D02*
X13871491Y-15796960D01*
X13871491Y-15796960D02*
X13852443Y-15806484D01*
X13852443Y-15806484D02*
X13795301Y-15806484D01*
X13795301Y-15806484D02*
X13776253Y-15796960D01*
X13776253Y-15796960D02*
X13766729Y-15787436D01*
X13976253Y-15787436D02*
X13985777Y-15796960D01*
X13985777Y-15796960D02*
X13976253Y-15806484D01*
X13976253Y-15806484D02*
X13966729Y-15796960D01*
X13966729Y-15796960D02*
X13976253Y-15787436D01*
X13976253Y-15787436D02*
X13976253Y-15806484D01*
X14061967Y-15625531D02*
X14071491Y-15616008D01*
X14071491Y-15616008D02*
X14090539Y-15606484D01*
X14090539Y-15606484D02*
X14138158Y-15606484D01*
X14138158Y-15606484D02*
X14157205Y-15616008D01*
X14157205Y-15616008D02*
X14166729Y-15625531D01*
X14166729Y-15625531D02*
X14176253Y-15644579D01*
X14176253Y-15644579D02*
X14176253Y-15663627D01*
X14176253Y-15663627D02*
X14166729Y-15692198D01*
X14166729Y-15692198D02*
X14052443Y-15806484D01*
X14052443Y-15806484D02*
X14176253Y-15806484D01*
X14300062Y-15606484D02*
X14319110Y-15606484D01*
X14319110Y-15606484D02*
X14338158Y-15616008D01*
X14338158Y-15616008D02*
X14347682Y-15625531D01*
X14347682Y-15625531D02*
X14357205Y-15644579D01*
X14357205Y-15644579D02*
X14366729Y-15682674D01*
X14366729Y-15682674D02*
X14366729Y-15730293D01*
X14366729Y-15730293D02*
X14357205Y-15768388D01*
X14357205Y-15768388D02*
X14347682Y-15787436D01*
X14347682Y-15787436D02*
X14338158Y-15796960D01*
X14338158Y-15796960D02*
X14319110Y-15806484D01*
X14319110Y-15806484D02*
X14300062Y-15806484D01*
X14300062Y-15806484D02*
X14281015Y-15796960D01*
X14281015Y-15796960D02*
X14271491Y-15787436D01*
X14271491Y-15787436D02*
X14261967Y-15768388D01*
X14261967Y-15768388D02*
X14252443Y-15730293D01*
X14252443Y-15730293D02*
X14252443Y-15682674D01*
X14252443Y-15682674D02*
X14261967Y-15644579D01*
X14261967Y-15644579D02*
X14271491Y-15625531D01*
X14271491Y-15625531D02*
X14281015Y-15616008D01*
X14281015Y-15616008D02*
X14300062Y-15606484D01*
X14490539Y-15606484D02*
X14509586Y-15606484D01*
X14509586Y-15606484D02*
X14528634Y-15616008D01*
X14528634Y-15616008D02*
X14538158Y-15625531D01*
X14538158Y-15625531D02*
X14547682Y-15644579D01*
X14547682Y-15644579D02*
X14557205Y-15682674D01*
X14557205Y-15682674D02*
X14557205Y-15730293D01*
X14557205Y-15730293D02*
X14547682Y-15768388D01*
X14547682Y-15768388D02*
X14538158Y-15787436D01*
X14538158Y-15787436D02*
X14528634Y-15796960D01*
X14528634Y-15796960D02*
X14509586Y-15806484D01*
X14509586Y-15806484D02*
X14490539Y-15806484D01*
X14490539Y-15806484D02*
X14471491Y-15796960D01*
X14471491Y-15796960D02*
X14461967Y-15787436D01*
X14461967Y-15787436D02*
X14452443Y-15768388D01*
X14452443Y-15768388D02*
X14442920Y-15730293D01*
X14442920Y-15730293D02*
X14442920Y-15682674D01*
X14442920Y-15682674D02*
X14452443Y-15644579D01*
X14452443Y-15644579D02*
X14461967Y-15625531D01*
X14461967Y-15625531D02*
X14471491Y-15616008D01*
X14471491Y-15616008D02*
X14490539Y-15606484D01*
X14642920Y-15806484D02*
X14642920Y-15673150D01*
X14642920Y-15692198D02*
X14652443Y-15682674D01*
X14652443Y-15682674D02*
X14671491Y-15673150D01*
X14671491Y-15673150D02*
X14700063Y-15673150D01*
X14700063Y-15673150D02*
X14719110Y-15682674D01*
X14719110Y-15682674D02*
X14728634Y-15701722D01*
X14728634Y-15701722D02*
X14728634Y-15806484D01*
X14728634Y-15701722D02*
X14738158Y-15682674D01*
X14738158Y-15682674D02*
X14757205Y-15673150D01*
X14757205Y-15673150D02*
X14785777Y-15673150D01*
X14785777Y-15673150D02*
X14804824Y-15682674D01*
X14804824Y-15682674D02*
X14814348Y-15701722D01*
X14814348Y-15701722D02*
X14814348Y-15806484D01*
X14909586Y-15806484D02*
X14909586Y-15673150D01*
X14909586Y-15692198D02*
X14919110Y-15682674D01*
X14919110Y-15682674D02*
X14938158Y-15673150D01*
X14938158Y-15673150D02*
X14966729Y-15673150D01*
X14966729Y-15673150D02*
X14985777Y-15682674D01*
X14985777Y-15682674D02*
X14995301Y-15701722D01*
X14995301Y-15701722D02*
X14995301Y-15806484D01*
X14995301Y-15701722D02*
X15004824Y-15682674D01*
X15004824Y-15682674D02*
X15023872Y-15673150D01*
X15023872Y-15673150D02*
X15052443Y-15673150D01*
X15052443Y-15673150D02*
X15071491Y-15682674D01*
X15071491Y-15682674D02*
X15081015Y-15701722D01*
X15081015Y-15701722D02*
X15081015Y-15806484D01*
X15471491Y-15596960D02*
X15300063Y-15854103D01*
X15728634Y-15606484D02*
X15747682Y-15606484D01*
X15747682Y-15606484D02*
X15766729Y-15616008D01*
X15766729Y-15616008D02*
X15776253Y-15625531D01*
X15776253Y-15625531D02*
X15785777Y-15644579D01*
X15785777Y-15644579D02*
X15795301Y-15682674D01*
X15795301Y-15682674D02*
X15795301Y-15730293D01*
X15795301Y-15730293D02*
X15785777Y-15768388D01*
X15785777Y-15768388D02*
X15776253Y-15787436D01*
X15776253Y-15787436D02*
X15766729Y-15796960D01*
X15766729Y-15796960D02*
X15747682Y-15806484D01*
X15747682Y-15806484D02*
X15728634Y-15806484D01*
X15728634Y-15806484D02*
X15709586Y-15796960D01*
X15709586Y-15796960D02*
X15700063Y-15787436D01*
X15700063Y-15787436D02*
X15690539Y-15768388D01*
X15690539Y-15768388D02*
X15681015Y-15730293D01*
X15681015Y-15730293D02*
X15681015Y-15682674D01*
X15681015Y-15682674D02*
X15690539Y-15644579D01*
X15690539Y-15644579D02*
X15700063Y-15625531D01*
X15700063Y-15625531D02*
X15709586Y-15616008D01*
X15709586Y-15616008D02*
X15728634Y-15606484D01*
X15881015Y-15787436D02*
X15890539Y-15796960D01*
X15890539Y-15796960D02*
X15881015Y-15806484D01*
X15881015Y-15806484D02*
X15871491Y-15796960D01*
X15871491Y-15796960D02*
X15881015Y-15787436D01*
X15881015Y-15787436D02*
X15881015Y-15806484D01*
X16081015Y-15806484D02*
X15966729Y-15806484D01*
X16023872Y-15806484D02*
X16023872Y-15606484D01*
X16023872Y-15606484D02*
X16004825Y-15635055D01*
X16004825Y-15635055D02*
X15985777Y-15654103D01*
X15985777Y-15654103D02*
X15966729Y-15663627D01*
X16157206Y-15625531D02*
X16166729Y-15616008D01*
X16166729Y-15616008D02*
X16185777Y-15606484D01*
X16185777Y-15606484D02*
X16233396Y-15606484D01*
X16233396Y-15606484D02*
X16252444Y-15616008D01*
X16252444Y-15616008D02*
X16261967Y-15625531D01*
X16261967Y-15625531D02*
X16271491Y-15644579D01*
X16271491Y-15644579D02*
X16271491Y-15663627D01*
X16271491Y-15663627D02*
X16261967Y-15692198D01*
X16261967Y-15692198D02*
X16147682Y-15806484D01*
X16147682Y-15806484D02*
X16271491Y-15806484D01*
X16442920Y-15606484D02*
X16404825Y-15606484D01*
X16404825Y-15606484D02*
X16385777Y-15616008D01*
X16385777Y-15616008D02*
X16376253Y-15625531D01*
X16376253Y-15625531D02*
X16357206Y-15654103D01*
X16357206Y-15654103D02*
X16347682Y-15692198D01*
X16347682Y-15692198D02*
X16347682Y-15768388D01*
X16347682Y-15768388D02*
X16357206Y-15787436D01*
X16357206Y-15787436D02*
X16366729Y-15796960D01*
X16366729Y-15796960D02*
X16385777Y-15806484D01*
X16385777Y-15806484D02*
X16423872Y-15806484D01*
X16423872Y-15806484D02*
X16442920Y-15796960D01*
X16442920Y-15796960D02*
X16452444Y-15787436D01*
X16452444Y-15787436D02*
X16461967Y-15768388D01*
X16461967Y-15768388D02*
X16461967Y-15720769D01*
X16461967Y-15720769D02*
X16452444Y-15701722D01*
X16452444Y-15701722D02*
X16442920Y-15692198D01*
X16442920Y-15692198D02*
X16423872Y-15682674D01*
X16423872Y-15682674D02*
X16385777Y-15682674D01*
X16385777Y-15682674D02*
X16366729Y-15692198D01*
X16366729Y-15692198D02*
X16357206Y-15701722D01*
X16357206Y-15701722D02*
X16347682Y-15720769D01*
X16585777Y-15606484D02*
X16604825Y-15606484D01*
X16604825Y-15606484D02*
X16623872Y-15616008D01*
X16623872Y-15616008D02*
X16633396Y-15625531D01*
X16633396Y-15625531D02*
X16642920Y-15644579D01*
X16642920Y-15644579D02*
X16652444Y-15682674D01*
X16652444Y-15682674D02*
X16652444Y-15730293D01*
X16652444Y-15730293D02*
X16642920Y-15768388D01*
X16642920Y-15768388D02*
X16633396Y-15787436D01*
X16633396Y-15787436D02*
X16623872Y-15796960D01*
X16623872Y-15796960D02*
X16604825Y-15806484D01*
X16604825Y-15806484D02*
X16585777Y-15806484D01*
X16585777Y-15806484D02*
X16566729Y-15796960D01*
X16566729Y-15796960D02*
X16557206Y-15787436D01*
X16557206Y-15787436D02*
X16547682Y-15768388D01*
X16547682Y-15768388D02*
X16538158Y-15730293D01*
X16538158Y-15730293D02*
X16538158Y-15682674D01*
X16538158Y-15682674D02*
X16547682Y-15644579D01*
X16547682Y-15644579D02*
X16557206Y-15625531D01*
X16557206Y-15625531D02*
X16566729Y-15616008D01*
X16566729Y-15616008D02*
X16585777Y-15606484D01*
X16728634Y-15606484D02*
X16728634Y-15644579D01*
X16804825Y-15606484D02*
X16804825Y-15644579D01*
X17100063Y-15882674D02*
X17090539Y-15873150D01*
X17090539Y-15873150D02*
X17071491Y-15844579D01*
X17071491Y-15844579D02*
X17061968Y-15825531D01*
X17061968Y-15825531D02*
X17052444Y-15796960D01*
X17052444Y-15796960D02*
X17042920Y-15749341D01*
X17042920Y-15749341D02*
X17042920Y-15711246D01*
X17042920Y-15711246D02*
X17052444Y-15663627D01*
X17052444Y-15663627D02*
X17061968Y-15635055D01*
X17061968Y-15635055D02*
X17071491Y-15616008D01*
X17071491Y-15616008D02*
X17090539Y-15587436D01*
X17090539Y-15587436D02*
X17100063Y-15577912D01*
X17261968Y-15673150D02*
X17261968Y-15806484D01*
X17214349Y-15596960D02*
X17166730Y-15739817D01*
X17166730Y-15739817D02*
X17290539Y-15739817D01*
X17519111Y-15806484D02*
X17519111Y-15606484D01*
X17604825Y-15806484D02*
X17604825Y-15701722D01*
X17604825Y-15701722D02*
X17595301Y-15682674D01*
X17595301Y-15682674D02*
X17576253Y-15673150D01*
X17576253Y-15673150D02*
X17547682Y-15673150D01*
X17547682Y-15673150D02*
X17528634Y-15682674D01*
X17528634Y-15682674D02*
X17519111Y-15692198D01*
X17728634Y-15806484D02*
X17709587Y-15796960D01*
X17709587Y-15796960D02*
X17700063Y-15787436D01*
X17700063Y-15787436D02*
X17690539Y-15768388D01*
X17690539Y-15768388D02*
X17690539Y-15711246D01*
X17690539Y-15711246D02*
X17700063Y-15692198D01*
X17700063Y-15692198D02*
X17709587Y-15682674D01*
X17709587Y-15682674D02*
X17728634Y-15673150D01*
X17728634Y-15673150D02*
X17757206Y-15673150D01*
X17757206Y-15673150D02*
X17776253Y-15682674D01*
X17776253Y-15682674D02*
X17785777Y-15692198D01*
X17785777Y-15692198D02*
X17795301Y-15711246D01*
X17795301Y-15711246D02*
X17795301Y-15768388D01*
X17795301Y-15768388D02*
X17785777Y-15787436D01*
X17785777Y-15787436D02*
X17776253Y-15796960D01*
X17776253Y-15796960D02*
X17757206Y-15806484D01*
X17757206Y-15806484D02*
X17728634Y-15806484D01*
X17909587Y-15806484D02*
X17890539Y-15796960D01*
X17890539Y-15796960D02*
X17881015Y-15777912D01*
X17881015Y-15777912D02*
X17881015Y-15606484D01*
X18061968Y-15796960D02*
X18042920Y-15806484D01*
X18042920Y-15806484D02*
X18004825Y-15806484D01*
X18004825Y-15806484D02*
X17985777Y-15796960D01*
X17985777Y-15796960D02*
X17976253Y-15777912D01*
X17976253Y-15777912D02*
X17976253Y-15701722D01*
X17976253Y-15701722D02*
X17985777Y-15682674D01*
X17985777Y-15682674D02*
X18004825Y-15673150D01*
X18004825Y-15673150D02*
X18042920Y-15673150D01*
X18042920Y-15673150D02*
X18061968Y-15682674D01*
X18061968Y-15682674D02*
X18071492Y-15701722D01*
X18071492Y-15701722D02*
X18071492Y-15720769D01*
X18071492Y-15720769D02*
X17976253Y-15739817D01*
X18147682Y-15796960D02*
X18166730Y-15806484D01*
X18166730Y-15806484D02*
X18204825Y-15806484D01*
X18204825Y-15806484D02*
X18223873Y-15796960D01*
X18223873Y-15796960D02*
X18233396Y-15777912D01*
X18233396Y-15777912D02*
X18233396Y-15768388D01*
X18233396Y-15768388D02*
X18223873Y-15749341D01*
X18223873Y-15749341D02*
X18204825Y-15739817D01*
X18204825Y-15739817D02*
X18176253Y-15739817D01*
X18176253Y-15739817D02*
X18157206Y-15730293D01*
X18157206Y-15730293D02*
X18147682Y-15711246D01*
X18147682Y-15711246D02*
X18147682Y-15701722D01*
X18147682Y-15701722D02*
X18157206Y-15682674D01*
X18157206Y-15682674D02*
X18176253Y-15673150D01*
X18176253Y-15673150D02*
X18204825Y-15673150D01*
X18204825Y-15673150D02*
X18223873Y-15682674D01*
X18300063Y-15882674D02*
X18309587Y-15873150D01*
X18309587Y-15873150D02*
X18328634Y-15844579D01*
X18328634Y-15844579D02*
X18338158Y-15825531D01*
X18338158Y-15825531D02*
X18347682Y-15796960D01*
X18347682Y-15796960D02*
X18357206Y-15749341D01*
X18357206Y-15749341D02*
X18357206Y-15711246D01*
X18357206Y-15711246D02*
X18347682Y-15663627D01*
X18347682Y-15663627D02*
X18338158Y-15635055D01*
X18338158Y-15635055D02*
X18328634Y-15616008D01*
X18328634Y-15616008D02*
X18309587Y-15587436D01*
X18309587Y-15587436D02*
X18300063Y-15577912D01*
X18661968Y-15882674D02*
X18652444Y-15873150D01*
X18652444Y-15873150D02*
X18633396Y-15844579D01*
X18633396Y-15844579D02*
X18623873Y-15825531D01*
X18623873Y-15825531D02*
X18614349Y-15796960D01*
X18614349Y-15796960D02*
X18604825Y-15749341D01*
X18604825Y-15749341D02*
X18604825Y-15711246D01*
X18604825Y-15711246D02*
X18614349Y-15663627D01*
X18614349Y-15663627D02*
X18623873Y-15635055D01*
X18623873Y-15635055D02*
X18633396Y-15616008D01*
X18633396Y-15616008D02*
X18652444Y-15587436D01*
X18652444Y-15587436D02*
X18661968Y-15577912D01*
X18738158Y-15673150D02*
X18738158Y-15806484D01*
X18738158Y-15692198D02*
X18747682Y-15682674D01*
X18747682Y-15682674D02*
X18766730Y-15673150D01*
X18766730Y-15673150D02*
X18795301Y-15673150D01*
X18795301Y-15673150D02*
X18814349Y-15682674D01*
X18814349Y-15682674D02*
X18823873Y-15701722D01*
X18823873Y-15701722D02*
X18823873Y-15806484D01*
X18947682Y-15806484D02*
X18928634Y-15796960D01*
X18928634Y-15796960D02*
X18919111Y-15787436D01*
X18919111Y-15787436D02*
X18909587Y-15768388D01*
X18909587Y-15768388D02*
X18909587Y-15711246D01*
X18909587Y-15711246D02*
X18919111Y-15692198D01*
X18919111Y-15692198D02*
X18928634Y-15682674D01*
X18928634Y-15682674D02*
X18947682Y-15673150D01*
X18947682Y-15673150D02*
X18976254Y-15673150D01*
X18976254Y-15673150D02*
X18995301Y-15682674D01*
X18995301Y-15682674D02*
X19004825Y-15692198D01*
X19004825Y-15692198D02*
X19014349Y-15711246D01*
X19014349Y-15711246D02*
X19014349Y-15768388D01*
X19014349Y-15768388D02*
X19004825Y-15787436D01*
X19004825Y-15787436D02*
X18995301Y-15796960D01*
X18995301Y-15796960D02*
X18976254Y-15806484D01*
X18976254Y-15806484D02*
X18947682Y-15806484D01*
X19071492Y-15673150D02*
X19147682Y-15673150D01*
X19100063Y-15606484D02*
X19100063Y-15777912D01*
X19100063Y-15777912D02*
X19109587Y-15796960D01*
X19109587Y-15796960D02*
X19128634Y-15806484D01*
X19128634Y-15806484D02*
X19147682Y-15806484D01*
X19366730Y-15673150D02*
X19366730Y-15873150D01*
X19366730Y-15682674D02*
X19385777Y-15673150D01*
X19385777Y-15673150D02*
X19423873Y-15673150D01*
X19423873Y-15673150D02*
X19442920Y-15682674D01*
X19442920Y-15682674D02*
X19452444Y-15692198D01*
X19452444Y-15692198D02*
X19461968Y-15711246D01*
X19461968Y-15711246D02*
X19461968Y-15768388D01*
X19461968Y-15768388D02*
X19452444Y-15787436D01*
X19452444Y-15787436D02*
X19442920Y-15796960D01*
X19442920Y-15796960D02*
X19423873Y-15806484D01*
X19423873Y-15806484D02*
X19385777Y-15806484D01*
X19385777Y-15806484D02*
X19366730Y-15796960D01*
X19576254Y-15806484D02*
X19557206Y-15796960D01*
X19557206Y-15796960D02*
X19547682Y-15777912D01*
X19547682Y-15777912D02*
X19547682Y-15606484D01*
X19738158Y-15806484D02*
X19738158Y-15701722D01*
X19738158Y-15701722D02*
X19728635Y-15682674D01*
X19728635Y-15682674D02*
X19709587Y-15673150D01*
X19709587Y-15673150D02*
X19671492Y-15673150D01*
X19671492Y-15673150D02*
X19652444Y-15682674D01*
X19738158Y-15796960D02*
X19719111Y-15806484D01*
X19719111Y-15806484D02*
X19671492Y-15806484D01*
X19671492Y-15806484D02*
X19652444Y-15796960D01*
X19652444Y-15796960D02*
X19642920Y-15777912D01*
X19642920Y-15777912D02*
X19642920Y-15758865D01*
X19642920Y-15758865D02*
X19652444Y-15739817D01*
X19652444Y-15739817D02*
X19671492Y-15730293D01*
X19671492Y-15730293D02*
X19719111Y-15730293D01*
X19719111Y-15730293D02*
X19738158Y-15720769D01*
X19804825Y-15673150D02*
X19881015Y-15673150D01*
X19833396Y-15606484D02*
X19833396Y-15777912D01*
X19833396Y-15777912D02*
X19842920Y-15796960D01*
X19842920Y-15796960D02*
X19861968Y-15806484D01*
X19861968Y-15806484D02*
X19881015Y-15806484D01*
X20023873Y-15796960D02*
X20004825Y-15806484D01*
X20004825Y-15806484D02*
X19966730Y-15806484D01*
X19966730Y-15806484D02*
X19947682Y-15796960D01*
X19947682Y-15796960D02*
X19938158Y-15777912D01*
X19938158Y-15777912D02*
X19938158Y-15701722D01*
X19938158Y-15701722D02*
X19947682Y-15682674D01*
X19947682Y-15682674D02*
X19966730Y-15673150D01*
X19966730Y-15673150D02*
X20004825Y-15673150D01*
X20004825Y-15673150D02*
X20023873Y-15682674D01*
X20023873Y-15682674D02*
X20033396Y-15701722D01*
X20033396Y-15701722D02*
X20033396Y-15720769D01*
X20033396Y-15720769D02*
X19938158Y-15739817D01*
X20204825Y-15806484D02*
X20204825Y-15606484D01*
X20204825Y-15796960D02*
X20185777Y-15806484D01*
X20185777Y-15806484D02*
X20147682Y-15806484D01*
X20147682Y-15806484D02*
X20128635Y-15796960D01*
X20128635Y-15796960D02*
X20119111Y-15787436D01*
X20119111Y-15787436D02*
X20109587Y-15768388D01*
X20109587Y-15768388D02*
X20109587Y-15711246D01*
X20109587Y-15711246D02*
X20119111Y-15692198D01*
X20119111Y-15692198D02*
X20128635Y-15682674D01*
X20128635Y-15682674D02*
X20147682Y-15673150D01*
X20147682Y-15673150D02*
X20185777Y-15673150D01*
X20185777Y-15673150D02*
X20204825Y-15682674D01*
X20281016Y-15882674D02*
X20290539Y-15873150D01*
X20290539Y-15873150D02*
X20309587Y-15844579D01*
X20309587Y-15844579D02*
X20319111Y-15825531D01*
X20319111Y-15825531D02*
X20328635Y-15796960D01*
X20328635Y-15796960D02*
X20338158Y-15749341D01*
X20338158Y-15749341D02*
X20338158Y-15711246D01*
X20338158Y-15711246D02*
X20328635Y-15663627D01*
X20328635Y-15663627D02*
X20319111Y-15635055D01*
X20319111Y-15635055D02*
X20309587Y-15616008D01*
X20309587Y-15616008D02*
X20290539Y-15587436D01*
X20290539Y-15587436D02*
X20281016Y-15577912D01*
X13495711Y-16105711D02*
X13495711Y-15964289D01*
X13354289Y-15964289D01*
X13354289Y-16105711D01*
X13495711Y-16105711D01*
X13766729Y-15926484D02*
X13890539Y-15926484D01*
X13890539Y-15926484D02*
X13823872Y-16002674D01*
X13823872Y-16002674D02*
X13852443Y-16002674D01*
X13852443Y-16002674D02*
X13871491Y-16012198D01*
X13871491Y-16012198D02*
X13881015Y-16021722D01*
X13881015Y-16021722D02*
X13890539Y-16040769D01*
X13890539Y-16040769D02*
X13890539Y-16088388D01*
X13890539Y-16088388D02*
X13881015Y-16107436D01*
X13881015Y-16107436D02*
X13871491Y-16116960D01*
X13871491Y-16116960D02*
X13852443Y-16126484D01*
X13852443Y-16126484D02*
X13795301Y-16126484D01*
X13795301Y-16126484D02*
X13776253Y-16116960D01*
X13776253Y-16116960D02*
X13766729Y-16107436D01*
X13976253Y-16107436D02*
X13985777Y-16116960D01*
X13985777Y-16116960D02*
X13976253Y-16126484D01*
X13976253Y-16126484D02*
X13966729Y-16116960D01*
X13966729Y-16116960D02*
X13976253Y-16107436D01*
X13976253Y-16107436D02*
X13976253Y-16126484D01*
X14166729Y-15926484D02*
X14071491Y-15926484D01*
X14071491Y-15926484D02*
X14061967Y-16021722D01*
X14061967Y-16021722D02*
X14071491Y-16012198D01*
X14071491Y-16012198D02*
X14090539Y-16002674D01*
X14090539Y-16002674D02*
X14138158Y-16002674D01*
X14138158Y-16002674D02*
X14157205Y-16012198D01*
X14157205Y-16012198D02*
X14166729Y-16021722D01*
X14166729Y-16021722D02*
X14176253Y-16040769D01*
X14176253Y-16040769D02*
X14176253Y-16088388D01*
X14176253Y-16088388D02*
X14166729Y-16107436D01*
X14166729Y-16107436D02*
X14157205Y-16116960D01*
X14157205Y-16116960D02*
X14138158Y-16126484D01*
X14138158Y-16126484D02*
X14090539Y-16126484D01*
X14090539Y-16126484D02*
X14071491Y-16116960D01*
X14071491Y-16116960D02*
X14061967Y-16107436D01*
X14300062Y-15926484D02*
X14319110Y-15926484D01*
X14319110Y-15926484D02*
X14338158Y-15936008D01*
X14338158Y-15936008D02*
X14347682Y-15945531D01*
X14347682Y-15945531D02*
X14357205Y-15964579D01*
X14357205Y-15964579D02*
X14366729Y-16002674D01*
X14366729Y-16002674D02*
X14366729Y-16050293D01*
X14366729Y-16050293D02*
X14357205Y-16088388D01*
X14357205Y-16088388D02*
X14347682Y-16107436D01*
X14347682Y-16107436D02*
X14338158Y-16116960D01*
X14338158Y-16116960D02*
X14319110Y-16126484D01*
X14319110Y-16126484D02*
X14300062Y-16126484D01*
X14300062Y-16126484D02*
X14281015Y-16116960D01*
X14281015Y-16116960D02*
X14271491Y-16107436D01*
X14271491Y-16107436D02*
X14261967Y-16088388D01*
X14261967Y-16088388D02*
X14252443Y-16050293D01*
X14252443Y-16050293D02*
X14252443Y-16002674D01*
X14252443Y-16002674D02*
X14261967Y-15964579D01*
X14261967Y-15964579D02*
X14271491Y-15945531D01*
X14271491Y-15945531D02*
X14281015Y-15936008D01*
X14281015Y-15936008D02*
X14300062Y-15926484D01*
X14490539Y-15926484D02*
X14509586Y-15926484D01*
X14509586Y-15926484D02*
X14528634Y-15936008D01*
X14528634Y-15936008D02*
X14538158Y-15945531D01*
X14538158Y-15945531D02*
X14547682Y-15964579D01*
X14547682Y-15964579D02*
X14557205Y-16002674D01*
X14557205Y-16002674D02*
X14557205Y-16050293D01*
X14557205Y-16050293D02*
X14547682Y-16088388D01*
X14547682Y-16088388D02*
X14538158Y-16107436D01*
X14538158Y-16107436D02*
X14528634Y-16116960D01*
X14528634Y-16116960D02*
X14509586Y-16126484D01*
X14509586Y-16126484D02*
X14490539Y-16126484D01*
X14490539Y-16126484D02*
X14471491Y-16116960D01*
X14471491Y-16116960D02*
X14461967Y-16107436D01*
X14461967Y-16107436D02*
X14452443Y-16088388D01*
X14452443Y-16088388D02*
X14442920Y-16050293D01*
X14442920Y-16050293D02*
X14442920Y-16002674D01*
X14442920Y-16002674D02*
X14452443Y-15964579D01*
X14452443Y-15964579D02*
X14461967Y-15945531D01*
X14461967Y-15945531D02*
X14471491Y-15936008D01*
X14471491Y-15936008D02*
X14490539Y-15926484D01*
X14642920Y-16126484D02*
X14642920Y-15993150D01*
X14642920Y-16012198D02*
X14652443Y-16002674D01*
X14652443Y-16002674D02*
X14671491Y-15993150D01*
X14671491Y-15993150D02*
X14700063Y-15993150D01*
X14700063Y-15993150D02*
X14719110Y-16002674D01*
X14719110Y-16002674D02*
X14728634Y-16021722D01*
X14728634Y-16021722D02*
X14728634Y-16126484D01*
X14728634Y-16021722D02*
X14738158Y-16002674D01*
X14738158Y-16002674D02*
X14757205Y-15993150D01*
X14757205Y-15993150D02*
X14785777Y-15993150D01*
X14785777Y-15993150D02*
X14804824Y-16002674D01*
X14804824Y-16002674D02*
X14814348Y-16021722D01*
X14814348Y-16021722D02*
X14814348Y-16126484D01*
X14909586Y-16126484D02*
X14909586Y-15993150D01*
X14909586Y-16012198D02*
X14919110Y-16002674D01*
X14919110Y-16002674D02*
X14938158Y-15993150D01*
X14938158Y-15993150D02*
X14966729Y-15993150D01*
X14966729Y-15993150D02*
X14985777Y-16002674D01*
X14985777Y-16002674D02*
X14995301Y-16021722D01*
X14995301Y-16021722D02*
X14995301Y-16126484D01*
X14995301Y-16021722D02*
X15004824Y-16002674D01*
X15004824Y-16002674D02*
X15023872Y-15993150D01*
X15023872Y-15993150D02*
X15052443Y-15993150D01*
X15052443Y-15993150D02*
X15071491Y-16002674D01*
X15071491Y-16002674D02*
X15081015Y-16021722D01*
X15081015Y-16021722D02*
X15081015Y-16126484D01*
X15471491Y-15916960D02*
X15300063Y-16174103D01*
X15728634Y-15926484D02*
X15747682Y-15926484D01*
X15747682Y-15926484D02*
X15766729Y-15936008D01*
X15766729Y-15936008D02*
X15776253Y-15945531D01*
X15776253Y-15945531D02*
X15785777Y-15964579D01*
X15785777Y-15964579D02*
X15795301Y-16002674D01*
X15795301Y-16002674D02*
X15795301Y-16050293D01*
X15795301Y-16050293D02*
X15785777Y-16088388D01*
X15785777Y-16088388D02*
X15776253Y-16107436D01*
X15776253Y-16107436D02*
X15766729Y-16116960D01*
X15766729Y-16116960D02*
X15747682Y-16126484D01*
X15747682Y-16126484D02*
X15728634Y-16126484D01*
X15728634Y-16126484D02*
X15709586Y-16116960D01*
X15709586Y-16116960D02*
X15700063Y-16107436D01*
X15700063Y-16107436D02*
X15690539Y-16088388D01*
X15690539Y-16088388D02*
X15681015Y-16050293D01*
X15681015Y-16050293D02*
X15681015Y-16002674D01*
X15681015Y-16002674D02*
X15690539Y-15964579D01*
X15690539Y-15964579D02*
X15700063Y-15945531D01*
X15700063Y-15945531D02*
X15709586Y-15936008D01*
X15709586Y-15936008D02*
X15728634Y-15926484D01*
X15881015Y-16107436D02*
X15890539Y-16116960D01*
X15890539Y-16116960D02*
X15881015Y-16126484D01*
X15881015Y-16126484D02*
X15871491Y-16116960D01*
X15871491Y-16116960D02*
X15881015Y-16107436D01*
X15881015Y-16107436D02*
X15881015Y-16126484D01*
X16081015Y-16126484D02*
X15966729Y-16126484D01*
X16023872Y-16126484D02*
X16023872Y-15926484D01*
X16023872Y-15926484D02*
X16004825Y-15955055D01*
X16004825Y-15955055D02*
X15985777Y-15974103D01*
X15985777Y-15974103D02*
X15966729Y-15983627D01*
X16147682Y-15926484D02*
X16271491Y-15926484D01*
X16271491Y-15926484D02*
X16204825Y-16002674D01*
X16204825Y-16002674D02*
X16233396Y-16002674D01*
X16233396Y-16002674D02*
X16252444Y-16012198D01*
X16252444Y-16012198D02*
X16261967Y-16021722D01*
X16261967Y-16021722D02*
X16271491Y-16040769D01*
X16271491Y-16040769D02*
X16271491Y-16088388D01*
X16271491Y-16088388D02*
X16261967Y-16107436D01*
X16261967Y-16107436D02*
X16252444Y-16116960D01*
X16252444Y-16116960D02*
X16233396Y-16126484D01*
X16233396Y-16126484D02*
X16176253Y-16126484D01*
X16176253Y-16126484D02*
X16157206Y-16116960D01*
X16157206Y-16116960D02*
X16147682Y-16107436D01*
X16338158Y-15926484D02*
X16471491Y-15926484D01*
X16471491Y-15926484D02*
X16385777Y-16126484D01*
X16576253Y-16012198D02*
X16557206Y-16002674D01*
X16557206Y-16002674D02*
X16547682Y-15993150D01*
X16547682Y-15993150D02*
X16538158Y-15974103D01*
X16538158Y-15974103D02*
X16538158Y-15964579D01*
X16538158Y-15964579D02*
X16547682Y-15945531D01*
X16547682Y-15945531D02*
X16557206Y-15936008D01*
X16557206Y-15936008D02*
X16576253Y-15926484D01*
X16576253Y-15926484D02*
X16614348Y-15926484D01*
X16614348Y-15926484D02*
X16633396Y-15936008D01*
X16633396Y-15936008D02*
X16642920Y-15945531D01*
X16642920Y-15945531D02*
X16652444Y-15964579D01*
X16652444Y-15964579D02*
X16652444Y-15974103D01*
X16652444Y-15974103D02*
X16642920Y-15993150D01*
X16642920Y-15993150D02*
X16633396Y-16002674D01*
X16633396Y-16002674D02*
X16614348Y-16012198D01*
X16614348Y-16012198D02*
X16576253Y-16012198D01*
X16576253Y-16012198D02*
X16557206Y-16021722D01*
X16557206Y-16021722D02*
X16547682Y-16031246D01*
X16547682Y-16031246D02*
X16538158Y-16050293D01*
X16538158Y-16050293D02*
X16538158Y-16088388D01*
X16538158Y-16088388D02*
X16547682Y-16107436D01*
X16547682Y-16107436D02*
X16557206Y-16116960D01*
X16557206Y-16116960D02*
X16576253Y-16126484D01*
X16576253Y-16126484D02*
X16614348Y-16126484D01*
X16614348Y-16126484D02*
X16633396Y-16116960D01*
X16633396Y-16116960D02*
X16642920Y-16107436D01*
X16642920Y-16107436D02*
X16652444Y-16088388D01*
X16652444Y-16088388D02*
X16652444Y-16050293D01*
X16652444Y-16050293D02*
X16642920Y-16031246D01*
X16642920Y-16031246D02*
X16633396Y-16021722D01*
X16633396Y-16021722D02*
X16614348Y-16012198D01*
X16728634Y-15926484D02*
X16728634Y-15964579D01*
X16804825Y-15926484D02*
X16804825Y-15964579D01*
X17100063Y-16202674D02*
X17090539Y-16193150D01*
X17090539Y-16193150D02*
X17071491Y-16164579D01*
X17071491Y-16164579D02*
X17061968Y-16145531D01*
X17061968Y-16145531D02*
X17052444Y-16116960D01*
X17052444Y-16116960D02*
X17042920Y-16069341D01*
X17042920Y-16069341D02*
X17042920Y-16031246D01*
X17042920Y-16031246D02*
X17052444Y-15983627D01*
X17052444Y-15983627D02*
X17061968Y-15955055D01*
X17061968Y-15955055D02*
X17071491Y-15936008D01*
X17071491Y-15936008D02*
X17090539Y-15907436D01*
X17090539Y-15907436D02*
X17100063Y-15897912D01*
X17261968Y-15993150D02*
X17261968Y-16126484D01*
X17214349Y-15916960D02*
X17166730Y-16059817D01*
X17166730Y-16059817D02*
X17290539Y-16059817D01*
X17519111Y-16126484D02*
X17519111Y-15926484D01*
X17604825Y-16126484D02*
X17604825Y-16021722D01*
X17604825Y-16021722D02*
X17595301Y-16002674D01*
X17595301Y-16002674D02*
X17576253Y-15993150D01*
X17576253Y-15993150D02*
X17547682Y-15993150D01*
X17547682Y-15993150D02*
X17528634Y-16002674D01*
X17528634Y-16002674D02*
X17519111Y-16012198D01*
X17728634Y-16126484D02*
X17709587Y-16116960D01*
X17709587Y-16116960D02*
X17700063Y-16107436D01*
X17700063Y-16107436D02*
X17690539Y-16088388D01*
X17690539Y-16088388D02*
X17690539Y-16031246D01*
X17690539Y-16031246D02*
X17700063Y-16012198D01*
X17700063Y-16012198D02*
X17709587Y-16002674D01*
X17709587Y-16002674D02*
X17728634Y-15993150D01*
X17728634Y-15993150D02*
X17757206Y-15993150D01*
X17757206Y-15993150D02*
X17776253Y-16002674D01*
X17776253Y-16002674D02*
X17785777Y-16012198D01*
X17785777Y-16012198D02*
X17795301Y-16031246D01*
X17795301Y-16031246D02*
X17795301Y-16088388D01*
X17795301Y-16088388D02*
X17785777Y-16107436D01*
X17785777Y-16107436D02*
X17776253Y-16116960D01*
X17776253Y-16116960D02*
X17757206Y-16126484D01*
X17757206Y-16126484D02*
X17728634Y-16126484D01*
X17909587Y-16126484D02*
X17890539Y-16116960D01*
X17890539Y-16116960D02*
X17881015Y-16097912D01*
X17881015Y-16097912D02*
X17881015Y-15926484D01*
X18061968Y-16116960D02*
X18042920Y-16126484D01*
X18042920Y-16126484D02*
X18004825Y-16126484D01*
X18004825Y-16126484D02*
X17985777Y-16116960D01*
X17985777Y-16116960D02*
X17976253Y-16097912D01*
X17976253Y-16097912D02*
X17976253Y-16021722D01*
X17976253Y-16021722D02*
X17985777Y-16002674D01*
X17985777Y-16002674D02*
X18004825Y-15993150D01*
X18004825Y-15993150D02*
X18042920Y-15993150D01*
X18042920Y-15993150D02*
X18061968Y-16002674D01*
X18061968Y-16002674D02*
X18071492Y-16021722D01*
X18071492Y-16021722D02*
X18071492Y-16040769D01*
X18071492Y-16040769D02*
X17976253Y-16059817D01*
X18147682Y-16116960D02*
X18166730Y-16126484D01*
X18166730Y-16126484D02*
X18204825Y-16126484D01*
X18204825Y-16126484D02*
X18223873Y-16116960D01*
X18223873Y-16116960D02*
X18233396Y-16097912D01*
X18233396Y-16097912D02*
X18233396Y-16088388D01*
X18233396Y-16088388D02*
X18223873Y-16069341D01*
X18223873Y-16069341D02*
X18204825Y-16059817D01*
X18204825Y-16059817D02*
X18176253Y-16059817D01*
X18176253Y-16059817D02*
X18157206Y-16050293D01*
X18157206Y-16050293D02*
X18147682Y-16031246D01*
X18147682Y-16031246D02*
X18147682Y-16021722D01*
X18147682Y-16021722D02*
X18157206Y-16002674D01*
X18157206Y-16002674D02*
X18176253Y-15993150D01*
X18176253Y-15993150D02*
X18204825Y-15993150D01*
X18204825Y-15993150D02*
X18223873Y-16002674D01*
X18300063Y-16202674D02*
X18309587Y-16193150D01*
X18309587Y-16193150D02*
X18328634Y-16164579D01*
X18328634Y-16164579D02*
X18338158Y-16145531D01*
X18338158Y-16145531D02*
X18347682Y-16116960D01*
X18347682Y-16116960D02*
X18357206Y-16069341D01*
X18357206Y-16069341D02*
X18357206Y-16031246D01*
X18357206Y-16031246D02*
X18347682Y-15983627D01*
X18347682Y-15983627D02*
X18338158Y-15955055D01*
X18338158Y-15955055D02*
X18328634Y-15936008D01*
X18328634Y-15936008D02*
X18309587Y-15907436D01*
X18309587Y-15907436D02*
X18300063Y-15897912D01*
X18661968Y-16202674D02*
X18652444Y-16193150D01*
X18652444Y-16193150D02*
X18633396Y-16164579D01*
X18633396Y-16164579D02*
X18623873Y-16145531D01*
X18623873Y-16145531D02*
X18614349Y-16116960D01*
X18614349Y-16116960D02*
X18604825Y-16069341D01*
X18604825Y-16069341D02*
X18604825Y-16031246D01*
X18604825Y-16031246D02*
X18614349Y-15983627D01*
X18614349Y-15983627D02*
X18623873Y-15955055D01*
X18623873Y-15955055D02*
X18633396Y-15936008D01*
X18633396Y-15936008D02*
X18652444Y-15907436D01*
X18652444Y-15907436D02*
X18661968Y-15897912D01*
X18738158Y-15993150D02*
X18738158Y-16126484D01*
X18738158Y-16012198D02*
X18747682Y-16002674D01*
X18747682Y-16002674D02*
X18766730Y-15993150D01*
X18766730Y-15993150D02*
X18795301Y-15993150D01*
X18795301Y-15993150D02*
X18814349Y-16002674D01*
X18814349Y-16002674D02*
X18823873Y-16021722D01*
X18823873Y-16021722D02*
X18823873Y-16126484D01*
X18947682Y-16126484D02*
X18928634Y-16116960D01*
X18928634Y-16116960D02*
X18919111Y-16107436D01*
X18919111Y-16107436D02*
X18909587Y-16088388D01*
X18909587Y-16088388D02*
X18909587Y-16031246D01*
X18909587Y-16031246D02*
X18919111Y-16012198D01*
X18919111Y-16012198D02*
X18928634Y-16002674D01*
X18928634Y-16002674D02*
X18947682Y-15993150D01*
X18947682Y-15993150D02*
X18976254Y-15993150D01*
X18976254Y-15993150D02*
X18995301Y-16002674D01*
X18995301Y-16002674D02*
X19004825Y-16012198D01*
X19004825Y-16012198D02*
X19014349Y-16031246D01*
X19014349Y-16031246D02*
X19014349Y-16088388D01*
X19014349Y-16088388D02*
X19004825Y-16107436D01*
X19004825Y-16107436D02*
X18995301Y-16116960D01*
X18995301Y-16116960D02*
X18976254Y-16126484D01*
X18976254Y-16126484D02*
X18947682Y-16126484D01*
X19071492Y-15993150D02*
X19147682Y-15993150D01*
X19100063Y-15926484D02*
X19100063Y-16097912D01*
X19100063Y-16097912D02*
X19109587Y-16116960D01*
X19109587Y-16116960D02*
X19128634Y-16126484D01*
X19128634Y-16126484D02*
X19147682Y-16126484D01*
X19366730Y-15993150D02*
X19366730Y-16193150D01*
X19366730Y-16002674D02*
X19385777Y-15993150D01*
X19385777Y-15993150D02*
X19423873Y-15993150D01*
X19423873Y-15993150D02*
X19442920Y-16002674D01*
X19442920Y-16002674D02*
X19452444Y-16012198D01*
X19452444Y-16012198D02*
X19461968Y-16031246D01*
X19461968Y-16031246D02*
X19461968Y-16088388D01*
X19461968Y-16088388D02*
X19452444Y-16107436D01*
X19452444Y-16107436D02*
X19442920Y-16116960D01*
X19442920Y-16116960D02*
X19423873Y-16126484D01*
X19423873Y-16126484D02*
X19385777Y-16126484D01*
X19385777Y-16126484D02*
X19366730Y-16116960D01*
X19576254Y-16126484D02*
X19557206Y-16116960D01*
X19557206Y-16116960D02*
X19547682Y-16097912D01*
X19547682Y-16097912D02*
X19547682Y-15926484D01*
X19738158Y-16126484D02*
X19738158Y-16021722D01*
X19738158Y-16021722D02*
X19728635Y-16002674D01*
X19728635Y-16002674D02*
X19709587Y-15993150D01*
X19709587Y-15993150D02*
X19671492Y-15993150D01*
X19671492Y-15993150D02*
X19652444Y-16002674D01*
X19738158Y-16116960D02*
X19719111Y-16126484D01*
X19719111Y-16126484D02*
X19671492Y-16126484D01*
X19671492Y-16126484D02*
X19652444Y-16116960D01*
X19652444Y-16116960D02*
X19642920Y-16097912D01*
X19642920Y-16097912D02*
X19642920Y-16078865D01*
X19642920Y-16078865D02*
X19652444Y-16059817D01*
X19652444Y-16059817D02*
X19671492Y-16050293D01*
X19671492Y-16050293D02*
X19719111Y-16050293D01*
X19719111Y-16050293D02*
X19738158Y-16040769D01*
X19804825Y-15993150D02*
X19881015Y-15993150D01*
X19833396Y-15926484D02*
X19833396Y-16097912D01*
X19833396Y-16097912D02*
X19842920Y-16116960D01*
X19842920Y-16116960D02*
X19861968Y-16126484D01*
X19861968Y-16126484D02*
X19881015Y-16126484D01*
X20023873Y-16116960D02*
X20004825Y-16126484D01*
X20004825Y-16126484D02*
X19966730Y-16126484D01*
X19966730Y-16126484D02*
X19947682Y-16116960D01*
X19947682Y-16116960D02*
X19938158Y-16097912D01*
X19938158Y-16097912D02*
X19938158Y-16021722D01*
X19938158Y-16021722D02*
X19947682Y-16002674D01*
X19947682Y-16002674D02*
X19966730Y-15993150D01*
X19966730Y-15993150D02*
X20004825Y-15993150D01*
X20004825Y-15993150D02*
X20023873Y-16002674D01*
X20023873Y-16002674D02*
X20033396Y-16021722D01*
X20033396Y-16021722D02*
X20033396Y-16040769D01*
X20033396Y-16040769D02*
X19938158Y-16059817D01*
X20204825Y-16126484D02*
X20204825Y-15926484D01*
X20204825Y-16116960D02*
X20185777Y-16126484D01*
X20185777Y-16126484D02*
X20147682Y-16126484D01*
X20147682Y-16126484D02*
X20128635Y-16116960D01*
X20128635Y-16116960D02*
X20119111Y-16107436D01*
X20119111Y-16107436D02*
X20109587Y-16088388D01*
X20109587Y-16088388D02*
X20109587Y-16031246D01*
X20109587Y-16031246D02*
X20119111Y-16012198D01*
X20119111Y-16012198D02*
X20128635Y-16002674D01*
X20128635Y-16002674D02*
X20147682Y-15993150D01*
X20147682Y-15993150D02*
X20185777Y-15993150D01*
X20185777Y-15993150D02*
X20204825Y-16002674D01*
X20281016Y-16202674D02*
X20290539Y-16193150D01*
X20290539Y-16193150D02*
X20309587Y-16164579D01*
X20309587Y-16164579D02*
X20319111Y-16145531D01*
X20319111Y-16145531D02*
X20328635Y-16116960D01*
X20328635Y-16116960D02*
X20338158Y-16069341D01*
X20338158Y-16069341D02*
X20338158Y-16031246D01*
X20338158Y-16031246D02*
X20328635Y-15983627D01*
X20328635Y-15983627D02*
X20319111Y-15955055D01*
X20319111Y-15955055D02*
X20309587Y-15936008D01*
X20309587Y-15936008D02*
X20290539Y-15907436D01*
X20290539Y-15907436D02*
X20281016Y-15897912D01*
X13425000Y-16455000D02*
X13525000Y-16355000D01*
X13425000Y-16255000D01*
X13325000Y-16355000D01*
X13425000Y-16455000D01*
X13871491Y-16313150D02*
X13871491Y-16446484D01*
X13823872Y-16236960D02*
X13776253Y-16379817D01*
X13776253Y-16379817D02*
X13900062Y-16379817D01*
X13976253Y-16427436D02*
X13985777Y-16436960D01*
X13985777Y-16436960D02*
X13976253Y-16446484D01*
X13976253Y-16446484D02*
X13966729Y-16436960D01*
X13966729Y-16436960D02*
X13976253Y-16427436D01*
X13976253Y-16427436D02*
X13976253Y-16446484D01*
X14166729Y-16246484D02*
X14071491Y-16246484D01*
X14071491Y-16246484D02*
X14061967Y-16341722D01*
X14061967Y-16341722D02*
X14071491Y-16332198D01*
X14071491Y-16332198D02*
X14090539Y-16322674D01*
X14090539Y-16322674D02*
X14138158Y-16322674D01*
X14138158Y-16322674D02*
X14157205Y-16332198D01*
X14157205Y-16332198D02*
X14166729Y-16341722D01*
X14166729Y-16341722D02*
X14176253Y-16360769D01*
X14176253Y-16360769D02*
X14176253Y-16408388D01*
X14176253Y-16408388D02*
X14166729Y-16427436D01*
X14166729Y-16427436D02*
X14157205Y-16436960D01*
X14157205Y-16436960D02*
X14138158Y-16446484D01*
X14138158Y-16446484D02*
X14090539Y-16446484D01*
X14090539Y-16446484D02*
X14071491Y-16436960D01*
X14071491Y-16436960D02*
X14061967Y-16427436D01*
X14300062Y-16246484D02*
X14319110Y-16246484D01*
X14319110Y-16246484D02*
X14338158Y-16256008D01*
X14338158Y-16256008D02*
X14347682Y-16265531D01*
X14347682Y-16265531D02*
X14357205Y-16284579D01*
X14357205Y-16284579D02*
X14366729Y-16322674D01*
X14366729Y-16322674D02*
X14366729Y-16370293D01*
X14366729Y-16370293D02*
X14357205Y-16408388D01*
X14357205Y-16408388D02*
X14347682Y-16427436D01*
X14347682Y-16427436D02*
X14338158Y-16436960D01*
X14338158Y-16436960D02*
X14319110Y-16446484D01*
X14319110Y-16446484D02*
X14300062Y-16446484D01*
X14300062Y-16446484D02*
X14281015Y-16436960D01*
X14281015Y-16436960D02*
X14271491Y-16427436D01*
X14271491Y-16427436D02*
X14261967Y-16408388D01*
X14261967Y-16408388D02*
X14252443Y-16370293D01*
X14252443Y-16370293D02*
X14252443Y-16322674D01*
X14252443Y-16322674D02*
X14261967Y-16284579D01*
X14261967Y-16284579D02*
X14271491Y-16265531D01*
X14271491Y-16265531D02*
X14281015Y-16256008D01*
X14281015Y-16256008D02*
X14300062Y-16246484D01*
X14490539Y-16246484D02*
X14509586Y-16246484D01*
X14509586Y-16246484D02*
X14528634Y-16256008D01*
X14528634Y-16256008D02*
X14538158Y-16265531D01*
X14538158Y-16265531D02*
X14547682Y-16284579D01*
X14547682Y-16284579D02*
X14557205Y-16322674D01*
X14557205Y-16322674D02*
X14557205Y-16370293D01*
X14557205Y-16370293D02*
X14547682Y-16408388D01*
X14547682Y-16408388D02*
X14538158Y-16427436D01*
X14538158Y-16427436D02*
X14528634Y-16436960D01*
X14528634Y-16436960D02*
X14509586Y-16446484D01*
X14509586Y-16446484D02*
X14490539Y-16446484D01*
X14490539Y-16446484D02*
X14471491Y-16436960D01*
X14471491Y-16436960D02*
X14461967Y-16427436D01*
X14461967Y-16427436D02*
X14452443Y-16408388D01*
X14452443Y-16408388D02*
X14442920Y-16370293D01*
X14442920Y-16370293D02*
X14442920Y-16322674D01*
X14442920Y-16322674D02*
X14452443Y-16284579D01*
X14452443Y-16284579D02*
X14461967Y-16265531D01*
X14461967Y-16265531D02*
X14471491Y-16256008D01*
X14471491Y-16256008D02*
X14490539Y-16246484D01*
X14642920Y-16446484D02*
X14642920Y-16313150D01*
X14642920Y-16332198D02*
X14652443Y-16322674D01*
X14652443Y-16322674D02*
X14671491Y-16313150D01*
X14671491Y-16313150D02*
X14700063Y-16313150D01*
X14700063Y-16313150D02*
X14719110Y-16322674D01*
X14719110Y-16322674D02*
X14728634Y-16341722D01*
X14728634Y-16341722D02*
X14728634Y-16446484D01*
X14728634Y-16341722D02*
X14738158Y-16322674D01*
X14738158Y-16322674D02*
X14757205Y-16313150D01*
X14757205Y-16313150D02*
X14785777Y-16313150D01*
X14785777Y-16313150D02*
X14804824Y-16322674D01*
X14804824Y-16322674D02*
X14814348Y-16341722D01*
X14814348Y-16341722D02*
X14814348Y-16446484D01*
X14909586Y-16446484D02*
X14909586Y-16313150D01*
X14909586Y-16332198D02*
X14919110Y-16322674D01*
X14919110Y-16322674D02*
X14938158Y-16313150D01*
X14938158Y-16313150D02*
X14966729Y-16313150D01*
X14966729Y-16313150D02*
X14985777Y-16322674D01*
X14985777Y-16322674D02*
X14995301Y-16341722D01*
X14995301Y-16341722D02*
X14995301Y-16446484D01*
X14995301Y-16341722D02*
X15004824Y-16322674D01*
X15004824Y-16322674D02*
X15023872Y-16313150D01*
X15023872Y-16313150D02*
X15052443Y-16313150D01*
X15052443Y-16313150D02*
X15071491Y-16322674D01*
X15071491Y-16322674D02*
X15081015Y-16341722D01*
X15081015Y-16341722D02*
X15081015Y-16446484D01*
X15471491Y-16236960D02*
X15300063Y-16494103D01*
X15728634Y-16246484D02*
X15747682Y-16246484D01*
X15747682Y-16246484D02*
X15766729Y-16256008D01*
X15766729Y-16256008D02*
X15776253Y-16265531D01*
X15776253Y-16265531D02*
X15785777Y-16284579D01*
X15785777Y-16284579D02*
X15795301Y-16322674D01*
X15795301Y-16322674D02*
X15795301Y-16370293D01*
X15795301Y-16370293D02*
X15785777Y-16408388D01*
X15785777Y-16408388D02*
X15776253Y-16427436D01*
X15776253Y-16427436D02*
X15766729Y-16436960D01*
X15766729Y-16436960D02*
X15747682Y-16446484D01*
X15747682Y-16446484D02*
X15728634Y-16446484D01*
X15728634Y-16446484D02*
X15709586Y-16436960D01*
X15709586Y-16436960D02*
X15700063Y-16427436D01*
X15700063Y-16427436D02*
X15690539Y-16408388D01*
X15690539Y-16408388D02*
X15681015Y-16370293D01*
X15681015Y-16370293D02*
X15681015Y-16322674D01*
X15681015Y-16322674D02*
X15690539Y-16284579D01*
X15690539Y-16284579D02*
X15700063Y-16265531D01*
X15700063Y-16265531D02*
X15709586Y-16256008D01*
X15709586Y-16256008D02*
X15728634Y-16246484D01*
X15881015Y-16427436D02*
X15890539Y-16436960D01*
X15890539Y-16436960D02*
X15881015Y-16446484D01*
X15881015Y-16446484D02*
X15871491Y-16436960D01*
X15871491Y-16436960D02*
X15881015Y-16427436D01*
X15881015Y-16427436D02*
X15881015Y-16446484D01*
X16081015Y-16446484D02*
X15966729Y-16446484D01*
X16023872Y-16446484D02*
X16023872Y-16246484D01*
X16023872Y-16246484D02*
X16004825Y-16275055D01*
X16004825Y-16275055D02*
X15985777Y-16294103D01*
X15985777Y-16294103D02*
X15966729Y-16303627D01*
X16147682Y-16246484D02*
X16281015Y-16246484D01*
X16281015Y-16246484D02*
X16195301Y-16446484D01*
X16338158Y-16246484D02*
X16471491Y-16246484D01*
X16471491Y-16246484D02*
X16385777Y-16446484D01*
X16538158Y-16265531D02*
X16547682Y-16256008D01*
X16547682Y-16256008D02*
X16566729Y-16246484D01*
X16566729Y-16246484D02*
X16614348Y-16246484D01*
X16614348Y-16246484D02*
X16633396Y-16256008D01*
X16633396Y-16256008D02*
X16642920Y-16265531D01*
X16642920Y-16265531D02*
X16652444Y-16284579D01*
X16652444Y-16284579D02*
X16652444Y-16303627D01*
X16652444Y-16303627D02*
X16642920Y-16332198D01*
X16642920Y-16332198D02*
X16528634Y-16446484D01*
X16528634Y-16446484D02*
X16652444Y-16446484D01*
X16728634Y-16246484D02*
X16728634Y-16284579D01*
X16804825Y-16246484D02*
X16804825Y-16284579D01*
X17100063Y-16522674D02*
X17090539Y-16513150D01*
X17090539Y-16513150D02*
X17071491Y-16484579D01*
X17071491Y-16484579D02*
X17061968Y-16465531D01*
X17061968Y-16465531D02*
X17052444Y-16436960D01*
X17052444Y-16436960D02*
X17042920Y-16389341D01*
X17042920Y-16389341D02*
X17042920Y-16351246D01*
X17042920Y-16351246D02*
X17052444Y-16303627D01*
X17052444Y-16303627D02*
X17061968Y-16275055D01*
X17061968Y-16275055D02*
X17071491Y-16256008D01*
X17071491Y-16256008D02*
X17090539Y-16227436D01*
X17090539Y-16227436D02*
X17100063Y-16217912D01*
X17261968Y-16313150D02*
X17261968Y-16446484D01*
X17214349Y-16236960D02*
X17166730Y-16379817D01*
X17166730Y-16379817D02*
X17290539Y-16379817D01*
X17519111Y-16446484D02*
X17519111Y-16246484D01*
X17604825Y-16446484D02*
X17604825Y-16341722D01*
X17604825Y-16341722D02*
X17595301Y-16322674D01*
X17595301Y-16322674D02*
X17576253Y-16313150D01*
X17576253Y-16313150D02*
X17547682Y-16313150D01*
X17547682Y-16313150D02*
X17528634Y-16322674D01*
X17528634Y-16322674D02*
X17519111Y-16332198D01*
X17728634Y-16446484D02*
X17709587Y-16436960D01*
X17709587Y-16436960D02*
X17700063Y-16427436D01*
X17700063Y-16427436D02*
X17690539Y-16408388D01*
X17690539Y-16408388D02*
X17690539Y-16351246D01*
X17690539Y-16351246D02*
X17700063Y-16332198D01*
X17700063Y-16332198D02*
X17709587Y-16322674D01*
X17709587Y-16322674D02*
X17728634Y-16313150D01*
X17728634Y-16313150D02*
X17757206Y-16313150D01*
X17757206Y-16313150D02*
X17776253Y-16322674D01*
X17776253Y-16322674D02*
X17785777Y-16332198D01*
X17785777Y-16332198D02*
X17795301Y-16351246D01*
X17795301Y-16351246D02*
X17795301Y-16408388D01*
X17795301Y-16408388D02*
X17785777Y-16427436D01*
X17785777Y-16427436D02*
X17776253Y-16436960D01*
X17776253Y-16436960D02*
X17757206Y-16446484D01*
X17757206Y-16446484D02*
X17728634Y-16446484D01*
X17909587Y-16446484D02*
X17890539Y-16436960D01*
X17890539Y-16436960D02*
X17881015Y-16417912D01*
X17881015Y-16417912D02*
X17881015Y-16246484D01*
X18061968Y-16436960D02*
X18042920Y-16446484D01*
X18042920Y-16446484D02*
X18004825Y-16446484D01*
X18004825Y-16446484D02*
X17985777Y-16436960D01*
X17985777Y-16436960D02*
X17976253Y-16417912D01*
X17976253Y-16417912D02*
X17976253Y-16341722D01*
X17976253Y-16341722D02*
X17985777Y-16322674D01*
X17985777Y-16322674D02*
X18004825Y-16313150D01*
X18004825Y-16313150D02*
X18042920Y-16313150D01*
X18042920Y-16313150D02*
X18061968Y-16322674D01*
X18061968Y-16322674D02*
X18071492Y-16341722D01*
X18071492Y-16341722D02*
X18071492Y-16360769D01*
X18071492Y-16360769D02*
X17976253Y-16379817D01*
X18147682Y-16436960D02*
X18166730Y-16446484D01*
X18166730Y-16446484D02*
X18204825Y-16446484D01*
X18204825Y-16446484D02*
X18223873Y-16436960D01*
X18223873Y-16436960D02*
X18233396Y-16417912D01*
X18233396Y-16417912D02*
X18233396Y-16408388D01*
X18233396Y-16408388D02*
X18223873Y-16389341D01*
X18223873Y-16389341D02*
X18204825Y-16379817D01*
X18204825Y-16379817D02*
X18176253Y-16379817D01*
X18176253Y-16379817D02*
X18157206Y-16370293D01*
X18157206Y-16370293D02*
X18147682Y-16351246D01*
X18147682Y-16351246D02*
X18147682Y-16341722D01*
X18147682Y-16341722D02*
X18157206Y-16322674D01*
X18157206Y-16322674D02*
X18176253Y-16313150D01*
X18176253Y-16313150D02*
X18204825Y-16313150D01*
X18204825Y-16313150D02*
X18223873Y-16322674D01*
X18300063Y-16522674D02*
X18309587Y-16513150D01*
X18309587Y-16513150D02*
X18328634Y-16484579D01*
X18328634Y-16484579D02*
X18338158Y-16465531D01*
X18338158Y-16465531D02*
X18347682Y-16436960D01*
X18347682Y-16436960D02*
X18357206Y-16389341D01*
X18357206Y-16389341D02*
X18357206Y-16351246D01*
X18357206Y-16351246D02*
X18347682Y-16303627D01*
X18347682Y-16303627D02*
X18338158Y-16275055D01*
X18338158Y-16275055D02*
X18328634Y-16256008D01*
X18328634Y-16256008D02*
X18309587Y-16227436D01*
X18309587Y-16227436D02*
X18300063Y-16217912D01*
X18661968Y-16522674D02*
X18652444Y-16513150D01*
X18652444Y-16513150D02*
X18633396Y-16484579D01*
X18633396Y-16484579D02*
X18623873Y-16465531D01*
X18623873Y-16465531D02*
X18614349Y-16436960D01*
X18614349Y-16436960D02*
X18604825Y-16389341D01*
X18604825Y-16389341D02*
X18604825Y-16351246D01*
X18604825Y-16351246D02*
X18614349Y-16303627D01*
X18614349Y-16303627D02*
X18623873Y-16275055D01*
X18623873Y-16275055D02*
X18633396Y-16256008D01*
X18633396Y-16256008D02*
X18652444Y-16227436D01*
X18652444Y-16227436D02*
X18661968Y-16217912D01*
X18738158Y-16313150D02*
X18738158Y-16446484D01*
X18738158Y-16332198D02*
X18747682Y-16322674D01*
X18747682Y-16322674D02*
X18766730Y-16313150D01*
X18766730Y-16313150D02*
X18795301Y-16313150D01*
X18795301Y-16313150D02*
X18814349Y-16322674D01*
X18814349Y-16322674D02*
X18823873Y-16341722D01*
X18823873Y-16341722D02*
X18823873Y-16446484D01*
X18947682Y-16446484D02*
X18928634Y-16436960D01*
X18928634Y-16436960D02*
X18919111Y-16427436D01*
X18919111Y-16427436D02*
X18909587Y-16408388D01*
X18909587Y-16408388D02*
X18909587Y-16351246D01*
X18909587Y-16351246D02*
X18919111Y-16332198D01*
X18919111Y-16332198D02*
X18928634Y-16322674D01*
X18928634Y-16322674D02*
X18947682Y-16313150D01*
X18947682Y-16313150D02*
X18976254Y-16313150D01*
X18976254Y-16313150D02*
X18995301Y-16322674D01*
X18995301Y-16322674D02*
X19004825Y-16332198D01*
X19004825Y-16332198D02*
X19014349Y-16351246D01*
X19014349Y-16351246D02*
X19014349Y-16408388D01*
X19014349Y-16408388D02*
X19004825Y-16427436D01*
X19004825Y-16427436D02*
X18995301Y-16436960D01*
X18995301Y-16436960D02*
X18976254Y-16446484D01*
X18976254Y-16446484D02*
X18947682Y-16446484D01*
X19071492Y-16313150D02*
X19147682Y-16313150D01*
X19100063Y-16246484D02*
X19100063Y-16417912D01*
X19100063Y-16417912D02*
X19109587Y-16436960D01*
X19109587Y-16436960D02*
X19128634Y-16446484D01*
X19128634Y-16446484D02*
X19147682Y-16446484D01*
X19366730Y-16313150D02*
X19366730Y-16513150D01*
X19366730Y-16322674D02*
X19385777Y-16313150D01*
X19385777Y-16313150D02*
X19423873Y-16313150D01*
X19423873Y-16313150D02*
X19442920Y-16322674D01*
X19442920Y-16322674D02*
X19452444Y-16332198D01*
X19452444Y-16332198D02*
X19461968Y-16351246D01*
X19461968Y-16351246D02*
X19461968Y-16408388D01*
X19461968Y-16408388D02*
X19452444Y-16427436D01*
X19452444Y-16427436D02*
X19442920Y-16436960D01*
X19442920Y-16436960D02*
X19423873Y-16446484D01*
X19423873Y-16446484D02*
X19385777Y-16446484D01*
X19385777Y-16446484D02*
X19366730Y-16436960D01*
X19576254Y-16446484D02*
X19557206Y-16436960D01*
X19557206Y-16436960D02*
X19547682Y-16417912D01*
X19547682Y-16417912D02*
X19547682Y-16246484D01*
X19738158Y-16446484D02*
X19738158Y-16341722D01*
X19738158Y-16341722D02*
X19728635Y-16322674D01*
X19728635Y-16322674D02*
X19709587Y-16313150D01*
X19709587Y-16313150D02*
X19671492Y-16313150D01*
X19671492Y-16313150D02*
X19652444Y-16322674D01*
X19738158Y-16436960D02*
X19719111Y-16446484D01*
X19719111Y-16446484D02*
X19671492Y-16446484D01*
X19671492Y-16446484D02*
X19652444Y-16436960D01*
X19652444Y-16436960D02*
X19642920Y-16417912D01*
X19642920Y-16417912D02*
X19642920Y-16398865D01*
X19642920Y-16398865D02*
X19652444Y-16379817D01*
X19652444Y-16379817D02*
X19671492Y-16370293D01*
X19671492Y-16370293D02*
X19719111Y-16370293D01*
X19719111Y-16370293D02*
X19738158Y-16360769D01*
X19804825Y-16313150D02*
X19881015Y-16313150D01*
X19833396Y-16246484D02*
X19833396Y-16417912D01*
X19833396Y-16417912D02*
X19842920Y-16436960D01*
X19842920Y-16436960D02*
X19861968Y-16446484D01*
X19861968Y-16446484D02*
X19881015Y-16446484D01*
X20023873Y-16436960D02*
X20004825Y-16446484D01*
X20004825Y-16446484D02*
X19966730Y-16446484D01*
X19966730Y-16446484D02*
X19947682Y-16436960D01*
X19947682Y-16436960D02*
X19938158Y-16417912D01*
X19938158Y-16417912D02*
X19938158Y-16341722D01*
X19938158Y-16341722D02*
X19947682Y-16322674D01*
X19947682Y-16322674D02*
X19966730Y-16313150D01*
X19966730Y-16313150D02*
X20004825Y-16313150D01*
X20004825Y-16313150D02*
X20023873Y-16322674D01*
X20023873Y-16322674D02*
X20033396Y-16341722D01*
X20033396Y-16341722D02*
X20033396Y-16360769D01*
X20033396Y-16360769D02*
X19938158Y-16379817D01*
X20204825Y-16446484D02*
X20204825Y-16246484D01*
X20204825Y-16436960D02*
X20185777Y-16446484D01*
X20185777Y-16446484D02*
X20147682Y-16446484D01*
X20147682Y-16446484D02*
X20128635Y-16436960D01*
X20128635Y-16436960D02*
X20119111Y-16427436D01*
X20119111Y-16427436D02*
X20109587Y-16408388D01*
X20109587Y-16408388D02*
X20109587Y-16351246D01*
X20109587Y-16351246D02*
X20119111Y-16332198D01*
X20119111Y-16332198D02*
X20128635Y-16322674D01*
X20128635Y-16322674D02*
X20147682Y-16313150D01*
X20147682Y-16313150D02*
X20185777Y-16313150D01*
X20185777Y-16313150D02*
X20204825Y-16322674D01*
X20281016Y-16522674D02*
X20290539Y-16513150D01*
X20290539Y-16513150D02*
X20309587Y-16484579D01*
X20309587Y-16484579D02*
X20319111Y-16465531D01*
X20319111Y-16465531D02*
X20328635Y-16436960D01*
X20328635Y-16436960D02*
X20338158Y-16389341D01*
X20338158Y-16389341D02*
X20338158Y-16351246D01*
X20338158Y-16351246D02*
X20328635Y-16303627D01*
X20328635Y-16303627D02*
X20319111Y-16275055D01*
X20319111Y-16275055D02*
X20309587Y-16256008D01*
X20309587Y-16256008D02*
X20290539Y-16227436D01*
X20290539Y-16227436D02*
X20281016Y-16217912D01*
M02*
