%TF.GenerationSoftware,KiCad,Pcbnew,9.0.2+dfsg-1*%
%TF.CreationDate,2025-07-08T11:28:32+01:00*%
%TF.ProjectId,low-noise-power-probe-panel,6c6f772d-6e6f-4697-9365-2d706f776572,rev?*%
%TF.SameCoordinates,Original*%
%TF.FileFunction,Copper,L3,Inr*%
%TF.FilePolarity,Positive*%
%FSLAX46Y46*%
G04 Gerber Fmt 4.6, Leading zero omitted, Abs format (unit mm)*
G04 Created by KiCad (PCBNEW 9.0.2+dfsg-1) date 2025-07-08 11:28:32*
%MOMM*%
%LPD*%
G01*
G04 APERTURE LIST*
G04 Aperture macros list*
%AMRoundRect*
0 Rectangle with rounded corners*
0 $1 Rounding radius*
0 $2 $3 $4 $5 $6 $7 $8 $9 X,Y pos of 4 corners*
0 Add a 4 corners polygon primitive as box body*
4,1,4,$2,$3,$4,$5,$6,$7,$8,$9,$2,$3,0*
0 Add four circle primitives for the rounded corners*
1,1,$1+$1,$2,$3*
1,1,$1+$1,$4,$5*
1,1,$1+$1,$6,$7*
1,1,$1+$1,$8,$9*
0 Add four rect primitives between the rounded corners*
20,1,$1+$1,$2,$3,$4,$5,0*
20,1,$1+$1,$4,$5,$6,$7,0*
20,1,$1+$1,$6,$7,$8,$9,0*
20,1,$1+$1,$8,$9,$2,$3,0*%
G04 Aperture macros list end*
%ADD10C,0.150000*%
%TA.AperFunction,NonConductor*%
%ADD11C,0.150000*%
%TD*%
%TA.AperFunction,ComponentPad*%
%ADD12C,3.000000*%
%TD*%
%TA.AperFunction,ComponentPad*%
%ADD13O,3.000000X2.000000*%
%TD*%
%TA.AperFunction,ComponentPad*%
%ADD14C,2.250000*%
%TD*%
%TA.AperFunction,ComponentPad*%
%ADD15O,1.100000X2.100000*%
%TD*%
%TA.AperFunction,ComponentPad*%
%ADD16O,1.100000X2.600000*%
%TD*%
%TA.AperFunction,ComponentPad*%
%ADD17R,3.500000X3.500000*%
%TD*%
%TA.AperFunction,ComponentPad*%
%ADD18RoundRect,0.750000X-1.000000X0.750000X-1.000000X-0.750000X1.000000X-0.750000X1.000000X0.750000X0*%
%TD*%
%TA.AperFunction,ComponentPad*%
%ADD19RoundRect,0.875000X-0.875000X0.875000X-0.875000X-0.875000X0.875000X-0.875000X0.875000X0.875000X0*%
%TD*%
%TA.AperFunction,ComponentPad*%
%ADD20C,3.700000*%
%TD*%
%TA.AperFunction,ComponentPad*%
%ADD21C,2.000000*%
%TD*%
%TA.AperFunction,ViaPad*%
%ADD22C,0.550000*%
%TD*%
%TA.AperFunction,Conductor*%
%ADD23C,0.300000*%
%TD*%
%TA.AperFunction,Conductor*%
%ADD24C,0.152000*%
%TD*%
%TA.AperFunction,Conductor*%
%ADD25C,0.157000*%
%TD*%
%TA.AperFunction,Conductor*%
%ADD26C,0.500000*%
%TD*%
G04 APERTURE END LIST*
D10*
D11*
X176833333Y-27254819D02*
X176357143Y-27254819D01*
X176357143Y-27254819D02*
X176357143Y-26254819D01*
X177071429Y-26254819D02*
X177690476Y-26254819D01*
X177690476Y-26254819D02*
X177357143Y-26635771D01*
X177357143Y-26635771D02*
X177500000Y-26635771D01*
X177500000Y-26635771D02*
X177595238Y-26683390D01*
X177595238Y-26683390D02*
X177642857Y-26731009D01*
X177642857Y-26731009D02*
X177690476Y-26826247D01*
X177690476Y-26826247D02*
X177690476Y-27064342D01*
X177690476Y-27064342D02*
X177642857Y-27159580D01*
X177642857Y-27159580D02*
X177595238Y-27207200D01*
X177595238Y-27207200D02*
X177500000Y-27254819D01*
X177500000Y-27254819D02*
X177214286Y-27254819D01*
X177214286Y-27254819D02*
X177119048Y-27207200D01*
X177119048Y-27207200D02*
X177071429Y-27159580D01*
D12*
%TO.N,Board_0-/+V_BATCHG*%
%TO.C,SW1*%
X238300000Y-124120000D03*
%TO.N,Board_0-/+V_BAT_D*%
X233600000Y-124120000D03*
%TO.N,Board_0-/+V_BAT*%
X228900000Y-124120000D03*
%TO.N,Board_0-/USB_VGND*%
X238300000Y-120310000D03*
%TO.N,Board_0-/-V_BAT_L*%
X233600000Y-120310000D03*
%TO.N,Board_0-/-V_BAT*%
X228900000Y-120310000D03*
%TO.N,Board_0-/MID_BATCHG*%
X238300000Y-116500000D03*
%TO.N,Board_0-/MID_BAT_D*%
X233600000Y-116500000D03*
%TO.N,Board_0-/PROBE_VGND*%
X228900000Y-116500000D03*
D13*
%TO.N,N/C*%
X231060000Y-138470000D03*
X236140000Y-138470000D03*
%TD*%
%TO.N,Board_0-Net-(R16-Pad2)*%
%TO.C,RV1*%
X183900000Y-136325000D03*
%TO.N,Board_0-Net-(R5-Pad2)*%
X180900000Y-124025000D03*
%TO.N,Board_0-Net-(R17-Pad1)*%
X183900000Y-126325000D03*
%TD*%
D14*
%TO.N,Board_0-Net-(J1-In)*%
%TO.C,J1*%
X198100000Y-134775000D03*
%TO.N,Board_0-/PROBE_VGND*%
X200640000Y-137315000D03*
X200640000Y-132235000D03*
X195560000Y-137315000D03*
X195560000Y-132235000D03*
%TD*%
D15*
%TO.N,Board_0-/USB_VGND*%
%TO.C,J4*%
X225429483Y-32125000D03*
D16*
X225429483Y-26765000D03*
D15*
X216789483Y-32125000D03*
D16*
X216789483Y-26765000D03*
%TD*%
D17*
%TO.N,Board_0-Net-(F1-Pad1)*%
%TO.C,J3*%
X234600000Y-38775000D03*
D18*
%TO.N,Board_0-/USB_VGND*%
X234600000Y-32775000D03*
D19*
%TO.N,Board_0-unconnected-(J3-Pad3)*%
X229900000Y-35775000D03*
%TD*%
D20*
%TO.N,Board_0-Net-(BT1A-+)*%
%TO.C,BT1*%
X189150000Y-111250000D03*
%TO.N,Board_0-/MID_BAT_D*%
X189150000Y-38900000D03*
%TO.N,Board_0-Net-(BT1B--)*%
X208250000Y-111250000D03*
%TO.N,Board_0-/MID_BAT_D*%
X208250000Y-38900000D03*
%TD*%
D14*
%TO.N,Board_0-Net-(J2-In)*%
%TO.C,J2*%
X216100000Y-134735000D03*
%TO.N,Board_0-/PROBE_VGND*%
X218640000Y-137275000D03*
X218640000Y-132195000D03*
X213560000Y-137275000D03*
X213560000Y-132195000D03*
%TD*%
D21*
%TO.N,Board_0-/USB_VGND*%
%TO.C,TP21*%
X226000000Y-35000000D03*
%TD*%
D22*
%TO.N,Board_0-+2V5*%
X202300000Y-125175000D03*
X209500000Y-125175000D03*
%TO.N,Board_0--2V5*%
X215425000Y-122750000D03*
X208400000Y-122775000D03*
%TO.N,Board_0-/+V_BAT*%
X201920000Y-116591628D03*
X204100000Y-116375000D03*
%TO.N,Board_0-/+V_BATCHG*%
X236000000Y-87175000D03*
X228600000Y-83575000D03*
%TO.N,Board_0-/+V_BAT_D*%
X190850000Y-104575000D03*
X207000000Y-102685000D03*
%TO.N,Board_0-/-V_BAT*%
X214625000Y-116500000D03*
%TO.N,Board_0-/-V_BAT_L*%
X203600000Y-98325000D03*
X210890000Y-95425000D03*
%TO.N,Board_0-/CHARGE_STAT*%
X212675000Y-30100000D03*
X214800000Y-45700000D03*
%TO.N,Board_0-/MID_BATCHG*%
X241700000Y-79675000D03*
%TO.N,Board_0-/MID_BAT_D*%
X204400000Y-102685000D03*
%TO.N,Board_0-/PROBE_VGND*%
X192865476Y-91825000D03*
X197865476Y-96825000D03*
X242200000Y-96825000D03*
X227865476Y-111825000D03*
X192865476Y-101825000D03*
X212150000Y-115975000D03*
X207865476Y-91825000D03*
X212075000Y-117525000D03*
X242200000Y-106825000D03*
X177600000Y-106825000D03*
X237865476Y-91825000D03*
X215425000Y-121800000D03*
X232865476Y-106825000D03*
X227900000Y-135775000D03*
X177600000Y-101825000D03*
X177600000Y-96825000D03*
X237865476Y-101825000D03*
X216800000Y-124375000D03*
X180600000Y-114775000D03*
X183500000Y-122875000D03*
X192850000Y-138700000D03*
X202850000Y-138700000D03*
X189600000Y-138700000D03*
X177550000Y-128700000D03*
X212865476Y-91825000D03*
X212850000Y-111775000D03*
X185575000Y-130475000D03*
X242200000Y-111825000D03*
X182865476Y-131825000D03*
X192850000Y-135775000D03*
X180600000Y-119125000D03*
X208404972Y-121825000D03*
X232500000Y-136900000D03*
X222865476Y-106775000D03*
X222865476Y-91825000D03*
X212800000Y-125175000D03*
X197865476Y-91825000D03*
X232865476Y-96825000D03*
X187865476Y-91825000D03*
X207850000Y-135775000D03*
X222865476Y-101825000D03*
X242200000Y-101825000D03*
X227865476Y-96825000D03*
X182865476Y-91825000D03*
X237600000Y-131100000D03*
X189600000Y-135775000D03*
X202865476Y-91825000D03*
X205400000Y-125175000D03*
X187927000Y-128465056D03*
X226100000Y-110500000D03*
X235200000Y-136900000D03*
X187865476Y-96825000D03*
X217865476Y-96825000D03*
X237865476Y-106825000D03*
X223500000Y-113100000D03*
X224800000Y-130300000D03*
X177600000Y-111825000D03*
X192865476Y-96825000D03*
X222900000Y-135775000D03*
X222900000Y-138700000D03*
X177550000Y-138700000D03*
X242200000Y-91825000D03*
X207850000Y-138700000D03*
X227865476Y-101825000D03*
X180600000Y-134775000D03*
X197800000Y-120775000D03*
X186300000Y-122875000D03*
X227865476Y-131825000D03*
X217865476Y-91825000D03*
X242200000Y-126825000D03*
X226700000Y-121475000D03*
X227865476Y-91825000D03*
X202850000Y-111775000D03*
X217850000Y-106775000D03*
X227900000Y-138700000D03*
X197850000Y-111775000D03*
X182865476Y-106825000D03*
X232865476Y-111825000D03*
X182865476Y-101825000D03*
X182865476Y-111825000D03*
X177550000Y-123700000D03*
X225600000Y-114775000D03*
X182865476Y-96825000D03*
X185600000Y-114775000D03*
X222865476Y-96825000D03*
X192850000Y-111775000D03*
X216800000Y-123175000D03*
X185600000Y-119125000D03*
X187865476Y-101825000D03*
X237865476Y-136825000D03*
X227865476Y-106825000D03*
X216700000Y-117500000D03*
X232865476Y-101825000D03*
X217200000Y-125575000D03*
X207865476Y-131825000D03*
X242200000Y-136825000D03*
X193100000Y-118750000D03*
X202850000Y-135775000D03*
X237865476Y-96825000D03*
X236000000Y-125700000D03*
X232865476Y-91825000D03*
X235400000Y-131100000D03*
X207850000Y-115275000D03*
X240600000Y-134500000D03*
X180600000Y-129775000D03*
X177600000Y-91825000D03*
X239600000Y-126700000D03*
X221100000Y-112800000D03*
%TO.N,Board_0-/USB_CC1*%
X221300000Y-37100000D03*
X222100000Y-34675000D03*
%TO.N,Board_0-/USB_CC2*%
X219950000Y-35850000D03*
X219150000Y-30075004D03*
%TO.N,Board_0-/USB_D+*%
X221346037Y-33621037D03*
X221099994Y-30075000D03*
%TO.N,Board_0-/USB_D-*%
X220600000Y-34675000D03*
X223050000Y-30075000D03*
%TO.N,Board_0-/USB_VBUS*%
X207050000Y-30125000D03*
X228850000Y-45545000D03*
X202945000Y-28830000D03*
%TO.N,Board_0-/USB_VGND*%
X232865476Y-26825000D03*
X192865476Y-46825000D03*
X202865476Y-51825000D03*
X217865476Y-66825000D03*
X192865476Y-61825000D03*
X221600000Y-52100000D03*
X197865476Y-71825000D03*
X182865476Y-31825000D03*
X229400000Y-82500000D03*
X224100000Y-33400000D03*
X187865476Y-76825000D03*
X177600000Y-31825000D03*
X207865476Y-66825000D03*
X177600000Y-46825000D03*
X222865476Y-76825000D03*
X202865476Y-41825000D03*
X202865476Y-56825000D03*
X192865476Y-56825000D03*
X202865476Y-61825000D03*
X187865476Y-46825000D03*
X182865476Y-36825000D03*
X242200000Y-36825000D03*
X222865476Y-86825000D03*
X207865476Y-76825000D03*
X192865476Y-66825000D03*
X212865476Y-86825000D03*
X227865476Y-56825000D03*
X177600000Y-76825000D03*
X232865476Y-56825000D03*
X242200000Y-51825000D03*
X202865476Y-76825000D03*
X217865476Y-76825000D03*
X177600000Y-36825000D03*
X182865476Y-86825000D03*
X225000000Y-79600000D03*
X182865476Y-51825000D03*
X202865476Y-81825000D03*
X232200000Y-84850000D03*
X187865476Y-51825000D03*
X206900000Y-41825000D03*
X212865476Y-71825000D03*
X197865476Y-66825000D03*
X237865476Y-26825000D03*
X187865476Y-56825000D03*
X229750000Y-53100000D03*
X197865476Y-61825000D03*
X197865476Y-56825000D03*
X187865476Y-31825000D03*
X237865476Y-31825000D03*
X187865476Y-86825000D03*
X227865476Y-26825000D03*
X197865476Y-76825000D03*
X227200000Y-71600000D03*
X242200000Y-26825000D03*
X232000000Y-31375000D03*
X242200000Y-46825000D03*
X207865476Y-71825000D03*
X228000000Y-79700000D03*
X212865476Y-81825000D03*
X182865476Y-71825000D03*
X217865476Y-86825000D03*
X218100000Y-33450000D03*
X242200000Y-66825000D03*
X187865476Y-66825000D03*
X207865476Y-56825000D03*
X187865476Y-71825000D03*
X177600000Y-56825000D03*
X197865476Y-41825000D03*
X217865476Y-71825000D03*
X207865476Y-81825000D03*
X187865476Y-41825000D03*
X242200000Y-61825000D03*
X177600000Y-41825000D03*
X212865476Y-51825000D03*
X187865476Y-26825000D03*
X197865476Y-81825000D03*
X222600000Y-46950000D03*
X225050000Y-30400000D03*
X182865476Y-56825000D03*
X192865476Y-86825000D03*
X202865476Y-71825000D03*
X182865476Y-66825000D03*
X192865476Y-51825000D03*
X187865476Y-81825000D03*
X207865476Y-46825000D03*
X177600000Y-81825000D03*
X242200000Y-42800000D03*
X182865476Y-41825000D03*
X222865476Y-71825000D03*
X222865476Y-66825000D03*
X202865476Y-86825000D03*
X177600000Y-51825000D03*
X197865476Y-51825000D03*
X217865476Y-81825000D03*
X192865476Y-41825000D03*
X177600000Y-86825000D03*
X207865476Y-86825000D03*
X202865476Y-66825000D03*
X177600000Y-66825000D03*
X207865476Y-51825000D03*
X222865476Y-81825000D03*
X192865476Y-76825000D03*
X182865476Y-76825000D03*
X240100000Y-85400000D03*
X192865476Y-81825000D03*
X217865476Y-61825000D03*
X222865476Y-56825000D03*
X197865476Y-86825000D03*
X192865476Y-71825000D03*
X182865476Y-26825000D03*
X237865476Y-56825000D03*
X217865476Y-41825000D03*
X237865476Y-36825000D03*
X217865476Y-36825000D03*
X212865476Y-61825000D03*
X212865476Y-76825000D03*
X182865476Y-61825000D03*
X227865476Y-76825000D03*
X216950000Y-30400000D03*
X187865476Y-61825000D03*
X217865476Y-46825000D03*
X207865476Y-61825000D03*
X212865476Y-66825000D03*
X242200000Y-31825000D03*
X227200000Y-74600000D03*
X177600000Y-61825000D03*
X227865476Y-31825000D03*
X233500000Y-35775000D03*
X182865476Y-81825000D03*
X212865476Y-56825000D03*
%TO.N,Board_0-/V_UNREG*%
X233330000Y-86050000D03*
X214150000Y-26925000D03*
X234200000Y-86050000D03*
X236250000Y-59925000D03*
X232000000Y-75475000D03*
X215700000Y-45675000D03*
X236250000Y-58825000D03*
X228953341Y-68431867D03*
%TO.N,Board_0-Net-(D1-A)*%
X208120000Y-27755000D03*
%TO.N,Board_0-Net-(D1-K)*%
X206550000Y-27745000D03*
%TO.N,Board_0-Net-(D15-A)*%
X236150000Y-46175000D03*
%TO.N,Board_0-Net-(D3-A)*%
X185600000Y-138775000D03*
X199200000Y-119175000D03*
%TO.N,Board_0-Net-(D5-K)*%
X211660000Y-27735000D03*
%TO.N,Board_0-Net-(Q2-G)*%
X209500000Y-101685000D03*
X207300000Y-95785000D03*
%TO.N,Board_0-Net-(R5-Pad2)*%
X197800000Y-122375000D03*
%TO.N,Board_0-Net-(U6-GATE)*%
X233600000Y-50125000D03*
X225750000Y-49375000D03*
%TD*%
D23*
%TO.N,Board_0-/+V_BAT_D*%
X190850000Y-104575000D02*
X193350000Y-107075000D01*
X231799000Y-122319000D02*
X233600000Y-124120000D01*
X225444000Y-122319000D02*
X231799000Y-122319000D01*
X210200000Y-107075000D02*
X225444000Y-122319000D01*
X193350000Y-107075000D02*
X210200000Y-107075000D01*
D24*
X207000000Y-103875000D02*
X207000000Y-102685000D01*
X207000000Y-103875000D02*
X210200000Y-107075000D01*
D23*
%TO.N,Board_0-/-V_BAT_L*%
X210900000Y-95435000D02*
X210890000Y-95425000D01*
D25*
X209700000Y-103375000D02*
X210900000Y-103375000D01*
X203600000Y-98325000D02*
X206650000Y-101375000D01*
D23*
X213000000Y-106675000D02*
X211750000Y-105425000D01*
X210900000Y-103375000D02*
X210900000Y-104575000D01*
X210900000Y-104575000D02*
X211750000Y-105425000D01*
X210900000Y-103375000D02*
X210900000Y-95435000D01*
X231591000Y-118301000D02*
X224626000Y-118301000D01*
X233600000Y-120310000D02*
X231591000Y-118301000D01*
X224626000Y-118301000D02*
X213000000Y-106675000D01*
D25*
X207700000Y-101375000D02*
X209700000Y-103375000D01*
X206650000Y-101375000D02*
X207700000Y-101375000D01*
%TO.N,Board_0-/CHARGE_STAT*%
X212675000Y-33575000D02*
X212675000Y-30100000D01*
X214800000Y-35700000D02*
X212675000Y-33575000D01*
X214800000Y-45700000D02*
X214800000Y-35700000D01*
D26*
%TO.N,Board_0-/MID_BAT_D*%
X243100000Y-57800000D02*
X241200000Y-55900000D01*
X241200000Y-55900000D02*
X219175000Y-55900000D01*
X233653233Y-116500000D02*
X243100000Y-107053233D01*
X208250000Y-44975000D02*
X208250000Y-38900000D01*
X243100000Y-107053233D02*
X243100000Y-57800000D01*
X219175000Y-55900000D02*
X208250000Y-44975000D01*
D23*
%TO.N,Board_0-/PROBE_VGND*%
X227825000Y-117475000D02*
X228800000Y-116500000D01*
D25*
%TO.N,Board_0-/V_UNREG*%
X214150000Y-33750000D02*
X214150000Y-26925000D01*
X215700000Y-35300000D02*
X214150000Y-33750000D01*
X215700000Y-45675000D02*
X215700000Y-35300000D01*
%TO.N,Board_0-Net-(Q2-G)*%
X207300000Y-99485000D02*
X207300000Y-95785000D01*
X209500000Y-101685000D02*
X207300000Y-99485000D01*
%TD*%
%TA.AperFunction,Conductor*%
%TO.N,Board_0-/USB_VGND*%
G36*
X232248135Y-84583373D02*
G01*
X232291626Y-84595026D01*
X232315502Y-84604915D01*
X232354494Y-84627428D01*
X232374997Y-84643159D01*
X232406839Y-84675001D01*
X232422572Y-84695506D01*
X232445082Y-84734495D01*
X232454971Y-84758369D01*
X232466626Y-84801862D01*
X232470000Y-84827486D01*
X232470000Y-84872511D01*
X232466626Y-84898136D01*
X232454971Y-84941629D01*
X232445082Y-84965503D01*
X232422572Y-85004492D01*
X232406839Y-85024997D01*
X232374997Y-85056839D01*
X232354492Y-85072572D01*
X232315503Y-85095082D01*
X232291629Y-85104971D01*
X232248136Y-85116626D01*
X232222511Y-85120000D01*
X232177489Y-85120000D01*
X232151865Y-85116626D01*
X232108373Y-85104972D01*
X232084497Y-85095083D01*
X232045503Y-85072570D01*
X232024999Y-85056837D01*
X231993159Y-85024997D01*
X231977428Y-85004494D01*
X231954915Y-84965502D01*
X231945026Y-84941626D01*
X231933373Y-84898134D01*
X231930000Y-84872512D01*
X231930000Y-84827486D01*
X231933373Y-84801864D01*
X231945026Y-84758372D01*
X231954914Y-84734499D01*
X231977430Y-84695500D01*
X231993155Y-84675005D01*
X232025005Y-84643155D01*
X232045500Y-84627430D01*
X232084499Y-84604914D01*
X232108373Y-84595026D01*
X232151866Y-84583373D01*
X232177487Y-84580000D01*
X232222513Y-84580000D01*
X232248135Y-84583373D01*
G37*
%TD.AperFunction*%
%TA.AperFunction,Conductor*%
G36*
X243559191Y-24818907D02*
G01*
X243595155Y-24868407D01*
X243600000Y-24899000D01*
X243600000Y-57353178D01*
X243581093Y-57411369D01*
X243531593Y-57447333D01*
X243470407Y-57447333D01*
X243430996Y-57423182D01*
X243407314Y-57399500D01*
X243152314Y-57144500D01*
X241507314Y-55499500D01*
X241507311Y-55499498D01*
X241507310Y-55499497D01*
X241507309Y-55499496D01*
X241393189Y-55433609D01*
X241393191Y-55433609D01*
X241343799Y-55420375D01*
X241265892Y-55399500D01*
X241265890Y-55399500D01*
X219423322Y-55399500D01*
X219365131Y-55380593D01*
X219353318Y-55370504D01*
X214038631Y-50055817D01*
X233074500Y-50055817D01*
X233074500Y-50194183D01*
X233110312Y-50327836D01*
X233179495Y-50447665D01*
X233277335Y-50545505D01*
X233397164Y-50614688D01*
X233530817Y-50650500D01*
X233530819Y-50650500D01*
X233669181Y-50650500D01*
X233669183Y-50650500D01*
X233802836Y-50614688D01*
X233922665Y-50545505D01*
X234020505Y-50447665D01*
X234089688Y-50327836D01*
X234125500Y-50194183D01*
X234125500Y-50055817D01*
X234089688Y-49922164D01*
X234020505Y-49802335D01*
X233922665Y-49704495D01*
X233802836Y-49635312D01*
X233669183Y-49599500D01*
X233530817Y-49599500D01*
X233397164Y-49635312D01*
X233277335Y-49704495D01*
X233179495Y-49802335D01*
X233110312Y-49922164D01*
X233074500Y-50055817D01*
X214038631Y-50055817D01*
X213288631Y-49305817D01*
X225224500Y-49305817D01*
X225224500Y-49444183D01*
X225260312Y-49577836D01*
X225329495Y-49697665D01*
X225427335Y-49795505D01*
X225547164Y-49864688D01*
X225680817Y-49900500D01*
X225680819Y-49900500D01*
X225819181Y-49900500D01*
X225819183Y-49900500D01*
X225952836Y-49864688D01*
X226072665Y-49795505D01*
X226170505Y-49697665D01*
X226239688Y-49577836D01*
X226275500Y-49444183D01*
X226275500Y-49305817D01*
X226239688Y-49172164D01*
X226170505Y-49052335D01*
X226072665Y-48954495D01*
X225952836Y-48885312D01*
X225819183Y-48849500D01*
X225680817Y-48849500D01*
X225547164Y-48885312D01*
X225427335Y-48954495D01*
X225329495Y-49052335D01*
X225260312Y-49172164D01*
X225224500Y-49305817D01*
X213288631Y-49305817D01*
X208779496Y-44796682D01*
X208751719Y-44742165D01*
X208750500Y-44726678D01*
X208750500Y-41016454D01*
X208769407Y-40958263D01*
X208818907Y-40922299D01*
X208823856Y-40920833D01*
X208926632Y-40893295D01*
X209181021Y-40787923D01*
X209419479Y-40650249D01*
X209637928Y-40482628D01*
X209832628Y-40287928D01*
X210000249Y-40069479D01*
X210137923Y-39831021D01*
X210243295Y-39576632D01*
X210314560Y-39310666D01*
X210350500Y-39037674D01*
X210350500Y-38762326D01*
X210314560Y-38489334D01*
X210243295Y-38223368D01*
X210137923Y-37968979D01*
X210000249Y-37730521D01*
X209832628Y-37512072D01*
X209637928Y-37317372D01*
X209474341Y-37191848D01*
X209419482Y-37149753D01*
X209181016Y-37012074D01*
X208926631Y-36906704D01*
X208805521Y-36874253D01*
X208660666Y-36835440D01*
X208660659Y-36835439D01*
X208387675Y-36799500D01*
X208387674Y-36799500D01*
X208112326Y-36799500D01*
X208112324Y-36799500D01*
X207839340Y-36835439D01*
X207839338Y-36835439D01*
X207839334Y-36835440D01*
X207738805Y-36862376D01*
X207573368Y-36906704D01*
X207318983Y-37012074D01*
X207080517Y-37149753D01*
X206862075Y-37317369D01*
X206667369Y-37512075D01*
X206499753Y-37730517D01*
X206362074Y-37968983D01*
X206256704Y-38223368D01*
X206212376Y-38388805D01*
X206185440Y-38489334D01*
X206149500Y-38762326D01*
X206149500Y-39037674D01*
X206185440Y-39310666D01*
X206224253Y-39455521D01*
X206256704Y-39576631D01*
X206362074Y-39831016D01*
X206362077Y-39831021D01*
X206499751Y-40069479D01*
X206667372Y-40287928D01*
X206862072Y-40482628D01*
X207080521Y-40650249D01*
X207318979Y-40787923D01*
X207318980Y-40787923D01*
X207318983Y-40787925D01*
X207387601Y-40816347D01*
X207573368Y-40893295D01*
X207676123Y-40920828D01*
X207727437Y-40954151D01*
X207749364Y-41011272D01*
X207749500Y-41016454D01*
X207749500Y-44909108D01*
X207749500Y-45040892D01*
X207771901Y-45124495D01*
X207783609Y-45168190D01*
X207849496Y-45282309D01*
X207849498Y-45282311D01*
X207849500Y-45282314D01*
X218867686Y-56300500D01*
X218867688Y-56300501D01*
X218867690Y-56300503D01*
X218981810Y-56366390D01*
X218981808Y-56366390D01*
X218981812Y-56366391D01*
X218981814Y-56366392D01*
X219109107Y-56400500D01*
X219109108Y-56400500D01*
X240951678Y-56400500D01*
X241009869Y-56419407D01*
X241021682Y-56429496D01*
X242570504Y-57978318D01*
X242598281Y-58032835D01*
X242599500Y-58048322D01*
X242599500Y-87901000D01*
X242580593Y-87959191D01*
X242531093Y-87995155D01*
X242500500Y-88000000D01*
X175499000Y-88000000D01*
X175440809Y-87981093D01*
X175404845Y-87931593D01*
X175400000Y-87901000D01*
X175400000Y-87105817D01*
X235474500Y-87105817D01*
X235474500Y-87244183D01*
X235510312Y-87377836D01*
X235579495Y-87497665D01*
X235677335Y-87595505D01*
X235797164Y-87664688D01*
X235930817Y-87700500D01*
X235930819Y-87700500D01*
X236069181Y-87700500D01*
X236069183Y-87700500D01*
X236202836Y-87664688D01*
X236322665Y-87595505D01*
X236420505Y-87497665D01*
X236489688Y-87377836D01*
X236525500Y-87244183D01*
X236525500Y-87105817D01*
X236489688Y-86972164D01*
X236420505Y-86852335D01*
X236322665Y-86754495D01*
X236202836Y-86685312D01*
X236069183Y-86649500D01*
X235930817Y-86649500D01*
X235797164Y-86685312D01*
X235677335Y-86754495D01*
X235579495Y-86852335D01*
X235510312Y-86972164D01*
X235474500Y-87105817D01*
X175400000Y-87105817D01*
X175400000Y-83505817D01*
X228074500Y-83505817D01*
X228074500Y-83644183D01*
X228110312Y-83777836D01*
X228179495Y-83897665D01*
X228277335Y-83995505D01*
X228397164Y-84064688D01*
X228530817Y-84100500D01*
X228530819Y-84100500D01*
X228669181Y-84100500D01*
X228669183Y-84100500D01*
X228802836Y-84064688D01*
X228922665Y-83995505D01*
X229020505Y-83897665D01*
X229089688Y-83777836D01*
X229125500Y-83644183D01*
X229125500Y-83505817D01*
X229089688Y-83372164D01*
X229020505Y-83252335D01*
X228922665Y-83154495D01*
X228802836Y-83085312D01*
X228669183Y-83049500D01*
X228530817Y-83049500D01*
X228397164Y-83085312D01*
X228277335Y-83154495D01*
X228179495Y-83252335D01*
X228110312Y-83372164D01*
X228074500Y-83505817D01*
X175400000Y-83505817D01*
X175400000Y-73353710D01*
X175949500Y-73353710D01*
X175949500Y-73596289D01*
X175981161Y-73836781D01*
X175981161Y-73836786D01*
X176043944Y-74071092D01*
X176043948Y-74071105D01*
X176136772Y-74295204D01*
X176136774Y-74295208D01*
X176136776Y-74295212D01*
X176258064Y-74505289D01*
X176258066Y-74505292D01*
X176405729Y-74697731D01*
X176405731Y-74697733D01*
X176405735Y-74697738D01*
X176577262Y-74869265D01*
X176577266Y-74869268D01*
X176577268Y-74869270D01*
X176769707Y-75016933D01*
X176769711Y-75016936D01*
X176979788Y-75138224D01*
X177203900Y-75231054D01*
X177438211Y-75293838D01*
X177678712Y-75325500D01*
X177678713Y-75325500D01*
X177921287Y-75325500D01*
X177921288Y-75325500D01*
X178161789Y-75293838D01*
X178396100Y-75231054D01*
X178620212Y-75138224D01*
X178830289Y-75016936D01*
X179022738Y-74869265D01*
X179194265Y-74697738D01*
X179341936Y-74505289D01*
X179463224Y-74295212D01*
X179556054Y-74071100D01*
X179618838Y-73836789D01*
X179650500Y-73596288D01*
X179650500Y-73353712D01*
X179650500Y-73353710D01*
X217949500Y-73353710D01*
X217949500Y-73596289D01*
X217981161Y-73836781D01*
X217981161Y-73836786D01*
X218043944Y-74071092D01*
X218043948Y-74071105D01*
X218136772Y-74295204D01*
X218136774Y-74295208D01*
X218136776Y-74295212D01*
X218258064Y-74505289D01*
X218258066Y-74505292D01*
X218405729Y-74697731D01*
X218405731Y-74697733D01*
X218405735Y-74697738D01*
X218577262Y-74869265D01*
X218577266Y-74869268D01*
X218577268Y-74869270D01*
X218769707Y-75016933D01*
X218769711Y-75016936D01*
X218979788Y-75138224D01*
X219203900Y-75231054D01*
X219438211Y-75293838D01*
X219678712Y-75325500D01*
X219678713Y-75325500D01*
X219921287Y-75325500D01*
X219921288Y-75325500D01*
X220161789Y-75293838D01*
X220396100Y-75231054D01*
X220620212Y-75138224D01*
X220830289Y-75016936D01*
X221022738Y-74869265D01*
X221194265Y-74697738D01*
X221341936Y-74505289D01*
X221463224Y-74295212D01*
X221556054Y-74071100D01*
X221618838Y-73836789D01*
X221650500Y-73596288D01*
X221650500Y-73353712D01*
X221618838Y-73113211D01*
X221556054Y-72878900D01*
X221463224Y-72654788D01*
X221341936Y-72444711D01*
X221194265Y-72252262D01*
X221022738Y-72080735D01*
X221022733Y-72080731D01*
X221022731Y-72080729D01*
X220830292Y-71933066D01*
X220830289Y-71933064D01*
X220620212Y-71811776D01*
X220620208Y-71811774D01*
X220620204Y-71811772D01*
X220396105Y-71718948D01*
X220396104Y-71718947D01*
X220396100Y-71718946D01*
X220161789Y-71656162D01*
X220161786Y-71656161D01*
X220161784Y-71656161D01*
X219921289Y-71624500D01*
X219921288Y-71624500D01*
X219678712Y-71624500D01*
X219678710Y-71624500D01*
X219438218Y-71656161D01*
X219438213Y-71656161D01*
X219203907Y-71718944D01*
X219203894Y-71718948D01*
X218979795Y-71811772D01*
X218769707Y-71933066D01*
X218577268Y-72080729D01*
X218405729Y-72252268D01*
X218258066Y-72444707D01*
X218136772Y-72654795D01*
X218043948Y-72878894D01*
X218043944Y-72878907D01*
X217981161Y-73113213D01*
X217981161Y-73113218D01*
X217949500Y-73353710D01*
X179650500Y-73353710D01*
X179618838Y-73113211D01*
X179556054Y-72878900D01*
X179463224Y-72654788D01*
X179341936Y-72444711D01*
X179194265Y-72252262D01*
X179022738Y-72080735D01*
X179022733Y-72080731D01*
X179022731Y-72080729D01*
X178830292Y-71933066D01*
X178830289Y-71933064D01*
X178620212Y-71811776D01*
X178620208Y-71811774D01*
X178620204Y-71811772D01*
X178396105Y-71718948D01*
X178396104Y-71718947D01*
X178396100Y-71718946D01*
X178161789Y-71656162D01*
X178161786Y-71656161D01*
X178161784Y-71656161D01*
X177921289Y-71624500D01*
X177921288Y-71624500D01*
X177678712Y-71624500D01*
X177678710Y-71624500D01*
X177438218Y-71656161D01*
X177438213Y-71656161D01*
X177203907Y-71718944D01*
X177203894Y-71718948D01*
X176979795Y-71811772D01*
X176769707Y-71933066D01*
X176577268Y-72080729D01*
X176405729Y-72252268D01*
X176258066Y-72444707D01*
X176136772Y-72654795D01*
X176043948Y-72878894D01*
X176043944Y-72878907D01*
X175981161Y-73113213D01*
X175981161Y-73113218D01*
X175949500Y-73353710D01*
X175400000Y-73353710D01*
X175400000Y-57537747D01*
X227158107Y-57537747D01*
X228934037Y-73687614D01*
X230151440Y-84758372D01*
X230156980Y-84808745D01*
X230156980Y-84808748D01*
X230156979Y-84808748D01*
X230157606Y-84814439D01*
X230157606Y-84814453D01*
X230157608Y-84814453D01*
X230336340Y-86439806D01*
X230340505Y-86465526D01*
X230344739Y-86485243D01*
X230346063Y-86491077D01*
X230369835Y-86542727D01*
X230387742Y-86581635D01*
X230387743Y-86581637D01*
X230387745Y-86581640D01*
X230423675Y-86631160D01*
X230464409Y-86675284D01*
X230464417Y-86675290D01*
X230518535Y-86705644D01*
X230551362Y-86724056D01*
X230609540Y-86743001D01*
X230688487Y-86755557D01*
X234917181Y-86758284D01*
X234934377Y-86757716D01*
X234947669Y-86756828D01*
X235041351Y-86732163D01*
X235096494Y-86705650D01*
X235096500Y-86705645D01*
X235096504Y-86705644D01*
X235110724Y-86696609D01*
X235147192Y-86673440D01*
X235210699Y-86596594D01*
X235239726Y-86542732D01*
X235266174Y-86467298D01*
X236413961Y-80164687D01*
X236515738Y-79605817D01*
X241174500Y-79605817D01*
X241174500Y-79744183D01*
X241210312Y-79877836D01*
X241279495Y-79997665D01*
X241377335Y-80095505D01*
X241497164Y-80164688D01*
X241630817Y-80200500D01*
X241630819Y-80200500D01*
X241769181Y-80200500D01*
X241769183Y-80200500D01*
X241902836Y-80164688D01*
X242022665Y-80095505D01*
X242120505Y-79997665D01*
X242189688Y-79877836D01*
X242225500Y-79744183D01*
X242225500Y-79605817D01*
X242189688Y-79472164D01*
X242120505Y-79352335D01*
X242022665Y-79254495D01*
X241902836Y-79185312D01*
X241769183Y-79149500D01*
X241630817Y-79149500D01*
X241497164Y-79185312D01*
X241377335Y-79254495D01*
X241279495Y-79352335D01*
X241210312Y-79472164D01*
X241174500Y-79605817D01*
X236515738Y-79605817D01*
X236520150Y-79581591D01*
X237409562Y-74697738D01*
X240530107Y-57562514D01*
X240533668Y-57499631D01*
X240530425Y-57451301D01*
X240523938Y-57408761D01*
X240518973Y-57397990D01*
X240482204Y-57318230D01*
X240482201Y-57318226D01*
X240446241Y-57268730D01*
X240446238Y-57268727D01*
X240438969Y-57260864D01*
X240405467Y-57224622D01*
X240318486Y-57175912D01*
X240281088Y-57163761D01*
X240260290Y-57157003D01*
X240181346Y-57144500D01*
X240181343Y-57144500D01*
X227510484Y-57144500D01*
X227510479Y-57144500D01*
X227456771Y-57150210D01*
X227456755Y-57150212D01*
X227416058Y-57158965D01*
X227416055Y-57158966D01*
X227383340Y-57168321D01*
X227297906Y-57219706D01*
X227252635Y-57260865D01*
X227213253Y-57306209D01*
X227174342Y-57397991D01*
X227161909Y-57457895D01*
X227158107Y-57537747D01*
X175400000Y-57537747D01*
X175400000Y-47334573D01*
X178699500Y-47334573D01*
X178699500Y-47615426D01*
X178730944Y-47894507D01*
X178793440Y-48168319D01*
X178886198Y-48433406D01*
X178886199Y-48433409D01*
X179008047Y-48686430D01*
X179008051Y-48686437D01*
X179008055Y-48686445D01*
X179157477Y-48924248D01*
X179332584Y-49143825D01*
X179531175Y-49342416D01*
X179750752Y-49517523D01*
X179988555Y-49666945D01*
X179988566Y-49666950D01*
X179988569Y-49666952D01*
X180209962Y-49773569D01*
X180241592Y-49788801D01*
X180506682Y-49881560D01*
X180780491Y-49944055D01*
X181059575Y-49975500D01*
X181059576Y-49975500D01*
X181340424Y-49975500D01*
X181340425Y-49975500D01*
X181619509Y-49944055D01*
X181893318Y-49881560D01*
X182158408Y-49788801D01*
X182411445Y-49666945D01*
X182649248Y-49517523D01*
X182868825Y-49342416D01*
X183067416Y-49143825D01*
X183242523Y-48924248D01*
X183391945Y-48686445D01*
X183513801Y-48433408D01*
X183606560Y-48168318D01*
X183669055Y-47894509D01*
X183700500Y-47615425D01*
X183700500Y-47334575D01*
X183690281Y-47243879D01*
X196699500Y-47243879D01*
X196699500Y-47506120D01*
X196713890Y-47615424D01*
X196733730Y-47766116D01*
X196768132Y-47894507D01*
X196801600Y-48019411D01*
X196801604Y-48019424D01*
X196901953Y-48261689D01*
X196901955Y-48261693D01*
X196901957Y-48261697D01*
X197033076Y-48488803D01*
X197192718Y-48696851D01*
X197378149Y-48882282D01*
X197586197Y-49041924D01*
X197813303Y-49173043D01*
X198055581Y-49273398D01*
X198308884Y-49341270D01*
X198568880Y-49375500D01*
X198568881Y-49375500D01*
X198831119Y-49375500D01*
X198831120Y-49375500D01*
X199091116Y-49341270D01*
X199344419Y-49273398D01*
X199586697Y-49173043D01*
X199813803Y-49041924D01*
X200021851Y-48882282D01*
X200207282Y-48696851D01*
X200366924Y-48488803D01*
X200498043Y-48261697D01*
X200598398Y-48019419D01*
X200666270Y-47766116D01*
X200700500Y-47506120D01*
X200700500Y-47243880D01*
X200666270Y-46983884D01*
X200598398Y-46730581D01*
X200501921Y-46497665D01*
X200498046Y-46488310D01*
X200498045Y-46488309D01*
X200498043Y-46488303D01*
X200366924Y-46261197D01*
X200207282Y-46053149D01*
X200021851Y-45867718D01*
X199974085Y-45831066D01*
X199813802Y-45708075D01*
X199679987Y-45630818D01*
X199586697Y-45576957D01*
X199586693Y-45576955D01*
X199586689Y-45576953D01*
X199344424Y-45476604D01*
X199344423Y-45476603D01*
X199344419Y-45476602D01*
X199091116Y-45408730D01*
X199091111Y-45408729D01*
X199091110Y-45408729D01*
X198831120Y-45374500D01*
X198568880Y-45374500D01*
X198568879Y-45374500D01*
X198308889Y-45408729D01*
X198308886Y-45408729D01*
X198308884Y-45408730D01*
X198220259Y-45432477D01*
X198055588Y-45476600D01*
X198055575Y-45476604D01*
X197813310Y-45576953D01*
X197586197Y-45708075D01*
X197378152Y-45867715D01*
X197192715Y-46053152D01*
X197033075Y-46261197D01*
X196901953Y-46488310D01*
X196801604Y-46730575D01*
X196801600Y-46730588D01*
X196733729Y-46983889D01*
X196699500Y-47243879D01*
X183690281Y-47243879D01*
X183669055Y-47055491D01*
X183606560Y-46781682D01*
X183513801Y-46516592D01*
X183391945Y-46263555D01*
X183242523Y-46025752D01*
X183067416Y-45806175D01*
X182868825Y-45607584D01*
X182649248Y-45432477D01*
X182411445Y-45283055D01*
X182411437Y-45283051D01*
X182411430Y-45283047D01*
X182158409Y-45161199D01*
X182158406Y-45161198D01*
X181893319Y-45068440D01*
X181619507Y-45005944D01*
X181340426Y-44974500D01*
X181340425Y-44974500D01*
X181059575Y-44974500D01*
X181059573Y-44974500D01*
X180780492Y-45005944D01*
X180506680Y-45068440D01*
X180241593Y-45161198D01*
X180241590Y-45161199D01*
X179988569Y-45283047D01*
X179988556Y-45283054D01*
X179988555Y-45283055D01*
X179937992Y-45314826D01*
X179750751Y-45432477D01*
X179531176Y-45607583D01*
X179332583Y-45806176D01*
X179157477Y-46025751D01*
X179008054Y-46263557D01*
X179008047Y-46263569D01*
X178886199Y-46516590D01*
X178886198Y-46516593D01*
X178793440Y-46781680D01*
X178730944Y-47055492D01*
X178699500Y-47334573D01*
X175400000Y-47334573D01*
X175400000Y-38762326D01*
X187049500Y-38762326D01*
X187049500Y-39037674D01*
X187085440Y-39310666D01*
X187124253Y-39455521D01*
X187156704Y-39576631D01*
X187262074Y-39831016D01*
X187262077Y-39831021D01*
X187399751Y-40069479D01*
X187567372Y-40287928D01*
X187762072Y-40482628D01*
X187980521Y-40650249D01*
X188218979Y-40787923D01*
X188218980Y-40787923D01*
X188218983Y-40787925D01*
X188473361Y-40893292D01*
X188473368Y-40893295D01*
X188739334Y-40964560D01*
X189012326Y-41000500D01*
X189012327Y-41000500D01*
X189287673Y-41000500D01*
X189287674Y-41000500D01*
X189560666Y-40964560D01*
X189826632Y-40893295D01*
X190081021Y-40787923D01*
X190319479Y-40650249D01*
X190537928Y-40482628D01*
X190732628Y-40287928D01*
X190900249Y-40069479D01*
X191037923Y-39831021D01*
X191143295Y-39576632D01*
X191214560Y-39310666D01*
X191250500Y-39037674D01*
X191250500Y-38762326D01*
X191214560Y-38489334D01*
X191143295Y-38223368D01*
X191037923Y-37968979D01*
X190900249Y-37730521D01*
X190732628Y-37512072D01*
X190537928Y-37317372D01*
X190374341Y-37191848D01*
X190319482Y-37149753D01*
X190081016Y-37012074D01*
X189826631Y-36906704D01*
X189705521Y-36874253D01*
X189560666Y-36835440D01*
X189560659Y-36835439D01*
X189287675Y-36799500D01*
X189287674Y-36799500D01*
X189012326Y-36799500D01*
X189012324Y-36799500D01*
X188739340Y-36835439D01*
X188739338Y-36835439D01*
X188739334Y-36835440D01*
X188638805Y-36862376D01*
X188473368Y-36906704D01*
X188218983Y-37012074D01*
X187980517Y-37149753D01*
X187762075Y-37317369D01*
X187567369Y-37512075D01*
X187399753Y-37730517D01*
X187262074Y-37968983D01*
X187156704Y-38223368D01*
X187112376Y-38388805D01*
X187085440Y-38489334D01*
X187049500Y-38762326D01*
X175400000Y-38762326D01*
X175400000Y-30055817D01*
X206524500Y-30055817D01*
X206524500Y-30194183D01*
X206560312Y-30327836D01*
X206629495Y-30447665D01*
X206727335Y-30545505D01*
X206847164Y-30614688D01*
X206980817Y-30650500D01*
X206980819Y-30650500D01*
X207119181Y-30650500D01*
X207119183Y-30650500D01*
X207252836Y-30614688D01*
X207372665Y-30545505D01*
X207470505Y-30447665D01*
X207539688Y-30327836D01*
X207575500Y-30194183D01*
X207575500Y-30055817D01*
X207568801Y-30030817D01*
X212149500Y-30030817D01*
X212149500Y-30169183D01*
X212185312Y-30302836D01*
X212254495Y-30422665D01*
X212317005Y-30485175D01*
X212344781Y-30539690D01*
X212346000Y-30555177D01*
X212346000Y-33525606D01*
X212345999Y-33525624D01*
X212345999Y-33618316D01*
X212368419Y-33701986D01*
X212368420Y-33701987D01*
X212368421Y-33701989D01*
X212371133Y-33706686D01*
X212411731Y-33777007D01*
X212411732Y-33777008D01*
X212411734Y-33777011D01*
X213441731Y-34807007D01*
X214442004Y-35807280D01*
X214469781Y-35861797D01*
X214471000Y-35877284D01*
X214471000Y-45244822D01*
X214452093Y-45303013D01*
X214442004Y-45314825D01*
X214379497Y-45377332D01*
X214379495Y-45377334D01*
X214379495Y-45377335D01*
X214310312Y-45497164D01*
X214274500Y-45630817D01*
X214274500Y-45769183D01*
X214310312Y-45902836D01*
X214379495Y-46022665D01*
X214477335Y-46120505D01*
X214597164Y-46189688D01*
X214730817Y-46225500D01*
X214730819Y-46225500D01*
X214869181Y-46225500D01*
X214869183Y-46225500D01*
X215002836Y-46189688D01*
X215122665Y-46120505D01*
X215192498Y-46050671D01*
X215247013Y-46022896D01*
X215307445Y-46032467D01*
X215332500Y-46050670D01*
X215377335Y-46095505D01*
X215497164Y-46164688D01*
X215630817Y-46200500D01*
X215630819Y-46200500D01*
X215769181Y-46200500D01*
X215769183Y-46200500D01*
X215902836Y-46164688D01*
X216004804Y-46105817D01*
X235624500Y-46105817D01*
X235624500Y-46244183D01*
X235660312Y-46377836D01*
X235729495Y-46497665D01*
X235827335Y-46595505D01*
X235947164Y-46664688D01*
X236080817Y-46700500D01*
X236080819Y-46700500D01*
X236219181Y-46700500D01*
X236219183Y-46700500D01*
X236352836Y-46664688D01*
X236472665Y-46595505D01*
X236570505Y-46497665D01*
X236639688Y-46377836D01*
X236675500Y-46244183D01*
X236675500Y-46105817D01*
X236639688Y-45972164D01*
X236570505Y-45852335D01*
X236472665Y-45754495D01*
X236352836Y-45685312D01*
X236219183Y-45649500D01*
X236080817Y-45649500D01*
X235947164Y-45685312D01*
X235827335Y-45754495D01*
X235729495Y-45852335D01*
X235660312Y-45972164D01*
X235624500Y-46105817D01*
X216004804Y-46105817D01*
X216022665Y-46095505D01*
X216120505Y-45997665D01*
X216189688Y-45877836D01*
X216225500Y-45744183D01*
X216225500Y-45605817D01*
X216190667Y-45475817D01*
X228324500Y-45475817D01*
X228324500Y-45614183D01*
X228360312Y-45747836D01*
X228429495Y-45867665D01*
X228527335Y-45965505D01*
X228647164Y-46034688D01*
X228780817Y-46070500D01*
X228780819Y-46070500D01*
X228919181Y-46070500D01*
X228919183Y-46070500D01*
X229052836Y-46034688D01*
X229172665Y-45965505D01*
X229270505Y-45867665D01*
X229339688Y-45747836D01*
X229375500Y-45614183D01*
X229375500Y-45475817D01*
X229339688Y-45342164D01*
X229270505Y-45222335D01*
X229172665Y-45124495D01*
X229052836Y-45055312D01*
X228919183Y-45019500D01*
X228780817Y-45019500D01*
X228647164Y-45055312D01*
X228527335Y-45124495D01*
X228429495Y-45222335D01*
X228360312Y-45342164D01*
X228324500Y-45475817D01*
X216190667Y-45475817D01*
X216189688Y-45472164D01*
X216120505Y-45352335D01*
X216092496Y-45324326D01*
X216057996Y-45289825D01*
X216030219Y-45235308D01*
X216029000Y-45219822D01*
X216029000Y-37030817D01*
X220774500Y-37030817D01*
X220774500Y-37169183D01*
X220810312Y-37302836D01*
X220879495Y-37422665D01*
X220977335Y-37520505D01*
X221097164Y-37589688D01*
X221230817Y-37625500D01*
X221230819Y-37625500D01*
X221369181Y-37625500D01*
X221369183Y-37625500D01*
X221502836Y-37589688D01*
X221622665Y-37520505D01*
X221720505Y-37422665D01*
X221789688Y-37302836D01*
X221825500Y-37169183D01*
X221825500Y-37030817D01*
X221789688Y-36897164D01*
X221720505Y-36777335D01*
X221622665Y-36679495D01*
X221502836Y-36610312D01*
X221369183Y-36574500D01*
X221230817Y-36574500D01*
X221097164Y-36610312D01*
X220977335Y-36679495D01*
X220879495Y-36777335D01*
X220810312Y-36897164D01*
X220774500Y-37030817D01*
X216029000Y-37030817D01*
X216029000Y-35780817D01*
X219424500Y-35780817D01*
X219424500Y-35919183D01*
X219460312Y-36052836D01*
X219529495Y-36172665D01*
X219627335Y-36270505D01*
X219747164Y-36339688D01*
X219880817Y-36375500D01*
X219880819Y-36375500D01*
X220019181Y-36375500D01*
X220019183Y-36375500D01*
X220152836Y-36339688D01*
X220272665Y-36270505D01*
X220370505Y-36172665D01*
X220439688Y-36052836D01*
X220475500Y-35919183D01*
X220475500Y-35780817D01*
X220439688Y-35647164D01*
X220370505Y-35527335D01*
X220272665Y-35429495D01*
X220152836Y-35360312D01*
X220019183Y-35324500D01*
X219880817Y-35324500D01*
X219747164Y-35360312D01*
X219627335Y-35429495D01*
X219529495Y-35527335D01*
X219460312Y-35647164D01*
X219424500Y-35780817D01*
X216029000Y-35780817D01*
X216029000Y-35351301D01*
X216029001Y-35351288D01*
X216029001Y-35256685D01*
X216029000Y-35256683D01*
X216006580Y-35173013D01*
X216006579Y-35173012D01*
X216006579Y-35173011D01*
X215963266Y-35097989D01*
X215471094Y-34605817D01*
X220074500Y-34605817D01*
X220074500Y-34744183D01*
X220110312Y-34877836D01*
X220179495Y-34997665D01*
X220277335Y-35095505D01*
X220397164Y-35164688D01*
X220530817Y-35200500D01*
X220530819Y-35200500D01*
X220669181Y-35200500D01*
X220669183Y-35200500D01*
X220802836Y-35164688D01*
X220922665Y-35095505D01*
X221020505Y-34997665D01*
X221089688Y-34877836D01*
X221125500Y-34744183D01*
X221125500Y-34605817D01*
X221574500Y-34605817D01*
X221574500Y-34744183D01*
X221610312Y-34877836D01*
X221679495Y-34997665D01*
X221777335Y-35095505D01*
X221897164Y-35164688D01*
X222030817Y-35200500D01*
X222030819Y-35200500D01*
X222169181Y-35200500D01*
X222169183Y-35200500D01*
X222302836Y-35164688D01*
X222422665Y-35095505D01*
X222520505Y-34997665D01*
X222575957Y-34901619D01*
X224750000Y-34901619D01*
X224750000Y-35098380D01*
X224780778Y-35292710D01*
X224780779Y-35292714D01*
X224841576Y-35479826D01*
X224841578Y-35479829D01*
X224930907Y-35655148D01*
X224956319Y-35690125D01*
X225517036Y-35129407D01*
X225534075Y-35192993D01*
X225599901Y-35307007D01*
X225692993Y-35400099D01*
X225807007Y-35465925D01*
X225870590Y-35482962D01*
X225309874Y-36043678D01*
X225344860Y-36069097D01*
X225520170Y-36158421D01*
X225520173Y-36158423D01*
X225707285Y-36219220D01*
X225707289Y-36219221D01*
X225901620Y-36250000D01*
X226098380Y-36250000D01*
X226292710Y-36219221D01*
X226292714Y-36219220D01*
X226479826Y-36158423D01*
X226479829Y-36158421D01*
X226655142Y-36069096D01*
X226655148Y-36069092D01*
X226690125Y-36043679D01*
X226690125Y-36043678D01*
X226129409Y-35482962D01*
X226192993Y-35465925D01*
X226307007Y-35400099D01*
X226400099Y-35307007D01*
X226465925Y-35192993D01*
X226482962Y-35129409D01*
X227043678Y-35690125D01*
X227043679Y-35690125D01*
X227069092Y-35655148D01*
X227069096Y-35655142D01*
X227158421Y-35479829D01*
X227158423Y-35479826D01*
X227219220Y-35292714D01*
X227219221Y-35292710D01*
X227250000Y-35098380D01*
X227250000Y-34901619D01*
X227238350Y-34828066D01*
X227236130Y-34814052D01*
X227899500Y-34814052D01*
X227899500Y-36735948D01*
X227902376Y-36784225D01*
X227902376Y-36784226D01*
X227902377Y-36784236D01*
X227943750Y-36974420D01*
X227948066Y-36994259D01*
X228032678Y-37191845D01*
X228032681Y-37191851D01*
X228153152Y-37369849D01*
X228153154Y-37369851D01*
X228153157Y-37369855D01*
X228305145Y-37521843D01*
X228305148Y-37521845D01*
X228305150Y-37521847D01*
X228405385Y-37589687D01*
X228483152Y-37642321D01*
X228680741Y-37726934D01*
X228800646Y-37753017D01*
X228890763Y-37772622D01*
X228890766Y-37772622D01*
X228890774Y-37772624D01*
X228939052Y-37775500D01*
X228939065Y-37775500D01*
X230860935Y-37775500D01*
X230860948Y-37775500D01*
X230909226Y-37772624D01*
X230909234Y-37772622D01*
X230909236Y-37772622D01*
X230949458Y-37763871D01*
X231119259Y-37726934D01*
X231316848Y-37642321D01*
X231494855Y-37521843D01*
X231646843Y-37369855D01*
X231767321Y-37191848D01*
X231849336Y-37000327D01*
X232599500Y-37000327D01*
X232599500Y-40549672D01*
X232599501Y-40549684D01*
X232614033Y-40622736D01*
X232614035Y-40622742D01*
X232669397Y-40705599D01*
X232669399Y-40705601D01*
X232752260Y-40760966D01*
X232807808Y-40772015D01*
X232825315Y-40775498D01*
X232825320Y-40775498D01*
X232825326Y-40775500D01*
X232825327Y-40775500D01*
X236374673Y-40775500D01*
X236374674Y-40775500D01*
X236447740Y-40760966D01*
X236530601Y-40705601D01*
X236585966Y-40622740D01*
X236600500Y-40549674D01*
X236600500Y-37000326D01*
X236599292Y-36994255D01*
X236595346Y-36974418D01*
X236585966Y-36927260D01*
X236530601Y-36844399D01*
X236530599Y-36844397D01*
X236447742Y-36789035D01*
X236447740Y-36789034D01*
X236447737Y-36789033D01*
X236447736Y-36789033D01*
X236374684Y-36774501D01*
X236374674Y-36774500D01*
X232825326Y-36774500D01*
X232825325Y-36774500D01*
X232825315Y-36774501D01*
X232752263Y-36789033D01*
X232752257Y-36789035D01*
X232669400Y-36844397D01*
X232669397Y-36844400D01*
X232614035Y-36927257D01*
X232614033Y-36927263D01*
X232599501Y-37000315D01*
X232599500Y-37000327D01*
X231849336Y-37000327D01*
X231851934Y-36994259D01*
X231897624Y-36784226D01*
X231900500Y-36735948D01*
X231900500Y-34814052D01*
X231897624Y-34765774D01*
X231884900Y-34707285D01*
X231871665Y-34646445D01*
X231851934Y-34555741D01*
X231767321Y-34358152D01*
X231728506Y-34300803D01*
X231646847Y-34180150D01*
X231646845Y-34180148D01*
X231646843Y-34180145D01*
X231494855Y-34028157D01*
X231494851Y-34028154D01*
X231494849Y-34028152D01*
X231316851Y-33907681D01*
X231316850Y-33907680D01*
X231316848Y-33907679D01*
X231119259Y-33823066D01*
X231119254Y-33823065D01*
X231119251Y-33823064D01*
X230909236Y-33777377D01*
X230909226Y-33777376D01*
X230860948Y-33774500D01*
X228939052Y-33774500D01*
X228902843Y-33776657D01*
X228890773Y-33777376D01*
X228890763Y-33777377D01*
X228680748Y-33823064D01*
X228680741Y-33823066D01*
X228483154Y-33907678D01*
X228483148Y-33907681D01*
X228305150Y-34028152D01*
X228153152Y-34180150D01*
X228032681Y-34358148D01*
X228032678Y-34358154D01*
X227948066Y-34555741D01*
X227948064Y-34555748D01*
X227902377Y-34765763D01*
X227902376Y-34765773D01*
X227902376Y-34765774D01*
X227899500Y-34814052D01*
X227236130Y-34814052D01*
X227219221Y-34707289D01*
X227219220Y-34707285D01*
X227158423Y-34520173D01*
X227158421Y-34520170D01*
X227069097Y-34344860D01*
X227043678Y-34309874D01*
X226482962Y-34870590D01*
X226465925Y-34807007D01*
X226400099Y-34692993D01*
X226307007Y-34599901D01*
X226192993Y-34534075D01*
X226129407Y-34517036D01*
X226690125Y-33956319D01*
X226655148Y-33930907D01*
X226479829Y-33841578D01*
X226479826Y-33841576D01*
X226292714Y-33780779D01*
X226292710Y-33780778D01*
X226098380Y-33750000D01*
X225901620Y-33750000D01*
X225707289Y-33780778D01*
X225707285Y-33780779D01*
X225520173Y-33841576D01*
X225520170Y-33841578D01*
X225344856Y-33930904D01*
X225309873Y-33956319D01*
X225870591Y-34517037D01*
X225807007Y-34534075D01*
X225692993Y-34599901D01*
X225599901Y-34692993D01*
X225534075Y-34807007D01*
X225517037Y-34870591D01*
X224956319Y-34309873D01*
X224930904Y-34344856D01*
X224841578Y-34520170D01*
X224841576Y-34520173D01*
X224780779Y-34707285D01*
X224780778Y-34707289D01*
X224750000Y-34901619D01*
X222575957Y-34901619D01*
X222589688Y-34877836D01*
X222625500Y-34744183D01*
X222625500Y-34605817D01*
X222589688Y-34472164D01*
X222520505Y-34352335D01*
X222422665Y-34254495D01*
X222302836Y-34185312D01*
X222169183Y-34149500D01*
X222030817Y-34149500D01*
X221897164Y-34185312D01*
X221777335Y-34254495D01*
X221679495Y-34352335D01*
X221610312Y-34472164D01*
X221574500Y-34605817D01*
X221125500Y-34605817D01*
X221089688Y-34472164D01*
X221020505Y-34352335D01*
X220922665Y-34254495D01*
X220802836Y-34185312D01*
X220669183Y-34149500D01*
X220530817Y-34149500D01*
X220397164Y-34185312D01*
X220277335Y-34254495D01*
X220179495Y-34352335D01*
X220110312Y-34472164D01*
X220074500Y-34605817D01*
X215471094Y-34605817D01*
X214507996Y-33642719D01*
X214504369Y-33635601D01*
X214497907Y-33630906D01*
X214490743Y-33608857D01*
X214480219Y-33588202D01*
X214479000Y-33572715D01*
X214479000Y-33551854D01*
X220820537Y-33551854D01*
X220820537Y-33690220D01*
X220856349Y-33823873D01*
X220925532Y-33943702D01*
X221023372Y-34041542D01*
X221143201Y-34110725D01*
X221276854Y-34146537D01*
X221276856Y-34146537D01*
X221415218Y-34146537D01*
X221415220Y-34146537D01*
X221548873Y-34110725D01*
X221668702Y-34041542D01*
X221766542Y-33943702D01*
X221835725Y-33823873D01*
X221871537Y-33690220D01*
X221871537Y-33551854D01*
X221835725Y-33418201D01*
X221766542Y-33298372D01*
X221668702Y-33200532D01*
X221548873Y-33131349D01*
X221415220Y-33095537D01*
X221276854Y-33095537D01*
X221143201Y-33131349D01*
X221023372Y-33200532D01*
X220925532Y-33298372D01*
X220856349Y-33418201D01*
X220820537Y-33551854D01*
X214479000Y-33551854D01*
X214479000Y-31546204D01*
X215989483Y-31546204D01*
X215989483Y-31874999D01*
X215989484Y-31875000D01*
X216489483Y-31875000D01*
X216489483Y-32375000D01*
X215989484Y-32375000D01*
X215989483Y-32375001D01*
X215989483Y-32703795D01*
X216020225Y-32858349D01*
X216080531Y-33003940D01*
X216080535Y-33003949D01*
X216168082Y-33134969D01*
X216168085Y-33134973D01*
X216279509Y-33246397D01*
X216279513Y-33246400D01*
X216410541Y-33333951D01*
X216539482Y-33387360D01*
X216539483Y-33387359D01*
X216539483Y-32791988D01*
X216549423Y-32809205D01*
X216605278Y-32865060D01*
X216673687Y-32904556D01*
X216749987Y-32925000D01*
X216828979Y-32925000D01*
X216905279Y-32904556D01*
X216973688Y-32865060D01*
X217029543Y-32809205D01*
X217039483Y-32791988D01*
X217039483Y-33387360D01*
X217168424Y-33333951D01*
X217299452Y-33246400D01*
X217299456Y-33246397D01*
X217410880Y-33134973D01*
X217410883Y-33134969D01*
X217498430Y-33003949D01*
X217498434Y-33003940D01*
X217558740Y-32858349D01*
X217589482Y-32703795D01*
X217589483Y-32703792D01*
X217589483Y-32375001D01*
X217589482Y-32375000D01*
X217089483Y-32375000D01*
X217089483Y-31875000D01*
X217589482Y-31875000D01*
X217589483Y-31874999D01*
X217589483Y-31546207D01*
X217589482Y-31546204D01*
X224629483Y-31546204D01*
X224629483Y-31874999D01*
X224629484Y-31875000D01*
X225129483Y-31875000D01*
X225129483Y-32375000D01*
X224629484Y-32375000D01*
X224629483Y-32375001D01*
X224629483Y-32703795D01*
X224660225Y-32858349D01*
X224720531Y-33003940D01*
X224720535Y-33003949D01*
X224808082Y-33134969D01*
X224808085Y-33134973D01*
X224919509Y-33246397D01*
X224919513Y-33246400D01*
X225050541Y-33333951D01*
X225179482Y-33387360D01*
X225179483Y-33387359D01*
X225179483Y-32791988D01*
X225189423Y-32809205D01*
X225245278Y-32865060D01*
X225313687Y-32904556D01*
X225389987Y-32925000D01*
X225468979Y-32925000D01*
X225545279Y-32904556D01*
X225613688Y-32865060D01*
X225669543Y-32809205D01*
X225679483Y-32791988D01*
X225679483Y-33387360D01*
X225808424Y-33333951D01*
X225939452Y-33246400D01*
X225939456Y-33246397D01*
X226050880Y-33134973D01*
X226050883Y-33134969D01*
X226138430Y-33003949D01*
X226138434Y-33003940D01*
X226162390Y-32946107D01*
X226162390Y-32946106D01*
X226198739Y-32858352D01*
X226198739Y-32858350D01*
X226229482Y-32703795D01*
X226229483Y-32703792D01*
X226229483Y-32375001D01*
X226229482Y-32375000D01*
X225729483Y-32375000D01*
X225729483Y-31966999D01*
X232600000Y-31966999D01*
X232600000Y-32524999D01*
X232600001Y-32525000D01*
X233166988Y-32525000D01*
X233134075Y-32582007D01*
X233100000Y-32709174D01*
X233100000Y-32840826D01*
X233134075Y-32967993D01*
X233166988Y-33025000D01*
X232600001Y-33025000D01*
X232600000Y-33025001D01*
X232600000Y-33583000D01*
X232610609Y-33702332D01*
X232666557Y-33897861D01*
X232760720Y-34078128D01*
X232889244Y-34235750D01*
X232889249Y-34235755D01*
X233046871Y-34364279D01*
X233227138Y-34458442D01*
X233422667Y-34514390D01*
X233542000Y-34525000D01*
X234349999Y-34525000D01*
X234350000Y-34524999D01*
X234350000Y-33275000D01*
X234850000Y-33275000D01*
X234850000Y-34524999D01*
X234850001Y-34525000D01*
X235658000Y-34525000D01*
X235777332Y-34514390D01*
X235972861Y-34458442D01*
X236153128Y-34364279D01*
X236310750Y-34235755D01*
X236310755Y-34235750D01*
X236439279Y-34078128D01*
X236533442Y-33897861D01*
X236589390Y-33702332D01*
X236600000Y-33583000D01*
X236600000Y-33025001D01*
X236599999Y-33025000D01*
X236033012Y-33025000D01*
X236065925Y-32967993D01*
X236100000Y-32840826D01*
X236100000Y-32709174D01*
X236065925Y-32582007D01*
X236033012Y-32525000D01*
X236599999Y-32525000D01*
X236600000Y-32524999D01*
X236600000Y-31966999D01*
X236589390Y-31847667D01*
X236533442Y-31652138D01*
X236439279Y-31471871D01*
X236310755Y-31314249D01*
X236310750Y-31314244D01*
X236153128Y-31185720D01*
X235972861Y-31091557D01*
X235777332Y-31035609D01*
X235658000Y-31025000D01*
X234850001Y-31025000D01*
X234850000Y-31025001D01*
X234850000Y-32275000D01*
X234350000Y-32275000D01*
X234350000Y-31025001D01*
X234349999Y-31025000D01*
X233542000Y-31025000D01*
X233422667Y-31035609D01*
X233227138Y-31091557D01*
X233046871Y-31185720D01*
X232889249Y-31314244D01*
X232889244Y-31314249D01*
X232760720Y-31471871D01*
X232666557Y-31652138D01*
X232610609Y-31847667D01*
X232600000Y-31966999D01*
X225729483Y-31966999D01*
X225729483Y-31875000D01*
X226229482Y-31875000D01*
X226229483Y-31874999D01*
X226229483Y-31546207D01*
X226229482Y-31546204D01*
X226198740Y-31391650D01*
X226138434Y-31246059D01*
X226138430Y-31246050D01*
X226050883Y-31115030D01*
X226050880Y-31115026D01*
X225939456Y-31003602D01*
X225939452Y-31003599D01*
X225808432Y-30916052D01*
X225808423Y-30916048D01*
X225679483Y-30862639D01*
X225679483Y-31458011D01*
X225669543Y-31440795D01*
X225613688Y-31384940D01*
X225545279Y-31345444D01*
X225468979Y-31325000D01*
X225389987Y-31325000D01*
X225313687Y-31345444D01*
X225245278Y-31384940D01*
X225189423Y-31440795D01*
X225179483Y-31458011D01*
X225179483Y-30862639D01*
X225050542Y-30916048D01*
X225050533Y-30916052D01*
X224919513Y-31003599D01*
X224919509Y-31003602D01*
X224808085Y-31115026D01*
X224808082Y-31115030D01*
X224720535Y-31246050D01*
X224720531Y-31246059D01*
X224660225Y-31391650D01*
X224629483Y-31546204D01*
X217589482Y-31546204D01*
X217558740Y-31391650D01*
X217498434Y-31246059D01*
X217498430Y-31246050D01*
X217410883Y-31115030D01*
X217410880Y-31115026D01*
X217299456Y-31003602D01*
X217299452Y-31003599D01*
X217168432Y-30916052D01*
X217168423Y-30916048D01*
X217039483Y-30862639D01*
X217039483Y-31458011D01*
X217029543Y-31440795D01*
X216973688Y-31384940D01*
X216905279Y-31345444D01*
X216828979Y-31325000D01*
X216749987Y-31325000D01*
X216673687Y-31345444D01*
X216605278Y-31384940D01*
X216549423Y-31440795D01*
X216539483Y-31458011D01*
X216539483Y-30862639D01*
X216410542Y-30916048D01*
X216410533Y-30916052D01*
X216279513Y-31003599D01*
X216279509Y-31003602D01*
X216168085Y-31115026D01*
X216168082Y-31115030D01*
X216080535Y-31246050D01*
X216080531Y-31246059D01*
X216020225Y-31391650D01*
X215989483Y-31546204D01*
X214479000Y-31546204D01*
X214479000Y-30005821D01*
X218624500Y-30005821D01*
X218624500Y-30144187D01*
X218660312Y-30277840D01*
X218729495Y-30397669D01*
X218827335Y-30495509D01*
X218947164Y-30564692D01*
X219080817Y-30600504D01*
X219080819Y-30600504D01*
X219219181Y-30600504D01*
X219219183Y-30600504D01*
X219352836Y-30564692D01*
X219472665Y-30495509D01*
X219570505Y-30397669D01*
X219639688Y-30277840D01*
X219675500Y-30144187D01*
X219675500Y-30005821D01*
X219675499Y-30005817D01*
X220574494Y-30005817D01*
X220574494Y-30144183D01*
X220610306Y-30277836D01*
X220679489Y-30397665D01*
X220777329Y-30495505D01*
X220897158Y-30564688D01*
X221030811Y-30600500D01*
X221030813Y-30600500D01*
X221169175Y-30600500D01*
X221169177Y-30600500D01*
X221302830Y-30564688D01*
X221422659Y-30495505D01*
X221520499Y-30397665D01*
X221589682Y-30277836D01*
X221625494Y-30144183D01*
X221625494Y-30005817D01*
X222524500Y-30005817D01*
X222524500Y-30144183D01*
X222560312Y-30277836D01*
X222629495Y-30397665D01*
X222727335Y-30495505D01*
X222847164Y-30564688D01*
X222980817Y-30600500D01*
X222980819Y-30600500D01*
X223119181Y-30600500D01*
X223119183Y-30600500D01*
X223252836Y-30564688D01*
X223372665Y-30495505D01*
X223470505Y-30397665D01*
X223539688Y-30277836D01*
X223575500Y-30144183D01*
X223575500Y-30005817D01*
X223539688Y-29872164D01*
X223470505Y-29752335D01*
X223372665Y-29654495D01*
X223252836Y-29585312D01*
X223119183Y-29549500D01*
X222980817Y-29549500D01*
X222847164Y-29585312D01*
X222727335Y-29654495D01*
X222629495Y-29752335D01*
X222560312Y-29872164D01*
X222524500Y-30005817D01*
X221625494Y-30005817D01*
X221589682Y-29872164D01*
X221520499Y-29752335D01*
X221422659Y-29654495D01*
X221302830Y-29585312D01*
X221169177Y-29549500D01*
X221030811Y-29549500D01*
X220897158Y-29585312D01*
X220777329Y-29654495D01*
X220679489Y-29752335D01*
X220610306Y-29872164D01*
X220574494Y-30005817D01*
X219675499Y-30005817D01*
X219639688Y-29872168D01*
X219570505Y-29752339D01*
X219472665Y-29654499D01*
X219352836Y-29585316D01*
X219219183Y-29549504D01*
X219080817Y-29549504D01*
X218947164Y-29585316D01*
X218827335Y-29654499D01*
X218729495Y-29752339D01*
X218660312Y-29872168D01*
X218624500Y-30005821D01*
X214479000Y-30005821D01*
X214479000Y-27380177D01*
X214497907Y-27321986D01*
X214507990Y-27310179D01*
X214570505Y-27247665D01*
X214639688Y-27127836D01*
X214675500Y-26994183D01*
X214675500Y-26855817D01*
X214639688Y-26722164D01*
X214570505Y-26602335D01*
X214472665Y-26504495D01*
X214352836Y-26435312D01*
X214219183Y-26399500D01*
X214080817Y-26399500D01*
X213947164Y-26435312D01*
X213827335Y-26504495D01*
X213729495Y-26602335D01*
X213660312Y-26722164D01*
X213624500Y-26855817D01*
X213624500Y-26994183D01*
X213660312Y-27127836D01*
X213729495Y-27247665D01*
X213792005Y-27310175D01*
X213819781Y-27364690D01*
X213821000Y-27380177D01*
X213821000Y-33700606D01*
X213820999Y-33700624D01*
X213820999Y-33793316D01*
X213843419Y-33876986D01*
X213843420Y-33876987D01*
X213886731Y-33952007D01*
X213886732Y-33952008D01*
X213886734Y-33952011D01*
X215342005Y-35407282D01*
X215369781Y-35461797D01*
X215371000Y-35477284D01*
X215371000Y-45219822D01*
X215368531Y-45227419D01*
X215369781Y-45235309D01*
X215359256Y-45255964D01*
X215352093Y-45278013D01*
X215342005Y-45289825D01*
X215307504Y-45324326D01*
X215252987Y-45352103D01*
X215192555Y-45342532D01*
X215167496Y-45324326D01*
X215157996Y-45314826D01*
X215150877Y-45300854D01*
X215149290Y-45299267D01*
X215148938Y-45297049D01*
X215130219Y-45260309D01*
X215129000Y-45244822D01*
X215129000Y-35751301D01*
X215129001Y-35751288D01*
X215129001Y-35656685D01*
X215129000Y-35656683D01*
X215106580Y-35573013D01*
X215106579Y-35573012D01*
X215106579Y-35573011D01*
X215081470Y-35529520D01*
X215063266Y-35497989D01*
X215002011Y-35436734D01*
X215002008Y-35436732D01*
X213032996Y-33467719D01*
X213005219Y-33413202D01*
X213004000Y-33397715D01*
X213004000Y-30555177D01*
X213022907Y-30496986D01*
X213032990Y-30485179D01*
X213095505Y-30422665D01*
X213164688Y-30302836D01*
X213200500Y-30169183D01*
X213200500Y-30030817D01*
X213164688Y-29897164D01*
X213095505Y-29777335D01*
X212997665Y-29679495D01*
X212877836Y-29610312D01*
X212744183Y-29574500D01*
X212605817Y-29574500D01*
X212472164Y-29610312D01*
X212352335Y-29679495D01*
X212254495Y-29777335D01*
X212185312Y-29897164D01*
X212149500Y-30030817D01*
X207568801Y-30030817D01*
X207539688Y-29922164D01*
X207470505Y-29802335D01*
X207372665Y-29704495D01*
X207252836Y-29635312D01*
X207119183Y-29599500D01*
X206980817Y-29599500D01*
X206847164Y-29635312D01*
X206727335Y-29704495D01*
X206629495Y-29802335D01*
X206560312Y-29922164D01*
X206524500Y-30055817D01*
X175400000Y-30055817D01*
X175400000Y-28760817D01*
X202419500Y-28760817D01*
X202419500Y-28899183D01*
X202455312Y-29032836D01*
X202524495Y-29152665D01*
X202622335Y-29250505D01*
X202742164Y-29319688D01*
X202875817Y-29355500D01*
X202875819Y-29355500D01*
X203014181Y-29355500D01*
X203014183Y-29355500D01*
X203147836Y-29319688D01*
X203267665Y-29250505D01*
X203365505Y-29152665D01*
X203434688Y-29032836D01*
X203470500Y-28899183D01*
X203470500Y-28760817D01*
X203434688Y-28627164D01*
X203365505Y-28507335D01*
X203267665Y-28409495D01*
X203147836Y-28340312D01*
X203014183Y-28304500D01*
X202875817Y-28304500D01*
X202742164Y-28340312D01*
X202622335Y-28409495D01*
X202524495Y-28507335D01*
X202455312Y-28627164D01*
X202419500Y-28760817D01*
X175400000Y-28760817D01*
X175400000Y-27675817D01*
X206024500Y-27675817D01*
X206024500Y-27814183D01*
X206060312Y-27947836D01*
X206129495Y-28067665D01*
X206227335Y-28165505D01*
X206347164Y-28234688D01*
X206480817Y-28270500D01*
X206480819Y-28270500D01*
X206619181Y-28270500D01*
X206619183Y-28270500D01*
X206752836Y-28234688D01*
X206872665Y-28165505D01*
X206970505Y-28067665D01*
X207039688Y-27947836D01*
X207075500Y-27814183D01*
X207075500Y-27685817D01*
X207594500Y-27685817D01*
X207594500Y-27824183D01*
X207630312Y-27957836D01*
X207699495Y-28077665D01*
X207797335Y-28175505D01*
X207917164Y-28244688D01*
X208050817Y-28280500D01*
X208050819Y-28280500D01*
X208189181Y-28280500D01*
X208189183Y-28280500D01*
X208322836Y-28244688D01*
X208442665Y-28175505D01*
X208540505Y-28077665D01*
X208609688Y-27957836D01*
X208645500Y-27824183D01*
X208645500Y-27685817D01*
X208640141Y-27665817D01*
X211134500Y-27665817D01*
X211134500Y-27804183D01*
X211170312Y-27937836D01*
X211239495Y-28057665D01*
X211337335Y-28155505D01*
X211457164Y-28224688D01*
X211590817Y-28260500D01*
X211590819Y-28260500D01*
X211729181Y-28260500D01*
X211729183Y-28260500D01*
X211862836Y-28224688D01*
X211982665Y-28155505D01*
X212080505Y-28057665D01*
X212149688Y-27937836D01*
X212185500Y-27804183D01*
X212185500Y-27665817D01*
X212149688Y-27532164D01*
X212080505Y-27412335D01*
X211982665Y-27314495D01*
X211862836Y-27245312D01*
X211729183Y-27209500D01*
X211590817Y-27209500D01*
X211457164Y-27245312D01*
X211337335Y-27314495D01*
X211239495Y-27412335D01*
X211170312Y-27532164D01*
X211134500Y-27665817D01*
X208640141Y-27665817D01*
X208609688Y-27552164D01*
X208540505Y-27432335D01*
X208442665Y-27334495D01*
X208322836Y-27265312D01*
X208189183Y-27229500D01*
X208050817Y-27229500D01*
X207917164Y-27265312D01*
X207797335Y-27334495D01*
X207699495Y-27432335D01*
X207630312Y-27552164D01*
X207594500Y-27685817D01*
X207075500Y-27685817D01*
X207075500Y-27675817D01*
X207039688Y-27542164D01*
X206970505Y-27422335D01*
X206872665Y-27324495D01*
X206752836Y-27255312D01*
X206619183Y-27219500D01*
X206480817Y-27219500D01*
X206347164Y-27255312D01*
X206227335Y-27324495D01*
X206129495Y-27422335D01*
X206060312Y-27542164D01*
X206024500Y-27675817D01*
X175400000Y-27675817D01*
X175400000Y-27586175D01*
X176026643Y-27586175D01*
X176026644Y-27586175D01*
X178021831Y-27586175D01*
X178021832Y-27586175D01*
X178021832Y-25936204D01*
X215989483Y-25936204D01*
X215989483Y-26514999D01*
X215989484Y-26515000D01*
X216489483Y-26515000D01*
X216489483Y-27015000D01*
X215989484Y-27015000D01*
X215989483Y-27015001D01*
X215989483Y-27593795D01*
X216020225Y-27748349D01*
X216080531Y-27893940D01*
X216080535Y-27893949D01*
X216168082Y-28024969D01*
X216168085Y-28024973D01*
X216279509Y-28136397D01*
X216279513Y-28136400D01*
X216410541Y-28223951D01*
X216539482Y-28277360D01*
X216539483Y-28277359D01*
X216539483Y-27681988D01*
X216549423Y-27699205D01*
X216605278Y-27755060D01*
X216673687Y-27794556D01*
X216749987Y-27815000D01*
X216828979Y-27815000D01*
X216905279Y-27794556D01*
X216973688Y-27755060D01*
X217029543Y-27699205D01*
X217039483Y-27681988D01*
X217039483Y-28277360D01*
X217168424Y-28223951D01*
X217299452Y-28136400D01*
X217299456Y-28136397D01*
X217410880Y-28024973D01*
X217410883Y-28024969D01*
X217498430Y-27893949D01*
X217498434Y-27893940D01*
X217558740Y-27748349D01*
X217589482Y-27593795D01*
X217589483Y-27593792D01*
X217589483Y-27015001D01*
X217589482Y-27015000D01*
X217089483Y-27015000D01*
X217089483Y-26515000D01*
X217589482Y-26515000D01*
X217589483Y-26514999D01*
X217589483Y-25936207D01*
X217589482Y-25936204D01*
X224629483Y-25936204D01*
X224629483Y-26514999D01*
X224629484Y-26515000D01*
X225129483Y-26515000D01*
X225129483Y-27015000D01*
X224629484Y-27015000D01*
X224629483Y-27015001D01*
X224629483Y-27593795D01*
X224660225Y-27748349D01*
X224720531Y-27893940D01*
X224720535Y-27893949D01*
X224808082Y-28024969D01*
X224808085Y-28024973D01*
X224919509Y-28136397D01*
X224919513Y-28136400D01*
X225050541Y-28223951D01*
X225179482Y-28277360D01*
X225179483Y-28277359D01*
X225179483Y-27681988D01*
X225189423Y-27699205D01*
X225245278Y-27755060D01*
X225313687Y-27794556D01*
X225389987Y-27815000D01*
X225468979Y-27815000D01*
X225545279Y-27794556D01*
X225613688Y-27755060D01*
X225669543Y-27699205D01*
X225679483Y-27681988D01*
X225679483Y-28277360D01*
X225808424Y-28223951D01*
X225939452Y-28136400D01*
X225939456Y-28136397D01*
X226050880Y-28024973D01*
X226050883Y-28024969D01*
X226138430Y-27893949D01*
X226138434Y-27893940D01*
X226198740Y-27748349D01*
X226229482Y-27593795D01*
X226229483Y-27593792D01*
X226229483Y-27015001D01*
X226229482Y-27015000D01*
X225729483Y-27015000D01*
X225729483Y-26515000D01*
X226229482Y-26515000D01*
X226229483Y-26514999D01*
X226229483Y-25936207D01*
X226229482Y-25936204D01*
X226198740Y-25781650D01*
X226138434Y-25636059D01*
X226138430Y-25636050D01*
X226050883Y-25505030D01*
X226050880Y-25505026D01*
X225939456Y-25393602D01*
X225939452Y-25393599D01*
X225808432Y-25306052D01*
X225808423Y-25306048D01*
X225679483Y-25252639D01*
X225679483Y-25848011D01*
X225669543Y-25830795D01*
X225613688Y-25774940D01*
X225545279Y-25735444D01*
X225468979Y-25715000D01*
X225389987Y-25715000D01*
X225313687Y-25735444D01*
X225245278Y-25774940D01*
X225189423Y-25830795D01*
X225179483Y-25848011D01*
X225179483Y-25252639D01*
X225050542Y-25306048D01*
X225050533Y-25306052D01*
X224919513Y-25393599D01*
X224919509Y-25393602D01*
X224808085Y-25505026D01*
X224808082Y-25505030D01*
X224720535Y-25636050D01*
X224720531Y-25636059D01*
X224660225Y-25781650D01*
X224629483Y-25936204D01*
X217589482Y-25936204D01*
X217558740Y-25781650D01*
X217498434Y-25636059D01*
X217498430Y-25636050D01*
X217410883Y-25505030D01*
X217410880Y-25505026D01*
X217299456Y-25393602D01*
X217299452Y-25393599D01*
X217168432Y-25306052D01*
X217168423Y-25306048D01*
X217039483Y-25252639D01*
X217039483Y-25848011D01*
X217029543Y-25830795D01*
X216973688Y-25774940D01*
X216905279Y-25735444D01*
X216828979Y-25715000D01*
X216749987Y-25715000D01*
X216673687Y-25735444D01*
X216605278Y-25774940D01*
X216549423Y-25830795D01*
X216539483Y-25848011D01*
X216539483Y-25252639D01*
X216410542Y-25306048D01*
X216410533Y-25306052D01*
X216279513Y-25393599D01*
X216279509Y-25393602D01*
X216168085Y-25505026D01*
X216168082Y-25505030D01*
X216080535Y-25636050D01*
X216080531Y-25636059D01*
X216020225Y-25781650D01*
X215989483Y-25936204D01*
X178021832Y-25936204D01*
X178021832Y-25923504D01*
X176026643Y-25923504D01*
X176026643Y-27586175D01*
X175400000Y-27586175D01*
X175400000Y-24899000D01*
X175418907Y-24840809D01*
X175468407Y-24804845D01*
X175499000Y-24800000D01*
X243501000Y-24800000D01*
X243559191Y-24818907D01*
G37*
%TD.AperFunction*%
%TD*%
%TA.AperFunction,Conductor*%
%TO.N,Board_0-/PROBE_VGND*%
G36*
X242327826Y-89421674D02*
G01*
X242349500Y-89474000D01*
X242349500Y-106711712D01*
X242327826Y-106764038D01*
X234453219Y-114638644D01*
X234400893Y-114660318D01*
X234372575Y-114654685D01*
X234244421Y-114601602D01*
X233991114Y-114533729D01*
X233799578Y-114508512D01*
X233731120Y-114499500D01*
X233468880Y-114499500D01*
X233408386Y-114507464D01*
X233208885Y-114533729D01*
X232955584Y-114601601D01*
X232955583Y-114601601D01*
X232713305Y-114701955D01*
X232713303Y-114701956D01*
X232486197Y-114833075D01*
X232278144Y-114992722D01*
X232092722Y-115178144D01*
X231933075Y-115386197D01*
X231801956Y-115613303D01*
X231801955Y-115613305D01*
X231701601Y-115855583D01*
X231701601Y-115855584D01*
X231633729Y-116108885D01*
X231608750Y-116298620D01*
X231599500Y-116368880D01*
X231599500Y-116631120D01*
X231604357Y-116668008D01*
X231633729Y-116891114D01*
X231701601Y-117144415D01*
X231701601Y-117144416D01*
X231801955Y-117386694D01*
X231801956Y-117386696D01*
X231918773Y-117589030D01*
X231926165Y-117645183D01*
X231891687Y-117690116D01*
X231835534Y-117697508D01*
X231826369Y-117694397D01*
X231780746Y-117675499D01*
X231780739Y-117675497D01*
X231690696Y-117657586D01*
X231655069Y-117650500D01*
X231655067Y-117650500D01*
X230310051Y-117650500D01*
X230257725Y-117628826D01*
X230236051Y-117576500D01*
X230251343Y-117531451D01*
X230316532Y-117446495D01*
X230427954Y-117253503D01*
X230427956Y-117253500D01*
X230513236Y-117047618D01*
X230570913Y-116832365D01*
X230600000Y-116611422D01*
X230600000Y-116388577D01*
X230570913Y-116167634D01*
X230513236Y-115952381D01*
X230427956Y-115746499D01*
X230427954Y-115746496D01*
X230316534Y-115553507D01*
X230316530Y-115553501D01*
X230265958Y-115487595D01*
X229708501Y-116045051D01*
X229618495Y-115910347D01*
X229489653Y-115781505D01*
X229354946Y-115691496D01*
X229912403Y-115134040D01*
X229846498Y-115083469D01*
X229846492Y-115083465D01*
X229653503Y-114972045D01*
X229653500Y-114972043D01*
X229447618Y-114886763D01*
X229232364Y-114829086D01*
X229232366Y-114829086D01*
X229011422Y-114800000D01*
X228788578Y-114800000D01*
X228567634Y-114829086D01*
X228352381Y-114886763D01*
X228146499Y-114972043D01*
X228146496Y-114972045D01*
X227953509Y-115083464D01*
X227887595Y-115134041D01*
X228445051Y-115691497D01*
X228310347Y-115781505D01*
X228181505Y-115910347D01*
X228091497Y-116045051D01*
X227534041Y-115487595D01*
X227483464Y-115553509D01*
X227372045Y-115746496D01*
X227372043Y-115746499D01*
X227286763Y-115952381D01*
X227229086Y-116167634D01*
X227200000Y-116388577D01*
X227200000Y-116611422D01*
X227229086Y-116832365D01*
X227286763Y-117047618D01*
X227372043Y-117253500D01*
X227372045Y-117253503D01*
X227483467Y-117446495D01*
X227548657Y-117531451D01*
X227563316Y-117586158D01*
X227534998Y-117635208D01*
X227489949Y-117650500D01*
X224926098Y-117650500D01*
X224873772Y-117628826D01*
X211572174Y-104327228D01*
X211550500Y-104274902D01*
X211550500Y-102534578D01*
X213699500Y-102534578D01*
X213699500Y-102815421D01*
X213730945Y-103094512D01*
X213730945Y-103094513D01*
X213793437Y-103368309D01*
X213793442Y-103368325D01*
X213886198Y-103633407D01*
X214008052Y-103886440D01*
X214008054Y-103886444D01*
X214008055Y-103886445D01*
X214157477Y-104124248D01*
X214332584Y-104343825D01*
X214531175Y-104542416D01*
X214750752Y-104717523D01*
X214988555Y-104866945D01*
X215241592Y-104988801D01*
X215506682Y-105081560D01*
X215506687Y-105081561D01*
X215506690Y-105081562D01*
X215780486Y-105144054D01*
X215780487Y-105144054D01*
X215780491Y-105144055D01*
X216059575Y-105175500D01*
X216059579Y-105175500D01*
X216340421Y-105175500D01*
X216340425Y-105175500D01*
X216619509Y-105144055D01*
X216893318Y-105081560D01*
X217158408Y-104988801D01*
X217411445Y-104866945D01*
X217649248Y-104717523D01*
X217868825Y-104542416D01*
X218067416Y-104343825D01*
X218242523Y-104124248D01*
X218391945Y-103886445D01*
X218513801Y-103633408D01*
X218606560Y-103368318D01*
X218669055Y-103094509D01*
X218700500Y-102815425D01*
X218700500Y-102534575D01*
X218669055Y-102255491D01*
X218606560Y-101981682D01*
X218513801Y-101716592D01*
X218391945Y-101463555D01*
X218242523Y-101225752D01*
X218067416Y-101006175D01*
X217868825Y-100807584D01*
X217649248Y-100632477D01*
X217411445Y-100483055D01*
X217411444Y-100483054D01*
X217411440Y-100483052D01*
X217158407Y-100361198D01*
X216893325Y-100268442D01*
X216893309Y-100268437D01*
X216619513Y-100205945D01*
X216479967Y-100190222D01*
X216340425Y-100174500D01*
X216059575Y-100174500D01*
X215920033Y-100190222D01*
X215780487Y-100205945D01*
X215780486Y-100205945D01*
X215506690Y-100268437D01*
X215506674Y-100268442D01*
X215241592Y-100361198D01*
X214988559Y-100483052D01*
X214750751Y-100632477D01*
X214531175Y-100807583D01*
X214332583Y-101006175D01*
X214157477Y-101225751D01*
X214008052Y-101463559D01*
X213886198Y-101716592D01*
X213793442Y-101981674D01*
X213793437Y-101981690D01*
X213730945Y-102255486D01*
X213730945Y-102255487D01*
X213712976Y-102414967D01*
X213708039Y-102458794D01*
X213699500Y-102534578D01*
X211550500Y-102534578D01*
X211550500Y-95854801D01*
X211562971Y-95813690D01*
X211577239Y-95792337D01*
X211635698Y-95651205D01*
X211665500Y-95501380D01*
X211665500Y-95348620D01*
X211635698Y-95198795D01*
X211577239Y-95057663D01*
X211492370Y-94930648D01*
X211384352Y-94822630D01*
X211257337Y-94737761D01*
X211257338Y-94737761D01*
X211257336Y-94737760D01*
X211116205Y-94679302D01*
X211116198Y-94679300D01*
X211003328Y-94656849D01*
X210966380Y-94649500D01*
X210813620Y-94649500D01*
X210783981Y-94655395D01*
X210663801Y-94679300D01*
X210663794Y-94679302D01*
X210522663Y-94737760D01*
X210395651Y-94822627D01*
X210287627Y-94930651D01*
X210202760Y-95057663D01*
X210144302Y-95198794D01*
X210144300Y-95198801D01*
X210114500Y-95348620D01*
X210114500Y-95501379D01*
X210144300Y-95651198D01*
X210144302Y-95651205D01*
X210202760Y-95792336D01*
X210237029Y-95843622D01*
X210249500Y-95884734D01*
X210249500Y-101166898D01*
X210227826Y-101219224D01*
X210175500Y-101240898D01*
X210123174Y-101219224D01*
X210113974Y-101208015D01*
X210102370Y-101190648D01*
X209994352Y-101082630D01*
X209994348Y-101082627D01*
X209867336Y-100997760D01*
X209726205Y-100939302D01*
X209726198Y-100939300D01*
X209613328Y-100916849D01*
X209576380Y-100909500D01*
X209576379Y-100909500D01*
X209573982Y-100909500D01*
X209573232Y-100909189D01*
X209572759Y-100909143D01*
X209572773Y-100908999D01*
X209521656Y-100887826D01*
X207900674Y-99266844D01*
X207879000Y-99214518D01*
X207879000Y-96333373D01*
X207900176Y-96282247D01*
X207900067Y-96282157D01*
X207900364Y-96281794D01*
X207900673Y-96281048D01*
X207902370Y-96279352D01*
X207987239Y-96152337D01*
X208045698Y-96011205D01*
X208075500Y-95861380D01*
X208075500Y-95708620D01*
X208045698Y-95558795D01*
X207987239Y-95417663D01*
X207902370Y-95290648D01*
X207794352Y-95182630D01*
X207667337Y-95097761D01*
X207667338Y-95097761D01*
X207667336Y-95097760D01*
X207526205Y-95039302D01*
X207526198Y-95039300D01*
X207413328Y-95016849D01*
X207376380Y-95009500D01*
X207223620Y-95009500D01*
X207193981Y-95015395D01*
X207073801Y-95039300D01*
X207073794Y-95039302D01*
X206932663Y-95097760D01*
X206805651Y-95182627D01*
X206697627Y-95290651D01*
X206612760Y-95417663D01*
X206554302Y-95558794D01*
X206554300Y-95558801D01*
X206524500Y-95708620D01*
X206524500Y-95861379D01*
X206554300Y-96011198D01*
X206554302Y-96011205D01*
X206612760Y-96152336D01*
X206612761Y-96152337D01*
X206697630Y-96279352D01*
X206699326Y-96281048D01*
X206699635Y-96281794D01*
X206699933Y-96282157D01*
X206699823Y-96282247D01*
X206721000Y-96333373D01*
X206721000Y-99561229D01*
X206760456Y-99708482D01*
X206760458Y-99708487D01*
X206836682Y-99840510D01*
X206836683Y-99840511D01*
X206836685Y-99840514D01*
X207264608Y-100268437D01*
X207665845Y-100669674D01*
X207687519Y-100722000D01*
X207665845Y-100774326D01*
X207613519Y-100796000D01*
X206920481Y-100796000D01*
X206868155Y-100774326D01*
X204397174Y-98303345D01*
X204376000Y-98252226D01*
X204375857Y-98252241D01*
X204375810Y-98251768D01*
X204375500Y-98251019D01*
X204375500Y-98248620D01*
X204345699Y-98098801D01*
X204345698Y-98098795D01*
X204287239Y-97957663D01*
X204202370Y-97830648D01*
X204094352Y-97722630D01*
X203967337Y-97637761D01*
X203967338Y-97637761D01*
X203967336Y-97637760D01*
X203826205Y-97579302D01*
X203826198Y-97579300D01*
X203713328Y-97556849D01*
X203676380Y-97549500D01*
X203523620Y-97549500D01*
X203493981Y-97555395D01*
X203373801Y-97579300D01*
X203373794Y-97579302D01*
X203232663Y-97637760D01*
X203105651Y-97722627D01*
X202997627Y-97830651D01*
X202912760Y-97957663D01*
X202854302Y-98098794D01*
X202854300Y-98098801D01*
X202824500Y-98248620D01*
X202824500Y-98401379D01*
X202854300Y-98551198D01*
X202854302Y-98551205D01*
X202912760Y-98692336D01*
X202912761Y-98692337D01*
X202997630Y-98819352D01*
X203105648Y-98927370D01*
X203232663Y-99012239D01*
X203373795Y-99070698D01*
X203523620Y-99100500D01*
X203526019Y-99100500D01*
X203526768Y-99100810D01*
X203527241Y-99100857D01*
X203527226Y-99101000D01*
X203578345Y-99122174D01*
X206186685Y-101730514D01*
X206294486Y-101838315D01*
X206294488Y-101838316D01*
X206294489Y-101838317D01*
X206387628Y-101892091D01*
X206426514Y-101914542D01*
X206504797Y-101935517D01*
X206549730Y-101969996D01*
X206557123Y-102026148D01*
X206526758Y-102068523D01*
X206505656Y-102082623D01*
X206505650Y-102082628D01*
X206397627Y-102190651D01*
X206312760Y-102317663D01*
X206254302Y-102458794D01*
X206254300Y-102458801D01*
X206224500Y-102608620D01*
X206224500Y-102761379D01*
X206254300Y-102911198D01*
X206254302Y-102911205D01*
X206312760Y-103052336D01*
X206388786Y-103166116D01*
X206397630Y-103179352D01*
X206401826Y-103183548D01*
X206423500Y-103235873D01*
X206423500Y-103794556D01*
X206423499Y-103794574D01*
X206423499Y-103950899D01*
X206443488Y-104025499D01*
X206443488Y-104025500D01*
X206462785Y-104097517D01*
X206462787Y-104097522D01*
X206538685Y-104228980D01*
X206650235Y-104340530D01*
X206650241Y-104340535D01*
X208607880Y-106298174D01*
X208629554Y-106350500D01*
X208607880Y-106402826D01*
X208555554Y-106424500D01*
X193650098Y-106424500D01*
X193597772Y-106402826D01*
X191624471Y-104429525D01*
X191604219Y-104391635D01*
X191595699Y-104348801D01*
X191595698Y-104348795D01*
X191537239Y-104207663D01*
X191452370Y-104080648D01*
X191344352Y-103972630D01*
X191344348Y-103972627D01*
X191217336Y-103887760D01*
X191076205Y-103829302D01*
X191076198Y-103829300D01*
X190963328Y-103806849D01*
X190926380Y-103799500D01*
X190773620Y-103799500D01*
X190743981Y-103805395D01*
X190623801Y-103829300D01*
X190623794Y-103829302D01*
X190482663Y-103887760D01*
X190355651Y-103972627D01*
X190247627Y-104080651D01*
X190162760Y-104207663D01*
X190104302Y-104348794D01*
X190104300Y-104348801D01*
X190074500Y-104498620D01*
X190074500Y-104651379D01*
X190104300Y-104801198D01*
X190104302Y-104801205D01*
X190162760Y-104942336D01*
X190194387Y-104989669D01*
X190247630Y-105069352D01*
X190355648Y-105177370D01*
X190482663Y-105262239D01*
X190623795Y-105320698D01*
X190666636Y-105329219D01*
X190704525Y-105349471D01*
X192935331Y-107580277D01*
X193019003Y-107636184D01*
X193041873Y-107651465D01*
X193160256Y-107700501D01*
X193160258Y-107700501D01*
X193160260Y-107700502D01*
X193202903Y-107708984D01*
X193285931Y-107725500D01*
X209899902Y-107725500D01*
X209952228Y-107747174D01*
X225029331Y-122824277D01*
X225135874Y-122895466D01*
X225205219Y-122924188D01*
X225205220Y-122924189D01*
X225239895Y-122938552D01*
X225254256Y-122944501D01*
X225254258Y-122944501D01*
X225254260Y-122944502D01*
X225296903Y-122952984D01*
X225379931Y-122969500D01*
X225508069Y-122969500D01*
X227126091Y-122969500D01*
X227178417Y-122991174D01*
X227200091Y-123043500D01*
X227190177Y-123080500D01*
X227101956Y-123233303D01*
X227101955Y-123233305D01*
X227001601Y-123475583D01*
X227001601Y-123475584D01*
X226933729Y-123728885D01*
X226899500Y-123988881D01*
X226899500Y-124251118D01*
X226933729Y-124511114D01*
X226992508Y-124730481D01*
X227001602Y-124764419D01*
X227021076Y-124811433D01*
X227101955Y-125006694D01*
X227101956Y-125006696D01*
X227202295Y-125180488D01*
X227233076Y-125233803D01*
X227392718Y-125441851D01*
X227578149Y-125627282D01*
X227736791Y-125749013D01*
X227786197Y-125786924D01*
X228013303Y-125918043D01*
X228013305Y-125918044D01*
X228019715Y-125920699D01*
X228255581Y-126018398D01*
X228508884Y-126086270D01*
X228768880Y-126120500D01*
X228768882Y-126120500D01*
X229031118Y-126120500D01*
X229031120Y-126120500D01*
X229291116Y-126086270D01*
X229544419Y-126018398D01*
X229786697Y-125918043D01*
X230013803Y-125786924D01*
X230221851Y-125627282D01*
X230407282Y-125441851D01*
X230566924Y-125233803D01*
X230698043Y-125006697D01*
X230798398Y-124764419D01*
X230866270Y-124511116D01*
X230900500Y-124251120D01*
X230900500Y-123988880D01*
X230866270Y-123728884D01*
X230798398Y-123475581D01*
X230700562Y-123239384D01*
X230698044Y-123233305D01*
X230698043Y-123233303D01*
X230609823Y-123080500D01*
X230602431Y-123024347D01*
X230636909Y-122979414D01*
X230673909Y-122969500D01*
X231498902Y-122969500D01*
X231551228Y-122991174D01*
X231764474Y-123204420D01*
X231786148Y-123256746D01*
X231780515Y-123285064D01*
X231701603Y-123475577D01*
X231701601Y-123475584D01*
X231633729Y-123728885D01*
X231599500Y-123988881D01*
X231599500Y-124251118D01*
X231633729Y-124511114D01*
X231692508Y-124730481D01*
X231701602Y-124764419D01*
X231721076Y-124811433D01*
X231801955Y-125006694D01*
X231801956Y-125006696D01*
X231902295Y-125180488D01*
X231933076Y-125233803D01*
X232092718Y-125441851D01*
X232278149Y-125627282D01*
X232436791Y-125749013D01*
X232486197Y-125786924D01*
X232713303Y-125918043D01*
X232713305Y-125918044D01*
X232719715Y-125920699D01*
X232955581Y-126018398D01*
X233208884Y-126086270D01*
X233468880Y-126120500D01*
X233468882Y-126120500D01*
X233731118Y-126120500D01*
X233731120Y-126120500D01*
X233991116Y-126086270D01*
X234244419Y-126018398D01*
X234486697Y-125918043D01*
X234713803Y-125786924D01*
X234921851Y-125627282D01*
X235107282Y-125441851D01*
X235266924Y-125233803D01*
X235398043Y-125006697D01*
X235498398Y-124764419D01*
X235566270Y-124511116D01*
X235600500Y-124251120D01*
X235600500Y-123988880D01*
X235566270Y-123728884D01*
X235498398Y-123475581D01*
X235400562Y-123239384D01*
X235398044Y-123233305D01*
X235398043Y-123233303D01*
X235266924Y-123006197D01*
X235255396Y-122991174D01*
X235107282Y-122798149D01*
X234921851Y-122612718D01*
X234713803Y-122453076D01*
X234713804Y-122453076D01*
X234713802Y-122453075D01*
X234486696Y-122321956D01*
X234486688Y-122321953D01*
X234393533Y-122283367D01*
X234353484Y-122243319D01*
X234353484Y-122186682D01*
X234393531Y-122146633D01*
X234486697Y-122108043D01*
X234713803Y-121976924D01*
X234921851Y-121817282D01*
X235107282Y-121631851D01*
X235266924Y-121423803D01*
X235398043Y-121196697D01*
X235498398Y-120954419D01*
X235566270Y-120701116D01*
X235600500Y-120441120D01*
X235600500Y-120178880D01*
X235566270Y-119918884D01*
X235498398Y-119665581D01*
X235398043Y-119423303D01*
X235266924Y-119196197D01*
X235107282Y-118988149D01*
X234921851Y-118802718D01*
X234713803Y-118643076D01*
X234713804Y-118643076D01*
X234713802Y-118643075D01*
X234486696Y-118511956D01*
X234486688Y-118511953D01*
X234393533Y-118473367D01*
X234353484Y-118433319D01*
X234353484Y-118376682D01*
X234393531Y-118336633D01*
X234486697Y-118298043D01*
X234713803Y-118166924D01*
X234921851Y-118007282D01*
X235107282Y-117821851D01*
X235266924Y-117613803D01*
X235398043Y-117386697D01*
X235498398Y-117144419D01*
X235566270Y-116891116D01*
X235600500Y-116631120D01*
X235600500Y-116368880D01*
X236299500Y-116368880D01*
X236299500Y-116631120D01*
X236304357Y-116668008D01*
X236333729Y-116891114D01*
X236401601Y-117144415D01*
X236401601Y-117144416D01*
X236501955Y-117386694D01*
X236501956Y-117386696D01*
X236633075Y-117613802D01*
X236649501Y-117635208D01*
X236792718Y-117821851D01*
X236978149Y-118007282D01*
X237186197Y-118166924D01*
X237413303Y-118298043D01*
X237471825Y-118322283D01*
X237506467Y-118336633D01*
X237546515Y-118376682D01*
X237546515Y-118433319D01*
X237506467Y-118473367D01*
X237413306Y-118511955D01*
X237413303Y-118511956D01*
X237186197Y-118643075D01*
X236978144Y-118802722D01*
X236792722Y-118988144D01*
X236633075Y-119196197D01*
X236501956Y-119423303D01*
X236501955Y-119423305D01*
X236401601Y-119665583D01*
X236401601Y-119665584D01*
X236333729Y-119918885D01*
X236299500Y-120178881D01*
X236299500Y-120441118D01*
X236333729Y-120701114D01*
X236401601Y-120954415D01*
X236401601Y-120954416D01*
X236501955Y-121196694D01*
X236501956Y-121196696D01*
X236501957Y-121196697D01*
X236633076Y-121423803D01*
X236792718Y-121631851D01*
X236978149Y-121817282D01*
X237186197Y-121976924D01*
X237413303Y-122108043D01*
X237471825Y-122132283D01*
X237506467Y-122146633D01*
X237546515Y-122186682D01*
X237546515Y-122243319D01*
X237506467Y-122283367D01*
X237413306Y-122321955D01*
X237413303Y-122321956D01*
X237186197Y-122453075D01*
X236978144Y-122612722D01*
X236792722Y-122798144D01*
X236633075Y-123006197D01*
X236501956Y-123233303D01*
X236501955Y-123233305D01*
X236401601Y-123475583D01*
X236401601Y-123475584D01*
X236333729Y-123728885D01*
X236299500Y-123988881D01*
X236299500Y-124251118D01*
X236333729Y-124511114D01*
X236392508Y-124730481D01*
X236401602Y-124764419D01*
X236421076Y-124811433D01*
X236501955Y-125006694D01*
X236501956Y-125006696D01*
X236602295Y-125180488D01*
X236633076Y-125233803D01*
X236792718Y-125441851D01*
X236978149Y-125627282D01*
X237136791Y-125749013D01*
X237186197Y-125786924D01*
X237413303Y-125918043D01*
X237413305Y-125918044D01*
X237419715Y-125920699D01*
X237655581Y-126018398D01*
X237908884Y-126086270D01*
X238168880Y-126120500D01*
X238168882Y-126120500D01*
X238431118Y-126120500D01*
X238431120Y-126120500D01*
X238691116Y-126086270D01*
X238944419Y-126018398D01*
X239186697Y-125918043D01*
X239413803Y-125786924D01*
X239621851Y-125627282D01*
X239807282Y-125441851D01*
X239966924Y-125233803D01*
X240098043Y-125006697D01*
X240198398Y-124764419D01*
X240266270Y-124511116D01*
X240300500Y-124251120D01*
X240300500Y-123988880D01*
X240266270Y-123728884D01*
X240198398Y-123475581D01*
X240100562Y-123239384D01*
X240098044Y-123233305D01*
X240098043Y-123233303D01*
X239966924Y-123006197D01*
X239955396Y-122991174D01*
X239807282Y-122798149D01*
X239621851Y-122612718D01*
X239413803Y-122453076D01*
X239413804Y-122453076D01*
X239413802Y-122453075D01*
X239186696Y-122321956D01*
X239186688Y-122321953D01*
X239093533Y-122283367D01*
X239053484Y-122243319D01*
X239053484Y-122186682D01*
X239093531Y-122146633D01*
X239186697Y-122108043D01*
X239413803Y-121976924D01*
X239621851Y-121817282D01*
X239807282Y-121631851D01*
X239966924Y-121423803D01*
X240098043Y-121196697D01*
X240198398Y-120954419D01*
X240266270Y-120701116D01*
X240300500Y-120441120D01*
X240300500Y-120178880D01*
X240266270Y-119918884D01*
X240198398Y-119665581D01*
X240098043Y-119423303D01*
X239966924Y-119196197D01*
X239807282Y-118988149D01*
X239621851Y-118802718D01*
X239413803Y-118643076D01*
X239413804Y-118643076D01*
X239413802Y-118643075D01*
X239186696Y-118511956D01*
X239186688Y-118511953D01*
X239093533Y-118473367D01*
X239053484Y-118433319D01*
X239053484Y-118376682D01*
X239093531Y-118336633D01*
X239186697Y-118298043D01*
X239413803Y-118166924D01*
X239621851Y-118007282D01*
X239807282Y-117821851D01*
X239966924Y-117613803D01*
X240098043Y-117386697D01*
X240198398Y-117144419D01*
X240266270Y-116891116D01*
X240300500Y-116631120D01*
X240300500Y-116368880D01*
X240266270Y-116108884D01*
X240198398Y-115855581D01*
X240098043Y-115613303D01*
X239966924Y-115386197D01*
X239807282Y-115178149D01*
X239621851Y-114992718D01*
X239413803Y-114833076D01*
X239413804Y-114833076D01*
X239413802Y-114833075D01*
X239186696Y-114701956D01*
X239186694Y-114701955D01*
X239003203Y-114625951D01*
X238944419Y-114601602D01*
X238944417Y-114601601D01*
X238944416Y-114601601D01*
X238691114Y-114533729D01*
X238499578Y-114508512D01*
X238431120Y-114499500D01*
X238168880Y-114499500D01*
X238108386Y-114507464D01*
X237908885Y-114533729D01*
X237655584Y-114601601D01*
X237655583Y-114601601D01*
X237413305Y-114701955D01*
X237413303Y-114701956D01*
X237186197Y-114833075D01*
X236978144Y-114992722D01*
X236792722Y-115178144D01*
X236633075Y-115386197D01*
X236501956Y-115613303D01*
X236501955Y-115613305D01*
X236401601Y-115855583D01*
X236401601Y-115855584D01*
X236333729Y-116108885D01*
X236308750Y-116298620D01*
X236299500Y-116368880D01*
X235600500Y-116368880D01*
X235566270Y-116108884D01*
X235498398Y-115855581D01*
X235476496Y-115802704D01*
X235476496Y-115746070D01*
X235492534Y-115722065D01*
X243273675Y-107940925D01*
X243326000Y-107919252D01*
X243378326Y-107940926D01*
X243400000Y-107993252D01*
X243400000Y-139826000D01*
X243378326Y-139878326D01*
X243326000Y-139900000D01*
X237446836Y-139900000D01*
X237394510Y-139878326D01*
X237372836Y-139826000D01*
X237394510Y-139773674D01*
X237413240Y-139760066D01*
X237426428Y-139753346D01*
X237426429Y-139753344D01*
X237426433Y-139753343D01*
X237617510Y-139614517D01*
X237784517Y-139447510D01*
X237923343Y-139256433D01*
X238030568Y-139045992D01*
X238045123Y-139001198D01*
X238103550Y-138821378D01*
X238103550Y-138821375D01*
X238103553Y-138821368D01*
X238140500Y-138588092D01*
X238140500Y-138351908D01*
X238103553Y-138118632D01*
X238103551Y-138118627D01*
X238103550Y-138118621D01*
X238030570Y-137894013D01*
X238030568Y-137894010D01*
X238030568Y-137894008D01*
X237923343Y-137683567D01*
X237784517Y-137492490D01*
X237617510Y-137325483D01*
X237617507Y-137325480D01*
X237617505Y-137325479D01*
X237426432Y-137186656D01*
X237215986Y-137079429D01*
X236991378Y-137006449D01*
X236991365Y-137006446D01*
X236758093Y-136969500D01*
X236758092Y-136969500D01*
X235521908Y-136969500D01*
X235521907Y-136969500D01*
X235288634Y-137006446D01*
X235288621Y-137006449D01*
X235064013Y-137079429D01*
X234853567Y-137186656D01*
X234662494Y-137325479D01*
X234495479Y-137492494D01*
X234356656Y-137683567D01*
X234249429Y-137894013D01*
X234176449Y-138118621D01*
X234176446Y-138118634D01*
X234139500Y-138351907D01*
X234139500Y-138588092D01*
X234176446Y-138821365D01*
X234176449Y-138821378D01*
X234249429Y-139045986D01*
X234356656Y-139256432D01*
X234444524Y-139377372D01*
X234495483Y-139447510D01*
X234662490Y-139614517D01*
X234662493Y-139614519D01*
X234662494Y-139614520D01*
X234853567Y-139753343D01*
X234853571Y-139753346D01*
X234866760Y-139760066D01*
X234903542Y-139803133D01*
X234899098Y-139859596D01*
X234856031Y-139896378D01*
X234833164Y-139900000D01*
X232366836Y-139900000D01*
X232314510Y-139878326D01*
X232292836Y-139826000D01*
X232314510Y-139773674D01*
X232333240Y-139760066D01*
X232346428Y-139753346D01*
X232346429Y-139753344D01*
X232346433Y-139753343D01*
X232537510Y-139614517D01*
X232704517Y-139447510D01*
X232843343Y-139256433D01*
X232950568Y-139045992D01*
X232965123Y-139001198D01*
X233023550Y-138821378D01*
X233023550Y-138821375D01*
X233023553Y-138821368D01*
X233060500Y-138588092D01*
X233060500Y-138351908D01*
X233023553Y-138118632D01*
X233023551Y-138118627D01*
X233023550Y-138118621D01*
X232950570Y-137894013D01*
X232950568Y-137894010D01*
X232950568Y-137894008D01*
X232843343Y-137683567D01*
X232704517Y-137492490D01*
X232537510Y-137325483D01*
X232537507Y-137325480D01*
X232537505Y-137325479D01*
X232346432Y-137186656D01*
X232135986Y-137079429D01*
X231911378Y-137006449D01*
X231911365Y-137006446D01*
X231678093Y-136969500D01*
X231678092Y-136969500D01*
X230441908Y-136969500D01*
X230441907Y-136969500D01*
X230208634Y-137006446D01*
X230208621Y-137006449D01*
X229984013Y-137079429D01*
X229773567Y-137186656D01*
X229582494Y-137325479D01*
X229415479Y-137492494D01*
X229276656Y-137683567D01*
X229169429Y-137894013D01*
X229096449Y-138118621D01*
X229096446Y-138118634D01*
X229059500Y-138351907D01*
X229059500Y-138588092D01*
X229096446Y-138821365D01*
X229096449Y-138821378D01*
X229169429Y-139045986D01*
X229276656Y-139256432D01*
X229364524Y-139377372D01*
X229415483Y-139447510D01*
X229582490Y-139614517D01*
X229582493Y-139614519D01*
X229582494Y-139614520D01*
X229773567Y-139753343D01*
X229773571Y-139753346D01*
X229786760Y-139760066D01*
X229823542Y-139803133D01*
X229819098Y-139859596D01*
X229776031Y-139896378D01*
X229753164Y-139900000D01*
X175474000Y-139900000D01*
X175421674Y-139878326D01*
X175400000Y-139826000D01*
X175400000Y-138698620D01*
X184824500Y-138698620D01*
X184824500Y-138851379D01*
X184854300Y-139001198D01*
X184854302Y-139001205D01*
X184912760Y-139142336D01*
X184997627Y-139269348D01*
X184997630Y-139269352D01*
X185105648Y-139377370D01*
X185232663Y-139462239D01*
X185373795Y-139520698D01*
X185523620Y-139550500D01*
X185523621Y-139550500D01*
X185676379Y-139550500D01*
X185676380Y-139550500D01*
X185826205Y-139520698D01*
X185967337Y-139462239D01*
X186094352Y-139377370D01*
X186202370Y-139269352D01*
X186287239Y-139142337D01*
X186345698Y-139001205D01*
X186375500Y-138851380D01*
X186375500Y-138698620D01*
X186345698Y-138548795D01*
X186287239Y-138407663D01*
X186202370Y-138280648D01*
X186094352Y-138172630D01*
X186082933Y-138165000D01*
X185967336Y-138087760D01*
X185826205Y-138029302D01*
X185826198Y-138029300D01*
X185713328Y-138006849D01*
X185676380Y-137999500D01*
X185523620Y-137999500D01*
X185493981Y-138005395D01*
X185373801Y-138029300D01*
X185373794Y-138029302D01*
X185232663Y-138087760D01*
X185105651Y-138172627D01*
X184997627Y-138280651D01*
X184912760Y-138407663D01*
X184854302Y-138548794D01*
X184854300Y-138548801D01*
X184824500Y-138698620D01*
X175400000Y-138698620D01*
X175400000Y-136206907D01*
X181899500Y-136206907D01*
X181899500Y-136443092D01*
X181936446Y-136676365D01*
X181936449Y-136676378D01*
X182009429Y-136900986D01*
X182116656Y-137111432D01*
X182235495Y-137275000D01*
X182255483Y-137302510D01*
X182422490Y-137469517D01*
X182422493Y-137469519D01*
X182422494Y-137469520D01*
X182454115Y-137492494D01*
X182613567Y-137608343D01*
X182824008Y-137715568D01*
X182824010Y-137715568D01*
X182824013Y-137715570D01*
X183048621Y-137788550D01*
X183048627Y-137788551D01*
X183048632Y-137788553D01*
X183204149Y-137813184D01*
X183281907Y-137825500D01*
X183281908Y-137825500D01*
X184518093Y-137825500D01*
X184576411Y-137816263D01*
X184751368Y-137788553D01*
X184751375Y-137788550D01*
X184751378Y-137788550D01*
X184975986Y-137715570D01*
X184975986Y-137715569D01*
X184975992Y-137715568D01*
X185186433Y-137608343D01*
X185377510Y-137469517D01*
X185544517Y-137302510D01*
X185683343Y-137111433D01*
X185790568Y-136900992D01*
X185799867Y-136872374D01*
X185863550Y-136676378D01*
X185863550Y-136676375D01*
X185863553Y-136676368D01*
X185900500Y-136443092D01*
X185900500Y-136206908D01*
X185863553Y-135973632D01*
X185863551Y-135973627D01*
X185863550Y-135973621D01*
X185790570Y-135749013D01*
X185790568Y-135749010D01*
X185790568Y-135749008D01*
X185683343Y-135538567D01*
X185544517Y-135347490D01*
X185377510Y-135180483D01*
X185377507Y-135180480D01*
X185377505Y-135180479D01*
X185186432Y-135041656D01*
X184975986Y-134934429D01*
X184751378Y-134861449D01*
X184751365Y-134861446D01*
X184518093Y-134824500D01*
X184518092Y-134824500D01*
X183281908Y-134824500D01*
X183281907Y-134824500D01*
X183048634Y-134861446D01*
X183048621Y-134861449D01*
X182824013Y-134934429D01*
X182613567Y-135041656D01*
X182422494Y-135180479D01*
X182255479Y-135347494D01*
X182116656Y-135538567D01*
X182009429Y-135749013D01*
X181936449Y-135973621D01*
X181936446Y-135973634D01*
X181899500Y-136206907D01*
X175400000Y-136206907D01*
X175400000Y-132130719D01*
X194235000Y-132130719D01*
X194235000Y-132339280D01*
X194267625Y-132545269D01*
X194267628Y-132545282D01*
X194332072Y-132743620D01*
X194332074Y-132743625D01*
X194426755Y-132929446D01*
X194462625Y-132978818D01*
X194462626Y-132978818D01*
X194805884Y-132635559D01*
X194806740Y-132637626D01*
X194899762Y-132776844D01*
X195018156Y-132895238D01*
X195157374Y-132988260D01*
X195159437Y-132989114D01*
X194816180Y-133332372D01*
X194816180Y-133332373D01*
X194865547Y-133368240D01*
X195051380Y-133462927D01*
X195051379Y-133462927D01*
X195249717Y-133527371D01*
X195249730Y-133527374D01*
X195455719Y-133560000D01*
X195536000Y-133560000D01*
X195588326Y-133581674D01*
X195610000Y-133634000D01*
X195610000Y-135916000D01*
X195588326Y-135968326D01*
X195536000Y-135990000D01*
X195455719Y-135990000D01*
X195249730Y-136022625D01*
X195249717Y-136022628D01*
X195051379Y-136087072D01*
X195051374Y-136087074D01*
X194865553Y-136181755D01*
X194816180Y-136217625D01*
X194816180Y-136217626D01*
X195159438Y-136560884D01*
X195157374Y-136561740D01*
X195018156Y-136654762D01*
X194899762Y-136773156D01*
X194806740Y-136912374D01*
X194805884Y-136914438D01*
X194462626Y-136571180D01*
X194462625Y-136571180D01*
X194426755Y-136620553D01*
X194332074Y-136806374D01*
X194332072Y-136806379D01*
X194267628Y-137004717D01*
X194267625Y-137004730D01*
X194235000Y-137210719D01*
X194235000Y-137419280D01*
X194267625Y-137625269D01*
X194267628Y-137625282D01*
X194332072Y-137823620D01*
X194332074Y-137823625D01*
X194426755Y-138009446D01*
X194462625Y-138058818D01*
X194462626Y-138058818D01*
X194805884Y-137715559D01*
X194806740Y-137717626D01*
X194899762Y-137856844D01*
X195018156Y-137975238D01*
X195157374Y-138068260D01*
X195159437Y-138069114D01*
X194816180Y-138412372D01*
X194816180Y-138412373D01*
X194865547Y-138448240D01*
X195051380Y-138542927D01*
X195051379Y-138542927D01*
X195249717Y-138607371D01*
X195249730Y-138607374D01*
X195455719Y-138640000D01*
X195664281Y-138640000D01*
X195870269Y-138607374D01*
X195870282Y-138607371D01*
X196068619Y-138542927D01*
X196254452Y-138448239D01*
X196254453Y-138448239D01*
X196303818Y-138412373D01*
X195960560Y-138069115D01*
X195962626Y-138068260D01*
X196101844Y-137975238D01*
X196220238Y-137856844D01*
X196313260Y-137717626D01*
X196314115Y-137715560D01*
X196657373Y-138058818D01*
X196693239Y-138009453D01*
X196693239Y-138009452D01*
X196787927Y-137823619D01*
X196852371Y-137625282D01*
X196852374Y-137625269D01*
X196885000Y-137419280D01*
X196885000Y-137349000D01*
X196906674Y-137296674D01*
X196959000Y-137275000D01*
X199241000Y-137275000D01*
X199293326Y-137296674D01*
X199315000Y-137349000D01*
X199315000Y-137419280D01*
X199347625Y-137625269D01*
X199347628Y-137625282D01*
X199412072Y-137823620D01*
X199412074Y-137823625D01*
X199506755Y-138009446D01*
X199542625Y-138058818D01*
X199542626Y-138058818D01*
X199885884Y-137715560D01*
X199886740Y-137717626D01*
X199979762Y-137856844D01*
X200098156Y-137975238D01*
X200237374Y-138068260D01*
X200239437Y-138069114D01*
X199896180Y-138412372D01*
X199896180Y-138412373D01*
X199945547Y-138448240D01*
X200131380Y-138542927D01*
X200131379Y-138542927D01*
X200329717Y-138607371D01*
X200329730Y-138607374D01*
X200535719Y-138640000D01*
X200744281Y-138640000D01*
X200950269Y-138607374D01*
X200950282Y-138607371D01*
X201148619Y-138542927D01*
X201334452Y-138448239D01*
X201334453Y-138448239D01*
X201383818Y-138412373D01*
X201367941Y-138396496D01*
X201040560Y-138069115D01*
X201042626Y-138068260D01*
X201181844Y-137975238D01*
X201300238Y-137856844D01*
X201393260Y-137717626D01*
X201394115Y-137715560D01*
X201737373Y-138058818D01*
X201773239Y-138009453D01*
X201773239Y-138009452D01*
X201867927Y-137823619D01*
X201932371Y-137625282D01*
X201932374Y-137625269D01*
X201965000Y-137419280D01*
X201965000Y-137210719D01*
X201960038Y-137179389D01*
X201932374Y-137004730D01*
X201932371Y-137004717D01*
X201867927Y-136806380D01*
X201773240Y-136620547D01*
X201737373Y-136571180D01*
X201737372Y-136571180D01*
X201394114Y-136914437D01*
X201393260Y-136912374D01*
X201300238Y-136773156D01*
X201181844Y-136654762D01*
X201042626Y-136561740D01*
X201040560Y-136560884D01*
X201383818Y-136217626D01*
X201383818Y-136217625D01*
X201334446Y-136181755D01*
X201148625Y-136087074D01*
X201148620Y-136087072D01*
X200950282Y-136022628D01*
X200950271Y-136022626D01*
X200752423Y-135991289D01*
X200704133Y-135961696D01*
X200690000Y-135918200D01*
X200690000Y-133631799D01*
X200711674Y-133579473D01*
X200752424Y-133558710D01*
X200950269Y-133527374D01*
X200950282Y-133527371D01*
X201148619Y-133462927D01*
X201334452Y-133368239D01*
X201334453Y-133368239D01*
X201383818Y-133332373D01*
X201367941Y-133316496D01*
X201040560Y-132989115D01*
X201042626Y-132988260D01*
X201181844Y-132895238D01*
X201300238Y-132776844D01*
X201393260Y-132637626D01*
X201394115Y-132635560D01*
X201737373Y-132978818D01*
X201773239Y-132929453D01*
X201773239Y-132929452D01*
X201867927Y-132743619D01*
X201932371Y-132545282D01*
X201932374Y-132545269D01*
X201965000Y-132339280D01*
X201965000Y-132130719D01*
X201960038Y-132099389D01*
X201958665Y-132090719D01*
X212235000Y-132090719D01*
X212235000Y-132299280D01*
X212267625Y-132505269D01*
X212267628Y-132505282D01*
X212332072Y-132703620D01*
X212332074Y-132703625D01*
X212426755Y-132889446D01*
X212462625Y-132938818D01*
X212462626Y-132938818D01*
X212805884Y-132595559D01*
X212806740Y-132597626D01*
X212899762Y-132736844D01*
X213018156Y-132855238D01*
X213157374Y-132948260D01*
X213159437Y-132949114D01*
X212816180Y-133292372D01*
X212816180Y-133292373D01*
X212865547Y-133328240D01*
X213051380Y-133422927D01*
X213051379Y-133422927D01*
X213249717Y-133487371D01*
X213249730Y-133487374D01*
X213455719Y-133520000D01*
X213486000Y-133520000D01*
X213538326Y-133541674D01*
X213560000Y-133594000D01*
X213560000Y-135876000D01*
X213538326Y-135928326D01*
X213486000Y-135950000D01*
X213455719Y-135950000D01*
X213249730Y-135982625D01*
X213249717Y-135982628D01*
X213051379Y-136047072D01*
X213051374Y-136047074D01*
X212865553Y-136141755D01*
X212816180Y-136177625D01*
X212816180Y-136177626D01*
X213159438Y-136520884D01*
X213157374Y-136521740D01*
X213018156Y-136614762D01*
X212899762Y-136733156D01*
X212806740Y-136872374D01*
X212805884Y-136874438D01*
X212462626Y-136531180D01*
X212462625Y-136531180D01*
X212426755Y-136580553D01*
X212332074Y-136766374D01*
X212332072Y-136766379D01*
X212267628Y-136964717D01*
X212267625Y-136964730D01*
X212235000Y-137170719D01*
X212235000Y-137379280D01*
X212267625Y-137585269D01*
X212267628Y-137585282D01*
X212332072Y-137783620D01*
X212332074Y-137783625D01*
X212426755Y-137969446D01*
X212462625Y-138018818D01*
X212462626Y-138018818D01*
X212805884Y-137675559D01*
X212806740Y-137677626D01*
X212899762Y-137816844D01*
X213018156Y-137935238D01*
X213157374Y-138028260D01*
X213159437Y-138029114D01*
X212816180Y-138372372D01*
X212816180Y-138372373D01*
X212865547Y-138408240D01*
X213051380Y-138502927D01*
X213051379Y-138502927D01*
X213249717Y-138567371D01*
X213249730Y-138567374D01*
X213455719Y-138600000D01*
X213664281Y-138600000D01*
X213870269Y-138567374D01*
X213870282Y-138567371D01*
X214068619Y-138502927D01*
X214254452Y-138408239D01*
X214254453Y-138408239D01*
X214303818Y-138372373D01*
X213960560Y-138029115D01*
X213962626Y-138028260D01*
X214101844Y-137935238D01*
X214220238Y-137816844D01*
X214313260Y-137677626D01*
X214314115Y-137675560D01*
X214657373Y-138018818D01*
X214693239Y-137969453D01*
X214693239Y-137969452D01*
X214787927Y-137783619D01*
X214852371Y-137585282D01*
X214852374Y-137585269D01*
X214885000Y-137379280D01*
X214885000Y-137349000D01*
X214906674Y-137296674D01*
X214959000Y-137275000D01*
X217241000Y-137275000D01*
X217293326Y-137296674D01*
X217315000Y-137349000D01*
X217315000Y-137379280D01*
X217347625Y-137585269D01*
X217347628Y-137585282D01*
X217412072Y-137783620D01*
X217412074Y-137783625D01*
X217506755Y-137969446D01*
X217542625Y-138018818D01*
X217542626Y-138018818D01*
X217885884Y-137675560D01*
X217886740Y-137677626D01*
X217979762Y-137816844D01*
X218098156Y-137935238D01*
X218237374Y-138028260D01*
X218239437Y-138029114D01*
X217896180Y-138372372D01*
X217896180Y-138372373D01*
X217945547Y-138408240D01*
X218131380Y-138502927D01*
X218131379Y-138502927D01*
X218329717Y-138567371D01*
X218329730Y-138567374D01*
X218535719Y-138600000D01*
X218744281Y-138600000D01*
X218950269Y-138567374D01*
X218950282Y-138567371D01*
X219148619Y-138502927D01*
X219334452Y-138408239D01*
X219334453Y-138408239D01*
X219383818Y-138372373D01*
X219040560Y-138029115D01*
X219042626Y-138028260D01*
X219181844Y-137935238D01*
X219300238Y-137816844D01*
X219393260Y-137677626D01*
X219394115Y-137675560D01*
X219737373Y-138018818D01*
X219773239Y-137969453D01*
X219773239Y-137969452D01*
X219867927Y-137783619D01*
X219932371Y-137585282D01*
X219932374Y-137585269D01*
X219965000Y-137379280D01*
X219965000Y-137170719D01*
X219932374Y-136964730D01*
X219932371Y-136964717D01*
X219867927Y-136766380D01*
X219773240Y-136580547D01*
X219737373Y-136531180D01*
X219737372Y-136531180D01*
X219394114Y-136874437D01*
X219393260Y-136872374D01*
X219300238Y-136733156D01*
X219181844Y-136614762D01*
X219042626Y-136521740D01*
X219040560Y-136520884D01*
X219383818Y-136177626D01*
X219383818Y-136177625D01*
X219334446Y-136141755D01*
X219148625Y-136047074D01*
X219148620Y-136047072D01*
X218950282Y-135982628D01*
X218950269Y-135982625D01*
X218744281Y-135950000D01*
X218714000Y-135950000D01*
X218661674Y-135928326D01*
X218640000Y-135876000D01*
X218640000Y-133594000D01*
X218661674Y-133541674D01*
X218714000Y-133520000D01*
X218744281Y-133520000D01*
X218950269Y-133487374D01*
X218950282Y-133487371D01*
X219148619Y-133422927D01*
X219334452Y-133328239D01*
X219334453Y-133328239D01*
X219383818Y-133292373D01*
X219040560Y-132949115D01*
X219042626Y-132948260D01*
X219181844Y-132855238D01*
X219300238Y-132736844D01*
X219393260Y-132597626D01*
X219394115Y-132595560D01*
X219737373Y-132938818D01*
X219773239Y-132889453D01*
X219773239Y-132889452D01*
X219867927Y-132703619D01*
X219932371Y-132505282D01*
X219932374Y-132505269D01*
X219965000Y-132299280D01*
X219965000Y-132090719D01*
X219932374Y-131884730D01*
X219932371Y-131884717D01*
X219867927Y-131686380D01*
X219773240Y-131500547D01*
X219737373Y-131451180D01*
X219737372Y-131451180D01*
X219394114Y-131794437D01*
X219393260Y-131792374D01*
X219300238Y-131653156D01*
X219181844Y-131534762D01*
X219042626Y-131441740D01*
X219040559Y-131440884D01*
X219383818Y-131097626D01*
X219383818Y-131097625D01*
X219334446Y-131061755D01*
X219148625Y-130967074D01*
X219148620Y-130967072D01*
X218950282Y-130902628D01*
X218950269Y-130902625D01*
X218744281Y-130870000D01*
X218535719Y-130870000D01*
X218329730Y-130902625D01*
X218329717Y-130902628D01*
X218131379Y-130967072D01*
X218131374Y-130967074D01*
X217945553Y-131061755D01*
X217896180Y-131097625D01*
X217896180Y-131097626D01*
X218239438Y-131440884D01*
X218237374Y-131441740D01*
X218098156Y-131534762D01*
X217979762Y-131653156D01*
X217886740Y-131792374D01*
X217885884Y-131794438D01*
X217542626Y-131451180D01*
X217542625Y-131451180D01*
X217506755Y-131500553D01*
X217412074Y-131686374D01*
X217412072Y-131686379D01*
X217347628Y-131884717D01*
X217347625Y-131884730D01*
X217315000Y-132090719D01*
X217315000Y-132121000D01*
X217293326Y-132173326D01*
X217241000Y-132195000D01*
X214959000Y-132195000D01*
X214906674Y-132173326D01*
X214885000Y-132121000D01*
X214885000Y-132090719D01*
X214852374Y-131884730D01*
X214852371Y-131884717D01*
X214787927Y-131686380D01*
X214693240Y-131500547D01*
X214657373Y-131451180D01*
X214657372Y-131451180D01*
X214314114Y-131794438D01*
X214313260Y-131792374D01*
X214220238Y-131653156D01*
X214101844Y-131534762D01*
X213962626Y-131441740D01*
X213960559Y-131440884D01*
X214303818Y-131097626D01*
X214303818Y-131097625D01*
X214254446Y-131061755D01*
X214068625Y-130967074D01*
X214068620Y-130967072D01*
X213870282Y-130902628D01*
X213870269Y-130902625D01*
X213664281Y-130870000D01*
X213455719Y-130870000D01*
X213249730Y-130902625D01*
X213249717Y-130902628D01*
X213051379Y-130967072D01*
X213051374Y-130967074D01*
X212865553Y-131061755D01*
X212816180Y-131097625D01*
X212816180Y-131097626D01*
X213159438Y-131440884D01*
X213157374Y-131441740D01*
X213018156Y-131534762D01*
X212899762Y-131653156D01*
X212806740Y-131792374D01*
X212805884Y-131794438D01*
X212462626Y-131451180D01*
X212462625Y-131451180D01*
X212426755Y-131500553D01*
X212332074Y-131686374D01*
X212332072Y-131686379D01*
X212267628Y-131884717D01*
X212267625Y-131884730D01*
X212235000Y-132090719D01*
X201958665Y-132090719D01*
X201932374Y-131924730D01*
X201932371Y-131924717D01*
X201867927Y-131726380D01*
X201773240Y-131540547D01*
X201737373Y-131491180D01*
X201737372Y-131491180D01*
X201394114Y-131834437D01*
X201393260Y-131832374D01*
X201300238Y-131693156D01*
X201181844Y-131574762D01*
X201042626Y-131481740D01*
X201040559Y-131480884D01*
X201383818Y-131137626D01*
X201383818Y-131137625D01*
X201334446Y-131101755D01*
X201148625Y-131007074D01*
X201148620Y-131007072D01*
X200950282Y-130942628D01*
X200950269Y-130942625D01*
X200744281Y-130910000D01*
X200535719Y-130910000D01*
X200329730Y-130942625D01*
X200329717Y-130942628D01*
X200131379Y-131007072D01*
X200131374Y-131007074D01*
X199945553Y-131101755D01*
X199896180Y-131137625D01*
X199896180Y-131137626D01*
X200239438Y-131480884D01*
X200237374Y-131481740D01*
X200098156Y-131574762D01*
X199979762Y-131693156D01*
X199886740Y-131832374D01*
X199885884Y-131834438D01*
X199542626Y-131491180D01*
X199542625Y-131491180D01*
X199506755Y-131540553D01*
X199412074Y-131726374D01*
X199412072Y-131726379D01*
X199347628Y-131924717D01*
X199347625Y-131924730D01*
X199315000Y-132130719D01*
X199315000Y-132221000D01*
X199293326Y-132273326D01*
X199241000Y-132295000D01*
X196959000Y-132295000D01*
X196906674Y-132273326D01*
X196885000Y-132221000D01*
X196885000Y-132130719D01*
X196852374Y-131924730D01*
X196852371Y-131924717D01*
X196787927Y-131726380D01*
X196693240Y-131540547D01*
X196657373Y-131491180D01*
X196657372Y-131491180D01*
X196314114Y-131834437D01*
X196313260Y-131832374D01*
X196220238Y-131693156D01*
X196101844Y-131574762D01*
X195962626Y-131481740D01*
X195960559Y-131480884D01*
X196303818Y-131137626D01*
X196303818Y-131137625D01*
X196254446Y-131101755D01*
X196068625Y-131007074D01*
X196068620Y-131007072D01*
X195870282Y-130942628D01*
X195870269Y-130942625D01*
X195664281Y-130910000D01*
X195455719Y-130910000D01*
X195249730Y-130942625D01*
X195249717Y-130942628D01*
X195051379Y-131007072D01*
X195051374Y-131007074D01*
X194865553Y-131101755D01*
X194816180Y-131137625D01*
X194816180Y-131137626D01*
X195159438Y-131480884D01*
X195157374Y-131481740D01*
X195018156Y-131574762D01*
X194899762Y-131693156D01*
X194806740Y-131832374D01*
X194805884Y-131834438D01*
X194462626Y-131491180D01*
X194462625Y-131491180D01*
X194426755Y-131540553D01*
X194332074Y-131726374D01*
X194332072Y-131726379D01*
X194267628Y-131924717D01*
X194267625Y-131924730D01*
X194235000Y-132130719D01*
X175400000Y-132130719D01*
X175400000Y-123906907D01*
X178899500Y-123906907D01*
X178899500Y-124143092D01*
X178936446Y-124376365D01*
X178936449Y-124376378D01*
X179009429Y-124600986D01*
X179116656Y-124811432D01*
X179242788Y-124985038D01*
X179255483Y-125002510D01*
X179422490Y-125169517D01*
X179613567Y-125308343D01*
X179824008Y-125415568D01*
X179824010Y-125415568D01*
X179824013Y-125415570D01*
X180048621Y-125488550D01*
X180048627Y-125488551D01*
X180048632Y-125488553D01*
X180204149Y-125513184D01*
X180281907Y-125525500D01*
X180281908Y-125525500D01*
X181518093Y-125525500D01*
X181576411Y-125516263D01*
X181751368Y-125488553D01*
X181751375Y-125488550D01*
X181751378Y-125488550D01*
X181895089Y-125441855D01*
X181975992Y-125415568D01*
X182066592Y-125369404D01*
X182123054Y-125364961D01*
X182166121Y-125401744D01*
X182170565Y-125458206D01*
X182160055Y-125478835D01*
X182116654Y-125538571D01*
X182009429Y-125749013D01*
X181936449Y-125973621D01*
X181936446Y-125973634D01*
X181899500Y-126206907D01*
X181899500Y-126443092D01*
X181936446Y-126676365D01*
X181936449Y-126676378D01*
X182009429Y-126900986D01*
X182009431Y-126900991D01*
X182009432Y-126900992D01*
X182116657Y-127111433D01*
X182255483Y-127302510D01*
X182422490Y-127469517D01*
X182613567Y-127608343D01*
X182824008Y-127715568D01*
X182824010Y-127715568D01*
X182824013Y-127715570D01*
X183048621Y-127788550D01*
X183048627Y-127788551D01*
X183048632Y-127788553D01*
X183204149Y-127813184D01*
X183281907Y-127825500D01*
X183281908Y-127825500D01*
X184518093Y-127825500D01*
X184576411Y-127816263D01*
X184751368Y-127788553D01*
X184751375Y-127788550D01*
X184751378Y-127788550D01*
X184975986Y-127715570D01*
X184975986Y-127715569D01*
X184975992Y-127715568D01*
X185186433Y-127608343D01*
X185377510Y-127469517D01*
X185544517Y-127302510D01*
X185683343Y-127111433D01*
X185790568Y-126900992D01*
X185863553Y-126676368D01*
X185900500Y-126443092D01*
X185900500Y-126206908D01*
X185863553Y-125973632D01*
X185863551Y-125973627D01*
X185863550Y-125973621D01*
X185790570Y-125749013D01*
X185790568Y-125749010D01*
X185790568Y-125749008D01*
X185683343Y-125538567D01*
X185613077Y-125441855D01*
X185544520Y-125347494D01*
X185544519Y-125347493D01*
X185544517Y-125347490D01*
X185377510Y-125180483D01*
X185377507Y-125180480D01*
X185377505Y-125180479D01*
X185342232Y-125154852D01*
X185264836Y-125098620D01*
X201524500Y-125098620D01*
X201524500Y-125251379D01*
X201554300Y-125401198D01*
X201554302Y-125401205D01*
X201612760Y-125542336D01*
X201697627Y-125669348D01*
X201697630Y-125669352D01*
X201805648Y-125777370D01*
X201932663Y-125862239D01*
X202073795Y-125920698D01*
X202223620Y-125950500D01*
X202223621Y-125950500D01*
X202376379Y-125950500D01*
X202376380Y-125950500D01*
X202526205Y-125920698D01*
X202667337Y-125862239D01*
X202794352Y-125777370D01*
X202902370Y-125669352D01*
X202987239Y-125542337D01*
X203045698Y-125401205D01*
X203075500Y-125251380D01*
X203075500Y-125098620D01*
X208724500Y-125098620D01*
X208724500Y-125251379D01*
X208754300Y-125401198D01*
X208754302Y-125401205D01*
X208812760Y-125542336D01*
X208897627Y-125669348D01*
X208897630Y-125669352D01*
X209005648Y-125777370D01*
X209132663Y-125862239D01*
X209273795Y-125920698D01*
X209423620Y-125950500D01*
X209423621Y-125950500D01*
X209576379Y-125950500D01*
X209576380Y-125950500D01*
X209726205Y-125920698D01*
X209867337Y-125862239D01*
X209994352Y-125777370D01*
X210102370Y-125669352D01*
X210187239Y-125542337D01*
X210245698Y-125401205D01*
X210275500Y-125251380D01*
X210275500Y-125098620D01*
X210245698Y-124948795D01*
X210187239Y-124807663D01*
X210102370Y-124680648D01*
X209994352Y-124572630D01*
X209994348Y-124572627D01*
X209867336Y-124487760D01*
X209726205Y-124429302D01*
X209726198Y-124429300D01*
X209613328Y-124406849D01*
X209576380Y-124399500D01*
X209423620Y-124399500D01*
X209393981Y-124405395D01*
X209273801Y-124429300D01*
X209273794Y-124429302D01*
X209132663Y-124487760D01*
X209005651Y-124572627D01*
X208897627Y-124680651D01*
X208812760Y-124807663D01*
X208754302Y-124948794D01*
X208754300Y-124948801D01*
X208724500Y-125098620D01*
X203075500Y-125098620D01*
X203045698Y-124948795D01*
X202987239Y-124807663D01*
X202902370Y-124680648D01*
X202794352Y-124572630D01*
X202794348Y-124572627D01*
X202667336Y-124487760D01*
X202526205Y-124429302D01*
X202526198Y-124429300D01*
X202413328Y-124406849D01*
X202376380Y-124399500D01*
X202223620Y-124399500D01*
X202193981Y-124405395D01*
X202073801Y-124429300D01*
X202073794Y-124429302D01*
X201932663Y-124487760D01*
X201805651Y-124572627D01*
X201697627Y-124680651D01*
X201612760Y-124807663D01*
X201554302Y-124948794D01*
X201554300Y-124948801D01*
X201524500Y-125098620D01*
X185264836Y-125098620D01*
X185186432Y-125041656D01*
X184975986Y-124934429D01*
X184751378Y-124861449D01*
X184751365Y-124861446D01*
X184518093Y-124824500D01*
X184518092Y-124824500D01*
X183281908Y-124824500D01*
X183281907Y-124824500D01*
X183048634Y-124861446D01*
X183048621Y-124861449D01*
X182824013Y-124934429D01*
X182733407Y-124980595D01*
X182676944Y-124985038D01*
X182633877Y-124948255D01*
X182629434Y-124891792D01*
X182639941Y-124871169D01*
X182683343Y-124811433D01*
X182790568Y-124600992D01*
X182827359Y-124487761D01*
X182863550Y-124376378D01*
X182863550Y-124376375D01*
X182863553Y-124376368D01*
X182900500Y-124143092D01*
X182900500Y-123906908D01*
X182863553Y-123673632D01*
X182863551Y-123673627D01*
X182863550Y-123673621D01*
X182790570Y-123449013D01*
X182790568Y-123449010D01*
X182790568Y-123449008D01*
X182683343Y-123238567D01*
X182544517Y-123047490D01*
X182377510Y-122880483D01*
X182377507Y-122880480D01*
X182377505Y-122880479D01*
X182186432Y-122741656D01*
X181975986Y-122634429D01*
X181751378Y-122561449D01*
X181751365Y-122561446D01*
X181518093Y-122524500D01*
X181518092Y-122524500D01*
X180281908Y-122524500D01*
X180281907Y-122524500D01*
X180048634Y-122561446D01*
X180048621Y-122561449D01*
X179824013Y-122634429D01*
X179613567Y-122741656D01*
X179422494Y-122880479D01*
X179255479Y-123047494D01*
X179116656Y-123238567D01*
X179009429Y-123449013D01*
X178936449Y-123673621D01*
X178936446Y-123673634D01*
X178899500Y-123906907D01*
X175400000Y-123906907D01*
X175400000Y-122298620D01*
X197024500Y-122298620D01*
X197024500Y-122451380D01*
X197031849Y-122488328D01*
X197054300Y-122601198D01*
X197054302Y-122601205D01*
X197112760Y-122742336D01*
X197185621Y-122851380D01*
X197197630Y-122869352D01*
X197305648Y-122977370D01*
X197432663Y-123062239D01*
X197573795Y-123120698D01*
X197723620Y-123150500D01*
X197723621Y-123150500D01*
X197876379Y-123150500D01*
X197876380Y-123150500D01*
X198026205Y-123120698D01*
X198167337Y-123062239D01*
X198294352Y-122977370D01*
X198402370Y-122869352D01*
X198487239Y-122742337D01*
X198505347Y-122698620D01*
X207624500Y-122698620D01*
X207624500Y-122851379D01*
X207654300Y-123001198D01*
X207654302Y-123001205D01*
X207712760Y-123142336D01*
X207780925Y-123244352D01*
X207797630Y-123269352D01*
X207905648Y-123377370D01*
X208032663Y-123462239D01*
X208173795Y-123520698D01*
X208323620Y-123550500D01*
X208323621Y-123550500D01*
X208476379Y-123550500D01*
X208476380Y-123550500D01*
X208626205Y-123520698D01*
X208767337Y-123462239D01*
X208894352Y-123377370D01*
X209002370Y-123269352D01*
X209087239Y-123142337D01*
X209145698Y-123001205D01*
X209175500Y-122851380D01*
X209175500Y-122698620D01*
X209175500Y-122698619D01*
X209172676Y-122684420D01*
X209170528Y-122673620D01*
X214649500Y-122673620D01*
X214649500Y-122826379D01*
X214679300Y-122976198D01*
X214679302Y-122976205D01*
X214737760Y-123117336D01*
X214819310Y-123239384D01*
X214822630Y-123244352D01*
X214930648Y-123352370D01*
X215057663Y-123437239D01*
X215198795Y-123495698D01*
X215348620Y-123525500D01*
X215348621Y-123525500D01*
X215501379Y-123525500D01*
X215501380Y-123525500D01*
X215651205Y-123495698D01*
X215792337Y-123437239D01*
X215919352Y-123352370D01*
X216027370Y-123244352D01*
X216112239Y-123117337D01*
X216170698Y-122976205D01*
X216200500Y-122826380D01*
X216200500Y-122673620D01*
X216170698Y-122523795D01*
X216112239Y-122382663D01*
X216027370Y-122255648D01*
X215919352Y-122147630D01*
X215860108Y-122108044D01*
X215792336Y-122062760D01*
X215651205Y-122004302D01*
X215651198Y-122004300D01*
X215513566Y-121976924D01*
X215501380Y-121974500D01*
X215348620Y-121974500D01*
X215336434Y-121976924D01*
X215198801Y-122004300D01*
X215198794Y-122004302D01*
X215057663Y-122062760D01*
X214930651Y-122147627D01*
X214822627Y-122255651D01*
X214737760Y-122382663D01*
X214679302Y-122523794D01*
X214679300Y-122523801D01*
X214649500Y-122673620D01*
X209170528Y-122673620D01*
X209145699Y-122548800D01*
X209145698Y-122548799D01*
X209145698Y-122548795D01*
X209087239Y-122407663D01*
X209002370Y-122280648D01*
X208894352Y-122172630D01*
X208858681Y-122148795D01*
X208767336Y-122087760D01*
X208626205Y-122029302D01*
X208626198Y-122029300D01*
X208500511Y-122004300D01*
X208476380Y-121999500D01*
X208323620Y-121999500D01*
X208299489Y-122004300D01*
X208173801Y-122029300D01*
X208173794Y-122029302D01*
X208032663Y-122087760D01*
X207905651Y-122172627D01*
X207797627Y-122280651D01*
X207712760Y-122407663D01*
X207654302Y-122548794D01*
X207654300Y-122548801D01*
X207624500Y-122698620D01*
X198505347Y-122698620D01*
X198545698Y-122601205D01*
X198575500Y-122451380D01*
X198575500Y-122298620D01*
X198545698Y-122148795D01*
X198487239Y-122007663D01*
X198402370Y-121880648D01*
X198294352Y-121772630D01*
X198249312Y-121742535D01*
X198167336Y-121687760D01*
X198026205Y-121629302D01*
X198026198Y-121629300D01*
X197899802Y-121604159D01*
X197876380Y-121599500D01*
X197723620Y-121599500D01*
X197700198Y-121604159D01*
X197573801Y-121629300D01*
X197573794Y-121629302D01*
X197432663Y-121687760D01*
X197305651Y-121772627D01*
X197197627Y-121880651D01*
X197112760Y-122007663D01*
X197054302Y-122148794D01*
X197054300Y-122148801D01*
X197033047Y-122255651D01*
X197024500Y-122298620D01*
X175400000Y-122298620D01*
X175400000Y-119098620D01*
X198424500Y-119098620D01*
X198424500Y-119251379D01*
X198454300Y-119401198D01*
X198454302Y-119401205D01*
X198512760Y-119542336D01*
X198595112Y-119665584D01*
X198597630Y-119669352D01*
X198705648Y-119777370D01*
X198832663Y-119862239D01*
X198973795Y-119920698D01*
X199123620Y-119950500D01*
X199123621Y-119950500D01*
X199276379Y-119950500D01*
X199276380Y-119950500D01*
X199426205Y-119920698D01*
X199567337Y-119862239D01*
X199694352Y-119777370D01*
X199802370Y-119669352D01*
X199887239Y-119542337D01*
X199945698Y-119401205D01*
X199975500Y-119251380D01*
X199975500Y-119098620D01*
X199945698Y-118948795D01*
X199887239Y-118807663D01*
X199802370Y-118680648D01*
X199694352Y-118572630D01*
X199603549Y-118511957D01*
X199567336Y-118487760D01*
X199426205Y-118429302D01*
X199426198Y-118429300D01*
X199304030Y-118405000D01*
X199276380Y-118399500D01*
X199123620Y-118399500D01*
X199095970Y-118405000D01*
X198973801Y-118429300D01*
X198973794Y-118429302D01*
X198832663Y-118487760D01*
X198705651Y-118572627D01*
X198597627Y-118680651D01*
X198512760Y-118807663D01*
X198454302Y-118948794D01*
X198454300Y-118948801D01*
X198424500Y-119098620D01*
X175400000Y-119098620D01*
X175400000Y-116515248D01*
X201144500Y-116515248D01*
X201144500Y-116668007D01*
X201174300Y-116817826D01*
X201174302Y-116817833D01*
X201232760Y-116958964D01*
X201317627Y-117085976D01*
X201317630Y-117085980D01*
X201425648Y-117193998D01*
X201552663Y-117278867D01*
X201693795Y-117337326D01*
X201843620Y-117367128D01*
X201843621Y-117367128D01*
X201996379Y-117367128D01*
X201996380Y-117367128D01*
X202146205Y-117337326D01*
X202287337Y-117278867D01*
X202414352Y-117193998D01*
X202522370Y-117085980D01*
X202607239Y-116958965D01*
X202665698Y-116817833D01*
X202695500Y-116668008D01*
X202695500Y-116515248D01*
X202665698Y-116365423D01*
X202638027Y-116298620D01*
X203324500Y-116298620D01*
X203324500Y-116451379D01*
X203354300Y-116601198D01*
X203354302Y-116601205D01*
X203412760Y-116742336D01*
X203497627Y-116869348D01*
X203497630Y-116869352D01*
X203605648Y-116977370D01*
X203732663Y-117062239D01*
X203873795Y-117120698D01*
X204023620Y-117150500D01*
X204023621Y-117150500D01*
X204176379Y-117150500D01*
X204176380Y-117150500D01*
X204326205Y-117120698D01*
X204467337Y-117062239D01*
X204594352Y-116977370D01*
X204702370Y-116869352D01*
X204787239Y-116742337D01*
X204845698Y-116601205D01*
X204875500Y-116451380D01*
X204875500Y-116423620D01*
X213849500Y-116423620D01*
X213849500Y-116576379D01*
X213879300Y-116726198D01*
X213879302Y-116726205D01*
X213937760Y-116867336D01*
X213985078Y-116938152D01*
X214022630Y-116994352D01*
X214130648Y-117102370D01*
X214257663Y-117187239D01*
X214398795Y-117245698D01*
X214548620Y-117275500D01*
X214548621Y-117275500D01*
X214701379Y-117275500D01*
X214701380Y-117275500D01*
X214851205Y-117245698D01*
X214992337Y-117187239D01*
X215119352Y-117102370D01*
X215227370Y-116994352D01*
X215312239Y-116867337D01*
X215370698Y-116726205D01*
X215400500Y-116576380D01*
X215400500Y-116423620D01*
X215370698Y-116273795D01*
X215312239Y-116132663D01*
X215227370Y-116005648D01*
X215119352Y-115897630D01*
X215119348Y-115897627D01*
X214992336Y-115812760D01*
X214851205Y-115754302D01*
X214851198Y-115754300D01*
X214738328Y-115731849D01*
X214701380Y-115724500D01*
X214548620Y-115724500D01*
X214518981Y-115730395D01*
X214398801Y-115754300D01*
X214398794Y-115754302D01*
X214257663Y-115812760D01*
X214130651Y-115897627D01*
X214022627Y-116005651D01*
X213937760Y-116132663D01*
X213879302Y-116273794D01*
X213879300Y-116273801D01*
X213849500Y-116423620D01*
X204875500Y-116423620D01*
X204875500Y-116298620D01*
X204845698Y-116148795D01*
X204787239Y-116007663D01*
X204702370Y-115880648D01*
X204594352Y-115772630D01*
X204570998Y-115757025D01*
X204467336Y-115687760D01*
X204326205Y-115629302D01*
X204326198Y-115629300D01*
X204213328Y-115606849D01*
X204176380Y-115599500D01*
X204023620Y-115599500D01*
X203993981Y-115605395D01*
X203873801Y-115629300D01*
X203873794Y-115629302D01*
X203732663Y-115687760D01*
X203605651Y-115772627D01*
X203497627Y-115880651D01*
X203412760Y-116007663D01*
X203354302Y-116148794D01*
X203354300Y-116148801D01*
X203324500Y-116298620D01*
X202638027Y-116298620D01*
X202607239Y-116224291D01*
X202522370Y-116097276D01*
X202414352Y-115989258D01*
X202287337Y-115904389D01*
X202287338Y-115904389D01*
X202287336Y-115904388D01*
X202146205Y-115845930D01*
X202146198Y-115845928D01*
X202033328Y-115823477D01*
X201996380Y-115816128D01*
X201843620Y-115816128D01*
X201813981Y-115822023D01*
X201693801Y-115845928D01*
X201693794Y-115845930D01*
X201552663Y-115904388D01*
X201425651Y-115989255D01*
X201317627Y-116097279D01*
X201232760Y-116224291D01*
X201174302Y-116365422D01*
X201174300Y-116365429D01*
X201144500Y-116515248D01*
X175400000Y-116515248D01*
X175400000Y-110876582D01*
X180049500Y-110876582D01*
X180049500Y-111073417D01*
X180080290Y-111267823D01*
X180080293Y-111267836D01*
X180141113Y-111455019D01*
X180141115Y-111455024D01*
X180141116Y-111455025D01*
X180230476Y-111630405D01*
X180346172Y-111789646D01*
X180485354Y-111928828D01*
X180644595Y-112044524D01*
X180819975Y-112133884D01*
X180819977Y-112133884D01*
X180819980Y-112133886D01*
X181007163Y-112194706D01*
X181007169Y-112194707D01*
X181007174Y-112194709D01*
X181136780Y-112215236D01*
X181201582Y-112225500D01*
X181201583Y-112225500D01*
X181398418Y-112225500D01*
X181447019Y-112217802D01*
X181592826Y-112194709D01*
X181592833Y-112194706D01*
X181592836Y-112194706D01*
X181780019Y-112133886D01*
X181780019Y-112133885D01*
X181780025Y-112133884D01*
X181955405Y-112044524D01*
X182114646Y-111928828D01*
X182253828Y-111789646D01*
X182369524Y-111630405D01*
X182458884Y-111455025D01*
X182519709Y-111267826D01*
X182546933Y-111095941D01*
X186799500Y-111095941D01*
X186799500Y-111404058D01*
X186839716Y-111709537D01*
X186919464Y-112007162D01*
X187037376Y-112291826D01*
X187037377Y-112291829D01*
X187191435Y-112558666D01*
X187191439Y-112558672D01*
X187379009Y-112803117D01*
X187596883Y-113020991D01*
X187841330Y-113208562D01*
X188108170Y-113362622D01*
X188392836Y-113480535D01*
X188690456Y-113560282D01*
X188690462Y-113560282D01*
X188690463Y-113560283D01*
X188690462Y-113560283D01*
X188826028Y-113578130D01*
X188995940Y-113600500D01*
X188995942Y-113600500D01*
X189304058Y-113600500D01*
X189304060Y-113600500D01*
X189539430Y-113569512D01*
X189609537Y-113560283D01*
X189609537Y-113560282D01*
X189609544Y-113560282D01*
X189907164Y-113480535D01*
X190191830Y-113362622D01*
X190458670Y-113208562D01*
X190703117Y-113020991D01*
X190920991Y-112803117D01*
X191108562Y-112558670D01*
X191262622Y-112291830D01*
X191380535Y-112007164D01*
X191460282Y-111709544D01*
X191500500Y-111404060D01*
X191500500Y-111095941D01*
X205899500Y-111095941D01*
X205899500Y-111404058D01*
X205939716Y-111709537D01*
X206019464Y-112007162D01*
X206137376Y-112291826D01*
X206137377Y-112291829D01*
X206291435Y-112558666D01*
X206291439Y-112558672D01*
X206479009Y-112803117D01*
X206696883Y-113020991D01*
X206941330Y-113208562D01*
X207208170Y-113362622D01*
X207492836Y-113480535D01*
X207790456Y-113560282D01*
X207790462Y-113560282D01*
X207790463Y-113560283D01*
X207790462Y-113560283D01*
X207926028Y-113578130D01*
X208095940Y-113600500D01*
X208095942Y-113600500D01*
X208404058Y-113600500D01*
X208404060Y-113600500D01*
X208639430Y-113569512D01*
X208709537Y-113560283D01*
X208709537Y-113560282D01*
X208709544Y-113560282D01*
X209007164Y-113480535D01*
X209291830Y-113362622D01*
X209558670Y-113208562D01*
X209803117Y-113020991D01*
X210020991Y-112803117D01*
X210208562Y-112558670D01*
X210362622Y-112291830D01*
X210480535Y-112007164D01*
X210560282Y-111709544D01*
X210600500Y-111404060D01*
X210600500Y-111095940D01*
X210560282Y-110790456D01*
X210480535Y-110492836D01*
X210362622Y-110208170D01*
X210254659Y-110021172D01*
X210208564Y-109941333D01*
X210208560Y-109941327D01*
X210020990Y-109696882D01*
X209803117Y-109479009D01*
X209558672Y-109291439D01*
X209558666Y-109291435D01*
X209291829Y-109137377D01*
X209291826Y-109137376D01*
X209007162Y-109019464D01*
X208779862Y-108958559D01*
X208709544Y-108939718D01*
X208709542Y-108939717D01*
X208709536Y-108939716D01*
X208709537Y-108939716D01*
X208464006Y-108907392D01*
X208404060Y-108899500D01*
X208095940Y-108899500D01*
X208041350Y-108906686D01*
X207790462Y-108939716D01*
X207492837Y-109019464D01*
X207208173Y-109137376D01*
X207208170Y-109137377D01*
X206941333Y-109291435D01*
X206941327Y-109291439D01*
X206696882Y-109479009D01*
X206479009Y-109696882D01*
X206291439Y-109941327D01*
X206291435Y-109941333D01*
X206137377Y-110208170D01*
X206137376Y-110208173D01*
X206019464Y-110492837D01*
X205939716Y-110790462D01*
X205899500Y-111095941D01*
X191500500Y-111095941D01*
X191500500Y-111095940D01*
X191460282Y-110790456D01*
X191380535Y-110492836D01*
X191262622Y-110208170D01*
X191154659Y-110021172D01*
X191108564Y-109941333D01*
X191108560Y-109941327D01*
X190920990Y-109696882D01*
X190703117Y-109479009D01*
X190458672Y-109291439D01*
X190458666Y-109291435D01*
X190191829Y-109137377D01*
X190191826Y-109137376D01*
X189907162Y-109019464D01*
X189679862Y-108958559D01*
X189609544Y-108939718D01*
X189609542Y-108939717D01*
X189609536Y-108939716D01*
X189609537Y-108939716D01*
X189364006Y-108907392D01*
X189304060Y-108899500D01*
X188995940Y-108899500D01*
X188941350Y-108906686D01*
X188690462Y-108939716D01*
X188392837Y-109019464D01*
X188108173Y-109137376D01*
X188108170Y-109137377D01*
X187841333Y-109291435D01*
X187841327Y-109291439D01*
X187596882Y-109479009D01*
X187379009Y-109696882D01*
X187191439Y-109941327D01*
X187191435Y-109941333D01*
X187037377Y-110208170D01*
X187037376Y-110208173D01*
X186919464Y-110492837D01*
X186839716Y-110790462D01*
X186799500Y-111095941D01*
X182546933Y-111095941D01*
X182550500Y-111073417D01*
X182550500Y-110876583D01*
X182519709Y-110682174D01*
X182519707Y-110682169D01*
X182519706Y-110682163D01*
X182458886Y-110494980D01*
X182458884Y-110494977D01*
X182458884Y-110494975D01*
X182369524Y-110319595D01*
X182253828Y-110160354D01*
X182114646Y-110021172D01*
X182114643Y-110021169D01*
X182114641Y-110021168D01*
X181955404Y-109905475D01*
X181780019Y-109816113D01*
X181592836Y-109755293D01*
X181592823Y-109755290D01*
X181398418Y-109724500D01*
X181398417Y-109724500D01*
X181201583Y-109724500D01*
X181201582Y-109724500D01*
X181007176Y-109755290D01*
X181007163Y-109755293D01*
X180819980Y-109816113D01*
X180644595Y-109905475D01*
X180485358Y-110021168D01*
X180346168Y-110160358D01*
X180230475Y-110319595D01*
X180141113Y-110494980D01*
X180080293Y-110682163D01*
X180080290Y-110682176D01*
X180049500Y-110876582D01*
X175400000Y-110876582D01*
X175400000Y-102643880D01*
X196699500Y-102643880D01*
X196699500Y-102906120D01*
X196708512Y-102974578D01*
X196733729Y-103166114D01*
X196744208Y-103205222D01*
X196801602Y-103419419D01*
X196818618Y-103460500D01*
X196901955Y-103661694D01*
X196901956Y-103661696D01*
X197032474Y-103887760D01*
X197033076Y-103888803D01*
X197192718Y-104096851D01*
X197378149Y-104282282D01*
X197586197Y-104441924D01*
X197813303Y-104573043D01*
X198055581Y-104673398D01*
X198308884Y-104741270D01*
X198568880Y-104775500D01*
X198568882Y-104775500D01*
X198831118Y-104775500D01*
X198831120Y-104775500D01*
X199091116Y-104741270D01*
X199344419Y-104673398D01*
X199586697Y-104573043D01*
X199813803Y-104441924D01*
X200021851Y-104282282D01*
X200207282Y-104096851D01*
X200366924Y-103888803D01*
X200498043Y-103661697D01*
X200598398Y-103419419D01*
X200666270Y-103166116D01*
X200700500Y-102906120D01*
X200700500Y-102643880D01*
X200695858Y-102608620D01*
X203624500Y-102608620D01*
X203624500Y-102761379D01*
X203654300Y-102911198D01*
X203654302Y-102911205D01*
X203712760Y-103052336D01*
X203788786Y-103166116D01*
X203797630Y-103179352D01*
X203905648Y-103287370D01*
X204032663Y-103372239D01*
X204173795Y-103430698D01*
X204323620Y-103460500D01*
X204323621Y-103460500D01*
X204476379Y-103460500D01*
X204476380Y-103460500D01*
X204626205Y-103430698D01*
X204767337Y-103372239D01*
X204894352Y-103287370D01*
X205002370Y-103179352D01*
X205087239Y-103052337D01*
X205145698Y-102911205D01*
X205175500Y-102761380D01*
X205175500Y-102608620D01*
X205145698Y-102458795D01*
X205087239Y-102317663D01*
X205002370Y-102190648D01*
X204894352Y-102082630D01*
X204894342Y-102082623D01*
X204767336Y-101997760D01*
X204626205Y-101939302D01*
X204626198Y-101939300D01*
X204501723Y-101914541D01*
X204476380Y-101909500D01*
X204323620Y-101909500D01*
X204298277Y-101914541D01*
X204173801Y-101939300D01*
X204173794Y-101939302D01*
X204032663Y-101997760D01*
X203905651Y-102082627D01*
X203797627Y-102190651D01*
X203712760Y-102317663D01*
X203654302Y-102458794D01*
X203654300Y-102458801D01*
X203624500Y-102608620D01*
X200695858Y-102608620D01*
X200666270Y-102383884D01*
X200598398Y-102130581D01*
X200498043Y-101888303D01*
X200366924Y-101661197D01*
X200207282Y-101453149D01*
X200021851Y-101267718D01*
X199813803Y-101108076D01*
X199813804Y-101108076D01*
X199813802Y-101108075D01*
X199586696Y-100976956D01*
X199586694Y-100976955D01*
X199371516Y-100887826D01*
X199344419Y-100876602D01*
X199344417Y-100876601D01*
X199344416Y-100876601D01*
X199091114Y-100808729D01*
X198899578Y-100783512D01*
X198831120Y-100774500D01*
X198568880Y-100774500D01*
X198508386Y-100782464D01*
X198308885Y-100808729D01*
X198055584Y-100876601D01*
X198055583Y-100876601D01*
X197813305Y-100976955D01*
X197813303Y-100976956D01*
X197586197Y-101108075D01*
X197378144Y-101267722D01*
X197192722Y-101453144D01*
X197033075Y-101661197D01*
X196901956Y-101888303D01*
X196901955Y-101888305D01*
X196801601Y-102130583D01*
X196801601Y-102130584D01*
X196733729Y-102383885D01*
X196713890Y-102534578D01*
X196699500Y-102643880D01*
X175400000Y-102643880D01*
X175400000Y-89474000D01*
X175421674Y-89421674D01*
X175474000Y-89400000D01*
X242275500Y-89400000D01*
X242327826Y-89421674D01*
G37*
%TD.AperFunction*%
%TA.AperFunction,Conductor*%
G36*
X207853712Y-102347541D02*
G01*
X209236685Y-103730514D01*
X209344486Y-103838315D01*
X209344488Y-103838316D01*
X209344489Y-103838317D01*
X209430128Y-103887761D01*
X209476514Y-103914542D01*
X209476515Y-103914542D01*
X209476517Y-103914543D01*
X209550143Y-103934271D01*
X209623770Y-103953999D01*
X209623771Y-103954000D01*
X209623773Y-103954000D01*
X210175500Y-103954000D01*
X210227826Y-103975674D01*
X210249500Y-104028000D01*
X210249500Y-104639068D01*
X210256329Y-104673399D01*
X210274497Y-104764738D01*
X210274499Y-104764744D01*
X210323535Y-104883127D01*
X210363096Y-104942336D01*
X210394723Y-104989669D01*
X211244723Y-105839669D01*
X212494723Y-107089669D01*
X224211331Y-118806277D01*
X224302021Y-118866873D01*
X224317873Y-118877465D01*
X224436256Y-118926501D01*
X224436258Y-118926501D01*
X224436260Y-118926502D01*
X224478903Y-118934984D01*
X224561931Y-118951500D01*
X227270782Y-118951500D01*
X227323108Y-118973174D01*
X227344782Y-119025500D01*
X227329490Y-119070549D01*
X227233075Y-119196197D01*
X227101956Y-119423303D01*
X227101955Y-119423305D01*
X227001601Y-119665583D01*
X227001601Y-119665584D01*
X226933729Y-119918885D01*
X226899500Y-120178881D01*
X226899500Y-120441118D01*
X226933729Y-120701114D01*
X227001601Y-120954415D01*
X227001601Y-120954416D01*
X227101955Y-121196694D01*
X227101956Y-121196696D01*
X227233075Y-121423802D01*
X227329490Y-121549451D01*
X227344149Y-121604159D01*
X227315831Y-121653208D01*
X227270782Y-121668500D01*
X225744098Y-121668500D01*
X225691772Y-121646826D01*
X210614668Y-106569722D01*
X210508127Y-106498535D01*
X210403425Y-106455165D01*
X210379418Y-106439124D01*
X207598174Y-103657880D01*
X207576500Y-103605554D01*
X207576500Y-103235873D01*
X207598173Y-103183548D01*
X207602370Y-103179352D01*
X207687239Y-103052337D01*
X207745698Y-102911205D01*
X207775500Y-102761380D01*
X207775500Y-102608620D01*
X207745698Y-102458795D01*
X207733019Y-102428185D01*
X207733019Y-102371548D01*
X207773067Y-102331500D01*
X207829705Y-102331500D01*
X207853712Y-102347541D01*
G37*
%TD.AperFunction*%
%TD*%
%TA.AperFunction,Conductor*%
%TO.N,Board_0-/V_UNREG*%
G36*
X240239534Y-57418907D02*
G01*
X240275498Y-57468407D01*
X240278741Y-57516737D01*
X235014808Y-86421521D01*
X234985781Y-86475383D01*
X234930638Y-86501896D01*
X234917346Y-86502784D01*
X230688652Y-86500057D01*
X230630474Y-86481112D01*
X230594542Y-86431589D01*
X230590310Y-86411883D01*
X230410949Y-84780817D01*
X231674500Y-84780817D01*
X231674500Y-84919183D01*
X231710312Y-85052836D01*
X231779495Y-85172665D01*
X231877335Y-85270505D01*
X231997164Y-85339688D01*
X232130817Y-85375500D01*
X232130819Y-85375500D01*
X232269181Y-85375500D01*
X232269183Y-85375500D01*
X232402836Y-85339688D01*
X232522665Y-85270505D01*
X232620505Y-85172665D01*
X232689688Y-85052836D01*
X232725500Y-84919183D01*
X232725500Y-84780817D01*
X232689688Y-84647164D01*
X232620505Y-84527335D01*
X232522665Y-84429495D01*
X232402836Y-84360312D01*
X232269183Y-84324500D01*
X232130817Y-84324500D01*
X231997164Y-84360312D01*
X231877335Y-84429495D01*
X231779495Y-84527335D01*
X231710312Y-84647164D01*
X231674500Y-84780817D01*
X230410949Y-84780817D01*
X229188006Y-73659686D01*
X227412077Y-57509821D01*
X227424511Y-57449913D01*
X227469783Y-57408754D01*
X227510484Y-57400000D01*
X240181343Y-57400000D01*
X240239534Y-57418907D01*
G37*
%TD.AperFunction*%
%TD*%
M02*
