%TF.GenerationSoftware,KiCad,Pcbnew,9.0.2+dfsg-1*%
%TF.CreationDate,2025-07-12T21:44:13+01:00*%
%TF.ProjectId,low-noise-power-probe-panel,6c6f772d-6e6f-4697-9365-2d706f776572,rev?*%
%TF.SameCoordinates,Original*%
%TF.FileFunction,Drillmap*%
%TF.FilePolarity,Positive*%
%FSLAX45Y45*%
G04 Gerber Fmt 4.5, Leading zero omitted, Abs format (unit mm)*
G04 Created by KiCad (PCBNEW 9.0.2+dfsg-1) date 2025-07-12 21:44:13*
%MOMM*%
%LPD*%
G01*
G04 APERTURE LIST*
%ADD10C,0.100000*%
%ADD11C,0.200000*%
%ADD12C,0.185000*%
G04 APERTURE END LIST*
D10*
X28468775Y-14480000D02*
X28469875Y-14479973D01*
X13531225Y-2000000D02*
X13530124Y-2000027D01*
X28468773Y-2000000D02*
X13531227Y-2000000D01*
X13530027Y-2000124D02*
X13530000Y-2001225D01*
X28469875Y-2000027D02*
X28468775Y-2000000D01*
X28470000Y-2001225D02*
X28469973Y-2000124D01*
X13530000Y-14478775D02*
X13530027Y-14479875D01*
X28469973Y-14479875D02*
X28470000Y-14478775D01*
X13530000Y-2001227D02*
X13530000Y-14478773D01*
X13530124Y-14479973D02*
X13531225Y-14480000D01*
X28470000Y-14478773D02*
X28470000Y-2001227D01*
X13531227Y-14480000D02*
X28468773Y-14480000D01*
D11*
D10*
X14260000Y-12355000D02*
X14290000Y-12385000D01*
X14290000Y-12355000D02*
X14260000Y-12385000D01*
X14260000Y-12855000D02*
X14290000Y-12885000D01*
X14290000Y-12855000D02*
X14260000Y-12885000D01*
X14260000Y-13855000D02*
X14290000Y-13885000D01*
X14290000Y-13855000D02*
X14260000Y-13885000D01*
X14265000Y-3167500D02*
X14295000Y-3197500D01*
X14295000Y-3167500D02*
X14265000Y-3197500D01*
X14265000Y-3667500D02*
X14295000Y-3697500D01*
X14295000Y-3667500D02*
X14265000Y-3697500D01*
X14265000Y-4167500D02*
X14295000Y-4197500D01*
X14295000Y-4167500D02*
X14265000Y-4197500D01*
X14265000Y-4667500D02*
X14295000Y-4697500D01*
X14295000Y-4667500D02*
X14265000Y-4697500D01*
X14265000Y-5167500D02*
X14295000Y-5197500D01*
X14295000Y-5167500D02*
X14265000Y-5197500D01*
X14265000Y-5667500D02*
X14295000Y-5697500D01*
X14295000Y-5667500D02*
X14265000Y-5697500D01*
X14265000Y-6167500D02*
X14295000Y-6197500D01*
X14295000Y-6167500D02*
X14265000Y-6197500D01*
X14265000Y-6667500D02*
X14295000Y-6697500D01*
X14295000Y-6667500D02*
X14265000Y-6697500D01*
X14265000Y-7667500D02*
X14295000Y-7697500D01*
X14295000Y-7667500D02*
X14265000Y-7697500D01*
X14265000Y-8167500D02*
X14295000Y-8197500D01*
X14295000Y-8167500D02*
X14265000Y-8197500D01*
X14265000Y-8667500D02*
X14295000Y-8697500D01*
X14295000Y-8667500D02*
X14265000Y-8697500D01*
X14265000Y-9167500D02*
X14295000Y-9197500D01*
X14295000Y-9167500D02*
X14265000Y-9197500D01*
X14265000Y-9667500D02*
X14295000Y-9697500D01*
X14295000Y-9667500D02*
X14265000Y-9697500D01*
X14265000Y-10167500D02*
X14295000Y-10197500D01*
X14295000Y-10167500D02*
X14265000Y-10197500D01*
X14265000Y-10667500D02*
X14295000Y-10697500D01*
X14295000Y-10667500D02*
X14265000Y-10697500D01*
X14265000Y-11167500D02*
X14295000Y-11197500D01*
X14295000Y-11167500D02*
X14265000Y-11197500D01*
X14565000Y-11462500D02*
X14595000Y-11492500D01*
X14595000Y-11462500D02*
X14565000Y-11492500D01*
X14565000Y-11897500D02*
X14595000Y-11927500D01*
X14595000Y-11897500D02*
X14565000Y-11927500D01*
X14565000Y-13562500D02*
X14595000Y-13592500D01*
X14595000Y-13562500D02*
X14565000Y-13592500D01*
X14695000Y-13247500D02*
X14725000Y-13277500D01*
X14725000Y-13247500D02*
X14695000Y-13277500D01*
X14791548Y-2667500D02*
X14821548Y-2697500D01*
X14821548Y-2667500D02*
X14791548Y-2697500D01*
X14791548Y-3167500D02*
X14821548Y-3197500D01*
X14821548Y-3167500D02*
X14791548Y-3197500D01*
X14791548Y-3667500D02*
X14821548Y-3697500D01*
X14821548Y-3667500D02*
X14791548Y-3697500D01*
X14791548Y-4167500D02*
X14821548Y-4197500D01*
X14821548Y-4167500D02*
X14791548Y-4197500D01*
X14791548Y-5167500D02*
X14821548Y-5197500D01*
X14821548Y-5167500D02*
X14791548Y-5197500D01*
X14791548Y-5667500D02*
X14821548Y-5697500D01*
X14821548Y-5667500D02*
X14791548Y-5697500D01*
X14791548Y-6167500D02*
X14821548Y-6197500D01*
X14821548Y-6167500D02*
X14791548Y-6197500D01*
X14791548Y-6667500D02*
X14821548Y-6697500D01*
X14821548Y-6667500D02*
X14791548Y-6697500D01*
X14791548Y-7167500D02*
X14821548Y-7197500D01*
X14821548Y-7167500D02*
X14791548Y-7197500D01*
X14791548Y-7667500D02*
X14821548Y-7697500D01*
X14821548Y-7667500D02*
X14791548Y-7697500D01*
X14791548Y-8167500D02*
X14821548Y-8197500D01*
X14821548Y-8167500D02*
X14791548Y-8197500D01*
X14791548Y-8667500D02*
X14821548Y-8697500D01*
X14821548Y-8667500D02*
X14791548Y-8697500D01*
X14791548Y-9167500D02*
X14821548Y-9197500D01*
X14821548Y-9167500D02*
X14791548Y-9197500D01*
X14791548Y-9667500D02*
X14821548Y-9697500D01*
X14821548Y-9667500D02*
X14791548Y-9697500D01*
X14791548Y-10167500D02*
X14821548Y-10197500D01*
X14821548Y-10167500D02*
X14791548Y-10197500D01*
X14791548Y-10667500D02*
X14821548Y-10697500D01*
X14821548Y-10667500D02*
X14791548Y-10697500D01*
X14791548Y-11167500D02*
X14821548Y-11197500D01*
X14821548Y-11167500D02*
X14791548Y-11197500D01*
X14855000Y-12272500D02*
X14885000Y-12302500D01*
X14885000Y-12272500D02*
X14855000Y-12302500D01*
X15010000Y-12837500D02*
X15040000Y-12867500D01*
X15040000Y-12837500D02*
X15010000Y-12867500D01*
X15015000Y-13397500D02*
X15045000Y-13427500D01*
X15045000Y-13397500D02*
X15015000Y-13427500D01*
X15062500Y-13032500D02*
X15092500Y-13062500D01*
X15092500Y-13032500D02*
X15062500Y-13062500D01*
X15065000Y-11462500D02*
X15095000Y-11492500D01*
X15095000Y-11462500D02*
X15065000Y-11492500D01*
X15065000Y-11897500D02*
X15095000Y-11927500D01*
X15095000Y-11897500D02*
X15065000Y-11927500D01*
X15065000Y-13862500D02*
X15095000Y-13892500D01*
X15095000Y-13862500D02*
X15065000Y-13892500D01*
X15135000Y-12272500D02*
X15165000Y-12302500D01*
X15165000Y-12272500D02*
X15135000Y-12302500D01*
X15291548Y-2667500D02*
X15321548Y-2697500D01*
X15321548Y-2667500D02*
X15291548Y-2697500D01*
X15291548Y-3167500D02*
X15321548Y-3197500D01*
X15321548Y-3167500D02*
X15291548Y-3197500D01*
X15291548Y-4167500D02*
X15321548Y-4197500D01*
X15321548Y-4167500D02*
X15291548Y-4197500D01*
X15291548Y-4667500D02*
X15321548Y-4697500D01*
X15321548Y-4667500D02*
X15291548Y-4697500D01*
X15291548Y-5167500D02*
X15321548Y-5197500D01*
X15321548Y-5167500D02*
X15291548Y-5197500D01*
X15291548Y-5667500D02*
X15321548Y-5697500D01*
X15321548Y-5667500D02*
X15291548Y-5697500D01*
X15291548Y-6167500D02*
X15321548Y-6197500D01*
X15321548Y-6167500D02*
X15291548Y-6197500D01*
X15291548Y-6667500D02*
X15321548Y-6697500D01*
X15321548Y-6667500D02*
X15291548Y-6697500D01*
X15291548Y-7167500D02*
X15321548Y-7197500D01*
X15321548Y-7167500D02*
X15291548Y-7197500D01*
X15291548Y-7667500D02*
X15321548Y-7697500D01*
X15321548Y-7667500D02*
X15291548Y-7697500D01*
X15291548Y-8167500D02*
X15321548Y-8197500D01*
X15321548Y-8167500D02*
X15291548Y-8197500D01*
X15291548Y-8667500D02*
X15321548Y-8697500D01*
X15321548Y-8667500D02*
X15291548Y-8697500D01*
X15291548Y-9167500D02*
X15321548Y-9197500D01*
X15321548Y-9167500D02*
X15291548Y-9197500D01*
X15291548Y-9667500D02*
X15321548Y-9697500D01*
X15321548Y-9667500D02*
X15291548Y-9697500D01*
X15291548Y-10167500D02*
X15321548Y-10197500D01*
X15321548Y-10167500D02*
X15291548Y-10197500D01*
X15340000Y-12887500D02*
X15370000Y-12917500D01*
X15370000Y-12887500D02*
X15340000Y-12917500D01*
X15590000Y-10442500D02*
X15620000Y-10472500D01*
X15620000Y-10442500D02*
X15590000Y-10472500D01*
X15640000Y-12217500D02*
X15670000Y-12247500D01*
X15670000Y-12217500D02*
X15640000Y-12247500D01*
X15645000Y-13280000D02*
X15675000Y-13310000D01*
X15675000Y-13280000D02*
X15645000Y-13310000D01*
X15645000Y-13560000D02*
X15675000Y-13590000D01*
X15675000Y-13560000D02*
X15645000Y-13590000D01*
X15645000Y-13852500D02*
X15675000Y-13882500D01*
X15675000Y-13852500D02*
X15645000Y-13882500D01*
X15785000Y-11642500D02*
X15815000Y-11672500D01*
X15815000Y-11642500D02*
X15785000Y-11672500D01*
X15790000Y-11162500D02*
X15820000Y-11192500D01*
X15820000Y-11162500D02*
X15790000Y-11192500D01*
X15791548Y-4167500D02*
X15821548Y-4197500D01*
X15821548Y-4167500D02*
X15791548Y-4197500D01*
X15791548Y-4667500D02*
X15821548Y-4697500D01*
X15821548Y-4667500D02*
X15791548Y-4697500D01*
X15791548Y-5167500D02*
X15821548Y-5197500D01*
X15821548Y-5167500D02*
X15791548Y-5197500D01*
X15791548Y-5667500D02*
X15821548Y-5697500D01*
X15821548Y-5667500D02*
X15791548Y-5697500D01*
X15791548Y-6167500D02*
X15821548Y-6197500D01*
X15821548Y-6167500D02*
X15791548Y-6197500D01*
X15791548Y-6667500D02*
X15821548Y-6697500D01*
X15821548Y-6667500D02*
X15791548Y-6697500D01*
X15791548Y-7167500D02*
X15821548Y-7197500D01*
X15821548Y-7167500D02*
X15791548Y-7197500D01*
X15791548Y-7667500D02*
X15821548Y-7697500D01*
X15821548Y-7667500D02*
X15791548Y-7697500D01*
X15791548Y-8167500D02*
X15821548Y-8197500D01*
X15821548Y-8167500D02*
X15791548Y-8197500D01*
X15791548Y-8667500D02*
X15821548Y-8697500D01*
X15821548Y-8667500D02*
X15791548Y-8697500D01*
X15791548Y-9167500D02*
X15821548Y-9197500D01*
X15821548Y-9167500D02*
X15791548Y-9197500D01*
X15791548Y-9667500D02*
X15821548Y-9697500D01*
X15821548Y-9667500D02*
X15791548Y-9697500D01*
X15791548Y-10167500D02*
X15821548Y-10197500D01*
X15821548Y-10167500D02*
X15791548Y-10197500D01*
X15815000Y-11860000D02*
X15845000Y-11890000D01*
X15845000Y-11860000D02*
X15815000Y-11890000D01*
X15970000Y-13015000D02*
X16000000Y-13045000D01*
X16000000Y-13015000D02*
X15970000Y-13045000D01*
X15970000Y-13280000D02*
X16000000Y-13310000D01*
X16000000Y-13280000D02*
X15970000Y-13310000D01*
X15970000Y-13560000D02*
X16000000Y-13590000D01*
X16000000Y-13560000D02*
X15970000Y-13590000D01*
X15970000Y-13852500D02*
X16000000Y-13882500D01*
X16000000Y-13852500D02*
X15970000Y-13882500D01*
X16285000Y-11642500D02*
X16315000Y-11672500D01*
X16315000Y-11642500D02*
X16285000Y-11672500D01*
X16290000Y-11162500D02*
X16320000Y-11192500D01*
X16320000Y-11162500D02*
X16290000Y-11192500D01*
X16291548Y-4167500D02*
X16321548Y-4197500D01*
X16321548Y-4167500D02*
X16291548Y-4197500D01*
X16291548Y-5167500D02*
X16321548Y-5197500D01*
X16321548Y-5167500D02*
X16291548Y-5197500D01*
X16291548Y-5667500D02*
X16321548Y-5697500D01*
X16321548Y-5667500D02*
X16291548Y-5697500D01*
X16291548Y-6167500D02*
X16321548Y-6197500D01*
X16321548Y-6167500D02*
X16291548Y-6197500D01*
X16291548Y-6667500D02*
X16321548Y-6697500D01*
X16321548Y-6667500D02*
X16291548Y-6697500D01*
X16291548Y-7167500D02*
X16321548Y-7197500D01*
X16321548Y-7167500D02*
X16291548Y-7197500D01*
X16291548Y-7667500D02*
X16321548Y-7697500D01*
X16321548Y-7667500D02*
X16291548Y-7697500D01*
X16291548Y-8167500D02*
X16321548Y-8197500D01*
X16321548Y-8167500D02*
X16291548Y-8197500D01*
X16291548Y-8667500D02*
X16321548Y-8697500D01*
X16321548Y-8667500D02*
X16291548Y-8697500D01*
X16291548Y-9167500D02*
X16321548Y-9197500D01*
X16321548Y-9167500D02*
X16291548Y-9197500D01*
X16291548Y-9667500D02*
X16321548Y-9697500D01*
X16321548Y-9667500D02*
X16291548Y-9697500D01*
X16357544Y-12062500D02*
X16387544Y-12092500D01*
X16387544Y-12062500D02*
X16357544Y-12092500D01*
X16374650Y-12222500D02*
X16404650Y-12252500D01*
X16404650Y-12222500D02*
X16374650Y-12252500D01*
X16517500Y-11902500D02*
X16547500Y-11932500D01*
X16547500Y-11902500D02*
X16517500Y-11932500D01*
X16695000Y-11738750D02*
X16725000Y-11768750D01*
X16725000Y-11738750D02*
X16695000Y-11768750D01*
X16790000Y-11162500D02*
X16820000Y-11192500D01*
X16820000Y-11162500D02*
X16790000Y-11192500D01*
X16790000Y-11738750D02*
X16820000Y-11768750D01*
X16820000Y-11738750D02*
X16790000Y-11768750D01*
X16791548Y-4167500D02*
X16821548Y-4197500D01*
X16821548Y-4167500D02*
X16791548Y-4197500D01*
X16791548Y-5167500D02*
X16821548Y-5197500D01*
X16821548Y-5167500D02*
X16791548Y-5197500D01*
X16791548Y-5667500D02*
X16821548Y-5697500D01*
X16821548Y-5667500D02*
X16791548Y-5697500D01*
X16791548Y-6167500D02*
X16821548Y-6197500D01*
X16821548Y-6167500D02*
X16791548Y-6197500D01*
X16791548Y-6667500D02*
X16821548Y-6697500D01*
X16821548Y-6667500D02*
X16791548Y-6697500D01*
X16791548Y-7167500D02*
X16821548Y-7197500D01*
X16821548Y-7167500D02*
X16791548Y-7197500D01*
X16791548Y-7667500D02*
X16821548Y-7697500D01*
X16821548Y-7667500D02*
X16791548Y-7697500D01*
X16791548Y-8167500D02*
X16821548Y-8197500D01*
X16821548Y-8167500D02*
X16791548Y-8197500D01*
X16791548Y-8667500D02*
X16821548Y-8697500D01*
X16821548Y-8667500D02*
X16791548Y-8697500D01*
X16791548Y-9167500D02*
X16821548Y-9197500D01*
X16821548Y-9167500D02*
X16791548Y-9197500D01*
X16799500Y-2868000D02*
X16829500Y-2898000D01*
X16829500Y-2868000D02*
X16799500Y-2898000D01*
X16844000Y-12502500D02*
X16874000Y-12532500D01*
X16874000Y-12502500D02*
X16844000Y-12532500D01*
X16865000Y-9817500D02*
X16895000Y-9847500D01*
X16895000Y-9817500D02*
X16865000Y-9847500D01*
X16885000Y-11738750D02*
X16915000Y-11768750D01*
X16915000Y-11738750D02*
X16885000Y-11768750D01*
X16890000Y-11422500D02*
X16920000Y-11452500D01*
X16920000Y-11422500D02*
X16890000Y-11452500D01*
X16940000Y-12502500D02*
X16970000Y-12532500D01*
X16970000Y-12502500D02*
X16940000Y-12532500D01*
X16945000Y-10253500D02*
X16975000Y-10283500D01*
X16975000Y-10253500D02*
X16945000Y-10283500D01*
X16983452Y-13282500D02*
X17013452Y-13312500D01*
X17013452Y-13282500D02*
X16983452Y-13312500D01*
X16983452Y-13562500D02*
X17013452Y-13592500D01*
X17013452Y-13562500D02*
X16983452Y-13592500D01*
X16983452Y-13855000D02*
X17013452Y-13885000D01*
X17013452Y-13855000D02*
X16983452Y-13885000D01*
X16985000Y-13017500D02*
X17015000Y-13047500D01*
X17015000Y-13017500D02*
X16985000Y-13047500D01*
X17068750Y-12167500D02*
X17098750Y-12197500D01*
X17098750Y-12167500D02*
X17068750Y-12197500D01*
X17160000Y-2759500D02*
X17190000Y-2789500D01*
X17190000Y-2759500D02*
X17160000Y-2789500D01*
X17195000Y-4167500D02*
X17225000Y-4197500D01*
X17225000Y-4167500D02*
X17195000Y-4197500D01*
X17205000Y-10253500D02*
X17235000Y-10283500D01*
X17235000Y-10253500D02*
X17205000Y-10283500D01*
X17210000Y-2997500D02*
X17240000Y-3027500D01*
X17240000Y-2997500D02*
X17210000Y-3027500D01*
X17235000Y-9563500D02*
X17265000Y-9593500D01*
X17265000Y-9563500D02*
X17235000Y-9593500D01*
X17245000Y-11766841D02*
X17275000Y-11796841D01*
X17275000Y-11766841D02*
X17245000Y-11796841D01*
X17265000Y-12500500D02*
X17295000Y-12530500D01*
X17295000Y-12500500D02*
X17265000Y-12530500D01*
X17268636Y-12290077D02*
X17298636Y-12320077D01*
X17298636Y-12290077D02*
X17268636Y-12320077D01*
X17291548Y-4667500D02*
X17321548Y-4697500D01*
X17321548Y-4667500D02*
X17291548Y-4697500D01*
X17291548Y-5167500D02*
X17321548Y-5197500D01*
X17321548Y-5167500D02*
X17291548Y-5197500D01*
X17291548Y-5667500D02*
X17321548Y-5697500D01*
X17321548Y-5667500D02*
X17291548Y-5697500D01*
X17291548Y-6167500D02*
X17321548Y-6197500D01*
X17321548Y-6167500D02*
X17291548Y-6197500D01*
X17291548Y-6667500D02*
X17321548Y-6697500D01*
X17321548Y-6667500D02*
X17291548Y-6697500D01*
X17291548Y-7167500D02*
X17321548Y-7197500D01*
X17321548Y-7167500D02*
X17291548Y-7197500D01*
X17291548Y-7667500D02*
X17321548Y-7697500D01*
X17321548Y-7667500D02*
X17291548Y-7697500D01*
X17291548Y-8167500D02*
X17321548Y-8197500D01*
X17321548Y-8167500D02*
X17291548Y-8197500D01*
X17291548Y-8667500D02*
X17321548Y-8697500D01*
X17321548Y-8667500D02*
X17291548Y-8697500D01*
X17291548Y-9167500D02*
X17321548Y-9197500D01*
X17321548Y-9167500D02*
X17291548Y-9197500D01*
X17317000Y-2760500D02*
X17347000Y-2790500D01*
X17347000Y-2760500D02*
X17317000Y-2790500D01*
X17330000Y-13015000D02*
X17360000Y-13045000D01*
X17360000Y-13015000D02*
X17330000Y-13045000D01*
X17330000Y-13280000D02*
X17360000Y-13310000D01*
X17360000Y-13280000D02*
X17330000Y-13310000D01*
X17330000Y-13560000D02*
X17360000Y-13590000D01*
X17360000Y-13560000D02*
X17330000Y-13590000D01*
X17330000Y-13852500D02*
X17360000Y-13882500D01*
X17360000Y-13852500D02*
X17330000Y-13882500D01*
X17361364Y-12314923D02*
X17391364Y-12344923D01*
X17391364Y-12314923D02*
X17361364Y-12344923D01*
X17455000Y-10153500D02*
X17485000Y-10183500D01*
X17485000Y-10153500D02*
X17455000Y-10183500D01*
X17465000Y-11767500D02*
X17495000Y-11797500D01*
X17495000Y-11767500D02*
X17465000Y-11797500D01*
X17594000Y-9527500D02*
X17624000Y-9557500D01*
X17624000Y-9527500D02*
X17594000Y-9557500D01*
X17656000Y-12502500D02*
X17686000Y-12532500D01*
X17686000Y-12502500D02*
X17656000Y-12532500D01*
X17671000Y-2758500D02*
X17701000Y-2788500D01*
X17701000Y-2758500D02*
X17671000Y-2788500D01*
X17695000Y-13017500D02*
X17725000Y-13047500D01*
X17725000Y-13017500D02*
X17695000Y-13047500D01*
X17695000Y-13282500D02*
X17725000Y-13312500D01*
X17725000Y-13282500D02*
X17695000Y-13312500D01*
X17695000Y-13562500D02*
X17725000Y-13592500D01*
X17725000Y-13562500D02*
X17695000Y-13592500D01*
X17695000Y-13855000D02*
X17725000Y-13885000D01*
X17725000Y-13855000D02*
X17695000Y-13885000D01*
X17772500Y-2995000D02*
X17802500Y-3025000D01*
X17802500Y-2995000D02*
X17772500Y-3025000D01*
X17772500Y-11422500D02*
X17802500Y-11452500D01*
X17802500Y-11422500D02*
X17772500Y-11452500D01*
X17779500Y-11582500D02*
X17809500Y-11612500D01*
X17809500Y-11582500D02*
X17779500Y-11612500D01*
X17780000Y-11767500D02*
X17810000Y-11797500D01*
X17810000Y-11767500D02*
X17780000Y-11797500D01*
X17788750Y-12167500D02*
X17818750Y-12197500D01*
X17818750Y-12167500D02*
X17788750Y-12197500D01*
X17790000Y-11162500D02*
X17820000Y-11192500D01*
X17820000Y-11162500D02*
X17790000Y-11192500D01*
X17791548Y-5167500D02*
X17821548Y-5197500D01*
X17821548Y-5167500D02*
X17791548Y-5197500D01*
X17791548Y-5667500D02*
X17821548Y-5697500D01*
X17821548Y-5667500D02*
X17791548Y-5697500D01*
X17791548Y-6167500D02*
X17821548Y-6197500D01*
X17821548Y-6167500D02*
X17791548Y-6197500D01*
X17791548Y-6667500D02*
X17821548Y-6697500D01*
X17821548Y-6667500D02*
X17791548Y-6697500D01*
X17791548Y-7167500D02*
X17821548Y-7197500D01*
X17821548Y-7167500D02*
X17791548Y-7197500D01*
X17791548Y-7667500D02*
X17821548Y-7697500D01*
X17821548Y-7667500D02*
X17791548Y-7697500D01*
X17791548Y-8167500D02*
X17821548Y-8197500D01*
X17821548Y-8167500D02*
X17791548Y-8197500D01*
X17791548Y-8667500D02*
X17821548Y-8697500D01*
X17821548Y-8667500D02*
X17791548Y-8697500D01*
X17791548Y-9167500D02*
X17821548Y-9197500D01*
X17821548Y-9167500D02*
X17791548Y-9197500D01*
X17920000Y-2677500D02*
X17950000Y-2707500D01*
X17950000Y-2677500D02*
X17920000Y-2707500D01*
X17965000Y-12264500D02*
X17995000Y-12294500D01*
X17995000Y-12264500D02*
X17965000Y-12294500D01*
X17965000Y-12360500D02*
X17995000Y-12390500D01*
X17995000Y-12360500D02*
X17965000Y-12390500D01*
X17967500Y-11741250D02*
X17997500Y-11771250D01*
X17997500Y-11741250D02*
X17967500Y-11771250D01*
X17985000Y-4555000D02*
X18015000Y-4585000D01*
X18015000Y-4555000D02*
X17985000Y-4585000D01*
X18075000Y-4552500D02*
X18105000Y-4582500D01*
X18105000Y-4552500D02*
X18075000Y-4582500D01*
X18175000Y-11547500D02*
X18205000Y-11577500D01*
X18205000Y-11547500D02*
X18175000Y-11577500D01*
X18175000Y-11735000D02*
X18205000Y-11765000D01*
X18205000Y-11735000D02*
X18175000Y-11765000D01*
X18185000Y-12302500D02*
X18215000Y-12332500D01*
X18215000Y-12302500D02*
X18185000Y-12332500D01*
X18185000Y-12422500D02*
X18215000Y-12452500D01*
X18215000Y-12422500D02*
X18185000Y-12452500D01*
X18200000Y-3025000D02*
X18230000Y-3055000D01*
X18230000Y-3025000D02*
X18200000Y-3055000D01*
X18225000Y-12542500D02*
X18255000Y-12572500D01*
X18255000Y-12542500D02*
X18225000Y-12572500D01*
X18290000Y-10662500D02*
X18320000Y-10692500D01*
X18320000Y-10662500D02*
X18290000Y-10692500D01*
X18291548Y-3667500D02*
X18321548Y-3697500D01*
X18321548Y-3667500D02*
X18291548Y-3697500D01*
X18291548Y-4167500D02*
X18321548Y-4197500D01*
X18321548Y-4167500D02*
X18291548Y-4197500D01*
X18291548Y-4667500D02*
X18321548Y-4697500D01*
X18321548Y-4667500D02*
X18291548Y-4697500D01*
X18291548Y-6167500D02*
X18321548Y-6197500D01*
X18321548Y-6167500D02*
X18291548Y-6197500D01*
X18291548Y-6667500D02*
X18321548Y-6697500D01*
X18321548Y-6667500D02*
X18291548Y-6697500D01*
X18291548Y-7167500D02*
X18321548Y-7197500D01*
X18321548Y-7167500D02*
X18291548Y-7197500D01*
X18291548Y-7667500D02*
X18321548Y-7697500D01*
X18321548Y-7667500D02*
X18291548Y-7697500D01*
X18291548Y-8167500D02*
X18321548Y-8197500D01*
X18321548Y-8167500D02*
X18291548Y-8197500D01*
X18291548Y-8667500D02*
X18321548Y-8697500D01*
X18321548Y-8667500D02*
X18291548Y-8697500D01*
X18291548Y-9167500D02*
X18321548Y-9197500D01*
X18321548Y-9167500D02*
X18291548Y-9197500D01*
X18291548Y-9667500D02*
X18321548Y-9697500D01*
X18321548Y-9667500D02*
X18291548Y-9697500D01*
X18315000Y-3330000D02*
X18345000Y-3360000D01*
X18345000Y-3330000D02*
X18315000Y-3360000D01*
X18420000Y-2992500D02*
X18450000Y-3022500D01*
X18450000Y-2992500D02*
X18420000Y-3022500D01*
X18500000Y-3570000D02*
X18530000Y-3600000D01*
X18530000Y-3570000D02*
X18500000Y-3600000D01*
X18565000Y-3452500D02*
X18595000Y-3482500D01*
X18595000Y-3452500D02*
X18565000Y-3482500D01*
X18614999Y-2992500D02*
X18644999Y-3022500D01*
X18644999Y-2992500D02*
X18614999Y-3022500D01*
X18635000Y-3695000D02*
X18665000Y-3725000D01*
X18665000Y-3695000D02*
X18635000Y-3725000D01*
X18639604Y-3347104D02*
X18669604Y-3377104D01*
X18669604Y-3347104D02*
X18639604Y-3377104D01*
X18665000Y-5195000D02*
X18695000Y-5225000D01*
X18695000Y-5195000D02*
X18665000Y-5225000D01*
X18705000Y-11692500D02*
X18735000Y-11722500D01*
X18735000Y-11692500D02*
X18705000Y-11722500D01*
X18715000Y-3452500D02*
X18745000Y-3482500D01*
X18745000Y-3452500D02*
X18715000Y-3482500D01*
X18748452Y-13282500D02*
X18778452Y-13312500D01*
X18778452Y-13282500D02*
X18748452Y-13312500D01*
X18748452Y-13562500D02*
X18778452Y-13592500D01*
X18778452Y-13562500D02*
X18748452Y-13592500D01*
X18748452Y-13855000D02*
X18778452Y-13885000D01*
X18778452Y-13855000D02*
X18748452Y-13885000D01*
X18750000Y-13017500D02*
X18780000Y-13047500D01*
X18780000Y-13017500D02*
X18750000Y-13047500D01*
X18765000Y-4680000D02*
X18795000Y-4710000D01*
X18795000Y-4680000D02*
X18765000Y-4710000D01*
X18785000Y-11107500D02*
X18815000Y-11137500D01*
X18815000Y-11107500D02*
X18785000Y-11137500D01*
X18791548Y-5667500D02*
X18821548Y-5697500D01*
X18821548Y-5667500D02*
X18791548Y-5697500D01*
X18791548Y-6667500D02*
X18821548Y-6697500D01*
X18821548Y-6667500D02*
X18791548Y-6697500D01*
X18791548Y-7167500D02*
X18821548Y-7197500D01*
X18821548Y-7167500D02*
X18791548Y-7197500D01*
X18791548Y-7667500D02*
X18821548Y-7697500D01*
X18821548Y-7667500D02*
X18791548Y-7697500D01*
X18791548Y-8167500D02*
X18821548Y-8197500D01*
X18821548Y-8167500D02*
X18791548Y-8197500D01*
X18791548Y-8667500D02*
X18821548Y-8697500D01*
X18821548Y-8667500D02*
X18791548Y-8697500D01*
X18791548Y-9167500D02*
X18821548Y-9197500D01*
X18821548Y-9167500D02*
X18791548Y-9197500D01*
X18791548Y-9667500D02*
X18821548Y-9697500D01*
X18821548Y-9667500D02*
X18791548Y-9697500D01*
X18791548Y-10167500D02*
X18821548Y-10197500D01*
X18821548Y-10167500D02*
X18791548Y-10197500D01*
X18791548Y-10662500D02*
X18821548Y-10692500D01*
X18821548Y-10662500D02*
X18791548Y-10692500D01*
X18810000Y-2992500D02*
X18840000Y-3022500D01*
X18840000Y-2992500D02*
X18810000Y-3022500D01*
X18915000Y-3325000D02*
X18945000Y-3355000D01*
X18945000Y-3325000D02*
X18915000Y-3355000D01*
X19005000Y-7945000D02*
X19035000Y-7975000D01*
X19035000Y-7945000D02*
X19005000Y-7975000D01*
X19010000Y-3025000D02*
X19040000Y-3055000D01*
X19040000Y-3025000D02*
X19010000Y-3055000D01*
X19080000Y-4922500D02*
X19110000Y-4952500D01*
X19110000Y-4922500D02*
X19080000Y-4952500D01*
X19090000Y-13015000D02*
X19120000Y-13045000D01*
X19120000Y-13015000D02*
X19090000Y-13045000D01*
X19090000Y-13280000D02*
X19120000Y-13310000D01*
X19120000Y-13280000D02*
X19090000Y-13310000D01*
X19090000Y-13560000D02*
X19120000Y-13590000D01*
X19120000Y-13560000D02*
X19090000Y-13590000D01*
X19090000Y-13852500D02*
X19120000Y-13882500D01*
X19120000Y-13852500D02*
X19090000Y-13882500D01*
X19135000Y-12267500D02*
X19165000Y-12297500D01*
X19165000Y-12267500D02*
X19135000Y-12297500D01*
X19135000Y-12497500D02*
X19165000Y-12527500D01*
X19165000Y-12497500D02*
X19135000Y-12527500D01*
X19165000Y-11917500D02*
X19195000Y-11947500D01*
X19195000Y-11917500D02*
X19165000Y-11947500D01*
X19165000Y-12737500D02*
X19195000Y-12767500D01*
X19195000Y-12737500D02*
X19165000Y-12767500D01*
X19195000Y-11107500D02*
X19225000Y-11137500D01*
X19225000Y-11107500D02*
X19195000Y-11137500D01*
X19225000Y-7145000D02*
X19255000Y-7175000D01*
X19255000Y-7145000D02*
X19225000Y-7175000D01*
X19225000Y-7445000D02*
X19255000Y-7475000D01*
X19255000Y-7445000D02*
X19225000Y-7475000D01*
X19291548Y-2667500D02*
X19321548Y-2697500D01*
X19321548Y-2667500D02*
X19291548Y-2697500D01*
X19291548Y-3167500D02*
X19321548Y-3197500D01*
X19321548Y-3167500D02*
X19291548Y-3197500D01*
X19291548Y-5667500D02*
X19321548Y-5697500D01*
X19321548Y-5667500D02*
X19291548Y-5697500D01*
X19291548Y-7667500D02*
X19321548Y-7697500D01*
X19321548Y-7667500D02*
X19291548Y-7697500D01*
X19291548Y-9167500D02*
X19321548Y-9197500D01*
X19321548Y-9167500D02*
X19291548Y-9197500D01*
X19291548Y-9667500D02*
X19321548Y-9697500D01*
X19321548Y-9667500D02*
X19291548Y-9697500D01*
X19291548Y-10167500D02*
X19321548Y-10197500D01*
X19321548Y-10167500D02*
X19291548Y-10197500D01*
X19291548Y-10667500D02*
X19321548Y-10697500D01*
X19321548Y-10667500D02*
X19291548Y-10697500D01*
X19305000Y-7955000D02*
X19335000Y-7985000D01*
X19335000Y-7955000D02*
X19305000Y-7985000D01*
X19365000Y-8342500D02*
X19395000Y-8372500D01*
X19395000Y-8342500D02*
X19365000Y-8372500D01*
X19390000Y-4539500D02*
X19420000Y-4569500D01*
X19420000Y-4539500D02*
X19390000Y-4569500D01*
X19400334Y-6828187D02*
X19430334Y-6858187D01*
X19430334Y-6828187D02*
X19400334Y-6858187D01*
X19445000Y-8235000D02*
X19475000Y-8265000D01*
X19475000Y-8235000D02*
X19445000Y-8265000D01*
X19455000Y-13017500D02*
X19485000Y-13047500D01*
X19485000Y-13017500D02*
X19455000Y-13047500D01*
X19455000Y-13282500D02*
X19485000Y-13312500D01*
X19485000Y-13282500D02*
X19455000Y-13312500D01*
X19455000Y-13562500D02*
X19485000Y-13592500D01*
X19485000Y-13562500D02*
X19455000Y-13592500D01*
X19480000Y-5295000D02*
X19510000Y-5325000D01*
X19510000Y-5295000D02*
X19480000Y-5325000D01*
X19705000Y-3122500D02*
X19735000Y-3152500D01*
X19735000Y-3122500D02*
X19705000Y-3152500D01*
X19705000Y-7532500D02*
X19735000Y-7562500D01*
X19735000Y-7532500D02*
X19705000Y-7562500D01*
X19725000Y-8470000D02*
X19755000Y-8500000D01*
X19755000Y-8470000D02*
X19725000Y-8500000D01*
X19755000Y-13675000D02*
X19785000Y-13705000D01*
X19785000Y-13675000D02*
X19755000Y-13705000D01*
X19785000Y-11112500D02*
X19815000Y-11142500D01*
X19815000Y-11112500D02*
X19785000Y-11142500D01*
X19791548Y-2667500D02*
X19821548Y-2697500D01*
X19821548Y-2667500D02*
X19791548Y-2697500D01*
X19791548Y-5667500D02*
X19821548Y-5697500D01*
X19821548Y-5667500D02*
X19791548Y-5697500D01*
X19791548Y-9167500D02*
X19821548Y-9197500D01*
X19821548Y-9167500D02*
X19791548Y-9197500D01*
X19791548Y-9667500D02*
X19821548Y-9697500D01*
X19821548Y-9667500D02*
X19791548Y-9697500D01*
X19791548Y-10167500D02*
X19821548Y-10197500D01*
X19821548Y-10167500D02*
X19791548Y-10197500D01*
X19791548Y-10667500D02*
X19821548Y-10697500D01*
X19821548Y-10667500D02*
X19791548Y-10697500D01*
X19838000Y-8590000D02*
X19868000Y-8620000D01*
X19868000Y-8590000D02*
X19838000Y-8620000D01*
X19855000Y-3562500D02*
X19885000Y-3592500D01*
X19885000Y-3562500D02*
X19855000Y-3592500D01*
X19865000Y-4997500D02*
X19895000Y-5027500D01*
X19895000Y-4997500D02*
X19865000Y-5027500D01*
X19925000Y-8590000D02*
X19955000Y-8620000D01*
X19955000Y-8590000D02*
X19925000Y-8620000D01*
X20025000Y-13640000D02*
X20055000Y-13670000D01*
X20055000Y-13640000D02*
X20025000Y-13670000D01*
X20045000Y-13095000D02*
X20075000Y-13125000D01*
X20075000Y-13095000D02*
X20045000Y-13125000D01*
X20105000Y-8702500D02*
X20135000Y-8732500D01*
X20135000Y-8702500D02*
X20105000Y-8732500D01*
X20105000Y-12555000D02*
X20135000Y-12585000D01*
X20135000Y-12555000D02*
X20105000Y-12585000D01*
X20120000Y-4602500D02*
X20150000Y-4632500D01*
X20150000Y-4602500D02*
X20120000Y-4632500D01*
X20130000Y-5867500D02*
X20160000Y-5897500D01*
X20160000Y-5867500D02*
X20130000Y-5897500D01*
X20130000Y-5977500D02*
X20160000Y-6007500D01*
X20160000Y-5977500D02*
X20130000Y-6007500D01*
X20265000Y-13095000D02*
X20295000Y-13125000D01*
X20295000Y-13095000D02*
X20265000Y-13125000D01*
X20291548Y-2667500D02*
X20321548Y-2697500D01*
X20321548Y-2667500D02*
X20291548Y-2697500D01*
X20291548Y-3167500D02*
X20321548Y-3197500D01*
X20321548Y-3167500D02*
X20291548Y-3197500D01*
X20291548Y-3667500D02*
X20321548Y-3697500D01*
X20321548Y-3667500D02*
X20291548Y-3697500D01*
X20291548Y-5667500D02*
X20321548Y-5697500D01*
X20321548Y-5667500D02*
X20291548Y-5697500D01*
X20291548Y-9167500D02*
X20321548Y-9197500D01*
X20321548Y-9167500D02*
X20291548Y-9197500D01*
X20291548Y-9667500D02*
X20321548Y-9697500D01*
X20321548Y-9667500D02*
X20291548Y-9697500D01*
X20291548Y-10167500D02*
X20321548Y-10197500D01*
X20321548Y-10167500D02*
X20291548Y-10197500D01*
X20291548Y-10667500D02*
X20321548Y-10697500D01*
X20321548Y-10667500D02*
X20291548Y-10697500D01*
X20291548Y-13632500D02*
X20321548Y-13662500D01*
X20321548Y-13632500D02*
X20291548Y-13662500D01*
X20465000Y-12655000D02*
X20495000Y-12685000D01*
X20495000Y-12655000D02*
X20465000Y-12685000D01*
X20515000Y-8525000D02*
X20545000Y-8555000D01*
X20545000Y-8525000D02*
X20515000Y-8555000D01*
X20565000Y-13435000D02*
X20595000Y-13465000D01*
X20595000Y-13435000D02*
X20565000Y-13465000D01*
X20675000Y-7952500D02*
X20705000Y-7982500D01*
X20705000Y-7952500D02*
X20675000Y-7982500D01*
X20725000Y-2667500D02*
X20755000Y-2697500D01*
X20755000Y-2667500D02*
X20725000Y-2697500D01*
X20725000Y-3167500D02*
X20755000Y-3197500D01*
X20755000Y-3167500D02*
X20725000Y-3197500D01*
X20725000Y-3667500D02*
X20755000Y-3697500D01*
X20755000Y-3667500D02*
X20725000Y-3697500D01*
X20725000Y-4265000D02*
X20755000Y-4295000D01*
X20755000Y-4265000D02*
X20725000Y-4295000D01*
X20725000Y-4667500D02*
X20755000Y-4697500D01*
X20755000Y-4667500D02*
X20725000Y-4697500D01*
X20725000Y-5167500D02*
X20755000Y-5197500D01*
X20755000Y-5167500D02*
X20725000Y-5197500D01*
X20725000Y-6167500D02*
X20755000Y-6197500D01*
X20755000Y-6167500D02*
X20725000Y-6197500D01*
X20725000Y-6667500D02*
X20755000Y-6697500D01*
X20755000Y-6667500D02*
X20725000Y-6697500D01*
X20725000Y-9167500D02*
X20755000Y-9197500D01*
X20755000Y-9167500D02*
X20725000Y-9197500D01*
X20725000Y-9667500D02*
X20755000Y-9697500D01*
X20755000Y-9667500D02*
X20725000Y-9697500D01*
X20725000Y-10167500D02*
X20755000Y-10197500D01*
X20755000Y-10167500D02*
X20725000Y-10197500D01*
X20725000Y-10667500D02*
X20755000Y-10697500D01*
X20755000Y-10667500D02*
X20725000Y-10697500D01*
X20725000Y-11167500D02*
X20755000Y-11197500D01*
X20755000Y-11167500D02*
X20725000Y-11197500D01*
X20725000Y-12667500D02*
X20755000Y-12697500D01*
X20755000Y-12667500D02*
X20725000Y-12697500D01*
X20725000Y-13667500D02*
X20755000Y-13697500D01*
X20755000Y-13667500D02*
X20725000Y-13697500D01*
X21230000Y-12355000D02*
X21260000Y-12385000D01*
X21260000Y-12355000D02*
X21230000Y-12385000D01*
X21230000Y-12855000D02*
X21260000Y-12885000D01*
X21260000Y-12855000D02*
X21230000Y-12885000D01*
X21230000Y-13855000D02*
X21260000Y-13885000D01*
X21260000Y-13855000D02*
X21230000Y-13885000D01*
X21235000Y-3167500D02*
X21265000Y-3197500D01*
X21265000Y-3167500D02*
X21235000Y-3197500D01*
X21235000Y-3667500D02*
X21265000Y-3697500D01*
X21265000Y-3667500D02*
X21235000Y-3697500D01*
X21235000Y-4167500D02*
X21265000Y-4197500D01*
X21265000Y-4167500D02*
X21235000Y-4197500D01*
X21235000Y-4667500D02*
X21265000Y-4697500D01*
X21265000Y-4667500D02*
X21235000Y-4697500D01*
X21235000Y-5167500D02*
X21265000Y-5197500D01*
X21265000Y-5167500D02*
X21235000Y-5197500D01*
X21235000Y-5667500D02*
X21265000Y-5697500D01*
X21265000Y-5667500D02*
X21235000Y-5697500D01*
X21235000Y-6167500D02*
X21265000Y-6197500D01*
X21265000Y-6167500D02*
X21235000Y-6197500D01*
X21235000Y-6667500D02*
X21265000Y-6697500D01*
X21265000Y-6667500D02*
X21235000Y-6697500D01*
X21235000Y-7667500D02*
X21265000Y-7697500D01*
X21265000Y-7667500D02*
X21235000Y-7697500D01*
X21235000Y-8167500D02*
X21265000Y-8197500D01*
X21265000Y-8167500D02*
X21235000Y-8197500D01*
X21235000Y-8667500D02*
X21265000Y-8697500D01*
X21265000Y-8667500D02*
X21235000Y-8697500D01*
X21235000Y-9167500D02*
X21265000Y-9197500D01*
X21265000Y-9167500D02*
X21235000Y-9197500D01*
X21235000Y-9667500D02*
X21265000Y-9697500D01*
X21265000Y-9667500D02*
X21235000Y-9697500D01*
X21235000Y-10167500D02*
X21265000Y-10197500D01*
X21265000Y-10167500D02*
X21235000Y-10197500D01*
X21235000Y-10667500D02*
X21265000Y-10697500D01*
X21265000Y-10667500D02*
X21235000Y-10697500D01*
X21235000Y-11167500D02*
X21265000Y-11197500D01*
X21265000Y-11167500D02*
X21235000Y-11197500D01*
X21535000Y-11462500D02*
X21565000Y-11492500D01*
X21565000Y-11462500D02*
X21535000Y-11492500D01*
X21535000Y-11897500D02*
X21565000Y-11927500D01*
X21565000Y-11897500D02*
X21535000Y-11927500D01*
X21535000Y-13562500D02*
X21565000Y-13592500D01*
X21565000Y-13562500D02*
X21535000Y-13592500D01*
X21665000Y-13247500D02*
X21695000Y-13277500D01*
X21695000Y-13247500D02*
X21665000Y-13277500D01*
X21761548Y-2667500D02*
X21791548Y-2697500D01*
X21791548Y-2667500D02*
X21761548Y-2697500D01*
X21761548Y-3167500D02*
X21791548Y-3197500D01*
X21791548Y-3167500D02*
X21761548Y-3197500D01*
X21761548Y-3667500D02*
X21791548Y-3697500D01*
X21791548Y-3667500D02*
X21761548Y-3697500D01*
X21761548Y-4167500D02*
X21791548Y-4197500D01*
X21791548Y-4167500D02*
X21761548Y-4197500D01*
X21761548Y-5167500D02*
X21791548Y-5197500D01*
X21791548Y-5167500D02*
X21761548Y-5197500D01*
X21761548Y-5667500D02*
X21791548Y-5697500D01*
X21791548Y-5667500D02*
X21761548Y-5697500D01*
X21761548Y-6167500D02*
X21791548Y-6197500D01*
X21791548Y-6167500D02*
X21761548Y-6197500D01*
X21761548Y-6667500D02*
X21791548Y-6697500D01*
X21791548Y-6667500D02*
X21761548Y-6697500D01*
X21761548Y-7167500D02*
X21791548Y-7197500D01*
X21791548Y-7167500D02*
X21761548Y-7197500D01*
X21761548Y-7667500D02*
X21791548Y-7697500D01*
X21791548Y-7667500D02*
X21761548Y-7697500D01*
X21761548Y-8167500D02*
X21791548Y-8197500D01*
X21791548Y-8167500D02*
X21761548Y-8197500D01*
X21761548Y-8667500D02*
X21791548Y-8697500D01*
X21791548Y-8667500D02*
X21761548Y-8697500D01*
X21761548Y-9167500D02*
X21791548Y-9197500D01*
X21791548Y-9167500D02*
X21761548Y-9197500D01*
X21761548Y-9667500D02*
X21791548Y-9697500D01*
X21791548Y-9667500D02*
X21761548Y-9697500D01*
X21761548Y-10167500D02*
X21791548Y-10197500D01*
X21791548Y-10167500D02*
X21761548Y-10197500D01*
X21761548Y-10667500D02*
X21791548Y-10697500D01*
X21791548Y-10667500D02*
X21761548Y-10697500D01*
X21761548Y-11167500D02*
X21791548Y-11197500D01*
X21791548Y-11167500D02*
X21761548Y-11197500D01*
X21825000Y-12272500D02*
X21855000Y-12302500D01*
X21855000Y-12272500D02*
X21825000Y-12302500D01*
X21980000Y-12837500D02*
X22010000Y-12867500D01*
X22010000Y-12837500D02*
X21980000Y-12867500D01*
X21985000Y-13397500D02*
X22015000Y-13427500D01*
X22015000Y-13397500D02*
X21985000Y-13427500D01*
X22032500Y-13032500D02*
X22062500Y-13062500D01*
X22062500Y-13032500D02*
X22032500Y-13062500D01*
X22035000Y-11462500D02*
X22065000Y-11492500D01*
X22065000Y-11462500D02*
X22035000Y-11492500D01*
X22035000Y-11897500D02*
X22065000Y-11927500D01*
X22065000Y-11897500D02*
X22035000Y-11927500D01*
X22035000Y-13862500D02*
X22065000Y-13892500D01*
X22065000Y-13862500D02*
X22035000Y-13892500D01*
X22105000Y-12272500D02*
X22135000Y-12302500D01*
X22135000Y-12272500D02*
X22105000Y-12302500D01*
X22261548Y-2667500D02*
X22291548Y-2697500D01*
X22291548Y-2667500D02*
X22261548Y-2697500D01*
X22261548Y-3167500D02*
X22291548Y-3197500D01*
X22291548Y-3167500D02*
X22261548Y-3197500D01*
X22261548Y-4167500D02*
X22291548Y-4197500D01*
X22291548Y-4167500D02*
X22261548Y-4197500D01*
X22261548Y-4667500D02*
X22291548Y-4697500D01*
X22291548Y-4667500D02*
X22261548Y-4697500D01*
X22261548Y-5167500D02*
X22291548Y-5197500D01*
X22291548Y-5167500D02*
X22261548Y-5197500D01*
X22261548Y-5667500D02*
X22291548Y-5697500D01*
X22291548Y-5667500D02*
X22261548Y-5697500D01*
X22261548Y-6167500D02*
X22291548Y-6197500D01*
X22291548Y-6167500D02*
X22261548Y-6197500D01*
X22261548Y-6667500D02*
X22291548Y-6697500D01*
X22291548Y-6667500D02*
X22261548Y-6697500D01*
X22261548Y-7167500D02*
X22291548Y-7197500D01*
X22291548Y-7167500D02*
X22261548Y-7197500D01*
X22261548Y-7667500D02*
X22291548Y-7697500D01*
X22291548Y-7667500D02*
X22261548Y-7697500D01*
X22261548Y-8167500D02*
X22291548Y-8197500D01*
X22291548Y-8167500D02*
X22261548Y-8197500D01*
X22261548Y-8667500D02*
X22291548Y-8697500D01*
X22291548Y-8667500D02*
X22261548Y-8697500D01*
X22261548Y-9167500D02*
X22291548Y-9197500D01*
X22291548Y-9167500D02*
X22261548Y-9197500D01*
X22261548Y-9667500D02*
X22291548Y-9697500D01*
X22291548Y-9667500D02*
X22261548Y-9697500D01*
X22261548Y-10167500D02*
X22291548Y-10197500D01*
X22291548Y-10167500D02*
X22261548Y-10197500D01*
X22310000Y-12887500D02*
X22340000Y-12917500D01*
X22340000Y-12887500D02*
X22310000Y-12917500D01*
X22560000Y-10442500D02*
X22590000Y-10472500D01*
X22590000Y-10442500D02*
X22560000Y-10472500D01*
X22610000Y-12217500D02*
X22640000Y-12247500D01*
X22640000Y-12217500D02*
X22610000Y-12247500D01*
X22615000Y-13280000D02*
X22645000Y-13310000D01*
X22645000Y-13280000D02*
X22615000Y-13310000D01*
X22615000Y-13560000D02*
X22645000Y-13590000D01*
X22645000Y-13560000D02*
X22615000Y-13590000D01*
X22615000Y-13852500D02*
X22645000Y-13882500D01*
X22645000Y-13852500D02*
X22615000Y-13882500D01*
X22755000Y-11642500D02*
X22785000Y-11672500D01*
X22785000Y-11642500D02*
X22755000Y-11672500D01*
X22760000Y-11162500D02*
X22790000Y-11192500D01*
X22790000Y-11162500D02*
X22760000Y-11192500D01*
X22761548Y-4167500D02*
X22791548Y-4197500D01*
X22791548Y-4167500D02*
X22761548Y-4197500D01*
X22761548Y-4667500D02*
X22791548Y-4697500D01*
X22791548Y-4667500D02*
X22761548Y-4697500D01*
X22761548Y-5167500D02*
X22791548Y-5197500D01*
X22791548Y-5167500D02*
X22761548Y-5197500D01*
X22761548Y-5667500D02*
X22791548Y-5697500D01*
X22791548Y-5667500D02*
X22761548Y-5697500D01*
X22761548Y-6167500D02*
X22791548Y-6197500D01*
X22791548Y-6167500D02*
X22761548Y-6197500D01*
X22761548Y-6667500D02*
X22791548Y-6697500D01*
X22791548Y-6667500D02*
X22761548Y-6697500D01*
X22761548Y-7167500D02*
X22791548Y-7197500D01*
X22791548Y-7167500D02*
X22761548Y-7197500D01*
X22761548Y-7667500D02*
X22791548Y-7697500D01*
X22791548Y-7667500D02*
X22761548Y-7697500D01*
X22761548Y-8167500D02*
X22791548Y-8197500D01*
X22791548Y-8167500D02*
X22761548Y-8197500D01*
X22761548Y-8667500D02*
X22791548Y-8697500D01*
X22791548Y-8667500D02*
X22761548Y-8697500D01*
X22761548Y-9167500D02*
X22791548Y-9197500D01*
X22791548Y-9167500D02*
X22761548Y-9197500D01*
X22761548Y-9667500D02*
X22791548Y-9697500D01*
X22791548Y-9667500D02*
X22761548Y-9697500D01*
X22761548Y-10167500D02*
X22791548Y-10197500D01*
X22791548Y-10167500D02*
X22761548Y-10197500D01*
X22785000Y-11860000D02*
X22815000Y-11890000D01*
X22815000Y-11860000D02*
X22785000Y-11890000D01*
X22940000Y-13015000D02*
X22970000Y-13045000D01*
X22970000Y-13015000D02*
X22940000Y-13045000D01*
X22940000Y-13280000D02*
X22970000Y-13310000D01*
X22970000Y-13280000D02*
X22940000Y-13310000D01*
X22940000Y-13560000D02*
X22970000Y-13590000D01*
X22970000Y-13560000D02*
X22940000Y-13590000D01*
X22940000Y-13852500D02*
X22970000Y-13882500D01*
X22970000Y-13852500D02*
X22940000Y-13882500D01*
X23255000Y-11642500D02*
X23285000Y-11672500D01*
X23285000Y-11642500D02*
X23255000Y-11672500D01*
X23260000Y-11162500D02*
X23290000Y-11192500D01*
X23290000Y-11162500D02*
X23260000Y-11192500D01*
X23261548Y-4167500D02*
X23291548Y-4197500D01*
X23291548Y-4167500D02*
X23261548Y-4197500D01*
X23261548Y-5167500D02*
X23291548Y-5197500D01*
X23291548Y-5167500D02*
X23261548Y-5197500D01*
X23261548Y-5667500D02*
X23291548Y-5697500D01*
X23291548Y-5667500D02*
X23261548Y-5697500D01*
X23261548Y-6167500D02*
X23291548Y-6197500D01*
X23291548Y-6167500D02*
X23261548Y-6197500D01*
X23261548Y-6667500D02*
X23291548Y-6697500D01*
X23291548Y-6667500D02*
X23261548Y-6697500D01*
X23261548Y-7167500D02*
X23291548Y-7197500D01*
X23291548Y-7167500D02*
X23261548Y-7197500D01*
X23261548Y-7667500D02*
X23291548Y-7697500D01*
X23291548Y-7667500D02*
X23261548Y-7697500D01*
X23261548Y-8167500D02*
X23291548Y-8197500D01*
X23291548Y-8167500D02*
X23261548Y-8197500D01*
X23261548Y-8667500D02*
X23291548Y-8697500D01*
X23291548Y-8667500D02*
X23261548Y-8697500D01*
X23261548Y-9167500D02*
X23291548Y-9197500D01*
X23291548Y-9167500D02*
X23261548Y-9197500D01*
X23261548Y-9667500D02*
X23291548Y-9697500D01*
X23291548Y-9667500D02*
X23261548Y-9697500D01*
X23327544Y-12062500D02*
X23357544Y-12092500D01*
X23357544Y-12062500D02*
X23327544Y-12092500D01*
X23344650Y-12222500D02*
X23374650Y-12252500D01*
X23374650Y-12222500D02*
X23344650Y-12252500D01*
X23487500Y-11902500D02*
X23517500Y-11932500D01*
X23517500Y-11902500D02*
X23487500Y-11932500D01*
X23665000Y-11738750D02*
X23695000Y-11768750D01*
X23695000Y-11738750D02*
X23665000Y-11768750D01*
X23760000Y-11162500D02*
X23790000Y-11192500D01*
X23790000Y-11162500D02*
X23760000Y-11192500D01*
X23760000Y-11738750D02*
X23790000Y-11768750D01*
X23790000Y-11738750D02*
X23760000Y-11768750D01*
X23761548Y-4167500D02*
X23791548Y-4197500D01*
X23791548Y-4167500D02*
X23761548Y-4197500D01*
X23761548Y-5167500D02*
X23791548Y-5197500D01*
X23791548Y-5167500D02*
X23761548Y-5197500D01*
X23761548Y-5667500D02*
X23791548Y-5697500D01*
X23791548Y-5667500D02*
X23761548Y-5697500D01*
X23761548Y-6167500D02*
X23791548Y-6197500D01*
X23791548Y-6167500D02*
X23761548Y-6197500D01*
X23761548Y-6667500D02*
X23791548Y-6697500D01*
X23791548Y-6667500D02*
X23761548Y-6697500D01*
X23761548Y-7167500D02*
X23791548Y-7197500D01*
X23791548Y-7167500D02*
X23761548Y-7197500D01*
X23761548Y-7667500D02*
X23791548Y-7697500D01*
X23791548Y-7667500D02*
X23761548Y-7697500D01*
X23761548Y-8167500D02*
X23791548Y-8197500D01*
X23791548Y-8167500D02*
X23761548Y-8197500D01*
X23761548Y-8667500D02*
X23791548Y-8697500D01*
X23791548Y-8667500D02*
X23761548Y-8697500D01*
X23761548Y-9167500D02*
X23791548Y-9197500D01*
X23791548Y-9167500D02*
X23761548Y-9197500D01*
X23769500Y-2868000D02*
X23799500Y-2898000D01*
X23799500Y-2868000D02*
X23769500Y-2898000D01*
X23814000Y-12502500D02*
X23844000Y-12532500D01*
X23844000Y-12502500D02*
X23814000Y-12532500D01*
X23835000Y-9817500D02*
X23865000Y-9847500D01*
X23865000Y-9817500D02*
X23835000Y-9847500D01*
X23855000Y-11738750D02*
X23885000Y-11768750D01*
X23885000Y-11738750D02*
X23855000Y-11768750D01*
X23860000Y-11422500D02*
X23890000Y-11452500D01*
X23890000Y-11422500D02*
X23860000Y-11452500D01*
X23910000Y-12502500D02*
X23940000Y-12532500D01*
X23940000Y-12502500D02*
X23910000Y-12532500D01*
X23915000Y-10253500D02*
X23945000Y-10283500D01*
X23945000Y-10253500D02*
X23915000Y-10283500D01*
X23953452Y-13282500D02*
X23983452Y-13312500D01*
X23983452Y-13282500D02*
X23953452Y-13312500D01*
X23953452Y-13562500D02*
X23983452Y-13592500D01*
X23983452Y-13562500D02*
X23953452Y-13592500D01*
X23953452Y-13855000D02*
X23983452Y-13885000D01*
X23983452Y-13855000D02*
X23953452Y-13885000D01*
X23955000Y-13017500D02*
X23985000Y-13047500D01*
X23985000Y-13017500D02*
X23955000Y-13047500D01*
X24038750Y-12167500D02*
X24068750Y-12197500D01*
X24068750Y-12167500D02*
X24038750Y-12197500D01*
X24130000Y-2759500D02*
X24160000Y-2789500D01*
X24160000Y-2759500D02*
X24130000Y-2789500D01*
X24165000Y-4167500D02*
X24195000Y-4197500D01*
X24195000Y-4167500D02*
X24165000Y-4197500D01*
X24175000Y-10253500D02*
X24205000Y-10283500D01*
X24205000Y-10253500D02*
X24175000Y-10283500D01*
X24180000Y-2997500D02*
X24210000Y-3027500D01*
X24210000Y-2997500D02*
X24180000Y-3027500D01*
X24205000Y-9563500D02*
X24235000Y-9593500D01*
X24235000Y-9563500D02*
X24205000Y-9593500D01*
X24215000Y-11766841D02*
X24245000Y-11796841D01*
X24245000Y-11766841D02*
X24215000Y-11796841D01*
X24235000Y-12500500D02*
X24265000Y-12530500D01*
X24265000Y-12500500D02*
X24235000Y-12530500D01*
X24238636Y-12290077D02*
X24268636Y-12320077D01*
X24268636Y-12290077D02*
X24238636Y-12320077D01*
X24261548Y-4667500D02*
X24291548Y-4697500D01*
X24291548Y-4667500D02*
X24261548Y-4697500D01*
X24261548Y-5167500D02*
X24291548Y-5197500D01*
X24291548Y-5167500D02*
X24261548Y-5197500D01*
X24261548Y-5667500D02*
X24291548Y-5697500D01*
X24291548Y-5667500D02*
X24261548Y-5697500D01*
X24261548Y-6167500D02*
X24291548Y-6197500D01*
X24291548Y-6167500D02*
X24261548Y-6197500D01*
X24261548Y-6667500D02*
X24291548Y-6697500D01*
X24291548Y-6667500D02*
X24261548Y-6697500D01*
X24261548Y-7167500D02*
X24291548Y-7197500D01*
X24291548Y-7167500D02*
X24261548Y-7197500D01*
X24261548Y-7667500D02*
X24291548Y-7697500D01*
X24291548Y-7667500D02*
X24261548Y-7697500D01*
X24261548Y-8167500D02*
X24291548Y-8197500D01*
X24291548Y-8167500D02*
X24261548Y-8197500D01*
X24261548Y-8667500D02*
X24291548Y-8697500D01*
X24291548Y-8667500D02*
X24261548Y-8697500D01*
X24261548Y-9167500D02*
X24291548Y-9197500D01*
X24291548Y-9167500D02*
X24261548Y-9197500D01*
X24287000Y-2760500D02*
X24317000Y-2790500D01*
X24317000Y-2760500D02*
X24287000Y-2790500D01*
X24300000Y-13015000D02*
X24330000Y-13045000D01*
X24330000Y-13015000D02*
X24300000Y-13045000D01*
X24300000Y-13280000D02*
X24330000Y-13310000D01*
X24330000Y-13280000D02*
X24300000Y-13310000D01*
X24300000Y-13560000D02*
X24330000Y-13590000D01*
X24330000Y-13560000D02*
X24300000Y-13590000D01*
X24300000Y-13852500D02*
X24330000Y-13882500D01*
X24330000Y-13852500D02*
X24300000Y-13882500D01*
X24331364Y-12314923D02*
X24361364Y-12344923D01*
X24361364Y-12314923D02*
X24331364Y-12344923D01*
X24425000Y-10153500D02*
X24455000Y-10183500D01*
X24455000Y-10153500D02*
X24425000Y-10183500D01*
X24435000Y-11767500D02*
X24465000Y-11797500D01*
X24465000Y-11767500D02*
X24435000Y-11797500D01*
X24564000Y-9527500D02*
X24594000Y-9557500D01*
X24594000Y-9527500D02*
X24564000Y-9557500D01*
X24626000Y-12502500D02*
X24656000Y-12532500D01*
X24656000Y-12502500D02*
X24626000Y-12532500D01*
X24641000Y-2758500D02*
X24671000Y-2788500D01*
X24671000Y-2758500D02*
X24641000Y-2788500D01*
X24665000Y-13017500D02*
X24695000Y-13047500D01*
X24695000Y-13017500D02*
X24665000Y-13047500D01*
X24665000Y-13282500D02*
X24695000Y-13312500D01*
X24695000Y-13282500D02*
X24665000Y-13312500D01*
X24665000Y-13562500D02*
X24695000Y-13592500D01*
X24695000Y-13562500D02*
X24665000Y-13592500D01*
X24665000Y-13855000D02*
X24695000Y-13885000D01*
X24695000Y-13855000D02*
X24665000Y-13885000D01*
X24742500Y-2995000D02*
X24772500Y-3025000D01*
X24772500Y-2995000D02*
X24742500Y-3025000D01*
X24742500Y-11422500D02*
X24772500Y-11452500D01*
X24772500Y-11422500D02*
X24742500Y-11452500D01*
X24749500Y-11582500D02*
X24779500Y-11612500D01*
X24779500Y-11582500D02*
X24749500Y-11612500D01*
X24750000Y-11767500D02*
X24780000Y-11797500D01*
X24780000Y-11767500D02*
X24750000Y-11797500D01*
X24758750Y-12167500D02*
X24788750Y-12197500D01*
X24788750Y-12167500D02*
X24758750Y-12197500D01*
X24760000Y-11162500D02*
X24790000Y-11192500D01*
X24790000Y-11162500D02*
X24760000Y-11192500D01*
X24761548Y-5167500D02*
X24791548Y-5197500D01*
X24791548Y-5167500D02*
X24761548Y-5197500D01*
X24761548Y-5667500D02*
X24791548Y-5697500D01*
X24791548Y-5667500D02*
X24761548Y-5697500D01*
X24761548Y-6167500D02*
X24791548Y-6197500D01*
X24791548Y-6167500D02*
X24761548Y-6197500D01*
X24761548Y-6667500D02*
X24791548Y-6697500D01*
X24791548Y-6667500D02*
X24761548Y-6697500D01*
X24761548Y-7167500D02*
X24791548Y-7197500D01*
X24791548Y-7167500D02*
X24761548Y-7197500D01*
X24761548Y-7667500D02*
X24791548Y-7697500D01*
X24791548Y-7667500D02*
X24761548Y-7697500D01*
X24761548Y-8167500D02*
X24791548Y-8197500D01*
X24791548Y-8167500D02*
X24761548Y-8197500D01*
X24761548Y-8667500D02*
X24791548Y-8697500D01*
X24791548Y-8667500D02*
X24761548Y-8697500D01*
X24761548Y-9167500D02*
X24791548Y-9197500D01*
X24791548Y-9167500D02*
X24761548Y-9197500D01*
X24890000Y-2677500D02*
X24920000Y-2707500D01*
X24920000Y-2677500D02*
X24890000Y-2707500D01*
X24935000Y-12264500D02*
X24965000Y-12294500D01*
X24965000Y-12264500D02*
X24935000Y-12294500D01*
X24935000Y-12360500D02*
X24965000Y-12390500D01*
X24965000Y-12360500D02*
X24935000Y-12390500D01*
X24937500Y-11741250D02*
X24967500Y-11771250D01*
X24967500Y-11741250D02*
X24937500Y-11771250D01*
X24955000Y-4555000D02*
X24985000Y-4585000D01*
X24985000Y-4555000D02*
X24955000Y-4585000D01*
X25045000Y-4552500D02*
X25075000Y-4582500D01*
X25075000Y-4552500D02*
X25045000Y-4582500D01*
X25145000Y-11547500D02*
X25175000Y-11577500D01*
X25175000Y-11547500D02*
X25145000Y-11577500D01*
X25145000Y-11735000D02*
X25175000Y-11765000D01*
X25175000Y-11735000D02*
X25145000Y-11765000D01*
X25155000Y-12302500D02*
X25185000Y-12332500D01*
X25185000Y-12302500D02*
X25155000Y-12332500D01*
X25155000Y-12422500D02*
X25185000Y-12452500D01*
X25185000Y-12422500D02*
X25155000Y-12452500D01*
X25170000Y-3025000D02*
X25200000Y-3055000D01*
X25200000Y-3025000D02*
X25170000Y-3055000D01*
X25195000Y-12542500D02*
X25225000Y-12572500D01*
X25225000Y-12542500D02*
X25195000Y-12572500D01*
X25260000Y-10662500D02*
X25290000Y-10692500D01*
X25290000Y-10662500D02*
X25260000Y-10692500D01*
X25261548Y-3667500D02*
X25291548Y-3697500D01*
X25291548Y-3667500D02*
X25261548Y-3697500D01*
X25261548Y-4167500D02*
X25291548Y-4197500D01*
X25291548Y-4167500D02*
X25261548Y-4197500D01*
X25261548Y-4667500D02*
X25291548Y-4697500D01*
X25291548Y-4667500D02*
X25261548Y-4697500D01*
X25261548Y-6167500D02*
X25291548Y-6197500D01*
X25291548Y-6167500D02*
X25261548Y-6197500D01*
X25261548Y-6667500D02*
X25291548Y-6697500D01*
X25291548Y-6667500D02*
X25261548Y-6697500D01*
X25261548Y-7167500D02*
X25291548Y-7197500D01*
X25291548Y-7167500D02*
X25261548Y-7197500D01*
X25261548Y-7667500D02*
X25291548Y-7697500D01*
X25291548Y-7667500D02*
X25261548Y-7697500D01*
X25261548Y-8167500D02*
X25291548Y-8197500D01*
X25291548Y-8167500D02*
X25261548Y-8197500D01*
X25261548Y-8667500D02*
X25291548Y-8697500D01*
X25291548Y-8667500D02*
X25261548Y-8697500D01*
X25261548Y-9167500D02*
X25291548Y-9197500D01*
X25291548Y-9167500D02*
X25261548Y-9197500D01*
X25261548Y-9667500D02*
X25291548Y-9697500D01*
X25291548Y-9667500D02*
X25261548Y-9697500D01*
X25285000Y-3330000D02*
X25315000Y-3360000D01*
X25315000Y-3330000D02*
X25285000Y-3360000D01*
X25390000Y-2992500D02*
X25420000Y-3022500D01*
X25420000Y-2992500D02*
X25390000Y-3022500D01*
X25470000Y-3570000D02*
X25500000Y-3600000D01*
X25500000Y-3570000D02*
X25470000Y-3600000D01*
X25535000Y-3452500D02*
X25565000Y-3482500D01*
X25565000Y-3452500D02*
X25535000Y-3482500D01*
X25584999Y-2992500D02*
X25614999Y-3022500D01*
X25614999Y-2992500D02*
X25584999Y-3022500D01*
X25605000Y-3695000D02*
X25635000Y-3725000D01*
X25635000Y-3695000D02*
X25605000Y-3725000D01*
X25609604Y-3347104D02*
X25639604Y-3377104D01*
X25639604Y-3347104D02*
X25609604Y-3377104D01*
X25635000Y-5195000D02*
X25665000Y-5225000D01*
X25665000Y-5195000D02*
X25635000Y-5225000D01*
X25675000Y-11692500D02*
X25705000Y-11722500D01*
X25705000Y-11692500D02*
X25675000Y-11722500D01*
X25685000Y-3452500D02*
X25715000Y-3482500D01*
X25715000Y-3452500D02*
X25685000Y-3482500D01*
X25718452Y-13282500D02*
X25748452Y-13312500D01*
X25748452Y-13282500D02*
X25718452Y-13312500D01*
X25718452Y-13562500D02*
X25748452Y-13592500D01*
X25748452Y-13562500D02*
X25718452Y-13592500D01*
X25718452Y-13855000D02*
X25748452Y-13885000D01*
X25748452Y-13855000D02*
X25718452Y-13885000D01*
X25720000Y-13017500D02*
X25750000Y-13047500D01*
X25750000Y-13017500D02*
X25720000Y-13047500D01*
X25735000Y-4680000D02*
X25765000Y-4710000D01*
X25765000Y-4680000D02*
X25735000Y-4710000D01*
X25755000Y-11107500D02*
X25785000Y-11137500D01*
X25785000Y-11107500D02*
X25755000Y-11137500D01*
X25761548Y-5667500D02*
X25791548Y-5697500D01*
X25791548Y-5667500D02*
X25761548Y-5697500D01*
X25761548Y-6667500D02*
X25791548Y-6697500D01*
X25791548Y-6667500D02*
X25761548Y-6697500D01*
X25761548Y-7167500D02*
X25791548Y-7197500D01*
X25791548Y-7167500D02*
X25761548Y-7197500D01*
X25761548Y-7667500D02*
X25791548Y-7697500D01*
X25791548Y-7667500D02*
X25761548Y-7697500D01*
X25761548Y-8167500D02*
X25791548Y-8197500D01*
X25791548Y-8167500D02*
X25761548Y-8197500D01*
X25761548Y-8667500D02*
X25791548Y-8697500D01*
X25791548Y-8667500D02*
X25761548Y-8697500D01*
X25761548Y-9167500D02*
X25791548Y-9197500D01*
X25791548Y-9167500D02*
X25761548Y-9197500D01*
X25761548Y-9667500D02*
X25791548Y-9697500D01*
X25791548Y-9667500D02*
X25761548Y-9697500D01*
X25761548Y-10167500D02*
X25791548Y-10197500D01*
X25791548Y-10167500D02*
X25761548Y-10197500D01*
X25761548Y-10662500D02*
X25791548Y-10692500D01*
X25791548Y-10662500D02*
X25761548Y-10692500D01*
X25780000Y-2992500D02*
X25810000Y-3022500D01*
X25810000Y-2992500D02*
X25780000Y-3022500D01*
X25885000Y-3325000D02*
X25915000Y-3355000D01*
X25915000Y-3325000D02*
X25885000Y-3355000D01*
X25975000Y-7945000D02*
X26005000Y-7975000D01*
X26005000Y-7945000D02*
X25975000Y-7975000D01*
X25980000Y-3025000D02*
X26010000Y-3055000D01*
X26010000Y-3025000D02*
X25980000Y-3055000D01*
X26050000Y-4922500D02*
X26080000Y-4952500D01*
X26080000Y-4922500D02*
X26050000Y-4952500D01*
X26060000Y-13015000D02*
X26090000Y-13045000D01*
X26090000Y-13015000D02*
X26060000Y-13045000D01*
X26060000Y-13280000D02*
X26090000Y-13310000D01*
X26090000Y-13280000D02*
X26060000Y-13310000D01*
X26060000Y-13560000D02*
X26090000Y-13590000D01*
X26090000Y-13560000D02*
X26060000Y-13590000D01*
X26060000Y-13852500D02*
X26090000Y-13882500D01*
X26090000Y-13852500D02*
X26060000Y-13882500D01*
X26105000Y-12267500D02*
X26135000Y-12297500D01*
X26135000Y-12267500D02*
X26105000Y-12297500D01*
X26105000Y-12497500D02*
X26135000Y-12527500D01*
X26135000Y-12497500D02*
X26105000Y-12527500D01*
X26135000Y-11917500D02*
X26165000Y-11947500D01*
X26165000Y-11917500D02*
X26135000Y-11947500D01*
X26135000Y-12737500D02*
X26165000Y-12767500D01*
X26165000Y-12737500D02*
X26135000Y-12767500D01*
X26165000Y-11107500D02*
X26195000Y-11137500D01*
X26195000Y-11107500D02*
X26165000Y-11137500D01*
X26195000Y-7145000D02*
X26225000Y-7175000D01*
X26225000Y-7145000D02*
X26195000Y-7175000D01*
X26195000Y-7445000D02*
X26225000Y-7475000D01*
X26225000Y-7445000D02*
X26195000Y-7475000D01*
X26261548Y-2667500D02*
X26291548Y-2697500D01*
X26291548Y-2667500D02*
X26261548Y-2697500D01*
X26261548Y-3167500D02*
X26291548Y-3197500D01*
X26291548Y-3167500D02*
X26261548Y-3197500D01*
X26261548Y-5667500D02*
X26291548Y-5697500D01*
X26291548Y-5667500D02*
X26261548Y-5697500D01*
X26261548Y-7667500D02*
X26291548Y-7697500D01*
X26291548Y-7667500D02*
X26261548Y-7697500D01*
X26261548Y-9167500D02*
X26291548Y-9197500D01*
X26291548Y-9167500D02*
X26261548Y-9197500D01*
X26261548Y-9667500D02*
X26291548Y-9697500D01*
X26291548Y-9667500D02*
X26261548Y-9697500D01*
X26261548Y-10167500D02*
X26291548Y-10197500D01*
X26291548Y-10167500D02*
X26261548Y-10197500D01*
X26261548Y-10667500D02*
X26291548Y-10697500D01*
X26291548Y-10667500D02*
X26261548Y-10697500D01*
X26275000Y-7955000D02*
X26305000Y-7985000D01*
X26305000Y-7955000D02*
X26275000Y-7985000D01*
X26335000Y-8342500D02*
X26365000Y-8372500D01*
X26365000Y-8342500D02*
X26335000Y-8372500D01*
X26360000Y-4539500D02*
X26390000Y-4569500D01*
X26390000Y-4539500D02*
X26360000Y-4569500D01*
X26370334Y-6828187D02*
X26400334Y-6858187D01*
X26400334Y-6828187D02*
X26370334Y-6858187D01*
X26415000Y-8235000D02*
X26445000Y-8265000D01*
X26445000Y-8235000D02*
X26415000Y-8265000D01*
X26425000Y-13017500D02*
X26455000Y-13047500D01*
X26455000Y-13017500D02*
X26425000Y-13047500D01*
X26425000Y-13282500D02*
X26455000Y-13312500D01*
X26455000Y-13282500D02*
X26425000Y-13312500D01*
X26425000Y-13562500D02*
X26455000Y-13592500D01*
X26455000Y-13562500D02*
X26425000Y-13592500D01*
X26450000Y-5295000D02*
X26480000Y-5325000D01*
X26480000Y-5295000D02*
X26450000Y-5325000D01*
X26675000Y-3122500D02*
X26705000Y-3152500D01*
X26705000Y-3122500D02*
X26675000Y-3152500D01*
X26675000Y-7532500D02*
X26705000Y-7562500D01*
X26705000Y-7532500D02*
X26675000Y-7562500D01*
X26695000Y-8470000D02*
X26725000Y-8500000D01*
X26725000Y-8470000D02*
X26695000Y-8500000D01*
X26725000Y-13675000D02*
X26755000Y-13705000D01*
X26755000Y-13675000D02*
X26725000Y-13705000D01*
X26755000Y-11112500D02*
X26785000Y-11142500D01*
X26785000Y-11112500D02*
X26755000Y-11142500D01*
X26761548Y-2667500D02*
X26791548Y-2697500D01*
X26791548Y-2667500D02*
X26761548Y-2697500D01*
X26761548Y-5667500D02*
X26791548Y-5697500D01*
X26791548Y-5667500D02*
X26761548Y-5697500D01*
X26761548Y-9167500D02*
X26791548Y-9197500D01*
X26791548Y-9167500D02*
X26761548Y-9197500D01*
X26761548Y-9667500D02*
X26791548Y-9697500D01*
X26791548Y-9667500D02*
X26761548Y-9697500D01*
X26761548Y-10167500D02*
X26791548Y-10197500D01*
X26791548Y-10167500D02*
X26761548Y-10197500D01*
X26761548Y-10667500D02*
X26791548Y-10697500D01*
X26791548Y-10667500D02*
X26761548Y-10697500D01*
X26808000Y-8590000D02*
X26838000Y-8620000D01*
X26838000Y-8590000D02*
X26808000Y-8620000D01*
X26825000Y-3562500D02*
X26855000Y-3592500D01*
X26855000Y-3562500D02*
X26825000Y-3592500D01*
X26835000Y-4997500D02*
X26865000Y-5027500D01*
X26865000Y-4997500D02*
X26835000Y-5027500D01*
X26895000Y-8590000D02*
X26925000Y-8620000D01*
X26925000Y-8590000D02*
X26895000Y-8620000D01*
X26995000Y-13640000D02*
X27025000Y-13670000D01*
X27025000Y-13640000D02*
X26995000Y-13670000D01*
X27015000Y-13095000D02*
X27045000Y-13125000D01*
X27045000Y-13095000D02*
X27015000Y-13125000D01*
X27075000Y-8702500D02*
X27105000Y-8732500D01*
X27105000Y-8702500D02*
X27075000Y-8732500D01*
X27075000Y-12555000D02*
X27105000Y-12585000D01*
X27105000Y-12555000D02*
X27075000Y-12585000D01*
X27090000Y-4602500D02*
X27120000Y-4632500D01*
X27120000Y-4602500D02*
X27090000Y-4632500D01*
X27100000Y-5867500D02*
X27130000Y-5897500D01*
X27130000Y-5867500D02*
X27100000Y-5897500D01*
X27100000Y-5977500D02*
X27130000Y-6007500D01*
X27130000Y-5977500D02*
X27100000Y-6007500D01*
X27235000Y-13095000D02*
X27265000Y-13125000D01*
X27265000Y-13095000D02*
X27235000Y-13125000D01*
X27261548Y-2667500D02*
X27291548Y-2697500D01*
X27291548Y-2667500D02*
X27261548Y-2697500D01*
X27261548Y-3167500D02*
X27291548Y-3197500D01*
X27291548Y-3167500D02*
X27261548Y-3197500D01*
X27261548Y-3667500D02*
X27291548Y-3697500D01*
X27291548Y-3667500D02*
X27261548Y-3697500D01*
X27261548Y-5667500D02*
X27291548Y-5697500D01*
X27291548Y-5667500D02*
X27261548Y-5697500D01*
X27261548Y-9167500D02*
X27291548Y-9197500D01*
X27291548Y-9167500D02*
X27261548Y-9197500D01*
X27261548Y-9667500D02*
X27291548Y-9697500D01*
X27291548Y-9667500D02*
X27261548Y-9697500D01*
X27261548Y-10167500D02*
X27291548Y-10197500D01*
X27291548Y-10167500D02*
X27261548Y-10197500D01*
X27261548Y-10667500D02*
X27291548Y-10697500D01*
X27291548Y-10667500D02*
X27261548Y-10697500D01*
X27261548Y-13632500D02*
X27291548Y-13662500D01*
X27291548Y-13632500D02*
X27261548Y-13662500D01*
X27435000Y-12655000D02*
X27465000Y-12685000D01*
X27465000Y-12655000D02*
X27435000Y-12685000D01*
X27485000Y-8525000D02*
X27515000Y-8555000D01*
X27515000Y-8525000D02*
X27485000Y-8555000D01*
X27535000Y-13435000D02*
X27565000Y-13465000D01*
X27565000Y-13435000D02*
X27535000Y-13465000D01*
X27645000Y-7952500D02*
X27675000Y-7982500D01*
X27675000Y-7952500D02*
X27645000Y-7982500D01*
X27695000Y-2667500D02*
X27725000Y-2697500D01*
X27725000Y-2667500D02*
X27695000Y-2697500D01*
X27695000Y-3167500D02*
X27725000Y-3197500D01*
X27725000Y-3167500D02*
X27695000Y-3197500D01*
X27695000Y-3667500D02*
X27725000Y-3697500D01*
X27725000Y-3667500D02*
X27695000Y-3697500D01*
X27695000Y-4265000D02*
X27725000Y-4295000D01*
X27725000Y-4265000D02*
X27695000Y-4295000D01*
X27695000Y-4667500D02*
X27725000Y-4697500D01*
X27725000Y-4667500D02*
X27695000Y-4697500D01*
X27695000Y-5167500D02*
X27725000Y-5197500D01*
X27725000Y-5167500D02*
X27695000Y-5197500D01*
X27695000Y-6167500D02*
X27725000Y-6197500D01*
X27725000Y-6167500D02*
X27695000Y-6197500D01*
X27695000Y-6667500D02*
X27725000Y-6697500D01*
X27725000Y-6667500D02*
X27695000Y-6697500D01*
X27695000Y-9167500D02*
X27725000Y-9197500D01*
X27725000Y-9167500D02*
X27695000Y-9197500D01*
X27695000Y-9667500D02*
X27725000Y-9697500D01*
X27725000Y-9667500D02*
X27695000Y-9697500D01*
X27695000Y-10167500D02*
X27725000Y-10197500D01*
X27725000Y-10167500D02*
X27695000Y-10197500D01*
X27695000Y-10667500D02*
X27725000Y-10697500D01*
X27725000Y-10667500D02*
X27695000Y-10697500D01*
X27695000Y-11167500D02*
X27725000Y-11197500D01*
X27725000Y-11167500D02*
X27695000Y-11197500D01*
X27695000Y-12667500D02*
X27725000Y-12697500D01*
X27725000Y-12667500D02*
X27695000Y-12697500D01*
X27695000Y-13667500D02*
X27725000Y-13697500D01*
X27725000Y-13667500D02*
X27695000Y-13697500D01*
X18228948Y-2676500D02*
G75*
G02*
X18168948Y-2676500I-30000J0D01*
G01*
X18168948Y-2676500D02*
G75*
G02*
X18228948Y-2676500I30000J0D01*
G01*
X18228948Y-2751500D02*
X18228948Y-2601500D01*
X18168948Y-2601500D02*
G75*
G02*
X18228948Y-2601500I30000J0D01*
G01*
X18168948Y-2601500D02*
X18168948Y-2751500D01*
X18168948Y-2751500D02*
G75*
G03*
X18228948Y-2751500I30000J0D01*
G01*
X18228948Y-3212500D02*
G75*
G02*
X18168948Y-3212500I-30000J0D01*
G01*
X18168948Y-3212500D02*
G75*
G02*
X18228948Y-3212500I30000J0D01*
G01*
X18228948Y-3262500D02*
X18228948Y-3162500D01*
X18168948Y-3162500D02*
G75*
G02*
X18228948Y-3162500I30000J0D01*
G01*
X18168948Y-3162500D02*
X18168948Y-3262500D01*
X18168948Y-3262500D02*
G75*
G03*
X18228948Y-3262500I30000J0D01*
G01*
X19092948Y-2676500D02*
G75*
G02*
X19032948Y-2676500I-30000J0D01*
G01*
X19032948Y-2676500D02*
G75*
G02*
X19092948Y-2676500I30000J0D01*
G01*
X19092948Y-2751500D02*
X19092948Y-2601500D01*
X19032948Y-2601500D02*
G75*
G02*
X19092948Y-2601500I30000J0D01*
G01*
X19032948Y-2601500D02*
X19032948Y-2751500D01*
X19032948Y-2751500D02*
G75*
G03*
X19092948Y-2751500I30000J0D01*
G01*
X19092948Y-3212500D02*
G75*
G02*
X19032948Y-3212500I-30000J0D01*
G01*
X19032948Y-3212500D02*
G75*
G02*
X19092948Y-3212500I30000J0D01*
G01*
X19092948Y-3262500D02*
X19092948Y-3162500D01*
X19032948Y-3162500D02*
G75*
G02*
X19092948Y-3162500I30000J0D01*
G01*
X19032948Y-3162500D02*
X19032948Y-3262500D01*
X19032948Y-3262500D02*
G75*
G03*
X19092948Y-3262500I30000J0D01*
G01*
X25198948Y-2676500D02*
G75*
G02*
X25138948Y-2676500I-30000J0D01*
G01*
X25138948Y-2676500D02*
G75*
G02*
X25198948Y-2676500I30000J0D01*
G01*
X25198948Y-2751500D02*
X25198948Y-2601500D01*
X25138948Y-2601500D02*
G75*
G02*
X25198948Y-2601500I30000J0D01*
G01*
X25138948Y-2601500D02*
X25138948Y-2751500D01*
X25138948Y-2751500D02*
G75*
G03*
X25198948Y-2751500I30000J0D01*
G01*
X25198948Y-3212500D02*
G75*
G02*
X25138948Y-3212500I-30000J0D01*
G01*
X25138948Y-3212500D02*
G75*
G02*
X25198948Y-3212500I30000J0D01*
G01*
X25198948Y-3262500D02*
X25198948Y-3162500D01*
X25138948Y-3162500D02*
G75*
G02*
X25198948Y-3162500I30000J0D01*
G01*
X25138948Y-3162500D02*
X25138948Y-3262500D01*
X25138948Y-3262500D02*
G75*
G03*
X25198948Y-3262500I30000J0D01*
G01*
X26062948Y-2676500D02*
G75*
G02*
X26002948Y-2676500I-30000J0D01*
G01*
X26002948Y-2676500D02*
G75*
G02*
X26062948Y-2676500I30000J0D01*
G01*
X26062948Y-2751500D02*
X26062948Y-2601500D01*
X26002948Y-2601500D02*
G75*
G02*
X26062948Y-2601500I30000J0D01*
G01*
X26002948Y-2601500D02*
X26002948Y-2751500D01*
X26002948Y-2751500D02*
G75*
G03*
X26062948Y-2751500I30000J0D01*
G01*
X26062948Y-3212500D02*
G75*
G02*
X26002948Y-3212500I-30000J0D01*
G01*
X26002948Y-3212500D02*
G75*
G02*
X26062948Y-3212500I30000J0D01*
G01*
X26062948Y-3262500D02*
X26062948Y-3162500D01*
X26002948Y-3162500D02*
G75*
G02*
X26062948Y-3162500I30000J0D01*
G01*
X26002948Y-3162500D02*
X26002948Y-3262500D01*
X26002948Y-3262500D02*
G75*
G03*
X26062948Y-3262500I30000J0D01*
G01*
X14610000Y-12362500D02*
X14610000Y-12442500D01*
X14570000Y-12402500D02*
X14650000Y-12402500D01*
X14545000Y-12442500D02*
X14675000Y-12442500D01*
X14675000Y-12362500D02*
G75*
G02*
X14675000Y-12442500I0J-40000D01*
G01*
X14675000Y-12362500D02*
X14545000Y-12362500D01*
X14545000Y-12362500D02*
G75*
G03*
X14545000Y-12442500I0J-40000D01*
G01*
X14910000Y-12592500D02*
X14910000Y-12672500D01*
X14870000Y-12632500D02*
X14950000Y-12632500D01*
X14845000Y-12672500D02*
X14975000Y-12672500D01*
X14975000Y-12592500D02*
G75*
G02*
X14975000Y-12672500I0J-40000D01*
G01*
X14975000Y-12592500D02*
X14845000Y-12592500D01*
X14845000Y-12592500D02*
G75*
G03*
X14845000Y-12672500I0J-40000D01*
G01*
X14910000Y-13592500D02*
X14910000Y-13672500D01*
X14870000Y-13632500D02*
X14950000Y-13632500D01*
X14845000Y-13672500D02*
X14975000Y-13672500D01*
X14975000Y-13592500D02*
G75*
G02*
X14975000Y-13672500I0J-40000D01*
G01*
X14975000Y-13592500D02*
X14845000Y-13592500D01*
X14845000Y-13592500D02*
G75*
G03*
X14845000Y-13672500I0J-40000D01*
G01*
X19626000Y-13807000D02*
X19626000Y-13887000D01*
X19586000Y-13847000D02*
X19666000Y-13847000D01*
X19573500Y-13887000D02*
X19678500Y-13887000D01*
X19678500Y-13807000D02*
G75*
G02*
X19678500Y-13887000I0J-40000D01*
G01*
X19678500Y-13807000D02*
X19573500Y-13807000D01*
X19573500Y-13807000D02*
G75*
G03*
X19573500Y-13887000I0J-40000D01*
G01*
X20134000Y-13807000D02*
X20134000Y-13887000D01*
X20094000Y-13847000D02*
X20174000Y-13847000D01*
X20081500Y-13887000D02*
X20186500Y-13887000D01*
X20186500Y-13807000D02*
G75*
G02*
X20186500Y-13887000I0J-40000D01*
G01*
X20186500Y-13807000D02*
X20081500Y-13807000D01*
X20081500Y-13807000D02*
G75*
G03*
X20081500Y-13887000I0J-40000D01*
G01*
X21580000Y-12362500D02*
X21580000Y-12442500D01*
X21540000Y-12402500D02*
X21620000Y-12402500D01*
X21515000Y-12442500D02*
X21645000Y-12442500D01*
X21645000Y-12362500D02*
G75*
G02*
X21645000Y-12442500I0J-40000D01*
G01*
X21645000Y-12362500D02*
X21515000Y-12362500D01*
X21515000Y-12362500D02*
G75*
G03*
X21515000Y-12442500I0J-40000D01*
G01*
X21880000Y-12592500D02*
X21880000Y-12672500D01*
X21840000Y-12632500D02*
X21920000Y-12632500D01*
X21815000Y-12672500D02*
X21945000Y-12672500D01*
X21945000Y-12592500D02*
G75*
G02*
X21945000Y-12672500I0J-40000D01*
G01*
X21945000Y-12592500D02*
X21815000Y-12592500D01*
X21815000Y-12592500D02*
G75*
G03*
X21815000Y-12672500I0J-40000D01*
G01*
X21880000Y-13592500D02*
X21880000Y-13672500D01*
X21840000Y-13632500D02*
X21920000Y-13632500D01*
X21815000Y-13672500D02*
X21945000Y-13672500D01*
X21945000Y-13592500D02*
G75*
G02*
X21945000Y-13672500I0J-40000D01*
G01*
X21945000Y-13592500D02*
X21815000Y-13592500D01*
X21815000Y-13592500D02*
G75*
G03*
X21815000Y-13672500I0J-40000D01*
G01*
X26596000Y-13807000D02*
X26596000Y-13887000D01*
X26556000Y-13847000D02*
X26636000Y-13847000D01*
X26543500Y-13887000D02*
X26648500Y-13887000D01*
X26648500Y-13807000D02*
G75*
G02*
X26648500Y-13887000I0J-40000D01*
G01*
X26648500Y-13807000D02*
X26543500Y-13807000D01*
X26543500Y-13807000D02*
G75*
G03*
X26543500Y-13887000I0J-40000D01*
G01*
X27104000Y-13807000D02*
X27104000Y-13887000D01*
X27064000Y-13847000D02*
X27144000Y-13847000D01*
X27051500Y-13887000D02*
X27156500Y-13887000D01*
X27156500Y-13807000D02*
G75*
G02*
X27156500Y-13887000I0J-40000D01*
G01*
X27156500Y-13807000D02*
X27051500Y-13807000D01*
X27051500Y-13807000D02*
G75*
G03*
X27051500Y-13887000I0J-40000D01*
G01*
X16256052Y-13238552D02*
X16256052Y-13178448D01*
X16195948Y-13178448D01*
X16195948Y-13238552D01*
X16256052Y-13238552D01*
X16256052Y-13746552D02*
X16256052Y-13686448D01*
X16195948Y-13686448D01*
X16195948Y-13746552D01*
X16256052Y-13746552D01*
X16510052Y-13492552D02*
X16510052Y-13432448D01*
X16449948Y-13432448D01*
X16449948Y-13492552D01*
X16510052Y-13492552D01*
X16764052Y-13238552D02*
X16764052Y-13178448D01*
X16703948Y-13178448D01*
X16703948Y-13238552D01*
X16764052Y-13238552D01*
X16764052Y-13746552D02*
X16764052Y-13686448D01*
X16703948Y-13686448D01*
X16703948Y-13746552D01*
X16764052Y-13746552D01*
X18056052Y-13238552D02*
X18056052Y-13178448D01*
X17995948Y-13178448D01*
X17995948Y-13238552D01*
X18056052Y-13238552D01*
X18056052Y-13746552D02*
X18056052Y-13686448D01*
X17995948Y-13686448D01*
X17995948Y-13746552D01*
X18056052Y-13746552D01*
X18310052Y-13492552D02*
X18310052Y-13432448D01*
X18249948Y-13432448D01*
X18249948Y-13492552D01*
X18310052Y-13492552D01*
X18564052Y-13238552D02*
X18564052Y-13178448D01*
X18503948Y-13178448D01*
X18503948Y-13238552D01*
X18564052Y-13238552D01*
X18564052Y-13746552D02*
X18564052Y-13686448D01*
X18503948Y-13686448D01*
X18503948Y-13746552D01*
X18564052Y-13746552D01*
X23226052Y-13238552D02*
X23226052Y-13178448D01*
X23165948Y-13178448D01*
X23165948Y-13238552D01*
X23226052Y-13238552D01*
X23226052Y-13746552D02*
X23226052Y-13686448D01*
X23165948Y-13686448D01*
X23165948Y-13746552D01*
X23226052Y-13746552D01*
X23480052Y-13492552D02*
X23480052Y-13432448D01*
X23419948Y-13432448D01*
X23419948Y-13492552D01*
X23480052Y-13492552D01*
X23734052Y-13238552D02*
X23734052Y-13178448D01*
X23673948Y-13178448D01*
X23673948Y-13238552D01*
X23734052Y-13238552D01*
X23734052Y-13746552D02*
X23734052Y-13686448D01*
X23673948Y-13686448D01*
X23673948Y-13746552D01*
X23734052Y-13746552D01*
X25026052Y-13238552D02*
X25026052Y-13178448D01*
X24965948Y-13178448D01*
X24965948Y-13238552D01*
X25026052Y-13238552D01*
X25026052Y-13746552D02*
X25026052Y-13686448D01*
X24965948Y-13686448D01*
X24965948Y-13746552D01*
X25026052Y-13746552D01*
X25280052Y-13492552D02*
X25280052Y-13432448D01*
X25219948Y-13432448D01*
X25219948Y-13492552D01*
X25280052Y-13492552D01*
X25534052Y-13238552D02*
X25534052Y-13178448D01*
X25473948Y-13178448D01*
X25473948Y-13238552D01*
X25534052Y-13238552D01*
X25534052Y-13746552D02*
X25534052Y-13686448D01*
X25473948Y-13686448D01*
X25473948Y-13746552D01*
X25534052Y-13746552D01*
X19120000Y-3550000D02*
X19170000Y-3500000D01*
X19120000Y-3450000D01*
X19070000Y-3500000D01*
X19120000Y-3550000D01*
X19510000Y-3627500D02*
X19560000Y-3577500D01*
X19510000Y-3527500D01*
X19460000Y-3577500D01*
X19510000Y-3627500D01*
X19460000Y-3477500D02*
X19460000Y-3677500D01*
X19560000Y-3677500D02*
G75*
G02*
X19460000Y-3677500I-50000J0D01*
G01*
X19560000Y-3677500D02*
X19560000Y-3477500D01*
X19560000Y-3477500D02*
G75*
G03*
X19460000Y-3477500I-50000J0D01*
G01*
X19980000Y-3327500D02*
X20030000Y-3277500D01*
X19980000Y-3227500D01*
X19930000Y-3277500D01*
X19980000Y-3327500D01*
X20080000Y-3227500D02*
X19880000Y-3227500D01*
X19880000Y-3327500D02*
G75*
G02*
X19880000Y-3227500I0J50000D01*
G01*
X19880000Y-3327500D02*
X20080000Y-3327500D01*
X20080000Y-3327500D02*
G75*
G03*
X20080000Y-3227500I0J50000D01*
G01*
X19980000Y-3927500D02*
X20030000Y-3877500D01*
X19980000Y-3827500D01*
X19930000Y-3877500D01*
X19980000Y-3927500D01*
X20080000Y-3827500D02*
X19880000Y-3827500D01*
X19880000Y-3927500D02*
G75*
G02*
X19880000Y-3827500I0J50000D01*
G01*
X19880000Y-3927500D02*
X20080000Y-3927500D01*
X20080000Y-3927500D02*
G75*
G03*
X20080000Y-3827500I0J50000D01*
G01*
X26090000Y-3550000D02*
X26140000Y-3500000D01*
X26090000Y-3450000D01*
X26040000Y-3500000D01*
X26090000Y-3550000D01*
X26480000Y-3627500D02*
X26530000Y-3577500D01*
X26480000Y-3527500D01*
X26430000Y-3577500D01*
X26480000Y-3627500D01*
X26430000Y-3477500D02*
X26430000Y-3677500D01*
X26530000Y-3677500D02*
G75*
G02*
X26430000Y-3677500I-50000J0D01*
G01*
X26530000Y-3677500D02*
X26530000Y-3477500D01*
X26530000Y-3477500D02*
G75*
G03*
X26430000Y-3477500I-50000J0D01*
G01*
X26950000Y-3327500D02*
X27000000Y-3277500D01*
X26950000Y-3227500D01*
X26900000Y-3277500D01*
X26950000Y-3327500D01*
X27050000Y-3227500D02*
X26850000Y-3227500D01*
X26850000Y-3327500D02*
G75*
G02*
X26850000Y-3227500I0J50000D01*
G01*
X26850000Y-3327500D02*
X27050000Y-3327500D01*
X27050000Y-3327500D02*
G75*
G03*
X27050000Y-3227500I0J50000D01*
G01*
X26950000Y-3927500D02*
X27000000Y-3877500D01*
X26950000Y-3827500D01*
X26900000Y-3877500D01*
X26950000Y-3927500D01*
X27050000Y-3827500D02*
X26850000Y-3827500D01*
X26850000Y-3927500D02*
G75*
G02*
X26850000Y-3827500I0J50000D01*
G01*
X26850000Y-3927500D02*
X27050000Y-3927500D01*
X27050000Y-3927500D02*
G75*
G03*
X27050000Y-3827500I0J50000D01*
G01*
D12*
X19317500Y-11557500D02*
X19502500Y-11742500D01*
X19502500Y-11557500D02*
X19317500Y-11742500D01*
X19502500Y-11650000D02*
G75*
G02*
X19317500Y-11650000I-92500J0D01*
G01*
X19317500Y-11650000D02*
G75*
G02*
X19502500Y-11650000I92500J0D01*
G01*
X19317500Y-11938500D02*
X19502500Y-12123500D01*
X19502500Y-11938500D02*
X19317500Y-12123500D01*
X19502500Y-12031000D02*
G75*
G02*
X19317500Y-12031000I-92500J0D01*
G01*
X19317500Y-12031000D02*
G75*
G02*
X19502500Y-12031000I92500J0D01*
G01*
X19317500Y-12319500D02*
X19502500Y-12504500D01*
X19502500Y-12319500D02*
X19317500Y-12504500D01*
X19502500Y-12412000D02*
G75*
G02*
X19317500Y-12412000I-92500J0D01*
G01*
X19317500Y-12412000D02*
G75*
G02*
X19502500Y-12412000I92500J0D01*
G01*
X19787500Y-11557500D02*
X19972500Y-11742500D01*
X19972500Y-11557500D02*
X19787500Y-11742500D01*
X19972500Y-11650000D02*
G75*
G02*
X19787500Y-11650000I-92500J0D01*
G01*
X19787500Y-11650000D02*
G75*
G02*
X19972500Y-11650000I92500J0D01*
G01*
X19787500Y-11938500D02*
X19972500Y-12123500D01*
X19972500Y-11938500D02*
X19787500Y-12123500D01*
X19972500Y-12031000D02*
G75*
G02*
X19787500Y-12031000I-92500J0D01*
G01*
X19787500Y-12031000D02*
G75*
G02*
X19972500Y-12031000I92500J0D01*
G01*
X19787500Y-12319500D02*
X19972500Y-12504500D01*
X19972500Y-12319500D02*
X19787500Y-12504500D01*
X19972500Y-12412000D02*
G75*
G02*
X19787500Y-12412000I-92500J0D01*
G01*
X19787500Y-12412000D02*
G75*
G02*
X19972500Y-12412000I92500J0D01*
G01*
X20257500Y-11557500D02*
X20442500Y-11742500D01*
X20442500Y-11557500D02*
X20257500Y-11742500D01*
X20442500Y-11650000D02*
G75*
G02*
X20257500Y-11650000I-92500J0D01*
G01*
X20257500Y-11650000D02*
G75*
G02*
X20442500Y-11650000I92500J0D01*
G01*
X20257500Y-11938500D02*
X20442500Y-12123500D01*
X20442500Y-11938500D02*
X20257500Y-12123500D01*
X20442500Y-12031000D02*
G75*
G02*
X20257500Y-12031000I-92500J0D01*
G01*
X20257500Y-12031000D02*
G75*
G02*
X20442500Y-12031000I92500J0D01*
G01*
X20257500Y-12319500D02*
X20442500Y-12504500D01*
X20442500Y-12319500D02*
X20257500Y-12504500D01*
X20442500Y-12412000D02*
G75*
G02*
X20257500Y-12412000I-92500J0D01*
G01*
X20257500Y-12412000D02*
G75*
G02*
X20442500Y-12412000I92500J0D01*
G01*
X26287500Y-11557500D02*
X26472500Y-11742500D01*
X26472500Y-11557500D02*
X26287500Y-11742500D01*
X26472500Y-11650000D02*
G75*
G02*
X26287500Y-11650000I-92500J0D01*
G01*
X26287500Y-11650000D02*
G75*
G02*
X26472500Y-11650000I92500J0D01*
G01*
X26287500Y-11938500D02*
X26472500Y-12123500D01*
X26472500Y-11938500D02*
X26287500Y-12123500D01*
X26472500Y-12031000D02*
G75*
G02*
X26287500Y-12031000I-92500J0D01*
G01*
X26287500Y-12031000D02*
G75*
G02*
X26472500Y-12031000I92500J0D01*
G01*
X26287500Y-12319500D02*
X26472500Y-12504500D01*
X26472500Y-12319500D02*
X26287500Y-12504500D01*
X26472500Y-12412000D02*
G75*
G02*
X26287500Y-12412000I-92500J0D01*
G01*
X26287500Y-12412000D02*
G75*
G02*
X26472500Y-12412000I92500J0D01*
G01*
X26757500Y-11557500D02*
X26942500Y-11742500D01*
X26942500Y-11557500D02*
X26757500Y-11742500D01*
X26942500Y-11650000D02*
G75*
G02*
X26757500Y-11650000I-92500J0D01*
G01*
X26757500Y-11650000D02*
G75*
G02*
X26942500Y-11650000I92500J0D01*
G01*
X26757500Y-11938500D02*
X26942500Y-12123500D01*
X26942500Y-11938500D02*
X26757500Y-12123500D01*
X26942500Y-12031000D02*
G75*
G02*
X26757500Y-12031000I-92500J0D01*
G01*
X26757500Y-12031000D02*
G75*
G02*
X26942500Y-12031000I92500J0D01*
G01*
X26757500Y-12319500D02*
X26942500Y-12504500D01*
X26942500Y-12319500D02*
X26757500Y-12504500D01*
X26942500Y-12412000D02*
G75*
G02*
X26757500Y-12412000I-92500J0D01*
G01*
X26757500Y-12412000D02*
G75*
G02*
X26942500Y-12412000I92500J0D01*
G01*
X27227500Y-11557500D02*
X27412500Y-11742500D01*
X27412500Y-11557500D02*
X27227500Y-11742500D01*
X27412500Y-11650000D02*
G75*
G02*
X27227500Y-11650000I-92500J0D01*
G01*
X27227500Y-11650000D02*
G75*
G02*
X27412500Y-11650000I92500J0D01*
G01*
X27227500Y-11938500D02*
X27412500Y-12123500D01*
X27412500Y-11938500D02*
X27227500Y-12123500D01*
X27412500Y-12031000D02*
G75*
G02*
X27227500Y-12031000I-92500J0D01*
G01*
X27227500Y-12031000D02*
G75*
G02*
X27412500Y-12031000I92500J0D01*
G01*
X27227500Y-12319500D02*
X27412500Y-12504500D01*
X27412500Y-12319500D02*
X27227500Y-12504500D01*
X27412500Y-12412000D02*
G75*
G02*
X27227500Y-12412000I-92500J0D01*
G01*
X27227500Y-12412000D02*
G75*
G02*
X27412500Y-12412000I92500J0D01*
G01*
D11*
X15335000Y-3790000D02*
X15535000Y-3990000D01*
X15535000Y-3790000D02*
X15335000Y-3990000D01*
X15435000Y-3790000D02*
X15435000Y-3990000D01*
X15335000Y-3890000D02*
X15535000Y-3890000D01*
X15335000Y-11025000D02*
X15535000Y-11225000D01*
X15535000Y-11025000D02*
X15335000Y-11225000D01*
X15435000Y-11025000D02*
X15435000Y-11225000D01*
X15335000Y-11125000D02*
X15535000Y-11125000D01*
X17245000Y-3790000D02*
X17445000Y-3990000D01*
X17445000Y-3790000D02*
X17245000Y-3990000D01*
X17345000Y-3790000D02*
X17345000Y-3990000D01*
X17245000Y-3890000D02*
X17445000Y-3890000D01*
X17245000Y-11025000D02*
X17445000Y-11225000D01*
X17445000Y-11025000D02*
X17245000Y-11225000D01*
X17345000Y-11025000D02*
X17345000Y-11225000D01*
X17245000Y-11125000D02*
X17445000Y-11125000D01*
X22305000Y-3790000D02*
X22505000Y-3990000D01*
X22505000Y-3790000D02*
X22305000Y-3990000D01*
X22405000Y-3790000D02*
X22405000Y-3990000D01*
X22305000Y-3890000D02*
X22505000Y-3890000D01*
X22305000Y-11025000D02*
X22505000Y-11225000D01*
X22505000Y-11025000D02*
X22305000Y-11225000D01*
X22405000Y-11025000D02*
X22405000Y-11225000D01*
X22305000Y-11125000D02*
X22505000Y-11125000D01*
X24215000Y-3790000D02*
X24415000Y-3990000D01*
X24415000Y-3790000D02*
X24215000Y-3990000D01*
X24315000Y-3790000D02*
X24315000Y-3990000D01*
X24215000Y-3890000D02*
X24415000Y-3890000D01*
X24215000Y-11025000D02*
X24415000Y-11225000D01*
X24415000Y-11025000D02*
X24215000Y-11225000D01*
X24315000Y-11025000D02*
X24315000Y-11225000D01*
X24215000Y-11125000D02*
X24415000Y-11125000D01*
X13785777Y-14796484D02*
X13785777Y-14596484D01*
X13785777Y-14596484D02*
X13833396Y-14596484D01*
X13833396Y-14596484D02*
X13861967Y-14606008D01*
X13861967Y-14606008D02*
X13881015Y-14625055D01*
X13881015Y-14625055D02*
X13890539Y-14644103D01*
X13890539Y-14644103D02*
X13900062Y-14682198D01*
X13900062Y-14682198D02*
X13900062Y-14710769D01*
X13900062Y-14710769D02*
X13890539Y-14748865D01*
X13890539Y-14748865D02*
X13881015Y-14767912D01*
X13881015Y-14767912D02*
X13861967Y-14786960D01*
X13861967Y-14786960D02*
X13833396Y-14796484D01*
X13833396Y-14796484D02*
X13785777Y-14796484D01*
X13985777Y-14796484D02*
X13985777Y-14663150D01*
X13985777Y-14701246D02*
X13995301Y-14682198D01*
X13995301Y-14682198D02*
X14004824Y-14672674D01*
X14004824Y-14672674D02*
X14023872Y-14663150D01*
X14023872Y-14663150D02*
X14042920Y-14663150D01*
X14109586Y-14796484D02*
X14109586Y-14663150D01*
X14109586Y-14596484D02*
X14100062Y-14606008D01*
X14100062Y-14606008D02*
X14109586Y-14615531D01*
X14109586Y-14615531D02*
X14119110Y-14606008D01*
X14119110Y-14606008D02*
X14109586Y-14596484D01*
X14109586Y-14596484D02*
X14109586Y-14615531D01*
X14233396Y-14796484D02*
X14214348Y-14786960D01*
X14214348Y-14786960D02*
X14204824Y-14767912D01*
X14204824Y-14767912D02*
X14204824Y-14596484D01*
X14338158Y-14796484D02*
X14319110Y-14786960D01*
X14319110Y-14786960D02*
X14309586Y-14767912D01*
X14309586Y-14767912D02*
X14309586Y-14596484D01*
X14566729Y-14796484D02*
X14566729Y-14596484D01*
X14566729Y-14596484D02*
X14633396Y-14739341D01*
X14633396Y-14739341D02*
X14700062Y-14596484D01*
X14700062Y-14596484D02*
X14700062Y-14796484D01*
X14881015Y-14796484D02*
X14881015Y-14691722D01*
X14881015Y-14691722D02*
X14871491Y-14672674D01*
X14871491Y-14672674D02*
X14852443Y-14663150D01*
X14852443Y-14663150D02*
X14814348Y-14663150D01*
X14814348Y-14663150D02*
X14795301Y-14672674D01*
X14881015Y-14786960D02*
X14861967Y-14796484D01*
X14861967Y-14796484D02*
X14814348Y-14796484D01*
X14814348Y-14796484D02*
X14795301Y-14786960D01*
X14795301Y-14786960D02*
X14785777Y-14767912D01*
X14785777Y-14767912D02*
X14785777Y-14748865D01*
X14785777Y-14748865D02*
X14795301Y-14729817D01*
X14795301Y-14729817D02*
X14814348Y-14720293D01*
X14814348Y-14720293D02*
X14861967Y-14720293D01*
X14861967Y-14720293D02*
X14881015Y-14710769D01*
X14976253Y-14663150D02*
X14976253Y-14863150D01*
X14976253Y-14672674D02*
X14995301Y-14663150D01*
X14995301Y-14663150D02*
X15033396Y-14663150D01*
X15033396Y-14663150D02*
X15052443Y-14672674D01*
X15052443Y-14672674D02*
X15061967Y-14682198D01*
X15061967Y-14682198D02*
X15071491Y-14701246D01*
X15071491Y-14701246D02*
X15071491Y-14758388D01*
X15071491Y-14758388D02*
X15061967Y-14777436D01*
X15061967Y-14777436D02*
X15052443Y-14786960D01*
X15052443Y-14786960D02*
X15033396Y-14796484D01*
X15033396Y-14796484D02*
X14995301Y-14796484D01*
X14995301Y-14796484D02*
X14976253Y-14786960D01*
X15157205Y-14777436D02*
X15166729Y-14786960D01*
X15166729Y-14786960D02*
X15157205Y-14796484D01*
X15157205Y-14796484D02*
X15147682Y-14786960D01*
X15147682Y-14786960D02*
X15157205Y-14777436D01*
X15157205Y-14777436D02*
X15157205Y-14796484D01*
X15157205Y-14672674D02*
X15166729Y-14682198D01*
X15166729Y-14682198D02*
X15157205Y-14691722D01*
X15157205Y-14691722D02*
X15147682Y-14682198D01*
X15147682Y-14682198D02*
X15157205Y-14672674D01*
X15157205Y-14672674D02*
X15157205Y-14691722D01*
D10*
X13495000Y-15110000D02*
X13525000Y-15140000D01*
X13525000Y-15110000D02*
X13495000Y-15140000D01*
D11*
X13823872Y-15016484D02*
X13842920Y-15016484D01*
X13842920Y-15016484D02*
X13861967Y-15026008D01*
X13861967Y-15026008D02*
X13871491Y-15035531D01*
X13871491Y-15035531D02*
X13881015Y-15054579D01*
X13881015Y-15054579D02*
X13890539Y-15092674D01*
X13890539Y-15092674D02*
X13890539Y-15140293D01*
X13890539Y-15140293D02*
X13881015Y-15178388D01*
X13881015Y-15178388D02*
X13871491Y-15197436D01*
X13871491Y-15197436D02*
X13861967Y-15206960D01*
X13861967Y-15206960D02*
X13842920Y-15216484D01*
X13842920Y-15216484D02*
X13823872Y-15216484D01*
X13823872Y-15216484D02*
X13804824Y-15206960D01*
X13804824Y-15206960D02*
X13795301Y-15197436D01*
X13795301Y-15197436D02*
X13785777Y-15178388D01*
X13785777Y-15178388D02*
X13776253Y-15140293D01*
X13776253Y-15140293D02*
X13776253Y-15092674D01*
X13776253Y-15092674D02*
X13785777Y-15054579D01*
X13785777Y-15054579D02*
X13795301Y-15035531D01*
X13795301Y-15035531D02*
X13804824Y-15026008D01*
X13804824Y-15026008D02*
X13823872Y-15016484D01*
X13976253Y-15197436D02*
X13985777Y-15206960D01*
X13985777Y-15206960D02*
X13976253Y-15216484D01*
X13976253Y-15216484D02*
X13966729Y-15206960D01*
X13966729Y-15206960D02*
X13976253Y-15197436D01*
X13976253Y-15197436D02*
X13976253Y-15216484D01*
X14052443Y-15016484D02*
X14176253Y-15016484D01*
X14176253Y-15016484D02*
X14109586Y-15092674D01*
X14109586Y-15092674D02*
X14138158Y-15092674D01*
X14138158Y-15092674D02*
X14157205Y-15102198D01*
X14157205Y-15102198D02*
X14166729Y-15111722D01*
X14166729Y-15111722D02*
X14176253Y-15130769D01*
X14176253Y-15130769D02*
X14176253Y-15178388D01*
X14176253Y-15178388D02*
X14166729Y-15197436D01*
X14166729Y-15197436D02*
X14157205Y-15206960D01*
X14157205Y-15206960D02*
X14138158Y-15216484D01*
X14138158Y-15216484D02*
X14081015Y-15216484D01*
X14081015Y-15216484D02*
X14061967Y-15206960D01*
X14061967Y-15206960D02*
X14052443Y-15197436D01*
X14300062Y-15016484D02*
X14319110Y-15016484D01*
X14319110Y-15016484D02*
X14338158Y-15026008D01*
X14338158Y-15026008D02*
X14347682Y-15035531D01*
X14347682Y-15035531D02*
X14357205Y-15054579D01*
X14357205Y-15054579D02*
X14366729Y-15092674D01*
X14366729Y-15092674D02*
X14366729Y-15140293D01*
X14366729Y-15140293D02*
X14357205Y-15178388D01*
X14357205Y-15178388D02*
X14347682Y-15197436D01*
X14347682Y-15197436D02*
X14338158Y-15206960D01*
X14338158Y-15206960D02*
X14319110Y-15216484D01*
X14319110Y-15216484D02*
X14300062Y-15216484D01*
X14300062Y-15216484D02*
X14281015Y-15206960D01*
X14281015Y-15206960D02*
X14271491Y-15197436D01*
X14271491Y-15197436D02*
X14261967Y-15178388D01*
X14261967Y-15178388D02*
X14252443Y-15140293D01*
X14252443Y-15140293D02*
X14252443Y-15092674D01*
X14252443Y-15092674D02*
X14261967Y-15054579D01*
X14261967Y-15054579D02*
X14271491Y-15035531D01*
X14271491Y-15035531D02*
X14281015Y-15026008D01*
X14281015Y-15026008D02*
X14300062Y-15016484D01*
X14490539Y-15016484D02*
X14509586Y-15016484D01*
X14509586Y-15016484D02*
X14528634Y-15026008D01*
X14528634Y-15026008D02*
X14538158Y-15035531D01*
X14538158Y-15035531D02*
X14547682Y-15054579D01*
X14547682Y-15054579D02*
X14557205Y-15092674D01*
X14557205Y-15092674D02*
X14557205Y-15140293D01*
X14557205Y-15140293D02*
X14547682Y-15178388D01*
X14547682Y-15178388D02*
X14538158Y-15197436D01*
X14538158Y-15197436D02*
X14528634Y-15206960D01*
X14528634Y-15206960D02*
X14509586Y-15216484D01*
X14509586Y-15216484D02*
X14490539Y-15216484D01*
X14490539Y-15216484D02*
X14471491Y-15206960D01*
X14471491Y-15206960D02*
X14461967Y-15197436D01*
X14461967Y-15197436D02*
X14452443Y-15178388D01*
X14452443Y-15178388D02*
X14442920Y-15140293D01*
X14442920Y-15140293D02*
X14442920Y-15092674D01*
X14442920Y-15092674D02*
X14452443Y-15054579D01*
X14452443Y-15054579D02*
X14461967Y-15035531D01*
X14461967Y-15035531D02*
X14471491Y-15026008D01*
X14471491Y-15026008D02*
X14490539Y-15016484D01*
X14642920Y-15216484D02*
X14642920Y-15083150D01*
X14642920Y-15102198D02*
X14652443Y-15092674D01*
X14652443Y-15092674D02*
X14671491Y-15083150D01*
X14671491Y-15083150D02*
X14700063Y-15083150D01*
X14700063Y-15083150D02*
X14719110Y-15092674D01*
X14719110Y-15092674D02*
X14728634Y-15111722D01*
X14728634Y-15111722D02*
X14728634Y-15216484D01*
X14728634Y-15111722D02*
X14738158Y-15092674D01*
X14738158Y-15092674D02*
X14757205Y-15083150D01*
X14757205Y-15083150D02*
X14785777Y-15083150D01*
X14785777Y-15083150D02*
X14804824Y-15092674D01*
X14804824Y-15092674D02*
X14814348Y-15111722D01*
X14814348Y-15111722D02*
X14814348Y-15216484D01*
X14909586Y-15216484D02*
X14909586Y-15083150D01*
X14909586Y-15102198D02*
X14919110Y-15092674D01*
X14919110Y-15092674D02*
X14938158Y-15083150D01*
X14938158Y-15083150D02*
X14966729Y-15083150D01*
X14966729Y-15083150D02*
X14985777Y-15092674D01*
X14985777Y-15092674D02*
X14995301Y-15111722D01*
X14995301Y-15111722D02*
X14995301Y-15216484D01*
X14995301Y-15111722D02*
X15004824Y-15092674D01*
X15004824Y-15092674D02*
X15023872Y-15083150D01*
X15023872Y-15083150D02*
X15052443Y-15083150D01*
X15052443Y-15083150D02*
X15071491Y-15092674D01*
X15071491Y-15092674D02*
X15081015Y-15111722D01*
X15081015Y-15111722D02*
X15081015Y-15216484D01*
X15471491Y-15006960D02*
X15300063Y-15264103D01*
X15728634Y-15016484D02*
X15747682Y-15016484D01*
X15747682Y-15016484D02*
X15766729Y-15026008D01*
X15766729Y-15026008D02*
X15776253Y-15035531D01*
X15776253Y-15035531D02*
X15785777Y-15054579D01*
X15785777Y-15054579D02*
X15795301Y-15092674D01*
X15795301Y-15092674D02*
X15795301Y-15140293D01*
X15795301Y-15140293D02*
X15785777Y-15178388D01*
X15785777Y-15178388D02*
X15776253Y-15197436D01*
X15776253Y-15197436D02*
X15766729Y-15206960D01*
X15766729Y-15206960D02*
X15747682Y-15216484D01*
X15747682Y-15216484D02*
X15728634Y-15216484D01*
X15728634Y-15216484D02*
X15709586Y-15206960D01*
X15709586Y-15206960D02*
X15700063Y-15197436D01*
X15700063Y-15197436D02*
X15690539Y-15178388D01*
X15690539Y-15178388D02*
X15681015Y-15140293D01*
X15681015Y-15140293D02*
X15681015Y-15092674D01*
X15681015Y-15092674D02*
X15690539Y-15054579D01*
X15690539Y-15054579D02*
X15700063Y-15035531D01*
X15700063Y-15035531D02*
X15709586Y-15026008D01*
X15709586Y-15026008D02*
X15728634Y-15016484D01*
X15881015Y-15197436D02*
X15890539Y-15206960D01*
X15890539Y-15206960D02*
X15881015Y-15216484D01*
X15881015Y-15216484D02*
X15871491Y-15206960D01*
X15871491Y-15206960D02*
X15881015Y-15197436D01*
X15881015Y-15197436D02*
X15881015Y-15216484D01*
X16014348Y-15016484D02*
X16033396Y-15016484D01*
X16033396Y-15016484D02*
X16052444Y-15026008D01*
X16052444Y-15026008D02*
X16061967Y-15035531D01*
X16061967Y-15035531D02*
X16071491Y-15054579D01*
X16071491Y-15054579D02*
X16081015Y-15092674D01*
X16081015Y-15092674D02*
X16081015Y-15140293D01*
X16081015Y-15140293D02*
X16071491Y-15178388D01*
X16071491Y-15178388D02*
X16061967Y-15197436D01*
X16061967Y-15197436D02*
X16052444Y-15206960D01*
X16052444Y-15206960D02*
X16033396Y-15216484D01*
X16033396Y-15216484D02*
X16014348Y-15216484D01*
X16014348Y-15216484D02*
X15995301Y-15206960D01*
X15995301Y-15206960D02*
X15985777Y-15197436D01*
X15985777Y-15197436D02*
X15976253Y-15178388D01*
X15976253Y-15178388D02*
X15966729Y-15140293D01*
X15966729Y-15140293D02*
X15966729Y-15092674D01*
X15966729Y-15092674D02*
X15976253Y-15054579D01*
X15976253Y-15054579D02*
X15985777Y-15035531D01*
X15985777Y-15035531D02*
X15995301Y-15026008D01*
X15995301Y-15026008D02*
X16014348Y-15016484D01*
X16271491Y-15216484D02*
X16157206Y-15216484D01*
X16214348Y-15216484D02*
X16214348Y-15016484D01*
X16214348Y-15016484D02*
X16195301Y-15045055D01*
X16195301Y-15045055D02*
X16176253Y-15064103D01*
X16176253Y-15064103D02*
X16157206Y-15073627D01*
X16461967Y-15216484D02*
X16347682Y-15216484D01*
X16404825Y-15216484D02*
X16404825Y-15016484D01*
X16404825Y-15016484D02*
X16385777Y-15045055D01*
X16385777Y-15045055D02*
X16366729Y-15064103D01*
X16366729Y-15064103D02*
X16347682Y-15073627D01*
X16576253Y-15102198D02*
X16557206Y-15092674D01*
X16557206Y-15092674D02*
X16547682Y-15083150D01*
X16547682Y-15083150D02*
X16538158Y-15064103D01*
X16538158Y-15064103D02*
X16538158Y-15054579D01*
X16538158Y-15054579D02*
X16547682Y-15035531D01*
X16547682Y-15035531D02*
X16557206Y-15026008D01*
X16557206Y-15026008D02*
X16576253Y-15016484D01*
X16576253Y-15016484D02*
X16614348Y-15016484D01*
X16614348Y-15016484D02*
X16633396Y-15026008D01*
X16633396Y-15026008D02*
X16642920Y-15035531D01*
X16642920Y-15035531D02*
X16652444Y-15054579D01*
X16652444Y-15054579D02*
X16652444Y-15064103D01*
X16652444Y-15064103D02*
X16642920Y-15083150D01*
X16642920Y-15083150D02*
X16633396Y-15092674D01*
X16633396Y-15092674D02*
X16614348Y-15102198D01*
X16614348Y-15102198D02*
X16576253Y-15102198D01*
X16576253Y-15102198D02*
X16557206Y-15111722D01*
X16557206Y-15111722D02*
X16547682Y-15121246D01*
X16547682Y-15121246D02*
X16538158Y-15140293D01*
X16538158Y-15140293D02*
X16538158Y-15178388D01*
X16538158Y-15178388D02*
X16547682Y-15197436D01*
X16547682Y-15197436D02*
X16557206Y-15206960D01*
X16557206Y-15206960D02*
X16576253Y-15216484D01*
X16576253Y-15216484D02*
X16614348Y-15216484D01*
X16614348Y-15216484D02*
X16633396Y-15206960D01*
X16633396Y-15206960D02*
X16642920Y-15197436D01*
X16642920Y-15197436D02*
X16652444Y-15178388D01*
X16652444Y-15178388D02*
X16652444Y-15140293D01*
X16652444Y-15140293D02*
X16642920Y-15121246D01*
X16642920Y-15121246D02*
X16633396Y-15111722D01*
X16633396Y-15111722D02*
X16614348Y-15102198D01*
X16728634Y-15016484D02*
X16728634Y-15054579D01*
X16804825Y-15016484D02*
X16804825Y-15054579D01*
X17100063Y-15292674D02*
X17090539Y-15283150D01*
X17090539Y-15283150D02*
X17071491Y-15254579D01*
X17071491Y-15254579D02*
X17061968Y-15235531D01*
X17061968Y-15235531D02*
X17052444Y-15206960D01*
X17052444Y-15206960D02*
X17042920Y-15159341D01*
X17042920Y-15159341D02*
X17042920Y-15121246D01*
X17042920Y-15121246D02*
X17052444Y-15073627D01*
X17052444Y-15073627D02*
X17061968Y-15045055D01*
X17061968Y-15045055D02*
X17071491Y-15026008D01*
X17071491Y-15026008D02*
X17090539Y-14997436D01*
X17090539Y-14997436D02*
X17100063Y-14987912D01*
X17261968Y-15016484D02*
X17223872Y-15016484D01*
X17223872Y-15016484D02*
X17204825Y-15026008D01*
X17204825Y-15026008D02*
X17195301Y-15035531D01*
X17195301Y-15035531D02*
X17176253Y-15064103D01*
X17176253Y-15064103D02*
X17166730Y-15102198D01*
X17166730Y-15102198D02*
X17166730Y-15178388D01*
X17166730Y-15178388D02*
X17176253Y-15197436D01*
X17176253Y-15197436D02*
X17185777Y-15206960D01*
X17185777Y-15206960D02*
X17204825Y-15216484D01*
X17204825Y-15216484D02*
X17242920Y-15216484D01*
X17242920Y-15216484D02*
X17261968Y-15206960D01*
X17261968Y-15206960D02*
X17271491Y-15197436D01*
X17271491Y-15197436D02*
X17281015Y-15178388D01*
X17281015Y-15178388D02*
X17281015Y-15130769D01*
X17281015Y-15130769D02*
X17271491Y-15111722D01*
X17271491Y-15111722D02*
X17261968Y-15102198D01*
X17261968Y-15102198D02*
X17242920Y-15092674D01*
X17242920Y-15092674D02*
X17204825Y-15092674D01*
X17204825Y-15092674D02*
X17185777Y-15102198D01*
X17185777Y-15102198D02*
X17176253Y-15111722D01*
X17176253Y-15111722D02*
X17166730Y-15130769D01*
X17357206Y-15035531D02*
X17366730Y-15026008D01*
X17366730Y-15026008D02*
X17385777Y-15016484D01*
X17385777Y-15016484D02*
X17433396Y-15016484D01*
X17433396Y-15016484D02*
X17452444Y-15026008D01*
X17452444Y-15026008D02*
X17461968Y-15035531D01*
X17461968Y-15035531D02*
X17471491Y-15054579D01*
X17471491Y-15054579D02*
X17471491Y-15073627D01*
X17471491Y-15073627D02*
X17461968Y-15102198D01*
X17461968Y-15102198D02*
X17347682Y-15216484D01*
X17347682Y-15216484D02*
X17471491Y-15216484D01*
X17642920Y-15083150D02*
X17642920Y-15216484D01*
X17595301Y-15006960D02*
X17547682Y-15149817D01*
X17547682Y-15149817D02*
X17671491Y-15149817D01*
X17900063Y-15216484D02*
X17900063Y-15016484D01*
X17985777Y-15216484D02*
X17985777Y-15111722D01*
X17985777Y-15111722D02*
X17976253Y-15092674D01*
X17976253Y-15092674D02*
X17957206Y-15083150D01*
X17957206Y-15083150D02*
X17928634Y-15083150D01*
X17928634Y-15083150D02*
X17909587Y-15092674D01*
X17909587Y-15092674D02*
X17900063Y-15102198D01*
X18109587Y-15216484D02*
X18090539Y-15206960D01*
X18090539Y-15206960D02*
X18081015Y-15197436D01*
X18081015Y-15197436D02*
X18071492Y-15178388D01*
X18071492Y-15178388D02*
X18071492Y-15121246D01*
X18071492Y-15121246D02*
X18081015Y-15102198D01*
X18081015Y-15102198D02*
X18090539Y-15092674D01*
X18090539Y-15092674D02*
X18109587Y-15083150D01*
X18109587Y-15083150D02*
X18138158Y-15083150D01*
X18138158Y-15083150D02*
X18157206Y-15092674D01*
X18157206Y-15092674D02*
X18166730Y-15102198D01*
X18166730Y-15102198D02*
X18176253Y-15121246D01*
X18176253Y-15121246D02*
X18176253Y-15178388D01*
X18176253Y-15178388D02*
X18166730Y-15197436D01*
X18166730Y-15197436D02*
X18157206Y-15206960D01*
X18157206Y-15206960D02*
X18138158Y-15216484D01*
X18138158Y-15216484D02*
X18109587Y-15216484D01*
X18290539Y-15216484D02*
X18271492Y-15206960D01*
X18271492Y-15206960D02*
X18261968Y-15187912D01*
X18261968Y-15187912D02*
X18261968Y-15016484D01*
X18442920Y-15206960D02*
X18423873Y-15216484D01*
X18423873Y-15216484D02*
X18385777Y-15216484D01*
X18385777Y-15216484D02*
X18366730Y-15206960D01*
X18366730Y-15206960D02*
X18357206Y-15187912D01*
X18357206Y-15187912D02*
X18357206Y-15111722D01*
X18357206Y-15111722D02*
X18366730Y-15092674D01*
X18366730Y-15092674D02*
X18385777Y-15083150D01*
X18385777Y-15083150D02*
X18423873Y-15083150D01*
X18423873Y-15083150D02*
X18442920Y-15092674D01*
X18442920Y-15092674D02*
X18452444Y-15111722D01*
X18452444Y-15111722D02*
X18452444Y-15130769D01*
X18452444Y-15130769D02*
X18357206Y-15149817D01*
X18528634Y-15206960D02*
X18547682Y-15216484D01*
X18547682Y-15216484D02*
X18585777Y-15216484D01*
X18585777Y-15216484D02*
X18604825Y-15206960D01*
X18604825Y-15206960D02*
X18614349Y-15187912D01*
X18614349Y-15187912D02*
X18614349Y-15178388D01*
X18614349Y-15178388D02*
X18604825Y-15159341D01*
X18604825Y-15159341D02*
X18585777Y-15149817D01*
X18585777Y-15149817D02*
X18557206Y-15149817D01*
X18557206Y-15149817D02*
X18538158Y-15140293D01*
X18538158Y-15140293D02*
X18528634Y-15121246D01*
X18528634Y-15121246D02*
X18528634Y-15111722D01*
X18528634Y-15111722D02*
X18538158Y-15092674D01*
X18538158Y-15092674D02*
X18557206Y-15083150D01*
X18557206Y-15083150D02*
X18585777Y-15083150D01*
X18585777Y-15083150D02*
X18604825Y-15092674D01*
X18681015Y-15292674D02*
X18690539Y-15283150D01*
X18690539Y-15283150D02*
X18709587Y-15254579D01*
X18709587Y-15254579D02*
X18719111Y-15235531D01*
X18719111Y-15235531D02*
X18728634Y-15206960D01*
X18728634Y-15206960D02*
X18738158Y-15159341D01*
X18738158Y-15159341D02*
X18738158Y-15121246D01*
X18738158Y-15121246D02*
X18728634Y-15073627D01*
X18728634Y-15073627D02*
X18719111Y-15045055D01*
X18719111Y-15045055D02*
X18709587Y-15026008D01*
X18709587Y-15026008D02*
X18690539Y-14997436D01*
X18690539Y-14997436D02*
X18681015Y-14987912D01*
D10*
X13525000Y-15389000D02*
G75*
G02*
X13465000Y-15389000I-30000J0D01*
G01*
X13465000Y-15389000D02*
G75*
G02*
X13525000Y-15389000I30000J0D01*
G01*
D11*
X13823872Y-15280484D02*
X13842920Y-15280484D01*
X13842920Y-15280484D02*
X13861967Y-15290008D01*
X13861967Y-15290008D02*
X13871491Y-15299531D01*
X13871491Y-15299531D02*
X13881015Y-15318579D01*
X13881015Y-15318579D02*
X13890539Y-15356674D01*
X13890539Y-15356674D02*
X13890539Y-15404293D01*
X13890539Y-15404293D02*
X13881015Y-15442388D01*
X13881015Y-15442388D02*
X13871491Y-15461436D01*
X13871491Y-15461436D02*
X13861967Y-15470960D01*
X13861967Y-15470960D02*
X13842920Y-15480484D01*
X13842920Y-15480484D02*
X13823872Y-15480484D01*
X13823872Y-15480484D02*
X13804824Y-15470960D01*
X13804824Y-15470960D02*
X13795301Y-15461436D01*
X13795301Y-15461436D02*
X13785777Y-15442388D01*
X13785777Y-15442388D02*
X13776253Y-15404293D01*
X13776253Y-15404293D02*
X13776253Y-15356674D01*
X13776253Y-15356674D02*
X13785777Y-15318579D01*
X13785777Y-15318579D02*
X13795301Y-15299531D01*
X13795301Y-15299531D02*
X13804824Y-15290008D01*
X13804824Y-15290008D02*
X13823872Y-15280484D01*
X13976253Y-15461436D02*
X13985777Y-15470960D01*
X13985777Y-15470960D02*
X13976253Y-15480484D01*
X13976253Y-15480484D02*
X13966729Y-15470960D01*
X13966729Y-15470960D02*
X13976253Y-15461436D01*
X13976253Y-15461436D02*
X13976253Y-15480484D01*
X14157205Y-15280484D02*
X14119110Y-15280484D01*
X14119110Y-15280484D02*
X14100062Y-15290008D01*
X14100062Y-15290008D02*
X14090539Y-15299531D01*
X14090539Y-15299531D02*
X14071491Y-15328103D01*
X14071491Y-15328103D02*
X14061967Y-15366198D01*
X14061967Y-15366198D02*
X14061967Y-15442388D01*
X14061967Y-15442388D02*
X14071491Y-15461436D01*
X14071491Y-15461436D02*
X14081015Y-15470960D01*
X14081015Y-15470960D02*
X14100062Y-15480484D01*
X14100062Y-15480484D02*
X14138158Y-15480484D01*
X14138158Y-15480484D02*
X14157205Y-15470960D01*
X14157205Y-15470960D02*
X14166729Y-15461436D01*
X14166729Y-15461436D02*
X14176253Y-15442388D01*
X14176253Y-15442388D02*
X14176253Y-15394769D01*
X14176253Y-15394769D02*
X14166729Y-15375722D01*
X14166729Y-15375722D02*
X14157205Y-15366198D01*
X14157205Y-15366198D02*
X14138158Y-15356674D01*
X14138158Y-15356674D02*
X14100062Y-15356674D01*
X14100062Y-15356674D02*
X14081015Y-15366198D01*
X14081015Y-15366198D02*
X14071491Y-15375722D01*
X14071491Y-15375722D02*
X14061967Y-15394769D01*
X14300062Y-15280484D02*
X14319110Y-15280484D01*
X14319110Y-15280484D02*
X14338158Y-15290008D01*
X14338158Y-15290008D02*
X14347682Y-15299531D01*
X14347682Y-15299531D02*
X14357205Y-15318579D01*
X14357205Y-15318579D02*
X14366729Y-15356674D01*
X14366729Y-15356674D02*
X14366729Y-15404293D01*
X14366729Y-15404293D02*
X14357205Y-15442388D01*
X14357205Y-15442388D02*
X14347682Y-15461436D01*
X14347682Y-15461436D02*
X14338158Y-15470960D01*
X14338158Y-15470960D02*
X14319110Y-15480484D01*
X14319110Y-15480484D02*
X14300062Y-15480484D01*
X14300062Y-15480484D02*
X14281015Y-15470960D01*
X14281015Y-15470960D02*
X14271491Y-15461436D01*
X14271491Y-15461436D02*
X14261967Y-15442388D01*
X14261967Y-15442388D02*
X14252443Y-15404293D01*
X14252443Y-15404293D02*
X14252443Y-15356674D01*
X14252443Y-15356674D02*
X14261967Y-15318579D01*
X14261967Y-15318579D02*
X14271491Y-15299531D01*
X14271491Y-15299531D02*
X14281015Y-15290008D01*
X14281015Y-15290008D02*
X14300062Y-15280484D01*
X14490539Y-15280484D02*
X14509586Y-15280484D01*
X14509586Y-15280484D02*
X14528634Y-15290008D01*
X14528634Y-15290008D02*
X14538158Y-15299531D01*
X14538158Y-15299531D02*
X14547682Y-15318579D01*
X14547682Y-15318579D02*
X14557205Y-15356674D01*
X14557205Y-15356674D02*
X14557205Y-15404293D01*
X14557205Y-15404293D02*
X14547682Y-15442388D01*
X14547682Y-15442388D02*
X14538158Y-15461436D01*
X14538158Y-15461436D02*
X14528634Y-15470960D01*
X14528634Y-15470960D02*
X14509586Y-15480484D01*
X14509586Y-15480484D02*
X14490539Y-15480484D01*
X14490539Y-15480484D02*
X14471491Y-15470960D01*
X14471491Y-15470960D02*
X14461967Y-15461436D01*
X14461967Y-15461436D02*
X14452443Y-15442388D01*
X14452443Y-15442388D02*
X14442920Y-15404293D01*
X14442920Y-15404293D02*
X14442920Y-15356674D01*
X14442920Y-15356674D02*
X14452443Y-15318579D01*
X14452443Y-15318579D02*
X14461967Y-15299531D01*
X14461967Y-15299531D02*
X14471491Y-15290008D01*
X14471491Y-15290008D02*
X14490539Y-15280484D01*
X14642920Y-15480484D02*
X14642920Y-15347150D01*
X14642920Y-15366198D02*
X14652443Y-15356674D01*
X14652443Y-15356674D02*
X14671491Y-15347150D01*
X14671491Y-15347150D02*
X14700063Y-15347150D01*
X14700063Y-15347150D02*
X14719110Y-15356674D01*
X14719110Y-15356674D02*
X14728634Y-15375722D01*
X14728634Y-15375722D02*
X14728634Y-15480484D01*
X14728634Y-15375722D02*
X14738158Y-15356674D01*
X14738158Y-15356674D02*
X14757205Y-15347150D01*
X14757205Y-15347150D02*
X14785777Y-15347150D01*
X14785777Y-15347150D02*
X14804824Y-15356674D01*
X14804824Y-15356674D02*
X14814348Y-15375722D01*
X14814348Y-15375722D02*
X14814348Y-15480484D01*
X14909586Y-15480484D02*
X14909586Y-15347150D01*
X14909586Y-15366198D02*
X14919110Y-15356674D01*
X14919110Y-15356674D02*
X14938158Y-15347150D01*
X14938158Y-15347150D02*
X14966729Y-15347150D01*
X14966729Y-15347150D02*
X14985777Y-15356674D01*
X14985777Y-15356674D02*
X14995301Y-15375722D01*
X14995301Y-15375722D02*
X14995301Y-15480484D01*
X14995301Y-15375722D02*
X15004824Y-15356674D01*
X15004824Y-15356674D02*
X15023872Y-15347150D01*
X15023872Y-15347150D02*
X15052443Y-15347150D01*
X15052443Y-15347150D02*
X15071491Y-15356674D01*
X15071491Y-15356674D02*
X15081015Y-15375722D01*
X15081015Y-15375722D02*
X15081015Y-15480484D01*
X15471491Y-15270960D02*
X15300063Y-15528103D01*
X15728634Y-15280484D02*
X15747682Y-15280484D01*
X15747682Y-15280484D02*
X15766729Y-15290008D01*
X15766729Y-15290008D02*
X15776253Y-15299531D01*
X15776253Y-15299531D02*
X15785777Y-15318579D01*
X15785777Y-15318579D02*
X15795301Y-15356674D01*
X15795301Y-15356674D02*
X15795301Y-15404293D01*
X15795301Y-15404293D02*
X15785777Y-15442388D01*
X15785777Y-15442388D02*
X15776253Y-15461436D01*
X15776253Y-15461436D02*
X15766729Y-15470960D01*
X15766729Y-15470960D02*
X15747682Y-15480484D01*
X15747682Y-15480484D02*
X15728634Y-15480484D01*
X15728634Y-15480484D02*
X15709586Y-15470960D01*
X15709586Y-15470960D02*
X15700063Y-15461436D01*
X15700063Y-15461436D02*
X15690539Y-15442388D01*
X15690539Y-15442388D02*
X15681015Y-15404293D01*
X15681015Y-15404293D02*
X15681015Y-15356674D01*
X15681015Y-15356674D02*
X15690539Y-15318579D01*
X15690539Y-15318579D02*
X15700063Y-15299531D01*
X15700063Y-15299531D02*
X15709586Y-15290008D01*
X15709586Y-15290008D02*
X15728634Y-15280484D01*
X15881015Y-15461436D02*
X15890539Y-15470960D01*
X15890539Y-15470960D02*
X15881015Y-15480484D01*
X15881015Y-15480484D02*
X15871491Y-15470960D01*
X15871491Y-15470960D02*
X15881015Y-15461436D01*
X15881015Y-15461436D02*
X15881015Y-15480484D01*
X16014348Y-15280484D02*
X16033396Y-15280484D01*
X16033396Y-15280484D02*
X16052444Y-15290008D01*
X16052444Y-15290008D02*
X16061967Y-15299531D01*
X16061967Y-15299531D02*
X16071491Y-15318579D01*
X16071491Y-15318579D02*
X16081015Y-15356674D01*
X16081015Y-15356674D02*
X16081015Y-15404293D01*
X16081015Y-15404293D02*
X16071491Y-15442388D01*
X16071491Y-15442388D02*
X16061967Y-15461436D01*
X16061967Y-15461436D02*
X16052444Y-15470960D01*
X16052444Y-15470960D02*
X16033396Y-15480484D01*
X16033396Y-15480484D02*
X16014348Y-15480484D01*
X16014348Y-15480484D02*
X15995301Y-15470960D01*
X15995301Y-15470960D02*
X15985777Y-15461436D01*
X15985777Y-15461436D02*
X15976253Y-15442388D01*
X15976253Y-15442388D02*
X15966729Y-15404293D01*
X15966729Y-15404293D02*
X15966729Y-15356674D01*
X15966729Y-15356674D02*
X15976253Y-15318579D01*
X15976253Y-15318579D02*
X15985777Y-15299531D01*
X15985777Y-15299531D02*
X15995301Y-15290008D01*
X15995301Y-15290008D02*
X16014348Y-15280484D01*
X16157206Y-15299531D02*
X16166729Y-15290008D01*
X16166729Y-15290008D02*
X16185777Y-15280484D01*
X16185777Y-15280484D02*
X16233396Y-15280484D01*
X16233396Y-15280484D02*
X16252444Y-15290008D01*
X16252444Y-15290008D02*
X16261967Y-15299531D01*
X16261967Y-15299531D02*
X16271491Y-15318579D01*
X16271491Y-15318579D02*
X16271491Y-15337627D01*
X16271491Y-15337627D02*
X16261967Y-15366198D01*
X16261967Y-15366198D02*
X16147682Y-15480484D01*
X16147682Y-15480484D02*
X16271491Y-15480484D01*
X16338158Y-15280484D02*
X16461967Y-15280484D01*
X16461967Y-15280484D02*
X16395301Y-15356674D01*
X16395301Y-15356674D02*
X16423872Y-15356674D01*
X16423872Y-15356674D02*
X16442920Y-15366198D01*
X16442920Y-15366198D02*
X16452444Y-15375722D01*
X16452444Y-15375722D02*
X16461967Y-15394769D01*
X16461967Y-15394769D02*
X16461967Y-15442388D01*
X16461967Y-15442388D02*
X16452444Y-15461436D01*
X16452444Y-15461436D02*
X16442920Y-15470960D01*
X16442920Y-15470960D02*
X16423872Y-15480484D01*
X16423872Y-15480484D02*
X16366729Y-15480484D01*
X16366729Y-15480484D02*
X16347682Y-15470960D01*
X16347682Y-15470960D02*
X16338158Y-15461436D01*
X16633396Y-15280484D02*
X16595301Y-15280484D01*
X16595301Y-15280484D02*
X16576253Y-15290008D01*
X16576253Y-15290008D02*
X16566729Y-15299531D01*
X16566729Y-15299531D02*
X16547682Y-15328103D01*
X16547682Y-15328103D02*
X16538158Y-15366198D01*
X16538158Y-15366198D02*
X16538158Y-15442388D01*
X16538158Y-15442388D02*
X16547682Y-15461436D01*
X16547682Y-15461436D02*
X16557206Y-15470960D01*
X16557206Y-15470960D02*
X16576253Y-15480484D01*
X16576253Y-15480484D02*
X16614348Y-15480484D01*
X16614348Y-15480484D02*
X16633396Y-15470960D01*
X16633396Y-15470960D02*
X16642920Y-15461436D01*
X16642920Y-15461436D02*
X16652444Y-15442388D01*
X16652444Y-15442388D02*
X16652444Y-15394769D01*
X16652444Y-15394769D02*
X16642920Y-15375722D01*
X16642920Y-15375722D02*
X16633396Y-15366198D01*
X16633396Y-15366198D02*
X16614348Y-15356674D01*
X16614348Y-15356674D02*
X16576253Y-15356674D01*
X16576253Y-15356674D02*
X16557206Y-15366198D01*
X16557206Y-15366198D02*
X16547682Y-15375722D01*
X16547682Y-15375722D02*
X16538158Y-15394769D01*
X16728634Y-15280484D02*
X16728634Y-15318579D01*
X16804825Y-15280484D02*
X16804825Y-15318579D01*
X17100063Y-15556674D02*
X17090539Y-15547150D01*
X17090539Y-15547150D02*
X17071491Y-15518579D01*
X17071491Y-15518579D02*
X17061968Y-15499531D01*
X17061968Y-15499531D02*
X17052444Y-15470960D01*
X17052444Y-15470960D02*
X17042920Y-15423341D01*
X17042920Y-15423341D02*
X17042920Y-15385246D01*
X17042920Y-15385246D02*
X17052444Y-15337627D01*
X17052444Y-15337627D02*
X17061968Y-15309055D01*
X17061968Y-15309055D02*
X17071491Y-15290008D01*
X17071491Y-15290008D02*
X17090539Y-15261436D01*
X17090539Y-15261436D02*
X17100063Y-15251912D01*
X17214349Y-15280484D02*
X17233396Y-15280484D01*
X17233396Y-15280484D02*
X17252444Y-15290008D01*
X17252444Y-15290008D02*
X17261968Y-15299531D01*
X17261968Y-15299531D02*
X17271491Y-15318579D01*
X17271491Y-15318579D02*
X17281015Y-15356674D01*
X17281015Y-15356674D02*
X17281015Y-15404293D01*
X17281015Y-15404293D02*
X17271491Y-15442388D01*
X17271491Y-15442388D02*
X17261968Y-15461436D01*
X17261968Y-15461436D02*
X17252444Y-15470960D01*
X17252444Y-15470960D02*
X17233396Y-15480484D01*
X17233396Y-15480484D02*
X17214349Y-15480484D01*
X17214349Y-15480484D02*
X17195301Y-15470960D01*
X17195301Y-15470960D02*
X17185777Y-15461436D01*
X17185777Y-15461436D02*
X17176253Y-15442388D01*
X17176253Y-15442388D02*
X17166730Y-15404293D01*
X17166730Y-15404293D02*
X17166730Y-15356674D01*
X17166730Y-15356674D02*
X17176253Y-15318579D01*
X17176253Y-15318579D02*
X17185777Y-15299531D01*
X17185777Y-15299531D02*
X17195301Y-15290008D01*
X17195301Y-15290008D02*
X17214349Y-15280484D01*
X17519111Y-15480484D02*
X17519111Y-15280484D01*
X17604825Y-15480484D02*
X17604825Y-15375722D01*
X17604825Y-15375722D02*
X17595301Y-15356674D01*
X17595301Y-15356674D02*
X17576253Y-15347150D01*
X17576253Y-15347150D02*
X17547682Y-15347150D01*
X17547682Y-15347150D02*
X17528634Y-15356674D01*
X17528634Y-15356674D02*
X17519111Y-15366198D01*
X17728634Y-15480484D02*
X17709587Y-15470960D01*
X17709587Y-15470960D02*
X17700063Y-15461436D01*
X17700063Y-15461436D02*
X17690539Y-15442388D01*
X17690539Y-15442388D02*
X17690539Y-15385246D01*
X17690539Y-15385246D02*
X17700063Y-15366198D01*
X17700063Y-15366198D02*
X17709587Y-15356674D01*
X17709587Y-15356674D02*
X17728634Y-15347150D01*
X17728634Y-15347150D02*
X17757206Y-15347150D01*
X17757206Y-15347150D02*
X17776253Y-15356674D01*
X17776253Y-15356674D02*
X17785777Y-15366198D01*
X17785777Y-15366198D02*
X17795301Y-15385246D01*
X17795301Y-15385246D02*
X17795301Y-15442388D01*
X17795301Y-15442388D02*
X17785777Y-15461436D01*
X17785777Y-15461436D02*
X17776253Y-15470960D01*
X17776253Y-15470960D02*
X17757206Y-15480484D01*
X17757206Y-15480484D02*
X17728634Y-15480484D01*
X17909587Y-15480484D02*
X17890539Y-15470960D01*
X17890539Y-15470960D02*
X17881015Y-15451912D01*
X17881015Y-15451912D02*
X17881015Y-15280484D01*
X18061968Y-15470960D02*
X18042920Y-15480484D01*
X18042920Y-15480484D02*
X18004825Y-15480484D01*
X18004825Y-15480484D02*
X17985777Y-15470960D01*
X17985777Y-15470960D02*
X17976253Y-15451912D01*
X17976253Y-15451912D02*
X17976253Y-15375722D01*
X17976253Y-15375722D02*
X17985777Y-15356674D01*
X17985777Y-15356674D02*
X18004825Y-15347150D01*
X18004825Y-15347150D02*
X18042920Y-15347150D01*
X18042920Y-15347150D02*
X18061968Y-15356674D01*
X18061968Y-15356674D02*
X18071492Y-15375722D01*
X18071492Y-15375722D02*
X18071492Y-15394769D01*
X18071492Y-15394769D02*
X17976253Y-15413817D01*
X18147682Y-15470960D02*
X18166730Y-15480484D01*
X18166730Y-15480484D02*
X18204825Y-15480484D01*
X18204825Y-15480484D02*
X18223873Y-15470960D01*
X18223873Y-15470960D02*
X18233396Y-15451912D01*
X18233396Y-15451912D02*
X18233396Y-15442388D01*
X18233396Y-15442388D02*
X18223873Y-15423341D01*
X18223873Y-15423341D02*
X18204825Y-15413817D01*
X18204825Y-15413817D02*
X18176253Y-15413817D01*
X18176253Y-15413817D02*
X18157206Y-15404293D01*
X18157206Y-15404293D02*
X18147682Y-15385246D01*
X18147682Y-15385246D02*
X18147682Y-15375722D01*
X18147682Y-15375722D02*
X18157206Y-15356674D01*
X18157206Y-15356674D02*
X18176253Y-15347150D01*
X18176253Y-15347150D02*
X18204825Y-15347150D01*
X18204825Y-15347150D02*
X18223873Y-15356674D01*
X18471492Y-15404293D02*
X18623873Y-15404293D01*
X18547682Y-15480484D02*
X18547682Y-15328103D01*
X18900063Y-15366198D02*
X18881015Y-15356674D01*
X18881015Y-15356674D02*
X18871492Y-15347150D01*
X18871492Y-15347150D02*
X18861968Y-15328103D01*
X18861968Y-15328103D02*
X18861968Y-15318579D01*
X18861968Y-15318579D02*
X18871492Y-15299531D01*
X18871492Y-15299531D02*
X18881015Y-15290008D01*
X18881015Y-15290008D02*
X18900063Y-15280484D01*
X18900063Y-15280484D02*
X18938158Y-15280484D01*
X18938158Y-15280484D02*
X18957206Y-15290008D01*
X18957206Y-15290008D02*
X18966730Y-15299531D01*
X18966730Y-15299531D02*
X18976254Y-15318579D01*
X18976254Y-15318579D02*
X18976254Y-15328103D01*
X18976254Y-15328103D02*
X18966730Y-15347150D01*
X18966730Y-15347150D02*
X18957206Y-15356674D01*
X18957206Y-15356674D02*
X18938158Y-15366198D01*
X18938158Y-15366198D02*
X18900063Y-15366198D01*
X18900063Y-15366198D02*
X18881015Y-15375722D01*
X18881015Y-15375722D02*
X18871492Y-15385246D01*
X18871492Y-15385246D02*
X18861968Y-15404293D01*
X18861968Y-15404293D02*
X18861968Y-15442388D01*
X18861968Y-15442388D02*
X18871492Y-15461436D01*
X18871492Y-15461436D02*
X18881015Y-15470960D01*
X18881015Y-15470960D02*
X18900063Y-15480484D01*
X18900063Y-15480484D02*
X18938158Y-15480484D01*
X18938158Y-15480484D02*
X18957206Y-15470960D01*
X18957206Y-15470960D02*
X18966730Y-15461436D01*
X18966730Y-15461436D02*
X18976254Y-15442388D01*
X18976254Y-15442388D02*
X18976254Y-15404293D01*
X18976254Y-15404293D02*
X18966730Y-15385246D01*
X18966730Y-15385246D02*
X18957206Y-15375722D01*
X18957206Y-15375722D02*
X18938158Y-15366198D01*
X19204825Y-15470960D02*
X19223873Y-15480484D01*
X19223873Y-15480484D02*
X19261968Y-15480484D01*
X19261968Y-15480484D02*
X19281016Y-15470960D01*
X19281016Y-15470960D02*
X19290539Y-15451912D01*
X19290539Y-15451912D02*
X19290539Y-15442388D01*
X19290539Y-15442388D02*
X19281016Y-15423341D01*
X19281016Y-15423341D02*
X19261968Y-15413817D01*
X19261968Y-15413817D02*
X19233396Y-15413817D01*
X19233396Y-15413817D02*
X19214349Y-15404293D01*
X19214349Y-15404293D02*
X19204825Y-15385246D01*
X19204825Y-15385246D02*
X19204825Y-15375722D01*
X19204825Y-15375722D02*
X19214349Y-15356674D01*
X19214349Y-15356674D02*
X19233396Y-15347150D01*
X19233396Y-15347150D02*
X19261968Y-15347150D01*
X19261968Y-15347150D02*
X19281016Y-15356674D01*
X19404825Y-15480484D02*
X19385777Y-15470960D01*
X19385777Y-15470960D02*
X19376254Y-15451912D01*
X19376254Y-15451912D02*
X19376254Y-15280484D01*
X19509587Y-15480484D02*
X19490539Y-15470960D01*
X19490539Y-15470960D02*
X19481016Y-15461436D01*
X19481016Y-15461436D02*
X19471492Y-15442388D01*
X19471492Y-15442388D02*
X19471492Y-15385246D01*
X19471492Y-15385246D02*
X19481016Y-15366198D01*
X19481016Y-15366198D02*
X19490539Y-15356674D01*
X19490539Y-15356674D02*
X19509587Y-15347150D01*
X19509587Y-15347150D02*
X19538158Y-15347150D01*
X19538158Y-15347150D02*
X19557206Y-15356674D01*
X19557206Y-15356674D02*
X19566730Y-15366198D01*
X19566730Y-15366198D02*
X19576254Y-15385246D01*
X19576254Y-15385246D02*
X19576254Y-15442388D01*
X19576254Y-15442388D02*
X19566730Y-15461436D01*
X19566730Y-15461436D02*
X19557206Y-15470960D01*
X19557206Y-15470960D02*
X19538158Y-15480484D01*
X19538158Y-15480484D02*
X19509587Y-15480484D01*
X19633397Y-15347150D02*
X19709587Y-15347150D01*
X19661968Y-15280484D02*
X19661968Y-15451912D01*
X19661968Y-15451912D02*
X19671492Y-15470960D01*
X19671492Y-15470960D02*
X19690539Y-15480484D01*
X19690539Y-15480484D02*
X19709587Y-15480484D01*
X19766730Y-15470960D02*
X19785777Y-15480484D01*
X19785777Y-15480484D02*
X19823873Y-15480484D01*
X19823873Y-15480484D02*
X19842920Y-15470960D01*
X19842920Y-15470960D02*
X19852444Y-15451912D01*
X19852444Y-15451912D02*
X19852444Y-15442388D01*
X19852444Y-15442388D02*
X19842920Y-15423341D01*
X19842920Y-15423341D02*
X19823873Y-15413817D01*
X19823873Y-15413817D02*
X19795301Y-15413817D01*
X19795301Y-15413817D02*
X19776254Y-15404293D01*
X19776254Y-15404293D02*
X19766730Y-15385246D01*
X19766730Y-15385246D02*
X19766730Y-15375722D01*
X19766730Y-15375722D02*
X19776254Y-15356674D01*
X19776254Y-15356674D02*
X19795301Y-15347150D01*
X19795301Y-15347150D02*
X19823873Y-15347150D01*
X19823873Y-15347150D02*
X19842920Y-15356674D01*
X19919111Y-15556674D02*
X19928635Y-15547150D01*
X19928635Y-15547150D02*
X19947682Y-15518579D01*
X19947682Y-15518579D02*
X19957206Y-15499531D01*
X19957206Y-15499531D02*
X19966730Y-15470960D01*
X19966730Y-15470960D02*
X19976254Y-15423341D01*
X19976254Y-15423341D02*
X19976254Y-15385246D01*
X19976254Y-15385246D02*
X19966730Y-15337627D01*
X19966730Y-15337627D02*
X19957206Y-15309055D01*
X19957206Y-15309055D02*
X19947682Y-15290008D01*
X19947682Y-15290008D02*
X19928635Y-15261436D01*
X19928635Y-15261436D02*
X19919111Y-15251912D01*
D10*
X13485000Y-15613000D02*
X13485000Y-15693000D01*
X13445000Y-15653000D02*
X13525000Y-15653000D01*
D11*
X13823872Y-15544484D02*
X13842920Y-15544484D01*
X13842920Y-15544484D02*
X13861967Y-15554008D01*
X13861967Y-15554008D02*
X13871491Y-15563531D01*
X13871491Y-15563531D02*
X13881015Y-15582579D01*
X13881015Y-15582579D02*
X13890539Y-15620674D01*
X13890539Y-15620674D02*
X13890539Y-15668293D01*
X13890539Y-15668293D02*
X13881015Y-15706388D01*
X13881015Y-15706388D02*
X13871491Y-15725436D01*
X13871491Y-15725436D02*
X13861967Y-15734960D01*
X13861967Y-15734960D02*
X13842920Y-15744484D01*
X13842920Y-15744484D02*
X13823872Y-15744484D01*
X13823872Y-15744484D02*
X13804824Y-15734960D01*
X13804824Y-15734960D02*
X13795301Y-15725436D01*
X13795301Y-15725436D02*
X13785777Y-15706388D01*
X13785777Y-15706388D02*
X13776253Y-15668293D01*
X13776253Y-15668293D02*
X13776253Y-15620674D01*
X13776253Y-15620674D02*
X13785777Y-15582579D01*
X13785777Y-15582579D02*
X13795301Y-15563531D01*
X13795301Y-15563531D02*
X13804824Y-15554008D01*
X13804824Y-15554008D02*
X13823872Y-15544484D01*
X13976253Y-15725436D02*
X13985777Y-15734960D01*
X13985777Y-15734960D02*
X13976253Y-15744484D01*
X13976253Y-15744484D02*
X13966729Y-15734960D01*
X13966729Y-15734960D02*
X13976253Y-15725436D01*
X13976253Y-15725436D02*
X13976253Y-15744484D01*
X14100062Y-15630198D02*
X14081015Y-15620674D01*
X14081015Y-15620674D02*
X14071491Y-15611150D01*
X14071491Y-15611150D02*
X14061967Y-15592103D01*
X14061967Y-15592103D02*
X14061967Y-15582579D01*
X14061967Y-15582579D02*
X14071491Y-15563531D01*
X14071491Y-15563531D02*
X14081015Y-15554008D01*
X14081015Y-15554008D02*
X14100062Y-15544484D01*
X14100062Y-15544484D02*
X14138158Y-15544484D01*
X14138158Y-15544484D02*
X14157205Y-15554008D01*
X14157205Y-15554008D02*
X14166729Y-15563531D01*
X14166729Y-15563531D02*
X14176253Y-15582579D01*
X14176253Y-15582579D02*
X14176253Y-15592103D01*
X14176253Y-15592103D02*
X14166729Y-15611150D01*
X14166729Y-15611150D02*
X14157205Y-15620674D01*
X14157205Y-15620674D02*
X14138158Y-15630198D01*
X14138158Y-15630198D02*
X14100062Y-15630198D01*
X14100062Y-15630198D02*
X14081015Y-15639722D01*
X14081015Y-15639722D02*
X14071491Y-15649246D01*
X14071491Y-15649246D02*
X14061967Y-15668293D01*
X14061967Y-15668293D02*
X14061967Y-15706388D01*
X14061967Y-15706388D02*
X14071491Y-15725436D01*
X14071491Y-15725436D02*
X14081015Y-15734960D01*
X14081015Y-15734960D02*
X14100062Y-15744484D01*
X14100062Y-15744484D02*
X14138158Y-15744484D01*
X14138158Y-15744484D02*
X14157205Y-15734960D01*
X14157205Y-15734960D02*
X14166729Y-15725436D01*
X14166729Y-15725436D02*
X14176253Y-15706388D01*
X14176253Y-15706388D02*
X14176253Y-15668293D01*
X14176253Y-15668293D02*
X14166729Y-15649246D01*
X14166729Y-15649246D02*
X14157205Y-15639722D01*
X14157205Y-15639722D02*
X14138158Y-15630198D01*
X14300062Y-15544484D02*
X14319110Y-15544484D01*
X14319110Y-15544484D02*
X14338158Y-15554008D01*
X14338158Y-15554008D02*
X14347682Y-15563531D01*
X14347682Y-15563531D02*
X14357205Y-15582579D01*
X14357205Y-15582579D02*
X14366729Y-15620674D01*
X14366729Y-15620674D02*
X14366729Y-15668293D01*
X14366729Y-15668293D02*
X14357205Y-15706388D01*
X14357205Y-15706388D02*
X14347682Y-15725436D01*
X14347682Y-15725436D02*
X14338158Y-15734960D01*
X14338158Y-15734960D02*
X14319110Y-15744484D01*
X14319110Y-15744484D02*
X14300062Y-15744484D01*
X14300062Y-15744484D02*
X14281015Y-15734960D01*
X14281015Y-15734960D02*
X14271491Y-15725436D01*
X14271491Y-15725436D02*
X14261967Y-15706388D01*
X14261967Y-15706388D02*
X14252443Y-15668293D01*
X14252443Y-15668293D02*
X14252443Y-15620674D01*
X14252443Y-15620674D02*
X14261967Y-15582579D01*
X14261967Y-15582579D02*
X14271491Y-15563531D01*
X14271491Y-15563531D02*
X14281015Y-15554008D01*
X14281015Y-15554008D02*
X14300062Y-15544484D01*
X14490539Y-15544484D02*
X14509586Y-15544484D01*
X14509586Y-15544484D02*
X14528634Y-15554008D01*
X14528634Y-15554008D02*
X14538158Y-15563531D01*
X14538158Y-15563531D02*
X14547682Y-15582579D01*
X14547682Y-15582579D02*
X14557205Y-15620674D01*
X14557205Y-15620674D02*
X14557205Y-15668293D01*
X14557205Y-15668293D02*
X14547682Y-15706388D01*
X14547682Y-15706388D02*
X14538158Y-15725436D01*
X14538158Y-15725436D02*
X14528634Y-15734960D01*
X14528634Y-15734960D02*
X14509586Y-15744484D01*
X14509586Y-15744484D02*
X14490539Y-15744484D01*
X14490539Y-15744484D02*
X14471491Y-15734960D01*
X14471491Y-15734960D02*
X14461967Y-15725436D01*
X14461967Y-15725436D02*
X14452443Y-15706388D01*
X14452443Y-15706388D02*
X14442920Y-15668293D01*
X14442920Y-15668293D02*
X14442920Y-15620674D01*
X14442920Y-15620674D02*
X14452443Y-15582579D01*
X14452443Y-15582579D02*
X14461967Y-15563531D01*
X14461967Y-15563531D02*
X14471491Y-15554008D01*
X14471491Y-15554008D02*
X14490539Y-15544484D01*
X14642920Y-15744484D02*
X14642920Y-15611150D01*
X14642920Y-15630198D02*
X14652443Y-15620674D01*
X14652443Y-15620674D02*
X14671491Y-15611150D01*
X14671491Y-15611150D02*
X14700063Y-15611150D01*
X14700063Y-15611150D02*
X14719110Y-15620674D01*
X14719110Y-15620674D02*
X14728634Y-15639722D01*
X14728634Y-15639722D02*
X14728634Y-15744484D01*
X14728634Y-15639722D02*
X14738158Y-15620674D01*
X14738158Y-15620674D02*
X14757205Y-15611150D01*
X14757205Y-15611150D02*
X14785777Y-15611150D01*
X14785777Y-15611150D02*
X14804824Y-15620674D01*
X14804824Y-15620674D02*
X14814348Y-15639722D01*
X14814348Y-15639722D02*
X14814348Y-15744484D01*
X14909586Y-15744484D02*
X14909586Y-15611150D01*
X14909586Y-15630198D02*
X14919110Y-15620674D01*
X14919110Y-15620674D02*
X14938158Y-15611150D01*
X14938158Y-15611150D02*
X14966729Y-15611150D01*
X14966729Y-15611150D02*
X14985777Y-15620674D01*
X14985777Y-15620674D02*
X14995301Y-15639722D01*
X14995301Y-15639722D02*
X14995301Y-15744484D01*
X14995301Y-15639722D02*
X15004824Y-15620674D01*
X15004824Y-15620674D02*
X15023872Y-15611150D01*
X15023872Y-15611150D02*
X15052443Y-15611150D01*
X15052443Y-15611150D02*
X15071491Y-15620674D01*
X15071491Y-15620674D02*
X15081015Y-15639722D01*
X15081015Y-15639722D02*
X15081015Y-15744484D01*
X15471491Y-15534960D02*
X15300063Y-15792103D01*
X15728634Y-15544484D02*
X15747682Y-15544484D01*
X15747682Y-15544484D02*
X15766729Y-15554008D01*
X15766729Y-15554008D02*
X15776253Y-15563531D01*
X15776253Y-15563531D02*
X15785777Y-15582579D01*
X15785777Y-15582579D02*
X15795301Y-15620674D01*
X15795301Y-15620674D02*
X15795301Y-15668293D01*
X15795301Y-15668293D02*
X15785777Y-15706388D01*
X15785777Y-15706388D02*
X15776253Y-15725436D01*
X15776253Y-15725436D02*
X15766729Y-15734960D01*
X15766729Y-15734960D02*
X15747682Y-15744484D01*
X15747682Y-15744484D02*
X15728634Y-15744484D01*
X15728634Y-15744484D02*
X15709586Y-15734960D01*
X15709586Y-15734960D02*
X15700063Y-15725436D01*
X15700063Y-15725436D02*
X15690539Y-15706388D01*
X15690539Y-15706388D02*
X15681015Y-15668293D01*
X15681015Y-15668293D02*
X15681015Y-15620674D01*
X15681015Y-15620674D02*
X15690539Y-15582579D01*
X15690539Y-15582579D02*
X15700063Y-15563531D01*
X15700063Y-15563531D02*
X15709586Y-15554008D01*
X15709586Y-15554008D02*
X15728634Y-15544484D01*
X15881015Y-15725436D02*
X15890539Y-15734960D01*
X15890539Y-15734960D02*
X15881015Y-15744484D01*
X15881015Y-15744484D02*
X15871491Y-15734960D01*
X15871491Y-15734960D02*
X15881015Y-15725436D01*
X15881015Y-15725436D02*
X15881015Y-15744484D01*
X16014348Y-15544484D02*
X16033396Y-15544484D01*
X16033396Y-15544484D02*
X16052444Y-15554008D01*
X16052444Y-15554008D02*
X16061967Y-15563531D01*
X16061967Y-15563531D02*
X16071491Y-15582579D01*
X16071491Y-15582579D02*
X16081015Y-15620674D01*
X16081015Y-15620674D02*
X16081015Y-15668293D01*
X16081015Y-15668293D02*
X16071491Y-15706388D01*
X16071491Y-15706388D02*
X16061967Y-15725436D01*
X16061967Y-15725436D02*
X16052444Y-15734960D01*
X16052444Y-15734960D02*
X16033396Y-15744484D01*
X16033396Y-15744484D02*
X16014348Y-15744484D01*
X16014348Y-15744484D02*
X15995301Y-15734960D01*
X15995301Y-15734960D02*
X15985777Y-15725436D01*
X15985777Y-15725436D02*
X15976253Y-15706388D01*
X15976253Y-15706388D02*
X15966729Y-15668293D01*
X15966729Y-15668293D02*
X15966729Y-15620674D01*
X15966729Y-15620674D02*
X15976253Y-15582579D01*
X15976253Y-15582579D02*
X15985777Y-15563531D01*
X15985777Y-15563531D02*
X15995301Y-15554008D01*
X15995301Y-15554008D02*
X16014348Y-15544484D01*
X16147682Y-15544484D02*
X16271491Y-15544484D01*
X16271491Y-15544484D02*
X16204825Y-15620674D01*
X16204825Y-15620674D02*
X16233396Y-15620674D01*
X16233396Y-15620674D02*
X16252444Y-15630198D01*
X16252444Y-15630198D02*
X16261967Y-15639722D01*
X16261967Y-15639722D02*
X16271491Y-15658769D01*
X16271491Y-15658769D02*
X16271491Y-15706388D01*
X16271491Y-15706388D02*
X16261967Y-15725436D01*
X16261967Y-15725436D02*
X16252444Y-15734960D01*
X16252444Y-15734960D02*
X16233396Y-15744484D01*
X16233396Y-15744484D02*
X16176253Y-15744484D01*
X16176253Y-15744484D02*
X16157206Y-15734960D01*
X16157206Y-15734960D02*
X16147682Y-15725436D01*
X16461967Y-15744484D02*
X16347682Y-15744484D01*
X16404825Y-15744484D02*
X16404825Y-15544484D01*
X16404825Y-15544484D02*
X16385777Y-15573055D01*
X16385777Y-15573055D02*
X16366729Y-15592103D01*
X16366729Y-15592103D02*
X16347682Y-15601627D01*
X16642920Y-15544484D02*
X16547682Y-15544484D01*
X16547682Y-15544484D02*
X16538158Y-15639722D01*
X16538158Y-15639722D02*
X16547682Y-15630198D01*
X16547682Y-15630198D02*
X16566729Y-15620674D01*
X16566729Y-15620674D02*
X16614348Y-15620674D01*
X16614348Y-15620674D02*
X16633396Y-15630198D01*
X16633396Y-15630198D02*
X16642920Y-15639722D01*
X16642920Y-15639722D02*
X16652444Y-15658769D01*
X16652444Y-15658769D02*
X16652444Y-15706388D01*
X16652444Y-15706388D02*
X16642920Y-15725436D01*
X16642920Y-15725436D02*
X16633396Y-15734960D01*
X16633396Y-15734960D02*
X16614348Y-15744484D01*
X16614348Y-15744484D02*
X16566729Y-15744484D01*
X16566729Y-15744484D02*
X16547682Y-15734960D01*
X16547682Y-15734960D02*
X16538158Y-15725436D01*
X16728634Y-15544484D02*
X16728634Y-15582579D01*
X16804825Y-15544484D02*
X16804825Y-15582579D01*
X17100063Y-15820674D02*
X17090539Y-15811150D01*
X17090539Y-15811150D02*
X17071491Y-15782579D01*
X17071491Y-15782579D02*
X17061968Y-15763531D01*
X17061968Y-15763531D02*
X17052444Y-15734960D01*
X17052444Y-15734960D02*
X17042920Y-15687341D01*
X17042920Y-15687341D02*
X17042920Y-15649246D01*
X17042920Y-15649246D02*
X17052444Y-15601627D01*
X17052444Y-15601627D02*
X17061968Y-15573055D01*
X17061968Y-15573055D02*
X17071491Y-15554008D01*
X17071491Y-15554008D02*
X17090539Y-15525436D01*
X17090539Y-15525436D02*
X17100063Y-15515912D01*
X17214349Y-15544484D02*
X17233396Y-15544484D01*
X17233396Y-15544484D02*
X17252444Y-15554008D01*
X17252444Y-15554008D02*
X17261968Y-15563531D01*
X17261968Y-15563531D02*
X17271491Y-15582579D01*
X17271491Y-15582579D02*
X17281015Y-15620674D01*
X17281015Y-15620674D02*
X17281015Y-15668293D01*
X17281015Y-15668293D02*
X17271491Y-15706388D01*
X17271491Y-15706388D02*
X17261968Y-15725436D01*
X17261968Y-15725436D02*
X17252444Y-15734960D01*
X17252444Y-15734960D02*
X17233396Y-15744484D01*
X17233396Y-15744484D02*
X17214349Y-15744484D01*
X17214349Y-15744484D02*
X17195301Y-15734960D01*
X17195301Y-15734960D02*
X17185777Y-15725436D01*
X17185777Y-15725436D02*
X17176253Y-15706388D01*
X17176253Y-15706388D02*
X17166730Y-15668293D01*
X17166730Y-15668293D02*
X17166730Y-15620674D01*
X17166730Y-15620674D02*
X17176253Y-15582579D01*
X17176253Y-15582579D02*
X17185777Y-15563531D01*
X17185777Y-15563531D02*
X17195301Y-15554008D01*
X17195301Y-15554008D02*
X17214349Y-15544484D01*
X17519111Y-15744484D02*
X17519111Y-15544484D01*
X17604825Y-15744484D02*
X17604825Y-15639722D01*
X17604825Y-15639722D02*
X17595301Y-15620674D01*
X17595301Y-15620674D02*
X17576253Y-15611150D01*
X17576253Y-15611150D02*
X17547682Y-15611150D01*
X17547682Y-15611150D02*
X17528634Y-15620674D01*
X17528634Y-15620674D02*
X17519111Y-15630198D01*
X17728634Y-15744484D02*
X17709587Y-15734960D01*
X17709587Y-15734960D02*
X17700063Y-15725436D01*
X17700063Y-15725436D02*
X17690539Y-15706388D01*
X17690539Y-15706388D02*
X17690539Y-15649246D01*
X17690539Y-15649246D02*
X17700063Y-15630198D01*
X17700063Y-15630198D02*
X17709587Y-15620674D01*
X17709587Y-15620674D02*
X17728634Y-15611150D01*
X17728634Y-15611150D02*
X17757206Y-15611150D01*
X17757206Y-15611150D02*
X17776253Y-15620674D01*
X17776253Y-15620674D02*
X17785777Y-15630198D01*
X17785777Y-15630198D02*
X17795301Y-15649246D01*
X17795301Y-15649246D02*
X17795301Y-15706388D01*
X17795301Y-15706388D02*
X17785777Y-15725436D01*
X17785777Y-15725436D02*
X17776253Y-15734960D01*
X17776253Y-15734960D02*
X17757206Y-15744484D01*
X17757206Y-15744484D02*
X17728634Y-15744484D01*
X17909587Y-15744484D02*
X17890539Y-15734960D01*
X17890539Y-15734960D02*
X17881015Y-15715912D01*
X17881015Y-15715912D02*
X17881015Y-15544484D01*
X18061968Y-15734960D02*
X18042920Y-15744484D01*
X18042920Y-15744484D02*
X18004825Y-15744484D01*
X18004825Y-15744484D02*
X17985777Y-15734960D01*
X17985777Y-15734960D02*
X17976253Y-15715912D01*
X17976253Y-15715912D02*
X17976253Y-15639722D01*
X17976253Y-15639722D02*
X17985777Y-15620674D01*
X17985777Y-15620674D02*
X18004825Y-15611150D01*
X18004825Y-15611150D02*
X18042920Y-15611150D01*
X18042920Y-15611150D02*
X18061968Y-15620674D01*
X18061968Y-15620674D02*
X18071492Y-15639722D01*
X18071492Y-15639722D02*
X18071492Y-15658769D01*
X18071492Y-15658769D02*
X17976253Y-15677817D01*
X18147682Y-15734960D02*
X18166730Y-15744484D01*
X18166730Y-15744484D02*
X18204825Y-15744484D01*
X18204825Y-15744484D02*
X18223873Y-15734960D01*
X18223873Y-15734960D02*
X18233396Y-15715912D01*
X18233396Y-15715912D02*
X18233396Y-15706388D01*
X18233396Y-15706388D02*
X18223873Y-15687341D01*
X18223873Y-15687341D02*
X18204825Y-15677817D01*
X18204825Y-15677817D02*
X18176253Y-15677817D01*
X18176253Y-15677817D02*
X18157206Y-15668293D01*
X18157206Y-15668293D02*
X18147682Y-15649246D01*
X18147682Y-15649246D02*
X18147682Y-15639722D01*
X18147682Y-15639722D02*
X18157206Y-15620674D01*
X18157206Y-15620674D02*
X18176253Y-15611150D01*
X18176253Y-15611150D02*
X18204825Y-15611150D01*
X18204825Y-15611150D02*
X18223873Y-15620674D01*
X18471492Y-15668293D02*
X18623873Y-15668293D01*
X18547682Y-15744484D02*
X18547682Y-15592103D01*
X18976254Y-15744484D02*
X18861968Y-15744484D01*
X18919111Y-15744484D02*
X18919111Y-15544484D01*
X18919111Y-15544484D02*
X18900063Y-15573055D01*
X18900063Y-15573055D02*
X18881015Y-15592103D01*
X18881015Y-15592103D02*
X18861968Y-15601627D01*
X19100063Y-15544484D02*
X19119111Y-15544484D01*
X19119111Y-15544484D02*
X19138158Y-15554008D01*
X19138158Y-15554008D02*
X19147682Y-15563531D01*
X19147682Y-15563531D02*
X19157206Y-15582579D01*
X19157206Y-15582579D02*
X19166730Y-15620674D01*
X19166730Y-15620674D02*
X19166730Y-15668293D01*
X19166730Y-15668293D02*
X19157206Y-15706388D01*
X19157206Y-15706388D02*
X19147682Y-15725436D01*
X19147682Y-15725436D02*
X19138158Y-15734960D01*
X19138158Y-15734960D02*
X19119111Y-15744484D01*
X19119111Y-15744484D02*
X19100063Y-15744484D01*
X19100063Y-15744484D02*
X19081015Y-15734960D01*
X19081015Y-15734960D02*
X19071492Y-15725436D01*
X19071492Y-15725436D02*
X19061968Y-15706388D01*
X19061968Y-15706388D02*
X19052444Y-15668293D01*
X19052444Y-15668293D02*
X19052444Y-15620674D01*
X19052444Y-15620674D02*
X19061968Y-15582579D01*
X19061968Y-15582579D02*
X19071492Y-15563531D01*
X19071492Y-15563531D02*
X19081015Y-15554008D01*
X19081015Y-15554008D02*
X19100063Y-15544484D01*
X19395301Y-15734960D02*
X19414349Y-15744484D01*
X19414349Y-15744484D02*
X19452444Y-15744484D01*
X19452444Y-15744484D02*
X19471492Y-15734960D01*
X19471492Y-15734960D02*
X19481016Y-15715912D01*
X19481016Y-15715912D02*
X19481016Y-15706388D01*
X19481016Y-15706388D02*
X19471492Y-15687341D01*
X19471492Y-15687341D02*
X19452444Y-15677817D01*
X19452444Y-15677817D02*
X19423873Y-15677817D01*
X19423873Y-15677817D02*
X19404825Y-15668293D01*
X19404825Y-15668293D02*
X19395301Y-15649246D01*
X19395301Y-15649246D02*
X19395301Y-15639722D01*
X19395301Y-15639722D02*
X19404825Y-15620674D01*
X19404825Y-15620674D02*
X19423873Y-15611150D01*
X19423873Y-15611150D02*
X19452444Y-15611150D01*
X19452444Y-15611150D02*
X19471492Y-15620674D01*
X19595301Y-15744484D02*
X19576254Y-15734960D01*
X19576254Y-15734960D02*
X19566730Y-15715912D01*
X19566730Y-15715912D02*
X19566730Y-15544484D01*
X19700063Y-15744484D02*
X19681016Y-15734960D01*
X19681016Y-15734960D02*
X19671492Y-15725436D01*
X19671492Y-15725436D02*
X19661968Y-15706388D01*
X19661968Y-15706388D02*
X19661968Y-15649246D01*
X19661968Y-15649246D02*
X19671492Y-15630198D01*
X19671492Y-15630198D02*
X19681016Y-15620674D01*
X19681016Y-15620674D02*
X19700063Y-15611150D01*
X19700063Y-15611150D02*
X19728635Y-15611150D01*
X19728635Y-15611150D02*
X19747682Y-15620674D01*
X19747682Y-15620674D02*
X19757206Y-15630198D01*
X19757206Y-15630198D02*
X19766730Y-15649246D01*
X19766730Y-15649246D02*
X19766730Y-15706388D01*
X19766730Y-15706388D02*
X19757206Y-15725436D01*
X19757206Y-15725436D02*
X19747682Y-15734960D01*
X19747682Y-15734960D02*
X19728635Y-15744484D01*
X19728635Y-15744484D02*
X19700063Y-15744484D01*
X19823873Y-15611150D02*
X19900063Y-15611150D01*
X19852444Y-15544484D02*
X19852444Y-15715912D01*
X19852444Y-15715912D02*
X19861968Y-15734960D01*
X19861968Y-15734960D02*
X19881016Y-15744484D01*
X19881016Y-15744484D02*
X19900063Y-15744484D01*
X19957206Y-15734960D02*
X19976254Y-15744484D01*
X19976254Y-15744484D02*
X20014349Y-15744484D01*
X20014349Y-15744484D02*
X20033397Y-15734960D01*
X20033397Y-15734960D02*
X20042920Y-15715912D01*
X20042920Y-15715912D02*
X20042920Y-15706388D01*
X20042920Y-15706388D02*
X20033397Y-15687341D01*
X20033397Y-15687341D02*
X20014349Y-15677817D01*
X20014349Y-15677817D02*
X19985777Y-15677817D01*
X19985777Y-15677817D02*
X19966730Y-15668293D01*
X19966730Y-15668293D02*
X19957206Y-15649246D01*
X19957206Y-15649246D02*
X19957206Y-15639722D01*
X19957206Y-15639722D02*
X19966730Y-15620674D01*
X19966730Y-15620674D02*
X19985777Y-15611150D01*
X19985777Y-15611150D02*
X20014349Y-15611150D01*
X20014349Y-15611150D02*
X20033397Y-15620674D01*
X20109587Y-15820674D02*
X20119111Y-15811150D01*
X20119111Y-15811150D02*
X20138158Y-15782579D01*
X20138158Y-15782579D02*
X20147682Y-15763531D01*
X20147682Y-15763531D02*
X20157206Y-15734960D01*
X20157206Y-15734960D02*
X20166730Y-15687341D01*
X20166730Y-15687341D02*
X20166730Y-15649246D01*
X20166730Y-15649246D02*
X20157206Y-15601627D01*
X20157206Y-15601627D02*
X20147682Y-15573055D01*
X20147682Y-15573055D02*
X20138158Y-15554008D01*
X20138158Y-15554008D02*
X20119111Y-15525436D01*
X20119111Y-15525436D02*
X20109587Y-15515912D01*
D10*
X13512552Y-15947052D02*
X13512552Y-15886948D01*
X13452448Y-15886948D01*
X13452448Y-15947052D01*
X13512552Y-15947052D01*
D11*
X13823872Y-15808484D02*
X13842920Y-15808484D01*
X13842920Y-15808484D02*
X13861967Y-15818008D01*
X13861967Y-15818008D02*
X13871491Y-15827531D01*
X13871491Y-15827531D02*
X13881015Y-15846579D01*
X13881015Y-15846579D02*
X13890539Y-15884674D01*
X13890539Y-15884674D02*
X13890539Y-15932293D01*
X13890539Y-15932293D02*
X13881015Y-15970388D01*
X13881015Y-15970388D02*
X13871491Y-15989436D01*
X13871491Y-15989436D02*
X13861967Y-15998960D01*
X13861967Y-15998960D02*
X13842920Y-16008484D01*
X13842920Y-16008484D02*
X13823872Y-16008484D01*
X13823872Y-16008484D02*
X13804824Y-15998960D01*
X13804824Y-15998960D02*
X13795301Y-15989436D01*
X13795301Y-15989436D02*
X13785777Y-15970388D01*
X13785777Y-15970388D02*
X13776253Y-15932293D01*
X13776253Y-15932293D02*
X13776253Y-15884674D01*
X13776253Y-15884674D02*
X13785777Y-15846579D01*
X13785777Y-15846579D02*
X13795301Y-15827531D01*
X13795301Y-15827531D02*
X13804824Y-15818008D01*
X13804824Y-15818008D02*
X13823872Y-15808484D01*
X13976253Y-15989436D02*
X13985777Y-15998960D01*
X13985777Y-15998960D02*
X13976253Y-16008484D01*
X13976253Y-16008484D02*
X13966729Y-15998960D01*
X13966729Y-15998960D02*
X13976253Y-15989436D01*
X13976253Y-15989436D02*
X13976253Y-16008484D01*
X14100062Y-15894198D02*
X14081015Y-15884674D01*
X14081015Y-15884674D02*
X14071491Y-15875150D01*
X14071491Y-15875150D02*
X14061967Y-15856103D01*
X14061967Y-15856103D02*
X14061967Y-15846579D01*
X14061967Y-15846579D02*
X14071491Y-15827531D01*
X14071491Y-15827531D02*
X14081015Y-15818008D01*
X14081015Y-15818008D02*
X14100062Y-15808484D01*
X14100062Y-15808484D02*
X14138158Y-15808484D01*
X14138158Y-15808484D02*
X14157205Y-15818008D01*
X14157205Y-15818008D02*
X14166729Y-15827531D01*
X14166729Y-15827531D02*
X14176253Y-15846579D01*
X14176253Y-15846579D02*
X14176253Y-15856103D01*
X14176253Y-15856103D02*
X14166729Y-15875150D01*
X14166729Y-15875150D02*
X14157205Y-15884674D01*
X14157205Y-15884674D02*
X14138158Y-15894198D01*
X14138158Y-15894198D02*
X14100062Y-15894198D01*
X14100062Y-15894198D02*
X14081015Y-15903722D01*
X14081015Y-15903722D02*
X14071491Y-15913246D01*
X14071491Y-15913246D02*
X14061967Y-15932293D01*
X14061967Y-15932293D02*
X14061967Y-15970388D01*
X14061967Y-15970388D02*
X14071491Y-15989436D01*
X14071491Y-15989436D02*
X14081015Y-15998960D01*
X14081015Y-15998960D02*
X14100062Y-16008484D01*
X14100062Y-16008484D02*
X14138158Y-16008484D01*
X14138158Y-16008484D02*
X14157205Y-15998960D01*
X14157205Y-15998960D02*
X14166729Y-15989436D01*
X14166729Y-15989436D02*
X14176253Y-15970388D01*
X14176253Y-15970388D02*
X14176253Y-15932293D01*
X14176253Y-15932293D02*
X14166729Y-15913246D01*
X14166729Y-15913246D02*
X14157205Y-15903722D01*
X14157205Y-15903722D02*
X14138158Y-15894198D01*
X14357205Y-15808484D02*
X14261967Y-15808484D01*
X14261967Y-15808484D02*
X14252443Y-15903722D01*
X14252443Y-15903722D02*
X14261967Y-15894198D01*
X14261967Y-15894198D02*
X14281015Y-15884674D01*
X14281015Y-15884674D02*
X14328634Y-15884674D01*
X14328634Y-15884674D02*
X14347682Y-15894198D01*
X14347682Y-15894198D02*
X14357205Y-15903722D01*
X14357205Y-15903722D02*
X14366729Y-15922769D01*
X14366729Y-15922769D02*
X14366729Y-15970388D01*
X14366729Y-15970388D02*
X14357205Y-15989436D01*
X14357205Y-15989436D02*
X14347682Y-15998960D01*
X14347682Y-15998960D02*
X14328634Y-16008484D01*
X14328634Y-16008484D02*
X14281015Y-16008484D01*
X14281015Y-16008484D02*
X14261967Y-15998960D01*
X14261967Y-15998960D02*
X14252443Y-15989436D01*
X14490539Y-15808484D02*
X14509586Y-15808484D01*
X14509586Y-15808484D02*
X14528634Y-15818008D01*
X14528634Y-15818008D02*
X14538158Y-15827531D01*
X14538158Y-15827531D02*
X14547682Y-15846579D01*
X14547682Y-15846579D02*
X14557205Y-15884674D01*
X14557205Y-15884674D02*
X14557205Y-15932293D01*
X14557205Y-15932293D02*
X14547682Y-15970388D01*
X14547682Y-15970388D02*
X14538158Y-15989436D01*
X14538158Y-15989436D02*
X14528634Y-15998960D01*
X14528634Y-15998960D02*
X14509586Y-16008484D01*
X14509586Y-16008484D02*
X14490539Y-16008484D01*
X14490539Y-16008484D02*
X14471491Y-15998960D01*
X14471491Y-15998960D02*
X14461967Y-15989436D01*
X14461967Y-15989436D02*
X14452443Y-15970388D01*
X14452443Y-15970388D02*
X14442920Y-15932293D01*
X14442920Y-15932293D02*
X14442920Y-15884674D01*
X14442920Y-15884674D02*
X14452443Y-15846579D01*
X14452443Y-15846579D02*
X14461967Y-15827531D01*
X14461967Y-15827531D02*
X14471491Y-15818008D01*
X14471491Y-15818008D02*
X14490539Y-15808484D01*
X14642920Y-16008484D02*
X14642920Y-15875150D01*
X14642920Y-15894198D02*
X14652443Y-15884674D01*
X14652443Y-15884674D02*
X14671491Y-15875150D01*
X14671491Y-15875150D02*
X14700063Y-15875150D01*
X14700063Y-15875150D02*
X14719110Y-15884674D01*
X14719110Y-15884674D02*
X14728634Y-15903722D01*
X14728634Y-15903722D02*
X14728634Y-16008484D01*
X14728634Y-15903722D02*
X14738158Y-15884674D01*
X14738158Y-15884674D02*
X14757205Y-15875150D01*
X14757205Y-15875150D02*
X14785777Y-15875150D01*
X14785777Y-15875150D02*
X14804824Y-15884674D01*
X14804824Y-15884674D02*
X14814348Y-15903722D01*
X14814348Y-15903722D02*
X14814348Y-16008484D01*
X14909586Y-16008484D02*
X14909586Y-15875150D01*
X14909586Y-15894198D02*
X14919110Y-15884674D01*
X14919110Y-15884674D02*
X14938158Y-15875150D01*
X14938158Y-15875150D02*
X14966729Y-15875150D01*
X14966729Y-15875150D02*
X14985777Y-15884674D01*
X14985777Y-15884674D02*
X14995301Y-15903722D01*
X14995301Y-15903722D02*
X14995301Y-16008484D01*
X14995301Y-15903722D02*
X15004824Y-15884674D01*
X15004824Y-15884674D02*
X15023872Y-15875150D01*
X15023872Y-15875150D02*
X15052443Y-15875150D01*
X15052443Y-15875150D02*
X15071491Y-15884674D01*
X15071491Y-15884674D02*
X15081015Y-15903722D01*
X15081015Y-15903722D02*
X15081015Y-16008484D01*
X15471491Y-15798960D02*
X15300063Y-16056103D01*
X15728634Y-15808484D02*
X15747682Y-15808484D01*
X15747682Y-15808484D02*
X15766729Y-15818008D01*
X15766729Y-15818008D02*
X15776253Y-15827531D01*
X15776253Y-15827531D02*
X15785777Y-15846579D01*
X15785777Y-15846579D02*
X15795301Y-15884674D01*
X15795301Y-15884674D02*
X15795301Y-15932293D01*
X15795301Y-15932293D02*
X15785777Y-15970388D01*
X15785777Y-15970388D02*
X15776253Y-15989436D01*
X15776253Y-15989436D02*
X15766729Y-15998960D01*
X15766729Y-15998960D02*
X15747682Y-16008484D01*
X15747682Y-16008484D02*
X15728634Y-16008484D01*
X15728634Y-16008484D02*
X15709586Y-15998960D01*
X15709586Y-15998960D02*
X15700063Y-15989436D01*
X15700063Y-15989436D02*
X15690539Y-15970388D01*
X15690539Y-15970388D02*
X15681015Y-15932293D01*
X15681015Y-15932293D02*
X15681015Y-15884674D01*
X15681015Y-15884674D02*
X15690539Y-15846579D01*
X15690539Y-15846579D02*
X15700063Y-15827531D01*
X15700063Y-15827531D02*
X15709586Y-15818008D01*
X15709586Y-15818008D02*
X15728634Y-15808484D01*
X15881015Y-15989436D02*
X15890539Y-15998960D01*
X15890539Y-15998960D02*
X15881015Y-16008484D01*
X15881015Y-16008484D02*
X15871491Y-15998960D01*
X15871491Y-15998960D02*
X15881015Y-15989436D01*
X15881015Y-15989436D02*
X15881015Y-16008484D01*
X16014348Y-15808484D02*
X16033396Y-15808484D01*
X16033396Y-15808484D02*
X16052444Y-15818008D01*
X16052444Y-15818008D02*
X16061967Y-15827531D01*
X16061967Y-15827531D02*
X16071491Y-15846579D01*
X16071491Y-15846579D02*
X16081015Y-15884674D01*
X16081015Y-15884674D02*
X16081015Y-15932293D01*
X16081015Y-15932293D02*
X16071491Y-15970388D01*
X16071491Y-15970388D02*
X16061967Y-15989436D01*
X16061967Y-15989436D02*
X16052444Y-15998960D01*
X16052444Y-15998960D02*
X16033396Y-16008484D01*
X16033396Y-16008484D02*
X16014348Y-16008484D01*
X16014348Y-16008484D02*
X15995301Y-15998960D01*
X15995301Y-15998960D02*
X15985777Y-15989436D01*
X15985777Y-15989436D02*
X15976253Y-15970388D01*
X15976253Y-15970388D02*
X15966729Y-15932293D01*
X15966729Y-15932293D02*
X15966729Y-15884674D01*
X15966729Y-15884674D02*
X15976253Y-15846579D01*
X15976253Y-15846579D02*
X15985777Y-15827531D01*
X15985777Y-15827531D02*
X15995301Y-15818008D01*
X15995301Y-15818008D02*
X16014348Y-15808484D01*
X16147682Y-15808484D02*
X16271491Y-15808484D01*
X16271491Y-15808484D02*
X16204825Y-15884674D01*
X16204825Y-15884674D02*
X16233396Y-15884674D01*
X16233396Y-15884674D02*
X16252444Y-15894198D01*
X16252444Y-15894198D02*
X16261967Y-15903722D01*
X16261967Y-15903722D02*
X16271491Y-15922769D01*
X16271491Y-15922769D02*
X16271491Y-15970388D01*
X16271491Y-15970388D02*
X16261967Y-15989436D01*
X16261967Y-15989436D02*
X16252444Y-15998960D01*
X16252444Y-15998960D02*
X16233396Y-16008484D01*
X16233396Y-16008484D02*
X16176253Y-16008484D01*
X16176253Y-16008484D02*
X16157206Y-15998960D01*
X16157206Y-15998960D02*
X16147682Y-15989436D01*
X16338158Y-15808484D02*
X16461967Y-15808484D01*
X16461967Y-15808484D02*
X16395301Y-15884674D01*
X16395301Y-15884674D02*
X16423872Y-15884674D01*
X16423872Y-15884674D02*
X16442920Y-15894198D01*
X16442920Y-15894198D02*
X16452444Y-15903722D01*
X16452444Y-15903722D02*
X16461967Y-15922769D01*
X16461967Y-15922769D02*
X16461967Y-15970388D01*
X16461967Y-15970388D02*
X16452444Y-15989436D01*
X16452444Y-15989436D02*
X16442920Y-15998960D01*
X16442920Y-15998960D02*
X16423872Y-16008484D01*
X16423872Y-16008484D02*
X16366729Y-16008484D01*
X16366729Y-16008484D02*
X16347682Y-15998960D01*
X16347682Y-15998960D02*
X16338158Y-15989436D01*
X16642920Y-15808484D02*
X16547682Y-15808484D01*
X16547682Y-15808484D02*
X16538158Y-15903722D01*
X16538158Y-15903722D02*
X16547682Y-15894198D01*
X16547682Y-15894198D02*
X16566729Y-15884674D01*
X16566729Y-15884674D02*
X16614348Y-15884674D01*
X16614348Y-15884674D02*
X16633396Y-15894198D01*
X16633396Y-15894198D02*
X16642920Y-15903722D01*
X16642920Y-15903722D02*
X16652444Y-15922769D01*
X16652444Y-15922769D02*
X16652444Y-15970388D01*
X16652444Y-15970388D02*
X16642920Y-15989436D01*
X16642920Y-15989436D02*
X16633396Y-15998960D01*
X16633396Y-15998960D02*
X16614348Y-16008484D01*
X16614348Y-16008484D02*
X16566729Y-16008484D01*
X16566729Y-16008484D02*
X16547682Y-15998960D01*
X16547682Y-15998960D02*
X16538158Y-15989436D01*
X16728634Y-15808484D02*
X16728634Y-15846579D01*
X16804825Y-15808484D02*
X16804825Y-15846579D01*
X17100063Y-16084674D02*
X17090539Y-16075150D01*
X17090539Y-16075150D02*
X17071491Y-16046579D01*
X17071491Y-16046579D02*
X17061968Y-16027531D01*
X17061968Y-16027531D02*
X17052444Y-15998960D01*
X17052444Y-15998960D02*
X17042920Y-15951341D01*
X17042920Y-15951341D02*
X17042920Y-15913246D01*
X17042920Y-15913246D02*
X17052444Y-15865627D01*
X17052444Y-15865627D02*
X17061968Y-15837055D01*
X17061968Y-15837055D02*
X17071491Y-15818008D01*
X17071491Y-15818008D02*
X17090539Y-15789436D01*
X17090539Y-15789436D02*
X17100063Y-15779912D01*
X17166730Y-15827531D02*
X17176253Y-15818008D01*
X17176253Y-15818008D02*
X17195301Y-15808484D01*
X17195301Y-15808484D02*
X17242920Y-15808484D01*
X17242920Y-15808484D02*
X17261968Y-15818008D01*
X17261968Y-15818008D02*
X17271491Y-15827531D01*
X17271491Y-15827531D02*
X17281015Y-15846579D01*
X17281015Y-15846579D02*
X17281015Y-15865627D01*
X17281015Y-15865627D02*
X17271491Y-15894198D01*
X17271491Y-15894198D02*
X17157206Y-16008484D01*
X17157206Y-16008484D02*
X17281015Y-16008484D01*
X17404825Y-15808484D02*
X17423872Y-15808484D01*
X17423872Y-15808484D02*
X17442920Y-15818008D01*
X17442920Y-15818008D02*
X17452444Y-15827531D01*
X17452444Y-15827531D02*
X17461968Y-15846579D01*
X17461968Y-15846579D02*
X17471491Y-15884674D01*
X17471491Y-15884674D02*
X17471491Y-15932293D01*
X17471491Y-15932293D02*
X17461968Y-15970388D01*
X17461968Y-15970388D02*
X17452444Y-15989436D01*
X17452444Y-15989436D02*
X17442920Y-15998960D01*
X17442920Y-15998960D02*
X17423872Y-16008484D01*
X17423872Y-16008484D02*
X17404825Y-16008484D01*
X17404825Y-16008484D02*
X17385777Y-15998960D01*
X17385777Y-15998960D02*
X17376253Y-15989436D01*
X17376253Y-15989436D02*
X17366730Y-15970388D01*
X17366730Y-15970388D02*
X17357206Y-15932293D01*
X17357206Y-15932293D02*
X17357206Y-15884674D01*
X17357206Y-15884674D02*
X17366730Y-15846579D01*
X17366730Y-15846579D02*
X17376253Y-15827531D01*
X17376253Y-15827531D02*
X17385777Y-15818008D01*
X17385777Y-15818008D02*
X17404825Y-15808484D01*
X17709587Y-16008484D02*
X17709587Y-15808484D01*
X17795301Y-16008484D02*
X17795301Y-15903722D01*
X17795301Y-15903722D02*
X17785777Y-15884674D01*
X17785777Y-15884674D02*
X17766730Y-15875150D01*
X17766730Y-15875150D02*
X17738158Y-15875150D01*
X17738158Y-15875150D02*
X17719111Y-15884674D01*
X17719111Y-15884674D02*
X17709587Y-15894198D01*
X17919111Y-16008484D02*
X17900063Y-15998960D01*
X17900063Y-15998960D02*
X17890539Y-15989436D01*
X17890539Y-15989436D02*
X17881015Y-15970388D01*
X17881015Y-15970388D02*
X17881015Y-15913246D01*
X17881015Y-15913246D02*
X17890539Y-15894198D01*
X17890539Y-15894198D02*
X17900063Y-15884674D01*
X17900063Y-15884674D02*
X17919111Y-15875150D01*
X17919111Y-15875150D02*
X17947682Y-15875150D01*
X17947682Y-15875150D02*
X17966730Y-15884674D01*
X17966730Y-15884674D02*
X17976253Y-15894198D01*
X17976253Y-15894198D02*
X17985777Y-15913246D01*
X17985777Y-15913246D02*
X17985777Y-15970388D01*
X17985777Y-15970388D02*
X17976253Y-15989436D01*
X17976253Y-15989436D02*
X17966730Y-15998960D01*
X17966730Y-15998960D02*
X17947682Y-16008484D01*
X17947682Y-16008484D02*
X17919111Y-16008484D01*
X18100063Y-16008484D02*
X18081015Y-15998960D01*
X18081015Y-15998960D02*
X18071492Y-15979912D01*
X18071492Y-15979912D02*
X18071492Y-15808484D01*
X18252444Y-15998960D02*
X18233396Y-16008484D01*
X18233396Y-16008484D02*
X18195301Y-16008484D01*
X18195301Y-16008484D02*
X18176253Y-15998960D01*
X18176253Y-15998960D02*
X18166730Y-15979912D01*
X18166730Y-15979912D02*
X18166730Y-15903722D01*
X18166730Y-15903722D02*
X18176253Y-15884674D01*
X18176253Y-15884674D02*
X18195301Y-15875150D01*
X18195301Y-15875150D02*
X18233396Y-15875150D01*
X18233396Y-15875150D02*
X18252444Y-15884674D01*
X18252444Y-15884674D02*
X18261968Y-15903722D01*
X18261968Y-15903722D02*
X18261968Y-15922769D01*
X18261968Y-15922769D02*
X18166730Y-15941817D01*
X18338158Y-15998960D02*
X18357206Y-16008484D01*
X18357206Y-16008484D02*
X18395301Y-16008484D01*
X18395301Y-16008484D02*
X18414349Y-15998960D01*
X18414349Y-15998960D02*
X18423873Y-15979912D01*
X18423873Y-15979912D02*
X18423873Y-15970388D01*
X18423873Y-15970388D02*
X18414349Y-15951341D01*
X18414349Y-15951341D02*
X18395301Y-15941817D01*
X18395301Y-15941817D02*
X18366730Y-15941817D01*
X18366730Y-15941817D02*
X18347682Y-15932293D01*
X18347682Y-15932293D02*
X18338158Y-15913246D01*
X18338158Y-15913246D02*
X18338158Y-15903722D01*
X18338158Y-15903722D02*
X18347682Y-15884674D01*
X18347682Y-15884674D02*
X18366730Y-15875150D01*
X18366730Y-15875150D02*
X18395301Y-15875150D01*
X18395301Y-15875150D02*
X18414349Y-15884674D01*
X18490539Y-16084674D02*
X18500063Y-16075150D01*
X18500063Y-16075150D02*
X18519111Y-16046579D01*
X18519111Y-16046579D02*
X18528634Y-16027531D01*
X18528634Y-16027531D02*
X18538158Y-15998960D01*
X18538158Y-15998960D02*
X18547682Y-15951341D01*
X18547682Y-15951341D02*
X18547682Y-15913246D01*
X18547682Y-15913246D02*
X18538158Y-15865627D01*
X18538158Y-15865627D02*
X18528634Y-15837055D01*
X18528634Y-15837055D02*
X18519111Y-15818008D01*
X18519111Y-15818008D02*
X18500063Y-15789436D01*
X18500063Y-15789436D02*
X18490539Y-15779912D01*
D10*
X13475000Y-16231000D02*
X13525000Y-16181000D01*
X13475000Y-16131000D01*
X13425000Y-16181000D01*
X13475000Y-16231000D01*
D11*
X13890539Y-16272484D02*
X13776253Y-16272484D01*
X13833396Y-16272484D02*
X13833396Y-16072484D01*
X13833396Y-16072484D02*
X13814348Y-16101055D01*
X13814348Y-16101055D02*
X13795301Y-16120103D01*
X13795301Y-16120103D02*
X13776253Y-16129627D01*
X13976253Y-16253436D02*
X13985777Y-16262960D01*
X13985777Y-16262960D02*
X13976253Y-16272484D01*
X13976253Y-16272484D02*
X13966729Y-16262960D01*
X13966729Y-16262960D02*
X13976253Y-16253436D01*
X13976253Y-16253436D02*
X13976253Y-16272484D01*
X14109586Y-16072484D02*
X14128634Y-16072484D01*
X14128634Y-16072484D02*
X14147682Y-16082008D01*
X14147682Y-16082008D02*
X14157205Y-16091531D01*
X14157205Y-16091531D02*
X14166729Y-16110579D01*
X14166729Y-16110579D02*
X14176253Y-16148674D01*
X14176253Y-16148674D02*
X14176253Y-16196293D01*
X14176253Y-16196293D02*
X14166729Y-16234388D01*
X14166729Y-16234388D02*
X14157205Y-16253436D01*
X14157205Y-16253436D02*
X14147682Y-16262960D01*
X14147682Y-16262960D02*
X14128634Y-16272484D01*
X14128634Y-16272484D02*
X14109586Y-16272484D01*
X14109586Y-16272484D02*
X14090539Y-16262960D01*
X14090539Y-16262960D02*
X14081015Y-16253436D01*
X14081015Y-16253436D02*
X14071491Y-16234388D01*
X14071491Y-16234388D02*
X14061967Y-16196293D01*
X14061967Y-16196293D02*
X14061967Y-16148674D01*
X14061967Y-16148674D02*
X14071491Y-16110579D01*
X14071491Y-16110579D02*
X14081015Y-16091531D01*
X14081015Y-16091531D02*
X14090539Y-16082008D01*
X14090539Y-16082008D02*
X14109586Y-16072484D01*
X14300062Y-16072484D02*
X14319110Y-16072484D01*
X14319110Y-16072484D02*
X14338158Y-16082008D01*
X14338158Y-16082008D02*
X14347682Y-16091531D01*
X14347682Y-16091531D02*
X14357205Y-16110579D01*
X14357205Y-16110579D02*
X14366729Y-16148674D01*
X14366729Y-16148674D02*
X14366729Y-16196293D01*
X14366729Y-16196293D02*
X14357205Y-16234388D01*
X14357205Y-16234388D02*
X14347682Y-16253436D01*
X14347682Y-16253436D02*
X14338158Y-16262960D01*
X14338158Y-16262960D02*
X14319110Y-16272484D01*
X14319110Y-16272484D02*
X14300062Y-16272484D01*
X14300062Y-16272484D02*
X14281015Y-16262960D01*
X14281015Y-16262960D02*
X14271491Y-16253436D01*
X14271491Y-16253436D02*
X14261967Y-16234388D01*
X14261967Y-16234388D02*
X14252443Y-16196293D01*
X14252443Y-16196293D02*
X14252443Y-16148674D01*
X14252443Y-16148674D02*
X14261967Y-16110579D01*
X14261967Y-16110579D02*
X14271491Y-16091531D01*
X14271491Y-16091531D02*
X14281015Y-16082008D01*
X14281015Y-16082008D02*
X14300062Y-16072484D01*
X14490539Y-16072484D02*
X14509586Y-16072484D01*
X14509586Y-16072484D02*
X14528634Y-16082008D01*
X14528634Y-16082008D02*
X14538158Y-16091531D01*
X14538158Y-16091531D02*
X14547682Y-16110579D01*
X14547682Y-16110579D02*
X14557205Y-16148674D01*
X14557205Y-16148674D02*
X14557205Y-16196293D01*
X14557205Y-16196293D02*
X14547682Y-16234388D01*
X14547682Y-16234388D02*
X14538158Y-16253436D01*
X14538158Y-16253436D02*
X14528634Y-16262960D01*
X14528634Y-16262960D02*
X14509586Y-16272484D01*
X14509586Y-16272484D02*
X14490539Y-16272484D01*
X14490539Y-16272484D02*
X14471491Y-16262960D01*
X14471491Y-16262960D02*
X14461967Y-16253436D01*
X14461967Y-16253436D02*
X14452443Y-16234388D01*
X14452443Y-16234388D02*
X14442920Y-16196293D01*
X14442920Y-16196293D02*
X14442920Y-16148674D01*
X14442920Y-16148674D02*
X14452443Y-16110579D01*
X14452443Y-16110579D02*
X14461967Y-16091531D01*
X14461967Y-16091531D02*
X14471491Y-16082008D01*
X14471491Y-16082008D02*
X14490539Y-16072484D01*
X14642920Y-16272484D02*
X14642920Y-16139150D01*
X14642920Y-16158198D02*
X14652443Y-16148674D01*
X14652443Y-16148674D02*
X14671491Y-16139150D01*
X14671491Y-16139150D02*
X14700063Y-16139150D01*
X14700063Y-16139150D02*
X14719110Y-16148674D01*
X14719110Y-16148674D02*
X14728634Y-16167722D01*
X14728634Y-16167722D02*
X14728634Y-16272484D01*
X14728634Y-16167722D02*
X14738158Y-16148674D01*
X14738158Y-16148674D02*
X14757205Y-16139150D01*
X14757205Y-16139150D02*
X14785777Y-16139150D01*
X14785777Y-16139150D02*
X14804824Y-16148674D01*
X14804824Y-16148674D02*
X14814348Y-16167722D01*
X14814348Y-16167722D02*
X14814348Y-16272484D01*
X14909586Y-16272484D02*
X14909586Y-16139150D01*
X14909586Y-16158198D02*
X14919110Y-16148674D01*
X14919110Y-16148674D02*
X14938158Y-16139150D01*
X14938158Y-16139150D02*
X14966729Y-16139150D01*
X14966729Y-16139150D02*
X14985777Y-16148674D01*
X14985777Y-16148674D02*
X14995301Y-16167722D01*
X14995301Y-16167722D02*
X14995301Y-16272484D01*
X14995301Y-16167722D02*
X15004824Y-16148674D01*
X15004824Y-16148674D02*
X15023872Y-16139150D01*
X15023872Y-16139150D02*
X15052443Y-16139150D01*
X15052443Y-16139150D02*
X15071491Y-16148674D01*
X15071491Y-16148674D02*
X15081015Y-16167722D01*
X15081015Y-16167722D02*
X15081015Y-16272484D01*
X15471491Y-16062960D02*
X15300063Y-16320103D01*
X15728634Y-16072484D02*
X15747682Y-16072484D01*
X15747682Y-16072484D02*
X15766729Y-16082008D01*
X15766729Y-16082008D02*
X15776253Y-16091531D01*
X15776253Y-16091531D02*
X15785777Y-16110579D01*
X15785777Y-16110579D02*
X15795301Y-16148674D01*
X15795301Y-16148674D02*
X15795301Y-16196293D01*
X15795301Y-16196293D02*
X15785777Y-16234388D01*
X15785777Y-16234388D02*
X15776253Y-16253436D01*
X15776253Y-16253436D02*
X15766729Y-16262960D01*
X15766729Y-16262960D02*
X15747682Y-16272484D01*
X15747682Y-16272484D02*
X15728634Y-16272484D01*
X15728634Y-16272484D02*
X15709586Y-16262960D01*
X15709586Y-16262960D02*
X15700063Y-16253436D01*
X15700063Y-16253436D02*
X15690539Y-16234388D01*
X15690539Y-16234388D02*
X15681015Y-16196293D01*
X15681015Y-16196293D02*
X15681015Y-16148674D01*
X15681015Y-16148674D02*
X15690539Y-16110579D01*
X15690539Y-16110579D02*
X15700063Y-16091531D01*
X15700063Y-16091531D02*
X15709586Y-16082008D01*
X15709586Y-16082008D02*
X15728634Y-16072484D01*
X15881015Y-16253436D02*
X15890539Y-16262960D01*
X15890539Y-16262960D02*
X15881015Y-16272484D01*
X15881015Y-16272484D02*
X15871491Y-16262960D01*
X15871491Y-16262960D02*
X15881015Y-16253436D01*
X15881015Y-16253436D02*
X15881015Y-16272484D01*
X16014348Y-16072484D02*
X16033396Y-16072484D01*
X16033396Y-16072484D02*
X16052444Y-16082008D01*
X16052444Y-16082008D02*
X16061967Y-16091531D01*
X16061967Y-16091531D02*
X16071491Y-16110579D01*
X16071491Y-16110579D02*
X16081015Y-16148674D01*
X16081015Y-16148674D02*
X16081015Y-16196293D01*
X16081015Y-16196293D02*
X16071491Y-16234388D01*
X16071491Y-16234388D02*
X16061967Y-16253436D01*
X16061967Y-16253436D02*
X16052444Y-16262960D01*
X16052444Y-16262960D02*
X16033396Y-16272484D01*
X16033396Y-16272484D02*
X16014348Y-16272484D01*
X16014348Y-16272484D02*
X15995301Y-16262960D01*
X15995301Y-16262960D02*
X15985777Y-16253436D01*
X15985777Y-16253436D02*
X15976253Y-16234388D01*
X15976253Y-16234388D02*
X15966729Y-16196293D01*
X15966729Y-16196293D02*
X15966729Y-16148674D01*
X15966729Y-16148674D02*
X15976253Y-16110579D01*
X15976253Y-16110579D02*
X15985777Y-16091531D01*
X15985777Y-16091531D02*
X15995301Y-16082008D01*
X15995301Y-16082008D02*
X16014348Y-16072484D01*
X16147682Y-16072484D02*
X16271491Y-16072484D01*
X16271491Y-16072484D02*
X16204825Y-16148674D01*
X16204825Y-16148674D02*
X16233396Y-16148674D01*
X16233396Y-16148674D02*
X16252444Y-16158198D01*
X16252444Y-16158198D02*
X16261967Y-16167722D01*
X16261967Y-16167722D02*
X16271491Y-16186769D01*
X16271491Y-16186769D02*
X16271491Y-16234388D01*
X16271491Y-16234388D02*
X16261967Y-16253436D01*
X16261967Y-16253436D02*
X16252444Y-16262960D01*
X16252444Y-16262960D02*
X16233396Y-16272484D01*
X16233396Y-16272484D02*
X16176253Y-16272484D01*
X16176253Y-16272484D02*
X16157206Y-16262960D01*
X16157206Y-16262960D02*
X16147682Y-16253436D01*
X16366729Y-16272484D02*
X16404825Y-16272484D01*
X16404825Y-16272484D02*
X16423872Y-16262960D01*
X16423872Y-16262960D02*
X16433396Y-16253436D01*
X16433396Y-16253436D02*
X16452444Y-16224865D01*
X16452444Y-16224865D02*
X16461967Y-16186769D01*
X16461967Y-16186769D02*
X16461967Y-16110579D01*
X16461967Y-16110579D02*
X16452444Y-16091531D01*
X16452444Y-16091531D02*
X16442920Y-16082008D01*
X16442920Y-16082008D02*
X16423872Y-16072484D01*
X16423872Y-16072484D02*
X16385777Y-16072484D01*
X16385777Y-16072484D02*
X16366729Y-16082008D01*
X16366729Y-16082008D02*
X16357206Y-16091531D01*
X16357206Y-16091531D02*
X16347682Y-16110579D01*
X16347682Y-16110579D02*
X16347682Y-16158198D01*
X16347682Y-16158198D02*
X16357206Y-16177246D01*
X16357206Y-16177246D02*
X16366729Y-16186769D01*
X16366729Y-16186769D02*
X16385777Y-16196293D01*
X16385777Y-16196293D02*
X16423872Y-16196293D01*
X16423872Y-16196293D02*
X16442920Y-16186769D01*
X16442920Y-16186769D02*
X16452444Y-16177246D01*
X16452444Y-16177246D02*
X16461967Y-16158198D01*
X16633396Y-16139150D02*
X16633396Y-16272484D01*
X16585777Y-16062960D02*
X16538158Y-16205817D01*
X16538158Y-16205817D02*
X16661967Y-16205817D01*
X16728634Y-16072484D02*
X16728634Y-16110579D01*
X16804825Y-16072484D02*
X16804825Y-16110579D01*
X17100063Y-16348674D02*
X17090539Y-16339150D01*
X17090539Y-16339150D02*
X17071491Y-16310579D01*
X17071491Y-16310579D02*
X17061968Y-16291531D01*
X17061968Y-16291531D02*
X17052444Y-16262960D01*
X17052444Y-16262960D02*
X17042920Y-16215341D01*
X17042920Y-16215341D02*
X17042920Y-16177246D01*
X17042920Y-16177246D02*
X17052444Y-16129627D01*
X17052444Y-16129627D02*
X17061968Y-16101055D01*
X17061968Y-16101055D02*
X17071491Y-16082008D01*
X17071491Y-16082008D02*
X17090539Y-16053436D01*
X17090539Y-16053436D02*
X17100063Y-16043912D01*
X17166730Y-16091531D02*
X17176253Y-16082008D01*
X17176253Y-16082008D02*
X17195301Y-16072484D01*
X17195301Y-16072484D02*
X17242920Y-16072484D01*
X17242920Y-16072484D02*
X17261968Y-16082008D01*
X17261968Y-16082008D02*
X17271491Y-16091531D01*
X17271491Y-16091531D02*
X17281015Y-16110579D01*
X17281015Y-16110579D02*
X17281015Y-16129627D01*
X17281015Y-16129627D02*
X17271491Y-16158198D01*
X17271491Y-16158198D02*
X17157206Y-16272484D01*
X17157206Y-16272484D02*
X17281015Y-16272484D01*
X17519111Y-16272484D02*
X17519111Y-16072484D01*
X17604825Y-16272484D02*
X17604825Y-16167722D01*
X17604825Y-16167722D02*
X17595301Y-16148674D01*
X17595301Y-16148674D02*
X17576253Y-16139150D01*
X17576253Y-16139150D02*
X17547682Y-16139150D01*
X17547682Y-16139150D02*
X17528634Y-16148674D01*
X17528634Y-16148674D02*
X17519111Y-16158198D01*
X17728634Y-16272484D02*
X17709587Y-16262960D01*
X17709587Y-16262960D02*
X17700063Y-16253436D01*
X17700063Y-16253436D02*
X17690539Y-16234388D01*
X17690539Y-16234388D02*
X17690539Y-16177246D01*
X17690539Y-16177246D02*
X17700063Y-16158198D01*
X17700063Y-16158198D02*
X17709587Y-16148674D01*
X17709587Y-16148674D02*
X17728634Y-16139150D01*
X17728634Y-16139150D02*
X17757206Y-16139150D01*
X17757206Y-16139150D02*
X17776253Y-16148674D01*
X17776253Y-16148674D02*
X17785777Y-16158198D01*
X17785777Y-16158198D02*
X17795301Y-16177246D01*
X17795301Y-16177246D02*
X17795301Y-16234388D01*
X17795301Y-16234388D02*
X17785777Y-16253436D01*
X17785777Y-16253436D02*
X17776253Y-16262960D01*
X17776253Y-16262960D02*
X17757206Y-16272484D01*
X17757206Y-16272484D02*
X17728634Y-16272484D01*
X17909587Y-16272484D02*
X17890539Y-16262960D01*
X17890539Y-16262960D02*
X17881015Y-16243912D01*
X17881015Y-16243912D02*
X17881015Y-16072484D01*
X18061968Y-16262960D02*
X18042920Y-16272484D01*
X18042920Y-16272484D02*
X18004825Y-16272484D01*
X18004825Y-16272484D02*
X17985777Y-16262960D01*
X17985777Y-16262960D02*
X17976253Y-16243912D01*
X17976253Y-16243912D02*
X17976253Y-16167722D01*
X17976253Y-16167722D02*
X17985777Y-16148674D01*
X17985777Y-16148674D02*
X18004825Y-16139150D01*
X18004825Y-16139150D02*
X18042920Y-16139150D01*
X18042920Y-16139150D02*
X18061968Y-16148674D01*
X18061968Y-16148674D02*
X18071492Y-16167722D01*
X18071492Y-16167722D02*
X18071492Y-16186769D01*
X18071492Y-16186769D02*
X17976253Y-16205817D01*
X18147682Y-16262960D02*
X18166730Y-16272484D01*
X18166730Y-16272484D02*
X18204825Y-16272484D01*
X18204825Y-16272484D02*
X18223873Y-16262960D01*
X18223873Y-16262960D02*
X18233396Y-16243912D01*
X18233396Y-16243912D02*
X18233396Y-16234388D01*
X18233396Y-16234388D02*
X18223873Y-16215341D01*
X18223873Y-16215341D02*
X18204825Y-16205817D01*
X18204825Y-16205817D02*
X18176253Y-16205817D01*
X18176253Y-16205817D02*
X18157206Y-16196293D01*
X18157206Y-16196293D02*
X18147682Y-16177246D01*
X18147682Y-16177246D02*
X18147682Y-16167722D01*
X18147682Y-16167722D02*
X18157206Y-16148674D01*
X18157206Y-16148674D02*
X18176253Y-16139150D01*
X18176253Y-16139150D02*
X18204825Y-16139150D01*
X18204825Y-16139150D02*
X18223873Y-16148674D01*
X18471492Y-16196293D02*
X18623873Y-16196293D01*
X18547682Y-16272484D02*
X18547682Y-16120103D01*
X18957206Y-16072484D02*
X18919111Y-16072484D01*
X18919111Y-16072484D02*
X18900063Y-16082008D01*
X18900063Y-16082008D02*
X18890539Y-16091531D01*
X18890539Y-16091531D02*
X18871492Y-16120103D01*
X18871492Y-16120103D02*
X18861968Y-16158198D01*
X18861968Y-16158198D02*
X18861968Y-16234388D01*
X18861968Y-16234388D02*
X18871492Y-16253436D01*
X18871492Y-16253436D02*
X18881015Y-16262960D01*
X18881015Y-16262960D02*
X18900063Y-16272484D01*
X18900063Y-16272484D02*
X18938158Y-16272484D01*
X18938158Y-16272484D02*
X18957206Y-16262960D01*
X18957206Y-16262960D02*
X18966730Y-16253436D01*
X18966730Y-16253436D02*
X18976254Y-16234388D01*
X18976254Y-16234388D02*
X18976254Y-16186769D01*
X18976254Y-16186769D02*
X18966730Y-16167722D01*
X18966730Y-16167722D02*
X18957206Y-16158198D01*
X18957206Y-16158198D02*
X18938158Y-16148674D01*
X18938158Y-16148674D02*
X18900063Y-16148674D01*
X18900063Y-16148674D02*
X18881015Y-16158198D01*
X18881015Y-16158198D02*
X18871492Y-16167722D01*
X18871492Y-16167722D02*
X18861968Y-16186769D01*
X19204825Y-16262960D02*
X19223873Y-16272484D01*
X19223873Y-16272484D02*
X19261968Y-16272484D01*
X19261968Y-16272484D02*
X19281016Y-16262960D01*
X19281016Y-16262960D02*
X19290539Y-16243912D01*
X19290539Y-16243912D02*
X19290539Y-16234388D01*
X19290539Y-16234388D02*
X19281016Y-16215341D01*
X19281016Y-16215341D02*
X19261968Y-16205817D01*
X19261968Y-16205817D02*
X19233396Y-16205817D01*
X19233396Y-16205817D02*
X19214349Y-16196293D01*
X19214349Y-16196293D02*
X19204825Y-16177246D01*
X19204825Y-16177246D02*
X19204825Y-16167722D01*
X19204825Y-16167722D02*
X19214349Y-16148674D01*
X19214349Y-16148674D02*
X19233396Y-16139150D01*
X19233396Y-16139150D02*
X19261968Y-16139150D01*
X19261968Y-16139150D02*
X19281016Y-16148674D01*
X19404825Y-16272484D02*
X19385777Y-16262960D01*
X19385777Y-16262960D02*
X19376254Y-16243912D01*
X19376254Y-16243912D02*
X19376254Y-16072484D01*
X19509587Y-16272484D02*
X19490539Y-16262960D01*
X19490539Y-16262960D02*
X19481016Y-16253436D01*
X19481016Y-16253436D02*
X19471492Y-16234388D01*
X19471492Y-16234388D02*
X19471492Y-16177246D01*
X19471492Y-16177246D02*
X19481016Y-16158198D01*
X19481016Y-16158198D02*
X19490539Y-16148674D01*
X19490539Y-16148674D02*
X19509587Y-16139150D01*
X19509587Y-16139150D02*
X19538158Y-16139150D01*
X19538158Y-16139150D02*
X19557206Y-16148674D01*
X19557206Y-16148674D02*
X19566730Y-16158198D01*
X19566730Y-16158198D02*
X19576254Y-16177246D01*
X19576254Y-16177246D02*
X19576254Y-16234388D01*
X19576254Y-16234388D02*
X19566730Y-16253436D01*
X19566730Y-16253436D02*
X19557206Y-16262960D01*
X19557206Y-16262960D02*
X19538158Y-16272484D01*
X19538158Y-16272484D02*
X19509587Y-16272484D01*
X19633397Y-16139150D02*
X19709587Y-16139150D01*
X19661968Y-16072484D02*
X19661968Y-16243912D01*
X19661968Y-16243912D02*
X19671492Y-16262960D01*
X19671492Y-16262960D02*
X19690539Y-16272484D01*
X19690539Y-16272484D02*
X19709587Y-16272484D01*
X19766730Y-16262960D02*
X19785777Y-16272484D01*
X19785777Y-16272484D02*
X19823873Y-16272484D01*
X19823873Y-16272484D02*
X19842920Y-16262960D01*
X19842920Y-16262960D02*
X19852444Y-16243912D01*
X19852444Y-16243912D02*
X19852444Y-16234388D01*
X19852444Y-16234388D02*
X19842920Y-16215341D01*
X19842920Y-16215341D02*
X19823873Y-16205817D01*
X19823873Y-16205817D02*
X19795301Y-16205817D01*
X19795301Y-16205817D02*
X19776254Y-16196293D01*
X19776254Y-16196293D02*
X19766730Y-16177246D01*
X19766730Y-16177246D02*
X19766730Y-16167722D01*
X19766730Y-16167722D02*
X19776254Y-16148674D01*
X19776254Y-16148674D02*
X19795301Y-16139150D01*
X19795301Y-16139150D02*
X19823873Y-16139150D01*
X19823873Y-16139150D02*
X19842920Y-16148674D01*
X19919111Y-16348674D02*
X19928635Y-16339150D01*
X19928635Y-16339150D02*
X19947682Y-16310579D01*
X19947682Y-16310579D02*
X19957206Y-16291531D01*
X19957206Y-16291531D02*
X19966730Y-16262960D01*
X19966730Y-16262960D02*
X19976254Y-16215341D01*
X19976254Y-16215341D02*
X19976254Y-16177246D01*
X19976254Y-16177246D02*
X19966730Y-16129627D01*
X19966730Y-16129627D02*
X19957206Y-16101055D01*
X19957206Y-16101055D02*
X19947682Y-16082008D01*
X19947682Y-16082008D02*
X19928635Y-16053436D01*
X19928635Y-16053436D02*
X19919111Y-16043912D01*
D12*
X13340000Y-16352500D02*
X13525000Y-16537500D01*
X13525000Y-16352500D02*
X13340000Y-16537500D01*
X13525000Y-16445000D02*
G75*
G02*
X13340000Y-16445000I-92500J0D01*
G01*
X13340000Y-16445000D02*
G75*
G02*
X13525000Y-16445000I92500J0D01*
G01*
D11*
X13890539Y-16536484D02*
X13776253Y-16536484D01*
X13833396Y-16536484D02*
X13833396Y-16336484D01*
X13833396Y-16336484D02*
X13814348Y-16365055D01*
X13814348Y-16365055D02*
X13795301Y-16384103D01*
X13795301Y-16384103D02*
X13776253Y-16393627D01*
X13976253Y-16517436D02*
X13985777Y-16526960D01*
X13985777Y-16526960D02*
X13976253Y-16536484D01*
X13976253Y-16536484D02*
X13966729Y-16526960D01*
X13966729Y-16526960D02*
X13976253Y-16517436D01*
X13976253Y-16517436D02*
X13976253Y-16536484D01*
X14100062Y-16422198D02*
X14081015Y-16412674D01*
X14081015Y-16412674D02*
X14071491Y-16403150D01*
X14071491Y-16403150D02*
X14061967Y-16384103D01*
X14061967Y-16384103D02*
X14061967Y-16374579D01*
X14061967Y-16374579D02*
X14071491Y-16355531D01*
X14071491Y-16355531D02*
X14081015Y-16346008D01*
X14081015Y-16346008D02*
X14100062Y-16336484D01*
X14100062Y-16336484D02*
X14138158Y-16336484D01*
X14138158Y-16336484D02*
X14157205Y-16346008D01*
X14157205Y-16346008D02*
X14166729Y-16355531D01*
X14166729Y-16355531D02*
X14176253Y-16374579D01*
X14176253Y-16374579D02*
X14176253Y-16384103D01*
X14176253Y-16384103D02*
X14166729Y-16403150D01*
X14166729Y-16403150D02*
X14157205Y-16412674D01*
X14157205Y-16412674D02*
X14138158Y-16422198D01*
X14138158Y-16422198D02*
X14100062Y-16422198D01*
X14100062Y-16422198D02*
X14081015Y-16431722D01*
X14081015Y-16431722D02*
X14071491Y-16441246D01*
X14071491Y-16441246D02*
X14061967Y-16460293D01*
X14061967Y-16460293D02*
X14061967Y-16498388D01*
X14061967Y-16498388D02*
X14071491Y-16517436D01*
X14071491Y-16517436D02*
X14081015Y-16526960D01*
X14081015Y-16526960D02*
X14100062Y-16536484D01*
X14100062Y-16536484D02*
X14138158Y-16536484D01*
X14138158Y-16536484D02*
X14157205Y-16526960D01*
X14157205Y-16526960D02*
X14166729Y-16517436D01*
X14166729Y-16517436D02*
X14176253Y-16498388D01*
X14176253Y-16498388D02*
X14176253Y-16460293D01*
X14176253Y-16460293D02*
X14166729Y-16441246D01*
X14166729Y-16441246D02*
X14157205Y-16431722D01*
X14157205Y-16431722D02*
X14138158Y-16422198D01*
X14357205Y-16336484D02*
X14261967Y-16336484D01*
X14261967Y-16336484D02*
X14252443Y-16431722D01*
X14252443Y-16431722D02*
X14261967Y-16422198D01*
X14261967Y-16422198D02*
X14281015Y-16412674D01*
X14281015Y-16412674D02*
X14328634Y-16412674D01*
X14328634Y-16412674D02*
X14347682Y-16422198D01*
X14347682Y-16422198D02*
X14357205Y-16431722D01*
X14357205Y-16431722D02*
X14366729Y-16450769D01*
X14366729Y-16450769D02*
X14366729Y-16498388D01*
X14366729Y-16498388D02*
X14357205Y-16517436D01*
X14357205Y-16517436D02*
X14347682Y-16526960D01*
X14347682Y-16526960D02*
X14328634Y-16536484D01*
X14328634Y-16536484D02*
X14281015Y-16536484D01*
X14281015Y-16536484D02*
X14261967Y-16526960D01*
X14261967Y-16526960D02*
X14252443Y-16517436D01*
X14490539Y-16336484D02*
X14509586Y-16336484D01*
X14509586Y-16336484D02*
X14528634Y-16346008D01*
X14528634Y-16346008D02*
X14538158Y-16355531D01*
X14538158Y-16355531D02*
X14547682Y-16374579D01*
X14547682Y-16374579D02*
X14557205Y-16412674D01*
X14557205Y-16412674D02*
X14557205Y-16460293D01*
X14557205Y-16460293D02*
X14547682Y-16498388D01*
X14547682Y-16498388D02*
X14538158Y-16517436D01*
X14538158Y-16517436D02*
X14528634Y-16526960D01*
X14528634Y-16526960D02*
X14509586Y-16536484D01*
X14509586Y-16536484D02*
X14490539Y-16536484D01*
X14490539Y-16536484D02*
X14471491Y-16526960D01*
X14471491Y-16526960D02*
X14461967Y-16517436D01*
X14461967Y-16517436D02*
X14452443Y-16498388D01*
X14452443Y-16498388D02*
X14442920Y-16460293D01*
X14442920Y-16460293D02*
X14442920Y-16412674D01*
X14442920Y-16412674D02*
X14452443Y-16374579D01*
X14452443Y-16374579D02*
X14461967Y-16355531D01*
X14461967Y-16355531D02*
X14471491Y-16346008D01*
X14471491Y-16346008D02*
X14490539Y-16336484D01*
X14642920Y-16536484D02*
X14642920Y-16403150D01*
X14642920Y-16422198D02*
X14652443Y-16412674D01*
X14652443Y-16412674D02*
X14671491Y-16403150D01*
X14671491Y-16403150D02*
X14700063Y-16403150D01*
X14700063Y-16403150D02*
X14719110Y-16412674D01*
X14719110Y-16412674D02*
X14728634Y-16431722D01*
X14728634Y-16431722D02*
X14728634Y-16536484D01*
X14728634Y-16431722D02*
X14738158Y-16412674D01*
X14738158Y-16412674D02*
X14757205Y-16403150D01*
X14757205Y-16403150D02*
X14785777Y-16403150D01*
X14785777Y-16403150D02*
X14804824Y-16412674D01*
X14804824Y-16412674D02*
X14814348Y-16431722D01*
X14814348Y-16431722D02*
X14814348Y-16536484D01*
X14909586Y-16536484D02*
X14909586Y-16403150D01*
X14909586Y-16422198D02*
X14919110Y-16412674D01*
X14919110Y-16412674D02*
X14938158Y-16403150D01*
X14938158Y-16403150D02*
X14966729Y-16403150D01*
X14966729Y-16403150D02*
X14985777Y-16412674D01*
X14985777Y-16412674D02*
X14995301Y-16431722D01*
X14995301Y-16431722D02*
X14995301Y-16536484D01*
X14995301Y-16431722D02*
X15004824Y-16412674D01*
X15004824Y-16412674D02*
X15023872Y-16403150D01*
X15023872Y-16403150D02*
X15052443Y-16403150D01*
X15052443Y-16403150D02*
X15071491Y-16412674D01*
X15071491Y-16412674D02*
X15081015Y-16431722D01*
X15081015Y-16431722D02*
X15081015Y-16536484D01*
X15471491Y-16326960D02*
X15300063Y-16584103D01*
X15728634Y-16336484D02*
X15747682Y-16336484D01*
X15747682Y-16336484D02*
X15766729Y-16346008D01*
X15766729Y-16346008D02*
X15776253Y-16355531D01*
X15776253Y-16355531D02*
X15785777Y-16374579D01*
X15785777Y-16374579D02*
X15795301Y-16412674D01*
X15795301Y-16412674D02*
X15795301Y-16460293D01*
X15795301Y-16460293D02*
X15785777Y-16498388D01*
X15785777Y-16498388D02*
X15776253Y-16517436D01*
X15776253Y-16517436D02*
X15766729Y-16526960D01*
X15766729Y-16526960D02*
X15747682Y-16536484D01*
X15747682Y-16536484D02*
X15728634Y-16536484D01*
X15728634Y-16536484D02*
X15709586Y-16526960D01*
X15709586Y-16526960D02*
X15700063Y-16517436D01*
X15700063Y-16517436D02*
X15690539Y-16498388D01*
X15690539Y-16498388D02*
X15681015Y-16460293D01*
X15681015Y-16460293D02*
X15681015Y-16412674D01*
X15681015Y-16412674D02*
X15690539Y-16374579D01*
X15690539Y-16374579D02*
X15700063Y-16355531D01*
X15700063Y-16355531D02*
X15709586Y-16346008D01*
X15709586Y-16346008D02*
X15728634Y-16336484D01*
X15881015Y-16517436D02*
X15890539Y-16526960D01*
X15890539Y-16526960D02*
X15881015Y-16536484D01*
X15881015Y-16536484D02*
X15871491Y-16526960D01*
X15871491Y-16526960D02*
X15881015Y-16517436D01*
X15881015Y-16517436D02*
X15881015Y-16536484D01*
X16014348Y-16336484D02*
X16033396Y-16336484D01*
X16033396Y-16336484D02*
X16052444Y-16346008D01*
X16052444Y-16346008D02*
X16061967Y-16355531D01*
X16061967Y-16355531D02*
X16071491Y-16374579D01*
X16071491Y-16374579D02*
X16081015Y-16412674D01*
X16081015Y-16412674D02*
X16081015Y-16460293D01*
X16081015Y-16460293D02*
X16071491Y-16498388D01*
X16071491Y-16498388D02*
X16061967Y-16517436D01*
X16061967Y-16517436D02*
X16052444Y-16526960D01*
X16052444Y-16526960D02*
X16033396Y-16536484D01*
X16033396Y-16536484D02*
X16014348Y-16536484D01*
X16014348Y-16536484D02*
X15995301Y-16526960D01*
X15995301Y-16526960D02*
X15985777Y-16517436D01*
X15985777Y-16517436D02*
X15976253Y-16498388D01*
X15976253Y-16498388D02*
X15966729Y-16460293D01*
X15966729Y-16460293D02*
X15966729Y-16412674D01*
X15966729Y-16412674D02*
X15976253Y-16374579D01*
X15976253Y-16374579D02*
X15985777Y-16355531D01*
X15985777Y-16355531D02*
X15995301Y-16346008D01*
X15995301Y-16346008D02*
X16014348Y-16336484D01*
X16147682Y-16336484D02*
X16281015Y-16336484D01*
X16281015Y-16336484D02*
X16195301Y-16536484D01*
X16347682Y-16355531D02*
X16357206Y-16346008D01*
X16357206Y-16346008D02*
X16376253Y-16336484D01*
X16376253Y-16336484D02*
X16423872Y-16336484D01*
X16423872Y-16336484D02*
X16442920Y-16346008D01*
X16442920Y-16346008D02*
X16452444Y-16355531D01*
X16452444Y-16355531D02*
X16461967Y-16374579D01*
X16461967Y-16374579D02*
X16461967Y-16393627D01*
X16461967Y-16393627D02*
X16452444Y-16422198D01*
X16452444Y-16422198D02*
X16338158Y-16536484D01*
X16338158Y-16536484D02*
X16461967Y-16536484D01*
X16576253Y-16422198D02*
X16557206Y-16412674D01*
X16557206Y-16412674D02*
X16547682Y-16403150D01*
X16547682Y-16403150D02*
X16538158Y-16384103D01*
X16538158Y-16384103D02*
X16538158Y-16374579D01*
X16538158Y-16374579D02*
X16547682Y-16355531D01*
X16547682Y-16355531D02*
X16557206Y-16346008D01*
X16557206Y-16346008D02*
X16576253Y-16336484D01*
X16576253Y-16336484D02*
X16614348Y-16336484D01*
X16614348Y-16336484D02*
X16633396Y-16346008D01*
X16633396Y-16346008D02*
X16642920Y-16355531D01*
X16642920Y-16355531D02*
X16652444Y-16374579D01*
X16652444Y-16374579D02*
X16652444Y-16384103D01*
X16652444Y-16384103D02*
X16642920Y-16403150D01*
X16642920Y-16403150D02*
X16633396Y-16412674D01*
X16633396Y-16412674D02*
X16614348Y-16422198D01*
X16614348Y-16422198D02*
X16576253Y-16422198D01*
X16576253Y-16422198D02*
X16557206Y-16431722D01*
X16557206Y-16431722D02*
X16547682Y-16441246D01*
X16547682Y-16441246D02*
X16538158Y-16460293D01*
X16538158Y-16460293D02*
X16538158Y-16498388D01*
X16538158Y-16498388D02*
X16547682Y-16517436D01*
X16547682Y-16517436D02*
X16557206Y-16526960D01*
X16557206Y-16526960D02*
X16576253Y-16536484D01*
X16576253Y-16536484D02*
X16614348Y-16536484D01*
X16614348Y-16536484D02*
X16633396Y-16526960D01*
X16633396Y-16526960D02*
X16642920Y-16517436D01*
X16642920Y-16517436D02*
X16652444Y-16498388D01*
X16652444Y-16498388D02*
X16652444Y-16460293D01*
X16652444Y-16460293D02*
X16642920Y-16441246D01*
X16642920Y-16441246D02*
X16633396Y-16431722D01*
X16633396Y-16431722D02*
X16614348Y-16422198D01*
X16728634Y-16336484D02*
X16728634Y-16374579D01*
X16804825Y-16336484D02*
X16804825Y-16374579D01*
X17100063Y-16612674D02*
X17090539Y-16603150D01*
X17090539Y-16603150D02*
X17071491Y-16574579D01*
X17071491Y-16574579D02*
X17061968Y-16555531D01*
X17061968Y-16555531D02*
X17052444Y-16526960D01*
X17052444Y-16526960D02*
X17042920Y-16479341D01*
X17042920Y-16479341D02*
X17042920Y-16441246D01*
X17042920Y-16441246D02*
X17052444Y-16393627D01*
X17052444Y-16393627D02*
X17061968Y-16365055D01*
X17061968Y-16365055D02*
X17071491Y-16346008D01*
X17071491Y-16346008D02*
X17090539Y-16317436D01*
X17090539Y-16317436D02*
X17100063Y-16307912D01*
X17281015Y-16536484D02*
X17166730Y-16536484D01*
X17223872Y-16536484D02*
X17223872Y-16336484D01*
X17223872Y-16336484D02*
X17204825Y-16365055D01*
X17204825Y-16365055D02*
X17185777Y-16384103D01*
X17185777Y-16384103D02*
X17166730Y-16393627D01*
X17395301Y-16422198D02*
X17376253Y-16412674D01*
X17376253Y-16412674D02*
X17366730Y-16403150D01*
X17366730Y-16403150D02*
X17357206Y-16384103D01*
X17357206Y-16384103D02*
X17357206Y-16374579D01*
X17357206Y-16374579D02*
X17366730Y-16355531D01*
X17366730Y-16355531D02*
X17376253Y-16346008D01*
X17376253Y-16346008D02*
X17395301Y-16336484D01*
X17395301Y-16336484D02*
X17433396Y-16336484D01*
X17433396Y-16336484D02*
X17452444Y-16346008D01*
X17452444Y-16346008D02*
X17461968Y-16355531D01*
X17461968Y-16355531D02*
X17471491Y-16374579D01*
X17471491Y-16374579D02*
X17471491Y-16384103D01*
X17471491Y-16384103D02*
X17461968Y-16403150D01*
X17461968Y-16403150D02*
X17452444Y-16412674D01*
X17452444Y-16412674D02*
X17433396Y-16422198D01*
X17433396Y-16422198D02*
X17395301Y-16422198D01*
X17395301Y-16422198D02*
X17376253Y-16431722D01*
X17376253Y-16431722D02*
X17366730Y-16441246D01*
X17366730Y-16441246D02*
X17357206Y-16460293D01*
X17357206Y-16460293D02*
X17357206Y-16498388D01*
X17357206Y-16498388D02*
X17366730Y-16517436D01*
X17366730Y-16517436D02*
X17376253Y-16526960D01*
X17376253Y-16526960D02*
X17395301Y-16536484D01*
X17395301Y-16536484D02*
X17433396Y-16536484D01*
X17433396Y-16536484D02*
X17452444Y-16526960D01*
X17452444Y-16526960D02*
X17461968Y-16517436D01*
X17461968Y-16517436D02*
X17471491Y-16498388D01*
X17471491Y-16498388D02*
X17471491Y-16460293D01*
X17471491Y-16460293D02*
X17461968Y-16441246D01*
X17461968Y-16441246D02*
X17452444Y-16431722D01*
X17452444Y-16431722D02*
X17433396Y-16422198D01*
X17709587Y-16536484D02*
X17709587Y-16336484D01*
X17795301Y-16536484D02*
X17795301Y-16431722D01*
X17795301Y-16431722D02*
X17785777Y-16412674D01*
X17785777Y-16412674D02*
X17766730Y-16403150D01*
X17766730Y-16403150D02*
X17738158Y-16403150D01*
X17738158Y-16403150D02*
X17719111Y-16412674D01*
X17719111Y-16412674D02*
X17709587Y-16422198D01*
X17919111Y-16536484D02*
X17900063Y-16526960D01*
X17900063Y-16526960D02*
X17890539Y-16517436D01*
X17890539Y-16517436D02*
X17881015Y-16498388D01*
X17881015Y-16498388D02*
X17881015Y-16441246D01*
X17881015Y-16441246D02*
X17890539Y-16422198D01*
X17890539Y-16422198D02*
X17900063Y-16412674D01*
X17900063Y-16412674D02*
X17919111Y-16403150D01*
X17919111Y-16403150D02*
X17947682Y-16403150D01*
X17947682Y-16403150D02*
X17966730Y-16412674D01*
X17966730Y-16412674D02*
X17976253Y-16422198D01*
X17976253Y-16422198D02*
X17985777Y-16441246D01*
X17985777Y-16441246D02*
X17985777Y-16498388D01*
X17985777Y-16498388D02*
X17976253Y-16517436D01*
X17976253Y-16517436D02*
X17966730Y-16526960D01*
X17966730Y-16526960D02*
X17947682Y-16536484D01*
X17947682Y-16536484D02*
X17919111Y-16536484D01*
X18100063Y-16536484D02*
X18081015Y-16526960D01*
X18081015Y-16526960D02*
X18071492Y-16507912D01*
X18071492Y-16507912D02*
X18071492Y-16336484D01*
X18252444Y-16526960D02*
X18233396Y-16536484D01*
X18233396Y-16536484D02*
X18195301Y-16536484D01*
X18195301Y-16536484D02*
X18176253Y-16526960D01*
X18176253Y-16526960D02*
X18166730Y-16507912D01*
X18166730Y-16507912D02*
X18166730Y-16431722D01*
X18166730Y-16431722D02*
X18176253Y-16412674D01*
X18176253Y-16412674D02*
X18195301Y-16403150D01*
X18195301Y-16403150D02*
X18233396Y-16403150D01*
X18233396Y-16403150D02*
X18252444Y-16412674D01*
X18252444Y-16412674D02*
X18261968Y-16431722D01*
X18261968Y-16431722D02*
X18261968Y-16450769D01*
X18261968Y-16450769D02*
X18166730Y-16469817D01*
X18338158Y-16526960D02*
X18357206Y-16536484D01*
X18357206Y-16536484D02*
X18395301Y-16536484D01*
X18395301Y-16536484D02*
X18414349Y-16526960D01*
X18414349Y-16526960D02*
X18423873Y-16507912D01*
X18423873Y-16507912D02*
X18423873Y-16498388D01*
X18423873Y-16498388D02*
X18414349Y-16479341D01*
X18414349Y-16479341D02*
X18395301Y-16469817D01*
X18395301Y-16469817D02*
X18366730Y-16469817D01*
X18366730Y-16469817D02*
X18347682Y-16460293D01*
X18347682Y-16460293D02*
X18338158Y-16441246D01*
X18338158Y-16441246D02*
X18338158Y-16431722D01*
X18338158Y-16431722D02*
X18347682Y-16412674D01*
X18347682Y-16412674D02*
X18366730Y-16403150D01*
X18366730Y-16403150D02*
X18395301Y-16403150D01*
X18395301Y-16403150D02*
X18414349Y-16412674D01*
X18490539Y-16612674D02*
X18500063Y-16603150D01*
X18500063Y-16603150D02*
X18519111Y-16574579D01*
X18519111Y-16574579D02*
X18528634Y-16555531D01*
X18528634Y-16555531D02*
X18538158Y-16526960D01*
X18538158Y-16526960D02*
X18547682Y-16479341D01*
X18547682Y-16479341D02*
X18547682Y-16441246D01*
X18547682Y-16441246D02*
X18538158Y-16393627D01*
X18538158Y-16393627D02*
X18528634Y-16365055D01*
X18528634Y-16365055D02*
X18519111Y-16346008D01*
X18519111Y-16346008D02*
X18500063Y-16317436D01*
X18500063Y-16317436D02*
X18490539Y-16307912D01*
X13325000Y-16650000D02*
X13525000Y-16850000D01*
X13525000Y-16650000D02*
X13325000Y-16850000D01*
X13425000Y-16650000D02*
X13425000Y-16850000D01*
X13325000Y-16750000D02*
X13525000Y-16750000D01*
X13776253Y-16660531D02*
X13785777Y-16651008D01*
X13785777Y-16651008D02*
X13804824Y-16641484D01*
X13804824Y-16641484D02*
X13852443Y-16641484D01*
X13852443Y-16641484D02*
X13871491Y-16651008D01*
X13871491Y-16651008D02*
X13881015Y-16660531D01*
X13881015Y-16660531D02*
X13890539Y-16679579D01*
X13890539Y-16679579D02*
X13890539Y-16698627D01*
X13890539Y-16698627D02*
X13881015Y-16727198D01*
X13881015Y-16727198D02*
X13766729Y-16841484D01*
X13766729Y-16841484D02*
X13890539Y-16841484D01*
X13976253Y-16822436D02*
X13985777Y-16831960D01*
X13985777Y-16831960D02*
X13976253Y-16841484D01*
X13976253Y-16841484D02*
X13966729Y-16831960D01*
X13966729Y-16831960D02*
X13976253Y-16822436D01*
X13976253Y-16822436D02*
X13976253Y-16841484D01*
X14109586Y-16641484D02*
X14128634Y-16641484D01*
X14128634Y-16641484D02*
X14147682Y-16651008D01*
X14147682Y-16651008D02*
X14157205Y-16660531D01*
X14157205Y-16660531D02*
X14166729Y-16679579D01*
X14166729Y-16679579D02*
X14176253Y-16717674D01*
X14176253Y-16717674D02*
X14176253Y-16765293D01*
X14176253Y-16765293D02*
X14166729Y-16803389D01*
X14166729Y-16803389D02*
X14157205Y-16822436D01*
X14157205Y-16822436D02*
X14147682Y-16831960D01*
X14147682Y-16831960D02*
X14128634Y-16841484D01*
X14128634Y-16841484D02*
X14109586Y-16841484D01*
X14109586Y-16841484D02*
X14090539Y-16831960D01*
X14090539Y-16831960D02*
X14081015Y-16822436D01*
X14081015Y-16822436D02*
X14071491Y-16803389D01*
X14071491Y-16803389D02*
X14061967Y-16765293D01*
X14061967Y-16765293D02*
X14061967Y-16717674D01*
X14061967Y-16717674D02*
X14071491Y-16679579D01*
X14071491Y-16679579D02*
X14081015Y-16660531D01*
X14081015Y-16660531D02*
X14090539Y-16651008D01*
X14090539Y-16651008D02*
X14109586Y-16641484D01*
X14300062Y-16641484D02*
X14319110Y-16641484D01*
X14319110Y-16641484D02*
X14338158Y-16651008D01*
X14338158Y-16651008D02*
X14347682Y-16660531D01*
X14347682Y-16660531D02*
X14357205Y-16679579D01*
X14357205Y-16679579D02*
X14366729Y-16717674D01*
X14366729Y-16717674D02*
X14366729Y-16765293D01*
X14366729Y-16765293D02*
X14357205Y-16803389D01*
X14357205Y-16803389D02*
X14347682Y-16822436D01*
X14347682Y-16822436D02*
X14338158Y-16831960D01*
X14338158Y-16831960D02*
X14319110Y-16841484D01*
X14319110Y-16841484D02*
X14300062Y-16841484D01*
X14300062Y-16841484D02*
X14281015Y-16831960D01*
X14281015Y-16831960D02*
X14271491Y-16822436D01*
X14271491Y-16822436D02*
X14261967Y-16803389D01*
X14261967Y-16803389D02*
X14252443Y-16765293D01*
X14252443Y-16765293D02*
X14252443Y-16717674D01*
X14252443Y-16717674D02*
X14261967Y-16679579D01*
X14261967Y-16679579D02*
X14271491Y-16660531D01*
X14271491Y-16660531D02*
X14281015Y-16651008D01*
X14281015Y-16651008D02*
X14300062Y-16641484D01*
X14490539Y-16641484D02*
X14509586Y-16641484D01*
X14509586Y-16641484D02*
X14528634Y-16651008D01*
X14528634Y-16651008D02*
X14538158Y-16660531D01*
X14538158Y-16660531D02*
X14547682Y-16679579D01*
X14547682Y-16679579D02*
X14557205Y-16717674D01*
X14557205Y-16717674D02*
X14557205Y-16765293D01*
X14557205Y-16765293D02*
X14547682Y-16803389D01*
X14547682Y-16803389D02*
X14538158Y-16822436D01*
X14538158Y-16822436D02*
X14528634Y-16831960D01*
X14528634Y-16831960D02*
X14509586Y-16841484D01*
X14509586Y-16841484D02*
X14490539Y-16841484D01*
X14490539Y-16841484D02*
X14471491Y-16831960D01*
X14471491Y-16831960D02*
X14461967Y-16822436D01*
X14461967Y-16822436D02*
X14452443Y-16803389D01*
X14452443Y-16803389D02*
X14442920Y-16765293D01*
X14442920Y-16765293D02*
X14442920Y-16717674D01*
X14442920Y-16717674D02*
X14452443Y-16679579D01*
X14452443Y-16679579D02*
X14461967Y-16660531D01*
X14461967Y-16660531D02*
X14471491Y-16651008D01*
X14471491Y-16651008D02*
X14490539Y-16641484D01*
X14642920Y-16841484D02*
X14642920Y-16708150D01*
X14642920Y-16727198D02*
X14652443Y-16717674D01*
X14652443Y-16717674D02*
X14671491Y-16708150D01*
X14671491Y-16708150D02*
X14700063Y-16708150D01*
X14700063Y-16708150D02*
X14719110Y-16717674D01*
X14719110Y-16717674D02*
X14728634Y-16736722D01*
X14728634Y-16736722D02*
X14728634Y-16841484D01*
X14728634Y-16736722D02*
X14738158Y-16717674D01*
X14738158Y-16717674D02*
X14757205Y-16708150D01*
X14757205Y-16708150D02*
X14785777Y-16708150D01*
X14785777Y-16708150D02*
X14804824Y-16717674D01*
X14804824Y-16717674D02*
X14814348Y-16736722D01*
X14814348Y-16736722D02*
X14814348Y-16841484D01*
X14909586Y-16841484D02*
X14909586Y-16708150D01*
X14909586Y-16727198D02*
X14919110Y-16717674D01*
X14919110Y-16717674D02*
X14938158Y-16708150D01*
X14938158Y-16708150D02*
X14966729Y-16708150D01*
X14966729Y-16708150D02*
X14985777Y-16717674D01*
X14985777Y-16717674D02*
X14995301Y-16736722D01*
X14995301Y-16736722D02*
X14995301Y-16841484D01*
X14995301Y-16736722D02*
X15004824Y-16717674D01*
X15004824Y-16717674D02*
X15023872Y-16708150D01*
X15023872Y-16708150D02*
X15052443Y-16708150D01*
X15052443Y-16708150D02*
X15071491Y-16717674D01*
X15071491Y-16717674D02*
X15081015Y-16736722D01*
X15081015Y-16736722D02*
X15081015Y-16841484D01*
X15471491Y-16631960D02*
X15300063Y-16889103D01*
X15728634Y-16641484D02*
X15747682Y-16641484D01*
X15747682Y-16641484D02*
X15766729Y-16651008D01*
X15766729Y-16651008D02*
X15776253Y-16660531D01*
X15776253Y-16660531D02*
X15785777Y-16679579D01*
X15785777Y-16679579D02*
X15795301Y-16717674D01*
X15795301Y-16717674D02*
X15795301Y-16765293D01*
X15795301Y-16765293D02*
X15785777Y-16803389D01*
X15785777Y-16803389D02*
X15776253Y-16822436D01*
X15776253Y-16822436D02*
X15766729Y-16831960D01*
X15766729Y-16831960D02*
X15747682Y-16841484D01*
X15747682Y-16841484D02*
X15728634Y-16841484D01*
X15728634Y-16841484D02*
X15709586Y-16831960D01*
X15709586Y-16831960D02*
X15700063Y-16822436D01*
X15700063Y-16822436D02*
X15690539Y-16803389D01*
X15690539Y-16803389D02*
X15681015Y-16765293D01*
X15681015Y-16765293D02*
X15681015Y-16717674D01*
X15681015Y-16717674D02*
X15690539Y-16679579D01*
X15690539Y-16679579D02*
X15700063Y-16660531D01*
X15700063Y-16660531D02*
X15709586Y-16651008D01*
X15709586Y-16651008D02*
X15728634Y-16641484D01*
X15881015Y-16822436D02*
X15890539Y-16831960D01*
X15890539Y-16831960D02*
X15881015Y-16841484D01*
X15881015Y-16841484D02*
X15871491Y-16831960D01*
X15871491Y-16831960D02*
X15881015Y-16822436D01*
X15881015Y-16822436D02*
X15881015Y-16841484D01*
X16014348Y-16641484D02*
X16033396Y-16641484D01*
X16033396Y-16641484D02*
X16052444Y-16651008D01*
X16052444Y-16651008D02*
X16061967Y-16660531D01*
X16061967Y-16660531D02*
X16071491Y-16679579D01*
X16071491Y-16679579D02*
X16081015Y-16717674D01*
X16081015Y-16717674D02*
X16081015Y-16765293D01*
X16081015Y-16765293D02*
X16071491Y-16803389D01*
X16071491Y-16803389D02*
X16061967Y-16822436D01*
X16061967Y-16822436D02*
X16052444Y-16831960D01*
X16052444Y-16831960D02*
X16033396Y-16841484D01*
X16033396Y-16841484D02*
X16014348Y-16841484D01*
X16014348Y-16841484D02*
X15995301Y-16831960D01*
X15995301Y-16831960D02*
X15985777Y-16822436D01*
X15985777Y-16822436D02*
X15976253Y-16803389D01*
X15976253Y-16803389D02*
X15966729Y-16765293D01*
X15966729Y-16765293D02*
X15966729Y-16717674D01*
X15966729Y-16717674D02*
X15976253Y-16679579D01*
X15976253Y-16679579D02*
X15985777Y-16660531D01*
X15985777Y-16660531D02*
X15995301Y-16651008D01*
X15995301Y-16651008D02*
X16014348Y-16641484D01*
X16147682Y-16641484D02*
X16281015Y-16641484D01*
X16281015Y-16641484D02*
X16195301Y-16841484D01*
X16385777Y-16727198D02*
X16366729Y-16717674D01*
X16366729Y-16717674D02*
X16357206Y-16708150D01*
X16357206Y-16708150D02*
X16347682Y-16689103D01*
X16347682Y-16689103D02*
X16347682Y-16679579D01*
X16347682Y-16679579D02*
X16357206Y-16660531D01*
X16357206Y-16660531D02*
X16366729Y-16651008D01*
X16366729Y-16651008D02*
X16385777Y-16641484D01*
X16385777Y-16641484D02*
X16423872Y-16641484D01*
X16423872Y-16641484D02*
X16442920Y-16651008D01*
X16442920Y-16651008D02*
X16452444Y-16660531D01*
X16452444Y-16660531D02*
X16461967Y-16679579D01*
X16461967Y-16679579D02*
X16461967Y-16689103D01*
X16461967Y-16689103D02*
X16452444Y-16708150D01*
X16452444Y-16708150D02*
X16442920Y-16717674D01*
X16442920Y-16717674D02*
X16423872Y-16727198D01*
X16423872Y-16727198D02*
X16385777Y-16727198D01*
X16385777Y-16727198D02*
X16366729Y-16736722D01*
X16366729Y-16736722D02*
X16357206Y-16746246D01*
X16357206Y-16746246D02*
X16347682Y-16765293D01*
X16347682Y-16765293D02*
X16347682Y-16803389D01*
X16347682Y-16803389D02*
X16357206Y-16822436D01*
X16357206Y-16822436D02*
X16366729Y-16831960D01*
X16366729Y-16831960D02*
X16385777Y-16841484D01*
X16385777Y-16841484D02*
X16423872Y-16841484D01*
X16423872Y-16841484D02*
X16442920Y-16831960D01*
X16442920Y-16831960D02*
X16452444Y-16822436D01*
X16452444Y-16822436D02*
X16461967Y-16803389D01*
X16461967Y-16803389D02*
X16461967Y-16765293D01*
X16461967Y-16765293D02*
X16452444Y-16746246D01*
X16452444Y-16746246D02*
X16442920Y-16736722D01*
X16442920Y-16736722D02*
X16423872Y-16727198D01*
X16528634Y-16641484D02*
X16661967Y-16641484D01*
X16661967Y-16641484D02*
X16576253Y-16841484D01*
X16728634Y-16641484D02*
X16728634Y-16679579D01*
X16804825Y-16641484D02*
X16804825Y-16679579D01*
X17100063Y-16917674D02*
X17090539Y-16908150D01*
X17090539Y-16908150D02*
X17071491Y-16879579D01*
X17071491Y-16879579D02*
X17061968Y-16860531D01*
X17061968Y-16860531D02*
X17052444Y-16831960D01*
X17052444Y-16831960D02*
X17042920Y-16784341D01*
X17042920Y-16784341D02*
X17042920Y-16746246D01*
X17042920Y-16746246D02*
X17052444Y-16698627D01*
X17052444Y-16698627D02*
X17061968Y-16670055D01*
X17061968Y-16670055D02*
X17071491Y-16651008D01*
X17071491Y-16651008D02*
X17090539Y-16622436D01*
X17090539Y-16622436D02*
X17100063Y-16612912D01*
X17204825Y-16727198D02*
X17185777Y-16717674D01*
X17185777Y-16717674D02*
X17176253Y-16708150D01*
X17176253Y-16708150D02*
X17166730Y-16689103D01*
X17166730Y-16689103D02*
X17166730Y-16679579D01*
X17166730Y-16679579D02*
X17176253Y-16660531D01*
X17176253Y-16660531D02*
X17185777Y-16651008D01*
X17185777Y-16651008D02*
X17204825Y-16641484D01*
X17204825Y-16641484D02*
X17242920Y-16641484D01*
X17242920Y-16641484D02*
X17261968Y-16651008D01*
X17261968Y-16651008D02*
X17271491Y-16660531D01*
X17271491Y-16660531D02*
X17281015Y-16679579D01*
X17281015Y-16679579D02*
X17281015Y-16689103D01*
X17281015Y-16689103D02*
X17271491Y-16708150D01*
X17271491Y-16708150D02*
X17261968Y-16717674D01*
X17261968Y-16717674D02*
X17242920Y-16727198D01*
X17242920Y-16727198D02*
X17204825Y-16727198D01*
X17204825Y-16727198D02*
X17185777Y-16736722D01*
X17185777Y-16736722D02*
X17176253Y-16746246D01*
X17176253Y-16746246D02*
X17166730Y-16765293D01*
X17166730Y-16765293D02*
X17166730Y-16803389D01*
X17166730Y-16803389D02*
X17176253Y-16822436D01*
X17176253Y-16822436D02*
X17185777Y-16831960D01*
X17185777Y-16831960D02*
X17204825Y-16841484D01*
X17204825Y-16841484D02*
X17242920Y-16841484D01*
X17242920Y-16841484D02*
X17261968Y-16831960D01*
X17261968Y-16831960D02*
X17271491Y-16822436D01*
X17271491Y-16822436D02*
X17281015Y-16803389D01*
X17281015Y-16803389D02*
X17281015Y-16765293D01*
X17281015Y-16765293D02*
X17271491Y-16746246D01*
X17271491Y-16746246D02*
X17261968Y-16736722D01*
X17261968Y-16736722D02*
X17242920Y-16727198D01*
X17519111Y-16841484D02*
X17519111Y-16641484D01*
X17604825Y-16841484D02*
X17604825Y-16736722D01*
X17604825Y-16736722D02*
X17595301Y-16717674D01*
X17595301Y-16717674D02*
X17576253Y-16708150D01*
X17576253Y-16708150D02*
X17547682Y-16708150D01*
X17547682Y-16708150D02*
X17528634Y-16717674D01*
X17528634Y-16717674D02*
X17519111Y-16727198D01*
X17728634Y-16841484D02*
X17709587Y-16831960D01*
X17709587Y-16831960D02*
X17700063Y-16822436D01*
X17700063Y-16822436D02*
X17690539Y-16803389D01*
X17690539Y-16803389D02*
X17690539Y-16746246D01*
X17690539Y-16746246D02*
X17700063Y-16727198D01*
X17700063Y-16727198D02*
X17709587Y-16717674D01*
X17709587Y-16717674D02*
X17728634Y-16708150D01*
X17728634Y-16708150D02*
X17757206Y-16708150D01*
X17757206Y-16708150D02*
X17776253Y-16717674D01*
X17776253Y-16717674D02*
X17785777Y-16727198D01*
X17785777Y-16727198D02*
X17795301Y-16746246D01*
X17795301Y-16746246D02*
X17795301Y-16803389D01*
X17795301Y-16803389D02*
X17785777Y-16822436D01*
X17785777Y-16822436D02*
X17776253Y-16831960D01*
X17776253Y-16831960D02*
X17757206Y-16841484D01*
X17757206Y-16841484D02*
X17728634Y-16841484D01*
X17909587Y-16841484D02*
X17890539Y-16831960D01*
X17890539Y-16831960D02*
X17881015Y-16812912D01*
X17881015Y-16812912D02*
X17881015Y-16641484D01*
X18061968Y-16831960D02*
X18042920Y-16841484D01*
X18042920Y-16841484D02*
X18004825Y-16841484D01*
X18004825Y-16841484D02*
X17985777Y-16831960D01*
X17985777Y-16831960D02*
X17976253Y-16812912D01*
X17976253Y-16812912D02*
X17976253Y-16736722D01*
X17976253Y-16736722D02*
X17985777Y-16717674D01*
X17985777Y-16717674D02*
X18004825Y-16708150D01*
X18004825Y-16708150D02*
X18042920Y-16708150D01*
X18042920Y-16708150D02*
X18061968Y-16717674D01*
X18061968Y-16717674D02*
X18071492Y-16736722D01*
X18071492Y-16736722D02*
X18071492Y-16755769D01*
X18071492Y-16755769D02*
X17976253Y-16774817D01*
X18147682Y-16831960D02*
X18166730Y-16841484D01*
X18166730Y-16841484D02*
X18204825Y-16841484D01*
X18204825Y-16841484D02*
X18223873Y-16831960D01*
X18223873Y-16831960D02*
X18233396Y-16812912D01*
X18233396Y-16812912D02*
X18233396Y-16803389D01*
X18233396Y-16803389D02*
X18223873Y-16784341D01*
X18223873Y-16784341D02*
X18204825Y-16774817D01*
X18204825Y-16774817D02*
X18176253Y-16774817D01*
X18176253Y-16774817D02*
X18157206Y-16765293D01*
X18157206Y-16765293D02*
X18147682Y-16746246D01*
X18147682Y-16746246D02*
X18147682Y-16736722D01*
X18147682Y-16736722D02*
X18157206Y-16717674D01*
X18157206Y-16717674D02*
X18176253Y-16708150D01*
X18176253Y-16708150D02*
X18204825Y-16708150D01*
X18204825Y-16708150D02*
X18223873Y-16717674D01*
X18300063Y-16917674D02*
X18309587Y-16908150D01*
X18309587Y-16908150D02*
X18328634Y-16879579D01*
X18328634Y-16879579D02*
X18338158Y-16860531D01*
X18338158Y-16860531D02*
X18347682Y-16831960D01*
X18347682Y-16831960D02*
X18357206Y-16784341D01*
X18357206Y-16784341D02*
X18357206Y-16746246D01*
X18357206Y-16746246D02*
X18347682Y-16698627D01*
X18347682Y-16698627D02*
X18338158Y-16670055D01*
X18338158Y-16670055D02*
X18328634Y-16651008D01*
X18328634Y-16651008D02*
X18309587Y-16622436D01*
X18309587Y-16622436D02*
X18300063Y-16612912D01*
M02*
