M48
; DRILL file {KiCad 9.0.2+dfsg-1} date 2025-07-12T21:44:13+0100
; FORMAT={-:-/ absolute / metric / decimal}
; #@! TF.CreationDate,2025-07-12T21:44:13+01:00
; #@! TF.GenerationSoftware,Kicad,Pcbnew,9.0.2+dfsg-1
; #@! TF.FileFunction,Plated,1,6,PTH
FMAT,2
METRIC
; #@! TA.AperFunction,Plated,PTH,ViaDrill
T1C0.300
; #@! TA.AperFunction,Plated,PTH,ComponentDrill
T2C0.600
; #@! TA.AperFunction,Plated,PTH,ComponentDrill
T3C0.800
; #@! TA.AperFunction,Plated,PTH,ComponentDrill
T4C0.850
; #@! TA.AperFunction,Plated,PTH,ComponentDrill
T5C1.000
; #@! TA.AperFunction,Plated,PTH,ComponentDrill
T6C1.850
; #@! TA.AperFunction,Plated,PTH,ComponentDrill
T7C2.000
%
G90
G05
T1
X142.75Y-123.7
X142.75Y-128.7
X142.75Y-138.7
X142.8Y-31.825
X142.8Y-36.825
X142.8Y-41.825
X142.8Y-46.825
X142.8Y-51.825
X142.8Y-56.825
X142.8Y-61.825
X142.8Y-66.825
X142.8Y-76.825
X142.8Y-81.825
X142.8Y-86.825
X142.8Y-91.825
X142.8Y-96.825
X142.8Y-101.825
X142.8Y-106.825
X142.8Y-111.825
X145.8Y-114.775
X145.8Y-119.125
X145.8Y-135.775
X147.1Y-132.625
X148.065Y-26.825
X148.065Y-31.825
X148.065Y-36.825
X148.065Y-41.825
X148.065Y-51.825
X148.065Y-56.825
X148.065Y-61.825
X148.065Y-66.825
X148.065Y-71.825
X148.065Y-76.825
X148.065Y-81.825
X148.065Y-86.825
X148.065Y-91.825
X148.065Y-96.825
X148.065Y-101.825
X148.065Y-106.825
X148.065Y-111.825
X148.7Y-122.875
X150.25Y-128.525
X150.3Y-134.125
X150.775Y-130.475
X150.8Y-114.775
X150.8Y-119.125
X150.8Y-138.775
X151.5Y-122.875
X153.065Y-26.825
X153.065Y-31.825
X153.065Y-41.825
X153.065Y-46.825
X153.065Y-51.825
X153.065Y-56.825
X153.065Y-61.825
X153.065Y-66.825
X153.065Y-71.825
X153.065Y-76.825
X153.065Y-81.825
X153.065Y-86.825
X153.065Y-91.825
X153.065Y-96.825
X153.065Y-101.825
X153.55Y-129.025
X156.05Y-104.575
X156.55Y-122.325
X156.6Y-132.95
X156.6Y-135.75
X156.6Y-138.675
X158.0Y-116.575
X158.05Y-111.775
X158.065Y-41.825
X158.065Y-46.825
X158.065Y-51.825
X158.065Y-56.825
X158.065Y-61.825
X158.065Y-66.825
X158.065Y-71.825
X158.065Y-76.825
X158.065Y-81.825
X158.065Y-86.825
X158.065Y-91.825
X158.065Y-96.825
X158.065Y-101.825
X158.3Y-118.75
X159.85Y-130.3
X159.85Y-132.95
X159.85Y-135.75
X159.85Y-138.675
X163.0Y-116.575
X163.05Y-111.775
X163.065Y-41.825
X163.065Y-51.825
X163.065Y-56.825
X163.065Y-61.825
X163.065Y-66.825
X163.065Y-71.825
X163.065Y-76.825
X163.065Y-81.825
X163.065Y-86.825
X163.065Y-91.825
X163.065Y-96.825
X163.725Y-120.775
X163.897Y-122.375
X165.325Y-119.175
X167.1Y-117.537
X168.05Y-111.775
X168.05Y-117.537
X168.065Y-41.825
X168.065Y-51.825
X168.065Y-56.825
X168.065Y-61.825
X168.065Y-66.825
X168.065Y-71.825
X168.065Y-76.825
X168.065Y-81.825
X168.065Y-86.825
X168.065Y-91.825
X168.145Y-28.83
X168.59Y-125.175
X168.8Y-98.325
X169.0Y-117.537
X169.05Y-114.375
X169.55Y-125.175
X169.6Y-102.685
X169.985Y-132.975
X169.985Y-135.775
X169.985Y-138.7
X170.0Y-130.325
X170.838Y-121.825
X171.75Y-27.745
X172.1Y-41.825
X172.2Y-102.685
X172.25Y-30.125
X172.5Y-95.785
X172.6Y-117.818
X172.8Y-125.155
X172.836Y-123.051
X173.065Y-46.825
X173.065Y-51.825
X173.065Y-56.825
X173.065Y-61.825
X173.065Y-66.825
X173.065Y-71.825
X173.065Y-76.825
X173.065Y-81.825
X173.065Y-86.825
X173.065Y-91.825
X173.32Y-27.755
X173.45Y-130.3
X173.45Y-132.95
X173.45Y-135.75
X173.45Y-138.675
X173.764Y-123.299
X174.7Y-101.685
X174.8Y-117.825
X176.09Y-95.425
X176.71Y-125.175
X176.86Y-27.735
X177.1Y-130.325
X177.1Y-132.975
X177.1Y-135.775
X177.1Y-138.7
X177.875Y-30.1
X177.875Y-114.375
X177.945Y-115.975
X177.95Y-117.825
X178.037Y-121.825
X178.05Y-111.775
X178.065Y-51.825
X178.065Y-56.825
X178.065Y-61.825
X178.065Y-66.825
X178.065Y-71.825
X178.065Y-76.825
X178.065Y-81.825
X178.065Y-86.825
X178.065Y-91.825
X179.35Y-26.925
X179.8Y-122.795
X179.8Y-123.755
X179.825Y-117.562
X180.0Y-45.7
X180.9Y-45.675
X181.9Y-115.625
X181.9Y-117.5
X182.0Y-123.175
X182.0Y-124.375
X182.15Y-30.4
X182.4Y-125.575
X183.05Y-106.775
X183.065Y-36.825
X183.065Y-41.825
X183.065Y-46.825
X183.065Y-61.825
X183.065Y-66.825
X183.065Y-71.825
X183.065Y-76.825
X183.065Y-81.825
X183.065Y-86.825
X183.065Y-91.825
X183.065Y-96.825
X183.3Y-33.45
X184.35Y-30.075
X185.15Y-35.85
X185.8Y-34.675
X186.3Y-30.075
X186.5Y-37.1
X186.546Y-33.621
X186.8Y-52.1
X187.2Y-117.075
X187.3Y-34.675
X187.635Y-132.975
X187.635Y-135.775
X187.635Y-138.7
X187.65Y-130.325
X187.8Y-46.95
X188.0Y-111.225
X188.065Y-56.825
X188.065Y-66.825
X188.065Y-71.825
X188.065Y-76.825
X188.065Y-81.825
X188.065Y-86.825
X188.065Y-91.825
X188.065Y-96.825
X188.065Y-101.825
X188.065Y-106.775
X188.25Y-30.075
X189.3Y-33.4
X190.2Y-79.6
X190.25Y-30.4
X190.95Y-49.375
X191.05Y-130.3
X191.05Y-132.95
X191.05Y-135.75
X191.05Y-138.675
X191.5Y-122.825
X191.5Y-125.125
X191.8Y-119.325
X191.8Y-127.525
X192.1Y-111.225
X192.4Y-71.6
X192.4Y-74.6
X193.065Y-26.825
X193.065Y-31.825
X193.065Y-56.825
X193.065Y-76.825
X193.065Y-91.825
X193.065Y-96.825
X193.065Y-101.825
X193.065Y-106.825
X193.2Y-79.7
X193.8Y-83.575
X194.05Y-45.545
X194.153Y-68.432
X194.6Y-82.5
X194.7Y-130.325
X194.7Y-132.975
X194.7Y-135.775
X194.95Y-53.1
X197.2Y-31.375
X197.2Y-75.475
X197.4Y-84.85
X197.7Y-136.9
X198.0Y-111.275
X198.065Y-26.825
X198.065Y-56.825
X198.065Y-91.825
X198.065Y-96.825
X198.065Y-101.825
X198.065Y-106.825
X198.53Y-86.05
X198.7Y-35.775
X198.8Y-50.125
X199.4Y-86.05
X200.4Y-136.55
X200.6Y-131.1
X201.2Y-87.175
X201.2Y-125.7
X201.35Y-46.175
X201.45Y-58.825
X201.45Y-59.925
X202.8Y-131.1
X203.065Y-26.825
X203.065Y-31.825
X203.065Y-36.825
X203.065Y-56.825
X203.065Y-91.825
X203.065Y-96.825
X203.065Y-101.825
X203.065Y-106.825
X203.065Y-136.475
X204.8Y-126.7
X205.3Y-85.4
X205.8Y-134.5
X206.9Y-79.675
X207.4Y-26.825
X207.4Y-31.825
X207.4Y-36.825
X207.4Y-42.8
X207.4Y-46.825
X207.4Y-51.825
X207.4Y-61.825
X207.4Y-66.825
X207.4Y-91.825
X207.4Y-96.825
X207.4Y-101.825
X207.4Y-106.825
X207.4Y-111.825
X207.4Y-126.825
X207.4Y-136.825
X212.45Y-123.7
X212.45Y-128.7
X212.45Y-138.7
X212.5Y-31.825
X212.5Y-36.825
X212.5Y-41.825
X212.5Y-46.825
X212.5Y-51.825
X212.5Y-56.825
X212.5Y-61.825
X212.5Y-66.825
X212.5Y-76.825
X212.5Y-81.825
X212.5Y-86.825
X212.5Y-91.825
X212.5Y-96.825
X212.5Y-101.825
X212.5Y-106.825
X212.5Y-111.825
X215.5Y-114.775
X215.5Y-119.125
X215.5Y-135.775
X216.8Y-132.625
X217.765Y-26.825
X217.765Y-31.825
X217.765Y-36.825
X217.765Y-41.825
X217.765Y-51.825
X217.765Y-56.825
X217.765Y-61.825
X217.765Y-66.825
X217.765Y-71.825
X217.765Y-76.825
X217.765Y-81.825
X217.765Y-86.825
X217.765Y-91.825
X217.765Y-96.825
X217.765Y-101.825
X217.765Y-106.825
X217.765Y-111.825
X218.4Y-122.875
X219.95Y-128.525
X220.0Y-134.125
X220.475Y-130.475
X220.5Y-114.775
X220.5Y-119.125
X220.5Y-138.775
X221.2Y-122.875
X222.765Y-26.825
X222.765Y-31.825
X222.765Y-41.825
X222.765Y-46.825
X222.765Y-51.825
X222.765Y-56.825
X222.765Y-61.825
X222.765Y-66.825
X222.765Y-71.825
X222.765Y-76.825
X222.765Y-81.825
X222.765Y-86.825
X222.765Y-91.825
X222.765Y-96.825
X222.765Y-101.825
X223.25Y-129.025
X225.75Y-104.575
X226.25Y-122.325
X226.3Y-132.95
X226.3Y-135.75
X226.3Y-138.675
X227.7Y-116.575
X227.75Y-111.775
X227.765Y-41.825
X227.765Y-46.825
X227.765Y-51.825
X227.765Y-56.825
X227.765Y-61.825
X227.765Y-66.825
X227.765Y-71.825
X227.765Y-76.825
X227.765Y-81.825
X227.765Y-86.825
X227.765Y-91.825
X227.765Y-96.825
X227.765Y-101.825
X228.0Y-118.75
X229.55Y-130.3
X229.55Y-132.95
X229.55Y-135.75
X229.55Y-138.675
X232.7Y-116.575
X232.75Y-111.775
X232.765Y-41.825
X232.765Y-51.825
X232.765Y-56.825
X232.765Y-61.825
X232.765Y-66.825
X232.765Y-71.825
X232.765Y-76.825
X232.765Y-81.825
X232.765Y-86.825
X232.765Y-91.825
X232.765Y-96.825
X233.425Y-120.775
X233.596Y-122.375
X235.025Y-119.175
X236.8Y-117.537
X237.75Y-111.775
X237.75Y-117.537
X237.765Y-41.825
X237.765Y-51.825
X237.765Y-56.825
X237.765Y-61.825
X237.765Y-66.825
X237.765Y-71.825
X237.765Y-76.825
X237.765Y-81.825
X237.765Y-86.825
X237.765Y-91.825
X237.845Y-28.83
X238.29Y-125.175
X238.5Y-98.325
X238.7Y-117.537
X238.75Y-114.375
X239.25Y-125.175
X239.3Y-102.685
X239.685Y-132.975
X239.685Y-135.775
X239.685Y-138.7
X239.7Y-130.325
X240.537Y-121.825
X241.45Y-27.745
X241.8Y-41.825
X241.9Y-102.685
X241.95Y-30.125
X242.2Y-95.785
X242.3Y-117.818
X242.5Y-125.155
X242.536Y-123.051
X242.765Y-46.825
X242.765Y-51.825
X242.765Y-56.825
X242.765Y-61.825
X242.765Y-66.825
X242.765Y-71.825
X242.765Y-76.825
X242.765Y-81.825
X242.765Y-86.825
X242.765Y-91.825
X243.02Y-27.755
X243.15Y-130.3
X243.15Y-132.95
X243.15Y-135.75
X243.15Y-138.675
X243.464Y-123.299
X244.4Y-101.685
X244.5Y-117.825
X245.79Y-95.425
X246.41Y-125.175
X246.56Y-27.735
X246.8Y-130.325
X246.8Y-132.975
X246.8Y-135.775
X246.8Y-138.7
X247.575Y-30.1
X247.575Y-114.375
X247.645Y-115.975
X247.65Y-117.825
X247.737Y-121.825
X247.75Y-111.775
X247.765Y-51.825
X247.765Y-56.825
X247.765Y-61.825
X247.765Y-66.825
X247.765Y-71.825
X247.765Y-76.825
X247.765Y-81.825
X247.765Y-86.825
X247.765Y-91.825
X249.05Y-26.925
X249.5Y-122.795
X249.5Y-123.755
X249.525Y-117.562
X249.7Y-45.7
X250.6Y-45.675
X251.6Y-115.625
X251.6Y-117.5
X251.7Y-123.175
X251.7Y-124.375
X251.85Y-30.4
X252.1Y-125.575
X252.75Y-106.775
X252.765Y-36.825
X252.765Y-41.825
X252.765Y-46.825
X252.765Y-61.825
X252.765Y-66.825
X252.765Y-71.825
X252.765Y-76.825
X252.765Y-81.825
X252.765Y-86.825
X252.765Y-91.825
X252.765Y-96.825
X253.0Y-33.45
X254.05Y-30.075
X254.85Y-35.85
X255.5Y-34.675
X256.0Y-30.075
X256.2Y-37.1
X256.246Y-33.621
X256.5Y-52.1
X256.9Y-117.075
X257.0Y-34.675
X257.335Y-132.975
X257.335Y-135.775
X257.335Y-138.7
X257.35Y-130.325
X257.5Y-46.95
X257.7Y-111.225
X257.765Y-56.825
X257.765Y-66.825
X257.765Y-71.825
X257.765Y-76.825
X257.765Y-81.825
X257.765Y-86.825
X257.765Y-91.825
X257.765Y-96.825
X257.765Y-101.825
X257.765Y-106.775
X257.95Y-30.075
X259.0Y-33.4
X259.9Y-79.6
X259.95Y-30.4
X260.65Y-49.375
X260.75Y-130.3
X260.75Y-132.95
X260.75Y-135.75
X260.75Y-138.675
X261.2Y-122.825
X261.2Y-125.125
X261.5Y-119.325
X261.5Y-127.525
X261.8Y-111.225
X262.1Y-71.6
X262.1Y-74.6
X262.765Y-26.825
X262.765Y-31.825
X262.765Y-56.825
X262.765Y-76.825
X262.765Y-91.825
X262.765Y-96.825
X262.765Y-101.825
X262.765Y-106.825
X262.9Y-79.7
X263.5Y-83.575
X263.75Y-45.545
X263.853Y-68.432
X264.3Y-82.5
X264.4Y-130.325
X264.4Y-132.975
X264.4Y-135.775
X264.65Y-53.1
X266.9Y-31.375
X266.9Y-75.475
X267.1Y-84.85
X267.4Y-136.9
X267.7Y-111.275
X267.765Y-26.825
X267.765Y-56.825
X267.765Y-91.825
X267.765Y-96.825
X267.765Y-101.825
X267.765Y-106.825
X268.23Y-86.05
X268.4Y-35.775
X268.5Y-50.125
X269.1Y-86.05
X270.1Y-136.55
X270.3Y-131.1
X270.9Y-87.175
X270.9Y-125.7
X271.05Y-46.175
X271.15Y-58.825
X271.15Y-59.925
X272.5Y-131.1
X272.765Y-26.825
X272.765Y-31.825
X272.765Y-36.825
X272.765Y-56.825
X272.765Y-91.825
X272.765Y-96.825
X272.765Y-101.825
X272.765Y-106.825
X272.765Y-136.475
X274.5Y-126.7
X275.0Y-85.4
X275.5Y-134.5
X276.6Y-79.675
X277.1Y-26.825
X277.1Y-31.825
X277.1Y-36.825
X277.1Y-42.8
X277.1Y-46.825
X277.1Y-51.825
X277.1Y-61.825
X277.1Y-66.825
X277.1Y-91.825
X277.1Y-96.825
X277.1Y-101.825
X277.1Y-106.825
X277.1Y-111.825
X277.1Y-126.825
X277.1Y-136.825
T4
X162.26Y-132.085
X162.26Y-137.165
X164.8Y-134.625
X167.34Y-132.085
X167.34Y-137.165
X180.26Y-132.085
X180.26Y-137.165
X182.8Y-134.625
X185.34Y-132.085
X185.34Y-137.165
X231.96Y-132.085
X231.96Y-137.165
X234.5Y-134.625
X237.04Y-132.085
X237.04Y-137.165
X249.96Y-132.085
X249.96Y-137.165
X252.5Y-134.625
X255.04Y-132.085
X255.04Y-137.165
T5
X191.2Y-35.0
X260.9Y-35.0
T6
X194.1Y-116.5
X194.1Y-120.31
X194.1Y-124.12
X198.8Y-116.5
X198.8Y-120.31
X198.8Y-124.12
X203.5Y-116.5
X203.5Y-120.31
X203.5Y-124.12
X263.8Y-116.5
X263.8Y-120.31
X263.8Y-124.12
X268.5Y-116.5
X268.5Y-120.31
X268.5Y-124.12
X273.2Y-116.5
X273.2Y-120.31
X273.2Y-124.12
T7
X154.35Y-38.9
X154.35Y-111.25
X173.45Y-38.9
X173.45Y-111.25
X224.05Y-38.9
X224.05Y-111.25
X243.15Y-38.9
X243.15Y-111.25
T2
X181.989Y-27.515G85X181.989Y-26.015
G05
X181.989Y-32.625G85X181.989Y-31.625
G05
X190.629Y-27.515G85X190.629Y-26.015
G05
X190.629Y-32.625G85X190.629Y-31.625
G05
X251.689Y-27.515G85X251.689Y-26.015
G05
X251.689Y-32.625G85X251.689Y-31.625
G05
X260.329Y-27.515G85X260.329Y-26.015
G05
X260.329Y-32.625G85X260.329Y-31.625
G05
T3
X145.45Y-124.025G85X146.75Y-124.025
G05
X148.45Y-126.325G85X149.75Y-126.325
G05
X148.45Y-136.325G85X149.75Y-136.325
G05
X195.735Y-138.47G85X196.785Y-138.47
G05
X200.815Y-138.47G85X201.865Y-138.47
G05
X215.15Y-124.025G85X216.45Y-124.025
G05
X218.15Y-126.325G85X219.45Y-126.325
G05
X218.15Y-136.325G85X219.45Y-136.325
G05
X265.435Y-138.47G85X266.485Y-138.47
G05
X270.515Y-138.47G85X271.565Y-138.47
G05
T5
X195.1Y-34.775G85X195.1Y-36.775
G05
X200.8Y-32.775G85X198.8Y-32.775
G05
X200.8Y-38.775G85X198.8Y-38.775
G05
X264.8Y-34.775G85X264.8Y-36.775
G05
X270.5Y-32.775G85X268.5Y-32.775
G05
X270.5Y-38.775G85X268.5Y-38.775
G05
M30
