%TF.GenerationSoftware,KiCad,Pcbnew,9.0.2+dfsg-1*%
%TF.CreationDate,2025-07-12T21:44:10+01:00*%
%TF.ProjectId,low-noise-power-probe-panel,6c6f772d-6e6f-4697-9365-2d706f776572,rev?*%
%TF.SameCoordinates,Original*%
%TF.FileFunction,Paste,Top*%
%TF.FilePolarity,Positive*%
%FSLAX46Y46*%
G04 Gerber Fmt 4.6, Leading zero omitted, Abs format (unit mm)*
G04 Created by KiCad (PCBNEW 9.0.2+dfsg-1) date 2025-07-12 21:44:10*
%MOMM*%
%LPD*%
G01*
G04 APERTURE LIST*
G04 Aperture macros list*
%AMRoundRect*
0 Rectangle with rounded corners*
0 $1 Rounding radius*
0 $2 $3 $4 $5 $6 $7 $8 $9 X,Y pos of 4 corners*
0 Add a 4 corners polygon primitive as box body*
4,1,4,$2,$3,$4,$5,$6,$7,$8,$9,$2,$3,0*
0 Add four circle primitives for the rounded corners*
1,1,$1+$1,$2,$3*
1,1,$1+$1,$4,$5*
1,1,$1+$1,$6,$7*
1,1,$1+$1,$8,$9*
0 Add four rect primitives between the rounded corners*
20,1,$1+$1,$2,$3,$4,$5,0*
20,1,$1+$1,$4,$5,$6,$7,0*
20,1,$1+$1,$6,$7,$8,$9,0*
20,1,$1+$1,$8,$9,$2,$3,0*%
%AMFreePoly0*
4,1,9,3.862500,-0.866500,0.737500,-0.866500,0.737500,-0.450000,-0.737500,-0.450000,-0.737500,0.450000,0.737500,0.450000,0.737500,0.866500,3.862500,0.866500,3.862500,-0.866500,3.862500,-0.866500,$1*%
G04 Aperture macros list end*
%ADD10RoundRect,0.140000X-0.140000X-0.170000X0.140000X-0.170000X0.140000X0.170000X-0.140000X0.170000X0*%
%ADD11RoundRect,0.225000X-0.375000X0.225000X-0.375000X-0.225000X0.375000X-0.225000X0.375000X0.225000X0*%
%ADD12RoundRect,0.200000X0.200000X0.275000X-0.200000X0.275000X-0.200000X-0.275000X0.200000X-0.275000X0*%
%ADD13RoundRect,0.200000X0.275000X-0.200000X0.275000X0.200000X-0.275000X0.200000X-0.275000X-0.200000X0*%
%ADD14RoundRect,0.200000X-0.200000X-0.275000X0.200000X-0.275000X0.200000X0.275000X-0.200000X0.275000X0*%
%ADD15RoundRect,0.112500X0.112500X-0.187500X0.112500X0.187500X-0.112500X0.187500X-0.112500X-0.187500X0*%
%ADD16RoundRect,0.150000X-0.825000X-0.150000X0.825000X-0.150000X0.825000X0.150000X-0.825000X0.150000X0*%
%ADD17RoundRect,0.140000X-0.170000X0.140000X-0.170000X-0.140000X0.170000X-0.140000X0.170000X0.140000X0*%
%ADD18R,0.600000X0.450000*%
%ADD19RoundRect,0.140000X-0.179229X-0.127973X0.091230X-0.200442X0.179229X0.127973X-0.091230X0.200442X0*%
%ADD20RoundRect,0.200000X-0.275000X0.200000X-0.275000X-0.200000X0.275000X-0.200000X0.275000X0.200000X0*%
%ADD21RoundRect,0.112500X0.187500X0.112500X-0.187500X0.112500X-0.187500X-0.112500X0.187500X-0.112500X0*%
%ADD22RoundRect,0.250000X0.475000X-0.250000X0.475000X0.250000X-0.475000X0.250000X-0.475000X-0.250000X0*%
%ADD23R,0.300000X0.700000*%
%ADD24R,1.000000X0.700000*%
%ADD25RoundRect,0.150000X0.512500X0.150000X-0.512500X0.150000X-0.512500X-0.150000X0.512500X-0.150000X0*%
%ADD26RoundRect,0.250000X-0.625000X0.375000X-0.625000X-0.375000X0.625000X-0.375000X0.625000X0.375000X0*%
%ADD27R,1.050000X0.600000*%
%ADD28R,0.300000X0.650000*%
%ADD29RoundRect,0.140000X0.140000X0.170000X-0.140000X0.170000X-0.140000X-0.170000X0.140000X-0.170000X0*%
%ADD30RoundRect,0.250000X-0.475000X0.250000X-0.475000X-0.250000X0.475000X-0.250000X0.475000X0.250000X0*%
%ADD31RoundRect,0.167500X-0.312500X0.167500X-0.312500X-0.167500X0.312500X-0.167500X0.312500X0.167500X0*%
%ADD32RoundRect,0.062500X-0.062500X0.362500X-0.062500X-0.362500X0.062500X-0.362500X0.062500X0.362500X0*%
%ADD33R,0.900000X1.300000*%
%ADD34FreePoly0,270.000000*%
%ADD35RoundRect,0.250000X-1.450000X0.312500X-1.450000X-0.312500X1.450000X-0.312500X1.450000X0.312500X0*%
G04 APERTURE END LIST*
%TO.C,J9*%
G36*
X239600000Y-117275000D02*
G01*
X240700000Y-117275000D01*
X240700000Y-118075000D01*
X239600000Y-118075000D01*
X239600000Y-117275000D01*
G37*
G36*
X242250000Y-117275000D02*
G01*
X243350000Y-117275000D01*
X243350000Y-118075000D01*
X242250000Y-118075000D01*
X242250000Y-117275000D01*
G37*
G36*
X244900000Y-117275000D02*
G01*
X246000000Y-117275000D01*
X246000000Y-118075000D01*
X244900000Y-118075000D01*
X244900000Y-117275000D01*
G37*
%TO.C,J11*%
G36*
X170000000Y-129275000D02*
G01*
X171100000Y-129275000D01*
X171100000Y-130075000D01*
X170000000Y-130075000D01*
X170000000Y-129275000D01*
G37*
G36*
X172650000Y-129275000D02*
G01*
X173750000Y-129275000D01*
X173750000Y-130075000D01*
X172650000Y-130075000D01*
X172650000Y-129275000D01*
G37*
G36*
X175300000Y-129275000D02*
G01*
X176400000Y-129275000D01*
X176400000Y-130075000D01*
X175300000Y-130075000D01*
X175300000Y-129275000D01*
G37*
G36*
X239700000Y-129275000D02*
G01*
X240800000Y-129275000D01*
X240800000Y-130075000D01*
X239700000Y-130075000D01*
X239700000Y-129275000D01*
G37*
G36*
X242350000Y-129275000D02*
G01*
X243450000Y-129275000D01*
X243450000Y-130075000D01*
X242350000Y-130075000D01*
X242350000Y-129275000D01*
G37*
G36*
X245000000Y-129275000D02*
G01*
X246100000Y-129275000D01*
X246100000Y-130075000D01*
X245000000Y-130075000D01*
X245000000Y-129275000D01*
G37*
%TO.C,J8*%
G36*
X226600000Y-120475000D02*
G01*
X225800000Y-120475000D01*
X225800000Y-121575000D01*
X226600000Y-121575000D01*
X226600000Y-120475000D01*
G37*
G36*
X226600000Y-123125000D02*
G01*
X225800000Y-123125000D01*
X225800000Y-124225000D01*
X226600000Y-124225000D01*
X226600000Y-123125000D01*
G37*
G36*
X226600000Y-125775000D02*
G01*
X225800000Y-125775000D01*
X225800000Y-126875000D01*
X226600000Y-126875000D01*
X226600000Y-125775000D01*
G37*
%TO.C,J12*%
G36*
X191900000Y-120475000D02*
G01*
X191100000Y-120475000D01*
X191100000Y-121575000D01*
X191900000Y-121575000D01*
X191900000Y-120475000D01*
G37*
G36*
X191900000Y-123125000D02*
G01*
X191100000Y-123125000D01*
X191100000Y-124225000D01*
X191900000Y-124225000D01*
X191900000Y-123125000D01*
G37*
G36*
X191900000Y-125775000D02*
G01*
X191100000Y-125775000D01*
X191100000Y-126875000D01*
X191900000Y-126875000D01*
X191900000Y-125775000D01*
G37*
%TO.C,J8*%
G36*
X156900000Y-120475000D02*
G01*
X156100000Y-120475000D01*
X156100000Y-121575000D01*
X156900000Y-121575000D01*
X156900000Y-120475000D01*
G37*
G36*
X156900000Y-123125000D02*
G01*
X156100000Y-123125000D01*
X156100000Y-124225000D01*
X156900000Y-124225000D01*
X156900000Y-123125000D01*
G37*
G36*
X156900000Y-125775000D02*
G01*
X156100000Y-125775000D01*
X156100000Y-126875000D01*
X156900000Y-126875000D01*
X156900000Y-125775000D01*
G37*
%TO.C,J9*%
G36*
X169900000Y-117275000D02*
G01*
X171000000Y-117275000D01*
X171000000Y-118075000D01*
X169900000Y-118075000D01*
X169900000Y-117275000D01*
G37*
G36*
X172550000Y-117275000D02*
G01*
X173650000Y-117275000D01*
X173650000Y-118075000D01*
X172550000Y-118075000D01*
X172550000Y-117275000D01*
G37*
G36*
X175200000Y-117275000D02*
G01*
X176300000Y-117275000D01*
X176300000Y-118075000D01*
X175200000Y-118075000D01*
X175200000Y-117275000D01*
G37*
%TO.C,J12*%
G36*
X261600000Y-120475000D02*
G01*
X260800000Y-120475000D01*
X260800000Y-121575000D01*
X261600000Y-121575000D01*
X261600000Y-120475000D01*
G37*
G36*
X261600000Y-123125000D02*
G01*
X260800000Y-123125000D01*
X260800000Y-124225000D01*
X261600000Y-124225000D01*
X261600000Y-123125000D01*
G37*
G36*
X261600000Y-125775000D02*
G01*
X260800000Y-125775000D01*
X260800000Y-126875000D01*
X261600000Y-126875000D01*
X261600000Y-125775000D01*
G37*
%TD*%
D10*
%TO.C,C1*%
X238830000Y-127453355D03*
X237870000Y-127453355D03*
%TD*%
D11*
%TO.C,D2*%
X229500000Y-29725000D03*
X229500000Y-33025000D03*
%TD*%
D12*
%TO.C,R15*%
X166500000Y-120775000D03*
X164850000Y-120775000D03*
%TD*%
D13*
%TO.C,R21*%
X173325000Y-30125000D03*
X173325000Y-28475000D03*
%TD*%
D14*
%TO.C,R18*%
X239150000Y-33275000D03*
X240800000Y-33275000D03*
%TD*%
D12*
%TO.C,R5*%
X166500000Y-122375000D03*
X164850000Y-122375000D03*
%TD*%
D15*
%TO.C,D7*%
X203200000Y-50325000D03*
X203200000Y-48225000D03*
%TD*%
D14*
%TO.C,R19*%
X169450000Y-31725000D03*
X171100000Y-31725000D03*
%TD*%
D16*
%TO.C,U8*%
X162475000Y-29470000D03*
X162475000Y-30740000D03*
X162475000Y-32010000D03*
X162475000Y-33280000D03*
X167425000Y-33280000D03*
X167425000Y-32010000D03*
X167425000Y-30740000D03*
X167425000Y-29470000D03*
%TD*%
D12*
%TO.C,R22*%
X235850000Y-35025000D03*
X234200000Y-35025000D03*
%TD*%
D13*
%TO.C,R21*%
X243025000Y-30125000D03*
X243025000Y-28475000D03*
%TD*%
D14*
%TO.C,R19*%
X239150000Y-31725000D03*
X240800000Y-31725000D03*
%TD*%
D12*
%TO.C,R23*%
X235550000Y-27625000D03*
X233900000Y-27625000D03*
%TD*%
%TO.C,R3*%
X239925000Y-120075000D03*
X238275000Y-120075000D03*
%TD*%
D17*
%TO.C,C25*%
X179800000Y-122795000D03*
X179800000Y-123755000D03*
%TD*%
D18*
%TO.C,D14*%
X253600000Y-34875000D03*
X251500000Y-34875000D03*
%TD*%
D12*
%TO.C,R7*%
X185125000Y-127453355D03*
X183475000Y-127453355D03*
%TD*%
D19*
%TO.C,C4*%
X242536356Y-123050767D03*
X243463644Y-123299233D03*
%TD*%
D20*
%TO.C,R13*%
X259600000Y-50475000D03*
X259600000Y-52125000D03*
%TD*%
D21*
%TO.C,D8*%
X201450000Y-51975000D03*
X199350000Y-51975000D03*
%TD*%
D20*
%TO.C,R14*%
X257800000Y-50475000D03*
X257800000Y-52125000D03*
%TD*%
D13*
%TO.C,R2*%
X166050000Y-127449999D03*
X166050000Y-125800001D03*
%TD*%
D22*
%TO.C,C9*%
X267100000Y-85850000D03*
X267100000Y-83950000D03*
%TD*%
D14*
%TO.C,R1*%
X180475000Y-127453355D03*
X182125000Y-127453355D03*
%TD*%
D20*
%TO.C,R8*%
X246550000Y-28450000D03*
X246550000Y-30100000D03*
%TD*%
D23*
%TO.C,J4*%
X189309483Y-32535000D03*
X188809483Y-32535000D03*
X188309483Y-32535000D03*
X187809483Y-32535000D03*
X187309483Y-32535000D03*
X186809483Y-32535000D03*
X185809483Y-32535000D03*
X185309483Y-32535000D03*
X184809483Y-32535000D03*
X184309483Y-32535000D03*
X183809483Y-32535000D03*
X183309483Y-32535000D03*
D24*
X183209483Y-31235000D03*
D23*
X184059483Y-31235000D03*
X184559483Y-31235000D03*
X185059483Y-31235000D03*
X185559483Y-31235000D03*
X186059483Y-31235000D03*
X186559483Y-31235000D03*
X187059483Y-31235000D03*
X187559483Y-31235000D03*
X188059483Y-31235000D03*
X188559483Y-31235000D03*
D24*
X189409483Y-31235000D03*
%TD*%
D25*
%TO.C,U2*%
X178037500Y-123725000D03*
X178037500Y-122775000D03*
X178037500Y-121825000D03*
X175762500Y-121825000D03*
X175762500Y-123725000D03*
%TD*%
D12*
%TO.C,R22*%
X166150000Y-35025000D03*
X164500000Y-35025000D03*
%TD*%
D26*
%TO.C,F2*%
X196200000Y-42775000D03*
X196200000Y-45575000D03*
%TD*%
D18*
%TO.C,D14*%
X183900000Y-34875000D03*
X181800000Y-34875000D03*
%TD*%
D20*
%TO.C,R10*%
X201500000Y-48475000D03*
X201500000Y-50125000D03*
%TD*%
D26*
%TO.C,F2*%
X265900000Y-42775000D03*
X265900000Y-45575000D03*
%TD*%
D12*
%TO.C,R24*%
X232650000Y-35025000D03*
X231000000Y-35025000D03*
%TD*%
D17*
%TO.C,C22*%
X172800000Y-124195000D03*
X172800000Y-125155000D03*
%TD*%
D22*
%TO.C,C9*%
X197400000Y-85850000D03*
X197400000Y-83950000D03*
%TD*%
D12*
%TO.C,R9*%
X198425000Y-82200000D03*
X196775000Y-82200000D03*
%TD*%
D27*
%TO.C,U4*%
X200580000Y-84887500D03*
X201820000Y-84887500D03*
X200580000Y-84112500D03*
X201820000Y-84112500D03*
D28*
X200200000Y-86050000D03*
X200700000Y-86050000D03*
X201200000Y-86050000D03*
X201700000Y-86050000D03*
X202200000Y-86050000D03*
X202200000Y-82950000D03*
X201700000Y-82950000D03*
X201200000Y-82950000D03*
X200700000Y-82950000D03*
X200200000Y-82950000D03*
%TD*%
D12*
%TO.C,R5*%
X236200000Y-122375000D03*
X234550000Y-122375000D03*
%TD*%
D16*
%TO.C,U8*%
X232175000Y-29470000D03*
X232175000Y-30740000D03*
X232175000Y-32010000D03*
X232175000Y-33280000D03*
X237125000Y-33280000D03*
X237125000Y-32010000D03*
X237125000Y-30740000D03*
X237125000Y-29470000D03*
%TD*%
D17*
%TO.C,C25*%
X249500000Y-122795000D03*
X249500000Y-123755000D03*
%TD*%
D20*
%TO.C,R13*%
X189900000Y-50475000D03*
X189900000Y-52125000D03*
%TD*%
D14*
%TO.C,R1*%
X250175000Y-127453355D03*
X251825000Y-127453355D03*
%TD*%
D29*
%TO.C,C21*%
X169550000Y-125175000D03*
X168590000Y-125175000D03*
%TD*%
D25*
%TO.C,U1*%
X240537500Y-123725000D03*
X240537500Y-122775000D03*
X240537500Y-121825000D03*
X238262500Y-121825000D03*
X238262500Y-123725000D03*
%TD*%
D29*
%TO.C,C24*%
X246410000Y-125175000D03*
X245450000Y-125175000D03*
%TD*%
D23*
%TO.C,J4*%
X259009483Y-32535000D03*
X258509483Y-32535000D03*
X258009483Y-32535000D03*
X257509483Y-32535000D03*
X257009483Y-32535000D03*
X256509483Y-32535000D03*
X255509483Y-32535000D03*
X255009483Y-32535000D03*
X254509483Y-32535000D03*
X254009483Y-32535000D03*
X253509483Y-32535000D03*
X253009483Y-32535000D03*
D24*
X252909483Y-31235000D03*
D23*
X253759483Y-31235000D03*
X254259483Y-31235000D03*
X254759483Y-31235000D03*
X255259483Y-31235000D03*
X255759483Y-31235000D03*
X256259483Y-31235000D03*
X256759483Y-31235000D03*
X257259483Y-31235000D03*
X257759483Y-31235000D03*
X258259483Y-31235000D03*
D24*
X259109483Y-31235000D03*
%TD*%
D13*
%TO.C,R2*%
X235750000Y-127449999D03*
X235750000Y-125800001D03*
%TD*%
D30*
%TO.C,C14*%
X192350000Y-45550000D03*
X192350000Y-47450000D03*
%TD*%
D20*
%TO.C,R14*%
X188100000Y-50475000D03*
X188100000Y-52125000D03*
%TD*%
D26*
%TO.C,F1*%
X199800000Y-42775000D03*
X199800000Y-45575000D03*
%TD*%
D19*
%TO.C,C4*%
X172836356Y-123050767D03*
X173763644Y-123299233D03*
%TD*%
D11*
%TO.C,D2*%
X159800000Y-29725000D03*
X159800000Y-33025000D03*
%TD*%
D15*
%TO.C,D7*%
X272900000Y-50325000D03*
X272900000Y-48225000D03*
%TD*%
D31*
%TO.C,U6*%
X259695000Y-46540000D03*
X258505000Y-46540000D03*
X259695000Y-47360000D03*
X258505000Y-47360000D03*
D32*
X260100000Y-45500000D03*
X259600000Y-45500000D03*
X259100000Y-45500000D03*
X258600000Y-45500000D03*
X258100000Y-45500000D03*
X258100000Y-48400000D03*
X258600000Y-48400000D03*
X259100000Y-48400000D03*
X259600000Y-48400000D03*
X260100000Y-48400000D03*
%TD*%
D14*
%TO.C,R26*%
X165325000Y-119175000D03*
X166975000Y-119175000D03*
%TD*%
D13*
%TO.C,R12*%
X269500000Y-50125000D03*
X269500000Y-48475000D03*
%TD*%
D30*
%TO.C,C14*%
X262050000Y-45550000D03*
X262050000Y-47450000D03*
%TD*%
D33*
%TO.C,Q1*%
X197500000Y-47500000D03*
D34*
X196000000Y-47587500D03*
D33*
X194500000Y-47500000D03*
%TD*%
D12*
%TO.C,R9*%
X268125000Y-82200000D03*
X266475000Y-82200000D03*
%TD*%
%TO.C,R4*%
X247025000Y-120075000D03*
X245375000Y-120075000D03*
%TD*%
D20*
%TO.C,R10*%
X271200000Y-48475000D03*
X271200000Y-50125000D03*
%TD*%
D12*
%TO.C,R7*%
X254825000Y-127453355D03*
X253175000Y-127453355D03*
%TD*%
D14*
%TO.C,R18*%
X169450000Y-33275000D03*
X171100000Y-33275000D03*
%TD*%
D12*
%TO.C,R4*%
X177325000Y-120075000D03*
X175675000Y-120075000D03*
%TD*%
D17*
%TO.C,C22*%
X242500000Y-124195000D03*
X242500000Y-125155000D03*
%TD*%
D29*
%TO.C,C21*%
X239250000Y-125175000D03*
X238290000Y-125175000D03*
%TD*%
D12*
%TO.C,R15*%
X236200000Y-120775000D03*
X234550000Y-120775000D03*
%TD*%
%TO.C,R6*%
X243825000Y-120075000D03*
X242175000Y-120075000D03*
%TD*%
D25*
%TO.C,U1*%
X170837500Y-123725000D03*
X170837500Y-122775000D03*
X170837500Y-121825000D03*
X168562500Y-121825000D03*
X168562500Y-123725000D03*
%TD*%
D20*
%TO.C,R8*%
X176850000Y-28450000D03*
X176850000Y-30100000D03*
%TD*%
D12*
%TO.C,R23*%
X165850000Y-27625000D03*
X164200000Y-27625000D03*
%TD*%
D35*
%TO.C,L1*%
X254200000Y-120037500D03*
X254200000Y-124312500D03*
%TD*%
D13*
%TO.C,R12*%
X199800000Y-50125000D03*
X199800000Y-48475000D03*
%TD*%
D29*
%TO.C,C24*%
X176710000Y-125175000D03*
X175750000Y-125175000D03*
%TD*%
D26*
%TO.C,F1*%
X269500000Y-42775000D03*
X269500000Y-45575000D03*
%TD*%
D35*
%TO.C,L1*%
X184500000Y-120037500D03*
X184500000Y-124312500D03*
%TD*%
D12*
%TO.C,R6*%
X174125000Y-120075000D03*
X172475000Y-120075000D03*
%TD*%
D10*
%TO.C,C1*%
X168170000Y-127453355D03*
X169130000Y-127453355D03*
%TD*%
D21*
%TO.C,D8*%
X271150000Y-51975000D03*
X269050000Y-51975000D03*
%TD*%
D12*
%TO.C,R24*%
X162950000Y-35025000D03*
X161300000Y-35025000D03*
%TD*%
D27*
%TO.C,U4*%
X270280000Y-84887500D03*
X271520000Y-84887500D03*
X270280000Y-84112500D03*
X271520000Y-84112500D03*
D28*
X269900000Y-86050000D03*
X270400000Y-86050000D03*
X270900000Y-86050000D03*
X271400000Y-86050000D03*
X271900000Y-86050000D03*
X271900000Y-82950000D03*
X271400000Y-82950000D03*
X270900000Y-82950000D03*
X270400000Y-82950000D03*
X269900000Y-82950000D03*
%TD*%
D31*
%TO.C,U6*%
X189995000Y-46540000D03*
X188805000Y-46540000D03*
X189995000Y-47360000D03*
X188805000Y-47360000D03*
D32*
X190400000Y-45500000D03*
X189900000Y-45500000D03*
X189400000Y-45500000D03*
X188900000Y-45500000D03*
X188400000Y-45500000D03*
X188400000Y-48400000D03*
X188900000Y-48400000D03*
X189400000Y-48400000D03*
X189900000Y-48400000D03*
X190400000Y-48400000D03*
%TD*%
D12*
%TO.C,R3*%
X170225000Y-120075000D03*
X168575000Y-120075000D03*
%TD*%
D25*
%TO.C,U2*%
X247737500Y-123725000D03*
X247737500Y-122775000D03*
X247737500Y-121825000D03*
X245462500Y-121825000D03*
X245462500Y-123725000D03*
%TD*%
D33*
%TO.C,Q1*%
X267200000Y-47500000D03*
D34*
X265700000Y-47587500D03*
D33*
X264200000Y-47500000D03*
%TD*%
D14*
%TO.C,R26*%
X235025000Y-119175000D03*
X236675000Y-119175000D03*
%TD*%
M02*
