%TF.GenerationSoftware,KiCad,Pcbnew,9.0.2+dfsg-1*%
%TF.CreationDate,2025-07-08T11:28:32+01:00*%
%TF.ProjectId,low-noise-power-probe-panel,6c6f772d-6e6f-4697-9365-2d706f776572,rev?*%
%TF.SameCoordinates,Original*%
%TF.FileFunction,Soldermask,Bot*%
%TF.FilePolarity,Negative*%
%FSLAX46Y46*%
G04 Gerber Fmt 4.6, Leading zero omitted, Abs format (unit mm)*
G04 Created by KiCad (PCBNEW 9.0.2+dfsg-1) date 2025-07-08 11:28:32*
%MOMM*%
%LPD*%
G01*
G04 APERTURE LIST*
G04 Aperture macros list*
%AMRoundRect*
0 Rectangle with rounded corners*
0 $1 Rounding radius*
0 $2 $3 $4 $5 $6 $7 $8 $9 X,Y pos of 4 corners*
0 Add a 4 corners polygon primitive as box body*
4,1,4,$2,$3,$4,$5,$6,$7,$8,$9,$2,$3,0*
0 Add four circle primitives for the rounded corners*
1,1,$1+$1,$2,$3*
1,1,$1+$1,$4,$5*
1,1,$1+$1,$6,$7*
1,1,$1+$1,$8,$9*
0 Add four rect primitives between the rounded corners*
20,1,$1+$1,$2,$3,$4,$5,0*
20,1,$1+$1,$4,$5,$6,$7,0*
20,1,$1+$1,$6,$7,$8,$9,0*
20,1,$1+$1,$8,$9,$2,$3,0*%
%AMFreePoly0*
4,1,23,0.500000,-0.750000,0.000000,-0.750000,0.000000,-0.745722,-0.065263,-0.745722,-0.191342,-0.711940,-0.304381,-0.646677,-0.396677,-0.554381,-0.461940,-0.441342,-0.495722,-0.315263,-0.495722,-0.250000,-0.500000,-0.250000,-0.500000,0.250000,-0.495722,0.250000,-0.495722,0.315263,-0.461940,0.441342,-0.396677,0.554381,-0.304381,0.646677,-0.191342,0.711940,-0.065263,0.745722,0.000000,0.745722,
0.000000,0.750000,0.500000,0.750000,0.500000,-0.750000,0.500000,-0.750000,$1*%
%AMFreePoly1*
4,1,23,0.000000,0.745722,0.065263,0.745722,0.191342,0.711940,0.304381,0.646677,0.396677,0.554381,0.461940,0.441342,0.495722,0.315263,0.495722,0.250000,0.500000,0.250000,0.500000,-0.250000,0.495722,-0.250000,0.495722,-0.315263,0.461940,-0.441342,0.396677,-0.554381,0.304381,-0.646677,0.191342,-0.711940,0.065263,-0.745722,0.000000,-0.745722,0.000000,-0.750000,-0.500000,-0.750000,
-0.500000,0.750000,0.000000,0.750000,0.000000,0.745722,0.000000,0.745722,$1*%
G04 Aperture macros list end*
%ADD10C,3.000000*%
%ADD11O,3.000000X2.000000*%
%ADD12C,1.500000*%
%ADD13C,3.200000*%
%ADD14C,2.250000*%
%ADD15O,1.100000X2.100000*%
%ADD16O,1.100000X2.600000*%
%ADD17R,3.500000X3.500000*%
%ADD18RoundRect,0.750000X-1.000000X0.750000X-1.000000X-0.750000X1.000000X-0.750000X1.000000X0.750000X0*%
%ADD19RoundRect,0.875000X-0.875000X0.875000X-0.875000X-0.875000X0.875000X-0.875000X0.875000X0.875000X0*%
%ADD20C,2.000000*%
%ADD21C,3.500000*%
%ADD22C,4.000000*%
%ADD23C,3.700000*%
%ADD24RoundRect,0.218750X-0.218750X-0.256250X0.218750X-0.256250X0.218750X0.256250X-0.218750X0.256250X0*%
%ADD25R,0.450000X0.600000*%
%ADD26RoundRect,0.200000X0.200000X0.275000X-0.200000X0.275000X-0.200000X-0.275000X0.200000X-0.275000X0*%
%ADD27R,0.300000X0.520000*%
%ADD28RoundRect,0.250000X0.625000X-0.375000X0.625000X0.375000X-0.625000X0.375000X-0.625000X-0.375000X0*%
%ADD29RoundRect,0.200000X-0.200000X-0.275000X0.200000X-0.275000X0.200000X0.275000X-0.200000X0.275000X0*%
%ADD30RoundRect,0.200000X-0.275000X0.200000X-0.275000X-0.200000X0.275000X-0.200000X0.275000X0.200000X0*%
%ADD31RoundRect,0.140000X-0.140000X-0.170000X0.140000X-0.170000X0.140000X0.170000X-0.140000X0.170000X0*%
%ADD32RoundRect,0.218750X0.256250X-0.218750X0.256250X0.218750X-0.256250X0.218750X-0.256250X-0.218750X0*%
%ADD33RoundRect,0.250000X-0.250000X-0.475000X0.250000X-0.475000X0.250000X0.475000X-0.250000X0.475000X0*%
%ADD34RoundRect,0.140000X0.170000X-0.140000X0.170000X0.140000X-0.170000X0.140000X-0.170000X-0.140000X0*%
%ADD35RoundRect,0.150000X-0.150000X0.512500X-0.150000X-0.512500X0.150000X-0.512500X0.150000X0.512500X0*%
%ADD36RoundRect,0.140000X-0.170000X0.140000X-0.170000X-0.140000X0.170000X-0.140000X0.170000X0.140000X0*%
%ADD37R,0.600000X0.450000*%
%ADD38RoundRect,0.250000X-0.625000X0.375000X-0.625000X-0.375000X0.625000X-0.375000X0.625000X0.375000X0*%
%ADD39RoundRect,0.250000X-0.475000X0.250000X-0.475000X-0.250000X0.475000X-0.250000X0.475000X0.250000X0*%
%ADD40RoundRect,0.150000X-0.587500X-0.150000X0.587500X-0.150000X0.587500X0.150000X-0.587500X0.150000X0*%
%ADD41RoundRect,0.140000X0.140000X0.170000X-0.140000X0.170000X-0.140000X-0.170000X0.140000X-0.170000X0*%
%ADD42FreePoly0,90.000000*%
%ADD43FreePoly1,90.000000*%
%ADD44RoundRect,0.150000X-0.150000X0.725000X-0.150000X-0.725000X0.150000X-0.725000X0.150000X0.725000X0*%
%ADD45RoundRect,0.250000X0.475000X-0.250000X0.475000X0.250000X-0.475000X0.250000X-0.475000X-0.250000X0*%
%ADD46RoundRect,0.101600X0.525000X-1.100000X0.525000X1.100000X-0.525000X1.100000X-0.525000X-1.100000X0*%
%ADD47RoundRect,0.101600X0.500000X-0.525000X0.500000X0.525000X-0.500000X0.525000X-0.500000X-0.525000X0*%
%ADD48C,1.000000*%
%ADD49RoundRect,0.200000X0.275000X-0.200000X0.275000X0.200000X-0.275000X0.200000X-0.275000X-0.200000X0*%
%ADD50RoundRect,0.087500X0.337500X0.087500X-0.337500X0.087500X-0.337500X-0.087500X0.337500X-0.087500X0*%
%ADD51R,1.650000X2.400000*%
G04 APERTURE END LIST*
%TO.C,JP1*%
G36*
X234250000Y-81825000D02*
G01*
X232750000Y-81825000D01*
X232750000Y-81525000D01*
X234250000Y-81525000D01*
X234250000Y-81825000D01*
G37*
%TD*%
D10*
%TO.C,SW1*%
X238300000Y-124120000D03*
X233600000Y-124120000D03*
X228900000Y-124120000D03*
X238300000Y-120310000D03*
X233600000Y-120310000D03*
X228900000Y-120310000D03*
X238300000Y-116500000D03*
X233600000Y-116500000D03*
X228900000Y-116500000D03*
D11*
X231060000Y-138470000D03*
X236140000Y-138470000D03*
%TD*%
D12*
%TO.C,KiKit_TO_3*%
X172600000Y-142300000D03*
%TD*%
D13*
%TO.C,REF\u002A\u002A*%
X177800000Y-73475000D03*
%TD*%
D11*
%TO.C,RV1*%
X183900000Y-136325000D03*
X180900000Y-124025000D03*
X183900000Y-126325000D03*
%TD*%
D14*
%TO.C,J1*%
X198100000Y-134775000D03*
X200640000Y-137315000D03*
X200640000Y-132235000D03*
X195560000Y-137315000D03*
X195560000Y-132235000D03*
%TD*%
D13*
%TO.C,REF\u002A\u002A*%
X219800000Y-73475000D03*
%TD*%
D15*
%TO.C,J4*%
X225429483Y-32125000D03*
D16*
X225429483Y-26765000D03*
D15*
X216789483Y-32125000D03*
D16*
X216789483Y-26765000D03*
%TD*%
D17*
%TO.C,J3*%
X234600000Y-38775000D03*
D18*
X234600000Y-32775000D03*
D19*
X229900000Y-35775000D03*
%TD*%
D12*
%TO.C,KiKit_TO_1*%
X172600000Y-22500000D03*
%TD*%
%TO.C,KiKit_TO_2*%
X247400000Y-22500000D03*
%TD*%
D20*
%TO.C,BT1*%
X181300000Y-110975000D03*
D21*
X198700000Y-102775000D03*
D22*
X216200000Y-102675000D03*
X181200000Y-47475000D03*
D21*
X198700000Y-47375000D03*
D23*
X189150000Y-111250000D03*
X189150000Y-38900000D03*
X208250000Y-111250000D03*
X208250000Y-38900000D03*
%TD*%
D14*
%TO.C,J2*%
X216100000Y-134735000D03*
X218640000Y-137275000D03*
X218640000Y-132195000D03*
X213560000Y-137275000D03*
X213560000Y-132195000D03*
%TD*%
D20*
%TO.C,TP3*%
X198600000Y-114375000D03*
%TD*%
%TO.C,TP9*%
X217000000Y-121375000D03*
%TD*%
D24*
%TO.C,D1*%
X206537500Y-26925000D03*
X208112500Y-26925000D03*
%TD*%
D25*
%TO.C,D9*%
X223050000Y-34675000D03*
X223050000Y-36775000D03*
%TD*%
D26*
%TO.C,R30*%
X231025000Y-78975000D03*
X229375000Y-78975000D03*
%TD*%
D27*
%TO.C,U10*%
X206300000Y-96585000D03*
X206800000Y-96585000D03*
X207300000Y-96585000D03*
X207300000Y-98465000D03*
X206800000Y-98465000D03*
X206300000Y-98465000D03*
%TD*%
D28*
%TO.C,F3*%
X189150000Y-107375000D03*
X189150000Y-104575000D03*
%TD*%
D29*
%TO.C,R29*%
X238975000Y-79675000D03*
X240625000Y-79675000D03*
%TD*%
D24*
%TO.C,D3*%
X178712500Y-138775000D03*
X180287500Y-138775000D03*
%TD*%
D30*
%TO.C,R32*%
X207000000Y-100035000D03*
X207000000Y-101685000D03*
%TD*%
D25*
%TO.C,D11*%
X223050000Y-29375000D03*
X223050000Y-27275000D03*
%TD*%
D31*
%TO.C,C2*%
X235620000Y-80475000D03*
X236580000Y-80475000D03*
%TD*%
D26*
%TO.C,R11*%
X231025000Y-77375000D03*
X229375000Y-77375000D03*
%TD*%
D29*
%TO.C,R27*%
X238975000Y-76475000D03*
X240625000Y-76475000D03*
%TD*%
D20*
%TO.C,TP8*%
X218200000Y-114375000D03*
%TD*%
D32*
%TO.C,D6*%
X233700000Y-138937500D03*
X233700000Y-137362500D03*
%TD*%
D30*
%TO.C,R33*%
X204400000Y-100035000D03*
X204400000Y-101685000D03*
%TD*%
D33*
%TO.C,C5*%
X201950000Y-114375000D03*
X203850000Y-114375000D03*
%TD*%
D25*
%TO.C,D12*%
X221100000Y-29375000D03*
X221100000Y-27275000D03*
%TD*%
D34*
%TO.C,C13*%
X211375000Y-119680000D03*
X211375000Y-118720000D03*
%TD*%
D20*
%TO.C,TP7*%
X202000000Y-107375000D03*
%TD*%
D34*
%TO.C,C17*%
X237700000Y-77985000D03*
X237700000Y-77025000D03*
%TD*%
D25*
%TO.C,D10*%
X219150000Y-29375000D03*
X219150000Y-27275000D03*
%TD*%
D31*
%TO.C,C15*%
X230040000Y-76075000D03*
X231000000Y-76075000D03*
%TD*%
D35*
%TO.C,U5*%
X212725000Y-117562500D03*
X213675000Y-117562500D03*
X214625000Y-117562500D03*
X214625000Y-119837500D03*
X212725000Y-119837500D03*
%TD*%
D36*
%TO.C,C18*%
X232300000Y-77015000D03*
X232300000Y-77975000D03*
%TD*%
D37*
%TO.C,D13*%
X239050000Y-44175000D03*
X236950000Y-44175000D03*
%TD*%
%TO.C,D15*%
X239050000Y-46175000D03*
X236950000Y-46175000D03*
%TD*%
D38*
%TO.C,F4*%
X208250000Y-104575000D03*
X208250000Y-107375000D03*
%TD*%
D39*
%TO.C,C12*%
X209575000Y-118050000D03*
X209575000Y-119950000D03*
%TD*%
D40*
%TO.C,Q2*%
X209500000Y-100885000D03*
X209500000Y-98985000D03*
X211375000Y-99935000D03*
%TD*%
D41*
%TO.C,C6*%
X202880000Y-115975000D03*
X201920000Y-115975000D03*
%TD*%
D42*
%TO.C,JP1*%
X233500000Y-82325000D03*
D43*
X233500000Y-81025000D03*
%TD*%
D44*
%TO.C,U7*%
X234495000Y-128525000D03*
X235765000Y-128525000D03*
X237035000Y-128525000D03*
X238305000Y-128525000D03*
X238305000Y-133675000D03*
X237035000Y-133675000D03*
X235765000Y-133675000D03*
X234495000Y-133675000D03*
%TD*%
D26*
%TO.C,R16*%
X185075000Y-134125000D03*
X183425000Y-134125000D03*
%TD*%
D45*
%TO.C,C7*%
X206950000Y-119950000D03*
X206950000Y-118050000D03*
%TD*%
D30*
%TO.C,R31*%
X204700000Y-96675000D03*
X204700000Y-98325000D03*
%TD*%
D20*
%TO.C,TP4*%
X199800000Y-121375000D03*
%TD*%
D29*
%TO.C,R28*%
X238975000Y-78075000D03*
X240625000Y-78075000D03*
%TD*%
D33*
%TO.C,C10*%
X212675000Y-114375000D03*
X214575000Y-114375000D03*
%TD*%
D35*
%TO.C,U3*%
X201900000Y-117537500D03*
X202850000Y-117537500D03*
X203800000Y-117537500D03*
X203800000Y-119812500D03*
X201900000Y-119812500D03*
%TD*%
D45*
%TO.C,C30*%
X215400000Y-126125000D03*
X215400000Y-124225000D03*
%TD*%
D46*
%TO.C,TP10*%
X213575000Y-123125000D03*
X210625000Y-123125000D03*
D47*
X212100000Y-121600000D03*
%TD*%
D46*
%TO.C,TP5*%
X206175000Y-123125000D03*
X203225000Y-123125000D03*
D47*
X204700000Y-121600000D03*
%TD*%
D34*
%TO.C,C20*%
X203100000Y-100840000D03*
X203100000Y-99880000D03*
%TD*%
D48*
%TO.C,KiKit_FID_B_1*%
X180100000Y-22500000D03*
%TD*%
D40*
%TO.C,Q3*%
X209500000Y-97325000D03*
X209500000Y-95425000D03*
X211375000Y-96375000D03*
%TD*%
D20*
%TO.C,TP21*%
X226000000Y-35000000D03*
%TD*%
D41*
%TO.C,C11*%
X213705000Y-115975000D03*
X212745000Y-115975000D03*
%TD*%
D48*
%TO.C,KiKit_FID_B_2*%
X239900000Y-22500000D03*
%TD*%
D24*
%TO.C,D4*%
X186462500Y-138750000D03*
X188037500Y-138750000D03*
%TD*%
%TO.C,D5*%
X211662500Y-26925000D03*
X213237500Y-26925000D03*
%TD*%
D49*
%TO.C,R20*%
X232600000Y-131725000D03*
X232600000Y-130075000D03*
%TD*%
D39*
%TO.C,C29*%
X201200000Y-124225000D03*
X201200000Y-126125000D03*
%TD*%
D36*
%TO.C,C8*%
X205150000Y-118720000D03*
X205150000Y-119680000D03*
%TD*%
D34*
%TO.C,C23*%
X205700000Y-100840000D03*
X205700000Y-99880000D03*
%TD*%
D50*
%TO.C,U9*%
X236500000Y-77175000D03*
X236500000Y-77825000D03*
X236500000Y-78475000D03*
X236500000Y-79125000D03*
X233600000Y-79125000D03*
X233600000Y-78475000D03*
X233600000Y-77825000D03*
X233600000Y-77175000D03*
D51*
X235050000Y-78150000D03*
%TD*%
D41*
%TO.C,C16*%
X240780000Y-75175000D03*
X239820000Y-75175000D03*
%TD*%
D29*
%TO.C,R17*%
X183375000Y-128525000D03*
X185025000Y-128525000D03*
%TD*%
D48*
%TO.C,KiKit_FID_B_3*%
X180100000Y-142300000D03*
%TD*%
M02*
