%TF.GenerationSoftware,KiCad,Pcbnew,9.0.2+dfsg-1*%
%TF.CreationDate,2025-07-08T11:28:32+01:00*%
%TF.ProjectId,low-noise-power-probe-panel,6c6f772d-6e6f-4697-9365-2d706f776572,rev?*%
%TF.SameCoordinates,Original*%
%TF.FileFunction,Paste,Bot*%
%TF.FilePolarity,Positive*%
%FSLAX46Y46*%
G04 Gerber Fmt 4.6, Leading zero omitted, Abs format (unit mm)*
G04 Created by KiCad (PCBNEW 9.0.2+dfsg-1) date 2025-07-08 11:28:32*
%MOMM*%
%LPD*%
G01*
G04 APERTURE LIST*
G04 Aperture macros list*
%AMRoundRect*
0 Rectangle with rounded corners*
0 $1 Rounding radius*
0 $2 $3 $4 $5 $6 $7 $8 $9 X,Y pos of 4 corners*
0 Add a 4 corners polygon primitive as box body*
4,1,4,$2,$3,$4,$5,$6,$7,$8,$9,$2,$3,0*
0 Add four circle primitives for the rounded corners*
1,1,$1+$1,$2,$3*
1,1,$1+$1,$4,$5*
1,1,$1+$1,$6,$7*
1,1,$1+$1,$8,$9*
0 Add four rect primitives between the rounded corners*
20,1,$1+$1,$2,$3,$4,$5,0*
20,1,$1+$1,$4,$5,$6,$7,0*
20,1,$1+$1,$6,$7,$8,$9,0*
20,1,$1+$1,$8,$9,$2,$3,0*%
G04 Aperture macros list end*
%ADD10RoundRect,0.218750X-0.218750X-0.256250X0.218750X-0.256250X0.218750X0.256250X-0.218750X0.256250X0*%
%ADD11R,0.450000X0.600000*%
%ADD12RoundRect,0.200000X0.200000X0.275000X-0.200000X0.275000X-0.200000X-0.275000X0.200000X-0.275000X0*%
%ADD13R,0.300000X0.520000*%
%ADD14RoundRect,0.250000X0.625000X-0.375000X0.625000X0.375000X-0.625000X0.375000X-0.625000X-0.375000X0*%
%ADD15RoundRect,0.200000X-0.200000X-0.275000X0.200000X-0.275000X0.200000X0.275000X-0.200000X0.275000X0*%
%ADD16RoundRect,0.200000X-0.275000X0.200000X-0.275000X-0.200000X0.275000X-0.200000X0.275000X0.200000X0*%
%ADD17RoundRect,0.140000X-0.140000X-0.170000X0.140000X-0.170000X0.140000X0.170000X-0.140000X0.170000X0*%
%ADD18RoundRect,0.218750X0.256250X-0.218750X0.256250X0.218750X-0.256250X0.218750X-0.256250X-0.218750X0*%
%ADD19RoundRect,0.250000X-0.250000X-0.475000X0.250000X-0.475000X0.250000X0.475000X-0.250000X0.475000X0*%
%ADD20RoundRect,0.140000X0.170000X-0.140000X0.170000X0.140000X-0.170000X0.140000X-0.170000X-0.140000X0*%
%ADD21RoundRect,0.150000X-0.150000X0.512500X-0.150000X-0.512500X0.150000X-0.512500X0.150000X0.512500X0*%
%ADD22RoundRect,0.140000X-0.170000X0.140000X-0.170000X-0.140000X0.170000X-0.140000X0.170000X0.140000X0*%
%ADD23R,0.600000X0.450000*%
%ADD24RoundRect,0.250000X-0.625000X0.375000X-0.625000X-0.375000X0.625000X-0.375000X0.625000X0.375000X0*%
%ADD25RoundRect,0.250000X-0.475000X0.250000X-0.475000X-0.250000X0.475000X-0.250000X0.475000X0.250000X0*%
%ADD26RoundRect,0.150000X-0.587500X-0.150000X0.587500X-0.150000X0.587500X0.150000X-0.587500X0.150000X0*%
%ADD27RoundRect,0.140000X0.140000X0.170000X-0.140000X0.170000X-0.140000X-0.170000X0.140000X-0.170000X0*%
%ADD28RoundRect,0.150000X-0.150000X0.725000X-0.150000X-0.725000X0.150000X-0.725000X0.150000X0.725000X0*%
%ADD29RoundRect,0.250000X0.475000X-0.250000X0.475000X0.250000X-0.475000X0.250000X-0.475000X-0.250000X0*%
%ADD30R,1.050000X2.200000*%
%ADD31R,1.000000X1.050000*%
%ADD32RoundRect,0.200000X0.275000X-0.200000X0.275000X0.200000X-0.275000X0.200000X-0.275000X-0.200000X0*%
%ADD33RoundRect,0.242500X0.422500X0.242500X-0.422500X0.242500X-0.422500X-0.242500X0.422500X-0.242500X0*%
%ADD34RoundRect,0.087500X0.337500X0.087500X-0.337500X0.087500X-0.337500X-0.087500X0.337500X-0.087500X0*%
G04 APERTURE END LIST*
D10*
%TO.C,D1*%
X206537500Y-26925000D03*
X208112500Y-26925000D03*
%TD*%
D11*
%TO.C,D9*%
X223050000Y-34675000D03*
X223050000Y-36775000D03*
%TD*%
D12*
%TO.C,R30*%
X231025000Y-78975000D03*
X229375000Y-78975000D03*
%TD*%
D13*
%TO.C,U10*%
X206300000Y-96585000D03*
X206800000Y-96585000D03*
X207300000Y-96585000D03*
X207300000Y-98465000D03*
X206800000Y-98465000D03*
X206300000Y-98465000D03*
%TD*%
D14*
%TO.C,F3*%
X189150000Y-107375000D03*
X189150000Y-104575000D03*
%TD*%
D15*
%TO.C,R29*%
X238975000Y-79675000D03*
X240625000Y-79675000D03*
%TD*%
D10*
%TO.C,D3*%
X178712500Y-138775000D03*
X180287500Y-138775000D03*
%TD*%
D16*
%TO.C,R32*%
X207000000Y-100035000D03*
X207000000Y-101685000D03*
%TD*%
D11*
%TO.C,D11*%
X223050000Y-29375000D03*
X223050000Y-27275000D03*
%TD*%
D17*
%TO.C,C2*%
X235620000Y-80475000D03*
X236580000Y-80475000D03*
%TD*%
D12*
%TO.C,R11*%
X231025000Y-77375000D03*
X229375000Y-77375000D03*
%TD*%
D15*
%TO.C,R27*%
X238975000Y-76475000D03*
X240625000Y-76475000D03*
%TD*%
D18*
%TO.C,D6*%
X233700000Y-138937500D03*
X233700000Y-137362500D03*
%TD*%
D16*
%TO.C,R33*%
X204400000Y-100035000D03*
X204400000Y-101685000D03*
%TD*%
D19*
%TO.C,C5*%
X201950000Y-114375000D03*
X203850000Y-114375000D03*
%TD*%
D11*
%TO.C,D12*%
X221100000Y-29375000D03*
X221100000Y-27275000D03*
%TD*%
D20*
%TO.C,C13*%
X211375000Y-119680000D03*
X211375000Y-118720000D03*
%TD*%
%TO.C,C17*%
X237700000Y-77985000D03*
X237700000Y-77025000D03*
%TD*%
D11*
%TO.C,D10*%
X219150000Y-29375000D03*
X219150000Y-27275000D03*
%TD*%
D17*
%TO.C,C15*%
X230040000Y-76075000D03*
X231000000Y-76075000D03*
%TD*%
D21*
%TO.C,U5*%
X212725000Y-117562500D03*
X213675000Y-117562500D03*
X214625000Y-117562500D03*
X214625000Y-119837500D03*
X212725000Y-119837500D03*
%TD*%
D22*
%TO.C,C18*%
X232300000Y-77015000D03*
X232300000Y-77975000D03*
%TD*%
D23*
%TO.C,D13*%
X239050000Y-44175000D03*
X236950000Y-44175000D03*
%TD*%
%TO.C,D15*%
X239050000Y-46175000D03*
X236950000Y-46175000D03*
%TD*%
D24*
%TO.C,F4*%
X208250000Y-104575000D03*
X208250000Y-107375000D03*
%TD*%
D25*
%TO.C,C12*%
X209575000Y-118050000D03*
X209575000Y-119950000D03*
%TD*%
D26*
%TO.C,Q2*%
X209500000Y-100885000D03*
X209500000Y-98985000D03*
X211375000Y-99935000D03*
%TD*%
D27*
%TO.C,C6*%
X202880000Y-115975000D03*
X201920000Y-115975000D03*
%TD*%
D28*
%TO.C,U7*%
X234495000Y-128525000D03*
X235765000Y-128525000D03*
X237035000Y-128525000D03*
X238305000Y-128525000D03*
X238305000Y-133675000D03*
X237035000Y-133675000D03*
X235765000Y-133675000D03*
X234495000Y-133675000D03*
%TD*%
D12*
%TO.C,R16*%
X185075000Y-134125000D03*
X183425000Y-134125000D03*
%TD*%
D29*
%TO.C,C7*%
X206950000Y-119950000D03*
X206950000Y-118050000D03*
%TD*%
D16*
%TO.C,R31*%
X204700000Y-96675000D03*
X204700000Y-98325000D03*
%TD*%
D15*
%TO.C,R28*%
X238975000Y-78075000D03*
X240625000Y-78075000D03*
%TD*%
D19*
%TO.C,C10*%
X212675000Y-114375000D03*
X214575000Y-114375000D03*
%TD*%
D21*
%TO.C,U3*%
X201900000Y-117537500D03*
X202850000Y-117537500D03*
X203800000Y-117537500D03*
X203800000Y-119812500D03*
X201900000Y-119812500D03*
%TD*%
D29*
%TO.C,C30*%
X215400000Y-126125000D03*
X215400000Y-124225000D03*
%TD*%
D30*
%TO.C,TP10*%
X213575000Y-123125000D03*
X210625000Y-123125000D03*
D31*
X212100000Y-121600000D03*
%TD*%
D30*
%TO.C,TP5*%
X206175000Y-123125000D03*
X203225000Y-123125000D03*
D31*
X204700000Y-121600000D03*
%TD*%
D20*
%TO.C,C20*%
X203100000Y-100840000D03*
X203100000Y-99880000D03*
%TD*%
D26*
%TO.C,Q3*%
X209500000Y-97325000D03*
X209500000Y-95425000D03*
X211375000Y-96375000D03*
%TD*%
D27*
%TO.C,C11*%
X213705000Y-115975000D03*
X212745000Y-115975000D03*
%TD*%
D10*
%TO.C,D4*%
X186462500Y-138750000D03*
X188037500Y-138750000D03*
%TD*%
%TO.C,D5*%
X211662500Y-26925000D03*
X213237500Y-26925000D03*
%TD*%
D32*
%TO.C,R20*%
X232600000Y-131725000D03*
X232600000Y-130075000D03*
%TD*%
D25*
%TO.C,C29*%
X201200000Y-124225000D03*
X201200000Y-126125000D03*
%TD*%
D22*
%TO.C,C8*%
X205150000Y-118720000D03*
X205150000Y-119680000D03*
%TD*%
D20*
%TO.C,C23*%
X205700000Y-100840000D03*
X205700000Y-99880000D03*
%TD*%
D33*
%TO.C,U9*%
X235050000Y-78750000D03*
X235050000Y-77550000D03*
D34*
X236500000Y-77175000D03*
X236500000Y-77825000D03*
X236500000Y-78475000D03*
X236500000Y-79125000D03*
X233600000Y-79125000D03*
X233600000Y-78475000D03*
X233600000Y-77825000D03*
X233600000Y-77175000D03*
%TD*%
D27*
%TO.C,C16*%
X240780000Y-75175000D03*
X239820000Y-75175000D03*
%TD*%
D15*
%TO.C,R17*%
X183375000Y-128525000D03*
X185025000Y-128525000D03*
%TD*%
M02*
