%TF.GenerationSoftware,KiCad,Pcbnew,9.0.2+dfsg-1*%
%TF.CreationDate,2025-07-08T11:28:35+01:00*%
%TF.ProjectId,low-noise-power-probe-panel,6c6f772d-6e6f-4697-9365-2d706f776572,rev?*%
%TF.SameCoordinates,Original*%
%TF.FileFunction,Drillmap*%
%TF.FilePolarity,Positive*%
%FSLAX45Y45*%
G04 Gerber Fmt 4.5, Leading zero omitted, Abs format (unit mm)*
G04 Created by KiCad (PCBNEW 9.0.2+dfsg-1) date 2025-07-08 11:28:35*
%MOMM*%
%LPD*%
G01*
G04 APERTURE LIST*
%ADD10C,0.100000*%
%ADD11C,0.200000*%
%ADD12C,0.150000*%
%ADD13C,0.320000*%
%ADD14C,0.350000*%
%ADD15C,0.450000*%
G04 APERTURE END LIST*
D10*
X17010000Y-14478775D02*
X17010027Y-14479875D01*
X24990000Y-14478773D02*
X24990000Y-2001227D01*
X24988775Y-14480000D02*
X24989875Y-14479973D01*
X24988773Y-2000000D02*
X17011227Y-2000000D01*
X24989973Y-14479875D02*
X24990000Y-14478775D01*
X17010000Y-2001227D02*
X17010000Y-14478773D01*
X17011227Y-14480000D02*
X24988773Y-14480000D01*
X17011225Y-2000000D02*
X17010125Y-2000027D01*
X24989875Y-2000027D02*
X24988775Y-2000000D01*
X17010125Y-14479973D02*
X17011225Y-14480000D01*
X24990000Y-2001225D02*
X24989973Y-2000124D01*
X17010027Y-2000124D02*
X17010000Y-2001225D01*
D11*
D12*
X17185000Y-2175000D02*
X17335000Y-2325000D01*
X17335000Y-2175000D02*
X17185000Y-2325000D01*
X17185000Y-14155000D02*
X17335000Y-14305000D01*
X17335000Y-14155000D02*
X17185000Y-14305000D01*
X24665000Y-2175000D02*
X24815000Y-2325000D01*
X24815000Y-2175000D02*
X24665000Y-2325000D01*
D11*
X18230000Y-11097500D02*
G75*
G02*
X18030000Y-11097500I-100000J0D01*
G01*
X18030000Y-11097500D02*
G75*
G02*
X18230000Y-11097500I100000J0D01*
G01*
D13*
X17780000Y-7187500D02*
X17780000Y-7507500D01*
X17620000Y-7347500D02*
X17940000Y-7347500D01*
X21980000Y-7187500D02*
X21980000Y-7507500D01*
X21820000Y-7347500D02*
X22140000Y-7347500D01*
D14*
X19993745Y-4861245D02*
X19993745Y-4613755D01*
X19746255Y-4613755D01*
X19746255Y-4861245D01*
X19993745Y-4861245D01*
X19993745Y-10401245D02*
X19993745Y-10153755D01*
X19746255Y-10153755D01*
X19746255Y-10401245D01*
X19993745Y-10401245D01*
D15*
X18120000Y-4972500D02*
X18345000Y-4747500D01*
X18120000Y-4522500D01*
X17895000Y-4747500D01*
X18120000Y-4972500D01*
X21620000Y-10492500D02*
X21845000Y-10267500D01*
X21620000Y-10042500D01*
X21395000Y-10267500D01*
X21620000Y-10492500D01*
D11*
X17265777Y-14796484D02*
X17265777Y-14596484D01*
X17265777Y-14596484D02*
X17313396Y-14596484D01*
X17313396Y-14596484D02*
X17341967Y-14606008D01*
X17341967Y-14606008D02*
X17361015Y-14625055D01*
X17361015Y-14625055D02*
X17370539Y-14644103D01*
X17370539Y-14644103D02*
X17380063Y-14682198D01*
X17380063Y-14682198D02*
X17380063Y-14710769D01*
X17380063Y-14710769D02*
X17370539Y-14748865D01*
X17370539Y-14748865D02*
X17361015Y-14767912D01*
X17361015Y-14767912D02*
X17341967Y-14786960D01*
X17341967Y-14786960D02*
X17313396Y-14796484D01*
X17313396Y-14796484D02*
X17265777Y-14796484D01*
X17465777Y-14796484D02*
X17465777Y-14663150D01*
X17465777Y-14701246D02*
X17475301Y-14682198D01*
X17475301Y-14682198D02*
X17484824Y-14672674D01*
X17484824Y-14672674D02*
X17503872Y-14663150D01*
X17503872Y-14663150D02*
X17522920Y-14663150D01*
X17589586Y-14796484D02*
X17589586Y-14663150D01*
X17589586Y-14596484D02*
X17580063Y-14606008D01*
X17580063Y-14606008D02*
X17589586Y-14615531D01*
X17589586Y-14615531D02*
X17599110Y-14606008D01*
X17599110Y-14606008D02*
X17589586Y-14596484D01*
X17589586Y-14596484D02*
X17589586Y-14615531D01*
X17713396Y-14796484D02*
X17694348Y-14786960D01*
X17694348Y-14786960D02*
X17684824Y-14767912D01*
X17684824Y-14767912D02*
X17684824Y-14596484D01*
X17818158Y-14796484D02*
X17799110Y-14786960D01*
X17799110Y-14786960D02*
X17789586Y-14767912D01*
X17789586Y-14767912D02*
X17789586Y-14596484D01*
X18046729Y-14796484D02*
X18046729Y-14596484D01*
X18046729Y-14596484D02*
X18113396Y-14739341D01*
X18113396Y-14739341D02*
X18180063Y-14596484D01*
X18180063Y-14596484D02*
X18180063Y-14796484D01*
X18361015Y-14796484D02*
X18361015Y-14691722D01*
X18361015Y-14691722D02*
X18351491Y-14672674D01*
X18351491Y-14672674D02*
X18332444Y-14663150D01*
X18332444Y-14663150D02*
X18294348Y-14663150D01*
X18294348Y-14663150D02*
X18275301Y-14672674D01*
X18361015Y-14786960D02*
X18341967Y-14796484D01*
X18341967Y-14796484D02*
X18294348Y-14796484D01*
X18294348Y-14796484D02*
X18275301Y-14786960D01*
X18275301Y-14786960D02*
X18265777Y-14767912D01*
X18265777Y-14767912D02*
X18265777Y-14748865D01*
X18265777Y-14748865D02*
X18275301Y-14729817D01*
X18275301Y-14729817D02*
X18294348Y-14720293D01*
X18294348Y-14720293D02*
X18341967Y-14720293D01*
X18341967Y-14720293D02*
X18361015Y-14710769D01*
X18456253Y-14663150D02*
X18456253Y-14863150D01*
X18456253Y-14672674D02*
X18475301Y-14663150D01*
X18475301Y-14663150D02*
X18513396Y-14663150D01*
X18513396Y-14663150D02*
X18532444Y-14672674D01*
X18532444Y-14672674D02*
X18541967Y-14682198D01*
X18541967Y-14682198D02*
X18551491Y-14701246D01*
X18551491Y-14701246D02*
X18551491Y-14758388D01*
X18551491Y-14758388D02*
X18541967Y-14777436D01*
X18541967Y-14777436D02*
X18532444Y-14786960D01*
X18532444Y-14786960D02*
X18513396Y-14796484D01*
X18513396Y-14796484D02*
X18475301Y-14796484D01*
X18475301Y-14796484D02*
X18456253Y-14786960D01*
X18637205Y-14777436D02*
X18646729Y-14786960D01*
X18646729Y-14786960D02*
X18637205Y-14796484D01*
X18637205Y-14796484D02*
X18627682Y-14786960D01*
X18627682Y-14786960D02*
X18637205Y-14777436D01*
X18637205Y-14777436D02*
X18637205Y-14796484D01*
X18637205Y-14672674D02*
X18646729Y-14682198D01*
X18646729Y-14682198D02*
X18637205Y-14691722D01*
X18637205Y-14691722D02*
X18627682Y-14682198D01*
X18627682Y-14682198D02*
X18637205Y-14672674D01*
X18637205Y-14672674D02*
X18637205Y-14691722D01*
D12*
X16855000Y-15050000D02*
X17005000Y-15200000D01*
X17005000Y-15050000D02*
X16855000Y-15200000D01*
D11*
X17370539Y-15216484D02*
X17256253Y-15216484D01*
X17313396Y-15216484D02*
X17313396Y-15016484D01*
X17313396Y-15016484D02*
X17294348Y-15045055D01*
X17294348Y-15045055D02*
X17275301Y-15064103D01*
X17275301Y-15064103D02*
X17256253Y-15073627D01*
X17456253Y-15197436D02*
X17465777Y-15206960D01*
X17465777Y-15206960D02*
X17456253Y-15216484D01*
X17456253Y-15216484D02*
X17446729Y-15206960D01*
X17446729Y-15206960D02*
X17456253Y-15197436D01*
X17456253Y-15197436D02*
X17456253Y-15216484D01*
X17646729Y-15016484D02*
X17551491Y-15016484D01*
X17551491Y-15016484D02*
X17541967Y-15111722D01*
X17541967Y-15111722D02*
X17551491Y-15102198D01*
X17551491Y-15102198D02*
X17570539Y-15092674D01*
X17570539Y-15092674D02*
X17618158Y-15092674D01*
X17618158Y-15092674D02*
X17637205Y-15102198D01*
X17637205Y-15102198D02*
X17646729Y-15111722D01*
X17646729Y-15111722D02*
X17656253Y-15130769D01*
X17656253Y-15130769D02*
X17656253Y-15178388D01*
X17656253Y-15178388D02*
X17646729Y-15197436D01*
X17646729Y-15197436D02*
X17637205Y-15206960D01*
X17637205Y-15206960D02*
X17618158Y-15216484D01*
X17618158Y-15216484D02*
X17570539Y-15216484D01*
X17570539Y-15216484D02*
X17551491Y-15206960D01*
X17551491Y-15206960D02*
X17541967Y-15197436D01*
X17780063Y-15016484D02*
X17799110Y-15016484D01*
X17799110Y-15016484D02*
X17818158Y-15026008D01*
X17818158Y-15026008D02*
X17827682Y-15035531D01*
X17827682Y-15035531D02*
X17837205Y-15054579D01*
X17837205Y-15054579D02*
X17846729Y-15092674D01*
X17846729Y-15092674D02*
X17846729Y-15140293D01*
X17846729Y-15140293D02*
X17837205Y-15178388D01*
X17837205Y-15178388D02*
X17827682Y-15197436D01*
X17827682Y-15197436D02*
X17818158Y-15206960D01*
X17818158Y-15206960D02*
X17799110Y-15216484D01*
X17799110Y-15216484D02*
X17780063Y-15216484D01*
X17780063Y-15216484D02*
X17761015Y-15206960D01*
X17761015Y-15206960D02*
X17751491Y-15197436D01*
X17751491Y-15197436D02*
X17741967Y-15178388D01*
X17741967Y-15178388D02*
X17732444Y-15140293D01*
X17732444Y-15140293D02*
X17732444Y-15092674D01*
X17732444Y-15092674D02*
X17741967Y-15054579D01*
X17741967Y-15054579D02*
X17751491Y-15035531D01*
X17751491Y-15035531D02*
X17761015Y-15026008D01*
X17761015Y-15026008D02*
X17780063Y-15016484D01*
X17970539Y-15016484D02*
X17989586Y-15016484D01*
X17989586Y-15016484D02*
X18008634Y-15026008D01*
X18008634Y-15026008D02*
X18018158Y-15035531D01*
X18018158Y-15035531D02*
X18027682Y-15054579D01*
X18027682Y-15054579D02*
X18037205Y-15092674D01*
X18037205Y-15092674D02*
X18037205Y-15140293D01*
X18037205Y-15140293D02*
X18027682Y-15178388D01*
X18027682Y-15178388D02*
X18018158Y-15197436D01*
X18018158Y-15197436D02*
X18008634Y-15206960D01*
X18008634Y-15206960D02*
X17989586Y-15216484D01*
X17989586Y-15216484D02*
X17970539Y-15216484D01*
X17970539Y-15216484D02*
X17951491Y-15206960D01*
X17951491Y-15206960D02*
X17941967Y-15197436D01*
X17941967Y-15197436D02*
X17932444Y-15178388D01*
X17932444Y-15178388D02*
X17922920Y-15140293D01*
X17922920Y-15140293D02*
X17922920Y-15092674D01*
X17922920Y-15092674D02*
X17932444Y-15054579D01*
X17932444Y-15054579D02*
X17941967Y-15035531D01*
X17941967Y-15035531D02*
X17951491Y-15026008D01*
X17951491Y-15026008D02*
X17970539Y-15016484D01*
X18122920Y-15216484D02*
X18122920Y-15083150D01*
X18122920Y-15102198D02*
X18132444Y-15092674D01*
X18132444Y-15092674D02*
X18151491Y-15083150D01*
X18151491Y-15083150D02*
X18180063Y-15083150D01*
X18180063Y-15083150D02*
X18199110Y-15092674D01*
X18199110Y-15092674D02*
X18208634Y-15111722D01*
X18208634Y-15111722D02*
X18208634Y-15216484D01*
X18208634Y-15111722D02*
X18218158Y-15092674D01*
X18218158Y-15092674D02*
X18237205Y-15083150D01*
X18237205Y-15083150D02*
X18265777Y-15083150D01*
X18265777Y-15083150D02*
X18284825Y-15092674D01*
X18284825Y-15092674D02*
X18294348Y-15111722D01*
X18294348Y-15111722D02*
X18294348Y-15216484D01*
X18389586Y-15216484D02*
X18389586Y-15083150D01*
X18389586Y-15102198D02*
X18399110Y-15092674D01*
X18399110Y-15092674D02*
X18418158Y-15083150D01*
X18418158Y-15083150D02*
X18446729Y-15083150D01*
X18446729Y-15083150D02*
X18465777Y-15092674D01*
X18465777Y-15092674D02*
X18475301Y-15111722D01*
X18475301Y-15111722D02*
X18475301Y-15216484D01*
X18475301Y-15111722D02*
X18484825Y-15092674D01*
X18484825Y-15092674D02*
X18503872Y-15083150D01*
X18503872Y-15083150D02*
X18532444Y-15083150D01*
X18532444Y-15083150D02*
X18551491Y-15092674D01*
X18551491Y-15092674D02*
X18561015Y-15111722D01*
X18561015Y-15111722D02*
X18561015Y-15216484D01*
X18951491Y-15006960D02*
X18780063Y-15264103D01*
X19208634Y-15016484D02*
X19227682Y-15016484D01*
X19227682Y-15016484D02*
X19246729Y-15026008D01*
X19246729Y-15026008D02*
X19256253Y-15035531D01*
X19256253Y-15035531D02*
X19265777Y-15054579D01*
X19265777Y-15054579D02*
X19275301Y-15092674D01*
X19275301Y-15092674D02*
X19275301Y-15140293D01*
X19275301Y-15140293D02*
X19265777Y-15178388D01*
X19265777Y-15178388D02*
X19256253Y-15197436D01*
X19256253Y-15197436D02*
X19246729Y-15206960D01*
X19246729Y-15206960D02*
X19227682Y-15216484D01*
X19227682Y-15216484D02*
X19208634Y-15216484D01*
X19208634Y-15216484D02*
X19189587Y-15206960D01*
X19189587Y-15206960D02*
X19180063Y-15197436D01*
X19180063Y-15197436D02*
X19170539Y-15178388D01*
X19170539Y-15178388D02*
X19161015Y-15140293D01*
X19161015Y-15140293D02*
X19161015Y-15092674D01*
X19161015Y-15092674D02*
X19170539Y-15054579D01*
X19170539Y-15054579D02*
X19180063Y-15035531D01*
X19180063Y-15035531D02*
X19189587Y-15026008D01*
X19189587Y-15026008D02*
X19208634Y-15016484D01*
X19361015Y-15197436D02*
X19370539Y-15206960D01*
X19370539Y-15206960D02*
X19361015Y-15216484D01*
X19361015Y-15216484D02*
X19351491Y-15206960D01*
X19351491Y-15206960D02*
X19361015Y-15197436D01*
X19361015Y-15197436D02*
X19361015Y-15216484D01*
X19494348Y-15016484D02*
X19513396Y-15016484D01*
X19513396Y-15016484D02*
X19532444Y-15026008D01*
X19532444Y-15026008D02*
X19541968Y-15035531D01*
X19541968Y-15035531D02*
X19551491Y-15054579D01*
X19551491Y-15054579D02*
X19561015Y-15092674D01*
X19561015Y-15092674D02*
X19561015Y-15140293D01*
X19561015Y-15140293D02*
X19551491Y-15178388D01*
X19551491Y-15178388D02*
X19541968Y-15197436D01*
X19541968Y-15197436D02*
X19532444Y-15206960D01*
X19532444Y-15206960D02*
X19513396Y-15216484D01*
X19513396Y-15216484D02*
X19494348Y-15216484D01*
X19494348Y-15216484D02*
X19475301Y-15206960D01*
X19475301Y-15206960D02*
X19465777Y-15197436D01*
X19465777Y-15197436D02*
X19456253Y-15178388D01*
X19456253Y-15178388D02*
X19446729Y-15140293D01*
X19446729Y-15140293D02*
X19446729Y-15092674D01*
X19446729Y-15092674D02*
X19456253Y-15054579D01*
X19456253Y-15054579D02*
X19465777Y-15035531D01*
X19465777Y-15035531D02*
X19475301Y-15026008D01*
X19475301Y-15026008D02*
X19494348Y-15016484D01*
X19741968Y-15016484D02*
X19646729Y-15016484D01*
X19646729Y-15016484D02*
X19637206Y-15111722D01*
X19637206Y-15111722D02*
X19646729Y-15102198D01*
X19646729Y-15102198D02*
X19665777Y-15092674D01*
X19665777Y-15092674D02*
X19713396Y-15092674D01*
X19713396Y-15092674D02*
X19732444Y-15102198D01*
X19732444Y-15102198D02*
X19741968Y-15111722D01*
X19741968Y-15111722D02*
X19751491Y-15130769D01*
X19751491Y-15130769D02*
X19751491Y-15178388D01*
X19751491Y-15178388D02*
X19741968Y-15197436D01*
X19741968Y-15197436D02*
X19732444Y-15206960D01*
X19732444Y-15206960D02*
X19713396Y-15216484D01*
X19713396Y-15216484D02*
X19665777Y-15216484D01*
X19665777Y-15216484D02*
X19646729Y-15206960D01*
X19646729Y-15206960D02*
X19637206Y-15197436D01*
X19846729Y-15216484D02*
X19884825Y-15216484D01*
X19884825Y-15216484D02*
X19903872Y-15206960D01*
X19903872Y-15206960D02*
X19913396Y-15197436D01*
X19913396Y-15197436D02*
X19932444Y-15168865D01*
X19932444Y-15168865D02*
X19941968Y-15130769D01*
X19941968Y-15130769D02*
X19941968Y-15054579D01*
X19941968Y-15054579D02*
X19932444Y-15035531D01*
X19932444Y-15035531D02*
X19922920Y-15026008D01*
X19922920Y-15026008D02*
X19903872Y-15016484D01*
X19903872Y-15016484D02*
X19865777Y-15016484D01*
X19865777Y-15016484D02*
X19846729Y-15026008D01*
X19846729Y-15026008D02*
X19837206Y-15035531D01*
X19837206Y-15035531D02*
X19827682Y-15054579D01*
X19827682Y-15054579D02*
X19827682Y-15102198D01*
X19827682Y-15102198D02*
X19837206Y-15121246D01*
X19837206Y-15121246D02*
X19846729Y-15130769D01*
X19846729Y-15130769D02*
X19865777Y-15140293D01*
X19865777Y-15140293D02*
X19903872Y-15140293D01*
X19903872Y-15140293D02*
X19922920Y-15130769D01*
X19922920Y-15130769D02*
X19932444Y-15121246D01*
X19932444Y-15121246D02*
X19941968Y-15102198D01*
X20132444Y-15216484D02*
X20018158Y-15216484D01*
X20075301Y-15216484D02*
X20075301Y-15016484D01*
X20075301Y-15016484D02*
X20056253Y-15045055D01*
X20056253Y-15045055D02*
X20037206Y-15064103D01*
X20037206Y-15064103D02*
X20018158Y-15073627D01*
X20208634Y-15016484D02*
X20208634Y-15054579D01*
X20284825Y-15016484D02*
X20284825Y-15054579D01*
X20580063Y-15292674D02*
X20570539Y-15283150D01*
X20570539Y-15283150D02*
X20551491Y-15254579D01*
X20551491Y-15254579D02*
X20541968Y-15235531D01*
X20541968Y-15235531D02*
X20532444Y-15206960D01*
X20532444Y-15206960D02*
X20522920Y-15159341D01*
X20522920Y-15159341D02*
X20522920Y-15121246D01*
X20522920Y-15121246D02*
X20532444Y-15073627D01*
X20532444Y-15073627D02*
X20541968Y-15045055D01*
X20541968Y-15045055D02*
X20551491Y-15026008D01*
X20551491Y-15026008D02*
X20570539Y-14997436D01*
X20570539Y-14997436D02*
X20580063Y-14987912D01*
X20637206Y-15016484D02*
X20761015Y-15016484D01*
X20761015Y-15016484D02*
X20694349Y-15092674D01*
X20694349Y-15092674D02*
X20722920Y-15092674D01*
X20722920Y-15092674D02*
X20741968Y-15102198D01*
X20741968Y-15102198D02*
X20751491Y-15111722D01*
X20751491Y-15111722D02*
X20761015Y-15130769D01*
X20761015Y-15130769D02*
X20761015Y-15178388D01*
X20761015Y-15178388D02*
X20751491Y-15197436D01*
X20751491Y-15197436D02*
X20741968Y-15206960D01*
X20741968Y-15206960D02*
X20722920Y-15216484D01*
X20722920Y-15216484D02*
X20665777Y-15216484D01*
X20665777Y-15216484D02*
X20646730Y-15206960D01*
X20646730Y-15206960D02*
X20637206Y-15197436D01*
X20999111Y-15216484D02*
X20999111Y-15016484D01*
X21084825Y-15216484D02*
X21084825Y-15111722D01*
X21084825Y-15111722D02*
X21075301Y-15092674D01*
X21075301Y-15092674D02*
X21056253Y-15083150D01*
X21056253Y-15083150D02*
X21027682Y-15083150D01*
X21027682Y-15083150D02*
X21008634Y-15092674D01*
X21008634Y-15092674D02*
X20999111Y-15102198D01*
X21208634Y-15216484D02*
X21189587Y-15206960D01*
X21189587Y-15206960D02*
X21180063Y-15197436D01*
X21180063Y-15197436D02*
X21170539Y-15178388D01*
X21170539Y-15178388D02*
X21170539Y-15121246D01*
X21170539Y-15121246D02*
X21180063Y-15102198D01*
X21180063Y-15102198D02*
X21189587Y-15092674D01*
X21189587Y-15092674D02*
X21208634Y-15083150D01*
X21208634Y-15083150D02*
X21237206Y-15083150D01*
X21237206Y-15083150D02*
X21256253Y-15092674D01*
X21256253Y-15092674D02*
X21265777Y-15102198D01*
X21265777Y-15102198D02*
X21275301Y-15121246D01*
X21275301Y-15121246D02*
X21275301Y-15178388D01*
X21275301Y-15178388D02*
X21265777Y-15197436D01*
X21265777Y-15197436D02*
X21256253Y-15206960D01*
X21256253Y-15206960D02*
X21237206Y-15216484D01*
X21237206Y-15216484D02*
X21208634Y-15216484D01*
X21389587Y-15216484D02*
X21370539Y-15206960D01*
X21370539Y-15206960D02*
X21361015Y-15187912D01*
X21361015Y-15187912D02*
X21361015Y-15016484D01*
X21541968Y-15206960D02*
X21522920Y-15216484D01*
X21522920Y-15216484D02*
X21484825Y-15216484D01*
X21484825Y-15216484D02*
X21465777Y-15206960D01*
X21465777Y-15206960D02*
X21456253Y-15187912D01*
X21456253Y-15187912D02*
X21456253Y-15111722D01*
X21456253Y-15111722D02*
X21465777Y-15092674D01*
X21465777Y-15092674D02*
X21484825Y-15083150D01*
X21484825Y-15083150D02*
X21522920Y-15083150D01*
X21522920Y-15083150D02*
X21541968Y-15092674D01*
X21541968Y-15092674D02*
X21551492Y-15111722D01*
X21551492Y-15111722D02*
X21551492Y-15130769D01*
X21551492Y-15130769D02*
X21456253Y-15149817D01*
X21627682Y-15206960D02*
X21646730Y-15216484D01*
X21646730Y-15216484D02*
X21684825Y-15216484D01*
X21684825Y-15216484D02*
X21703873Y-15206960D01*
X21703873Y-15206960D02*
X21713396Y-15187912D01*
X21713396Y-15187912D02*
X21713396Y-15178388D01*
X21713396Y-15178388D02*
X21703873Y-15159341D01*
X21703873Y-15159341D02*
X21684825Y-15149817D01*
X21684825Y-15149817D02*
X21656253Y-15149817D01*
X21656253Y-15149817D02*
X21637206Y-15140293D01*
X21637206Y-15140293D02*
X21627682Y-15121246D01*
X21627682Y-15121246D02*
X21627682Y-15111722D01*
X21627682Y-15111722D02*
X21637206Y-15092674D01*
X21637206Y-15092674D02*
X21656253Y-15083150D01*
X21656253Y-15083150D02*
X21684825Y-15083150D01*
X21684825Y-15083150D02*
X21703873Y-15092674D01*
X21780063Y-15292674D02*
X21789587Y-15283150D01*
X21789587Y-15283150D02*
X21808634Y-15254579D01*
X21808634Y-15254579D02*
X21818158Y-15235531D01*
X21818158Y-15235531D02*
X21827682Y-15206960D01*
X21827682Y-15206960D02*
X21837206Y-15159341D01*
X21837206Y-15159341D02*
X21837206Y-15121246D01*
X21837206Y-15121246D02*
X21827682Y-15073627D01*
X21827682Y-15073627D02*
X21818158Y-15045055D01*
X21818158Y-15045055D02*
X21808634Y-15026008D01*
X21808634Y-15026008D02*
X21789587Y-14997436D01*
X21789587Y-14997436D02*
X21780063Y-14987912D01*
X22141968Y-15292674D02*
X22132444Y-15283150D01*
X22132444Y-15283150D02*
X22113396Y-15254579D01*
X22113396Y-15254579D02*
X22103873Y-15235531D01*
X22103873Y-15235531D02*
X22094349Y-15206960D01*
X22094349Y-15206960D02*
X22084825Y-15159341D01*
X22084825Y-15159341D02*
X22084825Y-15121246D01*
X22084825Y-15121246D02*
X22094349Y-15073627D01*
X22094349Y-15073627D02*
X22103873Y-15045055D01*
X22103873Y-15045055D02*
X22113396Y-15026008D01*
X22113396Y-15026008D02*
X22132444Y-14997436D01*
X22132444Y-14997436D02*
X22141968Y-14987912D01*
X22218158Y-15083150D02*
X22218158Y-15216484D01*
X22218158Y-15102198D02*
X22227682Y-15092674D01*
X22227682Y-15092674D02*
X22246730Y-15083150D01*
X22246730Y-15083150D02*
X22275301Y-15083150D01*
X22275301Y-15083150D02*
X22294349Y-15092674D01*
X22294349Y-15092674D02*
X22303873Y-15111722D01*
X22303873Y-15111722D02*
X22303873Y-15216484D01*
X22427682Y-15216484D02*
X22408634Y-15206960D01*
X22408634Y-15206960D02*
X22399111Y-15197436D01*
X22399111Y-15197436D02*
X22389587Y-15178388D01*
X22389587Y-15178388D02*
X22389587Y-15121246D01*
X22389587Y-15121246D02*
X22399111Y-15102198D01*
X22399111Y-15102198D02*
X22408634Y-15092674D01*
X22408634Y-15092674D02*
X22427682Y-15083150D01*
X22427682Y-15083150D02*
X22456253Y-15083150D01*
X22456253Y-15083150D02*
X22475301Y-15092674D01*
X22475301Y-15092674D02*
X22484825Y-15102198D01*
X22484825Y-15102198D02*
X22494349Y-15121246D01*
X22494349Y-15121246D02*
X22494349Y-15178388D01*
X22494349Y-15178388D02*
X22484825Y-15197436D01*
X22484825Y-15197436D02*
X22475301Y-15206960D01*
X22475301Y-15206960D02*
X22456253Y-15216484D01*
X22456253Y-15216484D02*
X22427682Y-15216484D01*
X22551492Y-15083150D02*
X22627682Y-15083150D01*
X22580063Y-15016484D02*
X22580063Y-15187912D01*
X22580063Y-15187912D02*
X22589587Y-15206960D01*
X22589587Y-15206960D02*
X22608634Y-15216484D01*
X22608634Y-15216484D02*
X22627682Y-15216484D01*
X22846730Y-15083150D02*
X22846730Y-15283150D01*
X22846730Y-15092674D02*
X22865777Y-15083150D01*
X22865777Y-15083150D02*
X22903873Y-15083150D01*
X22903873Y-15083150D02*
X22922920Y-15092674D01*
X22922920Y-15092674D02*
X22932444Y-15102198D01*
X22932444Y-15102198D02*
X22941968Y-15121246D01*
X22941968Y-15121246D02*
X22941968Y-15178388D01*
X22941968Y-15178388D02*
X22932444Y-15197436D01*
X22932444Y-15197436D02*
X22922920Y-15206960D01*
X22922920Y-15206960D02*
X22903873Y-15216484D01*
X22903873Y-15216484D02*
X22865777Y-15216484D01*
X22865777Y-15216484D02*
X22846730Y-15206960D01*
X23056253Y-15216484D02*
X23037206Y-15206960D01*
X23037206Y-15206960D02*
X23027682Y-15187912D01*
X23027682Y-15187912D02*
X23027682Y-15016484D01*
X23218158Y-15216484D02*
X23218158Y-15111722D01*
X23218158Y-15111722D02*
X23208634Y-15092674D01*
X23208634Y-15092674D02*
X23189587Y-15083150D01*
X23189587Y-15083150D02*
X23151492Y-15083150D01*
X23151492Y-15083150D02*
X23132444Y-15092674D01*
X23218158Y-15206960D02*
X23199111Y-15216484D01*
X23199111Y-15216484D02*
X23151492Y-15216484D01*
X23151492Y-15216484D02*
X23132444Y-15206960D01*
X23132444Y-15206960D02*
X23122920Y-15187912D01*
X23122920Y-15187912D02*
X23122920Y-15168865D01*
X23122920Y-15168865D02*
X23132444Y-15149817D01*
X23132444Y-15149817D02*
X23151492Y-15140293D01*
X23151492Y-15140293D02*
X23199111Y-15140293D01*
X23199111Y-15140293D02*
X23218158Y-15130769D01*
X23284825Y-15083150D02*
X23361015Y-15083150D01*
X23313396Y-15016484D02*
X23313396Y-15187912D01*
X23313396Y-15187912D02*
X23322920Y-15206960D01*
X23322920Y-15206960D02*
X23341968Y-15216484D01*
X23341968Y-15216484D02*
X23361015Y-15216484D01*
X23503873Y-15206960D02*
X23484825Y-15216484D01*
X23484825Y-15216484D02*
X23446730Y-15216484D01*
X23446730Y-15216484D02*
X23427682Y-15206960D01*
X23427682Y-15206960D02*
X23418158Y-15187912D01*
X23418158Y-15187912D02*
X23418158Y-15111722D01*
X23418158Y-15111722D02*
X23427682Y-15092674D01*
X23427682Y-15092674D02*
X23446730Y-15083150D01*
X23446730Y-15083150D02*
X23484825Y-15083150D01*
X23484825Y-15083150D02*
X23503873Y-15092674D01*
X23503873Y-15092674D02*
X23513396Y-15111722D01*
X23513396Y-15111722D02*
X23513396Y-15130769D01*
X23513396Y-15130769D02*
X23418158Y-15149817D01*
X23684825Y-15216484D02*
X23684825Y-15016484D01*
X23684825Y-15206960D02*
X23665777Y-15216484D01*
X23665777Y-15216484D02*
X23627682Y-15216484D01*
X23627682Y-15216484D02*
X23608634Y-15206960D01*
X23608634Y-15206960D02*
X23599111Y-15197436D01*
X23599111Y-15197436D02*
X23589587Y-15178388D01*
X23589587Y-15178388D02*
X23589587Y-15121246D01*
X23589587Y-15121246D02*
X23599111Y-15102198D01*
X23599111Y-15102198D02*
X23608634Y-15092674D01*
X23608634Y-15092674D02*
X23627682Y-15083150D01*
X23627682Y-15083150D02*
X23665777Y-15083150D01*
X23665777Y-15083150D02*
X23684825Y-15092674D01*
X23761015Y-15292674D02*
X23770539Y-15283150D01*
X23770539Y-15283150D02*
X23789587Y-15254579D01*
X23789587Y-15254579D02*
X23799111Y-15235531D01*
X23799111Y-15235531D02*
X23808634Y-15206960D01*
X23808634Y-15206960D02*
X23818158Y-15159341D01*
X23818158Y-15159341D02*
X23818158Y-15121246D01*
X23818158Y-15121246D02*
X23808634Y-15073627D01*
X23808634Y-15073627D02*
X23799111Y-15045055D01*
X23799111Y-15045055D02*
X23789587Y-15026008D01*
X23789587Y-15026008D02*
X23770539Y-14997436D01*
X23770539Y-14997436D02*
X23761015Y-14987912D01*
X17005000Y-15395000D02*
G75*
G02*
X16805000Y-15395000I-100000J0D01*
G01*
X16805000Y-15395000D02*
G75*
G02*
X17005000Y-15395000I100000J0D01*
G01*
X17256253Y-15305531D02*
X17265777Y-15296008D01*
X17265777Y-15296008D02*
X17284824Y-15286484D01*
X17284824Y-15286484D02*
X17332444Y-15286484D01*
X17332444Y-15286484D02*
X17351491Y-15296008D01*
X17351491Y-15296008D02*
X17361015Y-15305531D01*
X17361015Y-15305531D02*
X17370539Y-15324579D01*
X17370539Y-15324579D02*
X17370539Y-15343627D01*
X17370539Y-15343627D02*
X17361015Y-15372198D01*
X17361015Y-15372198D02*
X17246729Y-15486484D01*
X17246729Y-15486484D02*
X17370539Y-15486484D01*
X17456253Y-15467436D02*
X17465777Y-15476960D01*
X17465777Y-15476960D02*
X17456253Y-15486484D01*
X17456253Y-15486484D02*
X17446729Y-15476960D01*
X17446729Y-15476960D02*
X17456253Y-15467436D01*
X17456253Y-15467436D02*
X17456253Y-15486484D01*
X17589586Y-15286484D02*
X17608634Y-15286484D01*
X17608634Y-15286484D02*
X17627682Y-15296008D01*
X17627682Y-15296008D02*
X17637205Y-15305531D01*
X17637205Y-15305531D02*
X17646729Y-15324579D01*
X17646729Y-15324579D02*
X17656253Y-15362674D01*
X17656253Y-15362674D02*
X17656253Y-15410293D01*
X17656253Y-15410293D02*
X17646729Y-15448388D01*
X17646729Y-15448388D02*
X17637205Y-15467436D01*
X17637205Y-15467436D02*
X17627682Y-15476960D01*
X17627682Y-15476960D02*
X17608634Y-15486484D01*
X17608634Y-15486484D02*
X17589586Y-15486484D01*
X17589586Y-15486484D02*
X17570539Y-15476960D01*
X17570539Y-15476960D02*
X17561015Y-15467436D01*
X17561015Y-15467436D02*
X17551491Y-15448388D01*
X17551491Y-15448388D02*
X17541967Y-15410293D01*
X17541967Y-15410293D02*
X17541967Y-15362674D01*
X17541967Y-15362674D02*
X17551491Y-15324579D01*
X17551491Y-15324579D02*
X17561015Y-15305531D01*
X17561015Y-15305531D02*
X17570539Y-15296008D01*
X17570539Y-15296008D02*
X17589586Y-15286484D01*
X17780063Y-15286484D02*
X17799110Y-15286484D01*
X17799110Y-15286484D02*
X17818158Y-15296008D01*
X17818158Y-15296008D02*
X17827682Y-15305531D01*
X17827682Y-15305531D02*
X17837205Y-15324579D01*
X17837205Y-15324579D02*
X17846729Y-15362674D01*
X17846729Y-15362674D02*
X17846729Y-15410293D01*
X17846729Y-15410293D02*
X17837205Y-15448388D01*
X17837205Y-15448388D02*
X17827682Y-15467436D01*
X17827682Y-15467436D02*
X17818158Y-15476960D01*
X17818158Y-15476960D02*
X17799110Y-15486484D01*
X17799110Y-15486484D02*
X17780063Y-15486484D01*
X17780063Y-15486484D02*
X17761015Y-15476960D01*
X17761015Y-15476960D02*
X17751491Y-15467436D01*
X17751491Y-15467436D02*
X17741967Y-15448388D01*
X17741967Y-15448388D02*
X17732444Y-15410293D01*
X17732444Y-15410293D02*
X17732444Y-15362674D01*
X17732444Y-15362674D02*
X17741967Y-15324579D01*
X17741967Y-15324579D02*
X17751491Y-15305531D01*
X17751491Y-15305531D02*
X17761015Y-15296008D01*
X17761015Y-15296008D02*
X17780063Y-15286484D01*
X17970539Y-15286484D02*
X17989586Y-15286484D01*
X17989586Y-15286484D02*
X18008634Y-15296008D01*
X18008634Y-15296008D02*
X18018158Y-15305531D01*
X18018158Y-15305531D02*
X18027682Y-15324579D01*
X18027682Y-15324579D02*
X18037205Y-15362674D01*
X18037205Y-15362674D02*
X18037205Y-15410293D01*
X18037205Y-15410293D02*
X18027682Y-15448388D01*
X18027682Y-15448388D02*
X18018158Y-15467436D01*
X18018158Y-15467436D02*
X18008634Y-15476960D01*
X18008634Y-15476960D02*
X17989586Y-15486484D01*
X17989586Y-15486484D02*
X17970539Y-15486484D01*
X17970539Y-15486484D02*
X17951491Y-15476960D01*
X17951491Y-15476960D02*
X17941967Y-15467436D01*
X17941967Y-15467436D02*
X17932444Y-15448388D01*
X17932444Y-15448388D02*
X17922920Y-15410293D01*
X17922920Y-15410293D02*
X17922920Y-15362674D01*
X17922920Y-15362674D02*
X17932444Y-15324579D01*
X17932444Y-15324579D02*
X17941967Y-15305531D01*
X17941967Y-15305531D02*
X17951491Y-15296008D01*
X17951491Y-15296008D02*
X17970539Y-15286484D01*
X18122920Y-15486484D02*
X18122920Y-15353150D01*
X18122920Y-15372198D02*
X18132444Y-15362674D01*
X18132444Y-15362674D02*
X18151491Y-15353150D01*
X18151491Y-15353150D02*
X18180063Y-15353150D01*
X18180063Y-15353150D02*
X18199110Y-15362674D01*
X18199110Y-15362674D02*
X18208634Y-15381722D01*
X18208634Y-15381722D02*
X18208634Y-15486484D01*
X18208634Y-15381722D02*
X18218158Y-15362674D01*
X18218158Y-15362674D02*
X18237205Y-15353150D01*
X18237205Y-15353150D02*
X18265777Y-15353150D01*
X18265777Y-15353150D02*
X18284825Y-15362674D01*
X18284825Y-15362674D02*
X18294348Y-15381722D01*
X18294348Y-15381722D02*
X18294348Y-15486484D01*
X18389586Y-15486484D02*
X18389586Y-15353150D01*
X18389586Y-15372198D02*
X18399110Y-15362674D01*
X18399110Y-15362674D02*
X18418158Y-15353150D01*
X18418158Y-15353150D02*
X18446729Y-15353150D01*
X18446729Y-15353150D02*
X18465777Y-15362674D01*
X18465777Y-15362674D02*
X18475301Y-15381722D01*
X18475301Y-15381722D02*
X18475301Y-15486484D01*
X18475301Y-15381722D02*
X18484825Y-15362674D01*
X18484825Y-15362674D02*
X18503872Y-15353150D01*
X18503872Y-15353150D02*
X18532444Y-15353150D01*
X18532444Y-15353150D02*
X18551491Y-15362674D01*
X18551491Y-15362674D02*
X18561015Y-15381722D01*
X18561015Y-15381722D02*
X18561015Y-15486484D01*
X18951491Y-15276960D02*
X18780063Y-15534103D01*
X19208634Y-15286484D02*
X19227682Y-15286484D01*
X19227682Y-15286484D02*
X19246729Y-15296008D01*
X19246729Y-15296008D02*
X19256253Y-15305531D01*
X19256253Y-15305531D02*
X19265777Y-15324579D01*
X19265777Y-15324579D02*
X19275301Y-15362674D01*
X19275301Y-15362674D02*
X19275301Y-15410293D01*
X19275301Y-15410293D02*
X19265777Y-15448388D01*
X19265777Y-15448388D02*
X19256253Y-15467436D01*
X19256253Y-15467436D02*
X19246729Y-15476960D01*
X19246729Y-15476960D02*
X19227682Y-15486484D01*
X19227682Y-15486484D02*
X19208634Y-15486484D01*
X19208634Y-15486484D02*
X19189587Y-15476960D01*
X19189587Y-15476960D02*
X19180063Y-15467436D01*
X19180063Y-15467436D02*
X19170539Y-15448388D01*
X19170539Y-15448388D02*
X19161015Y-15410293D01*
X19161015Y-15410293D02*
X19161015Y-15362674D01*
X19161015Y-15362674D02*
X19170539Y-15324579D01*
X19170539Y-15324579D02*
X19180063Y-15305531D01*
X19180063Y-15305531D02*
X19189587Y-15296008D01*
X19189587Y-15296008D02*
X19208634Y-15286484D01*
X19361015Y-15467436D02*
X19370539Y-15476960D01*
X19370539Y-15476960D02*
X19361015Y-15486484D01*
X19361015Y-15486484D02*
X19351491Y-15476960D01*
X19351491Y-15476960D02*
X19361015Y-15467436D01*
X19361015Y-15467436D02*
X19361015Y-15486484D01*
X19494348Y-15286484D02*
X19513396Y-15286484D01*
X19513396Y-15286484D02*
X19532444Y-15296008D01*
X19532444Y-15296008D02*
X19541968Y-15305531D01*
X19541968Y-15305531D02*
X19551491Y-15324579D01*
X19551491Y-15324579D02*
X19561015Y-15362674D01*
X19561015Y-15362674D02*
X19561015Y-15410293D01*
X19561015Y-15410293D02*
X19551491Y-15448388D01*
X19551491Y-15448388D02*
X19541968Y-15467436D01*
X19541968Y-15467436D02*
X19532444Y-15476960D01*
X19532444Y-15476960D02*
X19513396Y-15486484D01*
X19513396Y-15486484D02*
X19494348Y-15486484D01*
X19494348Y-15486484D02*
X19475301Y-15476960D01*
X19475301Y-15476960D02*
X19465777Y-15467436D01*
X19465777Y-15467436D02*
X19456253Y-15448388D01*
X19456253Y-15448388D02*
X19446729Y-15410293D01*
X19446729Y-15410293D02*
X19446729Y-15362674D01*
X19446729Y-15362674D02*
X19456253Y-15324579D01*
X19456253Y-15324579D02*
X19465777Y-15305531D01*
X19465777Y-15305531D02*
X19475301Y-15296008D01*
X19475301Y-15296008D02*
X19494348Y-15286484D01*
X19627682Y-15286484D02*
X19761015Y-15286484D01*
X19761015Y-15286484D02*
X19675301Y-15486484D01*
X19865777Y-15372198D02*
X19846729Y-15362674D01*
X19846729Y-15362674D02*
X19837206Y-15353150D01*
X19837206Y-15353150D02*
X19827682Y-15334103D01*
X19827682Y-15334103D02*
X19827682Y-15324579D01*
X19827682Y-15324579D02*
X19837206Y-15305531D01*
X19837206Y-15305531D02*
X19846729Y-15296008D01*
X19846729Y-15296008D02*
X19865777Y-15286484D01*
X19865777Y-15286484D02*
X19903872Y-15286484D01*
X19903872Y-15286484D02*
X19922920Y-15296008D01*
X19922920Y-15296008D02*
X19932444Y-15305531D01*
X19932444Y-15305531D02*
X19941968Y-15324579D01*
X19941968Y-15324579D02*
X19941968Y-15334103D01*
X19941968Y-15334103D02*
X19932444Y-15353150D01*
X19932444Y-15353150D02*
X19922920Y-15362674D01*
X19922920Y-15362674D02*
X19903872Y-15372198D01*
X19903872Y-15372198D02*
X19865777Y-15372198D01*
X19865777Y-15372198D02*
X19846729Y-15381722D01*
X19846729Y-15381722D02*
X19837206Y-15391246D01*
X19837206Y-15391246D02*
X19827682Y-15410293D01*
X19827682Y-15410293D02*
X19827682Y-15448388D01*
X19827682Y-15448388D02*
X19837206Y-15467436D01*
X19837206Y-15467436D02*
X19846729Y-15476960D01*
X19846729Y-15476960D02*
X19865777Y-15486484D01*
X19865777Y-15486484D02*
X19903872Y-15486484D01*
X19903872Y-15486484D02*
X19922920Y-15476960D01*
X19922920Y-15476960D02*
X19932444Y-15467436D01*
X19932444Y-15467436D02*
X19941968Y-15448388D01*
X19941968Y-15448388D02*
X19941968Y-15410293D01*
X19941968Y-15410293D02*
X19932444Y-15391246D01*
X19932444Y-15391246D02*
X19922920Y-15381722D01*
X19922920Y-15381722D02*
X19903872Y-15372198D01*
X20008634Y-15286484D02*
X20141968Y-15286484D01*
X20141968Y-15286484D02*
X20056253Y-15486484D01*
X20208634Y-15286484D02*
X20208634Y-15324579D01*
X20284825Y-15286484D02*
X20284825Y-15324579D01*
X20580063Y-15562674D02*
X20570539Y-15553150D01*
X20570539Y-15553150D02*
X20551491Y-15524579D01*
X20551491Y-15524579D02*
X20541968Y-15505531D01*
X20541968Y-15505531D02*
X20532444Y-15476960D01*
X20532444Y-15476960D02*
X20522920Y-15429341D01*
X20522920Y-15429341D02*
X20522920Y-15391246D01*
X20522920Y-15391246D02*
X20532444Y-15343627D01*
X20532444Y-15343627D02*
X20541968Y-15315055D01*
X20541968Y-15315055D02*
X20551491Y-15296008D01*
X20551491Y-15296008D02*
X20570539Y-15267436D01*
X20570539Y-15267436D02*
X20580063Y-15257912D01*
X20761015Y-15486484D02*
X20646730Y-15486484D01*
X20703872Y-15486484D02*
X20703872Y-15286484D01*
X20703872Y-15286484D02*
X20684825Y-15315055D01*
X20684825Y-15315055D02*
X20665777Y-15334103D01*
X20665777Y-15334103D02*
X20646730Y-15343627D01*
X20999111Y-15486484D02*
X20999111Y-15286484D01*
X21084825Y-15486484D02*
X21084825Y-15381722D01*
X21084825Y-15381722D02*
X21075301Y-15362674D01*
X21075301Y-15362674D02*
X21056253Y-15353150D01*
X21056253Y-15353150D02*
X21027682Y-15353150D01*
X21027682Y-15353150D02*
X21008634Y-15362674D01*
X21008634Y-15362674D02*
X20999111Y-15372198D01*
X21208634Y-15486484D02*
X21189587Y-15476960D01*
X21189587Y-15476960D02*
X21180063Y-15467436D01*
X21180063Y-15467436D02*
X21170539Y-15448388D01*
X21170539Y-15448388D02*
X21170539Y-15391246D01*
X21170539Y-15391246D02*
X21180063Y-15372198D01*
X21180063Y-15372198D02*
X21189587Y-15362674D01*
X21189587Y-15362674D02*
X21208634Y-15353150D01*
X21208634Y-15353150D02*
X21237206Y-15353150D01*
X21237206Y-15353150D02*
X21256253Y-15362674D01*
X21256253Y-15362674D02*
X21265777Y-15372198D01*
X21265777Y-15372198D02*
X21275301Y-15391246D01*
X21275301Y-15391246D02*
X21275301Y-15448388D01*
X21275301Y-15448388D02*
X21265777Y-15467436D01*
X21265777Y-15467436D02*
X21256253Y-15476960D01*
X21256253Y-15476960D02*
X21237206Y-15486484D01*
X21237206Y-15486484D02*
X21208634Y-15486484D01*
X21389587Y-15486484D02*
X21370539Y-15476960D01*
X21370539Y-15476960D02*
X21361015Y-15457912D01*
X21361015Y-15457912D02*
X21361015Y-15286484D01*
X21541968Y-15476960D02*
X21522920Y-15486484D01*
X21522920Y-15486484D02*
X21484825Y-15486484D01*
X21484825Y-15486484D02*
X21465777Y-15476960D01*
X21465777Y-15476960D02*
X21456253Y-15457912D01*
X21456253Y-15457912D02*
X21456253Y-15381722D01*
X21456253Y-15381722D02*
X21465777Y-15362674D01*
X21465777Y-15362674D02*
X21484825Y-15353150D01*
X21484825Y-15353150D02*
X21522920Y-15353150D01*
X21522920Y-15353150D02*
X21541968Y-15362674D01*
X21541968Y-15362674D02*
X21551492Y-15381722D01*
X21551492Y-15381722D02*
X21551492Y-15400769D01*
X21551492Y-15400769D02*
X21456253Y-15419817D01*
X21618158Y-15562674D02*
X21627682Y-15553150D01*
X21627682Y-15553150D02*
X21646730Y-15524579D01*
X21646730Y-15524579D02*
X21656253Y-15505531D01*
X21656253Y-15505531D02*
X21665777Y-15476960D01*
X21665777Y-15476960D02*
X21675301Y-15429341D01*
X21675301Y-15429341D02*
X21675301Y-15391246D01*
X21675301Y-15391246D02*
X21665777Y-15343627D01*
X21665777Y-15343627D02*
X21656253Y-15315055D01*
X21656253Y-15315055D02*
X21646730Y-15296008D01*
X21646730Y-15296008D02*
X21627682Y-15267436D01*
X21627682Y-15267436D02*
X21618158Y-15257912D01*
X21980063Y-15562674D02*
X21970539Y-15553150D01*
X21970539Y-15553150D02*
X21951492Y-15524579D01*
X21951492Y-15524579D02*
X21941968Y-15505531D01*
X21941968Y-15505531D02*
X21932444Y-15476960D01*
X21932444Y-15476960D02*
X21922920Y-15429341D01*
X21922920Y-15429341D02*
X21922920Y-15391246D01*
X21922920Y-15391246D02*
X21932444Y-15343627D01*
X21932444Y-15343627D02*
X21941968Y-15315055D01*
X21941968Y-15315055D02*
X21951492Y-15296008D01*
X21951492Y-15296008D02*
X21970539Y-15267436D01*
X21970539Y-15267436D02*
X21980063Y-15257912D01*
X22056253Y-15353150D02*
X22056253Y-15486484D01*
X22056253Y-15372198D02*
X22065777Y-15362674D01*
X22065777Y-15362674D02*
X22084825Y-15353150D01*
X22084825Y-15353150D02*
X22113396Y-15353150D01*
X22113396Y-15353150D02*
X22132444Y-15362674D01*
X22132444Y-15362674D02*
X22141968Y-15381722D01*
X22141968Y-15381722D02*
X22141968Y-15486484D01*
X22265777Y-15486484D02*
X22246730Y-15476960D01*
X22246730Y-15476960D02*
X22237206Y-15467436D01*
X22237206Y-15467436D02*
X22227682Y-15448388D01*
X22227682Y-15448388D02*
X22227682Y-15391246D01*
X22227682Y-15391246D02*
X22237206Y-15372198D01*
X22237206Y-15372198D02*
X22246730Y-15362674D01*
X22246730Y-15362674D02*
X22265777Y-15353150D01*
X22265777Y-15353150D02*
X22294349Y-15353150D01*
X22294349Y-15353150D02*
X22313396Y-15362674D01*
X22313396Y-15362674D02*
X22322920Y-15372198D01*
X22322920Y-15372198D02*
X22332444Y-15391246D01*
X22332444Y-15391246D02*
X22332444Y-15448388D01*
X22332444Y-15448388D02*
X22322920Y-15467436D01*
X22322920Y-15467436D02*
X22313396Y-15476960D01*
X22313396Y-15476960D02*
X22294349Y-15486484D01*
X22294349Y-15486484D02*
X22265777Y-15486484D01*
X22389587Y-15353150D02*
X22465777Y-15353150D01*
X22418158Y-15286484D02*
X22418158Y-15457912D01*
X22418158Y-15457912D02*
X22427682Y-15476960D01*
X22427682Y-15476960D02*
X22446730Y-15486484D01*
X22446730Y-15486484D02*
X22465777Y-15486484D01*
X22684825Y-15353150D02*
X22684825Y-15553150D01*
X22684825Y-15362674D02*
X22703872Y-15353150D01*
X22703872Y-15353150D02*
X22741968Y-15353150D01*
X22741968Y-15353150D02*
X22761015Y-15362674D01*
X22761015Y-15362674D02*
X22770539Y-15372198D01*
X22770539Y-15372198D02*
X22780063Y-15391246D01*
X22780063Y-15391246D02*
X22780063Y-15448388D01*
X22780063Y-15448388D02*
X22770539Y-15467436D01*
X22770539Y-15467436D02*
X22761015Y-15476960D01*
X22761015Y-15476960D02*
X22741968Y-15486484D01*
X22741968Y-15486484D02*
X22703872Y-15486484D01*
X22703872Y-15486484D02*
X22684825Y-15476960D01*
X22894349Y-15486484D02*
X22875301Y-15476960D01*
X22875301Y-15476960D02*
X22865777Y-15457912D01*
X22865777Y-15457912D02*
X22865777Y-15286484D01*
X23056253Y-15486484D02*
X23056253Y-15381722D01*
X23056253Y-15381722D02*
X23046730Y-15362674D01*
X23046730Y-15362674D02*
X23027682Y-15353150D01*
X23027682Y-15353150D02*
X22989587Y-15353150D01*
X22989587Y-15353150D02*
X22970539Y-15362674D01*
X23056253Y-15476960D02*
X23037206Y-15486484D01*
X23037206Y-15486484D02*
X22989587Y-15486484D01*
X22989587Y-15486484D02*
X22970539Y-15476960D01*
X22970539Y-15476960D02*
X22961015Y-15457912D01*
X22961015Y-15457912D02*
X22961015Y-15438865D01*
X22961015Y-15438865D02*
X22970539Y-15419817D01*
X22970539Y-15419817D02*
X22989587Y-15410293D01*
X22989587Y-15410293D02*
X23037206Y-15410293D01*
X23037206Y-15410293D02*
X23056253Y-15400769D01*
X23122920Y-15353150D02*
X23199111Y-15353150D01*
X23151492Y-15286484D02*
X23151492Y-15457912D01*
X23151492Y-15457912D02*
X23161015Y-15476960D01*
X23161015Y-15476960D02*
X23180063Y-15486484D01*
X23180063Y-15486484D02*
X23199111Y-15486484D01*
X23341968Y-15476960D02*
X23322920Y-15486484D01*
X23322920Y-15486484D02*
X23284825Y-15486484D01*
X23284825Y-15486484D02*
X23265777Y-15476960D01*
X23265777Y-15476960D02*
X23256253Y-15457912D01*
X23256253Y-15457912D02*
X23256253Y-15381722D01*
X23256253Y-15381722D02*
X23265777Y-15362674D01*
X23265777Y-15362674D02*
X23284825Y-15353150D01*
X23284825Y-15353150D02*
X23322920Y-15353150D01*
X23322920Y-15353150D02*
X23341968Y-15362674D01*
X23341968Y-15362674D02*
X23351492Y-15381722D01*
X23351492Y-15381722D02*
X23351492Y-15400769D01*
X23351492Y-15400769D02*
X23256253Y-15419817D01*
X23522920Y-15486484D02*
X23522920Y-15286484D01*
X23522920Y-15476960D02*
X23503873Y-15486484D01*
X23503873Y-15486484D02*
X23465777Y-15486484D01*
X23465777Y-15486484D02*
X23446730Y-15476960D01*
X23446730Y-15476960D02*
X23437206Y-15467436D01*
X23437206Y-15467436D02*
X23427682Y-15448388D01*
X23427682Y-15448388D02*
X23427682Y-15391246D01*
X23427682Y-15391246D02*
X23437206Y-15372198D01*
X23437206Y-15372198D02*
X23446730Y-15362674D01*
X23446730Y-15362674D02*
X23465777Y-15353150D01*
X23465777Y-15353150D02*
X23503873Y-15353150D01*
X23503873Y-15353150D02*
X23522920Y-15362674D01*
X23599111Y-15562674D02*
X23608634Y-15553150D01*
X23608634Y-15553150D02*
X23627682Y-15524579D01*
X23627682Y-15524579D02*
X23637206Y-15505531D01*
X23637206Y-15505531D02*
X23646730Y-15476960D01*
X23646730Y-15476960D02*
X23656253Y-15429341D01*
X23656253Y-15429341D02*
X23656253Y-15391246D01*
X23656253Y-15391246D02*
X23646730Y-15343627D01*
X23646730Y-15343627D02*
X23637206Y-15315055D01*
X23637206Y-15315055D02*
X23627682Y-15296008D01*
X23627682Y-15296008D02*
X23608634Y-15267436D01*
X23608634Y-15267436D02*
X23599111Y-15257912D01*
X16905000Y-15615000D02*
X16905000Y-15815000D01*
X16805000Y-15715000D02*
X17005000Y-15715000D01*
X17246729Y-15606484D02*
X17370539Y-15606484D01*
X17370539Y-15606484D02*
X17303872Y-15682674D01*
X17303872Y-15682674D02*
X17332444Y-15682674D01*
X17332444Y-15682674D02*
X17351491Y-15692198D01*
X17351491Y-15692198D02*
X17361015Y-15701722D01*
X17361015Y-15701722D02*
X17370539Y-15720769D01*
X17370539Y-15720769D02*
X17370539Y-15768388D01*
X17370539Y-15768388D02*
X17361015Y-15787436D01*
X17361015Y-15787436D02*
X17351491Y-15796960D01*
X17351491Y-15796960D02*
X17332444Y-15806484D01*
X17332444Y-15806484D02*
X17275301Y-15806484D01*
X17275301Y-15806484D02*
X17256253Y-15796960D01*
X17256253Y-15796960D02*
X17246729Y-15787436D01*
X17456253Y-15787436D02*
X17465777Y-15796960D01*
X17465777Y-15796960D02*
X17456253Y-15806484D01*
X17456253Y-15806484D02*
X17446729Y-15796960D01*
X17446729Y-15796960D02*
X17456253Y-15787436D01*
X17456253Y-15787436D02*
X17456253Y-15806484D01*
X17541967Y-15625531D02*
X17551491Y-15616008D01*
X17551491Y-15616008D02*
X17570539Y-15606484D01*
X17570539Y-15606484D02*
X17618158Y-15606484D01*
X17618158Y-15606484D02*
X17637205Y-15616008D01*
X17637205Y-15616008D02*
X17646729Y-15625531D01*
X17646729Y-15625531D02*
X17656253Y-15644579D01*
X17656253Y-15644579D02*
X17656253Y-15663627D01*
X17656253Y-15663627D02*
X17646729Y-15692198D01*
X17646729Y-15692198D02*
X17532444Y-15806484D01*
X17532444Y-15806484D02*
X17656253Y-15806484D01*
X17780063Y-15606484D02*
X17799110Y-15606484D01*
X17799110Y-15606484D02*
X17818158Y-15616008D01*
X17818158Y-15616008D02*
X17827682Y-15625531D01*
X17827682Y-15625531D02*
X17837205Y-15644579D01*
X17837205Y-15644579D02*
X17846729Y-15682674D01*
X17846729Y-15682674D02*
X17846729Y-15730293D01*
X17846729Y-15730293D02*
X17837205Y-15768388D01*
X17837205Y-15768388D02*
X17827682Y-15787436D01*
X17827682Y-15787436D02*
X17818158Y-15796960D01*
X17818158Y-15796960D02*
X17799110Y-15806484D01*
X17799110Y-15806484D02*
X17780063Y-15806484D01*
X17780063Y-15806484D02*
X17761015Y-15796960D01*
X17761015Y-15796960D02*
X17751491Y-15787436D01*
X17751491Y-15787436D02*
X17741967Y-15768388D01*
X17741967Y-15768388D02*
X17732444Y-15730293D01*
X17732444Y-15730293D02*
X17732444Y-15682674D01*
X17732444Y-15682674D02*
X17741967Y-15644579D01*
X17741967Y-15644579D02*
X17751491Y-15625531D01*
X17751491Y-15625531D02*
X17761015Y-15616008D01*
X17761015Y-15616008D02*
X17780063Y-15606484D01*
X17970539Y-15606484D02*
X17989586Y-15606484D01*
X17989586Y-15606484D02*
X18008634Y-15616008D01*
X18008634Y-15616008D02*
X18018158Y-15625531D01*
X18018158Y-15625531D02*
X18027682Y-15644579D01*
X18027682Y-15644579D02*
X18037205Y-15682674D01*
X18037205Y-15682674D02*
X18037205Y-15730293D01*
X18037205Y-15730293D02*
X18027682Y-15768388D01*
X18027682Y-15768388D02*
X18018158Y-15787436D01*
X18018158Y-15787436D02*
X18008634Y-15796960D01*
X18008634Y-15796960D02*
X17989586Y-15806484D01*
X17989586Y-15806484D02*
X17970539Y-15806484D01*
X17970539Y-15806484D02*
X17951491Y-15796960D01*
X17951491Y-15796960D02*
X17941967Y-15787436D01*
X17941967Y-15787436D02*
X17932444Y-15768388D01*
X17932444Y-15768388D02*
X17922920Y-15730293D01*
X17922920Y-15730293D02*
X17922920Y-15682674D01*
X17922920Y-15682674D02*
X17932444Y-15644579D01*
X17932444Y-15644579D02*
X17941967Y-15625531D01*
X17941967Y-15625531D02*
X17951491Y-15616008D01*
X17951491Y-15616008D02*
X17970539Y-15606484D01*
X18122920Y-15806484D02*
X18122920Y-15673150D01*
X18122920Y-15692198D02*
X18132444Y-15682674D01*
X18132444Y-15682674D02*
X18151491Y-15673150D01*
X18151491Y-15673150D02*
X18180063Y-15673150D01*
X18180063Y-15673150D02*
X18199110Y-15682674D01*
X18199110Y-15682674D02*
X18208634Y-15701722D01*
X18208634Y-15701722D02*
X18208634Y-15806484D01*
X18208634Y-15701722D02*
X18218158Y-15682674D01*
X18218158Y-15682674D02*
X18237205Y-15673150D01*
X18237205Y-15673150D02*
X18265777Y-15673150D01*
X18265777Y-15673150D02*
X18284825Y-15682674D01*
X18284825Y-15682674D02*
X18294348Y-15701722D01*
X18294348Y-15701722D02*
X18294348Y-15806484D01*
X18389586Y-15806484D02*
X18389586Y-15673150D01*
X18389586Y-15692198D02*
X18399110Y-15682674D01*
X18399110Y-15682674D02*
X18418158Y-15673150D01*
X18418158Y-15673150D02*
X18446729Y-15673150D01*
X18446729Y-15673150D02*
X18465777Y-15682674D01*
X18465777Y-15682674D02*
X18475301Y-15701722D01*
X18475301Y-15701722D02*
X18475301Y-15806484D01*
X18475301Y-15701722D02*
X18484825Y-15682674D01*
X18484825Y-15682674D02*
X18503872Y-15673150D01*
X18503872Y-15673150D02*
X18532444Y-15673150D01*
X18532444Y-15673150D02*
X18551491Y-15682674D01*
X18551491Y-15682674D02*
X18561015Y-15701722D01*
X18561015Y-15701722D02*
X18561015Y-15806484D01*
X18951491Y-15596960D02*
X18780063Y-15854103D01*
X19208634Y-15606484D02*
X19227682Y-15606484D01*
X19227682Y-15606484D02*
X19246729Y-15616008D01*
X19246729Y-15616008D02*
X19256253Y-15625531D01*
X19256253Y-15625531D02*
X19265777Y-15644579D01*
X19265777Y-15644579D02*
X19275301Y-15682674D01*
X19275301Y-15682674D02*
X19275301Y-15730293D01*
X19275301Y-15730293D02*
X19265777Y-15768388D01*
X19265777Y-15768388D02*
X19256253Y-15787436D01*
X19256253Y-15787436D02*
X19246729Y-15796960D01*
X19246729Y-15796960D02*
X19227682Y-15806484D01*
X19227682Y-15806484D02*
X19208634Y-15806484D01*
X19208634Y-15806484D02*
X19189587Y-15796960D01*
X19189587Y-15796960D02*
X19180063Y-15787436D01*
X19180063Y-15787436D02*
X19170539Y-15768388D01*
X19170539Y-15768388D02*
X19161015Y-15730293D01*
X19161015Y-15730293D02*
X19161015Y-15682674D01*
X19161015Y-15682674D02*
X19170539Y-15644579D01*
X19170539Y-15644579D02*
X19180063Y-15625531D01*
X19180063Y-15625531D02*
X19189587Y-15616008D01*
X19189587Y-15616008D02*
X19208634Y-15606484D01*
X19361015Y-15787436D02*
X19370539Y-15796960D01*
X19370539Y-15796960D02*
X19361015Y-15806484D01*
X19361015Y-15806484D02*
X19351491Y-15796960D01*
X19351491Y-15796960D02*
X19361015Y-15787436D01*
X19361015Y-15787436D02*
X19361015Y-15806484D01*
X19561015Y-15806484D02*
X19446729Y-15806484D01*
X19503872Y-15806484D02*
X19503872Y-15606484D01*
X19503872Y-15606484D02*
X19484825Y-15635055D01*
X19484825Y-15635055D02*
X19465777Y-15654103D01*
X19465777Y-15654103D02*
X19446729Y-15663627D01*
X19637206Y-15625531D02*
X19646729Y-15616008D01*
X19646729Y-15616008D02*
X19665777Y-15606484D01*
X19665777Y-15606484D02*
X19713396Y-15606484D01*
X19713396Y-15606484D02*
X19732444Y-15616008D01*
X19732444Y-15616008D02*
X19741968Y-15625531D01*
X19741968Y-15625531D02*
X19751491Y-15644579D01*
X19751491Y-15644579D02*
X19751491Y-15663627D01*
X19751491Y-15663627D02*
X19741968Y-15692198D01*
X19741968Y-15692198D02*
X19627682Y-15806484D01*
X19627682Y-15806484D02*
X19751491Y-15806484D01*
X19922920Y-15606484D02*
X19884825Y-15606484D01*
X19884825Y-15606484D02*
X19865777Y-15616008D01*
X19865777Y-15616008D02*
X19856253Y-15625531D01*
X19856253Y-15625531D02*
X19837206Y-15654103D01*
X19837206Y-15654103D02*
X19827682Y-15692198D01*
X19827682Y-15692198D02*
X19827682Y-15768388D01*
X19827682Y-15768388D02*
X19837206Y-15787436D01*
X19837206Y-15787436D02*
X19846729Y-15796960D01*
X19846729Y-15796960D02*
X19865777Y-15806484D01*
X19865777Y-15806484D02*
X19903872Y-15806484D01*
X19903872Y-15806484D02*
X19922920Y-15796960D01*
X19922920Y-15796960D02*
X19932444Y-15787436D01*
X19932444Y-15787436D02*
X19941968Y-15768388D01*
X19941968Y-15768388D02*
X19941968Y-15720769D01*
X19941968Y-15720769D02*
X19932444Y-15701722D01*
X19932444Y-15701722D02*
X19922920Y-15692198D01*
X19922920Y-15692198D02*
X19903872Y-15682674D01*
X19903872Y-15682674D02*
X19865777Y-15682674D01*
X19865777Y-15682674D02*
X19846729Y-15692198D01*
X19846729Y-15692198D02*
X19837206Y-15701722D01*
X19837206Y-15701722D02*
X19827682Y-15720769D01*
X20065777Y-15606484D02*
X20084825Y-15606484D01*
X20084825Y-15606484D02*
X20103872Y-15616008D01*
X20103872Y-15616008D02*
X20113396Y-15625531D01*
X20113396Y-15625531D02*
X20122920Y-15644579D01*
X20122920Y-15644579D02*
X20132444Y-15682674D01*
X20132444Y-15682674D02*
X20132444Y-15730293D01*
X20132444Y-15730293D02*
X20122920Y-15768388D01*
X20122920Y-15768388D02*
X20113396Y-15787436D01*
X20113396Y-15787436D02*
X20103872Y-15796960D01*
X20103872Y-15796960D02*
X20084825Y-15806484D01*
X20084825Y-15806484D02*
X20065777Y-15806484D01*
X20065777Y-15806484D02*
X20046729Y-15796960D01*
X20046729Y-15796960D02*
X20037206Y-15787436D01*
X20037206Y-15787436D02*
X20027682Y-15768388D01*
X20027682Y-15768388D02*
X20018158Y-15730293D01*
X20018158Y-15730293D02*
X20018158Y-15682674D01*
X20018158Y-15682674D02*
X20027682Y-15644579D01*
X20027682Y-15644579D02*
X20037206Y-15625531D01*
X20037206Y-15625531D02*
X20046729Y-15616008D01*
X20046729Y-15616008D02*
X20065777Y-15606484D01*
X20208634Y-15606484D02*
X20208634Y-15644579D01*
X20284825Y-15606484D02*
X20284825Y-15644579D01*
X20580063Y-15882674D02*
X20570539Y-15873150D01*
X20570539Y-15873150D02*
X20551491Y-15844579D01*
X20551491Y-15844579D02*
X20541968Y-15825531D01*
X20541968Y-15825531D02*
X20532444Y-15796960D01*
X20532444Y-15796960D02*
X20522920Y-15749341D01*
X20522920Y-15749341D02*
X20522920Y-15711246D01*
X20522920Y-15711246D02*
X20532444Y-15663627D01*
X20532444Y-15663627D02*
X20541968Y-15635055D01*
X20541968Y-15635055D02*
X20551491Y-15616008D01*
X20551491Y-15616008D02*
X20570539Y-15587436D01*
X20570539Y-15587436D02*
X20580063Y-15577912D01*
X20646730Y-15625531D02*
X20656253Y-15616008D01*
X20656253Y-15616008D02*
X20675301Y-15606484D01*
X20675301Y-15606484D02*
X20722920Y-15606484D01*
X20722920Y-15606484D02*
X20741968Y-15616008D01*
X20741968Y-15616008D02*
X20751491Y-15625531D01*
X20751491Y-15625531D02*
X20761015Y-15644579D01*
X20761015Y-15644579D02*
X20761015Y-15663627D01*
X20761015Y-15663627D02*
X20751491Y-15692198D01*
X20751491Y-15692198D02*
X20637206Y-15806484D01*
X20637206Y-15806484D02*
X20761015Y-15806484D01*
X20999111Y-15806484D02*
X20999111Y-15606484D01*
X21084825Y-15806484D02*
X21084825Y-15701722D01*
X21084825Y-15701722D02*
X21075301Y-15682674D01*
X21075301Y-15682674D02*
X21056253Y-15673150D01*
X21056253Y-15673150D02*
X21027682Y-15673150D01*
X21027682Y-15673150D02*
X21008634Y-15682674D01*
X21008634Y-15682674D02*
X20999111Y-15692198D01*
X21208634Y-15806484D02*
X21189587Y-15796960D01*
X21189587Y-15796960D02*
X21180063Y-15787436D01*
X21180063Y-15787436D02*
X21170539Y-15768388D01*
X21170539Y-15768388D02*
X21170539Y-15711246D01*
X21170539Y-15711246D02*
X21180063Y-15692198D01*
X21180063Y-15692198D02*
X21189587Y-15682674D01*
X21189587Y-15682674D02*
X21208634Y-15673150D01*
X21208634Y-15673150D02*
X21237206Y-15673150D01*
X21237206Y-15673150D02*
X21256253Y-15682674D01*
X21256253Y-15682674D02*
X21265777Y-15692198D01*
X21265777Y-15692198D02*
X21275301Y-15711246D01*
X21275301Y-15711246D02*
X21275301Y-15768388D01*
X21275301Y-15768388D02*
X21265777Y-15787436D01*
X21265777Y-15787436D02*
X21256253Y-15796960D01*
X21256253Y-15796960D02*
X21237206Y-15806484D01*
X21237206Y-15806484D02*
X21208634Y-15806484D01*
X21389587Y-15806484D02*
X21370539Y-15796960D01*
X21370539Y-15796960D02*
X21361015Y-15777912D01*
X21361015Y-15777912D02*
X21361015Y-15606484D01*
X21541968Y-15796960D02*
X21522920Y-15806484D01*
X21522920Y-15806484D02*
X21484825Y-15806484D01*
X21484825Y-15806484D02*
X21465777Y-15796960D01*
X21465777Y-15796960D02*
X21456253Y-15777912D01*
X21456253Y-15777912D02*
X21456253Y-15701722D01*
X21456253Y-15701722D02*
X21465777Y-15682674D01*
X21465777Y-15682674D02*
X21484825Y-15673150D01*
X21484825Y-15673150D02*
X21522920Y-15673150D01*
X21522920Y-15673150D02*
X21541968Y-15682674D01*
X21541968Y-15682674D02*
X21551492Y-15701722D01*
X21551492Y-15701722D02*
X21551492Y-15720769D01*
X21551492Y-15720769D02*
X21456253Y-15739817D01*
X21627682Y-15796960D02*
X21646730Y-15806484D01*
X21646730Y-15806484D02*
X21684825Y-15806484D01*
X21684825Y-15806484D02*
X21703873Y-15796960D01*
X21703873Y-15796960D02*
X21713396Y-15777912D01*
X21713396Y-15777912D02*
X21713396Y-15768388D01*
X21713396Y-15768388D02*
X21703873Y-15749341D01*
X21703873Y-15749341D02*
X21684825Y-15739817D01*
X21684825Y-15739817D02*
X21656253Y-15739817D01*
X21656253Y-15739817D02*
X21637206Y-15730293D01*
X21637206Y-15730293D02*
X21627682Y-15711246D01*
X21627682Y-15711246D02*
X21627682Y-15701722D01*
X21627682Y-15701722D02*
X21637206Y-15682674D01*
X21637206Y-15682674D02*
X21656253Y-15673150D01*
X21656253Y-15673150D02*
X21684825Y-15673150D01*
X21684825Y-15673150D02*
X21703873Y-15682674D01*
X21780063Y-15882674D02*
X21789587Y-15873150D01*
X21789587Y-15873150D02*
X21808634Y-15844579D01*
X21808634Y-15844579D02*
X21818158Y-15825531D01*
X21818158Y-15825531D02*
X21827682Y-15796960D01*
X21827682Y-15796960D02*
X21837206Y-15749341D01*
X21837206Y-15749341D02*
X21837206Y-15711246D01*
X21837206Y-15711246D02*
X21827682Y-15663627D01*
X21827682Y-15663627D02*
X21818158Y-15635055D01*
X21818158Y-15635055D02*
X21808634Y-15616008D01*
X21808634Y-15616008D02*
X21789587Y-15587436D01*
X21789587Y-15587436D02*
X21780063Y-15577912D01*
X22141968Y-15882674D02*
X22132444Y-15873150D01*
X22132444Y-15873150D02*
X22113396Y-15844579D01*
X22113396Y-15844579D02*
X22103873Y-15825531D01*
X22103873Y-15825531D02*
X22094349Y-15796960D01*
X22094349Y-15796960D02*
X22084825Y-15749341D01*
X22084825Y-15749341D02*
X22084825Y-15711246D01*
X22084825Y-15711246D02*
X22094349Y-15663627D01*
X22094349Y-15663627D02*
X22103873Y-15635055D01*
X22103873Y-15635055D02*
X22113396Y-15616008D01*
X22113396Y-15616008D02*
X22132444Y-15587436D01*
X22132444Y-15587436D02*
X22141968Y-15577912D01*
X22218158Y-15673150D02*
X22218158Y-15806484D01*
X22218158Y-15692198D02*
X22227682Y-15682674D01*
X22227682Y-15682674D02*
X22246730Y-15673150D01*
X22246730Y-15673150D02*
X22275301Y-15673150D01*
X22275301Y-15673150D02*
X22294349Y-15682674D01*
X22294349Y-15682674D02*
X22303873Y-15701722D01*
X22303873Y-15701722D02*
X22303873Y-15806484D01*
X22427682Y-15806484D02*
X22408634Y-15796960D01*
X22408634Y-15796960D02*
X22399111Y-15787436D01*
X22399111Y-15787436D02*
X22389587Y-15768388D01*
X22389587Y-15768388D02*
X22389587Y-15711246D01*
X22389587Y-15711246D02*
X22399111Y-15692198D01*
X22399111Y-15692198D02*
X22408634Y-15682674D01*
X22408634Y-15682674D02*
X22427682Y-15673150D01*
X22427682Y-15673150D02*
X22456253Y-15673150D01*
X22456253Y-15673150D02*
X22475301Y-15682674D01*
X22475301Y-15682674D02*
X22484825Y-15692198D01*
X22484825Y-15692198D02*
X22494349Y-15711246D01*
X22494349Y-15711246D02*
X22494349Y-15768388D01*
X22494349Y-15768388D02*
X22484825Y-15787436D01*
X22484825Y-15787436D02*
X22475301Y-15796960D01*
X22475301Y-15796960D02*
X22456253Y-15806484D01*
X22456253Y-15806484D02*
X22427682Y-15806484D01*
X22551492Y-15673150D02*
X22627682Y-15673150D01*
X22580063Y-15606484D02*
X22580063Y-15777912D01*
X22580063Y-15777912D02*
X22589587Y-15796960D01*
X22589587Y-15796960D02*
X22608634Y-15806484D01*
X22608634Y-15806484D02*
X22627682Y-15806484D01*
X22846730Y-15673150D02*
X22846730Y-15873150D01*
X22846730Y-15682674D02*
X22865777Y-15673150D01*
X22865777Y-15673150D02*
X22903873Y-15673150D01*
X22903873Y-15673150D02*
X22922920Y-15682674D01*
X22922920Y-15682674D02*
X22932444Y-15692198D01*
X22932444Y-15692198D02*
X22941968Y-15711246D01*
X22941968Y-15711246D02*
X22941968Y-15768388D01*
X22941968Y-15768388D02*
X22932444Y-15787436D01*
X22932444Y-15787436D02*
X22922920Y-15796960D01*
X22922920Y-15796960D02*
X22903873Y-15806484D01*
X22903873Y-15806484D02*
X22865777Y-15806484D01*
X22865777Y-15806484D02*
X22846730Y-15796960D01*
X23056253Y-15806484D02*
X23037206Y-15796960D01*
X23037206Y-15796960D02*
X23027682Y-15777912D01*
X23027682Y-15777912D02*
X23027682Y-15606484D01*
X23218158Y-15806484D02*
X23218158Y-15701722D01*
X23218158Y-15701722D02*
X23208634Y-15682674D01*
X23208634Y-15682674D02*
X23189587Y-15673150D01*
X23189587Y-15673150D02*
X23151492Y-15673150D01*
X23151492Y-15673150D02*
X23132444Y-15682674D01*
X23218158Y-15796960D02*
X23199111Y-15806484D01*
X23199111Y-15806484D02*
X23151492Y-15806484D01*
X23151492Y-15806484D02*
X23132444Y-15796960D01*
X23132444Y-15796960D02*
X23122920Y-15777912D01*
X23122920Y-15777912D02*
X23122920Y-15758865D01*
X23122920Y-15758865D02*
X23132444Y-15739817D01*
X23132444Y-15739817D02*
X23151492Y-15730293D01*
X23151492Y-15730293D02*
X23199111Y-15730293D01*
X23199111Y-15730293D02*
X23218158Y-15720769D01*
X23284825Y-15673150D02*
X23361015Y-15673150D01*
X23313396Y-15606484D02*
X23313396Y-15777912D01*
X23313396Y-15777912D02*
X23322920Y-15796960D01*
X23322920Y-15796960D02*
X23341968Y-15806484D01*
X23341968Y-15806484D02*
X23361015Y-15806484D01*
X23503873Y-15796960D02*
X23484825Y-15806484D01*
X23484825Y-15806484D02*
X23446730Y-15806484D01*
X23446730Y-15806484D02*
X23427682Y-15796960D01*
X23427682Y-15796960D02*
X23418158Y-15777912D01*
X23418158Y-15777912D02*
X23418158Y-15701722D01*
X23418158Y-15701722D02*
X23427682Y-15682674D01*
X23427682Y-15682674D02*
X23446730Y-15673150D01*
X23446730Y-15673150D02*
X23484825Y-15673150D01*
X23484825Y-15673150D02*
X23503873Y-15682674D01*
X23503873Y-15682674D02*
X23513396Y-15701722D01*
X23513396Y-15701722D02*
X23513396Y-15720769D01*
X23513396Y-15720769D02*
X23418158Y-15739817D01*
X23684825Y-15806484D02*
X23684825Y-15606484D01*
X23684825Y-15796960D02*
X23665777Y-15806484D01*
X23665777Y-15806484D02*
X23627682Y-15806484D01*
X23627682Y-15806484D02*
X23608634Y-15796960D01*
X23608634Y-15796960D02*
X23599111Y-15787436D01*
X23599111Y-15787436D02*
X23589587Y-15768388D01*
X23589587Y-15768388D02*
X23589587Y-15711246D01*
X23589587Y-15711246D02*
X23599111Y-15692198D01*
X23599111Y-15692198D02*
X23608634Y-15682674D01*
X23608634Y-15682674D02*
X23627682Y-15673150D01*
X23627682Y-15673150D02*
X23665777Y-15673150D01*
X23665777Y-15673150D02*
X23684825Y-15682674D01*
X23761015Y-15882674D02*
X23770539Y-15873150D01*
X23770539Y-15873150D02*
X23789587Y-15844579D01*
X23789587Y-15844579D02*
X23799111Y-15825531D01*
X23799111Y-15825531D02*
X23808634Y-15796960D01*
X23808634Y-15796960D02*
X23818158Y-15749341D01*
X23818158Y-15749341D02*
X23818158Y-15711246D01*
X23818158Y-15711246D02*
X23808634Y-15663627D01*
X23808634Y-15663627D02*
X23799111Y-15635055D01*
X23799111Y-15635055D02*
X23789587Y-15616008D01*
X23789587Y-15616008D02*
X23770539Y-15587436D01*
X23770539Y-15587436D02*
X23761015Y-15577912D01*
X16975711Y-16105711D02*
X16975711Y-15964289D01*
X16834289Y-15964289D01*
X16834289Y-16105711D01*
X16975711Y-16105711D01*
X17246729Y-15926484D02*
X17370539Y-15926484D01*
X17370539Y-15926484D02*
X17303872Y-16002674D01*
X17303872Y-16002674D02*
X17332444Y-16002674D01*
X17332444Y-16002674D02*
X17351491Y-16012198D01*
X17351491Y-16012198D02*
X17361015Y-16021722D01*
X17361015Y-16021722D02*
X17370539Y-16040769D01*
X17370539Y-16040769D02*
X17370539Y-16088388D01*
X17370539Y-16088388D02*
X17361015Y-16107436D01*
X17361015Y-16107436D02*
X17351491Y-16116960D01*
X17351491Y-16116960D02*
X17332444Y-16126484D01*
X17332444Y-16126484D02*
X17275301Y-16126484D01*
X17275301Y-16126484D02*
X17256253Y-16116960D01*
X17256253Y-16116960D02*
X17246729Y-16107436D01*
X17456253Y-16107436D02*
X17465777Y-16116960D01*
X17465777Y-16116960D02*
X17456253Y-16126484D01*
X17456253Y-16126484D02*
X17446729Y-16116960D01*
X17446729Y-16116960D02*
X17456253Y-16107436D01*
X17456253Y-16107436D02*
X17456253Y-16126484D01*
X17646729Y-15926484D02*
X17551491Y-15926484D01*
X17551491Y-15926484D02*
X17541967Y-16021722D01*
X17541967Y-16021722D02*
X17551491Y-16012198D01*
X17551491Y-16012198D02*
X17570539Y-16002674D01*
X17570539Y-16002674D02*
X17618158Y-16002674D01*
X17618158Y-16002674D02*
X17637205Y-16012198D01*
X17637205Y-16012198D02*
X17646729Y-16021722D01*
X17646729Y-16021722D02*
X17656253Y-16040769D01*
X17656253Y-16040769D02*
X17656253Y-16088388D01*
X17656253Y-16088388D02*
X17646729Y-16107436D01*
X17646729Y-16107436D02*
X17637205Y-16116960D01*
X17637205Y-16116960D02*
X17618158Y-16126484D01*
X17618158Y-16126484D02*
X17570539Y-16126484D01*
X17570539Y-16126484D02*
X17551491Y-16116960D01*
X17551491Y-16116960D02*
X17541967Y-16107436D01*
X17780063Y-15926484D02*
X17799110Y-15926484D01*
X17799110Y-15926484D02*
X17818158Y-15936008D01*
X17818158Y-15936008D02*
X17827682Y-15945531D01*
X17827682Y-15945531D02*
X17837205Y-15964579D01*
X17837205Y-15964579D02*
X17846729Y-16002674D01*
X17846729Y-16002674D02*
X17846729Y-16050293D01*
X17846729Y-16050293D02*
X17837205Y-16088388D01*
X17837205Y-16088388D02*
X17827682Y-16107436D01*
X17827682Y-16107436D02*
X17818158Y-16116960D01*
X17818158Y-16116960D02*
X17799110Y-16126484D01*
X17799110Y-16126484D02*
X17780063Y-16126484D01*
X17780063Y-16126484D02*
X17761015Y-16116960D01*
X17761015Y-16116960D02*
X17751491Y-16107436D01*
X17751491Y-16107436D02*
X17741967Y-16088388D01*
X17741967Y-16088388D02*
X17732444Y-16050293D01*
X17732444Y-16050293D02*
X17732444Y-16002674D01*
X17732444Y-16002674D02*
X17741967Y-15964579D01*
X17741967Y-15964579D02*
X17751491Y-15945531D01*
X17751491Y-15945531D02*
X17761015Y-15936008D01*
X17761015Y-15936008D02*
X17780063Y-15926484D01*
X17970539Y-15926484D02*
X17989586Y-15926484D01*
X17989586Y-15926484D02*
X18008634Y-15936008D01*
X18008634Y-15936008D02*
X18018158Y-15945531D01*
X18018158Y-15945531D02*
X18027682Y-15964579D01*
X18027682Y-15964579D02*
X18037205Y-16002674D01*
X18037205Y-16002674D02*
X18037205Y-16050293D01*
X18037205Y-16050293D02*
X18027682Y-16088388D01*
X18027682Y-16088388D02*
X18018158Y-16107436D01*
X18018158Y-16107436D02*
X18008634Y-16116960D01*
X18008634Y-16116960D02*
X17989586Y-16126484D01*
X17989586Y-16126484D02*
X17970539Y-16126484D01*
X17970539Y-16126484D02*
X17951491Y-16116960D01*
X17951491Y-16116960D02*
X17941967Y-16107436D01*
X17941967Y-16107436D02*
X17932444Y-16088388D01*
X17932444Y-16088388D02*
X17922920Y-16050293D01*
X17922920Y-16050293D02*
X17922920Y-16002674D01*
X17922920Y-16002674D02*
X17932444Y-15964579D01*
X17932444Y-15964579D02*
X17941967Y-15945531D01*
X17941967Y-15945531D02*
X17951491Y-15936008D01*
X17951491Y-15936008D02*
X17970539Y-15926484D01*
X18122920Y-16126484D02*
X18122920Y-15993150D01*
X18122920Y-16012198D02*
X18132444Y-16002674D01*
X18132444Y-16002674D02*
X18151491Y-15993150D01*
X18151491Y-15993150D02*
X18180063Y-15993150D01*
X18180063Y-15993150D02*
X18199110Y-16002674D01*
X18199110Y-16002674D02*
X18208634Y-16021722D01*
X18208634Y-16021722D02*
X18208634Y-16126484D01*
X18208634Y-16021722D02*
X18218158Y-16002674D01*
X18218158Y-16002674D02*
X18237205Y-15993150D01*
X18237205Y-15993150D02*
X18265777Y-15993150D01*
X18265777Y-15993150D02*
X18284825Y-16002674D01*
X18284825Y-16002674D02*
X18294348Y-16021722D01*
X18294348Y-16021722D02*
X18294348Y-16126484D01*
X18389586Y-16126484D02*
X18389586Y-15993150D01*
X18389586Y-16012198D02*
X18399110Y-16002674D01*
X18399110Y-16002674D02*
X18418158Y-15993150D01*
X18418158Y-15993150D02*
X18446729Y-15993150D01*
X18446729Y-15993150D02*
X18465777Y-16002674D01*
X18465777Y-16002674D02*
X18475301Y-16021722D01*
X18475301Y-16021722D02*
X18475301Y-16126484D01*
X18475301Y-16021722D02*
X18484825Y-16002674D01*
X18484825Y-16002674D02*
X18503872Y-15993150D01*
X18503872Y-15993150D02*
X18532444Y-15993150D01*
X18532444Y-15993150D02*
X18551491Y-16002674D01*
X18551491Y-16002674D02*
X18561015Y-16021722D01*
X18561015Y-16021722D02*
X18561015Y-16126484D01*
X18951491Y-15916960D02*
X18780063Y-16174103D01*
X19208634Y-15926484D02*
X19227682Y-15926484D01*
X19227682Y-15926484D02*
X19246729Y-15936008D01*
X19246729Y-15936008D02*
X19256253Y-15945531D01*
X19256253Y-15945531D02*
X19265777Y-15964579D01*
X19265777Y-15964579D02*
X19275301Y-16002674D01*
X19275301Y-16002674D02*
X19275301Y-16050293D01*
X19275301Y-16050293D02*
X19265777Y-16088388D01*
X19265777Y-16088388D02*
X19256253Y-16107436D01*
X19256253Y-16107436D02*
X19246729Y-16116960D01*
X19246729Y-16116960D02*
X19227682Y-16126484D01*
X19227682Y-16126484D02*
X19208634Y-16126484D01*
X19208634Y-16126484D02*
X19189587Y-16116960D01*
X19189587Y-16116960D02*
X19180063Y-16107436D01*
X19180063Y-16107436D02*
X19170539Y-16088388D01*
X19170539Y-16088388D02*
X19161015Y-16050293D01*
X19161015Y-16050293D02*
X19161015Y-16002674D01*
X19161015Y-16002674D02*
X19170539Y-15964579D01*
X19170539Y-15964579D02*
X19180063Y-15945531D01*
X19180063Y-15945531D02*
X19189587Y-15936008D01*
X19189587Y-15936008D02*
X19208634Y-15926484D01*
X19361015Y-16107436D02*
X19370539Y-16116960D01*
X19370539Y-16116960D02*
X19361015Y-16126484D01*
X19361015Y-16126484D02*
X19351491Y-16116960D01*
X19351491Y-16116960D02*
X19361015Y-16107436D01*
X19361015Y-16107436D02*
X19361015Y-16126484D01*
X19561015Y-16126484D02*
X19446729Y-16126484D01*
X19503872Y-16126484D02*
X19503872Y-15926484D01*
X19503872Y-15926484D02*
X19484825Y-15955055D01*
X19484825Y-15955055D02*
X19465777Y-15974103D01*
X19465777Y-15974103D02*
X19446729Y-15983627D01*
X19627682Y-15926484D02*
X19751491Y-15926484D01*
X19751491Y-15926484D02*
X19684825Y-16002674D01*
X19684825Y-16002674D02*
X19713396Y-16002674D01*
X19713396Y-16002674D02*
X19732444Y-16012198D01*
X19732444Y-16012198D02*
X19741968Y-16021722D01*
X19741968Y-16021722D02*
X19751491Y-16040769D01*
X19751491Y-16040769D02*
X19751491Y-16088388D01*
X19751491Y-16088388D02*
X19741968Y-16107436D01*
X19741968Y-16107436D02*
X19732444Y-16116960D01*
X19732444Y-16116960D02*
X19713396Y-16126484D01*
X19713396Y-16126484D02*
X19656253Y-16126484D01*
X19656253Y-16126484D02*
X19637206Y-16116960D01*
X19637206Y-16116960D02*
X19627682Y-16107436D01*
X19818158Y-15926484D02*
X19951491Y-15926484D01*
X19951491Y-15926484D02*
X19865777Y-16126484D01*
X20056253Y-16012198D02*
X20037206Y-16002674D01*
X20037206Y-16002674D02*
X20027682Y-15993150D01*
X20027682Y-15993150D02*
X20018158Y-15974103D01*
X20018158Y-15974103D02*
X20018158Y-15964579D01*
X20018158Y-15964579D02*
X20027682Y-15945531D01*
X20027682Y-15945531D02*
X20037206Y-15936008D01*
X20037206Y-15936008D02*
X20056253Y-15926484D01*
X20056253Y-15926484D02*
X20094349Y-15926484D01*
X20094349Y-15926484D02*
X20113396Y-15936008D01*
X20113396Y-15936008D02*
X20122920Y-15945531D01*
X20122920Y-15945531D02*
X20132444Y-15964579D01*
X20132444Y-15964579D02*
X20132444Y-15974103D01*
X20132444Y-15974103D02*
X20122920Y-15993150D01*
X20122920Y-15993150D02*
X20113396Y-16002674D01*
X20113396Y-16002674D02*
X20094349Y-16012198D01*
X20094349Y-16012198D02*
X20056253Y-16012198D01*
X20056253Y-16012198D02*
X20037206Y-16021722D01*
X20037206Y-16021722D02*
X20027682Y-16031246D01*
X20027682Y-16031246D02*
X20018158Y-16050293D01*
X20018158Y-16050293D02*
X20018158Y-16088388D01*
X20018158Y-16088388D02*
X20027682Y-16107436D01*
X20027682Y-16107436D02*
X20037206Y-16116960D01*
X20037206Y-16116960D02*
X20056253Y-16126484D01*
X20056253Y-16126484D02*
X20094349Y-16126484D01*
X20094349Y-16126484D02*
X20113396Y-16116960D01*
X20113396Y-16116960D02*
X20122920Y-16107436D01*
X20122920Y-16107436D02*
X20132444Y-16088388D01*
X20132444Y-16088388D02*
X20132444Y-16050293D01*
X20132444Y-16050293D02*
X20122920Y-16031246D01*
X20122920Y-16031246D02*
X20113396Y-16021722D01*
X20113396Y-16021722D02*
X20094349Y-16012198D01*
X20208634Y-15926484D02*
X20208634Y-15964579D01*
X20284825Y-15926484D02*
X20284825Y-15964579D01*
X20580063Y-16202674D02*
X20570539Y-16193150D01*
X20570539Y-16193150D02*
X20551491Y-16164579D01*
X20551491Y-16164579D02*
X20541968Y-16145531D01*
X20541968Y-16145531D02*
X20532444Y-16116960D01*
X20532444Y-16116960D02*
X20522920Y-16069341D01*
X20522920Y-16069341D02*
X20522920Y-16031246D01*
X20522920Y-16031246D02*
X20532444Y-15983627D01*
X20532444Y-15983627D02*
X20541968Y-15955055D01*
X20541968Y-15955055D02*
X20551491Y-15936008D01*
X20551491Y-15936008D02*
X20570539Y-15907436D01*
X20570539Y-15907436D02*
X20580063Y-15897912D01*
X20646730Y-15945531D02*
X20656253Y-15936008D01*
X20656253Y-15936008D02*
X20675301Y-15926484D01*
X20675301Y-15926484D02*
X20722920Y-15926484D01*
X20722920Y-15926484D02*
X20741968Y-15936008D01*
X20741968Y-15936008D02*
X20751491Y-15945531D01*
X20751491Y-15945531D02*
X20761015Y-15964579D01*
X20761015Y-15964579D02*
X20761015Y-15983627D01*
X20761015Y-15983627D02*
X20751491Y-16012198D01*
X20751491Y-16012198D02*
X20637206Y-16126484D01*
X20637206Y-16126484D02*
X20761015Y-16126484D01*
X20999111Y-16126484D02*
X20999111Y-15926484D01*
X21084825Y-16126484D02*
X21084825Y-16021722D01*
X21084825Y-16021722D02*
X21075301Y-16002674D01*
X21075301Y-16002674D02*
X21056253Y-15993150D01*
X21056253Y-15993150D02*
X21027682Y-15993150D01*
X21027682Y-15993150D02*
X21008634Y-16002674D01*
X21008634Y-16002674D02*
X20999111Y-16012198D01*
X21208634Y-16126484D02*
X21189587Y-16116960D01*
X21189587Y-16116960D02*
X21180063Y-16107436D01*
X21180063Y-16107436D02*
X21170539Y-16088388D01*
X21170539Y-16088388D02*
X21170539Y-16031246D01*
X21170539Y-16031246D02*
X21180063Y-16012198D01*
X21180063Y-16012198D02*
X21189587Y-16002674D01*
X21189587Y-16002674D02*
X21208634Y-15993150D01*
X21208634Y-15993150D02*
X21237206Y-15993150D01*
X21237206Y-15993150D02*
X21256253Y-16002674D01*
X21256253Y-16002674D02*
X21265777Y-16012198D01*
X21265777Y-16012198D02*
X21275301Y-16031246D01*
X21275301Y-16031246D02*
X21275301Y-16088388D01*
X21275301Y-16088388D02*
X21265777Y-16107436D01*
X21265777Y-16107436D02*
X21256253Y-16116960D01*
X21256253Y-16116960D02*
X21237206Y-16126484D01*
X21237206Y-16126484D02*
X21208634Y-16126484D01*
X21389587Y-16126484D02*
X21370539Y-16116960D01*
X21370539Y-16116960D02*
X21361015Y-16097912D01*
X21361015Y-16097912D02*
X21361015Y-15926484D01*
X21541968Y-16116960D02*
X21522920Y-16126484D01*
X21522920Y-16126484D02*
X21484825Y-16126484D01*
X21484825Y-16126484D02*
X21465777Y-16116960D01*
X21465777Y-16116960D02*
X21456253Y-16097912D01*
X21456253Y-16097912D02*
X21456253Y-16021722D01*
X21456253Y-16021722D02*
X21465777Y-16002674D01*
X21465777Y-16002674D02*
X21484825Y-15993150D01*
X21484825Y-15993150D02*
X21522920Y-15993150D01*
X21522920Y-15993150D02*
X21541968Y-16002674D01*
X21541968Y-16002674D02*
X21551492Y-16021722D01*
X21551492Y-16021722D02*
X21551492Y-16040769D01*
X21551492Y-16040769D02*
X21456253Y-16059817D01*
X21627682Y-16116960D02*
X21646730Y-16126484D01*
X21646730Y-16126484D02*
X21684825Y-16126484D01*
X21684825Y-16126484D02*
X21703873Y-16116960D01*
X21703873Y-16116960D02*
X21713396Y-16097912D01*
X21713396Y-16097912D02*
X21713396Y-16088388D01*
X21713396Y-16088388D02*
X21703873Y-16069341D01*
X21703873Y-16069341D02*
X21684825Y-16059817D01*
X21684825Y-16059817D02*
X21656253Y-16059817D01*
X21656253Y-16059817D02*
X21637206Y-16050293D01*
X21637206Y-16050293D02*
X21627682Y-16031246D01*
X21627682Y-16031246D02*
X21627682Y-16021722D01*
X21627682Y-16021722D02*
X21637206Y-16002674D01*
X21637206Y-16002674D02*
X21656253Y-15993150D01*
X21656253Y-15993150D02*
X21684825Y-15993150D01*
X21684825Y-15993150D02*
X21703873Y-16002674D01*
X21780063Y-16202674D02*
X21789587Y-16193150D01*
X21789587Y-16193150D02*
X21808634Y-16164579D01*
X21808634Y-16164579D02*
X21818158Y-16145531D01*
X21818158Y-16145531D02*
X21827682Y-16116960D01*
X21827682Y-16116960D02*
X21837206Y-16069341D01*
X21837206Y-16069341D02*
X21837206Y-16031246D01*
X21837206Y-16031246D02*
X21827682Y-15983627D01*
X21827682Y-15983627D02*
X21818158Y-15955055D01*
X21818158Y-15955055D02*
X21808634Y-15936008D01*
X21808634Y-15936008D02*
X21789587Y-15907436D01*
X21789587Y-15907436D02*
X21780063Y-15897912D01*
X22141968Y-16202674D02*
X22132444Y-16193150D01*
X22132444Y-16193150D02*
X22113396Y-16164579D01*
X22113396Y-16164579D02*
X22103873Y-16145531D01*
X22103873Y-16145531D02*
X22094349Y-16116960D01*
X22094349Y-16116960D02*
X22084825Y-16069341D01*
X22084825Y-16069341D02*
X22084825Y-16031246D01*
X22084825Y-16031246D02*
X22094349Y-15983627D01*
X22094349Y-15983627D02*
X22103873Y-15955055D01*
X22103873Y-15955055D02*
X22113396Y-15936008D01*
X22113396Y-15936008D02*
X22132444Y-15907436D01*
X22132444Y-15907436D02*
X22141968Y-15897912D01*
X22218158Y-15993150D02*
X22218158Y-16126484D01*
X22218158Y-16012198D02*
X22227682Y-16002674D01*
X22227682Y-16002674D02*
X22246730Y-15993150D01*
X22246730Y-15993150D02*
X22275301Y-15993150D01*
X22275301Y-15993150D02*
X22294349Y-16002674D01*
X22294349Y-16002674D02*
X22303873Y-16021722D01*
X22303873Y-16021722D02*
X22303873Y-16126484D01*
X22427682Y-16126484D02*
X22408634Y-16116960D01*
X22408634Y-16116960D02*
X22399111Y-16107436D01*
X22399111Y-16107436D02*
X22389587Y-16088388D01*
X22389587Y-16088388D02*
X22389587Y-16031246D01*
X22389587Y-16031246D02*
X22399111Y-16012198D01*
X22399111Y-16012198D02*
X22408634Y-16002674D01*
X22408634Y-16002674D02*
X22427682Y-15993150D01*
X22427682Y-15993150D02*
X22456253Y-15993150D01*
X22456253Y-15993150D02*
X22475301Y-16002674D01*
X22475301Y-16002674D02*
X22484825Y-16012198D01*
X22484825Y-16012198D02*
X22494349Y-16031246D01*
X22494349Y-16031246D02*
X22494349Y-16088388D01*
X22494349Y-16088388D02*
X22484825Y-16107436D01*
X22484825Y-16107436D02*
X22475301Y-16116960D01*
X22475301Y-16116960D02*
X22456253Y-16126484D01*
X22456253Y-16126484D02*
X22427682Y-16126484D01*
X22551492Y-15993150D02*
X22627682Y-15993150D01*
X22580063Y-15926484D02*
X22580063Y-16097912D01*
X22580063Y-16097912D02*
X22589587Y-16116960D01*
X22589587Y-16116960D02*
X22608634Y-16126484D01*
X22608634Y-16126484D02*
X22627682Y-16126484D01*
X22846730Y-15993150D02*
X22846730Y-16193150D01*
X22846730Y-16002674D02*
X22865777Y-15993150D01*
X22865777Y-15993150D02*
X22903873Y-15993150D01*
X22903873Y-15993150D02*
X22922920Y-16002674D01*
X22922920Y-16002674D02*
X22932444Y-16012198D01*
X22932444Y-16012198D02*
X22941968Y-16031246D01*
X22941968Y-16031246D02*
X22941968Y-16088388D01*
X22941968Y-16088388D02*
X22932444Y-16107436D01*
X22932444Y-16107436D02*
X22922920Y-16116960D01*
X22922920Y-16116960D02*
X22903873Y-16126484D01*
X22903873Y-16126484D02*
X22865777Y-16126484D01*
X22865777Y-16126484D02*
X22846730Y-16116960D01*
X23056253Y-16126484D02*
X23037206Y-16116960D01*
X23037206Y-16116960D02*
X23027682Y-16097912D01*
X23027682Y-16097912D02*
X23027682Y-15926484D01*
X23218158Y-16126484D02*
X23218158Y-16021722D01*
X23218158Y-16021722D02*
X23208634Y-16002674D01*
X23208634Y-16002674D02*
X23189587Y-15993150D01*
X23189587Y-15993150D02*
X23151492Y-15993150D01*
X23151492Y-15993150D02*
X23132444Y-16002674D01*
X23218158Y-16116960D02*
X23199111Y-16126484D01*
X23199111Y-16126484D02*
X23151492Y-16126484D01*
X23151492Y-16126484D02*
X23132444Y-16116960D01*
X23132444Y-16116960D02*
X23122920Y-16097912D01*
X23122920Y-16097912D02*
X23122920Y-16078865D01*
X23122920Y-16078865D02*
X23132444Y-16059817D01*
X23132444Y-16059817D02*
X23151492Y-16050293D01*
X23151492Y-16050293D02*
X23199111Y-16050293D01*
X23199111Y-16050293D02*
X23218158Y-16040769D01*
X23284825Y-15993150D02*
X23361015Y-15993150D01*
X23313396Y-15926484D02*
X23313396Y-16097912D01*
X23313396Y-16097912D02*
X23322920Y-16116960D01*
X23322920Y-16116960D02*
X23341968Y-16126484D01*
X23341968Y-16126484D02*
X23361015Y-16126484D01*
X23503873Y-16116960D02*
X23484825Y-16126484D01*
X23484825Y-16126484D02*
X23446730Y-16126484D01*
X23446730Y-16126484D02*
X23427682Y-16116960D01*
X23427682Y-16116960D02*
X23418158Y-16097912D01*
X23418158Y-16097912D02*
X23418158Y-16021722D01*
X23418158Y-16021722D02*
X23427682Y-16002674D01*
X23427682Y-16002674D02*
X23446730Y-15993150D01*
X23446730Y-15993150D02*
X23484825Y-15993150D01*
X23484825Y-15993150D02*
X23503873Y-16002674D01*
X23503873Y-16002674D02*
X23513396Y-16021722D01*
X23513396Y-16021722D02*
X23513396Y-16040769D01*
X23513396Y-16040769D02*
X23418158Y-16059817D01*
X23684825Y-16126484D02*
X23684825Y-15926484D01*
X23684825Y-16116960D02*
X23665777Y-16126484D01*
X23665777Y-16126484D02*
X23627682Y-16126484D01*
X23627682Y-16126484D02*
X23608634Y-16116960D01*
X23608634Y-16116960D02*
X23599111Y-16107436D01*
X23599111Y-16107436D02*
X23589587Y-16088388D01*
X23589587Y-16088388D02*
X23589587Y-16031246D01*
X23589587Y-16031246D02*
X23599111Y-16012198D01*
X23599111Y-16012198D02*
X23608634Y-16002674D01*
X23608634Y-16002674D02*
X23627682Y-15993150D01*
X23627682Y-15993150D02*
X23665777Y-15993150D01*
X23665777Y-15993150D02*
X23684825Y-16002674D01*
X23761015Y-16202674D02*
X23770539Y-16193150D01*
X23770539Y-16193150D02*
X23789587Y-16164579D01*
X23789587Y-16164579D02*
X23799111Y-16145531D01*
X23799111Y-16145531D02*
X23808634Y-16116960D01*
X23808634Y-16116960D02*
X23818158Y-16069341D01*
X23818158Y-16069341D02*
X23818158Y-16031246D01*
X23818158Y-16031246D02*
X23808634Y-15983627D01*
X23808634Y-15983627D02*
X23799111Y-15955055D01*
X23799111Y-15955055D02*
X23789587Y-15936008D01*
X23789587Y-15936008D02*
X23770539Y-15907436D01*
X23770539Y-15907436D02*
X23761015Y-15897912D01*
X16905000Y-16455000D02*
X17005000Y-16355000D01*
X16905000Y-16255000D01*
X16805000Y-16355000D01*
X16905000Y-16455000D01*
X17351491Y-16313150D02*
X17351491Y-16446484D01*
X17303872Y-16236960D02*
X17256253Y-16379817D01*
X17256253Y-16379817D02*
X17380063Y-16379817D01*
X17456253Y-16427436D02*
X17465777Y-16436960D01*
X17465777Y-16436960D02*
X17456253Y-16446484D01*
X17456253Y-16446484D02*
X17446729Y-16436960D01*
X17446729Y-16436960D02*
X17456253Y-16427436D01*
X17456253Y-16427436D02*
X17456253Y-16446484D01*
X17646729Y-16246484D02*
X17551491Y-16246484D01*
X17551491Y-16246484D02*
X17541967Y-16341722D01*
X17541967Y-16341722D02*
X17551491Y-16332198D01*
X17551491Y-16332198D02*
X17570539Y-16322674D01*
X17570539Y-16322674D02*
X17618158Y-16322674D01*
X17618158Y-16322674D02*
X17637205Y-16332198D01*
X17637205Y-16332198D02*
X17646729Y-16341722D01*
X17646729Y-16341722D02*
X17656253Y-16360769D01*
X17656253Y-16360769D02*
X17656253Y-16408388D01*
X17656253Y-16408388D02*
X17646729Y-16427436D01*
X17646729Y-16427436D02*
X17637205Y-16436960D01*
X17637205Y-16436960D02*
X17618158Y-16446484D01*
X17618158Y-16446484D02*
X17570539Y-16446484D01*
X17570539Y-16446484D02*
X17551491Y-16436960D01*
X17551491Y-16436960D02*
X17541967Y-16427436D01*
X17780063Y-16246484D02*
X17799110Y-16246484D01*
X17799110Y-16246484D02*
X17818158Y-16256008D01*
X17818158Y-16256008D02*
X17827682Y-16265531D01*
X17827682Y-16265531D02*
X17837205Y-16284579D01*
X17837205Y-16284579D02*
X17846729Y-16322674D01*
X17846729Y-16322674D02*
X17846729Y-16370293D01*
X17846729Y-16370293D02*
X17837205Y-16408388D01*
X17837205Y-16408388D02*
X17827682Y-16427436D01*
X17827682Y-16427436D02*
X17818158Y-16436960D01*
X17818158Y-16436960D02*
X17799110Y-16446484D01*
X17799110Y-16446484D02*
X17780063Y-16446484D01*
X17780063Y-16446484D02*
X17761015Y-16436960D01*
X17761015Y-16436960D02*
X17751491Y-16427436D01*
X17751491Y-16427436D02*
X17741967Y-16408388D01*
X17741967Y-16408388D02*
X17732444Y-16370293D01*
X17732444Y-16370293D02*
X17732444Y-16322674D01*
X17732444Y-16322674D02*
X17741967Y-16284579D01*
X17741967Y-16284579D02*
X17751491Y-16265531D01*
X17751491Y-16265531D02*
X17761015Y-16256008D01*
X17761015Y-16256008D02*
X17780063Y-16246484D01*
X17970539Y-16246484D02*
X17989586Y-16246484D01*
X17989586Y-16246484D02*
X18008634Y-16256008D01*
X18008634Y-16256008D02*
X18018158Y-16265531D01*
X18018158Y-16265531D02*
X18027682Y-16284579D01*
X18027682Y-16284579D02*
X18037205Y-16322674D01*
X18037205Y-16322674D02*
X18037205Y-16370293D01*
X18037205Y-16370293D02*
X18027682Y-16408388D01*
X18027682Y-16408388D02*
X18018158Y-16427436D01*
X18018158Y-16427436D02*
X18008634Y-16436960D01*
X18008634Y-16436960D02*
X17989586Y-16446484D01*
X17989586Y-16446484D02*
X17970539Y-16446484D01*
X17970539Y-16446484D02*
X17951491Y-16436960D01*
X17951491Y-16436960D02*
X17941967Y-16427436D01*
X17941967Y-16427436D02*
X17932444Y-16408388D01*
X17932444Y-16408388D02*
X17922920Y-16370293D01*
X17922920Y-16370293D02*
X17922920Y-16322674D01*
X17922920Y-16322674D02*
X17932444Y-16284579D01*
X17932444Y-16284579D02*
X17941967Y-16265531D01*
X17941967Y-16265531D02*
X17951491Y-16256008D01*
X17951491Y-16256008D02*
X17970539Y-16246484D01*
X18122920Y-16446484D02*
X18122920Y-16313150D01*
X18122920Y-16332198D02*
X18132444Y-16322674D01*
X18132444Y-16322674D02*
X18151491Y-16313150D01*
X18151491Y-16313150D02*
X18180063Y-16313150D01*
X18180063Y-16313150D02*
X18199110Y-16322674D01*
X18199110Y-16322674D02*
X18208634Y-16341722D01*
X18208634Y-16341722D02*
X18208634Y-16446484D01*
X18208634Y-16341722D02*
X18218158Y-16322674D01*
X18218158Y-16322674D02*
X18237205Y-16313150D01*
X18237205Y-16313150D02*
X18265777Y-16313150D01*
X18265777Y-16313150D02*
X18284825Y-16322674D01*
X18284825Y-16322674D02*
X18294348Y-16341722D01*
X18294348Y-16341722D02*
X18294348Y-16446484D01*
X18389586Y-16446484D02*
X18389586Y-16313150D01*
X18389586Y-16332198D02*
X18399110Y-16322674D01*
X18399110Y-16322674D02*
X18418158Y-16313150D01*
X18418158Y-16313150D02*
X18446729Y-16313150D01*
X18446729Y-16313150D02*
X18465777Y-16322674D01*
X18465777Y-16322674D02*
X18475301Y-16341722D01*
X18475301Y-16341722D02*
X18475301Y-16446484D01*
X18475301Y-16341722D02*
X18484825Y-16322674D01*
X18484825Y-16322674D02*
X18503872Y-16313150D01*
X18503872Y-16313150D02*
X18532444Y-16313150D01*
X18532444Y-16313150D02*
X18551491Y-16322674D01*
X18551491Y-16322674D02*
X18561015Y-16341722D01*
X18561015Y-16341722D02*
X18561015Y-16446484D01*
X18951491Y-16236960D02*
X18780063Y-16494103D01*
X19208634Y-16246484D02*
X19227682Y-16246484D01*
X19227682Y-16246484D02*
X19246729Y-16256008D01*
X19246729Y-16256008D02*
X19256253Y-16265531D01*
X19256253Y-16265531D02*
X19265777Y-16284579D01*
X19265777Y-16284579D02*
X19275301Y-16322674D01*
X19275301Y-16322674D02*
X19275301Y-16370293D01*
X19275301Y-16370293D02*
X19265777Y-16408388D01*
X19265777Y-16408388D02*
X19256253Y-16427436D01*
X19256253Y-16427436D02*
X19246729Y-16436960D01*
X19246729Y-16436960D02*
X19227682Y-16446484D01*
X19227682Y-16446484D02*
X19208634Y-16446484D01*
X19208634Y-16446484D02*
X19189587Y-16436960D01*
X19189587Y-16436960D02*
X19180063Y-16427436D01*
X19180063Y-16427436D02*
X19170539Y-16408388D01*
X19170539Y-16408388D02*
X19161015Y-16370293D01*
X19161015Y-16370293D02*
X19161015Y-16322674D01*
X19161015Y-16322674D02*
X19170539Y-16284579D01*
X19170539Y-16284579D02*
X19180063Y-16265531D01*
X19180063Y-16265531D02*
X19189587Y-16256008D01*
X19189587Y-16256008D02*
X19208634Y-16246484D01*
X19361015Y-16427436D02*
X19370539Y-16436960D01*
X19370539Y-16436960D02*
X19361015Y-16446484D01*
X19361015Y-16446484D02*
X19351491Y-16436960D01*
X19351491Y-16436960D02*
X19361015Y-16427436D01*
X19361015Y-16427436D02*
X19361015Y-16446484D01*
X19561015Y-16446484D02*
X19446729Y-16446484D01*
X19503872Y-16446484D02*
X19503872Y-16246484D01*
X19503872Y-16246484D02*
X19484825Y-16275055D01*
X19484825Y-16275055D02*
X19465777Y-16294103D01*
X19465777Y-16294103D02*
X19446729Y-16303627D01*
X19627682Y-16246484D02*
X19761015Y-16246484D01*
X19761015Y-16246484D02*
X19675301Y-16446484D01*
X19818158Y-16246484D02*
X19951491Y-16246484D01*
X19951491Y-16246484D02*
X19865777Y-16446484D01*
X20018158Y-16265531D02*
X20027682Y-16256008D01*
X20027682Y-16256008D02*
X20046729Y-16246484D01*
X20046729Y-16246484D02*
X20094349Y-16246484D01*
X20094349Y-16246484D02*
X20113396Y-16256008D01*
X20113396Y-16256008D02*
X20122920Y-16265531D01*
X20122920Y-16265531D02*
X20132444Y-16284579D01*
X20132444Y-16284579D02*
X20132444Y-16303627D01*
X20132444Y-16303627D02*
X20122920Y-16332198D01*
X20122920Y-16332198D02*
X20008634Y-16446484D01*
X20008634Y-16446484D02*
X20132444Y-16446484D01*
X20208634Y-16246484D02*
X20208634Y-16284579D01*
X20284825Y-16246484D02*
X20284825Y-16284579D01*
X20580063Y-16522674D02*
X20570539Y-16513150D01*
X20570539Y-16513150D02*
X20551491Y-16484579D01*
X20551491Y-16484579D02*
X20541968Y-16465531D01*
X20541968Y-16465531D02*
X20532444Y-16436960D01*
X20532444Y-16436960D02*
X20522920Y-16389341D01*
X20522920Y-16389341D02*
X20522920Y-16351246D01*
X20522920Y-16351246D02*
X20532444Y-16303627D01*
X20532444Y-16303627D02*
X20541968Y-16275055D01*
X20541968Y-16275055D02*
X20551491Y-16256008D01*
X20551491Y-16256008D02*
X20570539Y-16227436D01*
X20570539Y-16227436D02*
X20580063Y-16217912D01*
X20646730Y-16265531D02*
X20656253Y-16256008D01*
X20656253Y-16256008D02*
X20675301Y-16246484D01*
X20675301Y-16246484D02*
X20722920Y-16246484D01*
X20722920Y-16246484D02*
X20741968Y-16256008D01*
X20741968Y-16256008D02*
X20751491Y-16265531D01*
X20751491Y-16265531D02*
X20761015Y-16284579D01*
X20761015Y-16284579D02*
X20761015Y-16303627D01*
X20761015Y-16303627D02*
X20751491Y-16332198D01*
X20751491Y-16332198D02*
X20637206Y-16446484D01*
X20637206Y-16446484D02*
X20761015Y-16446484D01*
X20999111Y-16446484D02*
X20999111Y-16246484D01*
X21084825Y-16446484D02*
X21084825Y-16341722D01*
X21084825Y-16341722D02*
X21075301Y-16322674D01*
X21075301Y-16322674D02*
X21056253Y-16313150D01*
X21056253Y-16313150D02*
X21027682Y-16313150D01*
X21027682Y-16313150D02*
X21008634Y-16322674D01*
X21008634Y-16322674D02*
X20999111Y-16332198D01*
X21208634Y-16446484D02*
X21189587Y-16436960D01*
X21189587Y-16436960D02*
X21180063Y-16427436D01*
X21180063Y-16427436D02*
X21170539Y-16408388D01*
X21170539Y-16408388D02*
X21170539Y-16351246D01*
X21170539Y-16351246D02*
X21180063Y-16332198D01*
X21180063Y-16332198D02*
X21189587Y-16322674D01*
X21189587Y-16322674D02*
X21208634Y-16313150D01*
X21208634Y-16313150D02*
X21237206Y-16313150D01*
X21237206Y-16313150D02*
X21256253Y-16322674D01*
X21256253Y-16322674D02*
X21265777Y-16332198D01*
X21265777Y-16332198D02*
X21275301Y-16351246D01*
X21275301Y-16351246D02*
X21275301Y-16408388D01*
X21275301Y-16408388D02*
X21265777Y-16427436D01*
X21265777Y-16427436D02*
X21256253Y-16436960D01*
X21256253Y-16436960D02*
X21237206Y-16446484D01*
X21237206Y-16446484D02*
X21208634Y-16446484D01*
X21389587Y-16446484D02*
X21370539Y-16436960D01*
X21370539Y-16436960D02*
X21361015Y-16417912D01*
X21361015Y-16417912D02*
X21361015Y-16246484D01*
X21541968Y-16436960D02*
X21522920Y-16446484D01*
X21522920Y-16446484D02*
X21484825Y-16446484D01*
X21484825Y-16446484D02*
X21465777Y-16436960D01*
X21465777Y-16436960D02*
X21456253Y-16417912D01*
X21456253Y-16417912D02*
X21456253Y-16341722D01*
X21456253Y-16341722D02*
X21465777Y-16322674D01*
X21465777Y-16322674D02*
X21484825Y-16313150D01*
X21484825Y-16313150D02*
X21522920Y-16313150D01*
X21522920Y-16313150D02*
X21541968Y-16322674D01*
X21541968Y-16322674D02*
X21551492Y-16341722D01*
X21551492Y-16341722D02*
X21551492Y-16360769D01*
X21551492Y-16360769D02*
X21456253Y-16379817D01*
X21627682Y-16436960D02*
X21646730Y-16446484D01*
X21646730Y-16446484D02*
X21684825Y-16446484D01*
X21684825Y-16446484D02*
X21703873Y-16436960D01*
X21703873Y-16436960D02*
X21713396Y-16417912D01*
X21713396Y-16417912D02*
X21713396Y-16408388D01*
X21713396Y-16408388D02*
X21703873Y-16389341D01*
X21703873Y-16389341D02*
X21684825Y-16379817D01*
X21684825Y-16379817D02*
X21656253Y-16379817D01*
X21656253Y-16379817D02*
X21637206Y-16370293D01*
X21637206Y-16370293D02*
X21627682Y-16351246D01*
X21627682Y-16351246D02*
X21627682Y-16341722D01*
X21627682Y-16341722D02*
X21637206Y-16322674D01*
X21637206Y-16322674D02*
X21656253Y-16313150D01*
X21656253Y-16313150D02*
X21684825Y-16313150D01*
X21684825Y-16313150D02*
X21703873Y-16322674D01*
X21780063Y-16522674D02*
X21789587Y-16513150D01*
X21789587Y-16513150D02*
X21808634Y-16484579D01*
X21808634Y-16484579D02*
X21818158Y-16465531D01*
X21818158Y-16465531D02*
X21827682Y-16436960D01*
X21827682Y-16436960D02*
X21837206Y-16389341D01*
X21837206Y-16389341D02*
X21837206Y-16351246D01*
X21837206Y-16351246D02*
X21827682Y-16303627D01*
X21827682Y-16303627D02*
X21818158Y-16275055D01*
X21818158Y-16275055D02*
X21808634Y-16256008D01*
X21808634Y-16256008D02*
X21789587Y-16227436D01*
X21789587Y-16227436D02*
X21780063Y-16217912D01*
X22141968Y-16522674D02*
X22132444Y-16513150D01*
X22132444Y-16513150D02*
X22113396Y-16484579D01*
X22113396Y-16484579D02*
X22103873Y-16465531D01*
X22103873Y-16465531D02*
X22094349Y-16436960D01*
X22094349Y-16436960D02*
X22084825Y-16389341D01*
X22084825Y-16389341D02*
X22084825Y-16351246D01*
X22084825Y-16351246D02*
X22094349Y-16303627D01*
X22094349Y-16303627D02*
X22103873Y-16275055D01*
X22103873Y-16275055D02*
X22113396Y-16256008D01*
X22113396Y-16256008D02*
X22132444Y-16227436D01*
X22132444Y-16227436D02*
X22141968Y-16217912D01*
X22218158Y-16313150D02*
X22218158Y-16446484D01*
X22218158Y-16332198D02*
X22227682Y-16322674D01*
X22227682Y-16322674D02*
X22246730Y-16313150D01*
X22246730Y-16313150D02*
X22275301Y-16313150D01*
X22275301Y-16313150D02*
X22294349Y-16322674D01*
X22294349Y-16322674D02*
X22303873Y-16341722D01*
X22303873Y-16341722D02*
X22303873Y-16446484D01*
X22427682Y-16446484D02*
X22408634Y-16436960D01*
X22408634Y-16436960D02*
X22399111Y-16427436D01*
X22399111Y-16427436D02*
X22389587Y-16408388D01*
X22389587Y-16408388D02*
X22389587Y-16351246D01*
X22389587Y-16351246D02*
X22399111Y-16332198D01*
X22399111Y-16332198D02*
X22408634Y-16322674D01*
X22408634Y-16322674D02*
X22427682Y-16313150D01*
X22427682Y-16313150D02*
X22456253Y-16313150D01*
X22456253Y-16313150D02*
X22475301Y-16322674D01*
X22475301Y-16322674D02*
X22484825Y-16332198D01*
X22484825Y-16332198D02*
X22494349Y-16351246D01*
X22494349Y-16351246D02*
X22494349Y-16408388D01*
X22494349Y-16408388D02*
X22484825Y-16427436D01*
X22484825Y-16427436D02*
X22475301Y-16436960D01*
X22475301Y-16436960D02*
X22456253Y-16446484D01*
X22456253Y-16446484D02*
X22427682Y-16446484D01*
X22551492Y-16313150D02*
X22627682Y-16313150D01*
X22580063Y-16246484D02*
X22580063Y-16417912D01*
X22580063Y-16417912D02*
X22589587Y-16436960D01*
X22589587Y-16436960D02*
X22608634Y-16446484D01*
X22608634Y-16446484D02*
X22627682Y-16446484D01*
X22846730Y-16313150D02*
X22846730Y-16513150D01*
X22846730Y-16322674D02*
X22865777Y-16313150D01*
X22865777Y-16313150D02*
X22903873Y-16313150D01*
X22903873Y-16313150D02*
X22922920Y-16322674D01*
X22922920Y-16322674D02*
X22932444Y-16332198D01*
X22932444Y-16332198D02*
X22941968Y-16351246D01*
X22941968Y-16351246D02*
X22941968Y-16408388D01*
X22941968Y-16408388D02*
X22932444Y-16427436D01*
X22932444Y-16427436D02*
X22922920Y-16436960D01*
X22922920Y-16436960D02*
X22903873Y-16446484D01*
X22903873Y-16446484D02*
X22865777Y-16446484D01*
X22865777Y-16446484D02*
X22846730Y-16436960D01*
X23056253Y-16446484D02*
X23037206Y-16436960D01*
X23037206Y-16436960D02*
X23027682Y-16417912D01*
X23027682Y-16417912D02*
X23027682Y-16246484D01*
X23218158Y-16446484D02*
X23218158Y-16341722D01*
X23218158Y-16341722D02*
X23208634Y-16322674D01*
X23208634Y-16322674D02*
X23189587Y-16313150D01*
X23189587Y-16313150D02*
X23151492Y-16313150D01*
X23151492Y-16313150D02*
X23132444Y-16322674D01*
X23218158Y-16436960D02*
X23199111Y-16446484D01*
X23199111Y-16446484D02*
X23151492Y-16446484D01*
X23151492Y-16446484D02*
X23132444Y-16436960D01*
X23132444Y-16436960D02*
X23122920Y-16417912D01*
X23122920Y-16417912D02*
X23122920Y-16398865D01*
X23122920Y-16398865D02*
X23132444Y-16379817D01*
X23132444Y-16379817D02*
X23151492Y-16370293D01*
X23151492Y-16370293D02*
X23199111Y-16370293D01*
X23199111Y-16370293D02*
X23218158Y-16360769D01*
X23284825Y-16313150D02*
X23361015Y-16313150D01*
X23313396Y-16246484D02*
X23313396Y-16417912D01*
X23313396Y-16417912D02*
X23322920Y-16436960D01*
X23322920Y-16436960D02*
X23341968Y-16446484D01*
X23341968Y-16446484D02*
X23361015Y-16446484D01*
X23503873Y-16436960D02*
X23484825Y-16446484D01*
X23484825Y-16446484D02*
X23446730Y-16446484D01*
X23446730Y-16446484D02*
X23427682Y-16436960D01*
X23427682Y-16436960D02*
X23418158Y-16417912D01*
X23418158Y-16417912D02*
X23418158Y-16341722D01*
X23418158Y-16341722D02*
X23427682Y-16322674D01*
X23427682Y-16322674D02*
X23446730Y-16313150D01*
X23446730Y-16313150D02*
X23484825Y-16313150D01*
X23484825Y-16313150D02*
X23503873Y-16322674D01*
X23503873Y-16322674D02*
X23513396Y-16341722D01*
X23513396Y-16341722D02*
X23513396Y-16360769D01*
X23513396Y-16360769D02*
X23418158Y-16379817D01*
X23684825Y-16446484D02*
X23684825Y-16246484D01*
X23684825Y-16436960D02*
X23665777Y-16446484D01*
X23665777Y-16446484D02*
X23627682Y-16446484D01*
X23627682Y-16446484D02*
X23608634Y-16436960D01*
X23608634Y-16436960D02*
X23599111Y-16427436D01*
X23599111Y-16427436D02*
X23589587Y-16408388D01*
X23589587Y-16408388D02*
X23589587Y-16351246D01*
X23589587Y-16351246D02*
X23599111Y-16332198D01*
X23599111Y-16332198D02*
X23608634Y-16322674D01*
X23608634Y-16322674D02*
X23627682Y-16313150D01*
X23627682Y-16313150D02*
X23665777Y-16313150D01*
X23665777Y-16313150D02*
X23684825Y-16322674D01*
X23761015Y-16522674D02*
X23770539Y-16513150D01*
X23770539Y-16513150D02*
X23789587Y-16484579D01*
X23789587Y-16484579D02*
X23799111Y-16465531D01*
X23799111Y-16465531D02*
X23808634Y-16436960D01*
X23808634Y-16436960D02*
X23818158Y-16389341D01*
X23818158Y-16389341D02*
X23818158Y-16351246D01*
X23818158Y-16351246D02*
X23808634Y-16303627D01*
X23808634Y-16303627D02*
X23799111Y-16275055D01*
X23799111Y-16275055D02*
X23789587Y-16256008D01*
X23789587Y-16256008D02*
X23770539Y-16227436D01*
X23770539Y-16227436D02*
X23761015Y-16217912D01*
M02*
