%TF.GenerationSoftware,KiCad,Pcbnew,9.0.2+dfsg-1*%
%TF.CreationDate,2025-07-08T11:28:32+01:00*%
%TF.ProjectId,low-noise-power-probe-panel,6c6f772d-6e6f-4697-9365-2d706f776572,rev?*%
%TF.SameCoordinates,Original*%
%TF.FileFunction,Paste,Top*%
%TF.FilePolarity,Positive*%
%FSLAX46Y46*%
G04 Gerber Fmt 4.6, Leading zero omitted, Abs format (unit mm)*
G04 Created by KiCad (PCBNEW 9.0.2+dfsg-1) date 2025-07-08 11:28:32*
%MOMM*%
%LPD*%
G01*
G04 APERTURE LIST*
G04 Aperture macros list*
%AMRoundRect*
0 Rectangle with rounded corners*
0 $1 Rounding radius*
0 $2 $3 $4 $5 $6 $7 $8 $9 X,Y pos of 4 corners*
0 Add a 4 corners polygon primitive as box body*
4,1,4,$2,$3,$4,$5,$6,$7,$8,$9,$2,$3,0*
0 Add four circle primitives for the rounded corners*
1,1,$1+$1,$2,$3*
1,1,$1+$1,$4,$5*
1,1,$1+$1,$6,$7*
1,1,$1+$1,$8,$9*
0 Add four rect primitives between the rounded corners*
20,1,$1+$1,$2,$3,$4,$5,0*
20,1,$1+$1,$4,$5,$6,$7,0*
20,1,$1+$1,$6,$7,$8,$9,0*
20,1,$1+$1,$8,$9,$2,$3,0*%
%AMFreePoly0*
4,1,9,3.862500,-0.866500,0.737500,-0.866500,0.737500,-0.450000,-0.737500,-0.450000,-0.737500,0.450000,0.737500,0.450000,0.737500,0.866500,3.862500,0.866500,3.862500,-0.866500,3.862500,-0.866500,$1*%
G04 Aperture macros list end*
%ADD10RoundRect,0.200000X-0.200000X-0.275000X0.200000X-0.275000X0.200000X0.275000X-0.200000X0.275000X0*%
%ADD11RoundRect,0.200000X0.200000X0.275000X-0.200000X0.275000X-0.200000X-0.275000X0.200000X-0.275000X0*%
%ADD12R,0.600000X0.450000*%
%ADD13RoundRect,0.140000X0.140000X0.170000X-0.140000X0.170000X-0.140000X-0.170000X0.140000X-0.170000X0*%
%ADD14RoundRect,0.140000X-0.170000X0.140000X-0.170000X-0.140000X0.170000X-0.140000X0.170000X0.140000X0*%
%ADD15RoundRect,0.200000X-0.275000X0.200000X-0.275000X-0.200000X0.275000X-0.200000X0.275000X0.200000X0*%
%ADD16RoundRect,0.250000X-1.450000X0.312500X-1.450000X-0.312500X1.450000X-0.312500X1.450000X0.312500X0*%
%ADD17RoundRect,0.150000X0.512500X0.150000X-0.512500X0.150000X-0.512500X-0.150000X0.512500X-0.150000X0*%
%ADD18RoundRect,0.112500X0.187500X0.112500X-0.187500X0.112500X-0.187500X-0.112500X0.187500X-0.112500X0*%
%ADD19RoundRect,0.250000X-0.475000X0.250000X-0.475000X-0.250000X0.475000X-0.250000X0.475000X0.250000X0*%
%ADD20R,1.050000X0.600000*%
%ADD21R,0.300000X0.650000*%
%ADD22R,0.300000X0.700000*%
%ADD23R,1.000000X0.700000*%
%ADD24RoundRect,0.200000X0.275000X-0.200000X0.275000X0.200000X-0.275000X0.200000X-0.275000X-0.200000X0*%
%ADD25R,0.900000X1.300000*%
%ADD26FreePoly0,270.000000*%
%ADD27RoundRect,0.150000X-0.825000X-0.150000X0.825000X-0.150000X0.825000X0.150000X-0.825000X0.150000X0*%
%ADD28RoundRect,0.250000X0.475000X-0.250000X0.475000X0.250000X-0.475000X0.250000X-0.475000X-0.250000X0*%
%ADD29RoundRect,0.250000X-0.625000X0.375000X-0.625000X-0.375000X0.625000X-0.375000X0.625000X0.375000X0*%
%ADD30RoundRect,0.140000X-0.140000X-0.170000X0.140000X-0.170000X0.140000X0.170000X-0.140000X0.170000X0*%
%ADD31RoundRect,0.140000X0.170000X-0.140000X0.170000X0.140000X-0.170000X0.140000X-0.170000X-0.140000X0*%
%ADD32R,1.700000X1.300000*%
%ADD33RoundRect,0.112500X0.112500X-0.187500X0.112500X0.187500X-0.112500X0.187500X-0.112500X-0.187500X0*%
%ADD34RoundRect,0.167500X-0.312500X0.167500X-0.312500X-0.167500X0.312500X-0.167500X0.312500X0.167500X0*%
%ADD35RoundRect,0.062500X-0.062500X0.362500X-0.062500X-0.362500X0.062500X-0.362500X0.062500X0.362500X0*%
%ADD36RoundRect,0.200000X0.138157X-0.310705X0.338157X0.035705X-0.138157X0.310705X-0.338157X-0.035705X0*%
G04 APERTURE END LIST*
%TO.C,J12*%
G36*
X225800000Y-120475000D02*
G01*
X225000000Y-120475000D01*
X225000000Y-121575000D01*
X225800000Y-121575000D01*
X225800000Y-120475000D01*
G37*
G36*
X225800000Y-123125000D02*
G01*
X225000000Y-123125000D01*
X225000000Y-124225000D01*
X225800000Y-124225000D01*
X225800000Y-123125000D01*
G37*
G36*
X225800000Y-125775000D02*
G01*
X225000000Y-125775000D01*
X225000000Y-126875000D01*
X225800000Y-126875000D01*
X225800000Y-125775000D01*
G37*
%TO.C,J11*%
G36*
X203900000Y-129275000D02*
G01*
X205000000Y-129275000D01*
X205000000Y-130075000D01*
X203900000Y-130075000D01*
X203900000Y-129275000D01*
G37*
G36*
X206550000Y-129275000D02*
G01*
X207650000Y-129275000D01*
X207650000Y-130075000D01*
X206550000Y-130075000D01*
X206550000Y-129275000D01*
G37*
G36*
X209200000Y-129275000D02*
G01*
X210300000Y-129275000D01*
X210300000Y-130075000D01*
X209200000Y-130075000D01*
X209200000Y-129275000D01*
G37*
%TO.C,J8*%
G36*
X190800000Y-120475000D02*
G01*
X190000000Y-120475000D01*
X190000000Y-121575000D01*
X190800000Y-121575000D01*
X190800000Y-120475000D01*
G37*
G36*
X190800000Y-123125000D02*
G01*
X190000000Y-123125000D01*
X190000000Y-124225000D01*
X190800000Y-124225000D01*
X190800000Y-123125000D01*
G37*
G36*
X190800000Y-125775000D02*
G01*
X190000000Y-125775000D01*
X190000000Y-126875000D01*
X190800000Y-126875000D01*
X190800000Y-125775000D01*
G37*
%TO.C,J9*%
G36*
X204700000Y-117275000D02*
G01*
X205800000Y-117275000D01*
X205800000Y-118075000D01*
X204700000Y-118075000D01*
X204700000Y-117275000D01*
G37*
G36*
X207350000Y-117275000D02*
G01*
X208450000Y-117275000D01*
X208450000Y-118075000D01*
X207350000Y-118075000D01*
X207350000Y-117275000D01*
G37*
G36*
X210000000Y-117275000D02*
G01*
X211100000Y-117275000D01*
X211100000Y-118075000D01*
X210000000Y-118075000D01*
X210000000Y-117275000D01*
G37*
%TD*%
D10*
%TO.C,R1*%
X213775000Y-127453355D03*
X215425000Y-127453355D03*
%TD*%
D11*
%TO.C,R22*%
X200950000Y-35025000D03*
X199300000Y-35025000D03*
%TD*%
D12*
%TO.C,D14*%
X218700000Y-34875000D03*
X216600000Y-34875000D03*
%TD*%
D13*
%TO.C,C24*%
X211510000Y-125175000D03*
X210550000Y-125175000D03*
%TD*%
D14*
%TO.C,C3*%
X214400000Y-123795000D03*
X214400000Y-124755000D03*
%TD*%
D15*
%TO.C,R13*%
X224700000Y-50475000D03*
X224700000Y-52125000D03*
%TD*%
D13*
%TO.C,C21*%
X204350000Y-125175000D03*
X203390000Y-125175000D03*
%TD*%
D16*
%TO.C,L1*%
X219300000Y-120037500D03*
X219300000Y-124312500D03*
%TD*%
D17*
%TO.C,U2*%
X212837500Y-123725000D03*
X212837500Y-122775000D03*
X212837500Y-121825000D03*
X210562500Y-121825000D03*
X210562500Y-123725000D03*
%TD*%
D14*
%TO.C,C4*%
X207200000Y-123795000D03*
X207200000Y-124755000D03*
%TD*%
D15*
%TO.C,R14*%
X222900000Y-50475000D03*
X222900000Y-52125000D03*
%TD*%
D18*
%TO.C,D8*%
X236250000Y-51975000D03*
X234150000Y-51975000D03*
%TD*%
D19*
%TO.C,C14*%
X227150000Y-45550000D03*
X227150000Y-47450000D03*
%TD*%
D15*
%TO.C,R8*%
X211650000Y-28450000D03*
X211650000Y-30100000D03*
%TD*%
D11*
%TO.C,R3*%
X205025000Y-120075000D03*
X203375000Y-120075000D03*
%TD*%
%TO.C,R24*%
X197750000Y-35025000D03*
X196100000Y-35025000D03*
%TD*%
D20*
%TO.C,U4*%
X235380000Y-84887500D03*
X236620000Y-84887500D03*
X235380000Y-84112500D03*
X236620000Y-84112500D03*
D21*
X235000000Y-86050000D03*
X235500000Y-86050000D03*
X236000000Y-86050000D03*
X236500000Y-86050000D03*
X237000000Y-86050000D03*
X237000000Y-82950000D03*
X236500000Y-82950000D03*
X236000000Y-82950000D03*
X235500000Y-82950000D03*
X235000000Y-82950000D03*
%TD*%
D15*
%TO.C,R10*%
X236300000Y-48475000D03*
X236300000Y-50125000D03*
%TD*%
D11*
%TO.C,R9*%
X233225000Y-82200000D03*
X231575000Y-82200000D03*
%TD*%
D17*
%TO.C,U1*%
X205637500Y-123725000D03*
X205637500Y-122775000D03*
X205637500Y-121825000D03*
X203362500Y-121825000D03*
X203362500Y-123725000D03*
%TD*%
D11*
%TO.C,R5*%
X200400000Y-122375000D03*
X198750000Y-122375000D03*
%TD*%
D22*
%TO.C,J4*%
X224109483Y-32535000D03*
X223609483Y-32535000D03*
X223109483Y-32535000D03*
X222609483Y-32535000D03*
X222109483Y-32535000D03*
X221609483Y-32535000D03*
X220609483Y-32535000D03*
X220109483Y-32535000D03*
X219609483Y-32535000D03*
X219109483Y-32535000D03*
X218609483Y-32535000D03*
X218109483Y-32535000D03*
D23*
X218009483Y-31235000D03*
D22*
X218859483Y-31235000D03*
X219359483Y-31235000D03*
X219859483Y-31235000D03*
X220359483Y-31235000D03*
X220859483Y-31235000D03*
X221359483Y-31235000D03*
X221859483Y-31235000D03*
X222359483Y-31235000D03*
X222859483Y-31235000D03*
X223359483Y-31235000D03*
D23*
X224209483Y-31235000D03*
%TD*%
D24*
%TO.C,R12*%
X234600000Y-50125000D03*
X234600000Y-48475000D03*
%TD*%
D25*
%TO.C,Q1*%
X232300000Y-47500000D03*
D26*
X230800000Y-47587500D03*
D25*
X229300000Y-47500000D03*
%TD*%
D11*
%TO.C,R6*%
X208925000Y-120075000D03*
X207275000Y-120075000D03*
%TD*%
%TO.C,R7*%
X218425000Y-127453355D03*
X216775000Y-127453355D03*
%TD*%
D27*
%TO.C,U8*%
X197275000Y-29470000D03*
X197275000Y-30740000D03*
X197275000Y-32010000D03*
X197275000Y-33280000D03*
X202225000Y-33280000D03*
X202225000Y-32010000D03*
X202225000Y-30740000D03*
X202225000Y-29470000D03*
%TD*%
D28*
%TO.C,C9*%
X232200000Y-85850000D03*
X232200000Y-83950000D03*
%TD*%
D29*
%TO.C,F2*%
X231000000Y-42775000D03*
X231000000Y-45575000D03*
%TD*%
D30*
%TO.C,C1*%
X198920000Y-127453355D03*
X199880000Y-127453355D03*
%TD*%
D31*
%TO.C,C22*%
X207200000Y-122755000D03*
X207200000Y-121795000D03*
%TD*%
D32*
%TO.C,D2*%
X194600000Y-29625000D03*
X194600000Y-33125000D03*
%TD*%
D29*
%TO.C,F1*%
X234600000Y-42775000D03*
X234600000Y-45575000D03*
%TD*%
D24*
%TO.C,R21*%
X208125000Y-30125000D03*
X208125000Y-28475000D03*
%TD*%
D10*
%TO.C,R19*%
X204250000Y-31725000D03*
X205900000Y-31725000D03*
%TD*%
%TO.C,R26*%
X200125000Y-119175000D03*
X201775000Y-119175000D03*
%TD*%
D33*
%TO.C,D7*%
X238000000Y-50325000D03*
X238000000Y-48225000D03*
%TD*%
D11*
%TO.C,R4*%
X212125000Y-120075000D03*
X210475000Y-120075000D03*
%TD*%
D10*
%TO.C,R18*%
X204250000Y-33275000D03*
X205900000Y-33275000D03*
%TD*%
D11*
%TO.C,R23*%
X200650000Y-27625000D03*
X199000000Y-27625000D03*
%TD*%
D34*
%TO.C,U6*%
X224795000Y-46540000D03*
X223605000Y-46540000D03*
X224795000Y-47360000D03*
X223605000Y-47360000D03*
D35*
X225200000Y-45500000D03*
X224700000Y-45500000D03*
X224200000Y-45500000D03*
X223700000Y-45500000D03*
X223200000Y-45500000D03*
X223200000Y-48400000D03*
X223700000Y-48400000D03*
X224200000Y-48400000D03*
X224700000Y-48400000D03*
X225200000Y-48400000D03*
%TD*%
D11*
%TO.C,R15*%
X200400000Y-120775000D03*
X198750000Y-120775000D03*
%TD*%
D36*
%TO.C,R2*%
X199587500Y-125689470D03*
X200412500Y-124260530D03*
%TD*%
D31*
%TO.C,C25*%
X214400000Y-122755000D03*
X214400000Y-121795000D03*
%TD*%
M02*
