<?xml version="1.0" encoding="UTF-8" standalone="no"?>
<!-- Created with Inkscape (http://www.inkscape.org/) -->

<svg
   width="60mm"
   height="30mm"
   viewBox="0 0 60 30"
   version="1.1"
   id="svg8"
   inkscape:version="1.2.2 (b0a8486541, 2022-12-01)"
   sodipodi:docname="ce-label.svg"
   xml:space="preserve"
   xmlns:inkscape="http://www.inkscape.org/namespaces/inkscape"
   xmlns:sodipodi="http://sodipodi.sourceforge.net/DTD/sodipodi-0.dtd"
   xmlns="http://www.w3.org/2000/svg"
   xmlns:svg="http://www.w3.org/2000/svg"
   xmlns:rdf="http://www.w3.org/1999/02/22-rdf-syntax-ns#"
   xmlns:cc="http://creativecommons.org/ns#"
   xmlns:dc="http://purl.org/dc/elements/1.1/"><defs
     id="defs2"><rect
       x="7.4124146"
       y="58.188248"
       width="69.616219"
       height="25.487333"
       id="rect1104" /><rect
       x="7.0842199"
       y="36.48988"
       width="49.113911"
       height="13.837814"
       id="rect1098" /></defs><sodipodi:namedview
     id="base"
     pagecolor="#858585"
     bordercolor="#666666"
     borderopacity="1.0"
     inkscape:pageopacity="1"
     inkscape:pageshadow="2"
     inkscape:zoom="2.8"
     inkscape:cx="-39.821429"
     inkscape:cy="126.96429"
     inkscape:document-units="mm"
     inkscape:current-layer="layer1"
     showgrid="false"
     inkscape:window-width="1920"
     inkscape:window-height="1119"
     inkscape:window-x="1920"
     inkscape:window-y="44"
     inkscape:window-maximized="1"
     inkscape:showpageshadow="2"
     inkscape:pagecheckerboard="0"
     inkscape:deskcolor="#d1d1d1" /><metadata
     id="metadata5"><rdf:RDF><cc:Work
         rdf:about=""><dc:format>image/svg+xml</dc:format><dc:type
           rdf:resource="http://purl.org/dc/dcmitype/StillImage" /></cc:Work></rdf:RDF></metadata><g
     inkscape:label="Layer 1"
     inkscape:groupmode="layer"
     id="layer1"
     transform="translate(0,-260)"><flowRoot
       xml:space="preserve"
       id="flowRoot18"
       style="font-style:normal;font-variant:normal;font-weight:normal;font-stretch:normal;font-size:40px;line-height:1.25;font-family:'Futura URW Heavy';-inkscape-font-specification:'Futura URW Heavy, ';letter-spacing:0px;word-spacing:0px;fill:#52c1ff;fill-opacity:1;stroke:none"
       transform="matrix(0.08900318,0,0,0.08900318,-52.13539,249.52218)"
       inkscape:export-xdpi="58.860001"
       inkscape:export-ydpi="58.860001"><flowRegion
         id="flowRegion20"
         style="font-style:normal;font-variant:normal;font-weight:normal;font-stretch:normal;font-family:'Futura URW Heavy';-inkscape-font-specification:'Futura URW Heavy, ';fill:#52c1ff;fill-opacity:1"><rect
           id="rect22"
           width="697.51031"
           height="221.72849"
           x="46.467018"
           y="298.2352"
           style="font-style:normal;font-variant:normal;font-weight:normal;font-stretch:normal;font-family:'Futura URW Heavy';-inkscape-font-specification:'Futura URW Heavy, ';fill:#52c1ff;fill-opacity:1" /></flowRegion><flowPara
         id="flowPara24" /></flowRoot><flowRoot
       transform="matrix(0.08900318,0,0,0.08900318,7.3698596,278.07384)"
       xml:space="preserve"
       id="flowRoot10-36-5-1-9-6"
       style="font-style:normal;font-weight:normal;font-size:31.7092px;line-height:1.25;font-family:sans-serif;letter-spacing:0px;word-spacing:0px;fill:#52c1ff;fill-opacity:1;stroke:none"
       inkscape:export-xdpi="58.860001"
       inkscape:export-ydpi="58.860001"><flowRegion
         id="flowRegion12-0-6-2-3-2"
         style="font-size:31.7092px;fill:#52c1ff;fill-opacity:1"><rect
           id="rect14-6-2-7-6-6"
           width="472.12289"
           height="52.21859"
           x="86.368042"
           y="148.73264"
           style="font-size:31.70923042px;fill:#52c1ff;fill-opacity:1" /></flowRegion><flowPara
         id="flowPara16-2-9-0-0-1"
         style="font-style:normal;font-variant:normal;font-weight:900;font-stretch:normal;font-size:31.7092px;font-family:Futura-Heavy;-inkscape-font-specification:'Futura-Heavy Heavy Italic';fill:#000000;fill-opacity:1" /></flowRoot><flowRoot
       xml:space="preserve"
       id="flowRoot1200"
       style="font-style:normal;font-weight:normal;font-size:8px;line-height:1.25;font-family:sans-serif;letter-spacing:0px;word-spacing:0px;fill:#000000;fill-opacity:1;stroke:none"
       transform="matrix(0.26458333,0,0,0.26458333,0,261.88332)"><flowRegion
         id="flowRegion1202"><rect
           id="rect1204"
           width="38.385796"
           height="38.890873"
           x="586.89862"
           y="53.508656" /></flowRegion><flowPara
         id="flowPara1206" /></flowRoot><rect
       style="fill:#000000;fill-opacity:1;stroke:#000000;stroke-width:0.217951;stroke-linecap:round;stroke-linejoin:miter;stroke-miterlimit:0;stroke-dasharray:none;paint-order:stroke markers fill;stop-color:#000000"
       id="rect17853"
       width="69.059425"
       height="39.423763"
       x="-4.6981297"
       y="255.41919"
       rx="0.37166601"
       ry="0.35502556" /><g
       style="clip-rule:evenodd;fill:#ffffff;fill-opacity:1;fill-rule:evenodd;stroke:none;stroke-opacity:1"
       id="g884"
       transform="matrix(0.03645297,0,0,0.03645297,1.8207733,280.53598)"><g
         id="g1467"
         transform="matrix(1.1366794,0,0,1.1366794,-5.8576901,-35.146134)"
         style="fill:#ffffff;fill-opacity:1;stroke:none;stroke-opacity:1"><path
           style="fill:#ffffff;fill-opacity:1;stroke:none;stroke-opacity:1"
           inkscape:connector-curvature="0"
           d="M 110,199.49874 A 100,100 0 0 1 100,200 100,100 0 0 1 100,0 100,100 0 0 1 110,0.501256 v 30 A 70,70 0 0 0 100,30 a 70,70 0 0 0 0,140 70,70 0 0 0 10,-0.50126 z"
           id="path870" /><path
           style="fill:#ffffff;fill-opacity:1;stroke:none;stroke-opacity:1"
           inkscape:connector-curvature="0"
           d="M 280,199.49874 A 100,100 0 0 1 270,200 100,100 0 0 1 270,0 100,100 0 0 1 280,0.501256 v 30 A 70,70 0 0 0 270,30 70,70 0 0 0 201.62028,85 H 260 v 30 H 201.62028 A 70,70 0 0 0 270,170 a 70,70 0 0 0 10,-0.50126 z"
           id="path872" /></g></g><path
       id="path1283"
       d="m 17.776187,279.92757 h -0.486016 v 0.0764 h 0.486016 z m -1.388684,0.2372 c -0.0752,0.041 -0.133644,0.0908 -0.165917,0.15163 h 0.165917 z m 2.523342,0.72708 -0.183094,0.1865 -0.0089,0.0948 h 0.219755 v -0.28135 z m -1.652502,1.49019 -0.946036,-0.99796 0.155085,1.80283 z m 0.187121,0.002 0.904418,0.95249 0.187692,-2.01396 h -0.01851 v -0.0322 z m -1.151419,-1.21264 1.058269,1.11455 0.625964,-0.63699 h -0.88252 v -0.33329 h 1.020677 v 0.19269 l 0.402628,-0.4097 v -0.35711 h 0.07266 l 0.02348,-0.25205 h -2.379817 z m 2.555032,2.88818 c 0.0044,0.0259 0.0067,0.0528 0.0067,0.08 0,0.26509 -0.214881,0.47993 -0.479947,0.47993 -0.184066,0 -0.343941,-0.10363 -0.424457,-0.25568 h -1.173728 v 0.25071 h -0.308796 v -0.25134 c -0.03616,-0.004 -0.07085,-0.0395 -0.07394,-0.0755 l -0.06593,-0.76635 -1.635853,1.6663 -0.09779,-0.0961 1.718294,-1.74856 -0.185232,-2.15338 -1.634671,-1.72436 v -0.18995 l 1.616438,1.70239 -0.04259,-0.49511 h -0.200744 v -0.16665 h 0.176623 c 0.0031,-0.009 0.0072,-0.0203 0.01236,-0.0326 0.05873,-0.13575 0.180024,-0.23279 0.331736,-0.30183 v -0.11008 h 0.284745 v 0.017 c 0.14835,-0.034 0.3052,-0.0527 0.4513,-0.062 v -0.066 h 0.819286 v 0.40968 h -0.819293 v -0.17306 c -0.14513,0.0114 -0.305324,0.0305 -0.451298,0.0654 v 0.25346 h 1.936397 c -0.07598,-0.1793 -0.371453,-0.26326 -0.665818,-0.30132 v -0.16969 c 0.295434,0.0366 0.599106,0.11924 0.751554,0.29772 0.04066,-0.0518 0.10387,-0.085 0.174832,-0.085 0.122714,0 0.222185,0.0994 0.222185,0.22218 0,0.12269 -0.09947,0.22217 -0.222185,0.22217 -0.03054,0 -0.05967,-0.006 -0.08617,-0.0173 l -0.02395,0.2569 h 0.1109 l 1.462812,-1.48858 v 0.18999 l -1.274806,1.299 h 0.02654 v 0.58103 h -0.379534 l -0.20266,2.17448 1.499125,1.57883 -0.09947,0.0944 z m -0.953285,0.08 c 0,-0.24603 0.185123,-0.44885 0.423679,-0.47671 l 0.01375,-0.14749 -0.981769,-1.03562 -0.868741,0.88489 0.07162,0.83254 h 1.344888 c -0.0023,-0.0187 -0.0034,-0.0382 -0.0034,-0.0577 z m 0.23035,0 c 0,0.13783 0.111752,0.2496 0.249612,0.2496 0.137852,0 0.249611,-0.11179 0.249611,-0.2496 0,-0.13786 -0.111761,-0.24962 -0.249611,-0.24962 -0.137866,0 -0.249612,0.1118 -0.249612,0.24962 z m 0.0875,0 c 0,-0.0897 0.07258,-0.16212 0.162112,-0.16212 0.08952,0 0.162112,0.0725 0.162112,0.16212 0,0.0896 -0.07258,0.16209 -0.162112,0.16209 -0.08953,0 -0.162112,-0.0726 -0.162112,-0.16209 z m -3.249498,2.22853 h 4.827985 v 1.17565 h -4.827986 z"
       inkscape:connector-curvature="0"
       style="fill:#ffffff;fill-opacity:1;stroke:none;stroke-width:0.0138866;stroke-opacity:1" /><g
       id="g1499"
       transform="translate(1.1919681,-7.7559211)"
       style="fill:#ffffff;fill-opacity:1;stroke:none;stroke-opacity:1"><g
         transform="translate(5.144264,1.5791949)"
         id="g1194"
         style="fill:#ffffff;fill-opacity:1;stroke:none;stroke-opacity:1"><flowRoot
           transform="matrix(0.08900318,0,0,0.08900318,7.5199562,274.37165)"
           xml:space="preserve"
           id="flowRoot10-36-5-1"
           style="font-style:normal;font-weight:normal;font-size:31.7092px;line-height:1.25;font-family:sans-serif;letter-spacing:0px;word-spacing:0px;fill:#ffffff;fill-opacity:1;stroke:none;stroke-opacity:1"
           inkscape:export-xdpi="58.860001"
           inkscape:export-ydpi="58.860001"><flowRegion
             id="flowRegion12-0-6-2"
             style="font-size:31.7092px;fill:#ffffff;fill-opacity:1;stroke:none;stroke-opacity:1"><rect
               id="rect14-6-2-7"
               width="249.32495"
               height="39.117523"
               x="86.368042"
               y="148.73264"
               style="font-size:31.7092px;fill:#ffffff;fill-opacity:1;stroke:none;stroke-opacity:1" /></flowRegion><flowPara
             id="flowPara16-2-9-0"
             style="font-style:normal;font-variant:normal;font-weight:normal;font-stretch:normal;font-size:31.7092px;font-family:'Futura URW Medium';-inkscape-font-specification:'Futura URW Medium, Normal';font-variant-ligatures:normal;font-variant-caps:normal;font-variant-numeric:normal;font-variant-east-asian:normal;fill:#ffffff;fill-opacity:1;stroke:none;stroke-opacity:1">blinkenlight.co.uk</flowPara></flowRoot><flowRoot
           transform="matrix(0.08900318,0,0,0.08900318,7.5086673,277.86463)"
           xml:space="preserve"
           id="flowRoot10-36-5-1-9"
           style="font-style:normal;font-weight:normal;font-size:31.7092px;line-height:1.25;font-family:sans-serif;letter-spacing:0px;word-spacing:0px;fill:#ffffff;fill-opacity:1;stroke:none;stroke-opacity:1"
           inkscape:export-xdpi="58.860001"
           inkscape:export-ydpi="58.860001"><flowRegion
             id="flowRegion12-0-6-2-3"
             style="font-size:31.7092px;fill:#ffffff;fill-opacity:1;stroke:none;stroke-opacity:1"><rect
               id="rect14-6-2-7-6"
               width="472.12289"
               height="52.21859"
               x="86.368042"
               y="148.73264"
               style="font-size:31.70923042px;fill:#ffffff;fill-opacity:1;stroke:none;stroke-opacity:1" /></flowRegion><flowPara
             id="flowPara16-2-9-0-0"
             style="font-style:normal;font-variant:normal;font-weight:normal;font-stretch:normal;font-size:31.7092px;font-family:'Futura URW Medium';-inkscape-font-specification:'Futura URW Medium, Normal';font-variant-ligatures:normal;font-variant-caps:normal;font-variant-numeric:normal;font-variant-east-asian:normal;fill:#ffffff;fill-opacity:1;stroke:none;stroke-opacity:1">Lytchett House, Poole, BH16 6FA</flowPara></flowRoot></g><g
         transform="translate(43.209269,12.222876)"
         id="g1463"
         style="fill:#ffffff;fill-opacity:1;stroke:none;stroke-opacity:1"><g
           id="g1367"
           transform="matrix(0.01936354,0,0,0.01936354,-14.860268,274.79792)"
           style="fill:#ffffff;fill-opacity:1;stroke:none;stroke-opacity:1"><rect
             id="rect1347"
             y="20"
             x="25"
             height="16"
             width="200"
             style="fill:#ffffff;fill-opacity:1;stroke:none;stroke-opacity:1" /><rect
             id="rect1349"
             y="52"
             x="25"
             height="16"
             width="40"
             style="fill:#ffffff;fill-opacity:1;stroke:none;stroke-opacity:1" /><rect
             id="rect1351"
             y="52"
             x="105"
             height="16"
             width="40"
             style="fill:#ffffff;fill-opacity:1;stroke:none;stroke-opacity:1" /><rect
             id="rect1353"
             y="52"
             x="185"
             height="16"
             width="40"
             style="fill:#ffffff;fill-opacity:1;stroke:none;stroke-opacity:1" /></g><flowRoot
           xml:space="preserve"
           id="flowRoot1208-8"
           style="font-style:normal;font-weight:normal;font-size:8px;line-height:1.25;font-family:sans-serif;letter-spacing:0px;word-spacing:0px;fill:#ffffff;fill-opacity:1;stroke:none;stroke-opacity:1"
           transform="matrix(0.26458333,0,0,0.26458333,-24.549595,259.38116)"><flowRegion
             id="flowRegion1210-7"
             style="fill:#ffffff;fill-opacity:1;stroke:none;stroke-opacity:1"><rect
               id="rect1212-9"
               width="29.367571"
               height="11.364521"
               x="6.5659914"
               y="56.034039"
               style="stroke:none;stroke-opacity:1;fill:#ffffff;fill-opacity:1" /></flowRegion><flowPara
             style="font-style:normal;font-variant:normal;font-weight:normal;font-stretch:normal;font-size:6.66667px;font-family:'Futura URW Medium';-inkscape-font-specification:'Futura URW Medium, Normal';font-variant-ligatures:normal;font-variant-caps:normal;font-variant-numeric:normal;font-variant-east-asian:normal;fill:#ffffff;fill-opacity:1;stroke:none;stroke-opacity:1"
             id="flowPara1228-7">INPUT: 9V </flowPara></flowRoot><flowRoot
           xml:space="preserve"
           id="flowRoot1208-8-9"
           style="font-style:normal;font-weight:normal;font-size:8px;line-height:1.25;font-family:sans-serif;letter-spacing:0px;word-spacing:0px;fill:#ffffff;fill-opacity:1;stroke:none;stroke-opacity:1"
           transform="matrix(0.26458333,0,0,0.26458333,-11.514793,259.38116)"><flowRegion
             id="flowRegion1210-7-2"
             style="fill:#ffffff;fill-opacity:1;stroke:none;stroke-opacity:1"><rect
               id="rect1212-9-2"
               width="30.630262"
               height="11.111983"
               x="6.5659914"
               y="56.034039"
               style="stroke:none;stroke-opacity:1;fill:#ffffff;fill-opacity:1" /></flowRegion><flowPara
             style="font-style:normal;font-variant:normal;font-weight:normal;font-stretch:normal;font-size:6.66667px;font-family:'Futura URW Medium';-inkscape-font-specification:'Futura URW Medium, Normal';font-variant-ligatures:normal;font-variant-caps:normal;font-variant-numeric:normal;font-variant-east-asian:normal;fill:#ffffff;fill-opacity:1;stroke:none;stroke-opacity:1"
             id="flowPara1228-7-8">MAX 1A</flowPara></flowRoot></g></g><text
       xml:space="preserve"
       transform="matrix(0.26458333,0,0,0.26458333,0,258.30717)"
       id="text1096"
       style="font-size:12px;line-height:1.25;font-family:Futura;-inkscape-font-specification:Futura;letter-spacing:0px;word-spacing:0px;white-space:pre;shape-inside:url(#rect1098);display:inline;fill:#ffffff;fill-opacity:1;stroke:none;stroke-opacity:1"><tspan
         x="7.0839844"
         y="47.113281"
         id="tspan27275"><tspan
           style="font-size:10.6667px;font-family:'Futura URW Medium';-inkscape-font-specification:'Futura URW Medium, Normal'"
           id="tspan27273">Version</tspan></tspan></text><text
       xml:space="preserve"
       transform="matrix(0.26458333,0,0,0.26458333,0,258.30717)"
       id="text1102"
       style="font-size:12px;line-height:1.25;font-family:Futura;-inkscape-font-specification:Futura;letter-spacing:0px;word-spacing:0px;white-space:pre;shape-inside:url(#rect1104);display:inline;fill:#ffffff;fill-opacity:1;stroke:none;stroke-opacity:1"><tspan
         x="7.4121094"
         y="68.810547"
         id="tspan27279"><tspan
           style="font-size:10.6667px;font-family:'Futura URW Medium';-inkscape-font-specification:'Futura URW Medium, Normal'"
           id="tspan27277">Serial No.</tspan></tspan></text><g
       id="g3337"
       transform="matrix(0.16554839,0,0,0.16554839,44.788844,242.11946)"
       style="fill:#ffffff;fill-opacity:1;stroke:none;stroke-opacity:1"><g
         style="fill:#ffffff;fill-opacity:1;stroke:none;stroke-opacity:1"
         id="g3318"
         transform="matrix(0.264583,0,0,0.264583,41.42709,216.96871)"><path
           d="m 132.50033,149.72364 h -2.91898 c -0.20151,0 -0.36488,-0.16336 -0.36488,-0.36487 v -2.91899 c 0,-0.20151 0.16337,-0.36487 0.36488,-0.36487 h 2.91898 c 0.20151,0 0.36487,0.16336 0.36487,0.36487 v 2.91899 c 0,0.20151 -0.16336,0.36487 -0.36487,0.36487 z m -7.29746,0 h -6.56771 c -0.20151,0 -0.36487,-0.16336 -0.36487,-0.36487 v -2.91899 c 0,-0.20151 0.16336,-0.36487 0.36487,-0.36487 h 6.56771 c 0.20151,0 0.36487,0.16336 0.36487,0.36487 v 2.91899 c 0,0.20151 -0.16336,0.36487 -0.36487,0.36487 z m -10.94619,0 h -10.21644 c -0.20151,0 -0.36487,-0.16336 -0.36487,-0.36487 v -2.91899 c 0,-0.20151 -0.16336,-0.36487 -0.36487,-0.36487 h -2.91899 c -0.20151,0 -0.36487,-0.16336 -0.36487,-0.36487 v -2.91899 c 0,-0.20151 0.16336,-0.36487 0.36487,-0.36487 h 13.86517 c 0.20151,0 0.36488,0.16336 0.36488,0.36487 v 6.56772 c 0,0.20151 -0.16337,0.36487 -0.36488,0.36487 z m -18.243647,0 H 93.09405 c -0.20151,0 -0.364873,-0.16336 -0.364873,-0.36487 v -10.21644 c 0,-0.20151 0.163363,-0.36488 0.364873,-0.36488 h 2.918983 c 0.20151,0 0.364873,0.16337 0.364873,0.36488 v 10.21644 c 0,0.20151 -0.163363,0.36487 -0.364873,0.36487 z m -18.243646,0 h -2.918983 c -0.201514,0 -0.364873,-0.16336 -0.364873,-0.36487 v -2.91899 c 0,-0.20151 -0.163359,-0.36487 -0.364873,-0.36487 h -6.567712 c -0.201514,0 -0.364873,-0.16336 -0.364873,-0.36487 v -2.91899 c 0,-0.20151 0.163359,-0.36487 0.364873,-0.36487 h 17.5139 c 0.201514,0 0.364873,0.16336 0.364873,0.36487 v 2.91899 c 0,0.20151 -0.163359,0.36487 -0.364873,0.36487 h -6.567713 c -0.201514,0 -0.364873,0.16336 -0.364873,0.36487 v 2.91899 c 0,0.20151 -0.163359,0.36487 -0.364873,0.36487 z m -10.946187,0 h -6.567712 c -0.201514,0 -0.364873,-0.16336 -0.364873,-0.36487 v -2.91899 c 0,-0.20151 0.163359,-0.36487 0.364873,-0.36487 H 66.8232 c 0.201514,0 0.364873,0.16336 0.364873,0.36487 v 2.91899 c 0,0.20151 -0.163359,0.36487 -0.364873,0.36487 z m -10.946187,0 h -2.918984 c -0.201514,0 -0.364873,-0.16336 -0.364873,-0.36487 v -10.21644 c 0,-0.20151 0.163359,-0.36488 0.364873,-0.36488 h 2.918984 c 0.201513,0 0.364873,0.16337 0.364873,0.36488 v 10.21644 c 0,0.20151 -0.16336,0.36487 -0.364873,0.36487 z m -7.297459,0 h -2.918983 c -0.201514,0 -0.364873,-0.16336 -0.364873,-0.36487 v -2.91899 c 0,-0.20151 0.163359,-0.36487 0.364873,-0.36487 h 2.918983 c 0.201514,0 0.364873,0.16336 0.364873,0.36487 v 2.91899 c 0,0.20151 -0.163359,0.36487 -0.364873,0.36487 z m -7.297458,0 H 16.470738 c -0.201514,0 -0.364873,-0.16336 -0.364873,-0.36487 v -24.81136 c 0,-0.20151 0.163359,-0.36487 0.364873,-0.36487 h 24.811358 c 0.201514,0 0.364873,0.16336 0.364873,0.36487 v 24.81136 c 0,0.20151 -0.163359,0.36487 -0.364873,0.36487 z m -3.283856,-4.0136 v -17.5139 c 0,-0.20151 -0.163359,-0.36487 -0.364873,-0.36487 h -17.5139 c -0.201514,0 -0.364873,0.16336 -0.364873,0.36487 v 17.5139 c 0,0.20151 0.163359,0.36487 0.364873,0.36487 h 17.5139 c 0.201514,0 0.364873,-0.16336 0.364873,-0.36487 z m 98.15082,-3.28386 h -2.91898 c -0.20151,0 -0.36488,-0.16336 -0.36488,-0.36487 v -2.91898 c 0,-0.20151 0.16337,-0.36488 0.36488,-0.36488 h 2.91898 c 0.20151,0 0.36487,0.16337 0.36487,0.36488 v 2.91898 c 0,0.20151 -0.16336,0.36487 -0.36487,0.36487 z m -7.29746,0 h -10.21644 c -0.20151,0 -0.36487,-0.16336 -0.36487,-0.36487 v -6.56771 c 0,-0.20151 -0.16337,-0.36488 -0.36488,-0.36488 h -2.91898 c -0.20151,0 -0.36487,0.16337 -0.36487,0.36488 v 2.91898 c 0,0.20151 -0.16337,0.36487 -0.36488,0.36487 h -2.91898 c -0.20151,0 -0.36487,-0.16336 -0.36487,-0.36487 v -2.91898 c 0,-0.20151 -0.16337,-0.36488 -0.36488,-0.36488 h -6.56771 c -0.20151,0 -0.36487,-0.16336 -0.36487,-0.36487 v -17.5139 c 0,-0.20151 0.16336,-0.36487 0.36487,-0.36487 h 13.86517 c 0.20151,0 0.36488,-0.16336 0.36488,-0.36488 v -2.91898 c 0,-0.20151 0.16336,-0.36487 0.36487,-0.36487 h 2.91898 c 0.20151,0 0.36487,-0.16336 0.36487,-0.36487 v -6.56772 c 0,-0.20151 0.16337,-0.36487 0.36488,-0.36487 h 2.91898 c 0.20151,0 0.36487,0.16336 0.36487,0.36487 v 2.91899 c 0,0.20151 0.16337,0.36487 0.36488,0.36487 h 2.91898 c 0.20151,0 0.36487,0.16336 0.36487,0.36487 v 2.91899 c 0,0.20151 -0.16336,0.36487 -0.36487,0.36487 h -2.91898 c -0.20151,0 -0.36488,0.16336 -0.36488,0.36487 v 2.91898 c 0,0.20152 -0.16336,0.36488 -0.36487,0.36488 h -2.91898 c -0.20151,0 -0.36488,0.16336 -0.36488,0.36487 v 2.91898 c 0,0.20151 0.16337,0.36488 0.36488,0.36488 h 2.91898 c 0.20151,0 0.36487,0.16336 0.36487,0.36487 v 2.91898 c 0,0.20151 0.16337,0.36488 0.36488,0.36488 h 2.91898 c 0.20151,0 0.36487,-0.16337 0.36487,-0.36488 v -2.91898 c 0,-0.20151 0.16337,-0.36487 0.36488,-0.36487 h 6.56771 c 0.20151,0 0.36487,0.16336 0.36487,0.36487 v 2.91898 c 0,0.20151 -0.16336,0.36488 -0.36487,0.36488 h -2.91898 c -0.20151,0 -0.36488,0.16336 -0.36488,0.36487 v 2.91898 c 0,0.20151 -0.16336,0.36488 -0.36487,0.36488 h -10.21644 c -0.20151,0 -0.36488,0.16336 -0.36488,0.36487 v 2.91898 c 0,0.20151 0.16337,0.36487 0.36488,0.36487 h 2.91898 c 0.20151,0 0.36487,0.16337 0.36487,0.36488 v 2.91898 c 0,0.20151 -0.16336,0.36487 -0.36487,0.36487 h -2.91898 c -0.20151,0 -0.36488,0.16337 -0.36488,0.36488 v 2.91898 c 0,0.20151 0.16337,0.36487 0.36488,0.36487 h 2.91898 c 0.20151,0 0.36487,-0.16336 0.36487,-0.36487 v -2.91898 c 0,-0.20151 0.16337,-0.36488 0.36488,-0.36488 h 6.56771 c 0.20151,0 0.36487,0.16337 0.36487,0.36488 v 2.91898 c 0,0.20151 -0.16336,0.36487 -0.36487,0.36487 h -2.91898 c -0.20151,0 -0.36488,0.16337 -0.36488,0.36488 v 2.91898 c 0,0.20151 -0.16336,0.36487 -0.36487,0.36487 z m -65.677129,0 h -2.918983 c -0.201514,0 -0.364873,-0.16336 -0.364873,-0.36487 v -2.91898 c 0,-0.20151 -0.163359,-0.36488 -0.364873,-0.36488 h -2.918984 c -0.201513,0 -0.364872,-0.16336 -0.364872,-0.36487 v -2.91898 c 0,-0.20151 0.163359,-0.36488 0.364872,-0.36488 h 6.567713 c 0.201514,0 0.364873,-0.16336 0.364873,-0.36487 v -6.56771 c 0,-0.20151 -0.163359,-0.36487 -0.364873,-0.36487 h -2.918983 c -0.201514,0 -0.364873,0.16336 -0.364873,0.36487 v 2.91898 c 0,0.20151 -0.163359,0.36487 -0.364873,0.36487 h -2.918984 c -0.201513,0 -0.364872,-0.16336 -0.364872,-0.36487 v -6.56771 c 0,-0.20151 0.163359,-0.36487 0.364872,-0.36487 h 6.567713 c 0.201514,0 0.364873,-0.16337 0.364873,-0.36488 v -2.91898 c 0,-0.20151 0.163359,-0.36487 0.364873,-0.36487 H 66.8232 c 0.201514,0 0.364873,0.16336 0.364873,0.36487 v 2.91898 c 0,0.20151 0.163359,0.36488 0.364873,0.36488 h 2.918983 c 0.201514,0 0.364873,0.16336 0.364873,0.36487 v 6.56771 c 0,0.20151 0.163359,0.36487 0.364873,0.36487 h 2.918983 c 0.201514,0 0.364873,-0.16336 0.364873,-0.36487 v -10.21644 c 0,-0.20151 -0.163359,-0.36487 -0.364873,-0.36487 h -2.918983 c -0.201514,0 -0.364873,-0.16337 -0.364873,-0.36488 v -2.91898 c 0,-0.20151 0.163359,-0.36487 0.364873,-0.36487 h 2.918983 c 0.201514,0 0.364873,-0.16336 0.364873,-0.36488 v -2.91898 c 0,-0.20151 0.163359,-0.36487 0.364873,-0.36487 h 2.918983 c 0.201514,0 0.364873,0.16336 0.364873,0.36487 v 2.91898 c 0,0.20152 0.163359,0.36488 0.364873,0.36488 h 2.918984 c 0.201513,0 0.364872,0.16336 0.364872,0.36487 v 2.91898 c 0,0.20151 -0.163359,0.36488 -0.364872,0.36488 h -2.918984 c -0.201514,0 -0.364873,0.16336 -0.364873,0.36487 v 13.86517 c 0,0.20151 -0.163359,0.36487 -0.364873,0.36487 h -2.918983 c -0.201514,0 -0.364873,0.16337 -0.364873,0.36488 v 2.91898 c 0,0.20151 -0.163359,0.36487 -0.364873,0.36487 h -2.918983 c -0.201514,0 -0.364873,-0.16336 -0.364873,-0.36487 v -2.91898 c 0,-0.20151 -0.163359,-0.36488 -0.364873,-0.36488 h -2.918983 c -0.201514,0 -0.364873,0.16337 -0.364873,0.36488 v 2.91898 c 0,0.20151 -0.163359,0.36487 -0.364873,0.36487 h -2.918983 c -0.201514,0 -0.364873,0.16337 -0.364873,0.36488 v 2.91898 c 0,0.20151 -0.163359,0.36487 -0.364873,0.36487 z m -29.189833,0 H 23.768196 c -0.201514,0 -0.364873,-0.16336 -0.364873,-0.36487 v -10.21644 c 0,-0.20151 0.163359,-0.36488 0.364873,-0.36488 h 10.216442 c 0.201514,0 0.364873,0.16337 0.364873,0.36488 v 10.21644 c 0,0.20151 -0.163359,0.36487 -0.364873,0.36487 z m 69.325862,-3.64873 h -2.91899 c -0.20151,0 -0.36487,-0.16336 -0.36487,-0.36487 v -2.91898 c 0,-0.20151 0.16336,-0.36488 0.36487,-0.36488 h 2.91899 c 0.20151,0 0.36487,0.16337 0.36487,0.36488 v 2.91898 c 0,0.20151 -0.16336,0.36487 -0.36487,0.36487 z m -10.946196,0 h -6.567712 c -0.201514,0 -0.364873,-0.16336 -0.364873,-0.36487 v -2.91898 c 0,-0.20151 0.163359,-0.36488 0.364873,-0.36488 h 6.567712 c 0.201514,0 0.364873,0.16337 0.364873,0.36488 v 2.91898 c 0,0.20151 -0.163359,0.36487 -0.364873,0.36487 z m -40.136021,0 h -6.567712 c -0.201514,0 -0.364873,-0.16336 -0.364873,-0.36487 v -2.91898 c 0,-0.20151 0.163359,-0.36488 0.364873,-0.36488 h 2.918983 c 0.201514,0 0.364873,-0.16336 0.364873,-0.36487 v -2.91898 c 0,-0.20151 -0.163359,-0.36488 -0.364873,-0.36488 h -2.918983 c -0.201514,0 -0.364873,-0.16336 -0.364873,-0.36487 v -2.91898 c 0,-0.20151 0.163359,-0.36487 0.364873,-0.36487 h 6.567712 c 0.201514,0 0.364873,0.16336 0.364873,0.36487 v 2.91898 c 0,0.20151 0.163359,0.36487 0.364873,0.36487 h 2.918984 c 0.201513,0 0.364873,0.16337 0.364873,0.36488 v 2.91898 c 0,0.20151 -0.16336,0.36487 -0.364873,0.36487 h -2.918984 c -0.201514,0 -0.364873,0.16337 -0.364873,0.36488 v 2.91898 c 0,0.20151 -0.163359,0.36487 -0.364873,0.36487 z m 83.920777,-3.64873 h -2.91898 c -0.20151,0 -0.36488,-0.16336 -0.36488,-0.36487 v -2.91898 c 0,-0.20151 0.16337,-0.36488 0.36488,-0.36488 h 2.91898 c 0.20151,0 0.36487,0.16337 0.36487,0.36488 v 2.91898 c 0,0.20151 -0.16336,0.36487 -0.36487,0.36487 z m -36.487298,0 h -2.918983 c -0.20151,0 -0.364873,-0.16336 -0.364873,-0.36487 v -2.91898 c 0,-0.20151 0.163363,-0.36488 0.364873,-0.36488 h 2.918983 c 0.20151,0 0.364878,0.16337 0.364878,0.36488 v 2.91898 c 0,0.20151 -0.163368,0.36487 -0.364878,0.36487 z m 18.608528,-4.0136 v -10.21644 c 0,-0.20151 -0.16337,-0.36487 -0.36488,-0.36487 h -10.21644 c -0.20151,0 -0.36487,0.16336 -0.36487,0.36487 v 10.21644 c 0,0.20151 0.16336,0.36487 0.36487,0.36487 h 10.21644 c 0.20151,0 0.36488,-0.16336 0.36488,-0.36487 z m -25.905986,0.36487 h -6.567712 c -0.201514,0 -0.364873,-0.16336 -0.364873,-0.36487 v -2.91898 c 0,-0.20151 0.163359,-0.36487 0.364873,-0.36487 h 2.918983 c 0.201514,0 0.364873,-0.16337 0.364873,-0.36488 v -2.91898 c 0,-0.20151 0.163359,-0.36487 0.364873,-0.36487 h 6.567712 c 0.20151,0 0.364873,0.16336 0.364873,0.36487 v 2.91898 c 0,0.20151 -0.163363,0.36488 -0.364873,0.36488 H 93.09405 c -0.20151,0 -0.364873,0.16336 -0.364873,0.36487 v 2.91898 c 0,0.20151 -0.163359,0.36487 -0.364873,0.36487 z m 21.892376,-3.64872 h -2.91898 c -0.20151,0 -0.36487,-0.16337 -0.36487,-0.36488 v -2.91898 c 0,-0.20151 0.16336,-0.36487 0.36487,-0.36487 h 2.91898 c 0.20151,0 0.36488,0.16336 0.36488,0.36487 v 2.91898 c 0,0.20151 -0.16337,0.36488 -0.36488,0.36488 z m -14.594918,-3.64873 h -2.918983 c -0.20151,0 -0.364873,-0.16337 -0.364873,-0.36488 v -2.91898 c 0,-0.20151 0.163363,-0.36487 0.364873,-0.36487 h 2.918983 c 0.20151,0 0.364878,0.16336 0.364878,0.36487 v 2.91898 c 0,0.20151 -0.163368,0.36488 -0.364878,0.36488 z m -10.946187,0 h -2.918983 c -0.201514,0 -0.364873,-0.16337 -0.364873,-0.36488 v -6.56771 c 0,-0.20151 0.163359,-0.36487 0.364873,-0.36487 h 6.567712 c 0.201514,0 0.364873,-0.16336 0.364873,-0.36488 v -2.91898 c 0,-0.20151 -0.163359,-0.36487 -0.364873,-0.36487 h -2.918983 c -0.201514,0 -0.364873,-0.16336 -0.364873,-0.36487 v -2.91899 c 0,-0.20151 -0.163359,-0.36487 -0.364873,-0.36487 h -2.918983 c -0.201514,0 -0.364873,0.16336 -0.364873,0.36487 v 6.56771 c 0,0.20152 -0.163359,0.36488 -0.364873,0.36488 h -2.918984 c -0.201513,0 -0.364873,-0.16336 -0.364873,-0.36488 v -2.91898 c 0,-0.20151 -0.163359,-0.36487 -0.364872,-0.36487 h -2.918984 c -0.201514,0 -0.364873,-0.16336 -0.364873,-0.36487 v -2.91899 c 0,-0.20151 0.163359,-0.36487 0.364873,-0.36487 h 2.918984 c 0.201513,0 0.364872,-0.16336 0.364872,-0.36487 v -2.91899 c 0,-0.20151 -0.163359,-0.36487 -0.364872,-0.36487 h -2.918984 c -0.201514,0 -0.364873,0.16336 -0.364873,0.36487 v 2.91899 c 0,0.20151 -0.163359,0.36487 -0.364873,0.36487 h -2.918983 c -0.201514,0 -0.364873,0.16336 -0.364873,0.36487 v 2.91899 c 0,0.20151 -0.163359,0.36487 -0.364873,0.36487 h -2.918983 c -0.201514,0 -0.364873,-0.16336 -0.364873,-0.36487 v -2.91899 c 0,-0.20151 -0.163359,-0.36487 -0.364873,-0.36487 h -2.918983 c -0.201514,0 -0.364873,-0.16336 -0.364873,-0.36487 v -2.91899 c 0,-0.20151 -0.163359,-0.36487 -0.364873,-0.36487 h -6.567712 c -0.201514,0 -0.364873,0.16336 -0.364873,0.36487 v 2.91899 c 0,0.20151 -0.163359,0.36487 -0.364873,0.36487 h -2.918984 c -0.201513,0 -0.364872,-0.16336 -0.364872,-0.36487 v -2.91899 c 0,-0.20151 -0.16336,-0.36487 -0.364873,-0.36487 h -2.918984 c -0.201514,0 -0.364873,-0.16336 -0.364873,-0.36487 v -2.91899 c 0,-0.20151 -0.163359,-0.36487 -0.364873,-0.36487 H 49.3093 c -0.201514,0 -0.364873,-0.16336 -0.364873,-0.36487 v -2.918989 c 0,-0.201514 0.163359,-0.364873 0.364873,-0.364873 h 2.918983 c 0.201514,0 0.364873,-0.163359 0.364873,-0.364873 v -2.918983 c 0,-0.201514 0.163359,-0.364873 0.364873,-0.364873 h 2.918984 c 0.201513,0 0.364873,0.163359 0.364873,0.364873 v 2.918983 c 0,0.201514 0.163359,0.364873 0.364872,0.364873 h 2.918984 c 0.201514,0 0.364873,-0.163359 0.364873,-0.364873 v -2.918983 c 0,-0.201514 0.163359,-0.364873 0.364873,-0.364873 h 2.918983 c 0.201514,0 0.364873,0.163359 0.364873,0.364873 v 2.918983 c 0,0.201514 0.163359,0.364873 0.364873,0.364873 H 66.8232 c 0.201514,0 0.364873,0.163359 0.364873,0.364873 v 2.918989 c 0,0.20151 0.163359,0.36487 0.364873,0.36487 h 10.216441 c 0.201514,0 0.364873,-0.16336 0.364873,-0.36487 v -2.918989 c 0,-0.201514 0.163359,-0.364873 0.364873,-0.364873 h 2.918984 c 0.201513,0 0.364872,-0.163359 0.364872,-0.364873 v -2.918983 c 0,-0.201514 0.16336,-0.364873 0.364873,-0.364873 h 2.918984 c 0.201514,0 0.364873,0.163359 0.364873,0.364873 v 2.918983 c 0,0.201514 0.163359,0.364873 0.364873,0.364873 h 10.216441 c 0.20151,0 0.364873,0.163359 0.364873,0.364873 v 2.918989 c 0,0.20151 -0.163363,0.36487 -0.364873,0.36487 h -6.567712 c -0.201514,0 -0.364873,0.16336 -0.364873,0.36487 v 2.91899 c 0,0.20151 0.163359,0.36487 0.364873,0.36487 h 6.567712 c 0.20151,0 0.364873,-0.16336 0.364873,-0.36487 v -2.91899 c 0,-0.20151 0.163363,-0.36487 0.364873,-0.36487 h 2.918983 c 0.20151,0 0.364878,-0.16336 0.364878,-0.36487 v -2.918989 c 0,-0.201514 0.16336,-0.364873 0.36487,-0.364873 h 2.91899 c 0.20151,0 0.36487,-0.163359 0.36487,-0.364873 v -2.918983 c 0,-0.201514 -0.16336,-0.364873 -0.36487,-0.364873 h -2.91899 c -0.20151,0 -0.36487,-0.163359 -0.36487,-0.364873 v -2.918983 c 0,-0.201514 0.16336,-0.364873 0.36487,-0.364873 h 2.91899 c 0.20151,0 0.36487,-0.163359 0.36487,-0.364873 v -2.918983 c 0,-0.201514 -0.16336,-0.364873 -0.36487,-0.364873 h -2.91899 c -0.20151,0 -0.36487,-0.163359 -0.36487,-0.364873 v -6.567713 c 0,-0.201514 -0.163368,-0.364873 -0.364878,-0.364873 h -2.918983 c -0.20151,0 -0.364873,-0.163359 -0.364873,-0.364873 v -2.918983 c 0,-0.201514 0.163363,-0.364873 0.364873,-0.364873 h 2.918983 c 0.20151,0 0.364878,-0.163359 0.364878,-0.364873 v -2.918983 c 0,-0.201514 0.16336,-0.364873 0.36487,-0.364873 h 6.56772 c 0.20151,0 0.36487,-0.163359 0.36487,-0.364873 v -2.918983 c 0,-0.201514 -0.16336,-0.364873 -0.36487,-0.364873 h -2.91899 c -0.20151,0 -0.36487,-0.163359 -0.36487,-0.364873 V 62.51901 c 0,-0.201514 0.16336,-0.364873 0.36487,-0.364873 h 2.91899 c 0.20151,0 0.36487,-0.163359 0.36487,-0.364873 V 58.87028 c 0,-0.201513 0.16336,-0.364872 0.36487,-0.364872 h 2.91898 c 0.20151,0 0.36488,0.163359 0.36488,0.364872 v 2.918984 c 0,0.201514 0.16336,0.364873 0.36487,0.364873 h 2.91898 c 0.20151,0 0.36488,-0.163359 0.36488,-0.364873 V 58.87028 c 0,-0.201513 0.16336,-0.364872 0.36487,-0.364872 h 2.91898 c 0.20151,0 0.36488,0.163359 0.36488,0.364872 v 6.567713 c 0,0.201514 0.16336,0.364873 0.36487,0.364873 h 2.91898 c 0.20151,0 0.36487,0.163359 0.36487,0.364873 v 2.918983 c 0,0.201514 0.16337,0.364873 0.36488,0.364873 h 2.91898 c 0.20151,0 0.36487,0.163359 0.36487,0.364873 v 13.865171 c 0,0.201513 -0.16336,0.364873 -0.36487,0.364873 h -2.91898 c -0.20151,0 -0.36488,0.163359 -0.36488,0.364872 v 6.567713 c 0,0.201514 -0.16336,0.364873 -0.36487,0.364873 h -2.91898 c -0.20151,0 -0.36487,-0.163359 -0.36487,-0.364873 v -6.567713 c 0,-0.201513 -0.16337,-0.364872 -0.36488,-0.364872 h -2.91898 c -0.20151,0 -0.36487,0.163359 -0.36487,0.364872 v 6.567713 c 0,0.201514 -0.16337,0.364873 -0.36488,0.364873 h -2.91898 c -0.20151,0 -0.36487,-0.163359 -0.36487,-0.364873 v -6.567713 c 0,-0.201513 -0.16337,-0.364872 -0.36488,-0.364872 h -2.91898 c -0.20151,0 -0.36487,-0.16336 -0.36487,-0.364873 v -6.567713 c 0,-0.201514 -0.16336,-0.364873 -0.36487,-0.364873 h -2.91899 c -0.20151,0 -0.36487,0.163359 -0.36487,0.364873 v 6.567713 c 0,0.201513 0.16336,0.364873 0.36487,0.364873 h 2.91899 c 0.20151,0 0.36487,0.163359 0.36487,0.364872 v 6.567713 c 0,0.201514 0.16336,0.364873 0.36487,0.364873 h 2.91898 c 0.20151,0 0.36488,0.163359 0.36488,0.364873 v 2.918983 c 0,0.201514 -0.16337,0.364873 -0.36488,0.364873 h -2.91898 c -0.20151,0 -0.36487,0.163359 -0.36487,0.364873 v 6.567718 c 0,0.20151 0.16336,0.36487 0.36487,0.36487 h 2.91898 c 0.20151,0 0.36488,0.16336 0.36488,0.36487 v 2.91899 c 0,0.20151 0.16336,0.36487 0.36487,0.36487 h 6.56771 c 0.20151,0 0.36488,0.16336 0.36488,0.36487 v 2.91899 c 0,0.20151 -0.16337,0.36487 -0.36488,0.36487 h -2.91898 c -0.20151,0 -0.36487,0.16336 -0.36487,0.36487 v 2.91899 c 0,0.20151 -0.16337,0.36487 -0.36488,0.36487 h -2.91898 c -0.20151,0 -0.36487,-0.16336 -0.36487,-0.36487 v -2.91899 c 0,-0.20151 -0.16337,-0.36487 -0.36488,-0.36487 h -2.91898 c -0.20151,0 -0.36487,0.16336 -0.36487,0.36487 v 2.91899 c 0,0.20151 -0.16336,0.36487 -0.36487,0.36487 h -2.91899 c -0.20151,0 -0.36487,-0.16336 -0.36487,-0.36487 v -6.56772 c 0,-0.20151 -0.16336,-0.36487 -0.36487,-0.36487 h -2.91899 c -0.20151,0 -0.36487,0.16336 -0.36487,0.36487 v 2.91899 c 0,0.20151 -0.163368,0.36487 -0.364878,0.36487 h -2.918983 c -0.20151,0 -0.364873,0.16336 -0.364873,0.36487 v 2.91899 c 0,0.20151 0.163363,0.36487 0.364873,0.36487 h 6.567721 c 0.20151,0 0.36487,0.16336 0.36487,0.36487 v 2.91898 c 0,0.20152 -0.16336,0.36488 -0.36487,0.36488 h -6.567721 c -0.20151,0 -0.364873,0.16336 -0.364873,0.36487 v 2.91898 c 0,0.20151 -0.163363,0.36488 -0.364873,0.36488 h -6.567712 c -0.201514,0 -0.364873,0.16336 -0.364873,0.36487 v 2.91898 c 0,0.20151 -0.163359,0.36488 -0.364873,0.36488 z m -32.838562,0 H 45.660571 c -0.201514,0 -0.364873,-0.16337 -0.364873,-0.36488 v -2.91898 c 0,-0.20151 0.163359,-0.36487 0.364873,-0.36487 h 2.918983 c 0.201514,0 0.364873,-0.16337 0.364873,-0.36488 v -2.91898 c 0,-0.20151 0.163359,-0.36487 0.364873,-0.36487 h 6.567713 c 0.201513,0 0.364873,0.16336 0.364873,0.36487 v 6.56771 c 0,0.20151 -0.16336,0.36488 -0.364873,0.36488 z m 7.297458,-3.64873 h -2.918983 c -0.201514,0 -0.364873,-0.16337 -0.364873,-0.36488 v -6.56771 c 0,-0.20151 0.163359,-0.36487 0.364873,-0.36487 h 2.918983 c 0.201514,0 0.364873,-0.16336 0.364873,-0.36487 v -2.91899 c 0,-0.20151 0.163359,-0.36487 0.364873,-0.36487 H 66.8232 c 0.201514,0 0.364873,0.16336 0.364873,0.36487 v 6.56771 c 0,0.20152 -0.163359,0.36488 -0.364873,0.36488 h -2.918983 c -0.201514,0 -0.364873,0.16336 -0.364873,0.36487 v 2.91898 c 0,0.20151 -0.163359,0.36488 -0.364873,0.36488 z m -21.892375,0 h -2.918983 c -0.201514,0 -0.364873,-0.16337 -0.364873,-0.36488 v -2.91898 c 0,-0.20151 0.163359,-0.36487 0.364873,-0.36487 h 2.918983 c 0.201514,0 0.364873,0.16336 0.364873,0.36487 v 2.91898 c 0,0.20151 -0.163359,0.36488 -0.364873,0.36488 z m -7.297458,0 H 23.768196 c -0.201514,0 -0.364873,-0.16337 -0.364873,-0.36488 v -2.91898 c 0,-0.20151 -0.163359,-0.36487 -0.364873,-0.36487 h -2.918983 c -0.201514,0 -0.364873,-0.16336 -0.364873,-0.36488 v -2.91898 c 0,-0.20151 -0.163359,-0.36487 -0.364873,-0.36487 h -2.918983 c -0.201514,0 -0.364873,-0.16336 -0.364873,-0.36487 v -2.91899 c 0,-0.20151 0.163359,-0.36487 0.364873,-0.36487 h 6.567712 c 0.201514,0 0.364873,0.16336 0.364873,0.36487 v 2.91899 c 0,0.20151 0.163359,0.36487 0.364873,0.36487 h 2.918983 c 0.201514,0 0.364873,0.16336 0.364873,0.36487 v 2.91898 c 0,0.20152 0.163359,0.36488 0.364873,0.36488 h 2.918984 c 0.201513,0 0.364873,-0.16336 0.364873,-0.36488 v -6.56771 c 0,-0.20151 0.163359,-0.36487 0.364872,-0.36487 h 2.918984 c 0.201514,0 0.364873,0.16336 0.364873,0.36487 v 2.91899 c 0,0.20151 0.163359,0.36487 0.364873,0.36487 h 2.918983 c 0.201514,0 0.364873,0.16336 0.364873,0.36487 v 2.91898 c 0,0.20152 -0.163359,0.36488 -0.364873,0.36488 h -2.918983 c -0.201514,0 -0.364873,0.16336 -0.364873,0.36487 v 2.91898 c 0,0.20151 -0.163359,0.36488 -0.364873,0.36488 z m -14.594917,0 h -2.918983 c -0.201514,0 -0.364873,-0.16337 -0.364873,-0.36488 v -2.91898 c 0,-0.20151 0.163359,-0.36487 0.364873,-0.36487 h 2.918983 c 0.201514,0 0.364873,0.16336 0.364873,0.36487 v 2.91898 c 0,0.20151 -0.163359,0.36488 -0.364873,0.36488 z m 29.189833,-3.64873 h -2.918983 c -0.201514,0 -0.364873,-0.16336 -0.364873,-0.36488 v -2.91898 c 0,-0.20151 -0.163359,-0.36487 -0.364873,-0.36487 h -6.567712 c -0.201514,0 -0.364873,-0.16336 -0.364873,-0.36487 v -2.91899 c 0,-0.20151 0.163359,-0.36487 0.364873,-0.36487 h 6.567712 c 0.201514,0 0.364873,-0.16336 0.364873,-0.36487 v -2.91899 c 0,-0.20151 0.163359,-0.36487 0.364873,-0.36487 h 2.918983 c 0.201514,0 0.364873,0.16336 0.364873,0.36487 v 10.21644 c 0,0.20152 -0.163359,0.36488 -0.364873,0.36488 z m 87.569506,-3.64873 h -2.91898 c -0.20151,0 -0.36488,-0.16336 -0.36488,-0.36487 v -2.91899 c 0,-0.20151 -0.16336,-0.36487 -0.36487,-0.36487 h -2.91898 c -0.20151,0 -0.36488,-0.16336 -0.36488,-0.36487 v -2.91899 c 0,-0.20151 0.16337,-0.36487 0.36488,-0.36487 h 6.56771 c 0.20151,0 0.36487,0.16336 0.36487,0.36487 v 6.56772 c 0,0.20151 -0.16336,0.36487 -0.36487,0.36487 z M 26.687179,109.58762 h -2.918983 c -0.201514,0 -0.364873,-0.16336 -0.364873,-0.36487 v -2.91899 c 0,-0.20151 0.163359,-0.36487 0.364873,-0.36487 h 2.918983 c 0.201514,0 0.364873,0.16336 0.364873,0.36487 v 2.91899 c 0,0.20151 -0.163359,0.36487 -0.364873,0.36487 z m 18.243646,-3.64873 H 34.714384 c -0.201514,0 -0.364873,-0.16336 -0.364873,-0.36487 v -2.91899 c 0,-0.20151 0.163359,-0.36487 0.364873,-0.36487 h 10.216441 c 0.201514,0 0.364873,0.16336 0.364873,0.36487 v 2.91899 c 0,0.20151 -0.163359,0.36487 -0.364873,0.36487 z m -14.594916,0 h -2.918984 c -0.201514,0 -0.364873,-0.16336 -0.364873,-0.36487 V 95.357572 c 0,-0.201514 -0.163359,-0.364873 -0.364873,-0.364873 h -6.567712 c -0.201514,0 -0.364873,-0.163359 -0.364873,-0.364873 v -6.567712 c 0,-0.201514 -0.163359,-0.364873 -0.364873,-0.364873 h -2.918983 c -0.201514,0 -0.364873,-0.163359 -0.364873,-0.364873 v -17.5139 c 0,-0.201514 0.163359,-0.364873 0.364873,-0.364873 h 6.567712 c 0.201514,0 0.364873,0.163359 0.364873,0.364873 v 2.918983 c 0,0.201514 -0.163359,0.364873 -0.364873,0.364873 h -2.918983 c -0.201514,0 -0.364873,0.163359 -0.364873,0.364873 v 2.918983 c 0,0.201514 0.163359,0.364873 0.364873,0.364873 h 2.918983 c 0.201514,0 0.364873,-0.163359 0.364873,-0.364873 v -2.918983 c 0,-0.201514 0.163359,-0.364873 0.364873,-0.364873 h 2.918983 c 0.201514,0 0.364873,0.163359 0.364873,0.364873 v 2.918983 c 0,0.201514 0.163359,0.364873 0.364873,0.364873 h 2.918984 c 0.201513,0 0.364873,0.163359 0.364873,0.364873 v 2.918983 c 0,0.201514 -0.16336,0.364873 -0.364873,0.364873 h -2.918984 c -0.201514,0 -0.364873,0.163359 -0.364873,0.364873 v 2.918984 c 0,0.201513 -0.163359,0.364873 -0.364873,0.364873 h -2.918983 c -0.201514,0 -0.364873,-0.16336 -0.364873,-0.364873 v -2.918984 c 0,-0.201514 -0.163359,-0.364873 -0.364873,-0.364873 h -2.918983 c -0.201514,0 -0.364873,0.163359 -0.364873,0.364873 v 2.918984 c 0,0.201513 0.163359,0.364873 0.364873,0.364873 h 2.918983 c 0.201514,0 0.364873,0.163359 0.364873,0.364872 v 6.567713 c 0,0.201514 0.163359,0.364873 0.364873,0.364873 h 2.918983 c 0.201514,0 0.364873,-0.163359 0.364873,-0.364873 v -2.918983 c 0,-0.201514 0.163359,-0.364873 0.364873,-0.364873 h 2.918984 c 0.201513,0 0.364873,-0.163359 0.364873,-0.364873 v -6.567713 c 0,-0.201514 0.163359,-0.364873 0.364872,-0.364873 h 2.918984 c 0.201514,0 0.364873,0.163359 0.364873,0.364873 v 2.918984 c 0,0.201513 0.163359,0.364873 0.364873,0.364873 h 2.918983 c 0.201514,0 0.364873,0.163359 0.364873,0.364872 v 2.918984 c 0,0.201514 -0.163359,0.364873 -0.364873,0.364873 h -2.918983 c -0.201514,0 -0.364873,0.163359 -0.364873,0.364873 v 2.918983 c 0,0.201514 -0.163359,0.364873 -0.364873,0.364873 h -2.918984 c -0.201513,0 -0.364872,0.163359 -0.364872,0.364873 v 2.918983 c 0,0.201514 0.163359,0.364873 0.364872,0.364873 h 10.216442 c 0.201514,0 0.364873,0.163359 0.364873,0.364873 v 2.918983 c 0,0.201514 -0.163359,0.364873 -0.364873,0.364873 H 31.065654 c -0.201513,0 -0.364872,0.163359 -0.364872,0.364873 v 6.567719 c 0,0.20151 -0.16336,0.36487 -0.364873,0.36487 z m -7.297459,0 h -2.918983 c -0.201514,0 -0.364873,-0.16336 -0.364873,-0.36487 v -6.567719 c 0,-0.201514 0.163359,-0.364873 0.364873,-0.364873 h 2.918983 c 0.201514,0 0.364873,0.163359 0.364873,0.364873 v 6.567719 c 0,0.20151 -0.163359,0.36487 -0.364873,0.36487 z m 113.11061,-3.64873 h -2.91898 c -0.20151,0 -0.36488,-0.16336 -0.36488,-0.36487 v -6.567718 c 0,-0.201514 0.16337,-0.364873 0.36488,-0.364873 h 2.91898 c 0.20151,0 0.36487,0.163359 0.36487,0.364873 v 6.567718 c 0,0.20151 -0.16336,0.36487 -0.36487,0.36487 z m -18.24365,0 h -6.56771 c -0.20151,0 -0.36487,-0.16336 -0.36487,-0.36487 v -6.567718 c 0,-0.201514 0.16336,-0.364873 0.36487,-0.364873 h 2.91898 c 0.20151,0 0.36488,0.163359 0.36488,0.364873 v 2.918983 c 0,0.201514 0.16336,0.364873 0.36487,0.364873 h 2.91898 c 0.20151,0 0.36488,0.163359 0.36488,0.364873 v 2.918989 c 0,0.20151 -0.16337,0.36487 -0.36488,0.36487 z m 10.94619,-3.648732 h -2.91898 c -0.20151,0 -0.36488,-0.163359 -0.36488,-0.364873 v -2.918983 c 0,-0.201514 0.16337,-0.364873 0.36488,-0.364873 h 2.91898 c 0.20151,0 0.36487,0.163359 0.36487,0.364873 v 2.918983 c 0,0.201514 -0.16336,0.364873 -0.36487,0.364873 z m -29.189838,0 h -2.918983 c -0.20151,0 -0.364873,-0.163359 -0.364873,-0.364873 v -2.918983 c 0,-0.201514 0.163363,-0.364873 0.364873,-0.364873 h 2.918983 c 0.20151,0 0.364878,0.163359 0.364878,0.364873 v 2.918983 c 0,0.201514 -0.163368,0.364873 -0.364878,0.364873 z m -29.189833,0 h -2.918983 c -0.201514,0 -0.364873,-0.163359 -0.364873,-0.364873 v -6.567712 c 0,-0.201514 0.163359,-0.364873 0.364873,-0.364873 h 2.918983 c 0.201514,0 0.364873,0.163359 0.364873,0.364873 v 6.567712 c 0,0.201514 -0.163359,0.364873 -0.364873,0.364873 z m -21.892375,0 h -2.918983 c -0.201514,0 -0.364873,-0.163359 -0.364873,-0.364873 v -6.567712 c 0,-0.201514 0.163359,-0.364873 0.364873,-0.364873 h 2.918983 c 0.201514,0 0.364873,0.163359 0.364873,0.364873 v 6.567712 c 0,0.201514 -0.163359,0.364873 -0.364873,0.364873 z m -29.189833,0 h -2.918983 c -0.201514,0 -0.364873,-0.163359 -0.364873,-0.364873 v -2.918983 c 0,-0.201514 0.163359,-0.364873 0.364873,-0.364873 h 2.918983 c 0.201514,0 0.364873,0.163359 0.364873,0.364873 v 2.918983 c 0,0.201514 -0.163359,0.364873 -0.364873,0.364873 z M 132.50033,94.992699 h -2.91898 c -0.20151,0 -0.36488,-0.163359 -0.36488,-0.364873 V 73.465197 c 0,-0.201514 0.16337,-0.364873 0.36488,-0.364873 h 2.91898 c 0.20151,0 0.36487,0.163359 0.36487,0.364873 v 2.918983 c 0,0.201514 0.16337,0.364873 0.36488,0.364873 h 2.91898 c 0.20151,0 0.36487,0.163359 0.36487,0.364873 v 2.918983 c 0,0.201514 -0.16336,0.364873 -0.36487,0.364873 h -2.91898 c -0.20151,0 -0.36488,0.163359 -0.36488,0.364873 v 13.865171 c 0,0.201514 -0.16336,0.364873 -0.36487,0.364873 z m -7.29746,0 h -2.91898 c -0.20151,0 -0.36488,-0.163359 -0.36488,-0.364873 v -2.918983 c 0,-0.201514 0.16337,-0.364873 0.36488,-0.364873 h 2.91898 c 0.20151,0 0.36487,0.163359 0.36487,0.364873 v 2.918983 c 0,0.201514 -0.16336,0.364873 -0.36487,0.364873 z m -7.29746,0 h -2.91898 c -0.20151,0 -0.36487,-0.163359 -0.36487,-0.364873 v -2.918983 c 0,-0.201514 0.16336,-0.364873 0.36487,-0.364873 h 2.91898 c 0.20151,0 0.36488,0.163359 0.36488,0.364873 v 2.918983 c 0,0.201514 -0.16337,0.364873 -0.36488,0.364873 z m -21.892377,0 H 93.09405 c -0.20151,0 -0.364873,-0.163359 -0.364873,-0.364873 v -2.918983 c 0,-0.201514 -0.163359,-0.364873 -0.364873,-0.364873 h -6.567712 c -0.201514,0 -0.364873,-0.163359 -0.364873,-0.364873 v -6.567713 c 0,-0.201513 0.163359,-0.364872 0.364873,-0.364872 h 2.918983 c 0.201514,0 0.364873,0.163359 0.364873,0.364872 v 2.918984 c 0,0.201514 0.163359,0.364873 0.364873,0.364873 h 2.918983 c 0.201514,0 0.364873,-0.163359 0.364873,-0.364873 v -2.918984 c 0,-0.201513 -0.163359,-0.364872 -0.364873,-0.364872 h -2.918983 c -0.201514,0 -0.364873,-0.16336 -0.364873,-0.364873 v -2.918984 c 0,-0.201514 0.163359,-0.364873 0.364873,-0.364873 h 6.567712 c 0.20151,0 0.364873,0.163359 0.364873,0.364873 v 6.567713 c 0,0.201514 0.163363,0.364873 0.364873,0.364873 h 2.918983 c 0.20151,0 0.364878,0.163359 0.364878,0.364873 v 2.918983 c 0,0.201514 -0.163368,0.364873 -0.364878,0.364873 h -2.918983 c -0.20151,0 -0.364873,0.163359 -0.364873,0.364873 v 2.918983 c 0,0.201514 -0.163363,0.364873 -0.364873,0.364873 z m -18.243646,0 h -2.918983 c -0.201514,0 -0.364873,-0.163359 -0.364873,-0.364873 v -6.567712 c 0,-0.201514 0.163359,-0.364873 0.364873,-0.364873 h 2.918983 c 0.201514,0 0.364873,-0.163359 0.364873,-0.364873 v -2.918984 c 0,-0.201513 0.163359,-0.364872 0.364873,-0.364872 h 2.918984 c 0.201513,0 0.364872,0.163359 0.364872,0.364872 v 6.567713 c 0,0.201514 -0.163359,0.364873 -0.364872,0.364873 h -2.918984 c -0.201514,0 -0.364873,0.163359 -0.364873,0.364873 v 2.918983 c 0,0.201514 -0.163359,0.364873 -0.364873,0.364873 z m -18.243645,0 h -2.918984 c -0.201513,0 -0.364872,-0.163359 -0.364872,-0.364873 v -2.918983 c 0,-0.201514 0.163359,-0.364873 0.364872,-0.364873 h 2.918984 c 0.201514,0 0.364873,0.163359 0.364873,0.364873 v 2.918983 c 0,0.201514 -0.163359,0.364873 -0.364873,0.364873 z M 55.877013,91.34397 h -2.918984 c -0.201514,0 -0.364873,-0.163359 -0.364873,-0.364873 v -2.918983 c 0,-0.201514 0.163359,-0.364873 0.364873,-0.364873 h 2.918984 c 0.201513,0 0.364873,0.163359 0.364873,0.364873 v 2.918983 c 0,0.201514 -0.16336,0.364873 -0.364873,0.364873 z m -10.946188,0 h -6.567712 c -0.201514,0 -0.364873,-0.163359 -0.364873,-0.364873 v -2.918983 c 0,-0.201514 0.163359,-0.364873 0.364873,-0.364873 h 2.918983 c 0.201514,0 0.364873,-0.163359 0.364873,-0.364873 v -2.918984 c 0,-0.201513 -0.163359,-0.364872 -0.364873,-0.364872 h -2.918983 c -0.201514,0 -0.364873,-0.16336 -0.364873,-0.364873 v -2.918984 c 0,-0.201514 0.163359,-0.364873 0.364873,-0.364873 h 6.567712 c 0.201514,0 0.364873,0.163359 0.364873,0.364873 v 10.216442 c 0,0.201514 -0.163359,0.364873 -0.364873,0.364873 z m 29.189833,-3.648729 h -6.567712 c -0.201514,0 -0.364873,-0.163359 -0.364873,-0.364873 v -2.918984 c 0,-0.201513 -0.163359,-0.364872 -0.364873,-0.364872 h -2.918983 c -0.201514,0 -0.364873,-0.16336 -0.364873,-0.364873 v -2.918984 c 0,-0.201514 0.163359,-0.364873 0.364873,-0.364873 h 6.567712 c 0.201514,0 0.364873,0.163359 0.364873,0.364873 v 2.918984 c 0,0.201513 0.163359,0.364873 0.364873,0.364873 h 2.918983 c 0.201514,0 0.364873,0.163359 0.364873,0.364872 v 2.918984 c 0,0.201514 -0.163359,0.364873 -0.364873,0.364873 z m -10.946187,0 h -6.567713 c -0.201513,0 -0.364872,-0.163359 -0.364872,-0.364873 v -2.918984 c 0,-0.201513 0.163359,-0.364872 0.364872,-0.364872 h 6.567713 c 0.201514,0 0.364873,0.163359 0.364873,0.364872 v 2.918984 c 0,0.201514 -0.163359,0.364873 -0.364873,0.364873 z M 55.877013,84.046512 H 49.3093 c -0.201514,0 -0.364873,-0.16336 -0.364873,-0.364873 v -2.918984 c 0,-0.201514 -0.163359,-0.364873 -0.364873,-0.364873 h -2.918983 c -0.201514,0 -0.364873,-0.163359 -0.364873,-0.364873 v -2.918983 c 0,-0.201514 0.163359,-0.364873 0.364873,-0.364873 h 2.918983 c 0.201514,0 0.364873,-0.163359 0.364873,-0.364873 v -2.918983 c 0,-0.201514 -0.163359,-0.364873 -0.364873,-0.364873 h -6.567712 c -0.201514,0 -0.364873,-0.163359 -0.364873,-0.364873 v -2.918983 c 0,-0.201514 -0.163359,-0.364873 -0.364873,-0.364873 h -2.918983 c -0.201514,0 -0.364873,-0.163359 -0.364873,-0.364873 v -2.918983 c 0,-0.201514 0.163359,-0.364873 0.364873,-0.364873 h 6.567712 c 0.201514,0 0.364873,0.163359 0.364873,0.364873 v 2.918983 c 0,0.201514 0.163359,0.364873 0.364873,0.364873 h 10.216442 c 0.201513,0 0.364873,0.163359 0.364873,0.364873 v 2.918983 c 0,0.201514 -0.16336,0.364873 -0.364873,0.364873 h -2.918984 c -0.201514,0 -0.364873,0.163359 -0.364873,0.364873 v 2.918983 c 0,0.201514 0.163359,0.364873 0.364873,0.364873 h 2.918984 c 0.201513,0 0.364873,0.163359 0.364873,0.364873 v 6.567713 c 0,0.201513 -0.16336,0.364873 -0.364873,0.364873 z m 62.393277,-4.013603 v -2.918983 c 0,-0.201514 0.16336,-0.364873 0.36487,-0.364873 h 2.91898 c 0.20151,0 0.36487,-0.163359 0.36487,-0.364873 v -2.918983 c 0,-0.201514 -0.16336,-0.364873 -0.36487,-0.364873 h -2.91898 c -0.20151,0 -0.36487,-0.163359 -0.36487,-0.364873 v -2.918983 c 0,-0.201514 -0.16337,-0.364873 -0.36488,-0.364873 h -2.91898 c -0.20151,0 -0.36487,0.163359 -0.36487,0.364873 v 2.918983 c 0,0.201514 0.16336,0.364873 0.36487,0.364873 h 2.91898 c 0.20151,0 0.36488,0.163359 0.36488,0.364873 v 2.918983 c 0,0.201514 -0.16337,0.364873 -0.36488,0.364873 h -2.91898 c -0.20151,0 -0.36487,0.163359 -0.36487,0.364873 v 2.918983 c 0,0.201514 0.16336,0.364873 0.36487,0.364873 h 2.91898 c 0.20151,0 0.36488,-0.163359 0.36488,-0.364873 z m -40.500903,0.364873 h -6.567712 c -0.201514,0 -0.364873,-0.163359 -0.364873,-0.364873 v -2.918983 c 0,-0.201514 0.163359,-0.364873 0.364873,-0.364873 h 6.567712 c 0.201514,0 0.364873,0.163359 0.364873,0.364873 v 2.918983 c 0,0.201514 -0.163359,0.364873 -0.364873,0.364873 z m -40.13602,0 h -2.918983 c -0.201514,0 -0.364873,-0.163359 -0.364873,-0.364873 v -2.918983 c 0,-0.201514 0.163359,-0.364873 0.364873,-0.364873 h 2.918983 c 0.201514,0 0.364873,0.163359 0.364873,0.364873 v 2.918983 c 0,0.201514 -0.163359,0.364873 -0.364873,0.364873 z m 3.648729,-3.648729 h -2.918983 c -0.201514,0 -0.364873,-0.163359 -0.364873,-0.364873 v -2.918983 c 0,-0.201514 0.163359,-0.364873 0.364873,-0.364873 h 2.918983 c 0.201514,0 0.364873,0.163359 0.364873,0.364873 v 2.918983 c 0,0.201514 -0.163359,0.364873 -0.364873,0.364873 z m -7.297458,0 h -2.918984 c -0.201513,0 -0.364872,-0.163359 -0.364872,-0.364873 V 66.167739 c 0,-0.201514 -0.16336,-0.364873 -0.364873,-0.364873 h -2.918984 c -0.201514,0 -0.364873,-0.163359 -0.364873,-0.364873 V 58.87028 c 0,-0.201513 0.163359,-0.364872 0.364873,-0.364872 h 2.918984 c 0.201513,0 0.364873,0.163359 0.364873,0.364872 v 2.918984 c 0,0.201514 0.163359,0.364873 0.364872,0.364873 h 2.918984 c 0.201514,0 0.364873,0.163359 0.364873,0.364873 v 6.567712 c 0,0.201514 0.163359,0.364873 0.364873,0.364873 h 2.918983 c 0.201514,0 0.364873,0.163359 0.364873,0.364873 v 2.918983 c 0,0.201514 -0.163359,0.364873 -0.364873,0.364873 h -2.918983 c -0.201514,0 -0.364873,0.163359 -0.364873,0.364873 v 2.918983 c 0,0.201514 -0.163359,0.364873 -0.364873,0.364873 z M 136.14906,73.100324 h -2.91898 c -0.20151,0 -0.36488,-0.163359 -0.36488,-0.364873 V 62.51901 c 0,-0.201514 0.16337,-0.364873 0.36488,-0.364873 h 2.91898 c 0.20151,0 0.36487,0.163359 0.36487,0.364873 v 10.216441 c 0,0.201514 -0.16336,0.364873 -0.36487,0.364873 z m -43.784756,0 h -2.918983 c -0.201514,0 -0.364873,-0.163359 -0.364873,-0.364873 v -2.918983 c 0,-0.201514 -0.163359,-0.364873 -0.364873,-0.364873 h -2.918983 c -0.201514,0 -0.364873,-0.163359 -0.364873,-0.364873 v -2.918983 c 0,-0.201514 0.163359,-0.364873 0.364873,-0.364873 h 2.918983 c 0.201514,0 0.364873,-0.163359 0.364873,-0.364873 V 62.51901 c 0,-0.201514 0.163359,-0.364873 0.364873,-0.364873 h 2.918983 c 0.201514,0 0.364873,0.163359 0.364873,0.364873 v 2.918983 c 0,0.201514 0.163363,0.364873 0.364873,0.364873 h 6.567712 c 0.20151,0 0.364878,0.163359 0.364878,0.364873 v 2.918983 c 0,0.201514 -0.163368,0.364873 -0.364878,0.364873 H 93.09405 c -0.20151,0 -0.364873,0.163359 -0.364873,0.364873 v 2.918983 c 0,0.201514 -0.163359,0.364873 -0.364873,0.364873 z m -10.946187,0 h -2.918984 c -0.201514,0 -0.364873,-0.163359 -0.364873,-0.364873 v -6.567712 c 0,-0.201514 0.163359,-0.364873 0.364873,-0.364873 h 2.918984 c 0.201513,0 0.364872,0.163359 0.364872,0.364873 v 6.567712 c 0,0.201514 -0.163359,0.364873 -0.364872,0.364873 z m -7.297459,0 h -6.567712 c -0.201514,0 -0.364873,-0.163359 -0.364873,-0.364873 v -2.918983 c 0,-0.201514 0.163359,-0.364873 0.364873,-0.364873 h 6.567712 c 0.201514,0 0.364873,0.163359 0.364873,0.364873 v 2.918983 c 0,0.201514 -0.163359,0.364873 -0.364873,0.364873 z m -10.946187,0 h -2.918983 c -0.201514,0 -0.364873,-0.163359 -0.364873,-0.364873 v -6.567712 c 0,-0.201514 -0.163359,-0.364873 -0.364873,-0.364873 h -2.918984 c -0.201513,0 -0.364872,-0.163359 -0.364872,-0.364873 V 58.87028 c 0,-0.201513 0.163359,-0.364872 0.364872,-0.364872 h 2.918984 c 0.201514,0 0.364873,0.163359 0.364873,0.364872 v 2.918984 c 0,0.201514 0.163359,0.364873 0.364873,0.364873 h 2.918983 c 0.201514,0 0.364873,0.163359 0.364873,0.364873 v 10.216441 c 0,0.201514 -0.163359,0.364873 -0.364873,0.364873 z M 128.8516,69.451595 h -2.91898 c -0.20151,0 -0.36488,-0.163359 -0.36488,-0.364873 v -2.918983 c 0,-0.201514 0.16337,-0.364873 0.36488,-0.364873 h 2.91898 c 0.20151,0 0.36487,0.163359 0.36487,0.364873 v 2.918983 c 0,0.201514 -0.16336,0.364873 -0.36487,0.364873 z M 77.769387,65.802866 h -2.918983 c -0.201514,0 -0.364873,-0.163359 -0.364873,-0.364873 V 62.51901 c 0,-0.201514 -0.163359,-0.364873 -0.364873,-0.364873 H 63.904217 c -0.201514,0 -0.364873,-0.163359 -0.364873,-0.364873 V 58.87028 c 0,-0.201513 0.163359,-0.364872 0.364873,-0.364872 H 66.8232 c 0.201514,0 0.364873,-0.16336 0.364873,-0.364873 v -6.567713 c 0,-0.201514 0.163359,-0.364873 0.364873,-0.364873 h 2.918983 c 0.201514,0 0.364873,0.163359 0.364873,0.364873 v 6.567713 c 0,0.201513 0.163359,0.364873 0.364873,0.364873 h 6.567712 c 0.201514,0 0.364873,0.163359 0.364873,0.364872 v 6.567713 c 0,0.201514 -0.163359,0.364873 -0.364873,0.364873 z m -29.189833,0 h -2.918983 c -0.201514,0 -0.364873,-0.163359 -0.364873,-0.364873 V 58.87028 c 0,-0.201513 0.163359,-0.364872 0.364873,-0.364872 h 2.918983 c 0.201514,0 0.364873,-0.16336 0.364873,-0.364873 v -2.918984 c 0,-0.201513 0.163359,-0.364873 0.364873,-0.364873 h 2.918983 c 0.201514,0 0.364873,-0.163359 0.364873,-0.364872 v -2.918984 c 0,-0.201514 -0.163359,-0.364873 -0.364873,-0.364873 H 49.3093 c -0.201514,0 -0.364873,0.163359 -0.364873,0.364873 v 2.918984 c 0,0.201513 -0.163359,0.364872 -0.364873,0.364872 h -2.918983 c -0.201514,0 -0.364873,-0.163359 -0.364873,-0.364872 v -6.567713 c 0,-0.201514 0.163359,-0.364873 0.364873,-0.364873 h 13.865171 c 0.201514,0 0.364873,0.163359 0.364873,0.364873 v 2.918983 c 0,0.201514 -0.163359,0.364873 -0.364873,0.364873 h -2.918984 c -0.201513,0 -0.364872,0.163359 -0.364872,0.364873 v 6.567713 c 0,0.201513 -0.16336,0.364873 -0.364873,0.364873 h -2.918984 c -0.201514,0 -0.364873,0.163359 -0.364873,0.364872 v 2.918984 c 0,0.201514 -0.163359,0.364873 -0.364873,0.364873 H 49.3093 c -0.201514,0 -0.364873,0.163359 -0.364873,0.364873 v 2.918983 c 0,0.201514 -0.163359,0.364873 -0.364873,0.364873 z m -29.189833,0 h -2.918983 c -0.201514,0 -0.364873,-0.163359 -0.364873,-0.364873 V 58.87028 c 0,-0.201513 0.163359,-0.364872 0.364873,-0.364872 h 2.918983 c 0.201514,0 0.364873,0.163359 0.364873,0.364872 v 6.567713 c 0,0.201514 -0.163359,0.364873 -0.364873,0.364873 z M 99.661762,62.154137 H 93.09405 c -0.20151,0 -0.364873,-0.163359 -0.364873,-0.364873 V 58.87028 c 0,-0.201513 -0.163359,-0.364872 -0.364873,-0.364872 h -2.918983 c -0.201514,0 -0.364873,0.163359 -0.364873,0.364872 v 2.918984 c 0,0.201514 -0.163359,0.364873 -0.364873,0.364873 h -2.918983 c -0.201514,0 -0.364873,-0.163359 -0.364873,-0.364873 V 58.87028 c 0,-0.201513 -0.163359,-0.364872 -0.364873,-0.364872 h -6.567713 c -0.201514,0 -0.364873,-0.16336 -0.364873,-0.364873 v -2.918984 c 0,-0.201513 0.163359,-0.364873 0.364873,-0.364873 h 2.918984 c 0.201513,0 0.364872,-0.163359 0.364872,-0.364872 v -2.918984 c 0,-0.201514 0.16336,-0.364873 0.364873,-0.364873 h 2.918984 c 0.201514,0 0.364873,0.163359 0.364873,0.364873 v 2.918984 c 0,0.201513 0.163359,0.364872 0.364873,0.364872 h 2.918983 c 0.201514,0 0.364873,-0.163359 0.364873,-0.364872 v -6.567713 c 0,-0.201514 0.163359,-0.364873 0.364873,-0.364873 h 2.918983 c 0.201514,0 0.364873,0.163359 0.364873,0.364873 v 6.567713 c 0,0.201513 0.163363,0.364872 0.364873,0.364872 h 2.918983 c 0.20151,0 0.364873,-0.163359 0.364873,-0.364872 v -2.918984 c 0,-0.201514 0.163363,-0.364873 0.364873,-0.364873 h 2.918983 c 0.20151,0 0.364878,0.163359 0.364878,0.364873 v 10.216442 c 0,0.201514 -0.163368,0.364873 -0.364878,0.364873 z m -58.379666,0 h -6.567712 c -0.201514,0 -0.364873,-0.163359 -0.364873,-0.364873 V 58.87028 c 0,-0.201513 0.163359,-0.364872 0.364873,-0.364872 h 6.567712 c 0.201514,0 0.364873,0.163359 0.364873,0.364872 v 2.918984 c 0,0.201514 -0.163359,0.364873 -0.364873,0.364873 z m 65.677134,-3.648729 h -2.91899 c -0.20151,0 -0.36487,-0.16336 -0.36487,-0.364873 v -6.567713 c 0,-0.201514 0.16336,-0.364873 0.36487,-0.364873 h 2.91899 c 0.20151,0 0.36487,0.163359 0.36487,0.364873 v 6.567713 c 0,0.201513 -0.16336,0.364873 -0.36487,0.364873 z m 29.18983,-3.64873 H 111.3377 c -0.20151,0 -0.36487,-0.163359 -0.36487,-0.364872 V 29.680447 c 0,-0.201513 0.16336,-0.364873 0.36487,-0.364873 h 24.81136 c 0.20151,0 0.36487,0.16336 0.36487,0.364873 v 24.811359 c 0,0.201513 -0.16336,0.364872 -0.36487,0.364872 z m -58.379673,0 h -2.918983 c -0.201514,0 -0.364873,-0.163359 -0.364873,-0.364872 v -2.918984 c 0,-0.201514 0.163359,-0.364873 0.364873,-0.364873 h 2.918983 c 0.201514,0 0.364873,0.163359 0.364873,0.364873 v 2.918984 c 0,0.201513 -0.163359,0.364872 -0.364873,0.364872 z m -14.594916,0 h -2.918983 c -0.201514,0 -0.364873,-0.163359 -0.364873,-0.364872 v -2.918984 c 0,-0.201514 0.163359,-0.364873 0.364873,-0.364873 h 2.918983 c 0.201514,0 0.364873,0.163359 0.364873,0.364873 v 2.918984 c 0,0.201513 -0.163359,0.364872 -0.364873,0.364872 z m -21.892375,0 H 16.470738 c -0.201514,0 -0.364873,-0.163359 -0.364873,-0.364872 V 29.680447 c 0,-0.201513 0.163359,-0.364873 0.364873,-0.364873 h 24.811358 c 0.201514,0 0.364873,0.16336 0.364873,0.364873 v 24.811359 c 0,0.201513 -0.163359,0.364872 -0.364873,0.364872 z M 132.8652,50.843076 V 33.329177 c 0,-0.201514 -0.16336,-0.364873 -0.36487,-0.364873 h -17.5139 c -0.20151,0 -0.36487,0.163359 -0.36487,0.364873 v 17.513899 c 0,0.201514 0.16336,0.364873 0.36487,0.364873 h 17.5139 c 0.20151,0 0.36487,-0.163359 0.36487,-0.364873 z m -29.5547,0.364873 h -2.91899 c -0.20151,0 -0.36487,-0.163359 -0.36487,-0.364873 v -2.918983 c 0,-0.201514 0.16336,-0.364873 0.36487,-0.364873 h 2.91899 c 0.20151,0 0.36487,0.163359 0.36487,0.364873 v 2.918983 c 0,0.201514 -0.16336,0.364873 -0.36487,0.364873 z M 37.99824,50.843076 V 33.329177 c 0,-0.201514 -0.163359,-0.364873 -0.364873,-0.364873 h -17.5139 c -0.201514,0 -0.364873,0.163359 -0.364873,0.364873 v 17.513899 c 0,0.201514 0.163359,0.364873 0.364873,0.364873 h 17.5139 c 0.201514,0 0.364873,-0.163359 0.364873,-0.364873 z M 128.8516,47.55922 h -10.21644 c -0.20151,0 -0.36487,-0.163359 -0.36487,-0.364873 V 36.977906 c 0,-0.201514 0.16336,-0.364873 0.36487,-0.364873 h 10.21644 c 0.20151,0 0.36487,0.163359 0.36487,0.364873 v 10.216441 c 0,0.201514 -0.16336,0.364873 -0.36487,0.364873 z m -29.189838,0 h -2.918983 c -0.20151,0 -0.364873,-0.163359 -0.364873,-0.364873 v -2.918983 c 0,-0.201514 0.163363,-0.364873 0.364873,-0.364873 h 2.918983 c 0.20151,0 0.364878,0.163359 0.364878,0.364873 v 2.918983 c 0,0.201514 -0.163368,0.364873 -0.364878,0.364873 z m -10.946187,0 h -2.918983 c -0.201514,0 -0.364873,-0.163359 -0.364873,-0.364873 v -2.918983 c 0,-0.201514 0.163359,-0.364873 0.364873,-0.364873 h 2.918983 c 0.201514,0 0.364873,0.163359 0.364873,0.364873 v 2.918983 c 0,0.201514 -0.163359,0.364873 -0.364873,0.364873 z m -7.297458,0 h -6.567713 c -0.201514,0 -0.364873,-0.163359 -0.364873,-0.364873 v -2.918983 c 0,-0.201514 0.163359,-0.364873 0.364873,-0.364873 h 2.918983 c 0.201514,0 0.364873,-0.163359 0.364873,-0.364873 V 33.329177 c 0,-0.201514 0.163359,-0.364873 0.364873,-0.364873 h 2.918984 c 0.201513,0 0.364872,0.163359 0.364872,0.364873 v 13.86517 c 0,0.201514 -0.163359,0.364873 -0.364872,0.364873 z m -14.594917,0 h -2.918983 c -0.201514,0 -0.364873,-0.163359 -0.364873,-0.364873 v -6.567712 c 0,-0.201514 0.163359,-0.364873 0.364873,-0.364873 H 66.8232 c 0.201514,0 0.364873,0.163359 0.364873,0.364873 v 6.567712 c 0,0.201514 -0.163359,0.364873 -0.364873,0.364873 z m -32.838562,0 H 23.768196 c -0.201514,0 -0.364873,-0.163359 -0.364873,-0.364873 V 36.977906 c 0,-0.201514 0.163359,-0.364873 0.364873,-0.364873 h 10.216442 c 0.201514,0 0.364873,0.163359 0.364873,0.364873 v 10.216441 c 0,0.201514 -0.163359,0.364873 -0.364873,0.364873 z M 103.3105,43.910491 h -2.91899 c -0.20151,0 -0.36487,-0.163359 -0.36487,-0.364873 v -6.567712 c 0,-0.201514 -0.163368,-0.364873 -0.364878,-0.364873 H 93.09405 c -0.20151,0 -0.364873,-0.163359 -0.364873,-0.364873 v -2.918983 c 0,-0.201514 0.163363,-0.364873 0.364873,-0.364873 h 2.918983 c 0.20151,0 0.364873,-0.163359 0.364873,-0.364873 v -2.918984 c 0,-0.201513 0.163363,-0.364873 0.364873,-0.364873 h 6.567721 c 0.20151,0 0.36487,0.16336 0.36487,0.364873 v 2.918984 c 0,0.201514 0.16336,0.364873 0.36487,0.364873 h 2.91899 c 0.20151,0 0.36487,0.163359 0.36487,0.364873 v 2.918983 c 0,0.201514 -0.16336,0.364873 -0.36487,0.364873 h -2.91899 c -0.20151,0 -0.36487,0.163359 -0.36487,0.364873 v 6.567712 c 0,0.201514 -0.16336,0.364873 -0.36487,0.364873 z m -7.297467,0 H 93.09405 c -0.20151,0 -0.364873,-0.163359 -0.364873,-0.364873 v -2.918983 c 0,-0.201514 0.163363,-0.364873 0.364873,-0.364873 h 2.918983 c 0.20151,0 0.364873,0.163359 0.364873,0.364873 v 2.918983 c 0,0.201514 -0.163363,0.364873 -0.364873,0.364873 z m -40.13602,0 H 49.3093 c -0.201514,0 -0.364873,-0.163359 -0.364873,-0.364873 v -6.567712 c 0,-0.201514 0.163359,-0.364873 0.364873,-0.364873 h 2.918983 c 0.201514,0 0.364873,0.163359 0.364873,0.364873 v 2.918983 c 0,0.201514 0.163359,0.364873 0.364873,0.364873 h 2.918984 c 0.201513,0 0.364873,0.163359 0.364873,0.364873 v 2.918983 c 0,0.201514 -0.16336,0.364873 -0.364873,0.364873 z m 36.487291,-3.648729 h -2.918983 c -0.201514,0 -0.364873,-0.163359 -0.364873,-0.364873 v -2.918983 c 0,-0.201514 0.163359,-0.364873 0.364873,-0.364873 h 2.918983 c 0.201514,0 0.364873,0.163359 0.364873,0.364873 v 2.918983 c 0,0.201514 -0.163359,0.364873 -0.364873,0.364873 z m -18.243646,0 h -6.567712 c -0.201514,0 -0.364873,-0.163359 -0.364873,-0.364873 v -2.918983 c 0,-0.201514 0.163359,-0.364873 0.364873,-0.364873 h 2.918983 c 0.201514,0 0.364873,-0.163359 0.364873,-0.364873 v -6.567713 c 0,-0.201513 0.163359,-0.364873 0.364873,-0.364873 h 2.918983 c 0.201514,0 0.364873,0.16336 0.364873,0.364873 v 10.216442 c 0,0.201514 -0.163359,0.364873 -0.364873,0.364873 z m -14.594916,0 h -2.918984 c -0.201513,0 -0.364872,-0.163359 -0.364872,-0.364873 v -2.918983 c 0,-0.201514 0.163359,-0.364873 0.364872,-0.364873 h 2.918984 c 0.201514,0 0.364873,0.163359 0.364873,0.364873 v 2.918983 c 0,0.201514 -0.163359,0.364873 -0.364873,0.364873 z m 3.648729,-3.648729 h -2.918983 c -0.201514,0 -0.364873,-0.163359 -0.364873,-0.364873 v -2.918983 c 0,-0.201514 0.163359,-0.364873 0.364873,-0.364873 h 2.918983 c 0.201514,0 0.364873,0.163359 0.364873,0.364873 v 2.918983 c 0,0.201514 -0.163359,0.364873 -0.364873,0.364873 z m -7.297458,0 h -2.918984 c -0.201514,0 -0.364873,-0.163359 -0.364873,-0.364873 v -2.918983 c 0,-0.201514 0.163359,-0.364873 0.364873,-0.364873 h 2.918984 c 0.201513,0 0.364873,0.163359 0.364873,0.364873 v 2.918983 c 0,0.201514 -0.16336,0.364873 -0.364873,0.364873 z m 32.838562,-3.648729 h -6.567713 c -0.201513,0 -0.364873,-0.163359 -0.364873,-0.364873 v -2.918984 c 0,-0.201513 0.16336,-0.364873 0.364873,-0.364873 h 6.567713 c 0.201514,0 0.364873,0.16336 0.364873,0.364873 v 2.918984 c 0,0.201514 -0.163359,0.364873 -0.364873,0.364873 z m -36.487292,0 H 49.3093 c -0.201514,0 -0.364873,-0.163359 -0.364873,-0.364873 v -2.918984 c 0,-0.201513 0.163359,-0.364873 0.364873,-0.364873 h 2.918983 c 0.201514,0 0.364873,0.16336 0.364873,0.364873 v 2.918984 c 0,0.201514 -0.163359,0.364873 -0.364873,0.364873 z"
           id="path3316"
           style="fill:#ffffff;fill-opacity:1;stroke:none;stroke-width:0.912182;stroke-opacity:1" /></g></g><path
       style="fill:none;stroke:none;stroke-width:0.264583px;stroke-linecap:butt;stroke-linejoin:miter;stroke-opacity:1"
       d="M 16.104457,270.76584 H 57.564022"
       id="path3402" /><path
       style="fill:none;stroke:none;stroke-width:0.264583px;stroke-linecap:butt;stroke-linejoin:miter;stroke-opacity:1"
       d="M 16.104457,276.47712 H 57.564022"
       id="path3402-6" /><text
       xml:space="preserve"
       style="font-size:3.175px;line-height:1.25;font-family:'Futura Condensed Extra Bold';-inkscape-font-specification:'Futura Condensed Extra Bold, ';letter-spacing:0.132292px;word-spacing:0px;fill:#ffffff;fill-opacity:1;stroke:none;stroke-width:0.264583;stroke-opacity:1"
       x="9.7766447"
       y="265.07489"
       id="text1056"><tspan
         sodipodi:role="line"
         id="tspan1054"
         x="9.7766447"
         y="265.07489"
         style="font-style:normal;font-variant:normal;font-weight:normal;font-stretch:normal;font-size:4.5861px;font-family:'Futura URW Medium';-inkscape-font-specification:'Futura URW Medium, ';font-variant-ligatures:normal;font-variant-caps:normal;font-variant-numeric:normal;font-variant-east-asian:normal;fill:#ffffff;fill-opacity:1;stroke:none;stroke-width:0.264583;stroke-opacity:1">POWER RAIL PROBE</tspan></text><path
       fill="#0099b0"
       d="m 49.70468,281.80712 -0.72954,-0.13567 c -0.01775,-0.003 -0.03719,-0.02 -0.04318,-0.0371 l -0.223624,-0.52171 c -0.0083,-0.0161 -0.0067,-0.0414 0.0035,-0.0564 l 0.425059,-0.61952 c 0.01016,-0.0149 0.0082,-0.0376 -0.0047,-0.0504 l -0.530902,-0.5309 c -0.01282,-0.0128 -0.03546,-0.0149 -0.05037,-0.005 l -0.630398,0.4326 c -0.01491,0.0102 -0.04047,0.0121 -0.05667,0.004 l -0.505739,-0.20703 c -0.01717,-0.006 -0.0339,-0.0249 -0.03728,-0.0427 l -0.140459,-0.75457 c -0.0033,-0.0178 -0.02081,-0.0323 -0.03892,-0.0323 h -0.750886 c -0.01806,0 -0.03559,0.0146 -0.03888,0.0323 l -0.140414,0.75457 c -0.0034,0.0178 -0.02006,0.037 -0.03728,0.0427 l -0.505782,0.20703 c -0.01624,0.008 -0.0418,0.006 -0.05667,-0.004 l -0.630354,-0.4326 c -0.01495,-0.0102 -0.03763,-0.008 -0.05041,0.005 l -0.530946,0.5309 c -0.01278,0.0128 -0.01491,0.0355 -0.0047,0.0504 l 0.425103,0.61952 c 0.01021,0.015 0.01181,0.0403 0.0035,0.0564 l -0.223668,0.52171 c -0.0059,0.0172 -0.02534,0.0338 -0.04318,0.0371 l -0.729496,0.13567 c -0.01784,0.003 -0.03235,0.0209 -0.03235,0.0389 l 4.4e-5,0.75085 c 0,0.0181 0.01456,0.0357 0.03235,0.039 l 0.711611,0.13242 c 0.0178,0.003 0.03683,0.0202 0.04225,0.0374 l 0.222159,0.55495 c 0.0079,0.0163 0.0061,0.0418 -0.0042,0.0567 l -0.4042,0.58904 c -0.01021,0.0149 -0.0081,0.0376 0.0047,0.0505 l 0.53099,0.5309 c 0.01278,0.0127 0.03546,0.0148 0.05041,0.005 l 0.578609,-0.39714 c 0.01491,-0.0102 0.0399,-0.011 0.05547,-0.002 l 0.255177,0.13625 c 0.01615,0.008 0.03501,0.001 0.04194,-0.0154 l 0.526153,-1.27132 c 0.007,-0.0168 0,-0.038 -0.01544,-0.0475 l -0.06386,-0.0391 c -0.01181,-0.007 -0.02783,-0.0196 -0.04039,-0.0309 -0.230369,-0.14751 -0.383209,-0.40557 -0.383209,-0.69945 0,-0.4586 0.371804,-0.83037 0.830368,-0.83037 0.458564,0 0.830324,0.37177 0.830324,0.83037 0,0.29388 -0.152796,0.55194 -0.383209,0.69945 -0.01247,0.0113 -0.02854,0.0237 -0.0403,0.0309 l -0.06386,0.0391 c -0.01535,0.009 -0.02237,0.0308 -0.01544,0.0475 l 0.526108,1.27136 c 0.0069,0.0168 0.02574,0.0237 0.04194,0.0154 l 0.255177,-0.13624 c 0.01562,-0.009 0.04056,-0.008 0.05547,0.002 l 0.578653,0.39715 c 0.01491,0.0101 0.03763,0.008 0.05037,-0.005 l 0.530989,-0.5309 c 0.01283,-0.0128 0.01491,-0.0355 0.0047,-0.0504 l -0.404245,-0.58904 c -0.01021,-0.0149 -0.01212,-0.0404 -0.0042,-0.0567 l 0.222159,-0.55496 c 0.0055,-0.0172 0.02437,-0.0342 0.04221,-0.0374 l 0.711611,-0.13242 c 0.01775,-0.003 0.03235,-0.0209 0.03235,-0.039 l 8.8e-5,-0.75084 c 4.5e-5,-0.0181 -0.01451,-0.0356 -0.03226,-0.039"
       id="path4122"
       style="fill:#ffffff;fill-opacity:1;stroke:none;stroke-width:0.0443786;stroke-opacity:1" /><rect
       style="fill:#ffffff;fill-opacity:1;stroke:none;stroke-width:0.3;stroke-linecap:round;stroke-linejoin:miter;stroke-miterlimit:0;stroke-dasharray:none;stroke-opacity:1;paint-order:stroke markers fill;stop-color:#000000"
       id="rect25839"
       width="41.115639"
       height="4.4031587"
       x="14.417356"
       y="267.21979"
       rx="0.5"
       ry="0.5" /><rect
       style="fill:#ffffff;fill-opacity:1;stroke:none;stroke-width:0.3;stroke-linecap:round;stroke-linejoin:miter;stroke-miterlimit:0;stroke-dasharray:none;stroke-opacity:1;paint-order:stroke markers fill;stop-color:#000000"
       id="rect25839-5"
       width="41.115639"
       height="4.4031587"
       x="14.417356"
       y="273.18448"
       rx="0.5"
       ry="0.5" /></g></svg>
