999
"DXF R12 Output" (www.mydxf.blogspot.com)
 0 
SECTION
 2 
HEADER
 9 
$ACADVER
 1 
AC1009
 9 
$EXTMIN
 10 
 0 
 20 
 0 
 9 
$EXTMAX
 10 
 8.5 
 20 
 11 
 0 
ENDSEC
 0 
SECTION
 2 
ENTITIES
0
LINE
8
Layer 1
10
0.793749
20
46.058400
11
-0.793749
21
44.471000
0
LINE
8
Layer 1
10
0.000000
20
46.587600
11
0.000000
21
43.941800
0
LINE
8
Layer 1
10
2.116660
20
44.206400
11
1.058330
21
43.148070
0
LINE
8
Layer 1
10
1.587500
20
44.735500
11
0.529170
21
43.677170
0
LINE
8
Layer 1
10
1.058330
20
45.264700
11
0.000000
21
44.206370
0
LINE
8
MODELSKETCH_VISIBLE
10
43.162700
20
22.392300
11
42.278436
21
21.785242
0
LINE
8
MODELSKETCH_VISIBLE
10
42.278436
20
21.785242
11
41.522706
21
21.055441
0
LINE
8
MODELSKETCH_VISIBLE
10
41.522706
20
21.055441
11
40.903695
21
20.222430
0
LINE
8
MODELSKETCH_VISIBLE
10
40.903695
20
20.222430
11
40.429588
21
19.305739
0
LINE
8
MODELSKETCH_VISIBLE
10
40.429588
20
19.305739
11
40.108567
21
18.324899
0
LINE
8
MODELSKETCH_VISIBLE
10
40.108567
20
18.324899
11
39.948819
21
17.299442
0
LINE
8
MODELSKETCH_VISIBLE
10
39.948819
20
17.299442
11
39.958526
21
16.248898
0
LINE
8
MODELSKETCH_VISIBLE
10
39.958526
20
16.248898
11
40.145873
21
15.192799
0
LINE
8
MODELSKETCH_VISIBLE
10
40.145873
20
15.192799
11
40.506149
21
14.182529
0
LINE
8
MODELSKETCH_VISIBLE
10
40.506149
20
14.182529
11
41.017998
21
13.265062
0
LINE
8
MODELSKETCH_VISIBLE
10
41.017998
20
13.265062
11
41.664638
21
12.453312
0
LINE
8
MODELSKETCH_VISIBLE
10
41.664638
20
12.453312
11
42.429286
21
11.760193
0
LINE
8
MODELSKETCH_VISIBLE
10
42.429286
20
11.760193
11
43.295159
21
11.198619
0
LINE
8
MODELSKETCH_VISIBLE
10
43.295159
20
11.198619
11
44.245475
21
10.781506
0
LINE
8
MODELSKETCH_VISIBLE
10
44.245475
20
10.781506
11
45.263449
21
10.521768
0
LINE
8
MODELSKETCH_VISIBLE
10
45.263449
20
10.521768
11
46.332300
21
10.432318
0
LINE
8
MODELSKETCH_VISIBLE
10
46.332300
20
10.432318
11
47.401151
21
10.521768
0
LINE
8
MODELSKETCH_VISIBLE
10
47.401151
20
10.521768
11
48.419125
21
10.781506
0
LINE
8
MODELSKETCH_VISIBLE
10
48.419125
20
10.781506
11
49.369441
21
11.198619
0
LINE
8
MODELSKETCH_VISIBLE
10
49.369441
20
11.198619
11
50.235314
21
11.760193
0
LINE
8
MODELSKETCH_VISIBLE
10
50.235314
20
11.760193
11
50.999962
21
12.453312
0
LINE
8
MODELSKETCH_VISIBLE
10
50.999962
20
12.453312
11
51.646602
21
13.265062
0
LINE
8
MODELSKETCH_VISIBLE
10
51.646602
20
13.265062
11
52.158451
21
14.182529
0
LINE
8
MODELSKETCH_VISIBLE
10
52.158451
20
14.182529
11
52.518727
21
15.192799
0
LINE
8
MODELSKETCH_VISIBLE
10
52.518727
20
15.192799
11
52.706074
21
16.248898
0
LINE
8
MODELSKETCH_VISIBLE
10
52.706074
20
16.248898
11
52.715781
21
17.299442
0
LINE
8
MODELSKETCH_VISIBLE
10
52.715781
20
17.299442
11
52.556033
21
18.324899
0
LINE
8
MODELSKETCH_VISIBLE
10
52.556033
20
18.324899
11
52.235012
21
19.305739
0
LINE
8
MODELSKETCH_VISIBLE
10
52.235012
20
19.305739
11
51.760905
21
20.222430
0
LINE
8
MODELSKETCH_VISIBLE
10
51.760905
20
20.222430
11
51.141894
21
21.055441
0
LINE
8
MODELSKETCH_VISIBLE
10
51.141894
20
21.055441
11
50.386164
21
21.785242
0
LINE
8
MODELSKETCH_VISIBLE
10
50.386164
20
21.785242
11
49.501900
21
22.392300
0
LINE
8
MODELSKETCH_VISIBLE
10
43.162700
20
22.391700
11
49.501900
21
22.391700
0
LINE
8
MODELSKETCH_VISIBLE
10
24.862700
20
22.391700
11
31.201900
21
22.391700
0
LINE
8
MODELSKETCH_VISIBLE
10
16.832300
20
17.932400
11
16.571318
21
19.215064
0
LINE
8
MODELSKETCH_VISIBLE
10
16.571318
20
19.215064
11
15.863725
21
20.262138
0
LINE
8
MODELSKETCH_VISIBLE
10
15.863725
20
20.262138
11
14.815421
21
20.967907
0
LINE
8
MODELSKETCH_VISIBLE
10
14.815421
20
20.967907
11
13.532305
21
21.226655
0
LINE
8
MODELSKETCH_VISIBLE
10
13.532305
20
21.226655
11
12.249189
21
20.967907
0
LINE
8
MODELSKETCH_VISIBLE
10
12.249189
20
20.967907
11
11.200885
21
20.262138
0
LINE
8
MODELSKETCH_VISIBLE
10
11.200885
20
20.262138
11
10.493292
21
19.215064
0
LINE
8
MODELSKETCH_VISIBLE
10
10.493292
20
19.215064
11
10.232310
21
17.932400
0
LINE
8
MODELSKETCH_VISIBLE
10
10.232310
20
17.932400
11
10.493292
21
16.649736
0
LINE
8
MODELSKETCH_VISIBLE
10
10.493292
20
16.649736
11
11.200885
21
15.602662
0
LINE
8
MODELSKETCH_VISIBLE
10
11.200885
20
15.602662
11
12.249189
21
14.896893
0
LINE
8
MODELSKETCH_VISIBLE
10
12.249189
20
14.896893
11
13.532305
21
14.638145
0
LINE
8
MODELSKETCH_VISIBLE
10
13.532305
20
14.638145
11
14.815421
21
14.896893
0
LINE
8
MODELSKETCH_VISIBLE
10
14.815421
20
14.896893
11
15.863725
21
15.602662
0
LINE
8
MODELSKETCH_VISIBLE
10
15.863725
20
15.602662
11
16.571318
21
16.649736
0
LINE
8
MODELSKETCH_VISIBLE
10
16.571318
20
16.649736
11
16.832300
21
17.932400
0
LINE
8
MODELSKETCH_VISIBLE
10
16.832300
20
17.932400
11
16.832300
21
17.932400
0
LINE
8
MODELSKETCH_VISIBLE
10
24.862700
20
22.392300
11
23.978436
21
21.785242
0
LINE
8
MODELSKETCH_VISIBLE
10
23.978436
20
21.785242
11
23.222706
21
21.055441
0
LINE
8
MODELSKETCH_VISIBLE
10
23.222706
20
21.055441
11
22.603695
21
20.222430
0
LINE
8
MODELSKETCH_VISIBLE
10
22.603695
20
20.222430
11
22.129588
21
19.305739
0
LINE
8
MODELSKETCH_VISIBLE
10
22.129588
20
19.305739
11
21.808567
21
18.324899
0
LINE
8
MODELSKETCH_VISIBLE
10
21.808567
20
18.324899
11
21.648819
21
17.299442
0
LINE
8
MODELSKETCH_VISIBLE
10
21.648819
20
17.299442
11
21.658526
21
16.248898
0
LINE
8
MODELSKETCH_VISIBLE
10
21.658526
20
16.248898
11
21.845873
21
15.192799
0
LINE
8
MODELSKETCH_VISIBLE
10
21.845873
20
15.192799
11
22.206149
21
14.182529
0
LINE
8
MODELSKETCH_VISIBLE
10
22.206149
20
14.182529
11
22.717998
21
13.265062
0
LINE
8
MODELSKETCH_VISIBLE
10
22.717998
20
13.265062
11
23.364638
21
12.453312
0
LINE
8
MODELSKETCH_VISIBLE
10
23.364638
20
12.453312
11
24.129286
21
11.760193
0
LINE
8
MODELSKETCH_VISIBLE
10
24.129286
20
11.760193
11
24.995159
21
11.198619
0
LINE
8
MODELSKETCH_VISIBLE
10
24.995159
20
11.198619
11
25.945475
21
10.781506
0
LINE
8
MODELSKETCH_VISIBLE
10
25.945475
20
10.781506
11
26.963449
21
10.521768
0
LINE
8
MODELSKETCH_VISIBLE
10
26.963449
20
10.521768
11
28.032300
21
10.432318
0
LINE
8
MODELSKETCH_VISIBLE
10
28.032300
20
10.432318
11
29.101151
21
10.521768
0
LINE
8
MODELSKETCH_VISIBLE
10
29.101151
20
10.521768
11
30.119125
21
10.781506
0
LINE
8
MODELSKETCH_VISIBLE
10
30.119125
20
10.781506
11
31.069441
21
11.198619
0
LINE
8
MODELSKETCH_VISIBLE
10
31.069441
20
11.198619
11
31.935314
21
11.760193
0
LINE
8
MODELSKETCH_VISIBLE
10
31.935314
20
11.760193
11
32.699962
21
12.453312
0
LINE
8
MODELSKETCH_VISIBLE
10
32.699962
20
12.453312
11
33.346602
21
13.265062
0
LINE
8
MODELSKETCH_VISIBLE
10
33.346602
20
13.265062
11
33.858451
21
14.182529
0
LINE
8
MODELSKETCH_VISIBLE
10
33.858451
20
14.182529
11
34.218727
21
15.192799
0
LINE
8
MODELSKETCH_VISIBLE
10
34.218727
20
15.192799
11
34.406074
21
16.248898
0
LINE
8
MODELSKETCH_VISIBLE
10
34.406074
20
16.248898
11
34.415781
21
17.299442
0
LINE
8
MODELSKETCH_VISIBLE
10
34.415781
20
17.299442
11
34.256033
21
18.324899
0
LINE
8
MODELSKETCH_VISIBLE
10
34.256033
20
18.324899
11
33.935012
21
19.305739
0
LINE
8
MODELSKETCH_VISIBLE
10
33.935012
20
19.305739
11
33.460905
21
20.222430
0
LINE
8
MODELSKETCH_VISIBLE
10
33.460905
20
20.222430
11
32.841894
21
21.055441
0
LINE
8
MODELSKETCH_VISIBLE
10
32.841894
20
21.055441
11
32.086164
21
21.785242
0
LINE
8
MODELSKETCH_VISIBLE
10
32.086164
20
21.785242
11
31.201900
21
22.392300
0
LINE
8
MODELSKETCH_VISIBLE
10
65.732300
20
6.432360
11
65.544736
21
7.132360
0
LINE
8
MODELSKETCH_VISIBLE
10
65.544736
20
7.132360
11
65.032300
21
7.644796
0
LINE
8
MODELSKETCH_VISIBLE
10
65.032300
20
7.644796
11
64.332300
21
7.832360
0
LINE
8
MODELSKETCH_VISIBLE
10
64.332300
20
7.832360
11
63.632300
21
7.644796
0
LINE
8
MODELSKETCH_VISIBLE
10
63.632300
20
7.644796
11
63.119864
21
7.132360
0
LINE
8
MODELSKETCH_VISIBLE
10
63.119864
20
7.132360
11
62.932300
21
6.432360
0
LINE
8
MODELSKETCH_VISIBLE
10
62.932300
20
6.432360
11
63.119864
21
5.732360
0
LINE
8
MODELSKETCH_VISIBLE
10
63.119864
20
5.732360
11
63.632300
21
5.219924
0
LINE
8
MODELSKETCH_VISIBLE
10
63.632300
20
5.219924
11
64.332300
21
5.032360
0
LINE
8
MODELSKETCH_VISIBLE
10
64.332300
20
5.032360
11
65.032300
21
5.219924
0
LINE
8
MODELSKETCH_VISIBLE
10
65.032300
20
5.219924
11
65.544736
21
5.732360
0
LINE
8
MODELSKETCH_VISIBLE
10
65.544736
20
5.732360
11
65.732300
21
6.432360
0
LINE
8
MODELSKETCH_VISIBLE
10
65.732300
20
6.432360
11
65.732300
21
6.432360
0
LINE
8
MODELSKETCH_VISIBLE
10
0.132351
20
9.132370
11
0.232937
21
7.712058
0
LINE
8
MODELSKETCH_VISIBLE
10
0.232937
20
7.712058
11
0.562038
21
6.207370
0
LINE
8
MODELSKETCH_VISIBLE
10
0.562038
20
6.207370
11
1.160671
21
4.702682
0
LINE
8
MODELSKETCH_VISIBLE
10
1.160671
20
4.702682
11
2.069850
21
3.282370
0
LINE
8
MODELSKETCH_VISIBLE
10
2.069850
20
3.282370
11
3.330591
21
2.030807
0
LINE
8
MODELSKETCH_VISIBLE
10
3.330591
20
2.030807
11
4.983909
21
1.032370
0
LINE
8
MODELSKETCH_VISIBLE
10
4.983909
20
1.032370
11
7.070821
21
0.371432
0
LINE
8
MODELSKETCH_VISIBLE
10
7.070821
20
0.371432
11
9.632341
21
0.132370
0
LINE
8
MODELSKETCH_VISIBLE
10
70.632400
20
0.132291
11
9.632230
21
0.132291
0
LINE
8
MODELSKETCH_VISIBLE
10
0.132351
20
36.632300
11
0.335476
21
37.858862
0
LINE
8
MODELSKETCH_VISIBLE
10
0.335476
20
37.858862
11
0.913599
21
39.226048
0
LINE
8
MODELSKETCH_VISIBLE
10
0.913599
20
39.226048
11
1.819848
21
40.640109
0
LINE
8
MODELSKETCH_VISIBLE
10
1.819848
20
40.640109
11
3.007346
21
42.007295
0
LINE
8
MODELSKETCH_VISIBLE
10
3.007346
20
42.007295
11
4.429219
21
43.233856
0
LINE
8
MODELSKETCH_VISIBLE
10
4.429219
20
43.233856
11
6.038593
21
44.226042
0
LINE
8
MODELSKETCH_VISIBLE
10
6.038593
20
44.226042
11
7.788591
21
44.890103
0
LINE
8
MODELSKETCH_VISIBLE
10
7.788591
20
44.890103
11
9.632341
21
45.132290
0
LINE
8
MODELSKETCH_VISIBLE
10
8.082340
20
40.732300
11
7.943614
21
41.412135
0
LINE
8
MODELSKETCH_VISIBLE
10
7.943614
20
41.412135
11
7.568302
21
41.967032
0
LINE
8
MODELSKETCH_VISIBLE
10
7.568302
20
41.967032
11
7.012510
21
42.341017
0
LINE
8
MODELSKETCH_VISIBLE
10
7.012510
20
42.341017
11
6.332345
21
42.478117
0
LINE
8
MODELSKETCH_VISIBLE
10
6.332345
20
42.478117
11
5.652180
21
42.341017
0
LINE
8
MODELSKETCH_VISIBLE
10
5.652180
20
42.341017
11
5.096388
21
41.967032
0
LINE
8
MODELSKETCH_VISIBLE
10
5.096388
20
41.967032
11
4.721076
21
41.412135
0
LINE
8
MODELSKETCH_VISIBLE
10
4.721076
20
41.412135
11
4.582350
21
40.732300
0
LINE
8
MODELSKETCH_VISIBLE
10
4.582350
20
40.732300
11
4.721076
21
40.052465
0
LINE
8
MODELSKETCH_VISIBLE
10
4.721076
20
40.052465
11
5.096388
21
39.497568
0
LINE
8
MODELSKETCH_VISIBLE
10
5.096388
20
39.497568
11
5.652180
21
39.123583
0
LINE
8
MODELSKETCH_VISIBLE
10
5.652180
20
39.123583
11
6.332345
21
38.986483
0
LINE
8
MODELSKETCH_VISIBLE
10
6.332345
20
38.986483
11
7.012510
21
39.123583
0
LINE
8
MODELSKETCH_VISIBLE
10
7.012510
20
39.123583
11
7.568302
21
39.497568
0
LINE
8
MODELSKETCH_VISIBLE
10
7.568302
20
39.497568
11
7.943614
21
40.052465
0
LINE
8
MODELSKETCH_VISIBLE
10
7.943614
20
40.052465
11
8.082340
21
40.732300
0
LINE
8
MODELSKETCH_VISIBLE
10
8.082340
20
40.732300
11
8.082340
21
40.732300
0
LINE
8
MODELSKETCH_VISIBLE
10
80.132200
20
36.632300
11
80.132200
21
9.133400
0
LINE
8
MODELSKETCH_VISIBLE
10
67.482300
20
18.232400
11
67.233144
21
19.456720
0
LINE
8
MODELSKETCH_VISIBLE
10
67.233144
20
19.456720
11
66.557706
21
20.456157
0
LINE
8
MODELSKETCH_VISIBLE
10
66.557706
20
20.456157
11
65.557067
21
21.129813
0
LINE
8
MODELSKETCH_VISIBLE
10
65.557067
20
21.129813
11
64.332305
21
21.376788
0
LINE
8
MODELSKETCH_VISIBLE
10
64.332305
20
21.376788
11
63.107543
21
21.129813
0
LINE
8
MODELSKETCH_VISIBLE
10
63.107543
20
21.129813
11
62.106904
21
20.456157
0
LINE
8
MODELSKETCH_VISIBLE
10
62.106904
20
20.456157
11
61.431466
21
19.456720
0
LINE
8
MODELSKETCH_VISIBLE
10
61.431466
20
19.456720
11
61.182310
21
18.232400
0
LINE
8
MODELSKETCH_VISIBLE
10
61.182310
20
18.232400
11
61.431466
21
17.008080
0
LINE
8
MODELSKETCH_VISIBLE
10
61.431466
20
17.008080
11
62.106904
21
16.008643
0
LINE
8
MODELSKETCH_VISIBLE
10
62.106904
20
16.008643
11
63.107543
21
15.334987
0
LINE
8
MODELSKETCH_VISIBLE
10
63.107543
20
15.334987
11
64.332305
21
15.088012
0
LINE
8
MODELSKETCH_VISIBLE
10
64.332305
20
15.088012
11
65.557067
21
15.334987
0
LINE
8
MODELSKETCH_VISIBLE
10
65.557067
20
15.334987
11
66.557706
21
16.008643
0
LINE
8
MODELSKETCH_VISIBLE
10
66.557706
20
16.008643
11
67.233144
21
17.008080
0
LINE
8
MODELSKETCH_VISIBLE
10
67.233144
20
17.008080
11
67.482300
21
18.232400
0
LINE
8
MODELSKETCH_VISIBLE
10
67.482300
20
18.232400
11
67.482300
21
18.232400
0
LINE
8
MODELSKETCH_VISIBLE
10
0.132377
20
9.133400
11
0.132377
21
36.632300
0
LINE
8
MODELSKETCH_VISIBLE
10
6.282340
20
5.132380
11
6.143614
21
5.812215
0
LINE
8
MODELSKETCH_VISIBLE
10
6.143614
20
5.812215
11
5.768302
21
6.367112
0
LINE
8
MODELSKETCH_VISIBLE
10
5.768302
20
6.367112
11
5.212510
21
6.741097
0
LINE
8
MODELSKETCH_VISIBLE
10
5.212510
20
6.741097
11
4.532345
21
6.878197
0
LINE
8
MODELSKETCH_VISIBLE
10
4.532345
20
6.878197
11
3.852180
21
6.741097
0
LINE
8
MODELSKETCH_VISIBLE
10
3.852180
20
6.741097
11
3.296388
21
6.367112
0
LINE
8
MODELSKETCH_VISIBLE
10
3.296388
20
6.367112
11
2.921076
21
5.812215
0
LINE
8
MODELSKETCH_VISIBLE
10
2.921076
20
5.812215
11
2.782350
21
5.132380
0
LINE
8
MODELSKETCH_VISIBLE
10
2.782350
20
5.132380
11
2.921076
21
4.452545
0
LINE
8
MODELSKETCH_VISIBLE
10
2.921076
20
4.452545
11
3.296388
21
3.897648
0
LINE
8
MODELSKETCH_VISIBLE
10
3.296388
20
3.897648
11
3.852180
21
3.523663
0
LINE
8
MODELSKETCH_VISIBLE
10
3.852180
20
3.523663
11
4.532345
21
3.386563
0
LINE
8
MODELSKETCH_VISIBLE
10
4.532345
20
3.386563
11
5.212510
21
3.523663
0
LINE
8
MODELSKETCH_VISIBLE
10
5.212510
20
3.523663
11
5.768302
21
3.897648
0
LINE
8
MODELSKETCH_VISIBLE
10
5.768302
20
3.897648
11
6.143614
21
4.452545
0
LINE
8
MODELSKETCH_VISIBLE
10
6.143614
20
4.452545
11
6.282340
21
5.132380
0
LINE
8
MODELSKETCH_VISIBLE
10
6.282340
20
5.132380
11
6.282340
21
5.132380
0
LINE
8
MODELSKETCH_VISIBLE
10
70.632300
20
45.132300
11
72.476047
21
44.890113
0
LINE
8
MODELSKETCH_VISIBLE
10
72.476047
20
44.890113
11
74.226044
21
44.226052
0
LINE
8
MODELSKETCH_VISIBLE
10
74.226044
20
44.226052
11
75.835417
21
43.233866
0
LINE
8
MODELSKETCH_VISIBLE
10
75.835417
20
43.233866
11
77.257291
21
42.007305
0
LINE
8
MODELSKETCH_VISIBLE
10
77.257291
20
42.007305
11
78.444791
21
40.640119
0
LINE
8
MODELSKETCH_VISIBLE
10
78.444791
20
40.640119
11
79.351040
21
39.226058
0
LINE
8
MODELSKETCH_VISIBLE
10
79.351040
20
39.226058
11
79.929165
21
37.858872
0
LINE
8
MODELSKETCH_VISIBLE
10
79.929165
20
37.858872
11
80.132290
21
36.632310
0
LINE
8
MODELSKETCH_VISIBLE
10
9.632230
20
45.132300
11
70.632400
21
45.132300
0
LINE
8
MODELSKETCH_VISIBLE
10
75.682300
20
40.732300
11
75.543574
21
41.412135
0
LINE
8
MODELSKETCH_VISIBLE
10
75.543574
20
41.412135
11
75.168262
21
41.967032
0
LINE
8
MODELSKETCH_VISIBLE
10
75.168262
20
41.967032
11
74.612470
21
42.341017
0
LINE
8
MODELSKETCH_VISIBLE
10
74.612470
20
42.341017
11
73.932305
21
42.478117
0
LINE
8
MODELSKETCH_VISIBLE
10
73.932305
20
42.478117
11
73.252140
21
42.341017
0
LINE
8
MODELSKETCH_VISIBLE
10
73.252140
20
42.341017
11
72.696348
21
41.967032
0
LINE
8
MODELSKETCH_VISIBLE
10
72.696348
20
41.967032
11
72.321036
21
41.412135
0
LINE
8
MODELSKETCH_VISIBLE
10
72.321036
20
41.412135
11
72.182310
21
40.732300
0
LINE
8
MODELSKETCH_VISIBLE
10
72.182310
20
40.732300
11
72.321036
21
40.052465
0
LINE
8
MODELSKETCH_VISIBLE
10
72.321036
20
40.052465
11
72.696348
21
39.497568
0
LINE
8
MODELSKETCH_VISIBLE
10
72.696348
20
39.497568
11
73.252140
21
39.123583
0
LINE
8
MODELSKETCH_VISIBLE
10
73.252140
20
39.123583
11
73.932305
21
38.986483
0
LINE
8
MODELSKETCH_VISIBLE
10
73.932305
20
38.986483
11
74.612470
21
39.123583
0
LINE
8
MODELSKETCH_VISIBLE
10
74.612470
20
39.123583
11
75.168262
21
39.497568
0
LINE
8
MODELSKETCH_VISIBLE
10
75.168262
20
39.497568
11
75.543574
21
40.052465
0
LINE
8
MODELSKETCH_VISIBLE
10
75.543574
20
40.052465
11
75.682300
21
40.732300
0
LINE
8
MODELSKETCH_VISIBLE
10
75.682300
20
40.732300
11
75.682300
21
40.732300
0
LINE
8
MODELSKETCH_VISIBLE
10
77.482300
20
5.132380
11
77.343574
21
5.812215
0
LINE
8
MODELSKETCH_VISIBLE
10
77.343574
20
5.812215
11
76.968262
21
6.367112
0
LINE
8
MODELSKETCH_VISIBLE
10
76.968262
20
6.367112
11
76.412470
21
6.741097
0
LINE
8
MODELSKETCH_VISIBLE
10
76.412470
20
6.741097
11
75.732305
21
6.878197
0
LINE
8
MODELSKETCH_VISIBLE
10
75.732305
20
6.878197
11
75.052140
21
6.741097
0
LINE
8
MODELSKETCH_VISIBLE
10
75.052140
20
6.741097
11
74.496348
21
6.367112
0
LINE
8
MODELSKETCH_VISIBLE
10
74.496348
20
6.367112
11
74.121036
21
5.812215
0
LINE
8
MODELSKETCH_VISIBLE
10
74.121036
20
5.812215
11
73.982310
21
5.132380
0
LINE
8
MODELSKETCH_VISIBLE
10
73.982310
20
5.132380
11
74.121036
21
4.452545
0
LINE
8
MODELSKETCH_VISIBLE
10
74.121036
20
4.452545
11
74.496348
21
3.897648
0
LINE
8
MODELSKETCH_VISIBLE
10
74.496348
20
3.897648
11
75.052140
21
3.523663
0
LINE
8
MODELSKETCH_VISIBLE
10
75.052140
20
3.523663
11
75.732305
21
3.386563
0
LINE
8
MODELSKETCH_VISIBLE
10
75.732305
20
3.386563
11
76.412470
21
3.523663
0
LINE
8
MODELSKETCH_VISIBLE
10
76.412470
20
3.523663
11
76.968262
21
3.897648
0
LINE
8
MODELSKETCH_VISIBLE
10
76.968262
20
3.897648
11
77.343574
21
4.452545
0
LINE
8
MODELSKETCH_VISIBLE
10
77.343574
20
4.452545
11
77.482300
21
5.132380
0
LINE
8
MODELSKETCH_VISIBLE
10
77.482300
20
5.132380
11
77.482300
21
5.132380
0
LINE
8
MODELSKETCH_VISIBLE
10
80.132200
20
9.132370
11
80.031614
21
7.712058
0
LINE
8
MODELSKETCH_VISIBLE
10
80.031614
20
7.712058
11
79.702513
21
6.207370
0
LINE
8
MODELSKETCH_VISIBLE
10
79.702513
20
6.207370
11
79.103880
21
4.702682
0
LINE
8
MODELSKETCH_VISIBLE
10
79.103880
20
4.702682
11
78.194701
21
3.282370
0
LINE
8
MODELSKETCH_VISIBLE
10
78.194701
20
3.282370
11
76.933960
21
2.030807
0
LINE
8
MODELSKETCH_VISIBLE
10
76.933960
20
2.030807
11
75.280642
21
1.032370
0
LINE
8
MODELSKETCH_VISIBLE
10
75.280642
20
1.032370
11
73.193730
21
0.371432
0
LINE
8
MODELSKETCH_VISIBLE
10
73.193730
20
0.371432
11
70.632210
21
0.132370
0
LINE
8
Layer 1
10
10.639800
20
28.368400
11
9.935660
21
28.368400
0
LINE
8
Layer 1
10
9.935660
20
28.368400
11
9.752381
21
27.968086
0
LINE
8
Layer 1
10
9.752381
20
27.968086
11
9.484700
21
27.968100
0
LINE
8
Layer 1
10
9.484700
20
27.968100
11
10.299809
21
29.718900
0
LINE
8
Layer 1
10
10.299809
20
29.718900
11
11.084771
21
27.968100
0
LINE
8
Layer 1
10
11.084771
20
27.968100
11
10.813500
21
27.968100
0
LINE
8
Layer 1
10
10.813500
20
27.968100
11
10.639800
21
28.368400
0
LINE
8
Layer 1
10
10.539721
20
28.602318
11
10.294947
21
29.161805
0
LINE
8
Layer 1
10
10.294947
20
29.161805
11
10.039320
21
28.602318
0
LINE
8
Layer 1
10
10.039320
20
28.602318
11
10.539721
21
28.602318
0
LINE
8
Layer 1
10
11.317400
20
27.968100
11
11.317400
21
29.614000
0
LINE
8
Layer 1
10
11.317400
20
29.614000
11
11.663500
21
29.614000
0
LINE
8
Layer 1
10
11.663500
20
29.614000
11
12.079496
21
29.557326
0
LINE
8
Layer 1
10
12.079496
20
29.557326
11
12.488256
21
29.207653
0
LINE
8
Layer 1
10
12.488256
20
29.207653
11
12.589541
21
28.791649
0
LINE
8
Layer 1
10
12.589541
20
28.791649
11
12.507247
21
28.411232
0
LINE
8
Layer 1
10
12.507247
20
28.411232
11
12.260363
21
28.126064
0
LINE
8
Layer 1
10
12.260363
20
28.126064
11
11.933598
21
27.986179
0
LINE
8
Layer 1
10
11.933598
20
27.986179
11
11.658678
21
27.968188
0
LINE
8
Layer 1
10
11.658678
20
27.968188
11
11.317400
21
27.968100
0
LINE
8
Layer 1
10
11.565791
20
28.202018
11
11.677900
21
28.202000
0
LINE
8
Layer 1
10
11.677900
20
28.202000
11
11.927497
21
28.228538
0
LINE
8
Layer 1
10
11.927497
20
28.228538
11
12.114393
21
28.320163
0
LINE
8
Layer 1
10
12.114393
20
28.320163
11
12.279585
21
28.522728
0
LINE
8
Layer 1
10
12.279585
20
28.522728
11
12.338669
21
28.790433
0
LINE
8
Layer 1
10
12.338669
20
28.790433
11
12.228941
21
29.148546
0
LINE
8
Layer 1
10
12.228941
20
29.148546
11
11.932320
21
29.352301
0
LINE
8
Layer 1
10
11.932320
20
29.352301
11
11.677900
21
29.380056
0
LINE
8
Layer 1
10
11.677900
20
29.380056
11
11.565800
21
29.380100
0
LINE
8
Layer 1
10
11.565800
20
29.380100
11
11.565791
21
28.202018
0
LINE
8
Layer 1
10
13.366000
20
29.614000
11
13.366000
21
28.549300
0
LINE
8
Layer 1
10
13.366000
20
28.549300
11
13.337060
21
28.255084
0
LINE
8
Layer 1
10
13.337060
20
28.255084
11
13.148957
21
27.997063
0
LINE
8
Layer 1
10
13.148957
20
27.997063
11
12.918653
21
27.936765
0
LINE
8
Layer 1
10
12.918653
20
27.936765
11
12.626855
21
28.019949
0
LINE
8
Layer 1
10
12.626855
20
28.019949
11
12.749844
21
28.230980
0
LINE
8
Layer 1
10
12.749844
20
28.230980
11
12.918653
21
28.170682
0
LINE
8
Layer 1
10
12.918653
20
28.170682
11
13.092286
21
28.294877
0
LINE
8
Layer 1
10
13.092286
20
28.294877
11
13.117607
21
28.549300
0
LINE
8
Layer 1
10
13.117607
20
28.549300
11
13.117600
21
29.614000
0
LINE
8
Layer 1
10
13.117600
20
29.614000
11
13.366000
21
29.614000
0
LINE
8
Layer 1
10
14.036300
20
29.614000
11
14.036300
21
28.622800
0
LINE
8
Layer 1
10
14.036300
20
28.622800
11
14.054387
21
28.422643
0
LINE
8
Layer 1
10
14.054387
20
28.422643
11
14.172553
21
28.244182
0
LINE
8
Layer 1
10
14.172553
20
28.244182
11
14.396828
21
28.170628
0
LINE
8
Layer 1
10
14.396828
20
28.170628
11
14.645219
21
28.264687
0
LINE
8
Layer 1
10
14.645219
20
28.264687
11
14.746505
21
28.452779
0
LINE
8
Layer 1
10
14.746505
20
28.452779
11
14.757358
21
28.622800
0
LINE
8
Layer 1
10
14.757358
20
28.622800
11
14.757400
21
29.614000
0
LINE
8
Layer 1
10
14.757400
20
29.614000
11
15.005800
21
29.614000
0
LINE
8
Layer 1
10
15.005800
20
29.614000
11
15.005800
21
28.555300
0
LINE
8
Layer 1
10
15.005800
20
28.555300
11
14.880399
21
28.167024
0
LINE
8
Layer 1
10
14.880399
20
28.167024
11
14.665770
21
27.998220
0
LINE
8
Layer 1
10
14.665770
20
27.998220
11
14.396881
21
27.936731
0
LINE
8
Layer 1
10
14.396881
20
27.936731
11
14.032735
21
28.053677
0
LINE
8
Layer 1
10
14.032735
20
28.053677
11
13.787961
21
28.555300
0
LINE
8
Layer 1
10
13.787961
20
28.555300
11
13.787900
21
29.614000
0
LINE
8
Layer 1
10
13.787900
20
29.614000
11
14.036300
21
29.614000
0
LINE
8
Layer 1
10
16.358600
20
29.369200
11
16.157234
21
29.249820
0
LINE
8
Layer 1
10
16.157234
20
29.249820
11
16.078858
21
29.353510
0
LINE
8
Layer 1
10
16.078858
20
29.353510
11
15.912460
21
29.411401
0
LINE
8
Layer 1
10
15.912460
20
29.411401
11
15.736416
21
29.349885
0
LINE
8
Layer 1
10
15.736416
20
29.349885
11
15.671304
21
29.206402
0
LINE
8
Layer 1
10
15.671304
20
29.206402
11
15.749680
21
29.070142
0
LINE
8
Layer 1
10
15.749680
20
29.070142
11
15.850966
21
29.013469
0
LINE
8
Layer 1
10
15.850966
20
29.013469
11
16.014952
21
28.947164
0
LINE
8
Layer 1
10
16.014952
20
28.947164
11
16.309163
21
28.747007
0
LINE
8
Layer 1
10
16.309163
20
28.747007
11
16.400802
21
28.463639
0
LINE
8
Layer 1
10
16.400802
20
28.463639
11
16.233198
21
28.070548
0
LINE
8
Layer 1
10
16.233198
20
28.070548
11
15.871464
21
27.936722
0
LINE
8
Layer 1
10
15.871464
20
27.936722
11
15.441000
21
28.156167
0
LINE
8
Layer 1
10
15.441000
20
28.156167
11
15.345743
21
28.422655
0
LINE
8
Layer 1
10
15.345743
20
28.422655
11
15.596545
21
28.478112
0
LINE
8
Layer 1
10
15.596545
20
28.478112
11
15.643571
21
28.297243
0
LINE
8
Layer 1
10
15.643571
20
28.297243
11
15.740033
21
28.204400
0
LINE
8
Layer 1
10
15.740033
20
28.204400
11
15.881109
21
28.170640
0
LINE
8
Layer 1
10
15.881109
20
28.170640
11
16.083680
21
28.259857
0
LINE
8
Layer 1
10
16.083680
20
28.259857
11
16.151204
21
28.445568
0
LINE
8
Layer 1
10
16.151204
20
28.445568
11
16.036655
21
28.661388
0
LINE
8
Layer 1
10
16.036655
20
28.661388
11
15.916077
21
28.725311
0
LINE
8
Layer 1
10
15.916077
20
28.725311
11
15.756914
21
28.792833
0
LINE
8
Layer 1
10
15.756914
20
28.792833
11
15.503700
21
28.968264
0
LINE
8
Layer 1
10
15.503700
20
28.968264
11
15.419295
21
29.210027
0
LINE
8
Layer 1
10
15.419295
20
29.210027
11
15.607397
21
29.554884
0
LINE
8
Layer 1
10
15.607397
20
29.554884
11
15.913666
21
29.645318
0
LINE
8
Layer 1
10
15.913666
20
29.645318
11
16.231993
21
29.531971
0
LINE
8
Layer 1
10
16.231993
20
29.531971
11
16.358600
21
29.369200
0
LINE
8
Layer 1
10
16.358600
20
29.369200
11
16.358600
21
29.369200
0
LINE
8
Layer 1
10
17.202600
20
29.380100
11
17.202600
21
27.968100
0
LINE
8
Layer 1
10
17.202600
20
27.968100
11
16.954200
21
27.968100
0
LINE
8
Layer 1
10
16.954200
20
27.968100
11
16.954200
21
29.380100
0
LINE
8
Layer 1
10
16.954200
20
29.380100
11
16.575600
21
29.380100
0
LINE
8
Layer 1
10
16.575600
20
29.380100
11
16.575600
21
29.614000
0
LINE
8
Layer 1
10
16.575600
20
29.614000
11
17.580000
21
29.614000
0
LINE
8
Layer 1
10
17.580000
20
29.614000
11
17.580000
21
29.380100
0
LINE
8
Layer 1
10
17.580000
20
29.380100
11
17.202600
21
29.380100
0
LINE
8
Layer 1
10
24.925100
20
28.636100
11
24.925100
21
27.968100
0
LINE
8
Layer 1
10
24.925100
20
27.968100
11
24.676800
21
27.968100
0
LINE
8
Layer 1
10
24.676800
20
27.968100
11
24.676800
21
29.614000
0
LINE
8
Layer 1
10
24.676800
20
29.614000
11
24.957700
21
29.614000
0
LINE
8
Layer 1
10
24.957700
20
29.614000
11
25.283261
21
29.581430
0
LINE
8
Layer 1
10
25.283261
20
29.581430
11
25.546122
21
29.353545
0
LINE
8
Layer 1
10
25.546122
20
29.353545
11
25.600382
21
29.125660
0
LINE
8
Layer 1
10
25.600382
20
29.125660
11
25.456894
21
28.775987
0
LINE
8
Layer 1
10
25.456894
20
28.775987
11
25.040899
21
28.636102
0
LINE
8
Layer 1
10
25.040899
20
28.636102
11
24.925100
21
28.636100
0
LINE
8
Layer 1
10
24.925100
20
28.866420
11
25.018000
21
28.866400
0
LINE
8
Layer 1
10
25.018000
20
28.866400
11
25.276037
21
28.932704
0
LINE
8
Layer 1
10
25.276037
20
28.932704
11
25.360442
21
29.129237
0
LINE
8
Layer 1
10
25.360442
20
29.129237
11
25.267596
21
29.325796
0
LINE
8
Layer 1
10
25.267596
20
29.325796
11
25.007147
21
29.384877
0
LINE
8
Layer 1
10
25.007147
20
29.384877
11
24.925100
21
29.384900
0
LINE
8
Layer 1
10
24.925100
20
29.384900
11
24.925100
21
28.866420
0
LINE
8
Layer 1
10
26.439500
20
28.669800
11
26.949546
21
27.968047
0
LINE
8
Layer 1
10
26.949546
20
27.968047
11
26.645700
21
27.968100
0
LINE
8
Layer 1
10
26.645700
20
27.968100
11
26.175445
21
28.642125
0
LINE
8
Layer 1
10
26.175445
20
28.642125
11
26.130900
21
28.642100
0
LINE
8
Layer 1
10
26.130900
20
28.642100
11
26.130900
21
27.968100
0
LINE
8
Layer 1
10
26.130900
20
27.968100
11
25.882500
21
27.968100
0
LINE
8
Layer 1
10
25.882500
20
27.968100
11
25.882500
21
29.614000
0
LINE
8
Layer 1
10
25.882500
20
29.614000
11
26.173100
21
29.614000
0
LINE
8
Layer 1
10
26.173100
20
29.614000
11
26.431137
21
29.592304
0
LINE
8
Layer 1
10
26.431137
20
29.592304
11
26.607181
21
29.518777
0
LINE
8
Layer 1
10
26.607181
20
29.518777
11
26.753081
21
29.348756
0
LINE
8
Layer 1
10
26.753081
20
29.348756
11
26.803724
21
29.130501
0
LINE
8
Layer 1
10
26.803724
20
29.130501
11
26.741023
21
28.889334
0
LINE
8
Layer 1
10
26.741023
20
28.889334
11
26.439578
21
28.669889
0
LINE
8
Layer 1
10
26.439578
20
28.669889
11
26.439500
21
28.669800
0
LINE
8
Layer 1
10
26.130820
20
28.859109
11
26.210400
21
28.859200
0
LINE
8
Layer 1
10
26.210400
20
28.859200
11
26.457585
21
28.918281
0
LINE
8
Layer 1
10
26.457585
20
28.918281
11
26.561282
21
29.128095
0
LINE
8
Layer 1
10
26.561282
20
29.128095
11
26.464820
21
29.323437
0
LINE
8
Layer 1
10
26.464820
20
29.323437
11
26.218841
21
29.380111
0
LINE
8
Layer 1
10
26.218841
20
29.380111
11
26.130900
21
29.380100
0
LINE
8
Layer 1
10
26.130900
20
29.380100
11
26.130820
21
28.859109
0
LINE
8
Layer 1
10
27.980500
20
29.645300
11
28.313296
21
29.571746
0
LINE
8
Layer 1
10
28.313296
20
29.571746
11
28.596655
21
29.365556
0
LINE
8
Layer 1
10
28.596655
20
29.365556
11
28.823342
21
28.789188
0
LINE
8
Layer 1
10
28.823342
20
28.789188
11
28.749789
21
28.444331
0
LINE
8
Layer 1
10
28.749789
20
28.444331
11
28.541189
21
28.159772
0
LINE
8
Layer 1
10
28.541189
20
28.159772
11
27.961208
21
27.936702
0
LINE
8
Layer 1
10
27.961208
20
27.936702
11
27.605502
21
28.013881
0
LINE
8
Layer 1
10
27.605502
20
28.013881
11
27.310086
21
28.228511
0
LINE
8
Layer 1
10
27.310086
20
28.228511
11
27.102692
21
28.790406
0
LINE
8
Layer 1
10
27.102692
20
28.790406
11
27.365552
21
29.401725
0
LINE
8
Layer 1
10
27.365552
20
29.401725
11
27.980501
21
29.645300
0
LINE
8
Layer 1
10
27.980501
20
29.645300
11
27.980500
21
29.645300
0
LINE
8
Layer 1
10
27.953973
20
29.411382
11
27.496982
21
29.194318
0
LINE
8
Layer 1
10
27.496982
20
29.194318
11
27.353494
21
28.784373
0
LINE
8
Layer 1
10
27.353494
20
28.784373
11
27.536773
21
28.345456
0
LINE
8
Layer 1
10
27.536773
20
28.345456
11
27.963619
21
28.170620
0
LINE
8
Layer 1
10
27.963619
20
28.170620
11
28.216833
21
28.227294
0
LINE
8
Layer 1
10
28.216833
20
28.227294
11
28.426639
21
28.385250
0
LINE
8
Layer 1
10
28.426639
20
28.385250
11
28.572539
21
28.795221
0
LINE
8
Layer 1
10
28.572539
20
28.795221
11
28.397701
21
29.232921
0
LINE
8
Layer 1
10
28.397701
20
29.232921
11
27.953973
21
29.411382
0
LINE
8
Layer 1
10
27.953973
20
29.411382
11
27.953973
21
29.411382
0
LINE
8
Layer 1
10
29.162100
20
27.968100
11
29.162100
21
29.614000
0
LINE
8
Layer 1
10
29.162100
20
29.614000
11
29.409200
21
29.614000
0
LINE
8
Layer 1
10
29.409200
20
29.614000
11
29.646739
21
29.594685
0
LINE
8
Layer 1
10
29.646739
20
29.594685
11
29.804696
21
29.529571
0
LINE
8
Layer 1
10
29.804696
20
29.529571
11
29.945772
21
29.355925
0
LINE
8
Layer 1
10
29.945772
20
29.355925
11
29.991592
21
29.154577
0
LINE
8
Layer 1
10
29.991592
20
29.154577
11
29.856545
21
28.854328
0
LINE
8
Layer 1
10
29.856545
20
28.854328
11
30.007268
21
28.765085
0
LINE
8
Layer 1
10
30.007268
20
28.765085
11
30.139904
21
28.439542
0
LINE
8
Layer 1
10
30.139904
20
28.439542
11
29.974712
21
28.086244
0
LINE
8
Layer 1
10
29.974712
20
28.086244
11
29.789022
21
27.990994
0
LINE
8
Layer 1
10
29.789022
20
27.990994
11
29.538220
21
27.967975
0
LINE
8
Layer 1
10
29.538220
20
27.967975
11
29.162100
21
27.968100
0
LINE
8
Layer 1
10
29.410491
20
28.907396
11
29.487600
21
28.907400
0
LINE
8
Layer 1
10
29.487600
20
28.907400
11
29.686554
21
28.965291
0
LINE
8
Layer 1
10
29.686554
20
28.965291
11
29.756489
21
29.149758
0
LINE
8
Layer 1
10
29.756489
20
29.149758
11
29.687760
21
29.328219
0
LINE
8
Layer 1
10
29.687760
20
29.328219
11
29.497246
21
29.386110
0
LINE
8
Layer 1
10
29.497246
20
29.386110
11
29.410500
21
29.386100
0
LINE
8
Layer 1
10
29.410500
20
29.386100
11
29.410491
21
28.907396
0
LINE
8
Layer 1
10
29.410491
20
28.202018
11
29.564800
21
28.202000
0
LINE
8
Layer 1
10
29.564800
20
28.202000
11
29.792693
21
28.253858
0
LINE
8
Layer 1
10
29.792693
20
28.253858
11
29.867452
21
28.337043
0
LINE
8
Layer 1
10
29.867452
20
28.337043
11
29.895185
21
28.449173
0
LINE
8
Layer 1
10
29.895185
20
28.449173
11
29.867452
21
28.558922
0
LINE
8
Layer 1
10
29.867452
20
28.558922
11
29.793899
21
28.644515
0
LINE
8
Layer 1
10
29.793899
20
28.644515
11
29.535862
21
28.698781
0
LINE
8
Layer 1
10
29.535862
20
28.698781
11
29.410500
21
28.698800
0
LINE
8
Layer 1
10
29.410500
20
28.698800
11
29.410491
21
28.202018
0
LINE
8
Layer 1
10
31.387900
20
29.380100
11
30.727100
21
29.380100
0
LINE
8
Layer 1
10
30.727100
20
29.380100
11
30.727100
21
28.985800
0
LINE
8
Layer 1
10
30.727100
20
28.985800
11
31.367400
21
28.985800
0
LINE
8
Layer 1
10
31.367400
20
28.985800
11
31.367400
21
28.751800
0
LINE
8
Layer 1
10
31.367400
20
28.751800
11
30.727100
21
28.751800
0
LINE
8
Layer 1
10
30.727100
20
28.751800
11
30.727100
21
28.202000
0
LINE
8
Layer 1
10
30.727100
20
28.202000
11
31.387900
21
28.202000
0
LINE
8
Layer 1
10
31.387900
20
28.202000
11
31.387900
21
27.968100
0
LINE
8
Layer 1
10
31.387900
20
27.968100
11
30.478700
21
27.968100
0
LINE
8
Layer 1
10
30.478700
20
27.968100
11
30.478700
21
29.614000
0
LINE
8
Layer 1
10
30.478700
20
29.614000
11
31.387900
21
29.614000
0
LINE
8
Layer 1
10
31.387900
20
29.614000
11
31.387900
21
29.380100
0
LINE
8
Layer 1
10
43.837100
20
29.369200
11
43.635735
21
29.249820
0
LINE
8
Layer 1
10
43.635735
20
29.249820
11
43.557359
21
29.353510
0
LINE
8
Layer 1
10
43.557359
20
29.353510
11
43.390961
21
29.411401
0
LINE
8
Layer 1
10
43.390961
20
29.411401
11
43.214917
21
29.349885
0
LINE
8
Layer 1
10
43.214917
20
29.349885
11
43.149805
21
29.206402
0
LINE
8
Layer 1
10
43.149805
20
29.206402
11
43.228181
21
29.070142
0
LINE
8
Layer 1
10
43.228181
20
29.070142
11
43.329467
21
29.013469
0
LINE
8
Layer 1
10
43.329467
20
29.013469
11
43.493453
21
28.947164
0
LINE
8
Layer 1
10
43.493453
20
28.947164
11
43.787663
21
28.747007
0
LINE
8
Layer 1
10
43.787663
20
28.747007
11
43.879302
21
28.463639
0
LINE
8
Layer 1
10
43.879302
20
28.463639
11
43.711698
21
28.070548
0
LINE
8
Layer 1
10
43.711698
20
28.070548
11
43.349964
21
27.936722
0
LINE
8
Layer 1
10
43.349964
20
27.936722
11
42.919500
21
28.156167
0
LINE
8
Layer 1
10
42.919500
20
28.156167
11
42.824243
21
28.422655
0
LINE
8
Layer 1
10
42.824243
20
28.422655
11
43.075045
21
28.478112
0
LINE
8
Layer 1
10
43.075045
20
28.478112
11
43.122071
21
28.297243
0
LINE
8
Layer 1
10
43.122071
20
28.297243
11
43.218533
21
28.204400
0
LINE
8
Layer 1
10
43.218533
20
28.204400
11
43.359609
21
28.170640
0
LINE
8
Layer 1
10
43.359609
20
28.170640
11
43.562180
21
28.259857
0
LINE
8
Layer 1
10
43.562180
20
28.259857
11
43.629704
21
28.445568
0
LINE
8
Layer 1
10
43.629704
20
28.445568
11
43.515155
21
28.661388
0
LINE
8
Layer 1
10
43.515155
20
28.661388
11
43.394577
21
28.725311
0
LINE
8
Layer 1
10
43.394577
20
28.725311
11
43.235414
21
28.792833
0
LINE
8
Layer 1
10
43.235414
20
28.792833
11
42.982200
21
28.968264
0
LINE
8
Layer 1
10
42.982200
20
28.968264
11
42.897795
21
29.210027
0
LINE
8
Layer 1
10
42.897795
20
29.210027
11
43.085897
21
29.554884
0
LINE
8
Layer 1
10
43.085897
20
29.554884
11
43.392165
21
29.645318
0
LINE
8
Layer 1
10
43.392165
20
29.645318
11
43.710491
21
29.531971
0
LINE
8
Layer 1
10
43.710491
20
29.531971
11
43.837098
21
29.369200
0
LINE
8
Layer 1
10
43.837098
20
29.369200
11
43.837100
21
29.369200
0
LINE
8
Layer 1
10
45.421400
20
29.524700
11
45.421400
21
29.230500
0
LINE
8
Layer 1
10
45.421400
20
29.230500
11
45.224858
21
29.359511
0
LINE
8
Layer 1
10
45.224858
20
29.359511
11
44.976467
21
29.411369
0
LINE
8
Layer 1
10
44.976467
20
29.411369
11
44.717224
21
29.352261
0
LINE
8
Layer 1
10
44.717224
20
29.352261
11
44.511036
21
29.185865
0
LINE
8
Layer 1
10
44.511036
20
29.185865
11
44.373577
21
28.785551
0
LINE
8
Layer 1
10
44.373577
20
28.785551
11
44.573737
21
28.324938
0
LINE
8
Layer 1
10
44.573737
20
28.324938
11
44.976468
21
28.170607
0
LINE
8
Layer 1
10
44.976468
20
28.170607
11
45.274296
21
28.248977
0
LINE
8
Layer 1
10
45.274296
20
28.248977
11
45.421401
21
28.357509
0
LINE
8
Layer 1
10
45.421401
20
28.357509
11
45.421400
21
28.058500
0
LINE
8
Layer 1
10
45.421400
20
28.058500
11
44.972849
21
27.936712
0
LINE
8
Layer 1
10
44.972849
20
27.936712
11
44.615938
21
28.013891
0
LINE
8
Layer 1
10
44.615938
20
28.013891
11
44.327756
21
28.232119
0
LINE
8
Layer 1
10
44.327756
20
28.232119
11
44.122773
21
28.783166
0
LINE
8
Layer 1
10
44.122773
20
28.783166
11
44.195120
21
29.125616
0
LINE
8
Layer 1
10
44.195120
20
29.125616
11
44.397691
21
29.413800
0
LINE
8
Layer 1
10
44.397691
20
29.413800
11
44.992141
21
29.645310
0
LINE
8
Layer 1
10
44.992141
20
29.645310
11
45.421399
21
29.524713
0
LINE
8
Layer 1
10
45.421399
20
29.524713
11
45.421400
21
29.524700
0
LINE
8
Layer 1
10
46.543900
20
29.645300
11
46.876696
21
29.571746
0
LINE
8
Layer 1
10
46.876696
20
29.571746
11
47.160055
21
29.365556
0
LINE
8
Layer 1
10
47.160055
20
29.365556
11
47.386742
21
28.789188
0
LINE
8
Layer 1
10
47.386742
20
28.789188
11
47.313189
21
28.444331
0
LINE
8
Layer 1
10
47.313189
20
28.444331
11
47.104589
21
28.159772
0
LINE
8
Layer 1
10
47.104589
20
28.159772
11
46.524608
21
27.936702
0
LINE
8
Layer 1
10
46.524608
20
27.936702
11
46.168902
21
28.013881
0
LINE
8
Layer 1
10
46.168902
20
28.013881
11
45.873486
21
28.228511
0
LINE
8
Layer 1
10
45.873486
20
28.228511
11
45.666092
21
28.790406
0
LINE
8
Layer 1
10
45.666092
20
28.790406
11
45.928952
21
29.401725
0
LINE
8
Layer 1
10
45.928952
20
29.401725
11
46.543901
21
29.645300
0
LINE
8
Layer 1
10
46.543901
20
29.645300
11
46.543900
21
29.645300
0
LINE
8
Layer 1
10
46.517373
20
29.411382
11
46.060382
21
29.194318
0
LINE
8
Layer 1
10
46.060382
20
29.194318
11
45.916894
21
28.784373
0
LINE
8
Layer 1
10
45.916894
20
28.784373
11
46.100173
21
28.345456
0
LINE
8
Layer 1
10
46.100173
20
28.345456
11
46.527019
21
28.170620
0
LINE
8
Layer 1
10
46.527019
20
28.170620
11
46.780233
21
28.227294
0
LINE
8
Layer 1
10
46.780233
20
28.227294
11
46.990039
21
28.385250
0
LINE
8
Layer 1
10
46.990039
20
28.385250
11
47.135939
21
28.795221
0
LINE
8
Layer 1
10
47.135939
20
28.795221
11
46.961101
21
29.232921
0
LINE
8
Layer 1
10
46.961101
20
29.232921
11
46.517373
21
29.411382
0
LINE
8
Layer 1
10
46.517373
20
29.411382
11
46.517373
21
29.411382
0
LINE
8
Layer 1
10
47.973900
20
28.636100
11
47.973900
21
27.968100
0
LINE
8
Layer 1
10
47.973900
20
27.968100
11
47.725500
21
27.968100
0
LINE
8
Layer 1
10
47.725500
20
27.968100
11
47.725500
21
29.614000
0
LINE
8
Layer 1
10
47.725500
20
29.614000
11
48.006500
21
29.614000
0
LINE
8
Layer 1
10
48.006500
20
29.614000
11
48.332061
21
29.581430
0
LINE
8
Layer 1
10
48.332061
20
29.581430
11
48.594921
21
29.353545
0
LINE
8
Layer 1
10
48.594921
20
29.353545
11
48.649181
21
29.125660
0
LINE
8
Layer 1
10
48.649181
20
29.125660
11
48.505693
21
28.775987
0
LINE
8
Layer 1
10
48.505693
20
28.775987
11
48.089698
21
28.636102
0
LINE
8
Layer 1
10
48.089698
20
28.636102
11
47.973900
21
28.636100
0
LINE
8
Layer 1
10
47.973900
20
28.866420
11
48.066700
21
28.866400
0
LINE
8
Layer 1
10
48.066700
20
28.866400
11
48.324737
21
28.932704
0
LINE
8
Layer 1
10
48.324737
20
28.932704
11
48.409142
21
29.129237
0
LINE
8
Layer 1
10
48.409142
20
29.129237
11
48.316296
21
29.325796
0
LINE
8
Layer 1
10
48.316296
20
29.325796
11
48.055847
21
29.384877
0
LINE
8
Layer 1
10
48.055847
20
29.384877
11
47.973900
21
29.384900
0
LINE
8
Layer 1
10
47.973900
20
29.384900
11
47.973900
21
28.866420
0
LINE
8
Layer 1
10
49.840400
20
29.380100
11
49.179600
21
29.380100
0
LINE
8
Layer 1
10
49.179600
20
29.380100
11
49.179600
21
28.985800
0
LINE
8
Layer 1
10
49.179600
20
28.985800
11
49.819900
21
28.985800
0
LINE
8
Layer 1
10
49.819900
20
28.985800
11
49.819900
21
28.751800
0
LINE
8
Layer 1
10
49.819900
20
28.751800
11
49.179600
21
28.751800
0
LINE
8
Layer 1
10
49.179600
20
28.751800
11
49.179600
21
28.202000
0
LINE
8
Layer 1
10
49.179600
20
28.202000
11
49.840400
21
28.202000
0
LINE
8
Layer 1
10
49.840400
20
28.202000
11
49.840400
21
27.968100
0
LINE
8
Layer 1
10
49.840400
20
27.968100
11
48.931200
21
27.968100
0
LINE
8
Layer 1
10
48.931200
20
27.968100
11
48.931200
21
29.614000
0
LINE
8
Layer 1
10
48.931200
20
29.614000
11
49.840400
21
29.614000
0
LINE
8
Layer 1
10
49.840400
20
29.614000
11
49.840400
21
29.380100
0
LINE
8
Layer 1
10
56.376400
20
18.636800
11
56.709196
21
18.563246
0
LINE
8
Layer 1
10
56.709196
20
18.563246
11
56.992555
21
18.357056
0
LINE
8
Layer 1
10
56.992555
20
18.357056
11
57.219242
21
17.780688
0
LINE
8
Layer 1
10
57.219242
20
17.780688
11
57.145689
21
17.435857
0
LINE
8
Layer 1
10
57.145689
20
17.435857
11
56.937089
21
17.151272
0
LINE
8
Layer 1
10
56.937089
20
17.151272
11
56.357108
21
16.928202
0
LINE
8
Layer 1
10
56.357108
20
16.928202
11
56.001402
21
17.005381
0
LINE
8
Layer 1
10
56.001402
20
17.005381
11
55.705986
21
17.220011
0
LINE
8
Layer 1
10
55.705986
20
17.220011
11
55.498592
21
17.781906
0
LINE
8
Layer 1
10
55.498592
20
17.781906
11
55.761452
21
18.393225
0
LINE
8
Layer 1
10
55.761452
20
18.393225
11
56.376401
21
18.636800
0
LINE
8
Layer 1
10
56.376401
20
18.636800
11
56.376400
21
18.636800
0
LINE
8
Layer 1
10
56.349873
20
18.402882
11
55.892882
21
18.185845
0
LINE
8
Layer 1
10
55.892882
20
18.185845
11
55.749394
21
17.775874
0
LINE
8
Layer 1
10
55.749394
20
17.775874
11
55.932673
21
17.336984
0
LINE
8
Layer 1
10
55.932673
20
17.336984
11
56.359519
21
17.162121
0
LINE
8
Layer 1
10
56.359519
20
17.162121
11
56.612733
21
17.218795
0
LINE
8
Layer 1
10
56.612733
20
17.218795
11
56.822539
21
17.376751
0
LINE
8
Layer 1
10
56.822539
20
17.376751
11
56.968439
21
17.786722
0
LINE
8
Layer 1
10
56.968439
20
17.786722
11
56.793601
21
18.224422
0
LINE
8
Layer 1
10
56.793601
20
18.224422
11
56.349873
21
18.402883
0
LINE
8
Layer 1
10
56.349873
20
18.402883
11
56.349873
21
18.402882
0
LINE
8
Layer 1
10
57.558000
20
16.959600
11
57.558000
21
18.717600
0
LINE
8
Layer 1
10
57.558000
20
18.717600
11
58.757750
21
17.462370
0
LINE
8
Layer 1
10
58.757750
20
17.462370
11
58.757700
21
18.605400
0
LINE
8
Layer 1
10
58.757700
20
18.605400
11
59.006100
21
18.605400
0
LINE
8
Layer 1
10
59.006100
20
18.605400
11
59.006100
21
16.858300
0
LINE
8
Layer 1
10
59.006100
20
16.858300
11
57.806350
21
18.112320
0
LINE
8
Layer 1
10
57.806350
20
18.112320
11
57.806400
21
16.959600
0
LINE
8
Layer 1
10
57.806400
20
16.959600
11
57.558000
21
16.959600
0
LINE
8
Layer 1
10
70.571600
20
18.521700
11
70.571600
21
18.227400
0
LINE
8
Layer 1
10
70.571600
20
18.227400
11
70.375057
21
18.356411
0
LINE
8
Layer 1
10
70.375057
20
18.356411
11
70.126666
21
18.408269
0
LINE
8
Layer 1
10
70.126666
20
18.408269
11
69.867422
21
18.349188
0
LINE
8
Layer 1
10
69.867422
20
18.349188
11
69.661232
21
18.182792
0
LINE
8
Layer 1
10
69.661232
20
18.182792
11
69.523773
21
17.782478
0
LINE
8
Layer 1
10
69.523773
20
17.782478
11
69.723933
21
17.321865
0
LINE
8
Layer 1
10
69.723933
20
17.321865
11
70.126665
21
17.167534
0
LINE
8
Layer 1
10
70.126665
20
17.167534
11
70.424493
21
17.245903
0
LINE
8
Layer 1
10
70.424493
20
17.245903
11
70.571599
21
17.354408
0
LINE
8
Layer 1
10
70.571599
20
17.354408
11
70.571600
21
17.055400
0
LINE
8
Layer 1
10
70.571600
20
17.055400
11
70.123050
21
16.933612
0
LINE
8
Layer 1
10
70.123050
20
16.933612
11
69.766138
21
17.010791
0
LINE
8
Layer 1
10
69.766138
20
17.010791
11
69.477957
21
17.229046
0
LINE
8
Layer 1
10
69.477957
20
17.229046
11
69.272974
21
17.780093
0
LINE
8
Layer 1
10
69.272974
20
17.780093
11
69.345319
21
18.122516
0
LINE
8
Layer 1
10
69.345319
20
18.122516
11
69.547892
21
18.410700
0
LINE
8
Layer 1
10
69.547892
20
18.410700
11
70.142341
21
18.642210
0
LINE
8
Layer 1
10
70.142341
20
18.642210
11
70.571600
21
18.521640
0
LINE
8
Layer 1
10
70.571600
20
18.521640
11
70.571600
21
18.521700
0
LINE
8
Layer 1
10
71.196100
20
17.967000
11
71.906300
21
17.967000
0
LINE
8
Layer 1
10
71.906300
20
17.967000
11
71.906300
21
18.610900
0
LINE
8
Layer 1
10
71.906300
20
18.610900
11
72.154700
21
18.610900
0
LINE
8
Layer 1
10
72.154700
20
18.610900
11
72.154700
21
16.965000
0
LINE
8
Layer 1
10
72.154700
20
16.965000
11
71.906300
21
16.965000
0
LINE
8
Layer 1
10
71.906300
20
16.965000
11
71.906300
21
17.733100
0
LINE
8
Layer 1
10
71.906300
20
17.733100
11
71.196100
21
17.733100
0
LINE
8
Layer 1
10
71.196100
20
17.733100
11
71.196100
21
16.965000
0
LINE
8
Layer 1
10
71.196100
20
16.965000
11
70.947700
21
16.965000
0
LINE
8
Layer 1
10
70.947700
20
16.965000
11
70.947700
21
18.610900
0
LINE
8
Layer 1
10
70.947700
20
18.610900
11
71.196100
21
18.610900
0
LINE
8
Layer 1
10
71.196100
20
18.610900
11
71.196100
21
17.967000
0
LINE
8
Layer 1
10
73.421900
20
17.822300
11
74.102000
21
17.822300
0
LINE
8
Layer 1
10
74.102000
20
17.822300
11
74.093560
21
17.604045
0
LINE
8
Layer 1
10
74.093560
20
17.604045
11
73.869286
21
17.145840
0
LINE
8
Layer 1
10
73.869286
20
17.145840
11
73.330301
21
16.933618
0
LINE
8
Layer 1
10
73.330301
20
16.933618
11
72.983036
21
17.010797
0
LINE
8
Layer 1
10
72.983036
20
17.010797
11
72.697265
21
17.230242
0
LINE
8
Layer 1
10
72.697265
20
17.230242
11
72.493488
21
17.783697
0
LINE
8
Layer 1
10
72.493488
20
17.783697
11
72.575479
21
18.155092
0
LINE
8
Layer 1
10
72.575479
20
18.155092
11
72.808196
21
18.450499
0
LINE
8
Layer 1
10
72.808196
20
18.450499
11
73.354414
21
18.642216
0
LINE
8
Layer 1
10
73.354414
20
18.642216
11
73.847578
21
18.483069
0
LINE
8
Layer 1
10
73.847578
20
18.483069
11
74.029651
21
18.308233
0
LINE
8
Layer 1
10
74.029651
20
18.308233
11
73.852402
21
18.138212
0
LINE
8
Layer 1
10
73.852402
20
18.138212
11
73.358031
21
18.408298
0
LINE
8
Layer 1
10
73.358031
20
18.408298
11
72.909481
21
18.217798
0
LINE
8
Layer 1
10
72.909481
20
18.217798
11
72.743085
21
17.784914
0
LINE
8
Layer 1
10
72.743085
20
17.784914
11
72.939625
21
17.332742
0
LINE
8
Layer 1
10
72.939625
20
17.332742
11
73.338741
21
17.167563
0
LINE
8
Layer 1
10
73.338741
20
17.167563
11
73.682389
21
17.302606
0
LINE
8
Layer 1
10
73.682389
20
17.302606
11
73.833111
21
17.588382
0
LINE
8
Layer 1
10
73.833111
20
17.588382
11
73.421900
21
17.588400
0
LINE
8
Layer 1
10
73.421900
20
17.588400
11
73.421900
21
17.822300
0
LINE
8
Layer 1
10
20.737500
20
37.040100
11
20.737500
21
35.799500
0
LINE
8
Layer 1
10
20.737500
20
35.799500
11
20.276200
21
35.799500
0
LINE
8
Layer 1
10
20.276200
20
35.799500
11
20.276200
21
38.856200
0
LINE
8
Layer 1
10
20.276200
20
38.856200
11
20.798000
21
38.856200
0
LINE
8
Layer 1
10
20.798000
20
38.856200
11
21.402612
21
38.795740
0
LINE
8
Layer 1
10
21.402612
20
38.795740
11
21.890780
21
38.372510
0
LINE
8
Layer 1
10
21.890780
20
38.372510
11
21.991549
21
37.949283
0
LINE
8
Layer 1
10
21.991549
20
37.949283
11
21.725072
21
37.299883
0
LINE
8
Layer 1
10
21.725072
20
37.299883
11
21.396454
21
37.105063
0
LINE
8
Layer 1
10
21.396454
20
37.105063
11
20.952512
21
37.040123
0
LINE
8
Layer 1
10
20.952512
20
37.040123
11
20.737500
21
37.040100
0
LINE
8
Layer 1
10
20.737500
20
37.467809
11
20.909900
21
37.467800
0
LINE
8
Layer 1
10
20.909900
20
37.467800
11
21.389111
21
37.590961
0
LINE
8
Layer 1
10
21.389111
20
37.590961
11
21.545862
21
37.955969
0
LINE
8
Layer 1
10
21.545862
20
37.955969
11
21.373436
21
38.320974
0
LINE
8
Layer 1
10
21.373436
20
38.320974
11
20.889746
21
38.430699
0
LINE
8
Layer 1
10
20.889746
20
38.430699
11
20.737500
21
38.430700
0
LINE
8
Layer 1
10
20.737500
20
38.430700
11
20.737500
21
37.467809
0
LINE
8
Layer 1
10
24.076500
20
38.914400
11
24.694548
21
38.777804
0
LINE
8
Layer 1
10
24.694548
20
38.777804
11
25.220785
21
38.394884
0
LINE
8
Layer 1
10
25.220785
20
38.394884
11
25.536527
21
37.897757
0
LINE
8
Layer 1
10
25.536527
20
37.897757
11
25.641774
21
37.324494
0
LINE
8
Layer 1
10
25.641774
20
37.324494
11
25.505176
21
36.684052
0
LINE
8
Layer 1
10
25.505176
20
36.684052
11
25.117776
21
36.155577
0
LINE
8
Layer 1
10
25.117776
20
36.155577
11
24.618969
21
35.844874
0
LINE
8
Layer 1
10
24.618969
20
35.844874
11
24.040666
21
35.741306
0
LINE
8
Layer 1
10
24.040666
20
35.741306
11
23.380071
21
35.884623
0
LINE
8
Layer 1
10
23.380071
20
35.884623
11
22.831441
21
36.283217
0
LINE
8
Layer 1
10
22.831441
20
36.283217
11
22.542570
21
36.757952
0
LINE
8
Layer 1
10
22.542570
20
36.757952
11
22.446280
21
37.326737
0
LINE
8
Layer 1
10
22.446280
20
37.326737
11
22.568322
21
37.944226
0
LINE
8
Layer 1
10
22.568322
20
37.944226
11
22.934449
21
38.462067
0
LINE
8
Layer 1
10
22.934449
20
38.462067
11
23.455088
21
38.801321
0
LINE
8
Layer 1
10
23.455088
20
38.801321
11
24.076499
21
38.914406
0
LINE
8
Layer 1
10
24.076499
20
38.914406
11
24.076500
21
38.914400
0
LINE
8
Layer 1
10
24.027235
20
38.479976
11
23.556421
21
38.379207
0
LINE
8
Layer 1
10
23.556421
20
38.379207
11
23.178538
21
38.076902
0
LINE
8
Layer 1
10
23.178538
20
38.076902
11
22.912061
21
37.315538
0
LINE
8
Layer 1
10
22.912061
20
37.315538
11
22.997155
21
36.867676
0
LINE
8
Layer 1
10
22.997155
20
36.867676
11
23.252435
21
36.500429
0
LINE
8
Layer 1
10
23.252435
20
36.500429
11
23.619681
21
36.256905
0
LINE
8
Layer 1
10
23.619681
20
36.256905
11
24.045149
21
36.175730
0
LINE
8
Layer 1
10
24.045149
20
36.175730
11
24.515403
21
36.280978
0
LINE
8
Layer 1
10
24.515403
20
36.280978
11
24.905042
21
36.574326
0
LINE
8
Layer 1
10
24.905042
20
36.574326
11
25.108259
21
36.921418
0
LINE
8
Layer 1
10
25.108259
20
36.921418
11
25.175998
21
37.335690
0
LINE
8
Layer 1
10
25.175998
20
37.335690
11
25.094823
21
37.775153
0
LINE
8
Layer 1
10
25.094823
20
37.775153
11
24.851299
21
38.148558
0
LINE
8
Layer 1
10
24.851299
20
38.148558
11
24.485173
21
38.397121
0
LINE
8
Layer 1
10
24.485173
20
38.397121
11
24.027235
21
38.479975
0
LINE
8
Layer 1
10
24.027235
20
38.479975
11
24.027235
21
38.479976
0
LINE
8
Layer 1
10
26.383100
20
38.856200
11
27.180293
21
36.813960
0
LINE
8
Layer 1
10
27.180293
20
36.813960
11
28.013314
21
39.004000
0
LINE
8
Layer 1
10
28.013314
20
39.004000
11
28.808267
21
36.811720
0
LINE
8
Layer 1
10
28.808267
20
36.811720
11
29.654724
21
38.856210
0
LINE
8
Layer 1
10
29.654724
20
38.856210
11
30.154100
21
38.856200
0
LINE
8
Layer 1
10
30.154100
20
38.856200
11
28.788120
21
35.602490
0
LINE
8
Layer 1
10
28.788120
20
35.602490
11
28.002124
21
37.770140
0
LINE
8
Layer 1
10
28.002124
20
37.770140
11
27.182538
21
35.602490
0
LINE
8
Layer 1
10
27.182538
20
35.602490
11
25.883738
21
38.856200
0
LINE
8
Layer 1
10
25.883738
20
38.856200
11
26.383100
21
38.856200
0
LINE
8
Layer 1
10
32.357800
20
38.421800
11
31.130600
21
38.421800
0
LINE
8
Layer 1
10
31.130600
20
38.421800
11
31.130600
21
37.689500
0
LINE
8
Layer 1
10
31.130600
20
37.689500
11
32.319700
21
37.689500
0
LINE
8
Layer 1
10
32.319700
20
37.689500
11
32.319700
21
37.255100
0
LINE
8
Layer 1
10
32.319700
20
37.255100
11
31.130600
21
37.255100
0
LINE
8
Layer 1
10
31.130600
20
37.255100
11
31.130600
21
36.234000
0
LINE
8
Layer 1
10
31.130600
20
36.234000
11
32.357800
21
36.234000
0
LINE
8
Layer 1
10
32.357800
20
36.234000
11
32.357800
21
35.799500
0
LINE
8
Layer 1
10
32.357800
20
35.799500
11
30.669300
21
35.799500
0
LINE
8
Layer 1
10
30.669300
20
35.799500
11
30.669300
21
38.856200
0
LINE
8
Layer 1
10
30.669300
20
38.856200
11
32.357800
21
38.856200
0
LINE
8
Layer 1
10
32.357800
20
38.856200
11
32.357800
21
38.421800
0
LINE
8
Layer 1
10
34.129200
20
37.102800
11
35.076426
21
35.799520
0
LINE
8
Layer 1
10
35.076426
20
35.799520
11
34.512200
21
35.799500
0
LINE
8
Layer 1
10
34.512200
20
35.799500
11
33.638871
21
37.051270
0
LINE
8
Layer 1
10
33.638871
20
37.051270
11
33.556000
21
37.051300
0
LINE
8
Layer 1
10
33.556000
20
37.051300
11
33.556000
21
35.799500
0
LINE
8
Layer 1
10
33.556000
20
35.799500
11
33.094700
21
35.799500
0
LINE
8
Layer 1
10
33.094700
20
35.799500
11
33.094700
21
38.856200
0
LINE
8
Layer 1
10
33.094700
20
38.856200
11
33.634400
21
38.856200
0
LINE
8
Layer 1
10
33.634400
20
38.856200
11
34.113611
21
38.815893
0
LINE
8
Layer 1
10
34.113611
20
38.815893
11
34.440549
21
38.679294
0
LINE
8
Layer 1
10
34.440549
20
38.679294
11
34.711505
21
38.363554
0
LINE
8
Layer 1
10
34.711505
20
38.363554
11
34.805556
21
37.958239
0
LINE
8
Layer 1
10
34.805556
20
37.958239
11
34.689112
21
37.510377
0
LINE
8
Layer 1
10
34.689112
20
37.510377
11
34.458463
21
37.245021
0
LINE
8
Layer 1
10
34.458463
20
37.245021
11
34.129286
21
37.102824
0
LINE
8
Layer 1
10
34.129286
20
37.102824
11
34.129200
21
37.102800
0
LINE
8
Layer 1
10
33.555938
20
37.454373
11
33.703800
21
37.454400
0
LINE
8
Layer 1
10
33.703800
20
37.454400
11
34.162857
21
37.564125
0
LINE
8
Layer 1
10
34.162857
20
37.564125
11
34.355437
21
37.953763
0
LINE
8
Layer 1
10
34.355437
20
37.953763
11
34.176293
21
38.316530
0
LINE
8
Layer 1
10
34.176293
20
38.316530
11
33.719475
21
38.421778
0
LINE
8
Layer 1
10
33.719475
20
38.421778
11
33.556000
21
38.421800
0
LINE
8
Layer 1
10
33.556000
20
38.421800
11
33.555938
21
37.454373
0
LINE
8
Layer 1
10
37.981200
20
37.102800
11
38.928426
21
35.799520
0
LINE
8
Layer 1
10
38.928426
20
35.799520
11
38.364100
21
35.799500
0
LINE
8
Layer 1
10
38.364100
20
35.799500
11
37.490771
21
37.051270
0
LINE
8
Layer 1
10
37.490771
20
37.051270
11
37.407900
21
37.051300
0
LINE
8
Layer 1
10
37.407900
20
37.051300
11
37.407900
21
35.799500
0
LINE
8
Layer 1
10
37.407900
20
35.799500
11
36.946600
21
35.799500
0
LINE
8
Layer 1
10
36.946600
20
35.799500
11
36.946600
21
38.856200
0
LINE
8
Layer 1
10
36.946600
20
38.856200
11
37.486300
21
38.856200
0
LINE
8
Layer 1
10
37.486300
20
38.856200
11
37.965511
21
38.815893
0
LINE
8
Layer 1
10
37.965511
20
38.815893
11
38.292449
21
38.679294
0
LINE
8
Layer 1
10
38.292449
20
38.679294
11
38.563405
21
38.363554
0
LINE
8
Layer 1
10
38.563405
20
38.363554
11
38.657456
21
37.958239
0
LINE
8
Layer 1
10
38.657456
20
37.958239
11
38.541012
21
37.510377
0
LINE
8
Layer 1
10
38.541012
20
37.510377
11
38.310363
21
37.245021
0
LINE
8
Layer 1
10
38.310363
20
37.245021
11
37.981186
21
37.102824
0
LINE
8
Layer 1
10
37.981186
20
37.102824
11
37.981200
21
37.102800
0
LINE
8
Layer 1
10
37.407938
20
37.454373
11
37.555700
21
37.454400
0
LINE
8
Layer 1
10
37.555700
20
37.454400
11
38.014758
21
37.564125
0
LINE
8
Layer 1
10
38.014758
20
37.564125
11
38.207338
21
37.953763
0
LINE
8
Layer 1
10
38.207338
20
37.953763
11
38.028194
21
38.316530
0
LINE
8
Layer 1
10
38.028194
20
38.316530
11
37.571376
21
38.421778
0
LINE
8
Layer 1
10
37.571376
20
38.421778
11
37.407900
21
38.421800
0
LINE
8
Layer 1
10
37.407900
20
38.421800
11
37.407938
21
37.454373
0
LINE
8
Layer 1
10
41.313400
20
36.543000
11
40.005700
21
36.543000
0
LINE
8
Layer 1
10
40.005700
20
36.543000
11
39.665326
21
35.799551
0
LINE
8
Layer 1
10
39.665326
20
35.799551
11
39.168200
21
35.799500
0
LINE
8
Layer 1
10
39.168200
20
35.799500
11
40.682000
21
39.051000
0
LINE
8
Layer 1
10
40.682000
20
39.051000
11
42.139800
21
35.799500
0
LINE
8
Layer 1
10
42.139800
20
35.799500
11
41.635900
21
35.799500
0
LINE
8
Layer 1
10
41.635900
20
35.799500
11
41.313400
21
36.543000
0
LINE
8
Layer 1
10
41.127538
20
36.977427
11
40.672959
21
38.016467
0
LINE
8
Layer 1
10
40.672959
20
38.016467
11
40.198226
21
36.977427
0
LINE
8
Layer 1
10
40.198226
20
36.977427
11
41.127538
21
36.977427
0
LINE
8
Layer 1
10
43.116300
20
38.856200
11
43.116300
21
35.799500
0
LINE
8
Layer 1
10
43.116300
20
35.799500
11
42.655000
21
35.799500
0
LINE
8
Layer 1
10
42.655000
20
35.799500
11
42.655000
21
38.856200
0
LINE
8
Layer 1
10
42.655000
20
38.856200
11
43.116300
21
38.856200
0
LINE
8
Layer 1
10
44.444300
20
38.856200
11
44.444300
21
36.234000
0
LINE
8
Layer 1
10
44.444300
20
36.234000
11
45.344500
21
36.234000
0
LINE
8
Layer 1
10
45.344500
20
36.234000
11
45.344500
21
35.799500
0
LINE
8
Layer 1
10
45.344500
20
35.799500
11
43.983000
21
35.799500
0
LINE
8
Layer 1
10
43.983000
20
35.799500
11
43.983000
21
38.856200
0
LINE
8
Layer 1
10
43.983000
20
38.856200
11
44.444300
21
38.856200
0
LINE
8
Layer 1
10
47.653600
20
37.040100
11
47.653600
21
35.799500
0
LINE
8
Layer 1
10
47.653600
20
35.799500
11
47.192300
21
35.799500
0
LINE
8
Layer 1
10
47.192300
20
35.799500
11
47.192300
21
38.856200
0
LINE
8
Layer 1
10
47.192300
20
38.856200
11
47.714100
21
38.856200
0
LINE
8
Layer 1
10
47.714100
20
38.856200
11
48.318712
21
38.795740
0
LINE
8
Layer 1
10
48.318712
20
38.795740
11
48.806881
21
38.372510
0
LINE
8
Layer 1
10
48.806881
20
38.372510
11
48.907650
21
37.949283
0
LINE
8
Layer 1
10
48.907650
20
37.949283
11
48.641173
21
37.299883
0
LINE
8
Layer 1
10
48.641173
20
37.299883
11
48.312555
21
37.105063
0
LINE
8
Layer 1
10
48.312555
20
37.105063
11
47.868613
21
37.040123
0
LINE
8
Layer 1
10
47.868613
20
37.040123
11
47.653600
21
37.040100
0
LINE
8
Layer 1
10
47.653600
20
37.467809
11
47.826000
21
37.467800
0
LINE
8
Layer 1
10
47.826000
20
37.467800
11
48.305211
21
37.590961
0
LINE
8
Layer 1
10
48.305211
20
37.590961
11
48.461962
21
37.955969
0
LINE
8
Layer 1
10
48.461962
20
37.955969
11
48.289535
21
38.320974
0
LINE
8
Layer 1
10
48.289535
20
38.320974
11
47.805845
21
38.430699
0
LINE
8
Layer 1
10
47.805845
20
38.430699
11
47.653600
21
38.430700
0
LINE
8
Layer 1
10
47.653600
20
38.430700
11
47.653600
21
37.467809
0
LINE
8
Layer 1
10
50.549200
20
37.102800
11
51.496426
21
35.799520
0
LINE
8
Layer 1
10
51.496426
20
35.799520
11
50.932100
21
35.799500
0
LINE
8
Layer 1
10
50.932100
20
35.799500
11
50.058771
21
37.051270
0
LINE
8
Layer 1
10
50.058771
20
37.051270
11
49.975900
21
37.051300
0
LINE
8
Layer 1
10
49.975900
20
37.051300
11
49.975900
21
35.799500
0
LINE
8
Layer 1
10
49.975900
20
35.799500
11
49.514600
21
35.799500
0
LINE
8
Layer 1
10
49.514600
20
35.799500
11
49.514600
21
38.856200
0
LINE
8
Layer 1
10
49.514600
20
38.856200
11
50.054300
21
38.856200
0
LINE
8
Layer 1
10
50.054300
20
38.856200
11
50.533511
21
38.815893
0
LINE
8
Layer 1
10
50.533511
20
38.815893
11
50.860450
21
38.679294
0
LINE
8
Layer 1
10
50.860450
20
38.679294
11
51.131406
21
38.363554
0
LINE
8
Layer 1
10
51.131406
20
38.363554
11
51.225457
21
37.958239
0
LINE
8
Layer 1
10
51.225457
20
37.958239
11
51.109013
21
37.510377
0
LINE
8
Layer 1
10
51.109013
20
37.510377
11
50.878364
21
37.245021
0
LINE
8
Layer 1
10
50.878364
20
37.245021
11
50.549187
21
37.102824
0
LINE
8
Layer 1
10
50.549187
20
37.102824
11
50.549200
21
37.102800
0
LINE
8
Layer 1
10
49.975938
20
37.454373
11
50.123700
21
37.454400
0
LINE
8
Layer 1
10
50.123700
20
37.454400
11
50.582758
21
37.564125
0
LINE
8
Layer 1
10
50.582758
20
37.564125
11
50.775338
21
37.953763
0
LINE
8
Layer 1
10
50.775338
20
37.953763
11
50.596194
21
38.316530
0
LINE
8
Layer 1
10
50.596194
20
38.316530
11
50.139376
21
38.421778
0
LINE
8
Layer 1
10
50.139376
20
38.421778
11
49.975900
21
38.421800
0
LINE
8
Layer 1
10
49.975900
20
38.421800
11
49.975938
21
37.454373
0
LINE
8
Layer 1
10
53.494100
20
38.914400
11
54.112148
21
38.777804
0
LINE
8
Layer 1
10
54.112148
20
38.777804
11
54.638385
21
38.394884
0
LINE
8
Layer 1
10
54.638385
20
38.394884
11
54.954127
21
37.897757
0
LINE
8
Layer 1
10
54.954127
20
37.897757
11
55.059374
21
37.324494
0
LINE
8
Layer 1
10
55.059374
20
37.324494
11
54.922776
21
36.684052
0
LINE
8
Layer 1
10
54.922776
20
36.684052
11
54.535376
21
36.155577
0
LINE
8
Layer 1
10
54.535376
20
36.155577
11
54.036569
21
35.844874
0
LINE
8
Layer 1
10
54.036569
20
35.844874
11
53.458266
21
35.741306
0
LINE
8
Layer 1
10
53.458266
20
35.741306
11
52.797671
21
35.884623
0
LINE
8
Layer 1
10
52.797671
20
35.884623
11
52.249041
21
36.283217
0
LINE
8
Layer 1
10
52.249041
20
36.283217
11
51.960171
21
36.757952
0
LINE
8
Layer 1
10
51.960171
20
36.757952
11
51.863881
21
37.326737
0
LINE
8
Layer 1
10
51.863881
20
37.326737
11
51.985923
21
37.944226
0
LINE
8
Layer 1
10
51.985923
20
37.944226
11
52.352049
21
38.462067
0
LINE
8
Layer 1
10
52.352049
20
38.462067
11
52.872689
21
38.801321
0
LINE
8
Layer 1
10
52.872689
20
38.801321
11
53.494099
21
38.914406
0
LINE
8
Layer 1
10
53.494099
20
38.914406
11
53.494100
21
38.914400
0
LINE
8
Layer 1
10
53.444835
20
38.479976
11
52.974021
21
38.379207
0
LINE
8
Layer 1
10
52.974021
20
38.379207
11
52.596138
21
38.076902
0
LINE
8
Layer 1
10
52.596138
20
38.076902
11
52.329661
21
37.315538
0
LINE
8
Layer 1
10
52.329661
20
37.315538
11
52.414755
21
36.867676
0
LINE
8
Layer 1
10
52.414755
20
36.867676
11
52.670035
21
36.500429
0
LINE
8
Layer 1
10
52.670035
20
36.500429
11
53.037281
21
36.256905
0
LINE
8
Layer 1
10
53.037281
20
36.256905
11
53.462749
21
36.175730
0
LINE
8
Layer 1
10
53.462749
20
36.175730
11
53.933003
21
36.280978
0
LINE
8
Layer 1
10
53.933003
20
36.280978
11
54.322642
21
36.574326
0
LINE
8
Layer 1
10
54.322642
20
36.574326
11
54.525859
21
36.921418
0
LINE
8
Layer 1
10
54.525859
20
36.921418
11
54.593598
21
37.335690
0
LINE
8
Layer 1
10
54.593598
20
37.335690
11
54.512423
21
37.775153
0
LINE
8
Layer 1
10
54.512423
20
37.775153
11
54.268899
21
38.148558
0
LINE
8
Layer 1
10
54.268899
20
38.148558
11
53.902773
21
38.397121
0
LINE
8
Layer 1
10
53.902773
20
38.397121
11
53.444835
21
38.479975
0
LINE
8
Layer 1
10
53.444835
20
38.479975
11
53.444835
21
38.479976
0
LINE
8
Layer 1
10
55.771600
20
35.799500
11
55.771600
21
38.856200
0
LINE
8
Layer 1
10
55.771600
20
38.856200
11
56.230700
21
38.856200
0
LINE
8
Layer 1
10
56.230700
20
38.856200
11
56.671843
21
38.820373
0
LINE
8
Layer 1
10
56.671843
20
38.820373
11
56.965192
21
38.699451
0
LINE
8
Layer 1
10
56.965192
20
38.699451
11
57.227191
21
38.376990
0
LINE
8
Layer 1
10
57.227191
20
38.376990
11
57.312285
21
38.003026
0
LINE
8
Layer 1
10
57.312285
20
38.003026
11
57.061483
21
37.445438
0
LINE
8
Layer 1
10
57.061483
20
37.445438
11
57.341396
21
37.279730
0
LINE
8
Layer 1
10
57.341396
20
37.279730
11
57.587720
21
36.675118
0
LINE
8
Layer 1
10
57.587720
20
36.675118
11
57.511023
21
36.310671
0
LINE
8
Layer 1
10
57.511023
20
36.310671
11
57.280935
21
36.019002
0
LINE
8
Layer 1
10
57.280935
20
36.019002
11
56.936082
21
35.842097
0
LINE
8
Layer 1
10
56.936082
20
35.842097
11
56.470307
21
35.799549
0
LINE
8
Layer 1
10
56.470307
20
35.799549
11
55.771600
21
35.799500
0
LINE
8
Layer 1
10
56.232897
20
37.543920
11
56.376200
21
37.543900
0
LINE
8
Layer 1
10
56.376200
20
37.543900
11
56.745685
21
37.651387
0
LINE
8
Layer 1
10
56.745685
20
37.651387
11
56.875565
21
37.994001
0
LINE
8
Layer 1
10
56.875565
20
37.994001
11
56.747925
21
38.325418
0
LINE
8
Layer 1
10
56.747925
20
38.325418
11
56.394115
21
38.432905
0
LINE
8
Layer 1
10
56.394115
20
38.432905
11
56.232900
21
38.432900
0
LINE
8
Layer 1
10
56.232900
20
38.432900
11
56.232897
21
37.543920
0
LINE
8
Layer 1
10
56.232897
20
36.233930
11
56.519500
21
36.234000
0
LINE
8
Layer 1
10
56.519500
20
36.234000
11
56.942729
21
36.330290
0
LINE
8
Layer 1
10
56.942729
20
36.330290
11
57.081566
21
36.484801
0
LINE
8
Layer 1
10
57.081566
20
36.484801
11
57.133070
21
36.693057
0
LINE
8
Layer 1
10
57.133070
20
36.693057
11
57.081566
21
36.896834
0
LINE
8
Layer 1
10
57.081566
20
36.896834
11
56.944968
21
37.055825
0
LINE
8
Layer 1
10
56.944968
20
37.055825
11
56.465757
21
37.156594
0
LINE
8
Layer 1
10
56.465757
20
37.156594
11
56.232900
21
37.156500
0
LINE
8
Layer 1
10
56.232900
20
37.156500
11
56.232897
21
36.233930
0
LINE
8
Layer 1
10
59.988400
20
38.421800
11
58.761300
21
38.421800
0
LINE
8
Layer 1
10
58.761300
20
38.421800
11
58.761300
21
37.689500
0
LINE
8
Layer 1
10
58.761300
20
37.689500
11
59.950300
21
37.689500
0
LINE
8
Layer 1
10
59.950300
20
37.689500
11
59.950300
21
37.255100
0
LINE
8
Layer 1
10
59.950300
20
37.255100
11
58.761300
21
37.255100
0
LINE
8
Layer 1
10
58.761300
20
37.255100
11
58.761300
21
36.234000
0
LINE
8
Layer 1
10
58.761300
20
36.234000
11
59.988400
21
36.234000
0
LINE
8
Layer 1
10
59.988400
20
36.234000
11
59.988400
21
35.799500
0
LINE
8
Layer 1
10
59.988400
20
35.799500
11
58.300000
21
35.799500
0
LINE
8
Layer 1
10
58.300000
20
35.799500
11
58.300000
21
38.856200
0
LINE
8
Layer 1
10
58.300000
20
38.856200
11
59.988400
21
38.856200
0
LINE
8
Layer 1
10
59.988400
20
38.856200
11
59.988400
21
38.421800
0
LINE
8
Layer 1
10
10.724200
20
7.470000
11
10.724200
21
7.667720
0
LINE
8
Layer 1
10
10.724200
20
7.667720
11
11.193200
21
7.667720
0
LINE
8
Layer 1
10
11.193200
20
7.667720
11
11.193200
21
8.128330
0
LINE
8
Layer 1
10
11.193200
20
8.128330
11
11.391000
21
8.128330
0
LINE
8
Layer 1
10
11.391000
20
8.128330
11
11.391000
21
7.667720
0
LINE
8
Layer 1
10
11.391000
20
7.667720
11
11.860000
21
7.667720
0
LINE
8
Layer 1
10
11.860000
20
7.667720
11
11.860000
21
7.470000
0
LINE
8
Layer 1
10
11.860000
20
7.470000
11
11.391000
21
7.470000
0
LINE
8
Layer 1
10
11.391000
20
7.470000
11
11.391000
21
7.041930
0
LINE
8
Layer 1
10
11.391000
20
7.041930
11
11.193200
21
7.041930
0
LINE
8
Layer 1
10
11.193200
20
7.041930
11
11.193200
21
7.470000
0
LINE
8
Layer 1
10
11.193200
20
7.470000
11
10.724200
21
7.470000
0
LINE
8
Layer 1
10
10.724200
20
6.712763
11
10.724200
21
6.910510
0
LINE
8
Layer 1
10
10.724200
20
6.910510
11
11.860000
21
6.910510
0
LINE
8
Layer 1
10
11.860000
20
6.910510
11
11.860000
21
6.712760
0
LINE
8
Layer 1
10
11.860000
20
6.712760
11
10.724200
21
6.712763
0
LINE
8
Layer 1
10
12.593100
20
6.946680
11
13.205600
21
6.946680
0
LINE
8
Layer 1
10
13.205600
20
6.946680
11
13.205600
21
6.712760
0
LINE
8
Layer 1
10
13.205600
20
6.712760
11
12.099900
21
6.712760
0
LINE
8
Layer 1
10
12.099900
20
6.712760
11
12.671439
21
7.404883
0
LINE
8
Layer 1
10
12.671439
20
7.404883
11
12.869188
21
7.660497
0
LINE
8
Layer 1
10
12.869188
20
7.660497
11
12.959623
21
7.890790
0
LINE
8
Layer 1
10
12.959623
20
7.890790
11
12.861954
21
8.096980
0
LINE
8
Layer 1
10
12.861954
20
8.096980
11
12.678675
21
8.160903
0
LINE
8
Layer 1
10
12.678675
20
8.160903
11
12.450782
21
8.046339
0
LINE
8
Layer 1
10
12.450782
20
8.046339
11
12.392905
21
7.866687
0
LINE
8
Layer 1
10
12.392905
20
7.866687
11
12.146900
21
7.866690
0
LINE
8
Layer 1
10
12.146900
20
7.866690
11
12.240951
21
8.164531
0
LINE
8
Layer 1
10
12.240951
20
8.164531
11
12.671414
21
8.386384
0
LINE
8
Layer 1
10
12.671414
20
8.386384
11
13.054853
21
8.238059
0
LINE
8
Layer 1
10
13.054853
20
8.238059
11
13.201959
21
7.889603
0
LINE
8
Layer 1
10
13.201959
20
7.889603
11
13.081381
21
7.545963
0
LINE
8
Layer 1
10
13.081381
20
7.545963
11
12.848667
21
7.249339
0
LINE
8
Layer 1
10
12.848667
20
7.249339
11
12.593100
21
6.946680
0
LINE
8
Layer 1
10
14.621100
20
8.125930
11
14.114700
21
8.125930
0
LINE
8
Layer 1
10
14.114700
20
8.125930
11
14.032707
21
7.853436
0
LINE
8
Layer 1
10
14.032707
20
7.853436
11
14.096613
21
7.857140
0
LINE
8
Layer 1
10
14.096613
20
7.857140
11
14.334152
21
7.810124
0
LINE
8
Layer 1
10
14.334152
20
7.810124
11
14.564456
21
7.596711
0
LINE
8
Layer 1
10
14.564456
20
7.596711
11
14.645244
21
7.283207
0
LINE
8
Layer 1
10
14.645244
20
7.283207
11
14.451113
21
6.835850
0
LINE
8
Layer 1
10
14.451113
20
6.835850
11
14.030295
21
6.685144
0
LINE
8
Layer 1
10
14.030295
20
6.685144
11
13.657709
21
6.816562
0
LINE
8
Layer 1
10
13.657709
20
6.816562
11
13.514220
21
6.993806
0
LINE
8
Layer 1
10
13.514220
20
6.993806
11
13.702322
21
7.152979
0
LINE
8
Layer 1
10
13.702322
20
7.152979
11
13.806019
21
7.009496
0
LINE
8
Layer 1
10
13.806019
20
7.009496
11
14.051998
21
6.913029
0
LINE
8
Layer 1
10
14.051998
20
6.913029
11
14.322093
21
7.042040
0
LINE
8
Layer 1
10
14.322093
20
7.042040
11
14.402880
21
7.278366
0
LINE
8
Layer 1
10
14.402880
20
7.278366
11
14.290742
21
7.548479
0
LINE
8
Layer 1
10
14.290742
20
7.548479
11
14.051997
21
7.640104
0
LINE
8
Layer 1
10
14.051997
20
7.640104
11
13.840985
21
7.572582
0
LINE
8
Layer 1
10
13.840985
20
7.572582
11
13.765021
21
7.494213
0
LINE
8
Layer 1
10
13.765021
20
7.494213
11
13.681800
21
7.494210
0
LINE
8
Layer 1
10
13.681800
20
7.494210
11
13.941043
21
8.358761
0
LINE
8
Layer 1
10
13.941043
20
8.358761
11
14.621100
21
8.358760
0
LINE
8
Layer 1
10
14.621100
20
8.358760
11
14.621100
21
8.125930
0
LINE
8
Layer 1
10
15.151600
20
8.358650
11
15.607385
21
7.217980
0
LINE
8
Layer 1
10
15.607385
20
7.217980
11
16.069199
21
8.358650
0
LINE
8
Layer 1
10
16.069199
20
8.358650
11
16.340500
21
8.358650
0
LINE
8
Layer 1
10
16.340500
20
8.358650
11
15.602562
21
6.588560
0
LINE
8
Layer 1
10
15.602562
20
6.588560
11
14.880299
21
8.358650
0
LINE
8
Layer 1
10
14.880299
20
8.358650
11
15.151600
21
8.358650
0
LINE
8
Layer 1
10
29.825400
20
8.067560
11
29.319000
21
8.067560
0
LINE
8
Layer 1
10
29.319000
20
8.067560
11
29.237007
21
7.795066
0
LINE
8
Layer 1
10
29.237007
20
7.795066
11
29.300913
21
7.798770
0
LINE
8
Layer 1
10
29.300913
20
7.798770
11
29.538452
21
7.751727
0
LINE
8
Layer 1
10
29.538452
20
7.751727
11
29.768756
21
7.538314
0
LINE
8
Layer 1
10
29.768756
20
7.538314
11
29.849544
21
7.224810
0
LINE
8
Layer 1
10
29.849544
20
7.224810
11
29.655413
21
6.777453
0
LINE
8
Layer 1
10
29.655413
20
6.777453
11
29.234595
21
6.626747
0
LINE
8
Layer 1
10
29.234595
20
6.626747
11
28.862008
21
6.758165
0
LINE
8
Layer 1
10
28.862008
20
6.758165
11
28.718520
21
6.935409
0
LINE
8
Layer 1
10
28.718520
20
6.935409
11
28.906622
21
7.094582
0
LINE
8
Layer 1
10
28.906622
20
7.094582
11
29.010319
21
6.951099
0
LINE
8
Layer 1
10
29.010319
20
6.951099
11
29.256298
21
6.854632
0
LINE
8
Layer 1
10
29.256298
20
6.854632
11
29.526393
21
6.983643
0
LINE
8
Layer 1
10
29.526393
20
6.983643
11
29.607180
21
7.219995
0
LINE
8
Layer 1
10
29.607180
20
7.219995
11
29.495042
21
7.490081
0
LINE
8
Layer 1
10
29.495042
20
7.490081
11
29.256297
21
7.581706
0
LINE
8
Layer 1
10
29.256297
20
7.581706
11
29.045285
21
7.514185
0
LINE
8
Layer 1
10
29.045285
20
7.514185
11
28.969321
21
7.435815
0
LINE
8
Layer 1
10
28.969321
20
7.435815
11
28.886100
21
7.435810
0
LINE
8
Layer 1
10
28.886100
20
7.435810
11
29.145343
21
8.300361
0
LINE
8
Layer 1
10
29.145343
20
8.300361
11
29.825400
21
8.300360
0
LINE
8
Layer 1
10
29.825400
20
8.300360
11
29.825400
21
8.067560
0
LINE
8
Layer 1
10
30.782700
20
8.328010
11
31.101026
21
8.191750
0
LINE
8
Layer 1
10
31.101026
20
8.191750
11
31.301186
21
7.864990
0
LINE
8
Layer 1
10
31.301186
20
7.864990
11
31.356652
21
7.476741
0
LINE
8
Layer 1
10
31.356652
20
7.476741
11
31.203518
21
6.882276
0
LINE
8
Layer 1
10
31.203518
20
6.882276
11
31.017828
21
6.698999
0
LINE
8
Layer 1
10
31.017828
20
6.698999
11
30.775466
21
6.626662
0
LINE
8
Layer 1
10
30.775466
20
6.626662
11
30.448699
21
6.762896
0
LINE
8
Layer 1
10
30.448699
20
6.762896
11
30.249745
21
7.089682
0
LINE
8
Layer 1
10
30.249745
20
7.089682
11
30.194279
21
7.474333
0
LINE
8
Layer 1
10
30.194279
20
7.474333
11
30.347413
21
8.072396
0
LINE
8
Layer 1
10
30.347413
20
8.072396
11
30.541544
21
8.260488
0
LINE
8
Layer 1
10
30.541544
20
8.260488
11
30.782700
21
8.328010
0
LINE
8
Layer 1
10
30.782700
20
8.328010
11
30.782700
21
8.328010
0
LINE
8
Layer 1
10
30.770643
20
8.102532
11
30.541545
21
7.939761
0
LINE
8
Layer 1
10
30.541545
20
7.939761
11
30.437848
21
7.477931
0
LINE
8
Layer 1
10
30.437848
20
7.477931
11
30.541545
21
7.017318
0
LINE
8
Layer 1
10
30.541545
20
7.017318
11
30.775467
21
6.853329
0
LINE
8
Layer 1
10
30.775467
20
6.853329
11
31.009389
21
7.017318
0
LINE
8
Layer 1
10
31.009389
20
7.017318
11
31.113086
21
7.475523
0
LINE
8
Layer 1
10
31.113086
20
7.475523
11
31.009389
21
7.939760
0
LINE
8
Layer 1
10
31.009389
20
7.939760
11
30.770644
21
8.102531
0
LINE
8
Layer 1
10
30.770644
20
8.102531
11
30.770643
21
8.102532
0
LINE
8
Layer 1
10
32.468100
20
8.249640
11
32.033479
21
8.086657
0
LINE
8
Layer 1
10
32.033479
20
8.086657
11
31.895190
21
7.644645
0
LINE
8
Layer 1
10
31.895190
20
7.644645
11
31.986559
21
7.197658
0
LINE
8
Layer 1
10
31.986559
20
7.197658
11
32.307586
21
6.832190
0
LINE
8
Layer 1
10
32.307586
20
6.832190
11
32.307500
21
6.654390
0
LINE
8
Layer 1
10
32.307500
20
6.654390
11
31.596300
21
6.654390
0
LINE
8
Layer 1
10
31.596300
20
6.654390
11
31.596300
21
6.849470
0
LINE
8
Layer 1
10
31.596300
20
6.849470
11
32.035900
21
6.849470
0
LINE
8
Layer 1
10
32.035900
20
6.849470
11
31.769200
21
7.172976
0
LINE
8
Layer 1
10
31.769200
20
7.172976
11
31.660545
21
7.652056
0
LINE
8
Layer 1
10
31.660545
20
7.652056
11
31.754384
21
8.071843
0
LINE
8
Layer 1
10
31.754384
20
8.071843
11
32.028492
21
8.345951
0
LINE
8
Layer 1
10
32.028492
20
8.345951
11
32.468052
21
8.444746
0
LINE
8
Layer 1
10
32.468052
20
8.444746
11
32.910082
21
8.348438
0
LINE
8
Layer 1
10
32.910082
20
8.348438
11
33.184190
21
8.074330
0
LINE
8
Layer 1
10
33.184190
20
8.074330
11
33.278029
21
7.654516
0
LINE
8
Layer 1
10
33.278029
20
7.654516
11
33.169373
21
7.172975
0
LINE
8
Layer 1
10
33.169373
20
7.172975
11
32.905143
21
6.849469
0
LINE
8
Layer 1
10
32.905143
20
6.849469
11
33.342200
21
6.849470
0
LINE
8
Layer 1
10
33.342200
20
6.849470
11
33.342200
21
6.654390
0
LINE
8
Layer 1
10
33.342200
20
6.654390
11
32.631000
21
6.654390
0
LINE
8
Layer 1
10
32.631000
20
6.654390
11
32.631000
21
6.832190
0
LINE
8
Layer 1
10
32.631000
20
6.832190
11
32.952027
21
7.197658
0
LINE
8
Layer 1
10
32.952027
20
7.197658
11
33.045866
21
7.644645
0
LINE
8
Layer 1
10
33.045866
20
7.644645
11
32.905108
21
8.086657
0
LINE
8
Layer 1
10
32.905108
20
8.086657
11
32.468017
21
8.249640
0
LINE
8
Layer 1
10
32.468017
20
8.249640
11
32.468100
21
8.249640
0
LINE
8
Layer 1
10
34.103900
20
7.286220
11
34.580200
21
7.286220
0
LINE
8
Layer 1
10
34.580200
20
7.286220
11
34.580200
21
7.077620
0
LINE
8
Layer 1
10
34.580200
20
7.077620
11
34.103900
21
7.077620
0
LINE
8
Layer 1
10
34.103900
20
7.077620
11
34.103900
21
7.286220
0
LINE
8
Layer 1
10
36.134300
20
8.359370
11
36.316373
21
8.221919
0
LINE
8
Layer 1
10
36.316373
20
8.221919
11
35.923288
21
7.686535
0
LINE
8
Layer 1
10
35.923288
20
7.686535
11
36.012516
21
7.695002
0
LINE
8
Layer 1
10
36.012516
20
7.695002
11
36.333254
21
7.568399
0
LINE
8
Layer 1
10
36.333254
20
7.568399
11
36.504475
21
7.177742
0
LINE
8
Layer 1
10
36.504475
20
7.177742
11
36.323608
21
6.770178
0
LINE
8
Layer 1
10
36.323608
20
6.770178
11
35.955845
21
6.626695
0
LINE
8
Layer 1
10
35.955845
20
6.626695
11
35.550703
21
6.797907
0
LINE
8
Layer 1
10
35.550703
20
6.797907
11
35.397569
21
7.162053
0
LINE
8
Layer 1
10
35.397569
20
7.162053
11
35.559144
21
7.576840
0
LINE
8
Layer 1
10
35.559144
20
7.576840
11
36.134300
21
8.359370
0
LINE
8
Layer 1
10
35.947404
20
7.474340
11
35.731569
21
7.383906
0
LINE
8
Layer 1
10
35.731569
20
7.383906
11
35.639930
21
7.164434
0
LINE
8
Layer 1
10
35.639930
20
7.164434
11
35.731569
21
6.944989
0
LINE
8
Layer 1
10
35.731569
20
6.944989
11
35.952227
21
6.854554
0
LINE
8
Layer 1
10
35.952227
20
6.854554
11
36.171679
21
6.944989
0
LINE
8
Layer 1
10
36.171679
20
6.944989
11
36.262113
21
7.164434
0
LINE
8
Layer 1
10
36.262113
20
7.164434
11
36.171679
21
7.383906
0
LINE
8
Layer 1
10
36.171679
20
7.383906
11
35.947404
21
7.474340
0
LINE
8
Layer 1
10
35.947404
20
7.474340
11
35.947404
21
7.474340
0
LINE
8
Layer 1
10
37.383400
20
8.328010
11
37.701726
21
8.191750
0
LINE
8
Layer 1
10
37.701726
20
8.191750
11
37.901886
21
7.864990
0
LINE
8
Layer 1
10
37.901886
20
7.864990
11
37.957352
21
7.476741
0
LINE
8
Layer 1
10
37.957352
20
7.476741
11
37.804218
21
6.882276
0
LINE
8
Layer 1
10
37.804218
20
6.882276
11
37.618528
21
6.698999
0
LINE
8
Layer 1
10
37.618528
20
6.698999
11
37.376166
21
6.626662
0
LINE
8
Layer 1
10
37.376166
20
6.626662
11
37.049399
21
6.762896
0
LINE
8
Layer 1
10
37.049399
20
6.762896
11
36.850445
21
7.089682
0
LINE
8
Layer 1
10
36.850445
20
7.089682
11
36.794979
21
7.474333
0
LINE
8
Layer 1
10
36.794979
20
7.474333
11
36.948113
21
8.072396
0
LINE
8
Layer 1
10
36.948113
20
8.072396
11
37.142244
21
8.260488
0
LINE
8
Layer 1
10
37.142244
20
8.260488
11
37.383400
21
8.328010
0
LINE
8
Layer 1
10
37.383400
20
8.328010
11
37.383400
21
8.328010
0
LINE
8
Layer 1
10
37.371343
20
8.102532
11
37.142245
21
7.939761
0
LINE
8
Layer 1
10
37.142245
20
7.939761
11
37.038548
21
7.477931
0
LINE
8
Layer 1
10
37.038548
20
7.477931
11
37.142245
21
7.017318
0
LINE
8
Layer 1
10
37.142245
20
7.017318
11
37.376167
21
6.853329
0
LINE
8
Layer 1
10
37.376167
20
6.853329
11
37.610089
21
7.017318
0
LINE
8
Layer 1
10
37.610089
20
7.017318
11
37.713786
21
7.475523
0
LINE
8
Layer 1
10
37.713786
20
7.475523
11
37.610089
21
7.939760
0
LINE
8
Layer 1
10
37.610089
20
7.939760
11
37.371344
21
8.102531
0
LINE
8
Layer 1
10
37.371344
20
8.102531
11
37.371343
21
8.102532
0
LINE
8
Layer 1
10
38.382900
20
8.300290
11
38.838685
21
7.159620
0
LINE
8
Layer 1
10
38.838685
20
7.159620
11
39.300499
21
8.300290
0
LINE
8
Layer 1
10
39.300499
20
8.300290
11
39.571800
21
8.300290
0
LINE
8
Layer 1
10
39.571800
20
8.300290
11
38.833862
21
6.530200
0
LINE
8
Layer 1
10
38.833862
20
6.530200
11
38.111599
21
8.300290
0
LINE
8
Layer 1
10
38.111599
20
8.300290
11
38.382900
21
8.300290
0
LINE
8
Layer 1
10
40.390400
20
6.654390
11
40.736459
21
8.424480
0
LINE
8
Layer 1
10
40.736459
20
8.424480
11
41.301971
21
7.145140
0
LINE
8
Layer 1
10
41.301971
20
7.145140
11
41.886775
21
8.424480
0
LINE
8
Layer 1
10
41.886775
20
8.424480
11
42.197867
21
6.654390
0
LINE
8
Layer 1
10
42.197867
20
6.654390
11
41.943500
21
6.654390
0
LINE
8
Layer 1
10
41.943500
20
6.654390
11
41.785543
21
7.647952
0
LINE
8
Layer 1
10
41.785543
20
7.647952
11
41.298407
21
6.577212
0
LINE
8
Layer 1
10
41.298407
20
6.577212
11
40.823329
21
7.649172
0
LINE
8
Layer 1
10
40.823329
20
7.649172
11
40.647285
21
6.654393
0
LINE
8
Layer 1
10
40.647285
20
6.654393
11
40.390400
21
6.654390
0
LINE
8
Layer 1
10
43.539900
20
7.054710
11
42.835700
21
7.054710
0
LINE
8
Layer 1
10
42.835700
20
7.054710
11
42.652421
21
6.654396
0
LINE
8
Layer 1
10
42.652421
20
6.654396
11
42.384700
21
6.654390
0
LINE
8
Layer 1
10
42.384700
20
6.654390
11
43.199808
21
8.405190
0
LINE
8
Layer 1
10
43.199808
20
8.405190
11
43.984772
21
6.654390
0
LINE
8
Layer 1
10
43.984772
20
6.654390
11
43.713500
21
6.654390
0
LINE
8
Layer 1
10
43.713500
20
6.654390
11
43.539900
21
7.054710
0
LINE
8
Layer 1
10
43.439820
20
7.288628
11
43.195046
21
7.848115
0
LINE
8
Layer 1
10
43.195046
20
7.848115
11
42.939420
21
7.288628
0
LINE
8
Layer 1
10
42.939420
20
7.288628
11
43.439820
21
7.288628
0
LINE
8
Layer 1
10
44.561100
20
7.515320
11
44.107726
21
8.300285
0
LINE
8
Layer 1
10
44.107726
20
8.300285
11
44.389900
21
8.300290
0
LINE
8
Layer 1
10
44.389900
20
8.300290
11
44.704609
21
7.742020
0
LINE
8
Layer 1
10
44.704609
20
7.742020
11
45.034993
21
8.300290
0
LINE
8
Layer 1
10
45.034993
20
8.300290
11
45.319500
21
8.300290
0
LINE
8
Layer 1
10
45.319500
20
8.300290
11
44.845628
21
7.514108
0
LINE
8
Layer 1
10
44.845628
20
7.514108
11
45.343616
21
6.654398
0
LINE
8
Layer 1
10
45.343616
20
6.654398
11
45.065100
21
6.654390
0
LINE
8
Layer 1
10
45.065100
20
6.654390
11
44.700954
21
7.283806
0
LINE
8
Layer 1
10
44.700954
20
7.283806
11
44.324750
21
6.654390
0
LINE
8
Layer 1
10
44.324750
20
6.654390
11
44.043800
21
6.654390
0
LINE
8
Layer 1
10
44.043800
20
6.654390
11
44.561100
21
7.515320
 0 
ENDSEC
 0 
EOF