%TF.GenerationSoftware,KiCad,Pcbnew,8.0.5+dfsg-1*%
%TF.CreationDate,2024-09-25T11:52:26+01:00*%
%TF.ProjectId,low-noise-power-probe-panel,6c6f772d-6e6f-4697-9365-2d706f776572,rev?*%
%TF.SameCoordinates,Original*%
%TF.FileFunction,Soldermask,Bot*%
%TF.FilePolarity,Negative*%
%FSLAX46Y46*%
G04 Gerber Fmt 4.6, Leading zero omitted, Abs format (unit mm)*
G04 Created by KiCad (PCBNEW 8.0.5+dfsg-1) date 2024-09-25 11:52:26*
%MOMM*%
%LPD*%
G01*
G04 APERTURE LIST*
G04 Aperture macros list*
%AMRoundRect*
0 Rectangle with rounded corners*
0 $1 Rounding radius*
0 $2 $3 $4 $5 $6 $7 $8 $9 X,Y pos of 4 corners*
0 Add a 4 corners polygon primitive as box body*
4,1,4,$2,$3,$4,$5,$6,$7,$8,$9,$2,$3,0*
0 Add four circle primitives for the rounded corners*
1,1,$1+$1,$2,$3*
1,1,$1+$1,$4,$5*
1,1,$1+$1,$6,$7*
1,1,$1+$1,$8,$9*
0 Add four rect primitives between the rounded corners*
20,1,$1+$1,$2,$3,$4,$5,0*
20,1,$1+$1,$4,$5,$6,$7,0*
20,1,$1+$1,$6,$7,$8,$9,0*
20,1,$1+$1,$8,$9,$2,$3,0*%
G04 Aperture macros list end*
%ADD10C,3.000000*%
%ADD11O,3.000000X2.000000*%
%ADD12C,2.000000*%
%ADD13C,3.500000*%
%ADD14C,4.000000*%
%ADD15C,3.700000*%
%ADD16C,1.500000*%
%ADD17R,1.700000X1.700000*%
%ADD18O,1.700000X1.700000*%
%ADD19O,4.000000X6.000000*%
%ADD20C,1.800000*%
%ADD21R,3.500000X3.500000*%
%ADD22RoundRect,0.750000X-1.000000X0.750000X-1.000000X-0.750000X1.000000X-0.750000X1.000000X0.750000X0*%
%ADD23RoundRect,0.875000X-0.875000X0.875000X-0.875000X-0.875000X0.875000X-0.875000X0.875000X0.875000X0*%
%ADD24O,1.100000X2.100000*%
%ADD25O,1.100000X2.600000*%
%ADD26R,0.450000X0.600000*%
%ADD27R,6.700000X0.900000*%
%ADD28RoundRect,0.140000X-0.170000X0.140000X-0.170000X-0.140000X0.170000X-0.140000X0.170000X0.140000X0*%
%ADD29RoundRect,0.140000X-0.140000X-0.170000X0.140000X-0.170000X0.140000X0.170000X-0.140000X0.170000X0*%
%ADD30RoundRect,0.101600X-0.525000X1.100000X-0.525000X-1.100000X0.525000X-1.100000X0.525000X1.100000X0*%
%ADD31RoundRect,0.101600X-0.500000X0.525000X-0.500000X-0.525000X0.500000X-0.525000X0.500000X0.525000X0*%
%ADD32RoundRect,0.218750X0.256250X-0.218750X0.256250X0.218750X-0.256250X0.218750X-0.256250X-0.218750X0*%
%ADD33RoundRect,0.140000X0.170000X-0.140000X0.170000X0.140000X-0.170000X0.140000X-0.170000X-0.140000X0*%
%ADD34RoundRect,0.200000X0.200000X0.275000X-0.200000X0.275000X-0.200000X-0.275000X0.200000X-0.275000X0*%
%ADD35RoundRect,0.101600X1.100000X0.525000X-1.100000X0.525000X-1.100000X-0.525000X1.100000X-0.525000X0*%
%ADD36RoundRect,0.101600X0.525000X0.500000X-0.525000X0.500000X-0.525000X-0.500000X0.525000X-0.500000X0*%
%ADD37RoundRect,0.150000X-0.150000X0.512500X-0.150000X-0.512500X0.150000X-0.512500X0.150000X0.512500X0*%
%ADD38RoundRect,0.200000X-0.275000X0.200000X-0.275000X-0.200000X0.275000X-0.200000X0.275000X0.200000X0*%
%ADD39RoundRect,0.218750X-0.218750X-0.256250X0.218750X-0.256250X0.218750X0.256250X-0.218750X0.256250X0*%
%ADD40R,0.600000X0.450000*%
%ADD41RoundRect,0.140000X0.140000X0.170000X-0.140000X0.170000X-0.140000X-0.170000X0.140000X-0.170000X0*%
%ADD42RoundRect,0.250000X-0.475000X0.250000X-0.475000X-0.250000X0.475000X-0.250000X0.475000X0.250000X0*%
%ADD43RoundRect,0.200000X-0.200000X-0.275000X0.200000X-0.275000X0.200000X0.275000X-0.200000X0.275000X0*%
%ADD44C,1.000000*%
%ADD45RoundRect,0.200000X0.275000X-0.200000X0.275000X0.200000X-0.275000X0.200000X-0.275000X-0.200000X0*%
%ADD46RoundRect,0.250000X-0.250000X-0.475000X0.250000X-0.475000X0.250000X0.475000X-0.250000X0.475000X0*%
%ADD47RoundRect,0.150000X0.150000X-0.512500X0.150000X0.512500X-0.150000X0.512500X-0.150000X-0.512500X0*%
%ADD48RoundRect,0.101600X-1.100000X-0.525000X1.100000X-0.525000X1.100000X0.525000X-1.100000X0.525000X0*%
%ADD49RoundRect,0.101600X-0.525000X-0.500000X0.525000X-0.500000X0.525000X0.500000X-0.525000X0.500000X0*%
%ADD50R,0.900000X6.700000*%
%ADD51RoundRect,0.250000X0.475000X-0.250000X0.475000X0.250000X-0.475000X0.250000X-0.475000X-0.250000X0*%
%ADD52RoundRect,0.150000X0.512500X0.150000X-0.512500X0.150000X-0.512500X-0.150000X0.512500X-0.150000X0*%
%ADD53RoundRect,0.100000X-0.130000X-0.100000X0.130000X-0.100000X0.130000X0.100000X-0.130000X0.100000X0*%
%ADD54RoundRect,0.150000X-0.150000X0.725000X-0.150000X-0.725000X0.150000X-0.725000X0.150000X0.725000X0*%
%ADD55RoundRect,0.250000X-1.075000X0.375000X-1.075000X-0.375000X1.075000X-0.375000X1.075000X0.375000X0*%
G04 APERTURE END LIST*
D10*
%TO.C,SW1*%
X238300000Y-124120000D03*
X233600000Y-124120000D03*
X228900000Y-124120000D03*
X238300000Y-120310000D03*
X233600000Y-120310000D03*
X228900000Y-120310000D03*
X238300000Y-116500000D03*
X233600000Y-116500000D03*
X228900000Y-116500000D03*
D11*
X231060000Y-138470000D03*
X236140000Y-138470000D03*
%TD*%
D12*
%TO.C,BT1*%
X181300000Y-110975000D03*
D13*
X198700000Y-102775000D03*
D14*
X216200000Y-102675000D03*
X181200000Y-47475000D03*
D13*
X198700000Y-47375000D03*
D15*
X189150000Y-111250000D03*
X189150000Y-38900000D03*
X208250000Y-111250000D03*
X208250000Y-38900000D03*
%TD*%
D16*
%TO.C,KiKit_TO_1*%
X172600000Y-22500000D03*
%TD*%
%TO.C,KiKit_TO_2*%
X247400000Y-22500000D03*
%TD*%
D17*
%TO.C,J5*%
X240050000Y-73100000D03*
D18*
X240050000Y-70560000D03*
X240050000Y-68020000D03*
X240050000Y-65480000D03*
%TD*%
D19*
%TO.C,J1*%
X202980000Y-131880000D03*
X192820000Y-131780000D03*
D20*
X197900000Y-126800000D03*
X200440000Y-126800000D03*
%TD*%
D21*
%TO.C,J3*%
X234600000Y-38775000D03*
D22*
X234600000Y-32775000D03*
D23*
X229900000Y-35775000D03*
%TD*%
D16*
%TO.C,KiKit_TO_3*%
X172600000Y-142300000D03*
%TD*%
D24*
%TO.C,J4*%
X225429483Y-32125000D03*
D25*
X225429483Y-26765000D03*
D24*
X216789483Y-32125000D03*
D25*
X216789483Y-26765000D03*
%TD*%
D19*
%TO.C,J2*%
X221280000Y-131880000D03*
X211120000Y-131780000D03*
D20*
X216200000Y-126800000D03*
X218740000Y-126800000D03*
%TD*%
D11*
%TO.C,RV1*%
X183900000Y-136325000D03*
X180900000Y-124025000D03*
X183900000Y-126325000D03*
%TD*%
D26*
%TO.C,D10*%
X219150000Y-29375000D03*
X219150000Y-27275000D03*
%TD*%
D27*
%TO.C,J8*%
X198800000Y-113775000D03*
%TD*%
D28*
%TO.C,C8*%
X199700000Y-107495000D03*
X199700000Y-108455000D03*
%TD*%
D29*
%TO.C,C1*%
X209620000Y-124725000D03*
X210580000Y-124725000D03*
%TD*%
D26*
%TO.C,D11*%
X223050000Y-29375000D03*
X223050000Y-27275000D03*
%TD*%
D30*
%TO.C,TP14*%
X211625000Y-118380000D03*
X214575000Y-118380000D03*
D31*
X213100000Y-119905000D03*
%TD*%
D32*
%TO.C,D6*%
X233700000Y-138937500D03*
X233700000Y-137362500D03*
%TD*%
D29*
%TO.C,C20*%
X206820000Y-117075000D03*
X207780000Y-117075000D03*
%TD*%
D27*
%TO.C,J11*%
X214300000Y-137675000D03*
%TD*%
D33*
%TO.C,C13*%
X209750000Y-107680000D03*
X209750000Y-106720000D03*
%TD*%
%TO.C,C26*%
X217200000Y-116855000D03*
X217200000Y-115895000D03*
%TD*%
D34*
%TO.C,R16*%
X185075000Y-134125000D03*
X183425000Y-134125000D03*
%TD*%
D35*
%TO.C,TP10*%
X217700000Y-106625000D03*
X217700000Y-109575000D03*
D36*
X216175000Y-108100000D03*
%TD*%
D37*
%TO.C,U5*%
X211100000Y-105562500D03*
X212050000Y-105562500D03*
X213000000Y-105562500D03*
X213000000Y-107837500D03*
X211100000Y-107837500D03*
%TD*%
D38*
%TO.C,R15*%
X235650000Y-71275000D03*
X235650000Y-72925000D03*
%TD*%
D26*
%TO.C,D12*%
X221100000Y-29375000D03*
X221100000Y-27275000D03*
%TD*%
D34*
%TO.C,R3*%
X208125000Y-118450000D03*
X206475000Y-118450000D03*
%TD*%
D39*
%TO.C,D4*%
X186462500Y-138750000D03*
X188037500Y-138750000D03*
%TD*%
D40*
%TO.C,D13*%
X239050000Y-44175000D03*
X236950000Y-44175000D03*
%TD*%
D34*
%TO.C,R5*%
X203825000Y-122200000D03*
X202175000Y-122200000D03*
%TD*%
D41*
%TO.C,C25*%
X219430000Y-121475000D03*
X218470000Y-121475000D03*
%TD*%
D28*
%TO.C,C22*%
X211250000Y-121195000D03*
X211250000Y-122155000D03*
%TD*%
D42*
%TO.C,C5*%
X205100000Y-103900000D03*
X205100000Y-105800000D03*
%TD*%
D40*
%TO.C,D15*%
X239050000Y-46175000D03*
X236950000Y-46175000D03*
%TD*%
D27*
%TO.C,J10*%
X198800000Y-137675000D03*
%TD*%
D12*
%TO.C,TP9*%
X222000000Y-108100000D03*
%TD*%
D39*
%TO.C,D5*%
X211662500Y-26925000D03*
X213237500Y-26925000D03*
%TD*%
D43*
%TO.C,R1*%
X213325000Y-123800000D03*
X214975000Y-123800000D03*
%TD*%
D26*
%TO.C,D9*%
X223050000Y-34675000D03*
X223050000Y-36775000D03*
%TD*%
D44*
%TO.C,KiKit_FID_B_2*%
X239900000Y-22500000D03*
%TD*%
D45*
%TO.C,R2*%
X205500000Y-123825000D03*
X205500000Y-122175000D03*
%TD*%
D12*
%TO.C,TP2*%
X228600000Y-85500000D03*
%TD*%
%TO.C,TP1*%
X232400000Y-78200000D03*
%TD*%
D33*
%TO.C,C6*%
X199700000Y-106255000D03*
X199700000Y-105295000D03*
%TD*%
D34*
%TO.C,R4*%
X220425000Y-115700000D03*
X218775000Y-115700000D03*
%TD*%
D30*
%TO.C,TP18*%
X203625000Y-100730000D03*
X206575000Y-100730000D03*
D31*
X205100000Y-102255000D03*
%TD*%
D41*
%TO.C,C11*%
X212080000Y-103975000D03*
X211120000Y-103975000D03*
%TD*%
D43*
%TO.C,R17*%
X183375000Y-128525000D03*
X185025000Y-128525000D03*
%TD*%
D46*
%TO.C,C10*%
X211050000Y-102375000D03*
X212950000Y-102375000D03*
%TD*%
D42*
%TO.C,C12*%
X207950000Y-106050000D03*
X207950000Y-107950000D03*
%TD*%
D45*
%TO.C,R20*%
X232600000Y-131725000D03*
X232600000Y-130075000D03*
%TD*%
D39*
%TO.C,D3*%
X178712500Y-138775000D03*
X180287500Y-138775000D03*
%TD*%
D47*
%TO.C,U2*%
X220543750Y-119943750D03*
X219593750Y-119943750D03*
X218643750Y-119943750D03*
X218643750Y-117668750D03*
X220543750Y-117668750D03*
%TD*%
D34*
%TO.C,R26*%
X214775000Y-121475000D03*
X213125000Y-121475000D03*
%TD*%
D48*
%TO.C,TP5*%
X195800000Y-109575000D03*
X195800000Y-106625000D03*
D49*
X197325000Y-108100000D03*
%TD*%
D38*
%TO.C,R25*%
X237225000Y-71275000D03*
X237225000Y-72925000D03*
%TD*%
D33*
%TO.C,C2*%
X200600000Y-123280000D03*
X200600000Y-122320000D03*
%TD*%
D27*
%TO.C,J9*%
X214300000Y-113775000D03*
%TD*%
D44*
%TO.C,KiKit_FID_B_1*%
X180100000Y-22500000D03*
%TD*%
D12*
%TO.C,TP7*%
X208600000Y-102800000D03*
%TD*%
%TO.C,TP21*%
X226000000Y-35000000D03*
%TD*%
D50*
%TO.C,J12*%
X226400000Y-131775000D03*
%TD*%
D29*
%TO.C,C18*%
X209620000Y-125775000D03*
X210580000Y-125775000D03*
%TD*%
D44*
%TO.C,KiKit_FID_B_3*%
X180100000Y-142300000D03*
%TD*%
D50*
%TO.C,J7*%
X178400000Y-133075000D03*
%TD*%
D12*
%TO.C,TP8*%
X212300000Y-94632500D03*
%TD*%
D30*
%TO.C,TP19*%
X210825000Y-98487500D03*
X213775000Y-98487500D03*
D31*
X212300000Y-100012500D03*
%TD*%
D37*
%TO.C,U3*%
X201150000Y-105562500D03*
X202100000Y-105562500D03*
X203050000Y-105562500D03*
X203050000Y-107837500D03*
X201150000Y-107837500D03*
%TD*%
D39*
%TO.C,D1*%
X206537500Y-26925000D03*
X208112500Y-26925000D03*
%TD*%
D38*
%TO.C,R6*%
X216800000Y-118625000D03*
X216800000Y-120275000D03*
%TD*%
D51*
%TO.C,C7*%
X205100000Y-109450000D03*
X205100000Y-107550000D03*
%TD*%
D33*
%TO.C,C3*%
X205950000Y-120805000D03*
X205950000Y-119845000D03*
%TD*%
D52*
%TO.C,U1*%
X209737500Y-120250000D03*
X209737500Y-121200000D03*
X209737500Y-122150000D03*
X207462500Y-122150000D03*
X207462500Y-120250000D03*
%TD*%
D12*
%TO.C,TP3*%
X205100000Y-96975000D03*
%TD*%
D50*
%TO.C,J6*%
X178400000Y-118475000D03*
%TD*%
D34*
%TO.C,R7*%
X218725000Y-123800000D03*
X217075000Y-123800000D03*
%TD*%
D53*
%TO.C,C19*%
X209830000Y-123825000D03*
X210470000Y-123825000D03*
%TD*%
D12*
%TO.C,TP4*%
X191600000Y-108100000D03*
%TD*%
D54*
%TO.C,U7*%
X234495000Y-128525000D03*
X235765000Y-128525000D03*
X237035000Y-128525000D03*
X238305000Y-128525000D03*
X238305000Y-133675000D03*
X237035000Y-133675000D03*
X235765000Y-133675000D03*
X234495000Y-133675000D03*
%TD*%
D55*
%TO.C,L1*%
X221600000Y-121900000D03*
X221600000Y-124700000D03*
%TD*%
D12*
%TO.C,TP12*%
X240100000Y-85400000D03*
%TD*%
M02*
