M48
; DRILL file {KiCad 8.0.3+dfsg-1} date 2024-06-23T20:26:24+0100
; FORMAT={-:-/ absolute / metric / decimal}
; #@! TF.CreationDate,2024-06-23T20:26:24+01:00
; #@! TF.GenerationSoftware,Kicad,Pcbnew,8.0.3+dfsg-1
; #@! TF.FileFunction,Plated,1,4,PTH
FMAT,2
METRIC
; #@! TA.AperFunction,Plated,PTH,ViaDrill
T1C0.300
; #@! TA.AperFunction,Plated,PTH,ViaDrill
T2C0.400
; #@! TA.AperFunction,Plated,PTH,ComponentDrill
T3C0.600
; #@! TA.AperFunction,Plated,PTH,ComponentDrill
T4C0.800
; #@! TA.AperFunction,Plated,PTH,ComponentDrill
T5C0.890
; #@! TA.AperFunction,Plated,PTH,ComponentDrill
T6C1.000
; #@! TA.AperFunction,Plated,PTH,ComponentDrill
T7C1.850
; #@! TA.AperFunction,Plated,PTH,ComponentDrill
T8C2.000
; #@! TA.AperFunction,Plated,PTH,ComponentDrill
T9C2.010
%
G90
G05
T1
X177.55Y-123.7
X177.55Y-128.7
X177.55Y-138.7
X177.6Y-31.825
X177.6Y-36.825
X177.6Y-41.825
X177.6Y-46.825
X177.6Y-51.825
X177.6Y-56.825
X177.6Y-61.825
X177.6Y-66.825
X177.6Y-71.825
X177.6Y-76.825
X177.6Y-81.825
X177.6Y-86.825
X177.6Y-91.825
X177.6Y-96.825
X177.6Y-101.825
X177.6Y-106.825
X177.6Y-111.825
X180.6Y-114.775
X180.6Y-119.125
X180.6Y-129.775
X180.6Y-134.775
X182.865Y-26.825
X182.865Y-31.825
X182.865Y-36.825
X182.865Y-41.825
X182.865Y-51.825
X182.865Y-56.825
X182.865Y-61.825
X182.865Y-66.825
X182.865Y-71.825
X182.865Y-76.825
X182.865Y-81.825
X182.865Y-86.825
X182.865Y-91.825
X182.865Y-96.825
X182.865Y-101.825
X182.865Y-106.825
X182.865Y-111.825
X182.865Y-131.825
X183.5Y-122.875
X185.575Y-130.475
X185.6Y-114.775
X185.6Y-119.125
X185.6Y-138.775
X185.7Y-134.125
X186.3Y-122.875
X187.865Y-26.825
X187.865Y-31.825
X187.865Y-41.825
X187.865Y-46.825
X187.865Y-51.825
X187.865Y-56.825
X187.865Y-61.825
X187.865Y-66.825
X187.865Y-71.825
X187.865Y-76.825
X187.865Y-81.825
X187.865Y-86.825
X187.865Y-91.825
X187.865Y-96.825
X187.865Y-101.825
X187.865Y-106.825
X187.927Y-128.465
X189.562Y-124.162
X189.6Y-135.775
X189.6Y-138.7
X190.6Y-114.775
X190.7Y-119.075
X191.7Y-122.345
X191.7Y-124.175
X192.85Y-135.775
X192.85Y-138.7
X192.865Y-41.825
X192.865Y-46.825
X192.865Y-51.825
X192.865Y-56.825
X192.865Y-61.825
X192.865Y-66.825
X192.865Y-71.825
X192.865Y-76.825
X192.865Y-81.825
X192.865Y-86.825
X192.865Y-91.825
X192.865Y-96.825
X192.865Y-101.825
X193.2Y-127.925
X193.4Y-106.75
X193.8Y-109.6
X194.2Y-122.345
X194.2Y-124.175
X195.5Y-119.1
X195.6Y-114.775
X196.0Y-127.0
X196.225Y-125.725
X196.575Y-128.15
X196.6Y-124.175
X197.25Y-124.95
X197.6Y-135.775
X197.6Y-138.7
X197.8Y-128.6
X197.865Y-41.825
X197.865Y-51.825
X197.865Y-56.825
X197.865Y-61.825
X197.865Y-66.825
X197.865Y-71.825
X197.865Y-76.825
X197.865Y-81.825
X197.865Y-86.825
X197.865Y-91.825
X197.865Y-96.825
X197.865Y-106.825
X197.865Y-131.825
X198.5Y-124.9
X198.604Y-122.993
X199.1Y-128.1
X199.5Y-123.0
X199.7Y-106.875
X200.575Y-124.0
X200.6Y-114.775
X200.7Y-119.1
X201.8Y-125.7
X202.1Y-106.6
X202.85Y-135.775
X202.85Y-138.7
X202.865Y-41.825
X202.865Y-51.825
X202.865Y-56.825
X202.865Y-61.825
X202.865Y-66.825
X202.865Y-71.825
X202.865Y-76.825
X202.865Y-81.825
X202.865Y-86.825
X202.865Y-91.825
X202.945Y-28.83
X203.7Y-104.3
X203.9Y-109.475
X204.2Y-125.7
X204.475Y-123.125
X204.8Y-111.175
X205.1Y-106.7
X205.1Y-119.525
X205.3Y-117.8
X205.6Y-114.775
X206.25Y-105.8
X206.25Y-107.55
X206.55Y-27.745
X206.6Y-125.675
X206.9Y-41.825
X207.05Y-30.125
X207.85Y-135.775
X207.85Y-138.7
X207.865Y-46.825
X207.865Y-51.825
X207.865Y-56.825
X207.865Y-61.825
X207.865Y-66.825
X207.865Y-71.825
X207.865Y-76.825
X207.865Y-81.825
X207.865Y-86.825
X207.865Y-91.825
X207.865Y-96.825
X207.865Y-131.825
X208.12Y-27.755
X208.15Y-106.9
X208.5Y-120.225
X209.0Y-127.275
X210.2Y-119.375
X210.45Y-105.525
X210.525Y-103.975
X210.73Y-120.804
X210.814Y-122.15
X211.1Y-127.275
X211.66Y-27.735
X212.05Y-125.775
X212.675Y-30.1
X212.865Y-51.825
X212.865Y-56.825
X212.865Y-61.825
X212.865Y-66.825
X212.865Y-71.825
X212.865Y-76.825
X212.865Y-81.825
X212.865Y-86.825
X212.865Y-91.825
X212.9Y-135.775
X212.9Y-138.7
X213.2Y-104.5
X213.5Y-125.1
X214.15Y-26.925
X214.3Y-126.9
X214.4Y-125.7
X214.8Y-45.7
X214.875Y-128.0
X215.1Y-120.975
X215.3Y-125.1
X215.7Y-45.675
X216.0Y-122.375
X216.1Y-97.9
X216.1Y-128.45
X216.95Y-30.4
X217.0Y-105.5
X217.4Y-127.95
X217.5Y-125.2
X217.865Y-36.825
X217.865Y-41.825
X217.865Y-46.825
X217.865Y-61.825
X217.865Y-66.825
X217.865Y-71.825
X217.865Y-76.825
X217.865Y-81.825
X217.865Y-86.825
X217.865Y-91.825
X217.865Y-96.825
X217.865Y-131.825
X217.9Y-135.775
X217.9Y-138.7
X218.1Y-33.45
X218.2Y-118.775
X219.15Y-30.075
X219.59Y-118.879
X219.7Y-109.6
X219.831Y-117.894
X219.95Y-35.85
X220.6Y-34.675
X221.1Y-30.075
X221.1Y-112.8
X221.3Y-37.1
X221.346Y-33.621
X221.6Y-52.1
X221.9Y-120.275
X222.1Y-34.675
X222.6Y-46.95
X222.865Y-56.825
X222.865Y-66.825
X222.865Y-71.825
X222.865Y-76.825
X222.865Y-81.825
X222.865Y-86.825
X222.865Y-91.825
X222.865Y-96.825
X222.865Y-101.825
X222.865Y-111.825
X222.865Y-126.825
X222.9Y-135.775
X222.9Y-138.7
X223.05Y-30.075
X223.5Y-113.1
X224.1Y-33.4
X224.4Y-122.675
X224.8Y-130.3
X225.0Y-79.6
X225.05Y-30.4
X225.6Y-114.775
X225.75Y-49.375
X226.1Y-110.5
X226.7Y-121.475
X227.2Y-71.6
X227.2Y-74.6
X227.865Y-26.825
X227.865Y-31.825
X227.865Y-56.825
X227.865Y-76.825
X227.865Y-91.825
X227.865Y-96.825
X227.865Y-101.825
X227.865Y-106.825
X227.865Y-111.825
X227.865Y-131.825
X227.9Y-135.775
X227.9Y-138.7
X228.0Y-79.7
X228.85Y-45.545
X228.953Y-68.432
X229.4Y-82.5
X229.75Y-53.1
X232.0Y-31.375
X232.0Y-74.3
X232.2Y-84.85
X232.5Y-136.9
X232.865Y-26.825
X232.865Y-56.825
X232.865Y-91.825
X232.865Y-96.825
X232.865Y-101.825
X232.865Y-106.825
X232.865Y-111.825
X233.33Y-86.05
X233.5Y-35.775
X233.6Y-50.125
X234.2Y-86.05
X235.2Y-136.9
X235.4Y-131.1
X236.0Y-125.7
X236.15Y-46.175
X236.25Y-58.825
X236.25Y-59.925
X237.6Y-131.1
X237.865Y-26.825
X237.865Y-31.825
X237.865Y-36.825
X237.865Y-56.825
X237.865Y-76.825
X237.865Y-81.825
X237.865Y-86.825
X237.865Y-91.825
X237.865Y-96.825
X237.865Y-101.825
X237.865Y-106.825
X237.865Y-136.825
X239.6Y-126.7
X240.6Y-134.5
X242.2Y-26.825
X242.2Y-31.825
X242.2Y-36.825
X242.2Y-42.8
X242.2Y-46.825
X242.2Y-51.825
X242.2Y-61.825
X242.2Y-66.825
X242.2Y-76.825
X242.2Y-81.825
X242.2Y-86.825
X242.2Y-91.825
X242.2Y-96.825
X242.2Y-101.825
X242.2Y-106.825
X242.2Y-111.825
X242.2Y-126.825
X242.2Y-136.825
T2
X186.6Y-128.475
T5
X197.9Y-126.8
X200.44Y-126.8
X216.2Y-126.8
X218.74Y-126.8
T6
X191.6Y-108.1
X205.1Y-96.975
X208.6Y-102.8
X212.3Y-94.632
X222.0Y-108.1
X226.0Y-35.0
X228.6Y-85.5
X232.4Y-78.2
X240.05Y-65.48
X240.05Y-68.02
X240.05Y-70.56
X240.05Y-73.1
X240.1Y-85.4
T7
X228.9Y-116.5
X228.9Y-120.31
X228.9Y-124.12
X233.6Y-116.5
X233.6Y-120.31
X233.6Y-124.12
X238.3Y-116.5
X238.3Y-120.31
X238.3Y-124.12
T8
X189.15Y-38.9
X189.15Y-111.25
X208.25Y-38.9
X208.25Y-111.25
T9
X192.82Y-131.78
X202.98Y-131.88
X211.12Y-131.78
X221.28Y-131.88
T3
X216.789Y-27.515G85X216.789Y-26.015
G05
X216.789Y-32.625G85X216.789Y-31.625
G05
X225.429Y-27.515G85X225.429Y-26.015
G05
X225.429Y-32.625G85X225.429Y-31.625
G05
T4
X180.25Y-124.025G85X181.55Y-124.025
G05
X183.25Y-126.325G85X184.55Y-126.325
G05
X183.25Y-136.325G85X184.55Y-136.325
G05
X230.535Y-138.47G85X231.585Y-138.47
G05
X235.615Y-138.47G85X236.665Y-138.47
G05
T6
X229.9Y-34.775G85X229.9Y-36.775
G05
X235.6Y-32.775G85X233.6Y-32.775
G05
X235.6Y-38.775G85X233.6Y-38.775
G05
M30
