%TF.GenerationSoftware,KiCad,Pcbnew,8.0.5+dfsg-1*%
%TF.CreationDate,2024-09-25T11:52:26+01:00*%
%TF.ProjectId,low-noise-power-probe-panel,6c6f772d-6e6f-4697-9365-2d706f776572,rev?*%
%TF.SameCoordinates,Original*%
%TF.FileFunction,Paste,Top*%
%TF.FilePolarity,Positive*%
%FSLAX46Y46*%
G04 Gerber Fmt 4.6, Leading zero omitted, Abs format (unit mm)*
G04 Created by KiCad (PCBNEW 8.0.5+dfsg-1) date 2024-09-25 11:52:26*
%MOMM*%
%LPD*%
G01*
G04 APERTURE LIST*
G04 Aperture macros list*
%AMRoundRect*
0 Rectangle with rounded corners*
0 $1 Rounding radius*
0 $2 $3 $4 $5 $6 $7 $8 $9 X,Y pos of 4 corners*
0 Add a 4 corners polygon primitive as box body*
4,1,4,$2,$3,$4,$5,$6,$7,$8,$9,$2,$3,0*
0 Add four circle primitives for the rounded corners*
1,1,$1+$1,$2,$3*
1,1,$1+$1,$4,$5*
1,1,$1+$1,$6,$7*
1,1,$1+$1,$8,$9*
0 Add four rect primitives between the rounded corners*
20,1,$1+$1,$2,$3,$4,$5,0*
20,1,$1+$1,$4,$5,$6,$7,0*
20,1,$1+$1,$6,$7,$8,$9,0*
20,1,$1+$1,$8,$9,$2,$3,0*%
%AMFreePoly0*
4,1,9,3.862500,-0.866500,0.737500,-0.866500,0.737500,-0.450000,-0.737500,-0.450000,-0.737500,0.450000,0.737500,0.450000,0.737500,0.866500,3.862500,0.866500,3.862500,-0.866500,3.862500,-0.866500,$1*%
G04 Aperture macros list end*
%ADD10R,0.600000X0.450000*%
%ADD11RoundRect,0.112500X0.187500X0.112500X-0.187500X0.112500X-0.187500X-0.112500X0.187500X-0.112500X0*%
%ADD12RoundRect,0.200000X0.200000X0.275000X-0.200000X0.275000X-0.200000X-0.275000X0.200000X-0.275000X0*%
%ADD13R,1.700000X1.300000*%
%ADD14R,1.050000X2.200000*%
%ADD15R,1.000000X1.050000*%
%ADD16RoundRect,0.200000X-0.200000X-0.275000X0.200000X-0.275000X0.200000X0.275000X-0.200000X0.275000X0*%
%ADD17RoundRect,0.140000X0.094906X-0.198728X0.213239X0.055038X-0.094906X0.198728X-0.213239X-0.055038X0*%
%ADD18RoundRect,0.112500X0.112500X-0.187500X0.112500X0.187500X-0.112500X0.187500X-0.112500X-0.187500X0*%
%ADD19R,1.050000X0.600000*%
%ADD20R,0.300000X0.650000*%
%ADD21RoundRect,0.140000X0.198728X0.094906X-0.055038X0.213239X-0.198728X-0.094906X0.055038X-0.213239X0*%
%ADD22RoundRect,0.200000X-0.275000X0.200000X-0.275000X-0.200000X0.275000X-0.200000X0.275000X0.200000X0*%
%ADD23RoundRect,0.250000X-0.475000X0.250000X-0.475000X-0.250000X0.475000X-0.250000X0.475000X0.250000X0*%
%ADD24RoundRect,0.250000X-0.625000X0.375000X-0.625000X-0.375000X0.625000X-0.375000X0.625000X0.375000X0*%
%ADD25RoundRect,0.150000X-0.825000X-0.150000X0.825000X-0.150000X0.825000X0.150000X-0.825000X0.150000X0*%
%ADD26RoundRect,0.250000X-0.250000X-0.475000X0.250000X-0.475000X0.250000X0.475000X-0.250000X0.475000X0*%
%ADD27R,2.200000X1.050000*%
%ADD28R,1.050000X1.000000*%
%ADD29RoundRect,0.167500X-0.312500X0.167500X-0.312500X-0.167500X0.312500X-0.167500X0.312500X0.167500X0*%
%ADD30RoundRect,0.062500X-0.062500X0.362500X-0.062500X-0.362500X0.062500X-0.362500X0.062500X0.362500X0*%
%ADD31R,0.300000X0.700000*%
%ADD32R,1.000000X0.700000*%
%ADD33RoundRect,0.250000X0.475000X-0.250000X0.475000X0.250000X-0.475000X0.250000X-0.475000X-0.250000X0*%
%ADD34RoundRect,0.200000X0.275000X-0.200000X0.275000X0.200000X-0.275000X0.200000X-0.275000X-0.200000X0*%
%ADD35R,0.900000X1.300000*%
%ADD36FreePoly0,270.000000*%
%ADD37RoundRect,0.250000X-0.427321X-0.324842X0.025833X-0.536151X0.427321X0.324842X-0.025833X0.536151X0*%
G04 APERTURE END LIST*
D10*
%TO.C,D14*%
X218700000Y-34875000D03*
X216600000Y-34875000D03*
%TD*%
D11*
%TO.C,D8*%
X236250000Y-51975000D03*
X234150000Y-51975000D03*
%TD*%
D12*
%TO.C,R22*%
X200950000Y-35025000D03*
X199300000Y-35025000D03*
%TD*%
D13*
%TO.C,D2*%
X194600000Y-29625000D03*
X194600000Y-33125000D03*
%TD*%
D14*
%TO.C,TP17*%
X227975000Y-81555000D03*
X225025000Y-81555000D03*
D15*
X226500000Y-83080000D03*
%TD*%
D16*
%TO.C,R19*%
X204250000Y-31725000D03*
X205900000Y-31725000D03*
%TD*%
D17*
%TO.C,C24*%
X218797143Y-118710028D03*
X219202857Y-117839972D03*
%TD*%
D18*
%TO.C,D7*%
X238000000Y-50325000D03*
X238000000Y-48225000D03*
%TD*%
D12*
%TO.C,R24*%
X197750000Y-35025000D03*
X196100000Y-35025000D03*
%TD*%
D19*
%TO.C,U4*%
X235380000Y-84887500D03*
X236620000Y-84887500D03*
X235380000Y-84112500D03*
X236620000Y-84112500D03*
D20*
X235000000Y-86050000D03*
X235500000Y-86050000D03*
X236000000Y-86050000D03*
X236500000Y-86050000D03*
X237000000Y-86050000D03*
X237000000Y-82950000D03*
X236500000Y-82950000D03*
X236000000Y-82950000D03*
X235500000Y-82950000D03*
X235000000Y-82950000D03*
%TD*%
D21*
%TO.C,C21*%
X209035028Y-120977857D03*
X208164972Y-120572143D03*
%TD*%
D22*
%TO.C,R8*%
X211650000Y-28450000D03*
X211650000Y-30100000D03*
%TD*%
D23*
%TO.C,C14*%
X227150000Y-45550000D03*
X227150000Y-47450000D03*
%TD*%
D24*
%TO.C,F2*%
X231000000Y-42775000D03*
X231000000Y-45575000D03*
%TD*%
D25*
%TO.C,U8*%
X197275000Y-29470000D03*
X197275000Y-30740000D03*
X197275000Y-32010000D03*
X197275000Y-33280000D03*
X202225000Y-33280000D03*
X202225000Y-32010000D03*
X202225000Y-30740000D03*
X202225000Y-29470000D03*
%TD*%
D24*
%TO.C,F1*%
X234600000Y-42775000D03*
X234600000Y-45575000D03*
%TD*%
D26*
%TO.C,C30*%
X218350000Y-120825000D03*
X220250000Y-120825000D03*
%TD*%
D27*
%TO.C,TP16*%
X229200000Y-72825000D03*
X229200000Y-75775000D03*
D28*
X230725000Y-74300000D03*
%TD*%
D16*
%TO.C,R18*%
X204250000Y-33275000D03*
X205900000Y-33275000D03*
%TD*%
D12*
%TO.C,R23*%
X200650000Y-27625000D03*
X199000000Y-27625000D03*
%TD*%
D29*
%TO.C,U6*%
X224795000Y-46540000D03*
X223605000Y-46540000D03*
X224795000Y-47360000D03*
X223605000Y-47360000D03*
D30*
X225200000Y-45500000D03*
X224700000Y-45500000D03*
X224200000Y-45500000D03*
X223700000Y-45500000D03*
X223200000Y-45500000D03*
X223200000Y-48400000D03*
X223700000Y-48400000D03*
X224200000Y-48400000D03*
X224700000Y-48400000D03*
X225200000Y-48400000D03*
%TD*%
D31*
%TO.C,J4*%
X224109483Y-32535000D03*
X223609483Y-32535000D03*
X223109483Y-32535000D03*
X222609483Y-32535000D03*
X222109483Y-32535000D03*
X221609483Y-32535000D03*
X220609483Y-32535000D03*
X220109483Y-32535000D03*
X219609483Y-32535000D03*
X219109483Y-32535000D03*
X218609483Y-32535000D03*
X218109483Y-32535000D03*
D32*
X218009483Y-31235000D03*
D31*
X218859483Y-31235000D03*
X219359483Y-31235000D03*
X219859483Y-31235000D03*
X220359483Y-31235000D03*
X220859483Y-31235000D03*
X221359483Y-31235000D03*
X221859483Y-31235000D03*
X222359483Y-31235000D03*
X222859483Y-31235000D03*
X223359483Y-31235000D03*
D32*
X224209483Y-31235000D03*
%TD*%
D17*
%TO.C,C4*%
X219872143Y-119210028D03*
X220277857Y-118339972D03*
%TD*%
D22*
%TO.C,R10*%
X236300000Y-48475000D03*
X236300000Y-50125000D03*
%TD*%
%TO.C,R14*%
X222900000Y-50475000D03*
X222900000Y-52125000D03*
%TD*%
D33*
%TO.C,C28*%
X211600000Y-122425000D03*
X211600000Y-120525000D03*
%TD*%
D23*
%TO.C,C29*%
X217200000Y-117075000D03*
X217200000Y-118975000D03*
%TD*%
D34*
%TO.C,R21*%
X208125000Y-30125000D03*
X208125000Y-28475000D03*
%TD*%
D12*
%TO.C,R9*%
X233225000Y-82200000D03*
X231575000Y-82200000D03*
%TD*%
D35*
%TO.C,Q1*%
X232300000Y-47500000D03*
D36*
X230800000Y-47587500D03*
D35*
X229300000Y-47500000D03*
%TD*%
D33*
%TO.C,C9*%
X232200000Y-85850000D03*
X232200000Y-83950000D03*
%TD*%
D34*
%TO.C,R12*%
X234600000Y-50125000D03*
X234600000Y-48475000D03*
%TD*%
D22*
%TO.C,R13*%
X224700000Y-50475000D03*
X224700000Y-52125000D03*
%TD*%
D37*
%TO.C,C27*%
X207539009Y-121973513D03*
X209260991Y-122776487D03*
%TD*%
M02*
