%TF.GenerationSoftware,KiCad,Pcbnew,8.0.5+dfsg-1*%
%TF.CreationDate,2024-09-25T11:52:26+01:00*%
%TF.ProjectId,low-noise-power-probe-panel,6c6f772d-6e6f-4697-9365-2d706f776572,rev?*%
%TF.SameCoordinates,Original*%
%TF.FileFunction,Paste,Bot*%
%TF.FilePolarity,Positive*%
%FSLAX46Y46*%
G04 Gerber Fmt 4.6, Leading zero omitted, Abs format (unit mm)*
G04 Created by KiCad (PCBNEW 8.0.5+dfsg-1) date 2024-09-25 11:52:26*
%MOMM*%
%LPD*%
G01*
G04 APERTURE LIST*
G04 Aperture macros list*
%AMRoundRect*
0 Rectangle with rounded corners*
0 $1 Rounding radius*
0 $2 $3 $4 $5 $6 $7 $8 $9 X,Y pos of 4 corners*
0 Add a 4 corners polygon primitive as box body*
4,1,4,$2,$3,$4,$5,$6,$7,$8,$9,$2,$3,0*
0 Add four circle primitives for the rounded corners*
1,1,$1+$1,$2,$3*
1,1,$1+$1,$4,$5*
1,1,$1+$1,$6,$7*
1,1,$1+$1,$8,$9*
0 Add four rect primitives between the rounded corners*
20,1,$1+$1,$2,$3,$4,$5,0*
20,1,$1+$1,$4,$5,$6,$7,0*
20,1,$1+$1,$6,$7,$8,$9,0*
20,1,$1+$1,$8,$9,$2,$3,0*%
G04 Aperture macros list end*
%ADD10R,0.450000X0.600000*%
%ADD11RoundRect,0.140000X-0.170000X0.140000X-0.170000X-0.140000X0.170000X-0.140000X0.170000X0.140000X0*%
%ADD12RoundRect,0.140000X-0.140000X-0.170000X0.140000X-0.170000X0.140000X0.170000X-0.140000X0.170000X0*%
%ADD13R,1.050000X2.200000*%
%ADD14R,1.000000X1.050000*%
%ADD15RoundRect,0.218750X0.256250X-0.218750X0.256250X0.218750X-0.256250X0.218750X-0.256250X-0.218750X0*%
%ADD16RoundRect,0.140000X0.170000X-0.140000X0.170000X0.140000X-0.170000X0.140000X-0.170000X-0.140000X0*%
%ADD17RoundRect,0.200000X0.200000X0.275000X-0.200000X0.275000X-0.200000X-0.275000X0.200000X-0.275000X0*%
%ADD18R,2.200000X1.050000*%
%ADD19R,1.050000X1.000000*%
%ADD20RoundRect,0.150000X-0.150000X0.512500X-0.150000X-0.512500X0.150000X-0.512500X0.150000X0.512500X0*%
%ADD21RoundRect,0.200000X-0.275000X0.200000X-0.275000X-0.200000X0.275000X-0.200000X0.275000X0.200000X0*%
%ADD22RoundRect,0.218750X-0.218750X-0.256250X0.218750X-0.256250X0.218750X0.256250X-0.218750X0.256250X0*%
%ADD23R,0.600000X0.450000*%
%ADD24RoundRect,0.140000X0.140000X0.170000X-0.140000X0.170000X-0.140000X-0.170000X0.140000X-0.170000X0*%
%ADD25RoundRect,0.250000X-0.475000X0.250000X-0.475000X-0.250000X0.475000X-0.250000X0.475000X0.250000X0*%
%ADD26RoundRect,0.200000X-0.200000X-0.275000X0.200000X-0.275000X0.200000X0.275000X-0.200000X0.275000X0*%
%ADD27RoundRect,0.200000X0.275000X-0.200000X0.275000X0.200000X-0.275000X0.200000X-0.275000X-0.200000X0*%
%ADD28RoundRect,0.250000X-0.250000X-0.475000X0.250000X-0.475000X0.250000X0.475000X-0.250000X0.475000X0*%
%ADD29RoundRect,0.150000X0.150000X-0.512500X0.150000X0.512500X-0.150000X0.512500X-0.150000X-0.512500X0*%
%ADD30RoundRect,0.250000X0.475000X-0.250000X0.475000X0.250000X-0.475000X0.250000X-0.475000X-0.250000X0*%
%ADD31RoundRect,0.150000X0.512500X0.150000X-0.512500X0.150000X-0.512500X-0.150000X0.512500X-0.150000X0*%
%ADD32RoundRect,0.079500X-0.079500X-0.100500X0.079500X-0.100500X0.079500X0.100500X-0.079500X0.100500X0*%
%ADD33RoundRect,0.150000X-0.150000X0.725000X-0.150000X-0.725000X0.150000X-0.725000X0.150000X0.725000X0*%
%ADD34RoundRect,0.250000X-1.075000X0.375000X-1.075000X-0.375000X1.075000X-0.375000X1.075000X0.375000X0*%
G04 APERTURE END LIST*
%TO.C,J8*%
G36*
X196700000Y-113375000D02*
G01*
X195600000Y-113375000D01*
X195600000Y-114175000D01*
X196700000Y-114175000D01*
X196700000Y-113375000D01*
G37*
G36*
X199350000Y-113375000D02*
G01*
X198250000Y-113375000D01*
X198250000Y-114175000D01*
X199350000Y-114175000D01*
X199350000Y-113375000D01*
G37*
G36*
X202000000Y-113375000D02*
G01*
X200900000Y-113375000D01*
X200900000Y-114175000D01*
X202000000Y-114175000D01*
X202000000Y-113375000D01*
G37*
%TO.C,J11*%
G36*
X211100000Y-138075000D02*
G01*
X212200000Y-138075000D01*
X212200000Y-137275000D01*
X211100000Y-137275000D01*
X211100000Y-138075000D01*
G37*
G36*
X213750000Y-138075000D02*
G01*
X214850000Y-138075000D01*
X214850000Y-137275000D01*
X213750000Y-137275000D01*
X213750000Y-138075000D01*
G37*
G36*
X216400000Y-138075000D02*
G01*
X217500000Y-138075000D01*
X217500000Y-137275000D01*
X216400000Y-137275000D01*
X216400000Y-138075000D01*
G37*
%TO.C,J10*%
G36*
X195600000Y-138075000D02*
G01*
X196700000Y-138075000D01*
X196700000Y-137275000D01*
X195600000Y-137275000D01*
X195600000Y-138075000D01*
G37*
G36*
X198250000Y-138075000D02*
G01*
X199350000Y-138075000D01*
X199350000Y-137275000D01*
X198250000Y-137275000D01*
X198250000Y-138075000D01*
G37*
G36*
X200900000Y-138075000D02*
G01*
X202000000Y-138075000D01*
X202000000Y-137275000D01*
X200900000Y-137275000D01*
X200900000Y-138075000D01*
G37*
%TO.C,J9*%
G36*
X211100000Y-114175000D02*
G01*
X212200000Y-114175000D01*
X212200000Y-113375000D01*
X211100000Y-113375000D01*
X211100000Y-114175000D01*
G37*
G36*
X213750000Y-114175000D02*
G01*
X214850000Y-114175000D01*
X214850000Y-113375000D01*
X213750000Y-113375000D01*
X213750000Y-114175000D01*
G37*
G36*
X216400000Y-114175000D02*
G01*
X217500000Y-114175000D01*
X217500000Y-113375000D01*
X216400000Y-113375000D01*
X216400000Y-114175000D01*
G37*
%TO.C,J12*%
G36*
X226800000Y-129675000D02*
G01*
X226000000Y-129675000D01*
X226000000Y-128575000D01*
X226800000Y-128575000D01*
X226800000Y-129675000D01*
G37*
G36*
X226800000Y-132325000D02*
G01*
X226000000Y-132325000D01*
X226000000Y-131225000D01*
X226800000Y-131225000D01*
X226800000Y-132325000D01*
G37*
G36*
X226800000Y-134975000D02*
G01*
X226000000Y-134975000D01*
X226000000Y-133875000D01*
X226800000Y-133875000D01*
X226800000Y-134975000D01*
G37*
%TO.C,J7*%
G36*
X178800000Y-130975000D02*
G01*
X178000000Y-130975000D01*
X178000000Y-129875000D01*
X178800000Y-129875000D01*
X178800000Y-130975000D01*
G37*
G36*
X178800000Y-133625000D02*
G01*
X178000000Y-133625000D01*
X178000000Y-132525000D01*
X178800000Y-132525000D01*
X178800000Y-133625000D01*
G37*
G36*
X178800000Y-136275000D02*
G01*
X178000000Y-136275000D01*
X178000000Y-135175000D01*
X178800000Y-135175000D01*
X178800000Y-136275000D01*
G37*
%TO.C,J6*%
G36*
X178800000Y-116375000D02*
G01*
X178000000Y-116375000D01*
X178000000Y-115275000D01*
X178800000Y-115275000D01*
X178800000Y-116375000D01*
G37*
G36*
X178800000Y-119025000D02*
G01*
X178000000Y-119025000D01*
X178000000Y-117925000D01*
X178800000Y-117925000D01*
X178800000Y-119025000D01*
G37*
G36*
X178800000Y-121675000D02*
G01*
X178000000Y-121675000D01*
X178000000Y-120575000D01*
X178800000Y-120575000D01*
X178800000Y-121675000D01*
G37*
%TD*%
D10*
%TO.C,D10*%
X219150000Y-29375000D03*
X219150000Y-27275000D03*
%TD*%
D11*
%TO.C,C8*%
X199700000Y-107495000D03*
X199700000Y-108455000D03*
%TD*%
D12*
%TO.C,C1*%
X209620000Y-124725000D03*
X210580000Y-124725000D03*
%TD*%
D10*
%TO.C,D11*%
X223050000Y-29375000D03*
X223050000Y-27275000D03*
%TD*%
D13*
%TO.C,TP14*%
X211625000Y-118380000D03*
X214575000Y-118380000D03*
D14*
X213100000Y-119905000D03*
%TD*%
D15*
%TO.C,D6*%
X233700000Y-138937500D03*
X233700000Y-137362500D03*
%TD*%
D12*
%TO.C,C20*%
X206820000Y-117075000D03*
X207780000Y-117075000D03*
%TD*%
D16*
%TO.C,C13*%
X209750000Y-107680000D03*
X209750000Y-106720000D03*
%TD*%
%TO.C,C26*%
X217200000Y-116855000D03*
X217200000Y-115895000D03*
%TD*%
D17*
%TO.C,R16*%
X185075000Y-134125000D03*
X183425000Y-134125000D03*
%TD*%
D18*
%TO.C,TP10*%
X217700000Y-106625000D03*
X217700000Y-109575000D03*
D19*
X216175000Y-108100000D03*
%TD*%
D20*
%TO.C,U5*%
X211100000Y-105562500D03*
X212050000Y-105562500D03*
X213000000Y-105562500D03*
X213000000Y-107837500D03*
X211100000Y-107837500D03*
%TD*%
D21*
%TO.C,R15*%
X235650000Y-71275000D03*
X235650000Y-72925000D03*
%TD*%
D10*
%TO.C,D12*%
X221100000Y-29375000D03*
X221100000Y-27275000D03*
%TD*%
D17*
%TO.C,R3*%
X208125000Y-118450000D03*
X206475000Y-118450000D03*
%TD*%
D22*
%TO.C,D4*%
X186462500Y-138750000D03*
X188037500Y-138750000D03*
%TD*%
D23*
%TO.C,D13*%
X239050000Y-44175000D03*
X236950000Y-44175000D03*
%TD*%
D17*
%TO.C,R5*%
X203825000Y-122200000D03*
X202175000Y-122200000D03*
%TD*%
D24*
%TO.C,C25*%
X219430000Y-121475000D03*
X218470000Y-121475000D03*
%TD*%
D11*
%TO.C,C22*%
X211250000Y-121195000D03*
X211250000Y-122155000D03*
%TD*%
D25*
%TO.C,C5*%
X205100000Y-103900000D03*
X205100000Y-105800000D03*
%TD*%
D23*
%TO.C,D15*%
X239050000Y-46175000D03*
X236950000Y-46175000D03*
%TD*%
D22*
%TO.C,D5*%
X211662500Y-26925000D03*
X213237500Y-26925000D03*
%TD*%
D26*
%TO.C,R1*%
X213325000Y-123800000D03*
X214975000Y-123800000D03*
%TD*%
D10*
%TO.C,D9*%
X223050000Y-34675000D03*
X223050000Y-36775000D03*
%TD*%
D27*
%TO.C,R2*%
X205500000Y-123825000D03*
X205500000Y-122175000D03*
%TD*%
D16*
%TO.C,C6*%
X199700000Y-106255000D03*
X199700000Y-105295000D03*
%TD*%
D17*
%TO.C,R4*%
X220425000Y-115700000D03*
X218775000Y-115700000D03*
%TD*%
D13*
%TO.C,TP18*%
X203625000Y-100730000D03*
X206575000Y-100730000D03*
D14*
X205100000Y-102255000D03*
%TD*%
D24*
%TO.C,C11*%
X212080000Y-103975000D03*
X211120000Y-103975000D03*
%TD*%
D26*
%TO.C,R17*%
X183375000Y-128525000D03*
X185025000Y-128525000D03*
%TD*%
D28*
%TO.C,C10*%
X211050000Y-102375000D03*
X212950000Y-102375000D03*
%TD*%
D25*
%TO.C,C12*%
X207950000Y-106050000D03*
X207950000Y-107950000D03*
%TD*%
D27*
%TO.C,R20*%
X232600000Y-131725000D03*
X232600000Y-130075000D03*
%TD*%
D22*
%TO.C,D3*%
X178712500Y-138775000D03*
X180287500Y-138775000D03*
%TD*%
D29*
%TO.C,U2*%
X220543750Y-119943750D03*
X219593750Y-119943750D03*
X218643750Y-119943750D03*
X218643750Y-117668750D03*
X220543750Y-117668750D03*
%TD*%
D17*
%TO.C,R26*%
X214775000Y-121475000D03*
X213125000Y-121475000D03*
%TD*%
D18*
%TO.C,TP5*%
X195800000Y-109575000D03*
X195800000Y-106625000D03*
D19*
X197325000Y-108100000D03*
%TD*%
D21*
%TO.C,R25*%
X237225000Y-71275000D03*
X237225000Y-72925000D03*
%TD*%
D16*
%TO.C,C2*%
X200600000Y-123280000D03*
X200600000Y-122320000D03*
%TD*%
D12*
%TO.C,C18*%
X209620000Y-125775000D03*
X210580000Y-125775000D03*
%TD*%
D13*
%TO.C,TP19*%
X210825000Y-98487500D03*
X213775000Y-98487500D03*
D14*
X212300000Y-100012500D03*
%TD*%
D20*
%TO.C,U3*%
X201150000Y-105562500D03*
X202100000Y-105562500D03*
X203050000Y-105562500D03*
X203050000Y-107837500D03*
X201150000Y-107837500D03*
%TD*%
D22*
%TO.C,D1*%
X206537500Y-26925000D03*
X208112500Y-26925000D03*
%TD*%
D21*
%TO.C,R6*%
X216800000Y-118625000D03*
X216800000Y-120275000D03*
%TD*%
D30*
%TO.C,C7*%
X205100000Y-109450000D03*
X205100000Y-107550000D03*
%TD*%
D16*
%TO.C,C3*%
X205950000Y-120805000D03*
X205950000Y-119845000D03*
%TD*%
D31*
%TO.C,U1*%
X209737500Y-120250000D03*
X209737500Y-121200000D03*
X209737500Y-122150000D03*
X207462500Y-122150000D03*
X207462500Y-120250000D03*
%TD*%
D17*
%TO.C,R7*%
X218725000Y-123800000D03*
X217075000Y-123800000D03*
%TD*%
D32*
%TO.C,C19*%
X209805000Y-123825000D03*
X210495000Y-123825000D03*
%TD*%
D33*
%TO.C,U7*%
X234495000Y-128525000D03*
X235765000Y-128525000D03*
X237035000Y-128525000D03*
X238305000Y-128525000D03*
X238305000Y-133675000D03*
X237035000Y-133675000D03*
X235765000Y-133675000D03*
X234495000Y-133675000D03*
%TD*%
D34*
%TO.C,L1*%
X221600000Y-121900000D03*
X221600000Y-124700000D03*
%TD*%
M02*
