G04 #@! TF.GenerationSoftware,KiCad,Pcbnew,6.0.11+dfsg-1*
G04 #@! TF.CreationDate,2023-09-05T11:20:00+01:00*
G04 #@! TF.ProjectId,low-noise-power-probe-panel,6c6f772d-6e6f-4697-9365-2d706f776572,rev?*
G04 #@! TF.SameCoordinates,Original*
G04 #@! TF.FileFunction,Legend,Top*
G04 #@! TF.FilePolarity,Positive*
%FSLAX46Y46*%
G04 Gerber Fmt 4.6, Leading zero omitted, Abs format (unit mm)*
G04 Created by KiCad (PCBNEW 6.0.11+dfsg-1) date 2023-09-05 11:20:00*
%MOMM*%
%LPD*%
G01*
G04 APERTURE LIST*
%ADD10C,0.150000*%
%ADD11C,0.300000*%
%ADD12C,0.250000*%
%ADD13C,0.120000*%
G04 APERTURE END LIST*
D10*
X224300000Y-84900000D02*
X226700000Y-85400000D01*
X204200000Y-118500000D02*
X211000000Y-120300000D01*
X243952380Y-138814285D02*
X242952380Y-138814285D01*
X243666666Y-138480952D01*
X242952380Y-138147619D01*
X243952380Y-138147619D01*
X242952380Y-137671428D02*
X243761904Y-137671428D01*
X243857142Y-137623809D01*
X243904761Y-137576190D01*
X243952380Y-137480952D01*
X243952380Y-137290476D01*
X243904761Y-137195238D01*
X243857142Y-137147619D01*
X243761904Y-137100000D01*
X242952380Y-137100000D01*
X243952380Y-136147619D02*
X243952380Y-136623809D01*
X242952380Y-136623809D01*
X242952380Y-135957142D02*
X242952380Y-135385714D01*
X243952380Y-135671428D02*
X242952380Y-135671428D01*
X243952380Y-135052380D02*
X242952380Y-135052380D01*
X243857142Y-134004761D02*
X243904761Y-134052380D01*
X243952380Y-134195238D01*
X243952380Y-134290476D01*
X243904761Y-134433333D01*
X243809523Y-134528571D01*
X243714285Y-134576190D01*
X243523809Y-134623809D01*
X243380952Y-134623809D01*
X243190476Y-134576190D01*
X243095238Y-134528571D01*
X243000000Y-134433333D01*
X242952380Y-134290476D01*
X242952380Y-134195238D01*
X243000000Y-134052380D01*
X243047619Y-134004761D01*
X242952380Y-133385714D02*
X242952380Y-133195238D01*
X243000000Y-133100000D01*
X243095238Y-133004761D01*
X243285714Y-132957142D01*
X243619047Y-132957142D01*
X243809523Y-133004761D01*
X243904761Y-133100000D01*
X243952380Y-133195238D01*
X243952380Y-133385714D01*
X243904761Y-133480952D01*
X243809523Y-133576190D01*
X243619047Y-133623809D01*
X243285714Y-133623809D01*
X243095238Y-133576190D01*
X243000000Y-133480952D01*
X242952380Y-133385714D01*
X243952380Y-132528571D02*
X242952380Y-132528571D01*
X243666666Y-132195238D01*
X242952380Y-131861904D01*
X243952380Y-131861904D01*
X243952380Y-131385714D02*
X242952380Y-131385714D01*
X242952380Y-131004761D01*
X243000000Y-130909523D01*
X243047619Y-130861904D01*
X243142857Y-130814285D01*
X243285714Y-130814285D01*
X243380952Y-130861904D01*
X243428571Y-130909523D01*
X243476190Y-131004761D01*
X243476190Y-131385714D01*
X243952380Y-129100000D02*
X243952380Y-129671428D01*
X243952380Y-129385714D02*
X242952380Y-129385714D01*
X243095238Y-129480952D01*
X243190476Y-129576190D01*
X243238095Y-129671428D01*
X243952380Y-128671428D02*
X242952380Y-128671428D01*
X243666666Y-128338095D01*
X242952380Y-128004761D01*
X243952380Y-128004761D01*
X242952380Y-127623809D02*
X242952380Y-127004761D01*
X243333333Y-127338095D01*
X243333333Y-127195238D01*
X243380952Y-127100000D01*
X243428571Y-127052380D01*
X243523809Y-127004761D01*
X243761904Y-127004761D01*
X243857142Y-127052380D01*
X243904761Y-127100000D01*
X243952380Y-127195238D01*
X243952380Y-127480952D01*
X243904761Y-127576190D01*
X243857142Y-127623809D01*
X243952380Y-126052380D02*
X243952380Y-126623809D01*
X243952380Y-126338095D02*
X242952380Y-126338095D01*
X243095238Y-126433333D01*
X243190476Y-126528571D01*
X243238095Y-126623809D01*
X242952380Y-125766666D02*
X242952380Y-125195238D01*
X243952380Y-125480952D02*
X242952380Y-125480952D01*
X243047619Y-124909523D02*
X243000000Y-124861904D01*
X242952380Y-124766666D01*
X242952380Y-124528571D01*
X243000000Y-124433333D01*
X243047619Y-124385714D01*
X243142857Y-124338095D01*
X243238095Y-124338095D01*
X243380952Y-124385714D01*
X243952380Y-124957142D01*
X243952380Y-124338095D01*
X243428571Y-123576190D02*
X243476190Y-123433333D01*
X243523809Y-123385714D01*
X243619047Y-123338095D01*
X243761904Y-123338095D01*
X243857142Y-123385714D01*
X243904761Y-123433333D01*
X243952380Y-123528571D01*
X243952380Y-123909523D01*
X242952380Y-123909523D01*
X242952380Y-123576190D01*
X243000000Y-123480952D01*
X243047619Y-123433333D01*
X243142857Y-123385714D01*
X243238095Y-123385714D01*
X243333333Y-123433333D01*
X243380952Y-123480952D01*
X243428571Y-123576190D01*
X243428571Y-123909523D01*
X243285714Y-122480952D02*
X243952380Y-122480952D01*
X242904761Y-122719047D02*
X243619047Y-122957142D01*
X243619047Y-122338095D01*
X243952380Y-121957142D02*
X242952380Y-121957142D01*
X243666666Y-121623809D01*
X242952380Y-121290476D01*
X243952380Y-121290476D01*
X242952380Y-120909523D02*
X242952380Y-120242857D01*
X243952380Y-120671428D01*
X244047619Y-119195238D02*
X244000000Y-119290476D01*
X243904761Y-119385714D01*
X243761904Y-119528571D01*
X243714285Y-119623809D01*
X243714285Y-119719047D01*
X243952380Y-119671428D02*
X243904761Y-119766666D01*
X243809523Y-119861904D01*
X243619047Y-119909523D01*
X243285714Y-119909523D01*
X243095238Y-119861904D01*
X243000000Y-119766666D01*
X242952380Y-119671428D01*
X242952380Y-119480952D01*
X243000000Y-119385714D01*
X243095238Y-119290476D01*
X243285714Y-119242857D01*
X243619047Y-119242857D01*
X243809523Y-119290476D01*
X243904761Y-119385714D01*
X243952380Y-119480952D01*
X243952380Y-119671428D01*
X243428571Y-118814285D02*
X243428571Y-118480952D01*
X243952380Y-118338095D02*
X243952380Y-118814285D01*
X242952380Y-118814285D01*
X242952380Y-118338095D01*
D11*
X194714285Y-23178571D02*
X194571428Y-23107142D01*
X194500000Y-22964285D01*
X194500000Y-21678571D01*
X195500000Y-23178571D02*
X195357142Y-23107142D01*
X195285714Y-23035714D01*
X195214285Y-22892857D01*
X195214285Y-22464285D01*
X195285714Y-22321428D01*
X195357142Y-22250000D01*
X195500000Y-22178571D01*
X195714285Y-22178571D01*
X195857142Y-22250000D01*
X195928571Y-22321428D01*
X196000000Y-22464285D01*
X196000000Y-22892857D01*
X195928571Y-23035714D01*
X195857142Y-23107142D01*
X195714285Y-23178571D01*
X195500000Y-23178571D01*
X196500000Y-22178571D02*
X196785714Y-23178571D01*
X197071428Y-22464285D01*
X197357142Y-23178571D01*
X197642857Y-22178571D01*
X199357142Y-22178571D02*
X199357142Y-23178571D01*
X199357142Y-22321428D02*
X199428571Y-22250000D01*
X199571428Y-22178571D01*
X199785714Y-22178571D01*
X199928571Y-22250000D01*
X200000000Y-22392857D01*
X200000000Y-23178571D01*
X200928571Y-23178571D02*
X200785714Y-23107142D01*
X200714285Y-23035714D01*
X200642857Y-22892857D01*
X200642857Y-22464285D01*
X200714285Y-22321428D01*
X200785714Y-22250000D01*
X200928571Y-22178571D01*
X201142857Y-22178571D01*
X201285714Y-22250000D01*
X201357142Y-22321428D01*
X201428571Y-22464285D01*
X201428571Y-22892857D01*
X201357142Y-23035714D01*
X201285714Y-23107142D01*
X201142857Y-23178571D01*
X200928571Y-23178571D01*
X202071428Y-23178571D02*
X202071428Y-22178571D01*
X202071428Y-21678571D02*
X202000000Y-21750000D01*
X202071428Y-21821428D01*
X202142857Y-21750000D01*
X202071428Y-21678571D01*
X202071428Y-21821428D01*
X202714285Y-23107142D02*
X202857142Y-23178571D01*
X203142857Y-23178571D01*
X203285714Y-23107142D01*
X203357142Y-22964285D01*
X203357142Y-22892857D01*
X203285714Y-22750000D01*
X203142857Y-22678571D01*
X202928571Y-22678571D01*
X202785714Y-22607142D01*
X202714285Y-22464285D01*
X202714285Y-22392857D01*
X202785714Y-22250000D01*
X202928571Y-22178571D01*
X203142857Y-22178571D01*
X203285714Y-22250000D01*
X204571428Y-23107142D02*
X204428571Y-23178571D01*
X204142857Y-23178571D01*
X204000000Y-23107142D01*
X203928571Y-22964285D01*
X203928571Y-22392857D01*
X204000000Y-22250000D01*
X204142857Y-22178571D01*
X204428571Y-22178571D01*
X204571428Y-22250000D01*
X204642857Y-22392857D01*
X204642857Y-22535714D01*
X203928571Y-22678571D01*
X206428571Y-22178571D02*
X206428571Y-23678571D01*
X206428571Y-22250000D02*
X206571428Y-22178571D01*
X206857142Y-22178571D01*
X207000000Y-22250000D01*
X207071428Y-22321428D01*
X207142857Y-22464285D01*
X207142857Y-22892857D01*
X207071428Y-23035714D01*
X207000000Y-23107142D01*
X206857142Y-23178571D01*
X206571428Y-23178571D01*
X206428571Y-23107142D01*
X208000000Y-23178571D02*
X207857142Y-23107142D01*
X207785714Y-23035714D01*
X207714285Y-22892857D01*
X207714285Y-22464285D01*
X207785714Y-22321428D01*
X207857142Y-22250000D01*
X208000000Y-22178571D01*
X208214285Y-22178571D01*
X208357142Y-22250000D01*
X208428571Y-22321428D01*
X208500000Y-22464285D01*
X208500000Y-22892857D01*
X208428571Y-23035714D01*
X208357142Y-23107142D01*
X208214285Y-23178571D01*
X208000000Y-23178571D01*
X209000000Y-22178571D02*
X209285714Y-23178571D01*
X209571428Y-22464285D01*
X209857142Y-23178571D01*
X210142857Y-22178571D01*
X211285714Y-23107142D02*
X211142857Y-23178571D01*
X210857142Y-23178571D01*
X210714285Y-23107142D01*
X210642857Y-22964285D01*
X210642857Y-22392857D01*
X210714285Y-22250000D01*
X210857142Y-22178571D01*
X211142857Y-22178571D01*
X211285714Y-22250000D01*
X211357142Y-22392857D01*
X211357142Y-22535714D01*
X210642857Y-22678571D01*
X212000000Y-23178571D02*
X212000000Y-22178571D01*
X212000000Y-22464285D02*
X212071428Y-22321428D01*
X212142857Y-22250000D01*
X212285714Y-22178571D01*
X212428571Y-22178571D01*
X214071428Y-22178571D02*
X214071428Y-23678571D01*
X214071428Y-22250000D02*
X214214285Y-22178571D01*
X214500000Y-22178571D01*
X214642857Y-22250000D01*
X214714285Y-22321428D01*
X214785714Y-22464285D01*
X214785714Y-22892857D01*
X214714285Y-23035714D01*
X214642857Y-23107142D01*
X214500000Y-23178571D01*
X214214285Y-23178571D01*
X214071428Y-23107142D01*
X215428571Y-23178571D02*
X215428571Y-22178571D01*
X215428571Y-22464285D02*
X215500000Y-22321428D01*
X215571428Y-22250000D01*
X215714285Y-22178571D01*
X215857142Y-22178571D01*
X216571428Y-23178571D02*
X216428571Y-23107142D01*
X216357142Y-23035714D01*
X216285714Y-22892857D01*
X216285714Y-22464285D01*
X216357142Y-22321428D01*
X216428571Y-22250000D01*
X216571428Y-22178571D01*
X216785714Y-22178571D01*
X216928571Y-22250000D01*
X217000000Y-22321428D01*
X217071428Y-22464285D01*
X217071428Y-22892857D01*
X217000000Y-23035714D01*
X216928571Y-23107142D01*
X216785714Y-23178571D01*
X216571428Y-23178571D01*
X217714285Y-23178571D02*
X217714285Y-21678571D01*
X217714285Y-22250000D02*
X217857142Y-22178571D01*
X218142857Y-22178571D01*
X218285714Y-22250000D01*
X218357142Y-22321428D01*
X218428571Y-22464285D01*
X218428571Y-22892857D01*
X218357142Y-23035714D01*
X218285714Y-23107142D01*
X218142857Y-23178571D01*
X217857142Y-23178571D01*
X217714285Y-23107142D01*
X219642857Y-23107142D02*
X219500000Y-23178571D01*
X219214285Y-23178571D01*
X219071428Y-23107142D01*
X219000000Y-22964285D01*
X219000000Y-22392857D01*
X219071428Y-22250000D01*
X219214285Y-22178571D01*
X219500000Y-22178571D01*
X219642857Y-22250000D01*
X219714285Y-22392857D01*
X219714285Y-22535714D01*
X219000000Y-22678571D01*
X221357142Y-22178571D02*
X221714285Y-23178571D01*
X222071428Y-22178571D01*
X223428571Y-23178571D02*
X222571428Y-23178571D01*
X223000000Y-23178571D02*
X223000000Y-21678571D01*
X222857142Y-21892857D01*
X222714285Y-22035714D01*
X222571428Y-22107142D01*
X224071428Y-23035714D02*
X224142857Y-23107142D01*
X224071428Y-23178571D01*
X224000000Y-23107142D01*
X224071428Y-23035714D01*
X224071428Y-23178571D01*
X225071428Y-21678571D02*
X225214285Y-21678571D01*
X225357142Y-21750000D01*
X225428571Y-21821428D01*
X225500000Y-21964285D01*
X225571428Y-22250000D01*
X225571428Y-22607142D01*
X225500000Y-22892857D01*
X225428571Y-23035714D01*
X225357142Y-23107142D01*
X225214285Y-23178571D01*
X225071428Y-23178571D01*
X224928571Y-23107142D01*
X224857142Y-23035714D01*
X224785714Y-22892857D01*
X224714285Y-22607142D01*
X224714285Y-22250000D01*
X224785714Y-21964285D01*
X224857142Y-21821428D01*
X224928571Y-21750000D01*
X225071428Y-21678571D01*
D10*
X235416785Y-65000000D02*
X235321547Y-64952380D01*
X235178690Y-64952380D01*
X235035833Y-65000000D01*
X234940595Y-65095238D01*
X234892976Y-65190476D01*
X234845357Y-65380952D01*
X234845357Y-65523809D01*
X234892976Y-65714285D01*
X234940595Y-65809523D01*
X235035833Y-65904761D01*
X235178690Y-65952380D01*
X235273928Y-65952380D01*
X235416785Y-65904761D01*
X235464404Y-65857142D01*
X235464404Y-65523809D01*
X235273928Y-65523809D01*
X235892976Y-65952380D02*
X235892976Y-64952380D01*
X236464404Y-65952380D01*
X236464404Y-64952380D01*
X236940595Y-65952380D02*
X236940595Y-64952380D01*
X237178690Y-64952380D01*
X237321547Y-65000000D01*
X237416785Y-65095238D01*
X237464404Y-65190476D01*
X237512023Y-65380952D01*
X237512023Y-65523809D01*
X237464404Y-65714285D01*
X237416785Y-65809523D01*
X237321547Y-65904761D01*
X237178690Y-65952380D01*
X236940595Y-65952380D01*
X205604761Y-26357142D02*
X205557142Y-26404761D01*
X205414285Y-26452380D01*
X205319047Y-26452380D01*
X205176190Y-26404761D01*
X205080952Y-26309523D01*
X205033333Y-26214285D01*
X204985714Y-26023809D01*
X204985714Y-25880952D01*
X205033333Y-25690476D01*
X205080952Y-25595238D01*
X205176190Y-25500000D01*
X205319047Y-25452380D01*
X205414285Y-25452380D01*
X205557142Y-25500000D01*
X205604761Y-25547619D01*
X206033333Y-26452380D02*
X206033333Y-25452380D01*
X206033333Y-25928571D02*
X206604761Y-25928571D01*
X206604761Y-26452380D02*
X206604761Y-25452380D01*
X207033333Y-26166666D02*
X207509523Y-26166666D01*
X206938095Y-26452380D02*
X207271428Y-25452380D01*
X207604761Y-26452380D01*
X208509523Y-26452380D02*
X208176190Y-25976190D01*
X207938095Y-26452380D02*
X207938095Y-25452380D01*
X208319047Y-25452380D01*
X208414285Y-25500000D01*
X208461904Y-25547619D01*
X208509523Y-25642857D01*
X208509523Y-25785714D01*
X208461904Y-25880952D01*
X208414285Y-25928571D01*
X208319047Y-25976190D01*
X207938095Y-25976190D01*
X209461904Y-25500000D02*
X209366666Y-25452380D01*
X209223809Y-25452380D01*
X209080952Y-25500000D01*
X208985714Y-25595238D01*
X208938095Y-25690476D01*
X208890476Y-25880952D01*
X208890476Y-26023809D01*
X208938095Y-26214285D01*
X208985714Y-26309523D01*
X209080952Y-26404761D01*
X209223809Y-26452380D01*
X209319047Y-26452380D01*
X209461904Y-26404761D01*
X209509523Y-26357142D01*
X209509523Y-26023809D01*
X209319047Y-26023809D01*
X209938095Y-25928571D02*
X210271428Y-25928571D01*
X210414285Y-26452380D02*
X209938095Y-26452380D01*
X209938095Y-25452380D01*
X210414285Y-25452380D01*
D12*
X216607142Y-122607142D02*
X216821428Y-122678571D01*
X217178571Y-122678571D01*
X217321428Y-122607142D01*
X217392857Y-122535714D01*
X217464285Y-122392857D01*
X217464285Y-122250000D01*
X217392857Y-122107142D01*
X217321428Y-122035714D01*
X217178571Y-121964285D01*
X216892857Y-121892857D01*
X216750000Y-121821428D01*
X216678571Y-121750000D01*
X216607142Y-121607142D01*
X216607142Y-121464285D01*
X216678571Y-121321428D01*
X216750000Y-121250000D01*
X216892857Y-121178571D01*
X217250000Y-121178571D01*
X217464285Y-121250000D01*
X218964285Y-122535714D02*
X218892857Y-122607142D01*
X218678571Y-122678571D01*
X218535714Y-122678571D01*
X218321428Y-122607142D01*
X218178571Y-122464285D01*
X218107142Y-122321428D01*
X218035714Y-122035714D01*
X218035714Y-121821428D01*
X218107142Y-121535714D01*
X218178571Y-121392857D01*
X218321428Y-121250000D01*
X218535714Y-121178571D01*
X218678571Y-121178571D01*
X218892857Y-121250000D01*
X218964285Y-121321428D01*
X219892857Y-121178571D02*
X220178571Y-121178571D01*
X220321428Y-121250000D01*
X220464285Y-121392857D01*
X220535714Y-121678571D01*
X220535714Y-122178571D01*
X220464285Y-122464285D01*
X220321428Y-122607142D01*
X220178571Y-122678571D01*
X219892857Y-122678571D01*
X219750000Y-122607142D01*
X219607142Y-122464285D01*
X219535714Y-122178571D01*
X219535714Y-121678571D01*
X219607142Y-121392857D01*
X219750000Y-121250000D01*
X219892857Y-121178571D01*
X221178571Y-122678571D02*
X221178571Y-121178571D01*
X221750000Y-121178571D01*
X221892857Y-121250000D01*
X221964285Y-121321428D01*
X222035714Y-121464285D01*
X222035714Y-121678571D01*
X221964285Y-121821428D01*
X221892857Y-121892857D01*
X221750000Y-121964285D01*
X221178571Y-121964285D01*
X222678571Y-121892857D02*
X223178571Y-121892857D01*
X223392857Y-122678571D02*
X222678571Y-122678571D01*
X222678571Y-121178571D01*
X223392857Y-121178571D01*
D10*
X206461666Y-136138095D02*
X206461666Y-135661904D01*
X206747380Y-136233333D02*
X205747380Y-135900000D01*
X206747380Y-135566666D01*
X206747380Y-135233333D02*
X205747380Y-135233333D01*
X206461666Y-134900000D01*
X205747380Y-134566666D01*
X206747380Y-134566666D01*
X206747380Y-134090476D02*
X205747380Y-134090476D01*
X205747380Y-133709523D01*
X205795000Y-133614285D01*
X205842619Y-133566666D01*
X205937857Y-133519047D01*
X206080714Y-133519047D01*
X206175952Y-133566666D01*
X206223571Y-133614285D01*
X206271190Y-133709523D01*
X206271190Y-134090476D01*
X206747380Y-133090476D02*
X205747380Y-133090476D01*
X206223571Y-133090476D02*
X206223571Y-132519047D01*
X206747380Y-132519047D02*
X205747380Y-132519047D01*
X206223571Y-132042857D02*
X206223571Y-131709523D01*
X206747380Y-131566666D02*
X206747380Y-132042857D01*
X205747380Y-132042857D01*
X205747380Y-131566666D01*
X206747380Y-131138095D02*
X205747380Y-131138095D01*
X206747380Y-130566666D01*
X205747380Y-130566666D01*
X205747380Y-129900000D02*
X205747380Y-129709523D01*
X205795000Y-129614285D01*
X205890238Y-129519047D01*
X206080714Y-129471428D01*
X206414047Y-129471428D01*
X206604523Y-129519047D01*
X206699761Y-129614285D01*
X206747380Y-129709523D01*
X206747380Y-129900000D01*
X206699761Y-129995238D01*
X206604523Y-130090476D01*
X206414047Y-130138095D01*
X206080714Y-130138095D01*
X205890238Y-130090476D01*
X205795000Y-129995238D01*
X205747380Y-129900000D01*
X206747380Y-128566666D02*
X206747380Y-129042857D01*
X205747380Y-129042857D01*
X207357380Y-138900000D02*
X207357380Y-138804761D01*
X207405000Y-138709523D01*
X207452619Y-138661904D01*
X207547857Y-138614285D01*
X207738333Y-138566666D01*
X207976428Y-138566666D01*
X208166904Y-138614285D01*
X208262142Y-138661904D01*
X208309761Y-138709523D01*
X208357380Y-138804761D01*
X208357380Y-138900000D01*
X208309761Y-138995238D01*
X208262142Y-139042857D01*
X208166904Y-139090476D01*
X207976428Y-139138095D01*
X207738333Y-139138095D01*
X207547857Y-139090476D01*
X207452619Y-139042857D01*
X207405000Y-138995238D01*
X207357380Y-138900000D01*
X207357380Y-138233333D02*
X207357380Y-137614285D01*
X207738333Y-137947619D01*
X207738333Y-137804761D01*
X207785952Y-137709523D01*
X207833571Y-137661904D01*
X207928809Y-137614285D01*
X208166904Y-137614285D01*
X208262142Y-137661904D01*
X208309761Y-137709523D01*
X208357380Y-137804761D01*
X208357380Y-138090476D01*
X208309761Y-138185714D01*
X208262142Y-138233333D01*
X208357380Y-136661904D02*
X208357380Y-137233333D01*
X208357380Y-136947619D02*
X207357380Y-136947619D01*
X207500238Y-137042857D01*
X207595476Y-137138095D01*
X207643095Y-137233333D01*
X207976428Y-136233333D02*
X207976428Y-135471428D01*
X207357380Y-134519047D02*
X207357380Y-134995238D01*
X207833571Y-135042857D01*
X207785952Y-134995238D01*
X207738333Y-134900000D01*
X207738333Y-134661904D01*
X207785952Y-134566666D01*
X207833571Y-134519047D01*
X207928809Y-134471428D01*
X208166904Y-134471428D01*
X208262142Y-134519047D01*
X208309761Y-134566666D01*
X208357380Y-134661904D01*
X208357380Y-134900000D01*
X208309761Y-134995238D01*
X208262142Y-135042857D01*
X207690714Y-133614285D02*
X208357380Y-133614285D01*
X207309761Y-133852380D02*
X208024047Y-134090476D01*
X208024047Y-133471428D01*
X207357380Y-133185714D02*
X207357380Y-132566666D01*
X207738333Y-132900000D01*
X207738333Y-132757142D01*
X207785952Y-132661904D01*
X207833571Y-132614285D01*
X207928809Y-132566666D01*
X208166904Y-132566666D01*
X208262142Y-132614285D01*
X208309761Y-132661904D01*
X208357380Y-132757142D01*
X208357380Y-133042857D01*
X208309761Y-133138095D01*
X208262142Y-133185714D01*
X208357380Y-131614285D02*
X208357380Y-132185714D01*
X208357380Y-131900000D02*
X207357380Y-131900000D01*
X207500238Y-131995238D01*
X207595476Y-132090476D01*
X207643095Y-132185714D01*
X207976428Y-131185714D02*
X207976428Y-130423809D01*
X208357380Y-129423809D02*
X208357380Y-129995238D01*
X208357380Y-129709523D02*
X207357380Y-129709523D01*
X207500238Y-129804761D01*
X207595476Y-129900000D01*
X207643095Y-129995238D01*
X207357380Y-128804761D02*
X207357380Y-128709523D01*
X207405000Y-128614285D01*
X207452619Y-128566666D01*
X207547857Y-128519047D01*
X207738333Y-128471428D01*
X207976428Y-128471428D01*
X208166904Y-128519047D01*
X208262142Y-128566666D01*
X208309761Y-128614285D01*
X208357380Y-128709523D01*
X208357380Y-128804761D01*
X208309761Y-128900000D01*
X208262142Y-128947619D01*
X208166904Y-128995238D01*
X207976428Y-129042857D01*
X207738333Y-129042857D01*
X207547857Y-128995238D01*
X207452619Y-128947619D01*
X207405000Y-128900000D01*
X207357380Y-128804761D01*
X208357380Y-127471428D02*
X207881190Y-127804761D01*
X208357380Y-128042857D02*
X207357380Y-128042857D01*
X207357380Y-127661904D01*
X207405000Y-127566666D01*
X207452619Y-127519047D01*
X207547857Y-127471428D01*
X207690714Y-127471428D01*
X207785952Y-127519047D01*
X207833571Y-127566666D01*
X207881190Y-127661904D01*
X207881190Y-128042857D01*
X207833571Y-126709523D02*
X207833571Y-127042857D01*
X208357380Y-127042857D02*
X207357380Y-127042857D01*
X207357380Y-126566666D01*
X207357380Y-126280952D02*
X208357380Y-125614285D01*
X207357380Y-125614285D02*
X208357380Y-126280952D01*
X195719047Y-117952380D02*
X195909523Y-117952380D01*
X196004761Y-118000000D01*
X196100000Y-118095238D01*
X196147619Y-118285714D01*
X196147619Y-118619047D01*
X196100000Y-118809523D01*
X196004761Y-118904761D01*
X195909523Y-118952380D01*
X195719047Y-118952380D01*
X195623809Y-118904761D01*
X195528571Y-118809523D01*
X195480952Y-118619047D01*
X195480952Y-118285714D01*
X195528571Y-118095238D01*
X195623809Y-118000000D01*
X195719047Y-117952380D01*
X196433333Y-117952380D02*
X196766666Y-118952380D01*
X197100000Y-117952380D01*
X197433333Y-118428571D02*
X197766666Y-118428571D01*
X197909523Y-118952380D02*
X197433333Y-118952380D01*
X197433333Y-117952380D01*
X197909523Y-117952380D01*
X198909523Y-118952380D02*
X198576190Y-118476190D01*
X198338095Y-118952380D02*
X198338095Y-117952380D01*
X198719047Y-117952380D01*
X198814285Y-118000000D01*
X198861904Y-118047619D01*
X198909523Y-118142857D01*
X198909523Y-118285714D01*
X198861904Y-118380952D01*
X198814285Y-118428571D01*
X198719047Y-118476190D01*
X198338095Y-118476190D01*
X199909523Y-118952380D02*
X199576190Y-118476190D01*
X199338095Y-118952380D02*
X199338095Y-117952380D01*
X199719047Y-117952380D01*
X199814285Y-118000000D01*
X199861904Y-118047619D01*
X199909523Y-118142857D01*
X199909523Y-118285714D01*
X199861904Y-118380952D01*
X199814285Y-118428571D01*
X199719047Y-118476190D01*
X199338095Y-118476190D01*
X200290476Y-118666666D02*
X200766666Y-118666666D01*
X200195238Y-118952380D02*
X200528571Y-117952380D01*
X200861904Y-118952380D01*
X201195238Y-118952380D02*
X201195238Y-117952380D01*
X201766666Y-118952380D01*
X201766666Y-117952380D01*
X202766666Y-118000000D02*
X202671428Y-117952380D01*
X202528571Y-117952380D01*
X202385714Y-118000000D01*
X202290476Y-118095238D01*
X202242857Y-118190476D01*
X202195238Y-118380952D01*
X202195238Y-118523809D01*
X202242857Y-118714285D01*
X202290476Y-118809523D01*
X202385714Y-118904761D01*
X202528571Y-118952380D01*
X202623809Y-118952380D01*
X202766666Y-118904761D01*
X202814285Y-118857142D01*
X202814285Y-118523809D01*
X202623809Y-118523809D01*
X203242857Y-118428571D02*
X203576190Y-118428571D01*
X203719047Y-118952380D02*
X203242857Y-118952380D01*
X203242857Y-117952380D01*
X203719047Y-117952380D01*
X177052380Y-138657142D02*
X176052380Y-138657142D01*
X177052380Y-138085714D01*
X176052380Y-138085714D01*
X177052380Y-137609523D02*
X176052380Y-137609523D01*
X177052380Y-137133333D02*
X176052380Y-137133333D01*
X176052380Y-136895238D01*
X176100000Y-136752380D01*
X176195238Y-136657142D01*
X176290476Y-136609523D01*
X176480952Y-136561904D01*
X176623809Y-136561904D01*
X176814285Y-136609523D01*
X176909523Y-136657142D01*
X177004761Y-136752380D01*
X177052380Y-136895238D01*
X177052380Y-137133333D01*
X176528571Y-136133333D02*
X176528571Y-135800000D01*
X177052380Y-135657142D02*
X177052380Y-136133333D01*
X176052380Y-136133333D01*
X176052380Y-135657142D01*
X176957142Y-134657142D02*
X177004761Y-134704761D01*
X177052380Y-134847619D01*
X177052380Y-134942857D01*
X177004761Y-135085714D01*
X176909523Y-135180952D01*
X176814285Y-135228571D01*
X176623809Y-135276190D01*
X176480952Y-135276190D01*
X176290476Y-135228571D01*
X176195238Y-135180952D01*
X176100000Y-135085714D01*
X176052380Y-134942857D01*
X176052380Y-134847619D01*
X176100000Y-134704761D01*
X176147619Y-134657142D01*
X177052380Y-133466666D02*
X176052380Y-133466666D01*
X176766666Y-133133333D01*
X176052380Y-132800000D01*
X177052380Y-132800000D01*
X176671428Y-132323809D02*
X176671428Y-131561904D01*
X177052380Y-130561904D02*
X177052380Y-131133333D01*
X177052380Y-130847619D02*
X176052380Y-130847619D01*
X176195238Y-130942857D01*
X176290476Y-131038095D01*
X176338095Y-131133333D01*
X176052380Y-130228571D02*
X176052380Y-129609523D01*
X176433333Y-129942857D01*
X176433333Y-129800000D01*
X176480952Y-129704761D01*
X176528571Y-129657142D01*
X176623809Y-129609523D01*
X176861904Y-129609523D01*
X176957142Y-129657142D01*
X177004761Y-129704761D01*
X177052380Y-129800000D01*
X177052380Y-130085714D01*
X177004761Y-130180952D01*
X176957142Y-130228571D01*
X176052380Y-128990476D02*
X176052380Y-128895238D01*
X176100000Y-128800000D01*
X176147619Y-128752380D01*
X176242857Y-128704761D01*
X176433333Y-128657142D01*
X176671428Y-128657142D01*
X176861904Y-128704761D01*
X176957142Y-128752380D01*
X177004761Y-128800000D01*
X177052380Y-128895238D01*
X177052380Y-128990476D01*
X177004761Y-129085714D01*
X176957142Y-129133333D01*
X176861904Y-129180952D01*
X176671428Y-129228571D01*
X176433333Y-129228571D01*
X176242857Y-129180952D01*
X176147619Y-129133333D01*
X176100000Y-129085714D01*
X176052380Y-128990476D01*
X176052380Y-128323809D02*
X176052380Y-127704761D01*
X176433333Y-128038095D01*
X176433333Y-127895238D01*
X176480952Y-127800000D01*
X176528571Y-127752380D01*
X176623809Y-127704761D01*
X176861904Y-127704761D01*
X176957142Y-127752380D01*
X177004761Y-127800000D01*
X177052380Y-127895238D01*
X177052380Y-128180952D01*
X177004761Y-128276190D01*
X176957142Y-128323809D01*
X176052380Y-126038095D02*
X176052380Y-126514285D01*
X176528571Y-126561904D01*
X176480952Y-126514285D01*
X176433333Y-126419047D01*
X176433333Y-126180952D01*
X176480952Y-126085714D01*
X176528571Y-126038095D01*
X176623809Y-125990476D01*
X176861904Y-125990476D01*
X176957142Y-126038095D01*
X177004761Y-126085714D01*
X177052380Y-126180952D01*
X177052380Y-126419047D01*
X177004761Y-126514285D01*
X176957142Y-126561904D01*
X177052380Y-125561904D02*
X176052380Y-125561904D01*
X177052380Y-124990476D02*
X176480952Y-125419047D01*
X176052380Y-124990476D02*
X176623809Y-125561904D01*
X176052380Y-123895238D02*
X177052380Y-123657142D01*
X176338095Y-123466666D01*
X177052380Y-123276190D01*
X176052380Y-123038095D01*
X176004761Y-121942857D02*
X177290476Y-122800000D01*
X176052380Y-121704761D02*
X177052380Y-121466666D01*
X176338095Y-121276190D01*
X177052380Y-121085714D01*
X176052380Y-120847619D01*
D12*
X180007142Y-121178571D02*
X180292857Y-121178571D01*
X180435714Y-121250000D01*
X180578571Y-121392857D01*
X180650000Y-121678571D01*
X180650000Y-122178571D01*
X180578571Y-122464285D01*
X180435714Y-122607142D01*
X180292857Y-122678571D01*
X180007142Y-122678571D01*
X179864285Y-122607142D01*
X179721428Y-122464285D01*
X179650000Y-122178571D01*
X179650000Y-121678571D01*
X179721428Y-121392857D01*
X179864285Y-121250000D01*
X180007142Y-121178571D01*
X181792857Y-121892857D02*
X181292857Y-121892857D01*
X181292857Y-122678571D02*
X181292857Y-121178571D01*
X182007142Y-121178571D01*
X183078571Y-121892857D02*
X182578571Y-121892857D01*
X182578571Y-122678571D02*
X182578571Y-121178571D01*
X183292857Y-121178571D01*
X183792857Y-122607142D02*
X184007142Y-122678571D01*
X184364285Y-122678571D01*
X184507142Y-122607142D01*
X184578571Y-122535714D01*
X184650000Y-122392857D01*
X184650000Y-122250000D01*
X184578571Y-122107142D01*
X184507142Y-122035714D01*
X184364285Y-121964285D01*
X184078571Y-121892857D01*
X183935714Y-121821428D01*
X183864285Y-121750000D01*
X183792857Y-121607142D01*
X183792857Y-121464285D01*
X183864285Y-121321428D01*
X183935714Y-121250000D01*
X184078571Y-121178571D01*
X184435714Y-121178571D01*
X184650000Y-121250000D01*
X185292857Y-121892857D02*
X185792857Y-121892857D01*
X186007142Y-122678571D02*
X185292857Y-122678571D01*
X185292857Y-121178571D01*
X186007142Y-121178571D01*
X186435714Y-121178571D02*
X187292857Y-121178571D01*
X186864285Y-122678571D02*
X186864285Y-121178571D01*
X194542857Y-122678571D02*
X194542857Y-121178571D01*
X195114285Y-121178571D01*
X195257142Y-121250000D01*
X195328571Y-121321428D01*
X195400000Y-121464285D01*
X195400000Y-121678571D01*
X195328571Y-121821428D01*
X195257142Y-121892857D01*
X195114285Y-121964285D01*
X194542857Y-121964285D01*
X196900000Y-122678571D02*
X196400000Y-121964285D01*
X196042857Y-122678571D02*
X196042857Y-121178571D01*
X196614285Y-121178571D01*
X196757142Y-121250000D01*
X196828571Y-121321428D01*
X196900000Y-121464285D01*
X196900000Y-121678571D01*
X196828571Y-121821428D01*
X196757142Y-121892857D01*
X196614285Y-121964285D01*
X196042857Y-121964285D01*
X197828571Y-121178571D02*
X198114285Y-121178571D01*
X198257142Y-121250000D01*
X198400000Y-121392857D01*
X198471428Y-121678571D01*
X198471428Y-122178571D01*
X198400000Y-122464285D01*
X198257142Y-122607142D01*
X198114285Y-122678571D01*
X197828571Y-122678571D01*
X197685714Y-122607142D01*
X197542857Y-122464285D01*
X197471428Y-122178571D01*
X197471428Y-121678571D01*
X197542857Y-121392857D01*
X197685714Y-121250000D01*
X197828571Y-121178571D01*
X199614285Y-121892857D02*
X199828571Y-121964285D01*
X199900000Y-122035714D01*
X199971428Y-122178571D01*
X199971428Y-122392857D01*
X199900000Y-122535714D01*
X199828571Y-122607142D01*
X199685714Y-122678571D01*
X199114285Y-122678571D01*
X199114285Y-121178571D01*
X199614285Y-121178571D01*
X199757142Y-121250000D01*
X199828571Y-121321428D01*
X199900000Y-121464285D01*
X199900000Y-121607142D01*
X199828571Y-121750000D01*
X199757142Y-121821428D01*
X199614285Y-121892857D01*
X199114285Y-121892857D01*
X200614285Y-121892857D02*
X201114285Y-121892857D01*
X201328571Y-122678571D02*
X200614285Y-122678571D01*
X200614285Y-121178571D01*
X201328571Y-121178571D01*
D10*
X239652380Y-82995238D02*
X240461904Y-82995238D01*
X240557142Y-82947619D01*
X240604761Y-82900000D01*
X240652380Y-82804761D01*
X240652380Y-82614285D01*
X240604761Y-82519047D01*
X240557142Y-82471428D01*
X240461904Y-82423809D01*
X239652380Y-82423809D01*
X240604761Y-81995238D02*
X240652380Y-81852380D01*
X240652380Y-81614285D01*
X240604761Y-81519047D01*
X240557142Y-81471428D01*
X240461904Y-81423809D01*
X240366666Y-81423809D01*
X240271428Y-81471428D01*
X240223809Y-81519047D01*
X240176190Y-81614285D01*
X240128571Y-81804761D01*
X240080952Y-81900000D01*
X240033333Y-81947619D01*
X239938095Y-81995238D01*
X239842857Y-81995238D01*
X239747619Y-81947619D01*
X239700000Y-81900000D01*
X239652380Y-81804761D01*
X239652380Y-81566666D01*
X239700000Y-81423809D01*
X240128571Y-80661904D02*
X240176190Y-80519047D01*
X240223809Y-80471428D01*
X240319047Y-80423809D01*
X240461904Y-80423809D01*
X240557142Y-80471428D01*
X240604761Y-80519047D01*
X240652380Y-80614285D01*
X240652380Y-80995238D01*
X239652380Y-80995238D01*
X239652380Y-80661904D01*
X239700000Y-80566666D01*
X239747619Y-80519047D01*
X239842857Y-80471428D01*
X239938095Y-80471428D01*
X240033333Y-80519047D01*
X240080952Y-80566666D01*
X240128571Y-80661904D01*
X240128571Y-80995238D01*
X240747619Y-80233333D02*
X240747619Y-79471428D01*
X239652380Y-79376190D02*
X240652380Y-79042857D01*
X239652380Y-78709523D01*
X239700000Y-77852380D02*
X239652380Y-77947619D01*
X239652380Y-78090476D01*
X239700000Y-78233333D01*
X239795238Y-78328571D01*
X239890476Y-78376190D01*
X240080952Y-78423809D01*
X240223809Y-78423809D01*
X240414285Y-78376190D01*
X240509523Y-78328571D01*
X240604761Y-78233333D01*
X240652380Y-78090476D01*
X240652380Y-77995238D01*
X240604761Y-77852380D01*
X240557142Y-77804761D01*
X240223809Y-77804761D01*
X240223809Y-77995238D01*
X240652380Y-77376190D02*
X239652380Y-77376190D01*
X240652380Y-76804761D01*
X239652380Y-76804761D01*
X240652380Y-76328571D02*
X239652380Y-76328571D01*
X239652380Y-76090476D01*
X239700000Y-75947619D01*
X239795238Y-75852380D01*
X239890476Y-75804761D01*
X240080952Y-75757142D01*
X240223809Y-75757142D01*
X240414285Y-75804761D01*
X240509523Y-75852380D01*
X240604761Y-75947619D01*
X240652380Y-76090476D01*
X240652380Y-76328571D01*
X235131071Y-71004761D02*
X235273928Y-71052380D01*
X235512023Y-71052380D01*
X235607261Y-71004761D01*
X235654880Y-70957142D01*
X235702500Y-70861904D01*
X235702500Y-70766666D01*
X235654880Y-70671428D01*
X235607261Y-70623809D01*
X235512023Y-70576190D01*
X235321547Y-70528571D01*
X235226309Y-70480952D01*
X235178690Y-70433333D01*
X235131071Y-70338095D01*
X235131071Y-70242857D01*
X235178690Y-70147619D01*
X235226309Y-70100000D01*
X235321547Y-70052380D01*
X235559642Y-70052380D01*
X235702500Y-70100000D01*
X236702500Y-70957142D02*
X236654880Y-71004761D01*
X236512023Y-71052380D01*
X236416785Y-71052380D01*
X236273928Y-71004761D01*
X236178690Y-70909523D01*
X236131071Y-70814285D01*
X236083452Y-70623809D01*
X236083452Y-70480952D01*
X236131071Y-70290476D01*
X236178690Y-70195238D01*
X236273928Y-70100000D01*
X236416785Y-70052380D01*
X236512023Y-70052380D01*
X236654880Y-70100000D01*
X236702500Y-70147619D01*
X237607261Y-71052380D02*
X237131071Y-71052380D01*
X237131071Y-70052380D01*
X234940595Y-72552380D02*
X235273928Y-73552380D01*
X235607261Y-72552380D01*
X236512023Y-73457142D02*
X236464404Y-73504761D01*
X236321547Y-73552380D01*
X236226309Y-73552380D01*
X236083452Y-73504761D01*
X235988214Y-73409523D01*
X235940595Y-73314285D01*
X235892976Y-73123809D01*
X235892976Y-72980952D01*
X235940595Y-72790476D01*
X235988214Y-72695238D01*
X236083452Y-72600000D01*
X236226309Y-72552380D01*
X236321547Y-72552380D01*
X236464404Y-72600000D01*
X236512023Y-72647619D01*
X237512023Y-73457142D02*
X237464404Y-73504761D01*
X237321547Y-73552380D01*
X237226309Y-73552380D01*
X237083452Y-73504761D01*
X236988214Y-73409523D01*
X236940595Y-73314285D01*
X236892976Y-73123809D01*
X236892976Y-72980952D01*
X236940595Y-72790476D01*
X236988214Y-72695238D01*
X237083452Y-72600000D01*
X237226309Y-72552380D01*
X237321547Y-72552380D01*
X237464404Y-72600000D01*
X237512023Y-72647619D01*
X211352380Y-67285714D02*
X210352380Y-67285714D01*
X211352380Y-66714285D02*
X210780952Y-67142857D01*
X210352380Y-66714285D02*
X210923809Y-67285714D01*
X210828571Y-66285714D02*
X210828571Y-65952380D01*
X211352380Y-65809523D02*
X211352380Y-66285714D01*
X210352380Y-66285714D01*
X210352380Y-65809523D01*
X210876190Y-65190476D02*
X211352380Y-65190476D01*
X210352380Y-65523809D02*
X210876190Y-65190476D01*
X210352380Y-64857142D01*
X211304761Y-64571428D02*
X211352380Y-64428571D01*
X211352380Y-64190476D01*
X211304761Y-64095238D01*
X211257142Y-64047619D01*
X211161904Y-64000000D01*
X211066666Y-64000000D01*
X210971428Y-64047619D01*
X210923809Y-64095238D01*
X210876190Y-64190476D01*
X210828571Y-64380952D01*
X210780952Y-64476190D01*
X210733333Y-64523809D01*
X210638095Y-64571428D01*
X210542857Y-64571428D01*
X210447619Y-64523809D01*
X210400000Y-64476190D01*
X210352380Y-64380952D01*
X210352380Y-64142857D01*
X210400000Y-64000000D01*
X210352380Y-63714285D02*
X210352380Y-63142857D01*
X211352380Y-63428571D02*
X210352380Y-63428571D01*
X210352380Y-62619047D02*
X210352380Y-62428571D01*
X210400000Y-62333333D01*
X210495238Y-62238095D01*
X210685714Y-62190476D01*
X211019047Y-62190476D01*
X211209523Y-62238095D01*
X211304761Y-62333333D01*
X211352380Y-62428571D01*
X211352380Y-62619047D01*
X211304761Y-62714285D01*
X211209523Y-62809523D01*
X211019047Y-62857142D01*
X210685714Y-62857142D01*
X210495238Y-62809523D01*
X210400000Y-62714285D01*
X210352380Y-62619047D01*
X211352380Y-61761904D02*
X210352380Y-61761904D01*
X211352380Y-61190476D01*
X210352380Y-61190476D01*
X210828571Y-60714285D02*
X210828571Y-60380952D01*
X211352380Y-60238095D02*
X211352380Y-60714285D01*
X210352380Y-60714285D01*
X210352380Y-60238095D01*
X211352380Y-58523809D02*
X211352380Y-59095238D01*
X211352380Y-58809523D02*
X210352380Y-58809523D01*
X210495238Y-58904761D01*
X210590476Y-59000000D01*
X210638095Y-59095238D01*
X210352380Y-57904761D02*
X210352380Y-57809523D01*
X210400000Y-57714285D01*
X210447619Y-57666666D01*
X210542857Y-57619047D01*
X210733333Y-57571428D01*
X210971428Y-57571428D01*
X211161904Y-57619047D01*
X211257142Y-57666666D01*
X211304761Y-57714285D01*
X211352380Y-57809523D01*
X211352380Y-57904761D01*
X211304761Y-58000000D01*
X211257142Y-58047619D01*
X211161904Y-58095238D01*
X210971428Y-58142857D01*
X210733333Y-58142857D01*
X210542857Y-58095238D01*
X210447619Y-58047619D01*
X210400000Y-58000000D01*
X210352380Y-57904761D01*
X210685714Y-56714285D02*
X211352380Y-56714285D01*
X210304761Y-56952380D02*
X211019047Y-57190476D01*
X211019047Y-56571428D01*
X210447619Y-56238095D02*
X210400000Y-56190476D01*
X210352380Y-56095238D01*
X210352380Y-55857142D01*
X210400000Y-55761904D01*
X210447619Y-55714285D01*
X210542857Y-55666666D01*
X210638095Y-55666666D01*
X210780952Y-55714285D01*
X211352380Y-56285714D01*
X211352380Y-55666666D01*
D12*
X179421428Y-29378571D02*
X178564285Y-29378571D01*
X178992857Y-29378571D02*
X178992857Y-27878571D01*
X178850000Y-28092857D01*
X178707142Y-28235714D01*
X178564285Y-28307142D01*
X180278571Y-28521428D02*
X180135714Y-28450000D01*
X180064285Y-28378571D01*
X179992857Y-28235714D01*
X179992857Y-28164285D01*
X180064285Y-28021428D01*
X180135714Y-27950000D01*
X180278571Y-27878571D01*
X180564285Y-27878571D01*
X180707142Y-27950000D01*
X180778571Y-28021428D01*
X180850000Y-28164285D01*
X180850000Y-28235714D01*
X180778571Y-28378571D01*
X180707142Y-28450000D01*
X180564285Y-28521428D01*
X180278571Y-28521428D01*
X180135714Y-28592857D01*
X180064285Y-28664285D01*
X179992857Y-28807142D01*
X179992857Y-29092857D01*
X180064285Y-29235714D01*
X180135714Y-29307142D01*
X180278571Y-29378571D01*
X180564285Y-29378571D01*
X180707142Y-29307142D01*
X180778571Y-29235714D01*
X180850000Y-29092857D01*
X180850000Y-28807142D01*
X180778571Y-28664285D01*
X180707142Y-28592857D01*
X180564285Y-28521428D01*
X182135714Y-27878571D02*
X181850000Y-27878571D01*
X181707142Y-27950000D01*
X181635714Y-28021428D01*
X181492857Y-28235714D01*
X181421428Y-28521428D01*
X181421428Y-29092857D01*
X181492857Y-29235714D01*
X181564285Y-29307142D01*
X181707142Y-29378571D01*
X181992857Y-29378571D01*
X182135714Y-29307142D01*
X182207142Y-29235714D01*
X182278571Y-29092857D01*
X182278571Y-28735714D01*
X182207142Y-28592857D01*
X182135714Y-28521428D01*
X181992857Y-28450000D01*
X181707142Y-28450000D01*
X181564285Y-28521428D01*
X181492857Y-28592857D01*
X181421428Y-28735714D01*
X183635714Y-27878571D02*
X182921428Y-27878571D01*
X182850000Y-28592857D01*
X182921428Y-28521428D01*
X183064285Y-28450000D01*
X183421428Y-28450000D01*
X183564285Y-28521428D01*
X183635714Y-28592857D01*
X183707142Y-28735714D01*
X183707142Y-29092857D01*
X183635714Y-29235714D01*
X183564285Y-29307142D01*
X183421428Y-29378571D01*
X183064285Y-29378571D01*
X182921428Y-29307142D01*
X182850000Y-29235714D01*
X184635714Y-27878571D02*
X184778571Y-27878571D01*
X184921428Y-27950000D01*
X184992857Y-28021428D01*
X185064285Y-28164285D01*
X185135714Y-28450000D01*
X185135714Y-28807142D01*
X185064285Y-29092857D01*
X184992857Y-29235714D01*
X184921428Y-29307142D01*
X184778571Y-29378571D01*
X184635714Y-29378571D01*
X184492857Y-29307142D01*
X184421428Y-29235714D01*
X184350000Y-29092857D01*
X184278571Y-28807142D01*
X184278571Y-28450000D01*
X184350000Y-28164285D01*
X184421428Y-28021428D01*
X184492857Y-27950000D01*
X184635714Y-27878571D01*
X187635714Y-29378571D02*
X186921428Y-29378571D01*
X186921428Y-27878571D01*
X188135714Y-29378571D02*
X188135714Y-27878571D01*
X188850000Y-28807142D02*
X189992857Y-28807142D01*
X190707142Y-29378571D02*
X190707142Y-27878571D01*
X191707142Y-27878571D02*
X191992857Y-27878571D01*
X192135714Y-27950000D01*
X192278571Y-28092857D01*
X192350000Y-28378571D01*
X192350000Y-28878571D01*
X192278571Y-29164285D01*
X192135714Y-29307142D01*
X191992857Y-29378571D01*
X191707142Y-29378571D01*
X191564285Y-29307142D01*
X191421428Y-29164285D01*
X191350000Y-28878571D01*
X191350000Y-28378571D01*
X191421428Y-28092857D01*
X191564285Y-27950000D01*
X191707142Y-27878571D01*
X192992857Y-29378571D02*
X192992857Y-27878571D01*
X193850000Y-29378571D01*
X193850000Y-27878571D01*
X195564285Y-27878571D02*
X196492857Y-27878571D01*
X195992857Y-28450000D01*
X196207142Y-28450000D01*
X196350000Y-28521428D01*
X196421428Y-28592857D01*
X196492857Y-28735714D01*
X196492857Y-29092857D01*
X196421428Y-29235714D01*
X196350000Y-29307142D01*
X196207142Y-29378571D01*
X195778571Y-29378571D01*
X195635714Y-29307142D01*
X195564285Y-29235714D01*
X197135714Y-29235714D02*
X197207142Y-29307142D01*
X197135714Y-29378571D01*
X197064285Y-29307142D01*
X197135714Y-29235714D01*
X197135714Y-29378571D01*
X197707142Y-27878571D02*
X198707142Y-27878571D01*
X198064285Y-29378571D01*
X199064285Y-27878571D02*
X199564285Y-29378571D01*
X200064285Y-27878571D01*
X201707142Y-29378571D02*
X201707142Y-27878571D01*
X202564285Y-29378571D01*
X202564285Y-27878571D01*
X203564285Y-27878571D02*
X203850000Y-27878571D01*
X203992857Y-27950000D01*
X204135714Y-28092857D01*
X204207142Y-28378571D01*
X204207142Y-28878571D01*
X204135714Y-29164285D01*
X203992857Y-29307142D01*
X203850000Y-29378571D01*
X203564285Y-29378571D01*
X203421428Y-29307142D01*
X203278571Y-29164285D01*
X203207142Y-28878571D01*
X203207142Y-28378571D01*
X203278571Y-28092857D01*
X203421428Y-27950000D01*
X203564285Y-27878571D01*
X204850000Y-29378571D02*
X204850000Y-27878571D01*
X205350000Y-28950000D01*
X205850000Y-27878571D01*
X205850000Y-29378571D01*
X206564285Y-29235714D02*
X206635714Y-29307142D01*
X206564285Y-29378571D01*
X206492857Y-29307142D01*
X206564285Y-29235714D01*
X206564285Y-29378571D01*
D10*
X235083452Y-68404761D02*
X235226309Y-68452380D01*
X235464404Y-68452380D01*
X235559642Y-68404761D01*
X235607261Y-68357142D01*
X235654880Y-68261904D01*
X235654880Y-68166666D01*
X235607261Y-68071428D01*
X235559642Y-68023809D01*
X235464404Y-67976190D01*
X235273928Y-67928571D01*
X235178690Y-67880952D01*
X235131071Y-67833333D01*
X235083452Y-67738095D01*
X235083452Y-67642857D01*
X235131071Y-67547619D01*
X235178690Y-67500000D01*
X235273928Y-67452380D01*
X235512023Y-67452380D01*
X235654880Y-67500000D01*
X236083452Y-68452380D02*
X236083452Y-67452380D01*
X236321547Y-67452380D01*
X236464404Y-67500000D01*
X236559642Y-67595238D01*
X236607261Y-67690476D01*
X236654880Y-67880952D01*
X236654880Y-68023809D01*
X236607261Y-68214285D01*
X236559642Y-68309523D01*
X236464404Y-68404761D01*
X236321547Y-68452380D01*
X236083452Y-68452380D01*
X237035833Y-68166666D02*
X237512023Y-68166666D01*
X236940595Y-68452380D02*
X237273928Y-67452380D01*
X237607261Y-68452380D01*
X189352380Y-67285714D02*
X188352380Y-67285714D01*
X189352380Y-66714285D02*
X188780952Y-67142857D01*
X188352380Y-66714285D02*
X188923809Y-67285714D01*
X188828571Y-66285714D02*
X188828571Y-65952380D01*
X189352380Y-65809523D02*
X189352380Y-66285714D01*
X188352380Y-66285714D01*
X188352380Y-65809523D01*
X188876190Y-65190476D02*
X189352380Y-65190476D01*
X188352380Y-65523809D02*
X188876190Y-65190476D01*
X188352380Y-64857142D01*
X189304761Y-64571428D02*
X189352380Y-64428571D01*
X189352380Y-64190476D01*
X189304761Y-64095238D01*
X189257142Y-64047619D01*
X189161904Y-64000000D01*
X189066666Y-64000000D01*
X188971428Y-64047619D01*
X188923809Y-64095238D01*
X188876190Y-64190476D01*
X188828571Y-64380952D01*
X188780952Y-64476190D01*
X188733333Y-64523809D01*
X188638095Y-64571428D01*
X188542857Y-64571428D01*
X188447619Y-64523809D01*
X188400000Y-64476190D01*
X188352380Y-64380952D01*
X188352380Y-64142857D01*
X188400000Y-64000000D01*
X188352380Y-63714285D02*
X188352380Y-63142857D01*
X189352380Y-63428571D02*
X188352380Y-63428571D01*
X188352380Y-62619047D02*
X188352380Y-62428571D01*
X188400000Y-62333333D01*
X188495238Y-62238095D01*
X188685714Y-62190476D01*
X189019047Y-62190476D01*
X189209523Y-62238095D01*
X189304761Y-62333333D01*
X189352380Y-62428571D01*
X189352380Y-62619047D01*
X189304761Y-62714285D01*
X189209523Y-62809523D01*
X189019047Y-62857142D01*
X188685714Y-62857142D01*
X188495238Y-62809523D01*
X188400000Y-62714285D01*
X188352380Y-62619047D01*
X189352380Y-61761904D02*
X188352380Y-61761904D01*
X189352380Y-61190476D01*
X188352380Y-61190476D01*
X188828571Y-60714285D02*
X188828571Y-60380952D01*
X189352380Y-60238095D02*
X189352380Y-60714285D01*
X188352380Y-60714285D01*
X188352380Y-60238095D01*
X189352380Y-58523809D02*
X189352380Y-59095238D01*
X189352380Y-58809523D02*
X188352380Y-58809523D01*
X188495238Y-58904761D01*
X188590476Y-59000000D01*
X188638095Y-59095238D01*
X188352380Y-57904761D02*
X188352380Y-57809523D01*
X188400000Y-57714285D01*
X188447619Y-57666666D01*
X188542857Y-57619047D01*
X188733333Y-57571428D01*
X188971428Y-57571428D01*
X189161904Y-57619047D01*
X189257142Y-57666666D01*
X189304761Y-57714285D01*
X189352380Y-57809523D01*
X189352380Y-57904761D01*
X189304761Y-58000000D01*
X189257142Y-58047619D01*
X189161904Y-58095238D01*
X188971428Y-58142857D01*
X188733333Y-58142857D01*
X188542857Y-58095238D01*
X188447619Y-58047619D01*
X188400000Y-58000000D01*
X188352380Y-57904761D01*
X188685714Y-56714285D02*
X189352380Y-56714285D01*
X188304761Y-56952380D02*
X189019047Y-57190476D01*
X189019047Y-56571428D01*
X188447619Y-56238095D02*
X188400000Y-56190476D01*
X188352380Y-56095238D01*
X188352380Y-55857142D01*
X188400000Y-55761904D01*
X188447619Y-55714285D01*
X188542857Y-55666666D01*
X188638095Y-55666666D01*
X188780952Y-55714285D01*
X189352380Y-56285714D01*
X189352380Y-55666666D01*
X234735833Y-63452380D02*
X234735833Y-62452380D01*
X234735833Y-62928571D02*
X235307261Y-62928571D01*
X235307261Y-63452380D02*
X235307261Y-62452380D01*
X235783452Y-62452380D02*
X235783452Y-63261904D01*
X235831071Y-63357142D01*
X235878690Y-63404761D01*
X235973928Y-63452380D01*
X236164404Y-63452380D01*
X236259642Y-63404761D01*
X236307261Y-63357142D01*
X236354880Y-63261904D01*
X236354880Y-62452380D01*
X236783452Y-63404761D02*
X236926309Y-63452380D01*
X237164404Y-63452380D01*
X237259642Y-63404761D01*
X237307261Y-63357142D01*
X237354880Y-63261904D01*
X237354880Y-63166666D01*
X237307261Y-63071428D01*
X237259642Y-63023809D01*
X237164404Y-62976190D01*
X236973928Y-62928571D01*
X236878690Y-62880952D01*
X236831071Y-62833333D01*
X236783452Y-62738095D01*
X236783452Y-62642857D01*
X236831071Y-62547619D01*
X236878690Y-62500000D01*
X236973928Y-62452380D01*
X237212023Y-62452380D01*
X237354880Y-62500000D01*
X238116785Y-62928571D02*
X238259642Y-62976190D01*
X238307261Y-63023809D01*
X238354880Y-63119047D01*
X238354880Y-63261904D01*
X238307261Y-63357142D01*
X238259642Y-63404761D01*
X238164404Y-63452380D01*
X237783452Y-63452380D01*
X237783452Y-62452380D01*
X238116785Y-62452380D01*
X238212023Y-62500000D01*
X238259642Y-62547619D01*
X238307261Y-62642857D01*
X238307261Y-62738095D01*
X238259642Y-62833333D01*
X238212023Y-62880952D01*
X238116785Y-62928571D01*
X237783452Y-62928571D01*
X238735833Y-62547619D02*
X238783452Y-62500000D01*
X238878690Y-62452380D01*
X239116785Y-62452380D01*
X239212023Y-62500000D01*
X239259642Y-62547619D01*
X239307261Y-62642857D01*
X239307261Y-62738095D01*
X239259642Y-62880952D01*
X238688214Y-63452380D01*
X239307261Y-63452380D01*
X239640595Y-62452380D02*
X240259642Y-62452380D01*
X239926309Y-62833333D01*
X240069166Y-62833333D01*
X240164404Y-62880952D01*
X240212023Y-62928571D01*
X240259642Y-63023809D01*
X240259642Y-63261904D01*
X240212023Y-63357142D01*
X240164404Y-63404761D01*
X240069166Y-63452380D01*
X239783452Y-63452380D01*
X239688214Y-63404761D01*
X239640595Y-63357142D01*
X240831071Y-62880952D02*
X240735833Y-62833333D01*
X240688214Y-62785714D01*
X240640595Y-62690476D01*
X240640595Y-62642857D01*
X240688214Y-62547619D01*
X240735833Y-62500000D01*
X240831071Y-62452380D01*
X241021547Y-62452380D01*
X241116785Y-62500000D01*
X241164404Y-62547619D01*
X241212023Y-62642857D01*
X241212023Y-62690476D01*
X241164404Y-62785714D01*
X241116785Y-62833333D01*
X241021547Y-62880952D01*
X240831071Y-62880952D01*
X240735833Y-62928571D01*
X240688214Y-62976190D01*
X240640595Y-63071428D01*
X240640595Y-63261904D01*
X240688214Y-63357142D01*
X240735833Y-63404761D01*
X240831071Y-63452380D01*
X241021547Y-63452380D01*
X241116785Y-63404761D01*
X241164404Y-63357142D01*
X241212023Y-63261904D01*
X241212023Y-63071428D01*
X241164404Y-62976190D01*
X241116785Y-62928571D01*
X241021547Y-62880952D01*
X236311904Y-58452380D02*
X236311904Y-57452380D01*
X236550000Y-57452380D01*
X236692857Y-57500000D01*
X236788095Y-57595238D01*
X236835714Y-57690476D01*
X236883333Y-57880952D01*
X236883333Y-58023809D01*
X236835714Y-58214285D01*
X236788095Y-58309523D01*
X236692857Y-58404761D01*
X236550000Y-58452380D01*
X236311904Y-58452380D01*
X237216666Y-57452380D02*
X237883333Y-57452380D01*
X237454761Y-58452380D01*
X225152380Y-55242857D02*
X224676190Y-55576190D01*
X225152380Y-55814285D02*
X224152380Y-55814285D01*
X224152380Y-55433333D01*
X224200000Y-55338095D01*
X224247619Y-55290476D01*
X224342857Y-55242857D01*
X224485714Y-55242857D01*
X224580952Y-55290476D01*
X224628571Y-55338095D01*
X224676190Y-55433333D01*
X224676190Y-55814285D01*
X225152380Y-54290476D02*
X225152380Y-54861904D01*
X225152380Y-54576190D02*
X224152380Y-54576190D01*
X224295238Y-54671428D01*
X224390476Y-54766666D01*
X224438095Y-54861904D01*
X224152380Y-53957142D02*
X224152380Y-53338095D01*
X224533333Y-53671428D01*
X224533333Y-53528571D01*
X224580952Y-53433333D01*
X224628571Y-53385714D01*
X224723809Y-53338095D01*
X224961904Y-53338095D01*
X225057142Y-53385714D01*
X225104761Y-53433333D01*
X225152380Y-53528571D01*
X225152380Y-53814285D01*
X225104761Y-53909523D01*
X225057142Y-53957142D01*
X234266666Y-47128571D02*
X233933333Y-47128571D01*
X233933333Y-47652380D02*
X233933333Y-46652380D01*
X234409523Y-46652380D01*
X234742857Y-46747619D02*
X234790476Y-46700000D01*
X234885714Y-46652380D01*
X235123809Y-46652380D01*
X235219047Y-46700000D01*
X235266666Y-46747619D01*
X235314285Y-46842857D01*
X235314285Y-46938095D01*
X235266666Y-47080952D01*
X234695238Y-47652380D01*
X235314285Y-47652380D01*
X229197142Y-66017142D02*
X229149523Y-66064761D01*
X229006666Y-66112380D01*
X228911428Y-66112380D01*
X228768571Y-66064761D01*
X228673333Y-65969523D01*
X228625714Y-65874285D01*
X228578095Y-65683809D01*
X228578095Y-65540952D01*
X228625714Y-65350476D01*
X228673333Y-65255238D01*
X228768571Y-65160000D01*
X228911428Y-65112380D01*
X229006666Y-65112380D01*
X229149523Y-65160000D01*
X229197142Y-65207619D01*
X230149523Y-66112380D02*
X229578095Y-66112380D01*
X229863809Y-66112380D02*
X229863809Y-65112380D01*
X229768571Y-65255238D01*
X229673333Y-65350476D01*
X229578095Y-65398095D01*
X231006666Y-65112380D02*
X230816190Y-65112380D01*
X230720952Y-65160000D01*
X230673333Y-65207619D01*
X230578095Y-65350476D01*
X230530476Y-65540952D01*
X230530476Y-65921904D01*
X230578095Y-66017142D01*
X230625714Y-66064761D01*
X230720952Y-66112380D01*
X230911428Y-66112380D01*
X231006666Y-66064761D01*
X231054285Y-66017142D01*
X231101904Y-65921904D01*
X231101904Y-65683809D01*
X231054285Y-65588571D01*
X231006666Y-65540952D01*
X230911428Y-65493333D01*
X230720952Y-65493333D01*
X230625714Y-65540952D01*
X230578095Y-65588571D01*
X230530476Y-65683809D01*
X231852380Y-76714285D02*
X232852380Y-76380952D01*
X231852380Y-76047619D01*
X232947619Y-75952380D02*
X232947619Y-75190476D01*
X231852380Y-74952380D02*
X232661904Y-74952380D01*
X232757142Y-74904761D01*
X232804761Y-74857142D01*
X232852380Y-74761904D01*
X232852380Y-74571428D01*
X232804761Y-74476190D01*
X232757142Y-74428571D01*
X232661904Y-74380952D01*
X231852380Y-74380952D01*
X232852380Y-73904761D02*
X231852380Y-73904761D01*
X232852380Y-73333333D01*
X231852380Y-73333333D01*
X232852380Y-72285714D02*
X232376190Y-72619047D01*
X232852380Y-72857142D02*
X231852380Y-72857142D01*
X231852380Y-72476190D01*
X231900000Y-72380952D01*
X231947619Y-72333333D01*
X232042857Y-72285714D01*
X232185714Y-72285714D01*
X232280952Y-72333333D01*
X232328571Y-72380952D01*
X232376190Y-72476190D01*
X232376190Y-72857142D01*
X232328571Y-71857142D02*
X232328571Y-71523809D01*
X232852380Y-71380952D02*
X232852380Y-71857142D01*
X231852380Y-71857142D01*
X231852380Y-71380952D01*
X231900000Y-70428571D02*
X231852380Y-70523809D01*
X231852380Y-70666666D01*
X231900000Y-70809523D01*
X231995238Y-70904761D01*
X232090476Y-70952380D01*
X232280952Y-71000000D01*
X232423809Y-71000000D01*
X232614285Y-70952380D01*
X232709523Y-70904761D01*
X232804761Y-70809523D01*
X232852380Y-70666666D01*
X232852380Y-70571428D01*
X232804761Y-70428571D01*
X232757142Y-70380952D01*
X232423809Y-70380952D01*
X232423809Y-70571428D01*
X234957142Y-56342857D02*
X235004761Y-56390476D01*
X235052380Y-56533333D01*
X235052380Y-56628571D01*
X235004761Y-56771428D01*
X234909523Y-56866666D01*
X234814285Y-56914285D01*
X234623809Y-56961904D01*
X234480952Y-56961904D01*
X234290476Y-56914285D01*
X234195238Y-56866666D01*
X234100000Y-56771428D01*
X234052380Y-56628571D01*
X234052380Y-56533333D01*
X234100000Y-56390476D01*
X234147619Y-56342857D01*
X235052380Y-55390476D02*
X235052380Y-55961904D01*
X235052380Y-55676190D02*
X234052380Y-55676190D01*
X234195238Y-55771428D01*
X234290476Y-55866666D01*
X234338095Y-55961904D01*
X234052380Y-54485714D02*
X234052380Y-54961904D01*
X234528571Y-55009523D01*
X234480952Y-54961904D01*
X234433333Y-54866666D01*
X234433333Y-54628571D01*
X234480952Y-54533333D01*
X234528571Y-54485714D01*
X234623809Y-54438095D01*
X234861904Y-54438095D01*
X234957142Y-54485714D01*
X235004761Y-54533333D01*
X235052380Y-54628571D01*
X235052380Y-54866666D01*
X235004761Y-54961904D01*
X234957142Y-55009523D01*
X237038095Y-80652380D02*
X237038095Y-81461904D01*
X237085714Y-81557142D01*
X237133333Y-81604761D01*
X237228571Y-81652380D01*
X237419047Y-81652380D01*
X237514285Y-81604761D01*
X237561904Y-81557142D01*
X237609523Y-81461904D01*
X237609523Y-80652380D01*
X238514285Y-80985714D02*
X238514285Y-81652380D01*
X238276190Y-80604761D02*
X238038095Y-81319047D01*
X238657142Y-81319047D01*
X225738095Y-49352380D02*
X225738095Y-50161904D01*
X225785714Y-50257142D01*
X225833333Y-50304761D01*
X225928571Y-50352380D01*
X226119047Y-50352380D01*
X226214285Y-50304761D01*
X226261904Y-50257142D01*
X226309523Y-50161904D01*
X226309523Y-49352380D01*
X227214285Y-49352380D02*
X227023809Y-49352380D01*
X226928571Y-49400000D01*
X226880952Y-49447619D01*
X226785714Y-49590476D01*
X226738095Y-49780952D01*
X226738095Y-50161904D01*
X226785714Y-50257142D01*
X226833333Y-50304761D01*
X226928571Y-50352380D01*
X227119047Y-50352380D01*
X227214285Y-50304761D01*
X227261904Y-50257142D01*
X227309523Y-50161904D01*
X227309523Y-49923809D01*
X227261904Y-49828571D01*
X227214285Y-49780952D01*
X227119047Y-49733333D01*
X226928571Y-49733333D01*
X226833333Y-49780952D01*
X226785714Y-49828571D01*
X226738095Y-49923809D01*
X236157142Y-42057142D02*
X236109523Y-42104761D01*
X235966666Y-42152380D01*
X235871428Y-42152380D01*
X235728571Y-42104761D01*
X235633333Y-42009523D01*
X235585714Y-41914285D01*
X235538095Y-41723809D01*
X235538095Y-41580952D01*
X235585714Y-41390476D01*
X235633333Y-41295238D01*
X235728571Y-41200000D01*
X235871428Y-41152380D01*
X235966666Y-41152380D01*
X236109523Y-41200000D01*
X236157142Y-41247619D01*
X237109523Y-42152380D02*
X236538095Y-42152380D01*
X236823809Y-42152380D02*
X236823809Y-41152380D01*
X236728571Y-41295238D01*
X236633333Y-41390476D01*
X236538095Y-41438095D01*
X237442857Y-41152380D02*
X238109523Y-41152380D01*
X237680952Y-42152380D01*
X223352380Y-55242857D02*
X222876190Y-55576190D01*
X223352380Y-55814285D02*
X222352380Y-55814285D01*
X222352380Y-55433333D01*
X222400000Y-55338095D01*
X222447619Y-55290476D01*
X222542857Y-55242857D01*
X222685714Y-55242857D01*
X222780952Y-55290476D01*
X222828571Y-55338095D01*
X222876190Y-55433333D01*
X222876190Y-55814285D01*
X223352380Y-54290476D02*
X223352380Y-54861904D01*
X223352380Y-54576190D02*
X222352380Y-54576190D01*
X222495238Y-54671428D01*
X222590476Y-54766666D01*
X222638095Y-54861904D01*
X222685714Y-53433333D02*
X223352380Y-53433333D01*
X222304761Y-53671428D02*
X223019047Y-53909523D01*
X223019047Y-53290476D01*
X226761904Y-58452380D02*
X226761904Y-57452380D01*
X227000000Y-57452380D01*
X227142857Y-57500000D01*
X227238095Y-57595238D01*
X227285714Y-57690476D01*
X227333333Y-57880952D01*
X227333333Y-58023809D01*
X227285714Y-58214285D01*
X227238095Y-58309523D01*
X227142857Y-58404761D01*
X227000000Y-58452380D01*
X226761904Y-58452380D01*
X227904761Y-57880952D02*
X227809523Y-57833333D01*
X227761904Y-57785714D01*
X227714285Y-57690476D01*
X227714285Y-57642857D01*
X227761904Y-57547619D01*
X227809523Y-57500000D01*
X227904761Y-57452380D01*
X228095238Y-57452380D01*
X228190476Y-57500000D01*
X228238095Y-57547619D01*
X228285714Y-57642857D01*
X228285714Y-57690476D01*
X228238095Y-57785714D01*
X228190476Y-57833333D01*
X228095238Y-57880952D01*
X227904761Y-57880952D01*
X227809523Y-57928571D01*
X227761904Y-57976190D01*
X227714285Y-58071428D01*
X227714285Y-58261904D01*
X227761904Y-58357142D01*
X227809523Y-58404761D01*
X227904761Y-58452380D01*
X228095238Y-58452380D01*
X228190476Y-58404761D01*
X228238095Y-58357142D01*
X228285714Y-58261904D01*
X228285714Y-58071428D01*
X228238095Y-57976190D01*
X228190476Y-57928571D01*
X228095238Y-57880952D01*
X229452380Y-42114285D02*
X228452380Y-42114285D01*
X228452380Y-41876190D01*
X228500000Y-41733333D01*
X228595238Y-41638095D01*
X228690476Y-41590476D01*
X228880952Y-41542857D01*
X229023809Y-41542857D01*
X229214285Y-41590476D01*
X229309523Y-41638095D01*
X229404761Y-41733333D01*
X229452380Y-41876190D01*
X229452380Y-42114285D01*
X229452380Y-40590476D02*
X229452380Y-41161904D01*
X229452380Y-40876190D02*
X228452380Y-40876190D01*
X228595238Y-40971428D01*
X228690476Y-41066666D01*
X228738095Y-41161904D01*
X228452380Y-39971428D02*
X228452380Y-39876190D01*
X228500000Y-39780952D01*
X228547619Y-39733333D01*
X228642857Y-39685714D01*
X228833333Y-39638095D01*
X229071428Y-39638095D01*
X229261904Y-39685714D01*
X229357142Y-39733333D01*
X229404761Y-39780952D01*
X229452380Y-39876190D01*
X229452380Y-39971428D01*
X229404761Y-40066666D01*
X229357142Y-40114285D01*
X229261904Y-40161904D01*
X229071428Y-40209523D01*
X228833333Y-40209523D01*
X228642857Y-40161904D01*
X228547619Y-40114285D01*
X228500000Y-40066666D01*
X228452380Y-39971428D01*
X232233333Y-80952380D02*
X231900000Y-80476190D01*
X231661904Y-80952380D02*
X231661904Y-79952380D01*
X232042857Y-79952380D01*
X232138095Y-80000000D01*
X232185714Y-80047619D01*
X232233333Y-80142857D01*
X232233333Y-80285714D01*
X232185714Y-80380952D01*
X232138095Y-80428571D01*
X232042857Y-80476190D01*
X231661904Y-80476190D01*
X232709523Y-80952380D02*
X232900000Y-80952380D01*
X232995238Y-80904761D01*
X233042857Y-80857142D01*
X233138095Y-80714285D01*
X233185714Y-80523809D01*
X233185714Y-80142857D01*
X233138095Y-80047619D01*
X233090476Y-80000000D01*
X232995238Y-79952380D01*
X232804761Y-79952380D01*
X232709523Y-80000000D01*
X232661904Y-80047619D01*
X232614285Y-80142857D01*
X232614285Y-80380952D01*
X232661904Y-80476190D01*
X232709523Y-80523809D01*
X232804761Y-80571428D01*
X232995238Y-80571428D01*
X233090476Y-80523809D01*
X233138095Y-80476190D01*
X233185714Y-80380952D01*
X222971428Y-85623809D02*
X222971428Y-84861904D01*
X223352380Y-85242857D02*
X222590476Y-85242857D01*
X222352380Y-84528571D02*
X223352380Y-84195238D01*
X222352380Y-83861904D01*
X223447619Y-83766666D02*
X223447619Y-83004761D01*
X222828571Y-82433333D02*
X222876190Y-82290476D01*
X222923809Y-82242857D01*
X223019047Y-82195238D01*
X223161904Y-82195238D01*
X223257142Y-82242857D01*
X223304761Y-82290476D01*
X223352380Y-82385714D01*
X223352380Y-82766666D01*
X222352380Y-82766666D01*
X222352380Y-82433333D01*
X222400000Y-82338095D01*
X222447619Y-82290476D01*
X222542857Y-82242857D01*
X222638095Y-82242857D01*
X222733333Y-82290476D01*
X222780952Y-82338095D01*
X222828571Y-82433333D01*
X222828571Y-82766666D01*
X223066666Y-81814285D02*
X223066666Y-81338095D01*
X223352380Y-81909523D02*
X222352380Y-81576190D01*
X223352380Y-81242857D01*
X222352380Y-81052380D02*
X222352380Y-80480952D01*
X223352380Y-80766666D02*
X222352380Y-80766666D01*
X223257142Y-79576190D02*
X223304761Y-79623809D01*
X223352380Y-79766666D01*
X223352380Y-79861904D01*
X223304761Y-80004761D01*
X223209523Y-80100000D01*
X223114285Y-80147619D01*
X222923809Y-80195238D01*
X222780952Y-80195238D01*
X222590476Y-80147619D01*
X222495238Y-80100000D01*
X222400000Y-80004761D01*
X222352380Y-79861904D01*
X222352380Y-79766666D01*
X222400000Y-79623809D01*
X222447619Y-79576190D01*
X223352380Y-79147619D02*
X222352380Y-79147619D01*
X222828571Y-79147619D02*
X222828571Y-78576190D01*
X223352380Y-78576190D02*
X222352380Y-78576190D01*
X222400000Y-77576190D02*
X222352380Y-77671428D01*
X222352380Y-77814285D01*
X222400000Y-77957142D01*
X222495238Y-78052380D01*
X222590476Y-78100000D01*
X222780952Y-78147619D01*
X222923809Y-78147619D01*
X223114285Y-78100000D01*
X223209523Y-78052380D01*
X223304761Y-77957142D01*
X223352380Y-77814285D01*
X223352380Y-77719047D01*
X223304761Y-77576190D01*
X223257142Y-77528571D01*
X222923809Y-77528571D01*
X222923809Y-77719047D01*
X232033333Y-87957142D02*
X231985714Y-88004761D01*
X231842857Y-88052380D01*
X231747619Y-88052380D01*
X231604761Y-88004761D01*
X231509523Y-87909523D01*
X231461904Y-87814285D01*
X231414285Y-87623809D01*
X231414285Y-87480952D01*
X231461904Y-87290476D01*
X231509523Y-87195238D01*
X231604761Y-87100000D01*
X231747619Y-87052380D01*
X231842857Y-87052380D01*
X231985714Y-87100000D01*
X232033333Y-87147619D01*
X232509523Y-88052380D02*
X232700000Y-88052380D01*
X232795238Y-88004761D01*
X232842857Y-87957142D01*
X232938095Y-87814285D01*
X232985714Y-87623809D01*
X232985714Y-87242857D01*
X232938095Y-87147619D01*
X232890476Y-87100000D01*
X232795238Y-87052380D01*
X232604761Y-87052380D01*
X232509523Y-87100000D01*
X232461904Y-87147619D01*
X232414285Y-87242857D01*
X232414285Y-87480952D01*
X232461904Y-87576190D01*
X232509523Y-87623809D01*
X232604761Y-87671428D01*
X232795238Y-87671428D01*
X232890476Y-87623809D01*
X232938095Y-87576190D01*
X232985714Y-87480952D01*
X207133333Y-122457142D02*
X207085714Y-122504761D01*
X206942857Y-122552380D01*
X206847619Y-122552380D01*
X206704761Y-122504761D01*
X206609523Y-122409523D01*
X206561904Y-122314285D01*
X206514285Y-122123809D01*
X206514285Y-121980952D01*
X206561904Y-121790476D01*
X206609523Y-121695238D01*
X206704761Y-121600000D01*
X206847619Y-121552380D01*
X206942857Y-121552380D01*
X207085714Y-121600000D01*
X207133333Y-121647619D01*
X207466666Y-121552380D02*
X208085714Y-121552380D01*
X207752380Y-121933333D01*
X207895238Y-121933333D01*
X207990476Y-121980952D01*
X208038095Y-122028571D01*
X208085714Y-122123809D01*
X208085714Y-122361904D01*
X208038095Y-122457142D01*
X207990476Y-122504761D01*
X207895238Y-122552380D01*
X207609523Y-122552380D01*
X207514285Y-122504761D01*
X207466666Y-122457142D01*
X238692380Y-50142857D02*
X238216190Y-50476190D01*
X238692380Y-50714285D02*
X237692380Y-50714285D01*
X237692380Y-50333333D01*
X237740000Y-50238095D01*
X237787619Y-50190476D01*
X237882857Y-50142857D01*
X238025714Y-50142857D01*
X238120952Y-50190476D01*
X238168571Y-50238095D01*
X238216190Y-50333333D01*
X238216190Y-50714285D01*
X238692380Y-49190476D02*
X238692380Y-49761904D01*
X238692380Y-49476190D02*
X237692380Y-49476190D01*
X237835238Y-49571428D01*
X237930476Y-49666666D01*
X237978095Y-49761904D01*
X237692380Y-48571428D02*
X237692380Y-48476190D01*
X237740000Y-48380952D01*
X237787619Y-48333333D01*
X237882857Y-48285714D01*
X238073333Y-48238095D01*
X238311428Y-48238095D01*
X238501904Y-48285714D01*
X238597142Y-48333333D01*
X238644761Y-48380952D01*
X238692380Y-48476190D01*
X238692380Y-48571428D01*
X238644761Y-48666666D01*
X238597142Y-48714285D01*
X238501904Y-48761904D01*
X238311428Y-48809523D01*
X238073333Y-48809523D01*
X237882857Y-48761904D01*
X237787619Y-48714285D01*
X237740000Y-48666666D01*
X237692380Y-48571428D01*
X211533333Y-31252380D02*
X211200000Y-30776190D01*
X210961904Y-31252380D02*
X210961904Y-30252380D01*
X211342857Y-30252380D01*
X211438095Y-30300000D01*
X211485714Y-30347619D01*
X211533333Y-30442857D01*
X211533333Y-30585714D01*
X211485714Y-30680952D01*
X211438095Y-30728571D01*
X211342857Y-30776190D01*
X210961904Y-30776190D01*
X212104761Y-30680952D02*
X212009523Y-30633333D01*
X211961904Y-30585714D01*
X211914285Y-30490476D01*
X211914285Y-30442857D01*
X211961904Y-30347619D01*
X212009523Y-30300000D01*
X212104761Y-30252380D01*
X212295238Y-30252380D01*
X212390476Y-30300000D01*
X212438095Y-30347619D01*
X212485714Y-30442857D01*
X212485714Y-30490476D01*
X212438095Y-30585714D01*
X212390476Y-30633333D01*
X212295238Y-30680952D01*
X212104761Y-30680952D01*
X212009523Y-30728571D01*
X211961904Y-30776190D01*
X211914285Y-30871428D01*
X211914285Y-31061904D01*
X211961904Y-31157142D01*
X212009523Y-31204761D01*
X212104761Y-31252380D01*
X212295238Y-31252380D01*
X212390476Y-31204761D01*
X212438095Y-31157142D01*
X212485714Y-31061904D01*
X212485714Y-30871428D01*
X212438095Y-30776190D01*
X212390476Y-30728571D01*
X212295238Y-30680952D01*
X226361904Y-53552380D02*
X226361904Y-52552380D01*
X226600000Y-52552380D01*
X226742857Y-52600000D01*
X226838095Y-52695238D01*
X226885714Y-52790476D01*
X226933333Y-52980952D01*
X226933333Y-53123809D01*
X226885714Y-53314285D01*
X226838095Y-53409523D01*
X226742857Y-53504761D01*
X226600000Y-53552380D01*
X226361904Y-53552380D01*
X227409523Y-53552380D02*
X227600000Y-53552380D01*
X227695238Y-53504761D01*
X227742857Y-53457142D01*
X227838095Y-53314285D01*
X227885714Y-53123809D01*
X227885714Y-52742857D01*
X227838095Y-52647619D01*
X227790476Y-52600000D01*
X227695238Y-52552380D01*
X227504761Y-52552380D01*
X227409523Y-52600000D01*
X227361904Y-52647619D01*
X227314285Y-52742857D01*
X227314285Y-52980952D01*
X227361904Y-53076190D01*
X227409523Y-53123809D01*
X227504761Y-53171428D01*
X227695238Y-53171428D01*
X227790476Y-53123809D01*
X227838095Y-53076190D01*
X227885714Y-52980952D01*
X232404761Y-52647619D02*
X232309523Y-52600000D01*
X232214285Y-52504761D01*
X232071428Y-52361904D01*
X231976190Y-52314285D01*
X231880952Y-52314285D01*
X231928571Y-52552380D02*
X231833333Y-52504761D01*
X231738095Y-52409523D01*
X231690476Y-52219047D01*
X231690476Y-51885714D01*
X231738095Y-51695238D01*
X231833333Y-51600000D01*
X231928571Y-51552380D01*
X232119047Y-51552380D01*
X232214285Y-51600000D01*
X232309523Y-51695238D01*
X232357142Y-51885714D01*
X232357142Y-52219047D01*
X232309523Y-52409523D01*
X232214285Y-52504761D01*
X232119047Y-52552380D01*
X231928571Y-52552380D01*
X233309523Y-52552380D02*
X232738095Y-52552380D01*
X233023809Y-52552380D02*
X233023809Y-51552380D01*
X232928571Y-51695238D01*
X232833333Y-51790476D01*
X232738095Y-51838095D01*
X240152380Y-50142857D02*
X239676190Y-50476190D01*
X240152380Y-50714285D02*
X239152380Y-50714285D01*
X239152380Y-50333333D01*
X239200000Y-50238095D01*
X239247619Y-50190476D01*
X239342857Y-50142857D01*
X239485714Y-50142857D01*
X239580952Y-50190476D01*
X239628571Y-50238095D01*
X239676190Y-50333333D01*
X239676190Y-50714285D01*
X240152380Y-49190476D02*
X240152380Y-49761904D01*
X240152380Y-49476190D02*
X239152380Y-49476190D01*
X239295238Y-49571428D01*
X239390476Y-49666666D01*
X239438095Y-49761904D01*
X239247619Y-48809523D02*
X239200000Y-48761904D01*
X239152380Y-48666666D01*
X239152380Y-48428571D01*
X239200000Y-48333333D01*
X239247619Y-48285714D01*
X239342857Y-48238095D01*
X239438095Y-48238095D01*
X239580952Y-48285714D01*
X240152380Y-48857142D01*
X240152380Y-48238095D01*
X227557142Y-43642857D02*
X227604761Y-43690476D01*
X227652380Y-43833333D01*
X227652380Y-43928571D01*
X227604761Y-44071428D01*
X227509523Y-44166666D01*
X227414285Y-44214285D01*
X227223809Y-44261904D01*
X227080952Y-44261904D01*
X226890476Y-44214285D01*
X226795238Y-44166666D01*
X226700000Y-44071428D01*
X226652380Y-43928571D01*
X226652380Y-43833333D01*
X226700000Y-43690476D01*
X226747619Y-43642857D01*
X227652380Y-42690476D02*
X227652380Y-43261904D01*
X227652380Y-42976190D02*
X226652380Y-42976190D01*
X226795238Y-43071428D01*
X226890476Y-43166666D01*
X226938095Y-43261904D01*
X226985714Y-41833333D02*
X227652380Y-41833333D01*
X226604761Y-42071428D02*
X227319047Y-42309523D01*
X227319047Y-41690476D01*
X212961904Y-28252380D02*
X212961904Y-27252380D01*
X213200000Y-27252380D01*
X213342857Y-27300000D01*
X213438095Y-27395238D01*
X213485714Y-27490476D01*
X213533333Y-27680952D01*
X213533333Y-27823809D01*
X213485714Y-28014285D01*
X213438095Y-28109523D01*
X213342857Y-28204761D01*
X213200000Y-28252380D01*
X212961904Y-28252380D01*
X214438095Y-27252380D02*
X213961904Y-27252380D01*
X213914285Y-27728571D01*
X213961904Y-27680952D01*
X214057142Y-27633333D01*
X214295238Y-27633333D01*
X214390476Y-27680952D01*
X214438095Y-27728571D01*
X214485714Y-27823809D01*
X214485714Y-28061904D01*
X214438095Y-28157142D01*
X214390476Y-28204761D01*
X214295238Y-28252380D01*
X214057142Y-28252380D01*
X213961904Y-28204761D01*
X213914285Y-28157142D01*
X236752380Y-56342857D02*
X236276190Y-56676190D01*
X236752380Y-56914285D02*
X235752380Y-56914285D01*
X235752380Y-56533333D01*
X235800000Y-56438095D01*
X235847619Y-56390476D01*
X235942857Y-56342857D01*
X236085714Y-56342857D01*
X236180952Y-56390476D01*
X236228571Y-56438095D01*
X236276190Y-56533333D01*
X236276190Y-56914285D01*
X236752380Y-55390476D02*
X236752380Y-55961904D01*
X236752380Y-55676190D02*
X235752380Y-55676190D01*
X235895238Y-55771428D01*
X235990476Y-55866666D01*
X236038095Y-55961904D01*
X236752380Y-54438095D02*
X236752380Y-55009523D01*
X236752380Y-54723809D02*
X235752380Y-54723809D01*
X235895238Y-54819047D01*
X235990476Y-54914285D01*
X236038095Y-55009523D01*
X218233333Y-118457142D02*
X218185714Y-118504761D01*
X218042857Y-118552380D01*
X217947619Y-118552380D01*
X217804761Y-118504761D01*
X217709523Y-118409523D01*
X217661904Y-118314285D01*
X217614285Y-118123809D01*
X217614285Y-117980952D01*
X217661904Y-117790476D01*
X217709523Y-117695238D01*
X217804761Y-117600000D01*
X217947619Y-117552380D01*
X218042857Y-117552380D01*
X218185714Y-117600000D01*
X218233333Y-117647619D01*
X219090476Y-117885714D02*
X219090476Y-118552380D01*
X218852380Y-117504761D02*
X218614285Y-118219047D01*
X219233333Y-118219047D01*
X240066666Y-47328571D02*
X239733333Y-47328571D01*
X239733333Y-47852380D02*
X239733333Y-46852380D01*
X240209523Y-46852380D01*
X241114285Y-47852380D02*
X240542857Y-47852380D01*
X240828571Y-47852380D02*
X240828571Y-46852380D01*
X240733333Y-46995238D01*
X240638095Y-47090476D01*
X240542857Y-47138095D01*
X223152380Y-42095238D02*
X223961904Y-42095238D01*
X224057142Y-42047619D01*
X224104761Y-42000000D01*
X224152380Y-41904761D01*
X224152380Y-41714285D01*
X224104761Y-41619047D01*
X224057142Y-41571428D01*
X223961904Y-41523809D01*
X223152380Y-41523809D01*
X224104761Y-41095238D02*
X224152380Y-40952380D01*
X224152380Y-40714285D01*
X224104761Y-40619047D01*
X224057142Y-40571428D01*
X223961904Y-40523809D01*
X223866666Y-40523809D01*
X223771428Y-40571428D01*
X223723809Y-40619047D01*
X223676190Y-40714285D01*
X223628571Y-40904761D01*
X223580952Y-41000000D01*
X223533333Y-41047619D01*
X223438095Y-41095238D01*
X223342857Y-41095238D01*
X223247619Y-41047619D01*
X223200000Y-41000000D01*
X223152380Y-40904761D01*
X223152380Y-40666666D01*
X223200000Y-40523809D01*
X223628571Y-39761904D02*
X223676190Y-39619047D01*
X223723809Y-39571428D01*
X223819047Y-39523809D01*
X223961904Y-39523809D01*
X224057142Y-39571428D01*
X224104761Y-39619047D01*
X224152380Y-39714285D01*
X224152380Y-40095238D01*
X223152380Y-40095238D01*
X223152380Y-39761904D01*
X223200000Y-39666666D01*
X223247619Y-39619047D01*
X223342857Y-39571428D01*
X223438095Y-39571428D01*
X223533333Y-39619047D01*
X223580952Y-39666666D01*
X223628571Y-39761904D01*
X223628571Y-40095238D01*
X224247619Y-39333333D02*
X224247619Y-38571428D01*
X223152380Y-38476190D02*
X224152380Y-38142857D01*
X223152380Y-37809523D01*
X223200000Y-36952380D02*
X223152380Y-37047619D01*
X223152380Y-37190476D01*
X223200000Y-37333333D01*
X223295238Y-37428571D01*
X223390476Y-37476190D01*
X223580952Y-37523809D01*
X223723809Y-37523809D01*
X223914285Y-37476190D01*
X224009523Y-37428571D01*
X224104761Y-37333333D01*
X224152380Y-37190476D01*
X224152380Y-37095238D01*
X224104761Y-36952380D01*
X224057142Y-36904761D01*
X223723809Y-36904761D01*
X223723809Y-37095238D01*
X224152380Y-36476190D02*
X223152380Y-36476190D01*
X224152380Y-35904761D01*
X223152380Y-35904761D01*
X224152380Y-35428571D02*
X223152380Y-35428571D01*
X223152380Y-35190476D01*
X223200000Y-35047619D01*
X223295238Y-34952380D01*
X223390476Y-34904761D01*
X223580952Y-34857142D01*
X223723809Y-34857142D01*
X223914285Y-34904761D01*
X224009523Y-34952380D01*
X224104761Y-35047619D01*
X224152380Y-35190476D01*
X224152380Y-35428571D01*
X213471428Y-92000000D02*
X213471428Y-91238095D01*
X212852380Y-90904761D02*
X213852380Y-90571428D01*
X212852380Y-90238095D01*
X213947619Y-90142857D02*
X213947619Y-89380952D01*
X213328571Y-88809523D02*
X213376190Y-88666666D01*
X213423809Y-88619047D01*
X213519047Y-88571428D01*
X213661904Y-88571428D01*
X213757142Y-88619047D01*
X213804761Y-88666666D01*
X213852380Y-88761904D01*
X213852380Y-89142857D01*
X212852380Y-89142857D01*
X212852380Y-88809523D01*
X212900000Y-88714285D01*
X212947619Y-88666666D01*
X213042857Y-88619047D01*
X213138095Y-88619047D01*
X213233333Y-88666666D01*
X213280952Y-88714285D01*
X213328571Y-88809523D01*
X213328571Y-89142857D01*
X213566666Y-88190476D02*
X213566666Y-87714285D01*
X213852380Y-88285714D02*
X212852380Y-87952380D01*
X213852380Y-87619047D01*
X212852380Y-87428571D02*
X212852380Y-86857142D01*
X213852380Y-87142857D02*
X212852380Y-87142857D01*
X202171428Y-95900000D02*
X202171428Y-95138095D01*
X202552380Y-95519047D02*
X201790476Y-95519047D01*
X201552380Y-94804761D02*
X202552380Y-94471428D01*
X201552380Y-94138095D01*
X202647619Y-94042857D02*
X202647619Y-93280952D01*
X202028571Y-92709523D02*
X202076190Y-92566666D01*
X202123809Y-92519047D01*
X202219047Y-92471428D01*
X202361904Y-92471428D01*
X202457142Y-92519047D01*
X202504761Y-92566666D01*
X202552380Y-92661904D01*
X202552380Y-93042857D01*
X201552380Y-93042857D01*
X201552380Y-92709523D01*
X201600000Y-92614285D01*
X201647619Y-92566666D01*
X201742857Y-92519047D01*
X201838095Y-92519047D01*
X201933333Y-92566666D01*
X201980952Y-92614285D01*
X202028571Y-92709523D01*
X202028571Y-93042857D01*
X202266666Y-92090476D02*
X202266666Y-91614285D01*
X202552380Y-92185714D02*
X201552380Y-91852380D01*
X202552380Y-91519047D01*
X201552380Y-91328571D02*
X201552380Y-90757142D01*
X202552380Y-91042857D02*
X201552380Y-91042857D01*
X209052380Y-100671428D02*
X208052380Y-100671428D01*
X208052380Y-100290476D01*
X208100000Y-100195238D01*
X208147619Y-100147619D01*
X208242857Y-100100000D01*
X208385714Y-100100000D01*
X208480952Y-100147619D01*
X208528571Y-100195238D01*
X208576190Y-100290476D01*
X208576190Y-100671428D01*
X209052380Y-99100000D02*
X208576190Y-99433333D01*
X209052380Y-99671428D02*
X208052380Y-99671428D01*
X208052380Y-99290476D01*
X208100000Y-99195238D01*
X208147619Y-99147619D01*
X208242857Y-99100000D01*
X208385714Y-99100000D01*
X208480952Y-99147619D01*
X208528571Y-99195238D01*
X208576190Y-99290476D01*
X208576190Y-99671428D01*
X208052380Y-98480952D02*
X208052380Y-98290476D01*
X208100000Y-98195238D01*
X208195238Y-98100000D01*
X208385714Y-98052380D01*
X208719047Y-98052380D01*
X208909523Y-98100000D01*
X209004761Y-98195238D01*
X209052380Y-98290476D01*
X209052380Y-98480952D01*
X209004761Y-98576190D01*
X208909523Y-98671428D01*
X208719047Y-98719047D01*
X208385714Y-98719047D01*
X208195238Y-98671428D01*
X208100000Y-98576190D01*
X208052380Y-98480952D01*
X208528571Y-97290476D02*
X208576190Y-97147619D01*
X208623809Y-97100000D01*
X208719047Y-97052380D01*
X208861904Y-97052380D01*
X208957142Y-97100000D01*
X209004761Y-97147619D01*
X209052380Y-97242857D01*
X209052380Y-97623809D01*
X208052380Y-97623809D01*
X208052380Y-97290476D01*
X208100000Y-97195238D01*
X208147619Y-97147619D01*
X208242857Y-97100000D01*
X208338095Y-97100000D01*
X208433333Y-97147619D01*
X208480952Y-97195238D01*
X208528571Y-97290476D01*
X208528571Y-97623809D01*
X208528571Y-96623809D02*
X208528571Y-96290476D01*
X209052380Y-96147619D02*
X209052380Y-96623809D01*
X208052380Y-96623809D01*
X208052380Y-96147619D01*
X209147619Y-95957142D02*
X209147619Y-95195238D01*
X208052380Y-95100000D02*
X209052380Y-94766666D01*
X208052380Y-94433333D01*
X208100000Y-93576190D02*
X208052380Y-93671428D01*
X208052380Y-93814285D01*
X208100000Y-93957142D01*
X208195238Y-94052380D01*
X208290476Y-94100000D01*
X208480952Y-94147619D01*
X208623809Y-94147619D01*
X208814285Y-94100000D01*
X208909523Y-94052380D01*
X209004761Y-93957142D01*
X209052380Y-93814285D01*
X209052380Y-93719047D01*
X209004761Y-93576190D01*
X208957142Y-93528571D01*
X208623809Y-93528571D01*
X208623809Y-93719047D01*
X209052380Y-93100000D02*
X208052380Y-93100000D01*
X209052380Y-92528571D01*
X208052380Y-92528571D01*
X209052380Y-92052380D02*
X208052380Y-92052380D01*
X208052380Y-91814285D01*
X208100000Y-91671428D01*
X208195238Y-91576190D01*
X208290476Y-91528571D01*
X208480952Y-91480952D01*
X208623809Y-91480952D01*
X208814285Y-91528571D01*
X208909523Y-91576190D01*
X209004761Y-91671428D01*
X209052380Y-91814285D01*
X209052380Y-92052380D01*
X241950000Y-61400000D02*
X241950000Y-56000000D01*
X238650000Y-61400000D02*
X241950000Y-61400000D01*
X238650000Y-61400000D02*
X238650000Y-56000000D01*
X212960000Y-122300000D02*
X212960000Y-120015000D01*
X211490000Y-120015000D02*
X211490000Y-122300000D01*
X212960000Y-120015000D02*
X211490000Y-120015000D01*
X224177500Y-51062742D02*
X224177500Y-51537258D01*
X225222500Y-51062742D02*
X225222500Y-51537258D01*
D11*
X215550000Y-35150000D02*
X218050000Y-35150000D01*
D10*
X214240000Y-37010000D02*
X214240000Y-32650000D01*
D11*
X216800000Y-33900000D02*
X216800000Y-36400000D01*
D10*
X235210000Y-42013748D02*
X235210000Y-44786252D01*
X231790000Y-42013748D02*
X231790000Y-44786252D01*
X230101252Y-64715000D02*
X229578748Y-64715000D01*
X230101252Y-63245000D02*
X229578748Y-63245000D01*
X197900000Y-139400000D02*
X196900000Y-138400000D01*
X197900000Y-139400000D02*
X198900000Y-138400000D01*
D13*
X234240000Y-52607836D02*
X234240000Y-52392164D01*
X234960000Y-52607836D02*
X234960000Y-52392164D01*
D10*
X234350000Y-84500000D02*
X234350000Y-83000000D01*
X237650000Y-86000000D02*
X237650000Y-83000000D01*
X225810000Y-46950000D02*
X225810000Y-48450000D01*
X222590000Y-45450000D02*
X222590000Y-48450000D01*
X236065000Y-44861252D02*
X236065000Y-44338748D01*
X237535000Y-44861252D02*
X237535000Y-44338748D01*
X223422500Y-51062742D02*
X223422500Y-51537258D01*
X222377500Y-51062742D02*
X222377500Y-51537258D01*
X229150000Y-61400000D02*
X232450000Y-61400000D01*
X229150000Y-61400000D02*
X229150000Y-56000000D01*
X232450000Y-61400000D02*
X232450000Y-56000000D01*
X214660000Y-122985000D02*
X214660000Y-120700000D01*
X213190000Y-120700000D02*
X213190000Y-122985000D01*
X213190000Y-122985000D02*
X214660000Y-122985000D01*
X228500000Y-45950000D02*
X228500000Y-43400000D01*
X230200000Y-45950000D02*
X230200000Y-43400000D01*
X228500000Y-45950000D02*
X230200000Y-45950000D01*
X232637258Y-81677500D02*
X232162742Y-81677500D01*
X232637258Y-82722500D02*
X232162742Y-82722500D01*
X232935000Y-85161252D02*
X232935000Y-84638748D01*
X231465000Y-85161252D02*
X231465000Y-84638748D01*
D13*
X208847486Y-120491774D02*
X208652021Y-120400627D01*
X208543201Y-121144315D02*
X208347736Y-121053168D01*
X239160000Y-24940000D02*
X239160000Y-28550000D01*
X230040000Y-24940000D02*
X239160000Y-24940000D01*
X237600000Y-28250000D02*
X237600000Y-33050000D01*
X231600000Y-28250000D02*
X231600000Y-33050000D01*
X230040000Y-24940000D02*
X230040000Y-28550000D01*
X230040000Y-28250000D02*
X239160000Y-28250000D01*
X241860000Y-28550000D02*
X239960000Y-28550000D01*
X241860000Y-29890000D02*
X241860000Y-28550000D01*
X231600000Y-33050000D02*
G75*
G03*
X237600000Y-33050000I3000000J0D01*
G01*
D10*
X236822500Y-49537258D02*
X236822500Y-49062742D01*
X235777500Y-49537258D02*
X235777500Y-49062742D01*
X212172500Y-28062742D02*
X212172500Y-28537258D01*
X211127500Y-28062742D02*
X211127500Y-28537258D01*
X231250000Y-52250000D02*
X228700000Y-52250000D01*
X231250000Y-53950000D02*
X231250000Y-52250000D01*
X231250000Y-53950000D02*
X228700000Y-53950000D01*
X232930000Y-46950000D02*
X232930000Y-48090000D01*
X235122500Y-49062742D02*
X235122500Y-49537258D01*
X234077500Y-49062742D02*
X234077500Y-49537258D01*
X227885000Y-46238748D02*
X227885000Y-46761252D01*
X226415000Y-46238748D02*
X226415000Y-46761252D01*
X210965000Y-26685000D02*
X213250000Y-26685000D01*
X213250000Y-25215000D02*
X210965000Y-25215000D01*
X210965000Y-25215000D02*
X210965000Y-26685000D01*
X236822500Y-52737258D02*
X236822500Y-52262742D01*
X235777500Y-52737258D02*
X235777500Y-52262742D01*
D13*
X220355697Y-119024875D02*
X220446844Y-118829410D01*
X219703156Y-118720590D02*
X219794303Y-118525125D01*
D10*
X216200000Y-139325000D02*
X217200000Y-138325000D01*
X216200000Y-139325000D02*
X215200000Y-138325000D01*
X238590000Y-42013748D02*
X238590000Y-44786252D01*
X242010000Y-42013748D02*
X242010000Y-44786252D01*
D11*
X182800000Y-119550000D02*
X182800000Y-117050000D01*
X184050000Y-118300000D02*
X181550000Y-118300000D01*
D10*
X185360000Y-114440000D02*
X185360000Y-118800000D01*
M02*
