G04 #@! TF.GenerationSoftware,KiCad,Pcbnew,6.0.11+dfsg-1*
G04 #@! TF.CreationDate,2023-09-05T11:20:00+01:00*
G04 #@! TF.ProjectId,low-noise-power-probe-panel,6c6f772d-6e6f-4697-9365-2d706f776572,rev?*
G04 #@! TF.SameCoordinates,Original*
G04 #@! TF.FileFunction,Copper,L2,Inr*
G04 #@! TF.FilePolarity,Positive*
%FSLAX46Y46*%
G04 Gerber Fmt 4.6, Leading zero omitted, Abs format (unit mm)*
G04 Created by KiCad (PCBNEW 6.0.11+dfsg-1) date 2023-09-05 11:20:00*
%MOMM*%
%LPD*%
G01*
G04 APERTURE LIST*
%ADD10C,0.150000*%
G04 #@! TA.AperFunction,NonConductor*
%ADD11C,0.150000*%
G04 #@! TD*
G04 #@! TA.AperFunction,ComponentPad*
%ADD12C,3.000000*%
G04 #@! TD*
G04 #@! TA.AperFunction,ComponentPad*
%ADD13O,3.000000X2.000000*%
G04 #@! TD*
G04 #@! TA.AperFunction,ComponentPad*
%ADD14O,4.000000X6.000000*%
G04 #@! TD*
G04 #@! TA.AperFunction,ComponentPad*
%ADD15C,1.800000*%
G04 #@! TD*
G04 #@! TA.AperFunction,ComponentPad*
%ADD16O,1.100000X2.100000*%
G04 #@! TD*
G04 #@! TA.AperFunction,ComponentPad*
%ADD17O,1.100000X2.600000*%
G04 #@! TD*
G04 #@! TA.AperFunction,ComponentPad*
%ADD18R,1.700000X1.700000*%
G04 #@! TD*
G04 #@! TA.AperFunction,ComponentPad*
%ADD19O,1.700000X1.700000*%
G04 #@! TD*
G04 #@! TA.AperFunction,ComponentPad*
%ADD20O,3.500000X2.000000*%
G04 #@! TD*
G04 #@! TA.AperFunction,ComponentPad*
%ADD21C,2.000000*%
G04 #@! TD*
G04 #@! TA.AperFunction,ViaPad*
%ADD22C,0.550000*%
G04 #@! TD*
G04 #@! TA.AperFunction,Conductor*
%ADD23C,0.152000*%
G04 #@! TD*
G04 #@! TA.AperFunction,Conductor*
%ADD24C,0.160000*%
G04 #@! TD*
G04 #@! TA.AperFunction,Conductor*
%ADD25C,0.300000*%
G04 #@! TD*
G04 #@! TA.AperFunction,Conductor*
%ADD26C,0.137000*%
G04 #@! TD*
G04 APERTURE END LIST*
D10*
D11*
X176833333Y-27252380D02*
X176357142Y-27252380D01*
X176357142Y-26252380D01*
X177119047Y-26347619D02*
X177166666Y-26300000D01*
X177261904Y-26252380D01*
X177500000Y-26252380D01*
X177595238Y-26300000D01*
X177642857Y-26347619D01*
X177690476Y-26442857D01*
X177690476Y-26538095D01*
X177642857Y-26680952D01*
X177071428Y-27252380D01*
X177690476Y-27252380D01*
D12*
X228800000Y-124120000D03*
X228800000Y-120310000D03*
X228800000Y-116500000D03*
X233630000Y-124120000D03*
X233630000Y-120310000D03*
X233630000Y-116500000D03*
X238460000Y-124120000D03*
X238460000Y-120310000D03*
X238460000Y-116500000D03*
D13*
X231090000Y-138470000D03*
X236170000Y-138470000D03*
D14*
X192820000Y-131680000D03*
X202980000Y-131780000D03*
D15*
X197900000Y-126700000D03*
X200440000Y-126700000D03*
D16*
X225429483Y-32125000D03*
X216789483Y-32125000D03*
D17*
X216789483Y-26765000D03*
X225429483Y-26765000D03*
D18*
X240050000Y-73100000D03*
D19*
X240050000Y-70560000D03*
X240050000Y-68020000D03*
X240050000Y-65480000D03*
D20*
X183400000Y-137650000D03*
X180400000Y-125350000D03*
X183400000Y-127650000D03*
D14*
X221280000Y-131705000D03*
X211120000Y-131605000D03*
D15*
X216200000Y-126625000D03*
X218740000Y-126625000D03*
D21*
X228600000Y-85500000D03*
X232400000Y-78200000D03*
X240100000Y-85400000D03*
X202100000Y-98000000D03*
X222000000Y-108100000D03*
X226000000Y-35000000D03*
X191600000Y-108100000D03*
X213300000Y-94000000D03*
X208600000Y-102800000D03*
D22*
X235190000Y-47020000D03*
X232620000Y-48970000D03*
X232630000Y-50990000D03*
X208497239Y-120262761D03*
X199350000Y-109225000D03*
X220560000Y-118680000D03*
X200160000Y-109225000D03*
X208700000Y-121190000D03*
X209840000Y-108200000D03*
X219590000Y-118878722D03*
X209841868Y-107626051D03*
X202800000Y-104300000D03*
X203700000Y-104300000D03*
X214300000Y-104500000D03*
X213500000Y-104500000D03*
X200700000Y-115900000D03*
X242200000Y-96825000D03*
X197865476Y-96825000D03*
X235400000Y-131100000D03*
X219500000Y-123200000D03*
X206200000Y-119600000D03*
X187865476Y-91825000D03*
X202850000Y-138700000D03*
X193400000Y-106750000D03*
X215100000Y-122924500D03*
X200700000Y-119100000D03*
X177600000Y-96825000D03*
X217400000Y-127950000D03*
X215300000Y-125100000D03*
X210500000Y-97900000D03*
X222900000Y-138700000D03*
X177600000Y-116825000D03*
X224800000Y-130300000D03*
X189600000Y-130300000D03*
X216100000Y-128450000D03*
X227865476Y-111825000D03*
X235200000Y-136900000D03*
X199350000Y-107150000D03*
X182865476Y-106825000D03*
X199350000Y-106275000D03*
X242200000Y-91825000D03*
X195100000Y-135600000D03*
X189700000Y-110200000D03*
X222865476Y-91825000D03*
X197250000Y-124950000D03*
X201100000Y-135600000D03*
X227865476Y-106825000D03*
X187700000Y-138700000D03*
X187865476Y-96825000D03*
X240600000Y-134500000D03*
X200600000Y-100100000D03*
X216100000Y-97900000D03*
X209000000Y-125100000D03*
X200600000Y-123950000D03*
X177550000Y-128700000D03*
X242200000Y-136825000D03*
X214300000Y-126900000D03*
X227865476Y-131825000D03*
X196225000Y-125725000D03*
X222865476Y-111825000D03*
X177600000Y-106825000D03*
X227865476Y-96825000D03*
X219700000Y-109600000D03*
X224800000Y-124300000D03*
X242200000Y-106825000D03*
X196000000Y-127000000D03*
X202865476Y-91825000D03*
X214875000Y-128000000D03*
X211100000Y-121100000D03*
X198000000Y-115900000D03*
X177550000Y-123700000D03*
X211450000Y-101600000D03*
X237865476Y-91825000D03*
X237865476Y-111825000D03*
X217865476Y-131825000D03*
X198500000Y-124900000D03*
X197800000Y-128600000D03*
X222865476Y-101825000D03*
X212125000Y-103600000D03*
X215700000Y-118400000D03*
X237865476Y-101825000D03*
X182865476Y-111825000D03*
X193800000Y-113400000D03*
X189600000Y-135600000D03*
X182865476Y-101825000D03*
X193800000Y-109600000D03*
X192865476Y-91825000D03*
X182865476Y-116825000D03*
X192850000Y-138700000D03*
X207850000Y-138700000D03*
X177600000Y-101825000D03*
X199100000Y-128100000D03*
X231200000Y-127500000D03*
X196575000Y-128150000D03*
X217000000Y-105500000D03*
X242200000Y-101825000D03*
X206250000Y-107550000D03*
X232500000Y-136900000D03*
X205100000Y-106700000D03*
X222865476Y-136825000D03*
X237865476Y-106825000D03*
X217865476Y-91825000D03*
X187865476Y-101825000D03*
X237865476Y-136825000D03*
X177550000Y-133700000D03*
X207865476Y-131825000D03*
X227865476Y-91825000D03*
X227865476Y-101825000D03*
X203600000Y-100100000D03*
X197865476Y-136825000D03*
X197850000Y-138700000D03*
X206600000Y-125100000D03*
X177550000Y-138700000D03*
X223500000Y-113100000D03*
X187865476Y-121825000D03*
X192865476Y-101825000D03*
X237600000Y-131100000D03*
X211100000Y-123000000D03*
X239600000Y-126700000D03*
X197865476Y-131825000D03*
X224900000Y-135500000D03*
X242200000Y-126825000D03*
X222865476Y-126825000D03*
X221100000Y-112800000D03*
X202100000Y-106600000D03*
X222865476Y-96825000D03*
X227900000Y-138700000D03*
X236000000Y-125700000D03*
X209700000Y-123000000D03*
X206200000Y-113400000D03*
X192865476Y-121825000D03*
X197865476Y-106825000D03*
X227865476Y-126825000D03*
X208600000Y-106900000D03*
X217500000Y-125200000D03*
X207865476Y-91825000D03*
X213500000Y-125100000D03*
X232865476Y-106825000D03*
X226100000Y-110500000D03*
X182865476Y-91825000D03*
X197700000Y-121825000D03*
X207100000Y-135600000D03*
X177600000Y-111825000D03*
X217100000Y-122924500D03*
X214400000Y-125700000D03*
X217900000Y-138700000D03*
X232865476Y-111825000D03*
X182865476Y-96825000D03*
X232865476Y-101825000D03*
X189700000Y-124300000D03*
X211100000Y-125100000D03*
X198800000Y-113400000D03*
X197865476Y-91825000D03*
X219100000Y-135600000D03*
X237865476Y-96825000D03*
X204200000Y-123900000D03*
X207865476Y-96825000D03*
X217865476Y-96825000D03*
X212865476Y-91825000D03*
X204200000Y-125700000D03*
X242200000Y-111825000D03*
X201800000Y-125700000D03*
X192865476Y-96825000D03*
X213100000Y-135600000D03*
X232865476Y-96825000D03*
X227865476Y-136825000D03*
X206250000Y-105800000D03*
X232865476Y-91825000D03*
X201200000Y-113400000D03*
X205300000Y-117800000D03*
X177600000Y-91825000D03*
X193200000Y-125100000D03*
X187865476Y-106825000D03*
X210975000Y-105850000D03*
X192865476Y-136825000D03*
X198000000Y-119100000D03*
X182865476Y-131825000D03*
X212900000Y-138700000D03*
X221300000Y-37100000D03*
X220860000Y-33790000D03*
X218700000Y-30300000D03*
X219950000Y-35850000D03*
X222200000Y-35700000D03*
X220850000Y-30150000D03*
X221609482Y-33359482D03*
X219850000Y-33780000D03*
X223300000Y-30150000D03*
X220600000Y-35260000D03*
X229350000Y-44450000D03*
X192865476Y-26825000D03*
X225000000Y-79600000D03*
X242200000Y-81825000D03*
X202865476Y-56825000D03*
X232865476Y-56825000D03*
X202865476Y-81825000D03*
X187865476Y-66825000D03*
X225050000Y-30400000D03*
X212865476Y-51825000D03*
X212865476Y-86825000D03*
X217865476Y-81825000D03*
X192865476Y-81825000D03*
X229750000Y-64000000D03*
X232865476Y-26825000D03*
X242200000Y-26825000D03*
X218100000Y-33450000D03*
X177600000Y-71825000D03*
X212865476Y-71825000D03*
X182865476Y-36825000D03*
X227865476Y-26825000D03*
X177600000Y-61825000D03*
X236800000Y-44550000D03*
X227200000Y-71600000D03*
X197865476Y-86825000D03*
X237865476Y-41825000D03*
X207865476Y-86825000D03*
X197865476Y-71825000D03*
X237865476Y-26825000D03*
X227865476Y-56825000D03*
X242200000Y-36825000D03*
X182865476Y-66825000D03*
X222865476Y-66825000D03*
X187865476Y-61825000D03*
X222865476Y-86825000D03*
X237865476Y-56825000D03*
X187865476Y-71825000D03*
X227865476Y-41825000D03*
X192865476Y-76825000D03*
X224100000Y-33400000D03*
X242200000Y-31825000D03*
X207865476Y-31825000D03*
X187865476Y-31825000D03*
X177600000Y-41825000D03*
X222865476Y-81825000D03*
X217865476Y-61825000D03*
X182865476Y-81825000D03*
X202865476Y-51825000D03*
X207865476Y-71825000D03*
X212865476Y-76825000D03*
X217865476Y-66825000D03*
X182865476Y-46825000D03*
X217865476Y-71825000D03*
X177600000Y-86825000D03*
X182865476Y-86825000D03*
X177600000Y-31825000D03*
X197865476Y-56825000D03*
X202865476Y-71825000D03*
X187865476Y-46825000D03*
X212865476Y-56825000D03*
X202865476Y-31825000D03*
X227865476Y-51825000D03*
X229750000Y-53100000D03*
X222865476Y-71825000D03*
X207865476Y-46825000D03*
X212865476Y-61825000D03*
X177600000Y-66825000D03*
X229100000Y-38150000D03*
X197865476Y-81825000D03*
X177600000Y-81825000D03*
X192865476Y-41825000D03*
X227865476Y-31825000D03*
X237865476Y-51825000D03*
X222600000Y-46950000D03*
X197865476Y-61825000D03*
X217865476Y-76825000D03*
X202865476Y-76825000D03*
X242200000Y-46825000D03*
X192865476Y-51825000D03*
X229400000Y-82500000D03*
X237865476Y-76825000D03*
X182865476Y-76825000D03*
X217865476Y-86825000D03*
X216950000Y-30400000D03*
X217865476Y-36825000D03*
X207865476Y-41825000D03*
X192865476Y-31825000D03*
X237865476Y-46825000D03*
X182865476Y-26825000D03*
X212865476Y-81825000D03*
X177600000Y-56825000D03*
X226000000Y-52100000D03*
X197865476Y-26825000D03*
X212865476Y-66825000D03*
X187865476Y-56825000D03*
X207865476Y-66825000D03*
X197865476Y-46825000D03*
X222865476Y-56825000D03*
X231150000Y-36350000D03*
X192865476Y-61825000D03*
X212865476Y-31825000D03*
X227150000Y-46600000D03*
X232865476Y-31825000D03*
X242200000Y-66825000D03*
X207865476Y-26825000D03*
X222865476Y-76825000D03*
X182865476Y-51825000D03*
X207865476Y-81825000D03*
X207865476Y-76825000D03*
X192865476Y-66825000D03*
X242200000Y-86825000D03*
X242200000Y-51825000D03*
X217865476Y-41825000D03*
X242200000Y-61825000D03*
X197865476Y-76825000D03*
X202865476Y-61825000D03*
X182865476Y-56825000D03*
X177600000Y-36825000D03*
X197865476Y-31825000D03*
X237865476Y-31825000D03*
X225800000Y-46950000D03*
X197865476Y-66825000D03*
X187865476Y-86825000D03*
X202865476Y-66825000D03*
X202865476Y-26825000D03*
X197865476Y-51825000D03*
X192865476Y-71825000D03*
X207865476Y-51825000D03*
X182865476Y-31825000D03*
X192865476Y-56825000D03*
X182865476Y-71825000D03*
X182865476Y-61825000D03*
X187865476Y-41825000D03*
X227200000Y-74600000D03*
X182865476Y-41825000D03*
X227865476Y-76825000D03*
X207865476Y-61825000D03*
X177600000Y-51825000D03*
X228000000Y-79700000D03*
X207865476Y-56825000D03*
X232865476Y-36825000D03*
X217865476Y-46825000D03*
X187865476Y-76825000D03*
X187865476Y-51825000D03*
X237865476Y-36825000D03*
X229100000Y-34500000D03*
X242200000Y-76825000D03*
X187865476Y-26825000D03*
X202865476Y-86825000D03*
X192865476Y-86825000D03*
X187865476Y-81825000D03*
X202865476Y-41825000D03*
X237865476Y-81825000D03*
X197865476Y-41825000D03*
X192865476Y-46825000D03*
X227950000Y-64000000D03*
X232200000Y-84850000D03*
X221600000Y-52100000D03*
X177600000Y-76825000D03*
X242200000Y-42800000D03*
X237865476Y-86825000D03*
X177600000Y-46825000D03*
X233330000Y-86050000D03*
X234200000Y-86050000D03*
X230800000Y-61900000D03*
X228953341Y-68431867D03*
X238980000Y-62230000D03*
X232000000Y-74300000D03*
X239500000Y-61700000D03*
X230800000Y-62710000D03*
X199500000Y-123000000D03*
X198604251Y-122993363D03*
X212200000Y-39700000D03*
X212200000Y-38900000D03*
X210100000Y-117900000D03*
X210600000Y-118400000D03*
X225900000Y-49050000D03*
X233450000Y-50150000D03*
X214400000Y-120250000D03*
D23*
X209840000Y-108200000D02*
X209840000Y-107627919D01*
D24*
X209450000Y-107050000D02*
X210050000Y-107050000D01*
D23*
X209840000Y-107627919D02*
X209841868Y-107626051D01*
D24*
X210050000Y-107050000D02*
X210580000Y-107580000D01*
X208497239Y-120262761D02*
X208510000Y-120250000D01*
X208510000Y-120250000D02*
X208510000Y-107990000D01*
X208510000Y-107990000D02*
X209450000Y-107050000D01*
X210580000Y-107580000D02*
X210580000Y-108255000D01*
X220560000Y-118235000D02*
X220560000Y-118680000D01*
X210580000Y-108255000D02*
X220560000Y-118235000D01*
D25*
X202800000Y-104300000D02*
X208100000Y-104300000D01*
X208100000Y-104300000D02*
X221275000Y-117475000D01*
X221275000Y-117475000D02*
X227825000Y-117475000D01*
X227825000Y-117475000D02*
X228800000Y-116500000D01*
D24*
X208160000Y-120600000D02*
X189900000Y-120600000D01*
D26*
X200445000Y-109225000D02*
X200400000Y-109225000D01*
X200445000Y-109225000D02*
X208500000Y-109225000D01*
X200160000Y-109225000D02*
X200445000Y-109225000D01*
D24*
X189900000Y-120600000D02*
X183400000Y-127100000D01*
D26*
X199350000Y-109225000D02*
X200160000Y-109225000D01*
D24*
X208497239Y-120262761D02*
X208160000Y-120600000D01*
X209868000Y-109468000D02*
X209832000Y-109468000D01*
X210355500Y-109468000D02*
X219590000Y-118702500D01*
X186390000Y-125010000D02*
X186390000Y-135310000D01*
X209868000Y-109468000D02*
X210355500Y-109468000D01*
X209840000Y-108200000D02*
X209840000Y-109440000D01*
X208700000Y-121200000D02*
X190200000Y-121200000D01*
X209300000Y-120600000D02*
X208700000Y-121200000D01*
D26*
X209840000Y-109440000D02*
X209868000Y-109468000D01*
D24*
X209832000Y-109468000D02*
X209300000Y-110000000D01*
X219590000Y-118702500D02*
X219590000Y-118878722D01*
X190200000Y-121200000D02*
X186390000Y-125010000D01*
X186390000Y-135310000D02*
X184050000Y-137650000D01*
X209300000Y-110000000D02*
X209300000Y-120600000D01*
X184050000Y-137650000D02*
X183400000Y-137650000D01*
D25*
X220400000Y-113900000D02*
X214300000Y-107800000D01*
X231030000Y-113900000D02*
X220400000Y-113900000D01*
X233630000Y-116500000D02*
X231030000Y-113900000D01*
X213500000Y-104500000D02*
X214300000Y-104500000D01*
X214300000Y-107800000D02*
X214300000Y-104500000D01*
X222600000Y-122100000D02*
X200400000Y-122100000D01*
X199500000Y-123000000D02*
X198610888Y-123000000D01*
X228800000Y-120310000D02*
X224390000Y-120310000D01*
X198610888Y-123000000D02*
X198604251Y-122993363D01*
X200400000Y-122100000D02*
X199500000Y-123000000D01*
X224390000Y-120310000D02*
X222600000Y-122100000D01*
X223000000Y-55900000D02*
X241200000Y-55900000D01*
X241060000Y-120310000D02*
X238460000Y-120310000D01*
X241200000Y-55900000D02*
X243200000Y-57900000D01*
X243200000Y-118170000D02*
X241060000Y-120310000D01*
X243200000Y-57900000D02*
X243200000Y-118170000D01*
X212200000Y-39700000D02*
X212200000Y-38900000D01*
X212200000Y-45100000D02*
X223000000Y-55900000D01*
X212200000Y-39700000D02*
X212200000Y-45100000D01*
X233630000Y-120310000D02*
X231720000Y-118400000D01*
X222400000Y-119600000D02*
X211800000Y-119600000D01*
X211800000Y-119600000D02*
X210100000Y-117900000D01*
X231720000Y-118400000D02*
X223600000Y-118400000D01*
X223600000Y-118400000D02*
X222400000Y-119600000D01*
G04 #@! TA.AperFunction,Conductor*
G36*
X243559191Y-24818907D02*
G01*
X243595155Y-24868407D01*
X243600000Y-24899000D01*
X243600000Y-57494600D01*
X243581093Y-57552791D01*
X243531593Y-57588755D01*
X243470407Y-57588755D01*
X243430996Y-57564604D01*
X241460916Y-55594523D01*
X241460909Y-55594516D01*
X241460905Y-55594513D01*
X241438342Y-55571950D01*
X241416846Y-55560998D01*
X241403605Y-55552883D01*
X241390395Y-55543285D01*
X241384090Y-55538704D01*
X241361143Y-55531248D01*
X241346797Y-55525305D01*
X241325304Y-55514354D01*
X241317611Y-55513136D01*
X241317609Y-55513135D01*
X241301481Y-55510581D01*
X241286380Y-55506956D01*
X241263433Y-55499500D01*
X223206900Y-55499500D01*
X223148709Y-55480593D01*
X223136896Y-55470504D01*
X217816393Y-50150000D01*
X232919965Y-50150000D01*
X232920812Y-50156433D01*
X232933947Y-50256198D01*
X232938026Y-50287183D01*
X232940509Y-50293177D01*
X232988491Y-50409019D01*
X232988493Y-50409023D01*
X232990976Y-50415017D01*
X233075209Y-50524791D01*
X233184982Y-50609024D01*
X233312817Y-50661974D01*
X233319246Y-50662820D01*
X233319248Y-50662821D01*
X233443567Y-50679188D01*
X233450000Y-50680035D01*
X233456433Y-50679188D01*
X233580752Y-50662821D01*
X233580754Y-50662820D01*
X233587183Y-50661974D01*
X233715018Y-50609024D01*
X233824791Y-50524791D01*
X233909024Y-50415017D01*
X233911507Y-50409023D01*
X233911509Y-50409019D01*
X233959491Y-50293177D01*
X233961974Y-50287183D01*
X233966054Y-50256198D01*
X233979188Y-50156433D01*
X233980035Y-50150000D01*
X233961974Y-50012817D01*
X233939885Y-49959488D01*
X233911509Y-49890981D01*
X233911507Y-49890977D01*
X233909024Y-49884983D01*
X233824791Y-49775209D01*
X233715018Y-49690976D01*
X233587183Y-49638026D01*
X233580754Y-49637180D01*
X233580752Y-49637179D01*
X233456433Y-49620812D01*
X233450000Y-49619965D01*
X233443567Y-49620812D01*
X233319248Y-49637179D01*
X233319246Y-49637180D01*
X233312817Y-49638026D01*
X233273592Y-49654273D01*
X233190981Y-49688491D01*
X233190977Y-49688493D01*
X233184983Y-49690976D01*
X233075209Y-49775209D01*
X232990976Y-49884983D01*
X232988493Y-49890977D01*
X232988491Y-49890981D01*
X232960115Y-49959488D01*
X232938026Y-50012817D01*
X232919965Y-50150000D01*
X217816393Y-50150000D01*
X216716393Y-49050000D01*
X225369965Y-49050000D01*
X225388026Y-49187183D01*
X225390509Y-49193177D01*
X225438491Y-49309019D01*
X225438493Y-49309023D01*
X225440976Y-49315017D01*
X225525209Y-49424791D01*
X225634982Y-49509024D01*
X225762817Y-49561974D01*
X225769246Y-49562820D01*
X225769248Y-49562821D01*
X225893567Y-49579188D01*
X225900000Y-49580035D01*
X225906433Y-49579188D01*
X226030752Y-49562821D01*
X226030754Y-49562820D01*
X226037183Y-49561974D01*
X226165018Y-49509024D01*
X226274791Y-49424791D01*
X226359024Y-49315017D01*
X226361507Y-49309023D01*
X226361509Y-49309019D01*
X226409491Y-49193177D01*
X226411974Y-49187183D01*
X226430035Y-49050000D01*
X226411974Y-48912817D01*
X226376246Y-48826560D01*
X226361509Y-48790981D01*
X226361507Y-48790977D01*
X226359024Y-48784983D01*
X226274791Y-48675209D01*
X226165018Y-48590976D01*
X226037183Y-48538026D01*
X226030754Y-48537180D01*
X226030752Y-48537179D01*
X225906433Y-48520812D01*
X225900000Y-48519965D01*
X225893567Y-48520812D01*
X225769248Y-48537179D01*
X225769246Y-48537180D01*
X225762817Y-48538026D01*
X225755077Y-48541232D01*
X225640981Y-48588491D01*
X225640977Y-48588493D01*
X225634983Y-48590976D01*
X225525209Y-48675209D01*
X225440976Y-48784983D01*
X225438493Y-48790977D01*
X225438491Y-48790981D01*
X225423754Y-48826560D01*
X225388026Y-48912817D01*
X225369965Y-49050000D01*
X216716393Y-49050000D01*
X212629496Y-44963103D01*
X212601719Y-44908586D01*
X212600500Y-44893099D01*
X212600500Y-40074893D01*
X212620958Y-40014626D01*
X212655073Y-39970166D01*
X212659024Y-39965017D01*
X212711974Y-39837183D01*
X212719371Y-39781003D01*
X217101840Y-39781003D01*
X217107918Y-40038892D01*
X217108573Y-40042585D01*
X217108573Y-40042590D01*
X217152277Y-40289191D01*
X217152279Y-40289198D01*
X217152934Y-40292895D01*
X217235853Y-40537165D01*
X217237589Y-40540506D01*
X217353032Y-40762746D01*
X217353036Y-40762752D01*
X217354766Y-40766083D01*
X217356980Y-40769114D01*
X217356984Y-40769120D01*
X217459250Y-40909104D01*
X217506937Y-40974380D01*
X217688865Y-41157263D01*
X217691884Y-41159493D01*
X217691890Y-41159498D01*
X217836566Y-41266356D01*
X217896362Y-41310522D01*
X218022504Y-41376889D01*
X218121327Y-41428883D01*
X218121332Y-41428885D01*
X218124654Y-41430633D01*
X218368487Y-41514829D01*
X218372183Y-41515504D01*
X218619127Y-41560605D01*
X218619133Y-41560606D01*
X218622250Y-41561175D01*
X218704780Y-41565500D01*
X218865599Y-41565500D01*
X218942228Y-41559671D01*
X219053464Y-41551210D01*
X219053470Y-41551209D01*
X219057218Y-41550924D01*
X219308516Y-41492676D01*
X219548112Y-41397087D01*
X219770493Y-41266356D01*
X219970540Y-41103492D01*
X220084996Y-40977043D01*
X220141128Y-40915030D01*
X220141131Y-40915026D01*
X220143651Y-40912242D01*
X220285841Y-40697008D01*
X220393839Y-40462743D01*
X220465159Y-40214838D01*
X220498160Y-39958997D01*
X220492082Y-39701108D01*
X220468713Y-39569248D01*
X220447723Y-39450809D01*
X220447721Y-39450802D01*
X220447066Y-39447105D01*
X220364147Y-39202835D01*
X220308896Y-39096473D01*
X220246968Y-38977254D01*
X220246964Y-38977248D01*
X220245234Y-38973917D01*
X220243020Y-38970886D01*
X220243016Y-38970880D01*
X220095280Y-38768655D01*
X220093063Y-38765620D01*
X219911135Y-38582737D01*
X219908116Y-38580507D01*
X219908110Y-38580502D01*
X219706668Y-38431716D01*
X219703638Y-38429478D01*
X219539106Y-38342913D01*
X219478673Y-38311117D01*
X219478668Y-38311115D01*
X219475346Y-38309367D01*
X219231513Y-38225171D01*
X219215798Y-38222301D01*
X218980873Y-38179395D01*
X218980867Y-38179394D01*
X218977750Y-38178825D01*
X218895220Y-38174500D01*
X218734401Y-38174500D01*
X218657772Y-38180329D01*
X218546536Y-38188790D01*
X218546530Y-38188791D01*
X218542782Y-38189076D01*
X218291484Y-38247324D01*
X218051888Y-38342913D01*
X217829507Y-38473644D01*
X217629460Y-38636508D01*
X217626940Y-38639292D01*
X217626938Y-38639294D01*
X217458872Y-38824970D01*
X217458869Y-38824974D01*
X217456349Y-38827758D01*
X217314159Y-39042992D01*
X217312584Y-39046409D01*
X217257905Y-39165017D01*
X217206161Y-39277257D01*
X217134841Y-39525162D01*
X217101840Y-39781003D01*
X212719371Y-39781003D01*
X212729188Y-39706433D01*
X212730035Y-39700000D01*
X212711974Y-39562817D01*
X212659024Y-39434983D01*
X212620958Y-39385374D01*
X212600500Y-39325107D01*
X212600500Y-39274893D01*
X212620958Y-39214626D01*
X212655073Y-39170166D01*
X212659024Y-39165017D01*
X212711974Y-39037183D01*
X212720304Y-38973917D01*
X212729188Y-38906433D01*
X212730035Y-38900000D01*
X212711974Y-38762817D01*
X212695727Y-38723592D01*
X212661509Y-38640981D01*
X212661507Y-38640977D01*
X212659024Y-38634983D01*
X212574791Y-38525209D01*
X212465018Y-38440976D01*
X212337183Y-38388026D01*
X212330754Y-38387180D01*
X212330752Y-38387179D01*
X212206433Y-38370812D01*
X212200000Y-38369965D01*
X212193567Y-38370812D01*
X212069248Y-38387179D01*
X212069246Y-38387180D01*
X212062817Y-38388026D01*
X212023592Y-38404273D01*
X211940981Y-38438491D01*
X211940977Y-38438493D01*
X211934983Y-38440976D01*
X211825209Y-38525209D01*
X211740976Y-38634983D01*
X211738493Y-38640977D01*
X211738491Y-38640981D01*
X211704273Y-38723592D01*
X211688026Y-38762817D01*
X211669965Y-38900000D01*
X211670812Y-38906433D01*
X211679697Y-38973917D01*
X211688026Y-39037183D01*
X211740976Y-39165017D01*
X211744927Y-39170166D01*
X211779042Y-39214626D01*
X211799500Y-39274893D01*
X211799500Y-39325107D01*
X211779042Y-39385374D01*
X211740976Y-39434983D01*
X211688026Y-39562817D01*
X211669965Y-39700000D01*
X211670812Y-39706433D01*
X211680630Y-39781003D01*
X211688026Y-39837183D01*
X211740976Y-39965017D01*
X211744927Y-39970166D01*
X211779042Y-40014626D01*
X211799500Y-40074893D01*
X211799500Y-45163433D01*
X211806955Y-45186375D01*
X211810581Y-45201481D01*
X211814354Y-45225304D01*
X211825305Y-45246797D01*
X211831248Y-45261143D01*
X211838704Y-45284090D01*
X211843285Y-45290395D01*
X211852883Y-45303605D01*
X211860998Y-45316846D01*
X211871950Y-45338342D01*
X211894513Y-45360905D01*
X211894516Y-45360909D01*
X222671950Y-56138342D01*
X222761658Y-56228050D01*
X222783156Y-56239004D01*
X222796386Y-56247111D01*
X222815910Y-56261296D01*
X222823320Y-56263704D01*
X222823321Y-56263704D01*
X222838855Y-56268751D01*
X222853204Y-56274695D01*
X222874696Y-56285646D01*
X222882392Y-56286865D01*
X222898524Y-56289420D01*
X222913627Y-56293046D01*
X222929157Y-56298092D01*
X222929160Y-56298093D01*
X222936567Y-56300499D01*
X222968477Y-56300499D01*
X222968481Y-56300500D01*
X240993099Y-56300500D01*
X241051290Y-56319407D01*
X241063103Y-56329496D01*
X242770504Y-58036896D01*
X242798281Y-58091413D01*
X242799500Y-58106900D01*
X242799500Y-87901000D01*
X242780593Y-87959191D01*
X242731093Y-87995155D01*
X242700500Y-88000000D01*
X175499000Y-88000000D01*
X175440809Y-87981093D01*
X175404845Y-87931593D01*
X175400000Y-87901000D01*
X175400000Y-85500000D01*
X227344723Y-85500000D01*
X227363793Y-85717977D01*
X227420425Y-85929330D01*
X227512898Y-86127638D01*
X227638402Y-86306877D01*
X227793123Y-86461598D01*
X227820842Y-86481007D01*
X227958327Y-86577275D01*
X227972361Y-86587102D01*
X228170670Y-86679575D01*
X228257220Y-86702766D01*
X228377846Y-86735088D01*
X228377848Y-86735088D01*
X228382023Y-86736207D01*
X228600000Y-86755277D01*
X228817977Y-86736207D01*
X228822152Y-86735088D01*
X228822154Y-86735088D01*
X228942780Y-86702766D01*
X229029330Y-86679575D01*
X229227639Y-86587102D01*
X229241674Y-86577275D01*
X229379158Y-86481007D01*
X229406877Y-86461598D01*
X229561598Y-86306877D01*
X229687102Y-86127638D01*
X229779575Y-85929330D01*
X229836207Y-85717977D01*
X229855277Y-85500000D01*
X229836207Y-85282023D01*
X229779575Y-85070670D01*
X229687102Y-84872362D01*
X229561598Y-84693123D01*
X229406877Y-84538402D01*
X229227639Y-84412898D01*
X229029330Y-84320425D01*
X228942780Y-84297234D01*
X228822154Y-84264912D01*
X228822152Y-84264912D01*
X228817977Y-84263793D01*
X228600000Y-84244723D01*
X228382023Y-84263793D01*
X228377848Y-84264912D01*
X228377846Y-84264912D01*
X228257220Y-84297234D01*
X228170670Y-84320425D01*
X227972362Y-84412898D01*
X227793123Y-84538402D01*
X227638402Y-84693123D01*
X227512898Y-84872362D01*
X227420425Y-85070670D01*
X227363793Y-85282023D01*
X227344723Y-85500000D01*
X175400000Y-85500000D01*
X175400000Y-82555000D01*
X225600000Y-82555000D01*
X227400000Y-82555000D01*
X227400000Y-80355000D01*
X225600000Y-80355000D01*
X225600000Y-82555000D01*
X175400000Y-82555000D01*
X175400000Y-60839945D01*
X227359051Y-60839945D01*
X227658953Y-63419098D01*
X227660093Y-63427641D01*
X227661088Y-63434247D01*
X227689198Y-63518103D01*
X227718392Y-63571874D01*
X227720071Y-63574250D01*
X227720073Y-63574253D01*
X227748560Y-63614563D01*
X227748562Y-63614565D01*
X227753058Y-63620927D01*
X227832936Y-63680574D01*
X227888161Y-63706915D01*
X227891886Y-63708018D01*
X227891890Y-63708020D01*
X227958226Y-63727670D01*
X227964806Y-63729619D01*
X227987505Y-63732607D01*
X228007562Y-63735248D01*
X228032525Y-63741937D01*
X228074122Y-63759167D01*
X228096504Y-63772089D01*
X228132229Y-63799502D01*
X228150503Y-63817777D01*
X228177908Y-63853492D01*
X228190830Y-63875873D01*
X228208063Y-63917477D01*
X228214752Y-63942440D01*
X228220629Y-63987077D01*
X228220629Y-64012923D01*
X228214752Y-64057560D01*
X228208063Y-64082523D01*
X228190830Y-64124127D01*
X228177909Y-64146507D01*
X228150504Y-64182223D01*
X228132229Y-64200498D01*
X228096505Y-64227910D01*
X228074124Y-64240832D01*
X228068745Y-64243060D01*
X228020390Y-64263089D01*
X228020387Y-64263091D01*
X228016586Y-64264665D01*
X227944843Y-64309552D01*
X227896450Y-64352465D01*
X227894385Y-64354828D01*
X227894379Y-64354834D01*
X227859097Y-64395207D01*
X227853817Y-64401249D01*
X227815479Y-64493274D01*
X227814521Y-64498037D01*
X227814520Y-64498042D01*
X227811621Y-64512466D01*
X227803420Y-64553260D01*
X227803056Y-64562065D01*
X227801441Y-64601151D01*
X227800119Y-64633126D01*
X227800568Y-64636987D01*
X227800568Y-64636989D01*
X228806681Y-73289565D01*
X228794622Y-73349551D01*
X228749607Y-73390991D01*
X228708344Y-73400000D01*
X228000000Y-73400000D01*
X228000000Y-75200000D01*
X228947705Y-75200000D01*
X229005896Y-75218907D01*
X229041860Y-75268407D01*
X229046621Y-75303087D01*
X229045098Y-75339945D01*
X229264116Y-77223499D01*
X229270370Y-77277283D01*
X229374775Y-78175168D01*
X229377952Y-78202491D01*
X229484833Y-79121674D01*
X229498259Y-79237134D01*
X230149417Y-84837077D01*
X230150919Y-84849998D01*
X230150919Y-84850000D01*
X230154350Y-84879510D01*
X230334877Y-86432039D01*
X230336035Y-86442002D01*
X230340188Y-86466911D01*
X230344351Y-86486008D01*
X230346443Y-86490677D01*
X230375559Y-86555674D01*
X230387188Y-86581635D01*
X230423120Y-86631158D01*
X230425092Y-86633294D01*
X230458574Y-86669563D01*
X230458577Y-86669565D01*
X230463859Y-86675287D01*
X230550807Y-86724055D01*
X230580975Y-86733879D01*
X230605289Y-86741797D01*
X230605292Y-86741798D01*
X230608984Y-86743000D01*
X230612821Y-86743610D01*
X230612824Y-86743611D01*
X230637560Y-86747545D01*
X230687932Y-86755557D01*
X230691819Y-86755560D01*
X230691825Y-86755560D01*
X234919055Y-86758286D01*
X234919660Y-86758286D01*
X234920241Y-86758271D01*
X234920252Y-86758271D01*
X234932417Y-86757960D01*
X234932439Y-86757959D01*
X234933031Y-86757944D01*
X234943387Y-86757408D01*
X234947792Y-86756353D01*
X234947794Y-86756353D01*
X235029566Y-86736774D01*
X235029569Y-86736773D01*
X235033971Y-86735719D01*
X235038107Y-86733880D01*
X235038111Y-86733879D01*
X235087215Y-86712049D01*
X235089881Y-86710864D01*
X235141513Y-86680186D01*
X235207287Y-86605273D01*
X235237910Y-86552303D01*
X235266600Y-86477689D01*
X235273798Y-86443922D01*
X239415460Y-86443922D01*
X239415558Y-86444544D01*
X239420385Y-86450097D01*
X239469067Y-86484185D01*
X239476537Y-86488497D01*
X239666922Y-86577275D01*
X239675015Y-86580221D01*
X239877944Y-86634595D01*
X239886412Y-86636088D01*
X240095691Y-86654398D01*
X240104309Y-86654398D01*
X240313588Y-86636088D01*
X240322056Y-86634595D01*
X240524985Y-86580221D01*
X240533078Y-86577275D01*
X240723463Y-86488497D01*
X240730933Y-86484185D01*
X240776728Y-86452119D01*
X240784754Y-86441467D01*
X240784766Y-86440835D01*
X240780978Y-86434531D01*
X240111086Y-85764639D01*
X240099203Y-85758585D01*
X240094172Y-85759381D01*
X239421514Y-86432039D01*
X239415460Y-86443922D01*
X235273798Y-86443922D01*
X235495396Y-85404309D01*
X238845602Y-85404309D01*
X238863912Y-85613588D01*
X238865405Y-85622056D01*
X238919779Y-85824985D01*
X238922725Y-85833078D01*
X239011503Y-86023462D01*
X239015815Y-86030932D01*
X239047881Y-86076727D01*
X239058534Y-86084754D01*
X239059164Y-86084765D01*
X239065470Y-86080977D01*
X239735361Y-85411086D01*
X239740603Y-85400797D01*
X240458585Y-85400797D01*
X240459381Y-85405828D01*
X241132039Y-86078486D01*
X241143922Y-86084540D01*
X241144544Y-86084442D01*
X241150097Y-86079615D01*
X241184185Y-86030932D01*
X241188497Y-86023462D01*
X241277275Y-85833078D01*
X241280221Y-85824985D01*
X241334595Y-85622056D01*
X241336088Y-85613588D01*
X241354398Y-85404309D01*
X241354398Y-85395691D01*
X241336088Y-85186412D01*
X241334595Y-85177944D01*
X241280221Y-84975015D01*
X241277275Y-84966922D01*
X241188497Y-84776538D01*
X241184185Y-84769068D01*
X241152119Y-84723273D01*
X241141466Y-84715246D01*
X241140836Y-84715235D01*
X241134530Y-84719023D01*
X240464639Y-85388914D01*
X240458585Y-85400797D01*
X239740603Y-85400797D01*
X239741415Y-85399203D01*
X239740619Y-85394172D01*
X239067961Y-84721514D01*
X239056078Y-84715460D01*
X239055456Y-84715558D01*
X239049903Y-84720385D01*
X239015815Y-84769068D01*
X239011503Y-84776538D01*
X238922725Y-84966922D01*
X238919779Y-84975015D01*
X238865405Y-85177944D01*
X238863912Y-85186412D01*
X238845602Y-85395691D01*
X238845602Y-85404309D01*
X235495396Y-85404309D01*
X235718174Y-84359164D01*
X239415235Y-84359164D01*
X239419023Y-84365470D01*
X240088914Y-85035361D01*
X240100797Y-85041415D01*
X240105828Y-85040619D01*
X240778486Y-84367961D01*
X240784540Y-84356078D01*
X240784442Y-84355456D01*
X240779615Y-84349903D01*
X240730933Y-84315815D01*
X240723463Y-84311503D01*
X240533078Y-84222725D01*
X240524985Y-84219779D01*
X240322056Y-84165405D01*
X240313588Y-84163912D01*
X240104309Y-84145602D01*
X240095691Y-84145602D01*
X239886412Y-84163912D01*
X239877944Y-84165405D01*
X239675015Y-84219779D01*
X239666922Y-84222725D01*
X239476538Y-84311503D01*
X239469068Y-84315815D01*
X239423273Y-84347881D01*
X239415246Y-84358534D01*
X239415235Y-84359164D01*
X235718174Y-84359164D01*
X237931678Y-73974674D01*
X238949500Y-73974674D01*
X238964034Y-74047740D01*
X239019399Y-74130601D01*
X239102260Y-74185966D01*
X239175326Y-74200500D01*
X240924674Y-74200500D01*
X240997740Y-74185966D01*
X241080601Y-74130601D01*
X241135966Y-74047740D01*
X241150500Y-73974674D01*
X241150500Y-72225326D01*
X241135966Y-72152260D01*
X241080601Y-72069399D01*
X240997740Y-72014034D01*
X240924674Y-71999500D01*
X239175326Y-71999500D01*
X239102260Y-72014034D01*
X239019399Y-72069399D01*
X238964034Y-72152260D01*
X238949500Y-72225326D01*
X238949500Y-73974674D01*
X237931678Y-73974674D01*
X238665699Y-70531069D01*
X238945164Y-70531069D01*
X238958392Y-70732894D01*
X239008178Y-70928928D01*
X239092856Y-71112607D01*
X239209588Y-71277780D01*
X239354466Y-71418913D01*
X239522637Y-71531282D01*
X239708470Y-71611122D01*
X239905740Y-71655760D01*
X240107842Y-71663700D01*
X240161377Y-71655938D01*
X240303519Y-71635329D01*
X240303522Y-71635328D01*
X240308007Y-71634678D01*
X240403769Y-71602171D01*
X240495234Y-71571123D01*
X240495237Y-71571121D01*
X240499531Y-71569664D01*
X240676001Y-71470837D01*
X240831505Y-71341505D01*
X240960837Y-71186001D01*
X241059664Y-71009531D01*
X241124678Y-70818007D01*
X241153700Y-70617842D01*
X241155215Y-70560000D01*
X241136708Y-70358591D01*
X241081807Y-70163926D01*
X240992351Y-69982527D01*
X240871335Y-69820467D01*
X240722812Y-69683174D01*
X240700125Y-69668859D01*
X240555594Y-69577667D01*
X240551757Y-69575246D01*
X240363898Y-69500298D01*
X240165526Y-69460839D01*
X240065930Y-69459535D01*
X239967826Y-69458251D01*
X239967821Y-69458251D01*
X239963286Y-69458192D01*
X239958813Y-69458961D01*
X239958808Y-69458961D01*
X239860245Y-69475898D01*
X239763949Y-69492444D01*
X239574193Y-69562449D01*
X239400371Y-69665862D01*
X239396956Y-69668857D01*
X239396953Y-69668859D01*
X239380630Y-69683174D01*
X239248305Y-69799220D01*
X239123089Y-69958057D01*
X239028914Y-70137053D01*
X238968937Y-70330213D01*
X238945164Y-70531069D01*
X238665699Y-70531069D01*
X239038520Y-68782009D01*
X239069142Y-68729040D01*
X239125052Y-68704185D01*
X239184893Y-68716941D01*
X239209092Y-68737078D01*
X239209588Y-68737780D01*
X239354466Y-68878913D01*
X239522637Y-68991282D01*
X239708470Y-69071122D01*
X239905740Y-69115760D01*
X240107842Y-69123700D01*
X240161377Y-69115938D01*
X240303519Y-69095329D01*
X240303522Y-69095328D01*
X240308007Y-69094678D01*
X240403769Y-69062171D01*
X240495234Y-69031123D01*
X240495237Y-69031121D01*
X240499531Y-69029664D01*
X240676001Y-68930837D01*
X240831505Y-68801505D01*
X240960837Y-68646001D01*
X241059664Y-68469531D01*
X241124678Y-68278007D01*
X241153700Y-68077842D01*
X241155215Y-68020000D01*
X241136708Y-67818591D01*
X241081807Y-67623926D01*
X240992351Y-67442527D01*
X240871335Y-67280467D01*
X240722812Y-67143174D01*
X240710479Y-67135392D01*
X240555594Y-67037667D01*
X240551757Y-67035246D01*
X240363898Y-66960298D01*
X240165526Y-66920839D01*
X240065930Y-66919535D01*
X239967826Y-66918251D01*
X239967821Y-66918251D01*
X239963286Y-66918192D01*
X239958813Y-66918961D01*
X239958808Y-66918961D01*
X239860245Y-66935898D01*
X239763949Y-66952444D01*
X239691198Y-66979283D01*
X239578453Y-67020877D01*
X239578449Y-67020879D01*
X239574193Y-67022449D01*
X239574059Y-67022087D01*
X239515964Y-67029739D01*
X239462192Y-67000548D01*
X239435847Y-66945325D01*
X239437174Y-66911757D01*
X239509235Y-66573689D01*
X239539858Y-66520719D01*
X239595768Y-66495864D01*
X239645140Y-66503368D01*
X239704451Y-66528850D01*
X239713057Y-66531647D01*
X239784705Y-66547859D01*
X239797603Y-66546674D01*
X239799533Y-66539654D01*
X240300000Y-66539654D01*
X240304122Y-66552339D01*
X240305292Y-66553190D01*
X240308970Y-66553503D01*
X240312192Y-66552730D01*
X240495026Y-66490666D01*
X240503288Y-66486988D01*
X240671755Y-66392641D01*
X240679209Y-66387518D01*
X240827650Y-66264061D01*
X240834061Y-66257650D01*
X240957518Y-66109209D01*
X240962641Y-66101755D01*
X241056988Y-65933288D01*
X241060666Y-65925026D01*
X241122586Y-65742617D01*
X241120825Y-65732372D01*
X241119790Y-65731363D01*
X241113943Y-65730000D01*
X240315680Y-65730000D01*
X240302995Y-65734122D01*
X240300000Y-65738243D01*
X240300000Y-66539654D01*
X239799533Y-66539654D01*
X239800000Y-66537956D01*
X239800000Y-65214320D01*
X240300000Y-65214320D01*
X240304122Y-65227005D01*
X240308243Y-65230000D01*
X241106804Y-65230000D01*
X241118294Y-65226267D01*
X241118498Y-65215866D01*
X241082571Y-65088478D01*
X241079330Y-65080035D01*
X240993928Y-64906855D01*
X240989209Y-64899154D01*
X240873678Y-64744440D01*
X240867629Y-64737722D01*
X240725837Y-64606650D01*
X240718670Y-64601151D01*
X240555369Y-64498117D01*
X240547315Y-64494013D01*
X240367967Y-64422459D01*
X240359307Y-64419894D01*
X240315379Y-64411157D01*
X240302132Y-64412725D01*
X240302100Y-64412755D01*
X240300000Y-64420802D01*
X240300000Y-65214320D01*
X239800000Y-65214320D01*
X239800000Y-64716033D01*
X239818907Y-64657842D01*
X239833394Y-64641892D01*
X239834976Y-64640492D01*
X239840130Y-64636978D01*
X239905904Y-64562065D01*
X239936527Y-64509095D01*
X239965217Y-64434481D01*
X240724384Y-60872903D01*
X240729652Y-60806341D01*
X240726982Y-60755109D01*
X240720268Y-60708761D01*
X240678532Y-60618227D01*
X240642568Y-60568727D01*
X240640598Y-60566596D01*
X240640594Y-60566591D01*
X240607088Y-60530345D01*
X240607086Y-60530343D01*
X240601797Y-60524622D01*
X240514816Y-60475912D01*
X240456625Y-60457005D01*
X240402996Y-60448511D01*
X240381519Y-60445109D01*
X240381517Y-60445109D01*
X240377673Y-60444500D01*
X227711178Y-60444500D01*
X227685859Y-60447232D01*
X227659327Y-60450094D01*
X227659323Y-60450095D01*
X227656678Y-60450380D01*
X227615415Y-60459389D01*
X227605495Y-60462276D01*
X227588267Y-60467289D01*
X227588265Y-60467290D01*
X227581973Y-60469121D01*
X227496866Y-60521035D01*
X227493283Y-60524333D01*
X227493281Y-60524335D01*
X227486753Y-60530345D01*
X227451851Y-60562476D01*
X227449954Y-60564687D01*
X227449950Y-60564692D01*
X227417823Y-60602152D01*
X227417821Y-60602155D01*
X227412750Y-60608068D01*
X227374412Y-60700093D01*
X227373454Y-60704857D01*
X227373453Y-60704861D01*
X227363805Y-60752852D01*
X227362353Y-60760077D01*
X227359051Y-60839945D01*
X175400000Y-60839945D01*
X175400000Y-48246712D01*
X178570008Y-48246712D01*
X178595775Y-48541232D01*
X178596491Y-48544434D01*
X178651601Y-48790981D01*
X178660268Y-48829757D01*
X178762354Y-49107218D01*
X178763884Y-49110119D01*
X178898711Y-49365844D01*
X178898715Y-49365851D01*
X178900239Y-49368741D01*
X179071501Y-49609729D01*
X179273131Y-49825951D01*
X179275667Y-49828034D01*
X179275668Y-49828035D01*
X179499047Y-50011521D01*
X179499052Y-50011525D01*
X179501586Y-50013606D01*
X179510686Y-50019248D01*
X179731943Y-50156433D01*
X179752853Y-50169398D01*
X179755850Y-50170745D01*
X179755854Y-50170747D01*
X179914971Y-50242257D01*
X180022517Y-50290590D01*
X180305840Y-50375052D01*
X180309081Y-50375565D01*
X180309084Y-50375566D01*
X180397510Y-50389571D01*
X180597846Y-50421301D01*
X180668014Y-50424487D01*
X180689209Y-50425450D01*
X180689215Y-50425450D01*
X180690313Y-50425500D01*
X180874991Y-50425500D01*
X181094995Y-50410887D01*
X181241637Y-50381319D01*
X181381581Y-50353102D01*
X181381586Y-50353101D01*
X181384808Y-50352451D01*
X181561738Y-50291529D01*
X181661234Y-50257270D01*
X181661240Y-50257268D01*
X181664346Y-50256198D01*
X181928699Y-50123820D01*
X182173221Y-49957643D01*
X182320511Y-49825951D01*
X182391168Y-49762777D01*
X182391172Y-49762773D01*
X182393618Y-49760586D01*
X182449895Y-49694927D01*
X182499390Y-49637179D01*
X182586016Y-49536111D01*
X182747036Y-49288162D01*
X182792139Y-49193177D01*
X182872442Y-49024058D01*
X182873849Y-49021095D01*
X182964226Y-48739602D01*
X183016580Y-48448629D01*
X183025749Y-48246712D01*
X200570008Y-48246712D01*
X200595775Y-48541232D01*
X200596491Y-48544434D01*
X200651601Y-48790981D01*
X200660268Y-48829757D01*
X200762354Y-49107218D01*
X200763884Y-49110119D01*
X200898711Y-49365844D01*
X200898715Y-49365851D01*
X200900239Y-49368741D01*
X201071501Y-49609729D01*
X201273131Y-49825951D01*
X201275667Y-49828034D01*
X201275668Y-49828035D01*
X201499047Y-50011521D01*
X201499052Y-50011525D01*
X201501586Y-50013606D01*
X201510686Y-50019248D01*
X201731943Y-50156433D01*
X201752853Y-50169398D01*
X201755850Y-50170745D01*
X201755854Y-50170747D01*
X201914971Y-50242257D01*
X202022517Y-50290590D01*
X202305840Y-50375052D01*
X202309081Y-50375565D01*
X202309084Y-50375566D01*
X202397510Y-50389571D01*
X202597846Y-50421301D01*
X202668014Y-50424487D01*
X202689209Y-50425450D01*
X202689215Y-50425450D01*
X202690313Y-50425500D01*
X202874991Y-50425500D01*
X203094995Y-50410887D01*
X203241637Y-50381319D01*
X203381581Y-50353102D01*
X203381586Y-50353101D01*
X203384808Y-50352451D01*
X203561738Y-50291529D01*
X203661234Y-50257270D01*
X203661240Y-50257268D01*
X203664346Y-50256198D01*
X203928699Y-50123820D01*
X204173221Y-49957643D01*
X204320511Y-49825951D01*
X204391168Y-49762777D01*
X204391172Y-49762773D01*
X204393618Y-49760586D01*
X204449895Y-49694927D01*
X204499390Y-49637179D01*
X204586016Y-49536111D01*
X204747036Y-49288162D01*
X204792139Y-49193177D01*
X204872442Y-49024058D01*
X204873849Y-49021095D01*
X204964226Y-48739602D01*
X205016580Y-48448629D01*
X205029992Y-48153288D01*
X205004225Y-47858768D01*
X204939732Y-47570243D01*
X204837646Y-47292782D01*
X204743806Y-47114798D01*
X204701289Y-47034156D01*
X204701285Y-47034149D01*
X204699761Y-47031259D01*
X204528499Y-46790271D01*
X204326869Y-46574049D01*
X204169207Y-46444544D01*
X204100953Y-46388479D01*
X204100948Y-46388475D01*
X204098414Y-46386394D01*
X203847147Y-46230602D01*
X203844150Y-46229255D01*
X203844146Y-46229253D01*
X203657286Y-46145275D01*
X203577483Y-46109410D01*
X203294160Y-46024948D01*
X203290919Y-46024435D01*
X203290916Y-46024434D01*
X203202490Y-46010429D01*
X203002154Y-45978699D01*
X202931986Y-45975513D01*
X202910791Y-45974550D01*
X202910785Y-45974550D01*
X202909687Y-45974500D01*
X202725009Y-45974500D01*
X202505005Y-45989113D01*
X202358363Y-46018681D01*
X202218419Y-46046898D01*
X202218414Y-46046899D01*
X202215192Y-46047549D01*
X202212075Y-46048622D01*
X202212076Y-46048622D01*
X201938766Y-46142730D01*
X201938760Y-46142732D01*
X201935654Y-46143802D01*
X201671301Y-46276180D01*
X201426779Y-46442357D01*
X201424333Y-46444544D01*
X201208832Y-46637223D01*
X201208828Y-46637227D01*
X201206382Y-46639414D01*
X201013984Y-46863889D01*
X200852964Y-47111838D01*
X200726151Y-47378905D01*
X200635774Y-47660398D01*
X200583420Y-47951371D01*
X200570008Y-48246712D01*
X183025749Y-48246712D01*
X183029992Y-48153288D01*
X183004225Y-47858768D01*
X182939732Y-47570243D01*
X182837646Y-47292782D01*
X182743806Y-47114798D01*
X182701289Y-47034156D01*
X182701285Y-47034149D01*
X182699761Y-47031259D01*
X182528499Y-46790271D01*
X182326869Y-46574049D01*
X182169207Y-46444544D01*
X182100953Y-46388479D01*
X182100948Y-46388475D01*
X182098414Y-46386394D01*
X181847147Y-46230602D01*
X181844150Y-46229255D01*
X181844146Y-46229253D01*
X181657286Y-46145275D01*
X181577483Y-46109410D01*
X181294160Y-46024948D01*
X181290919Y-46024435D01*
X181290916Y-46024434D01*
X181202490Y-46010429D01*
X181002154Y-45978699D01*
X180931986Y-45975513D01*
X180910791Y-45974550D01*
X180910785Y-45974550D01*
X180909687Y-45974500D01*
X180725009Y-45974500D01*
X180505005Y-45989113D01*
X180358363Y-46018681D01*
X180218419Y-46046898D01*
X180218414Y-46046899D01*
X180215192Y-46047549D01*
X180212075Y-46048622D01*
X180212076Y-46048622D01*
X179938766Y-46142730D01*
X179938760Y-46142732D01*
X179935654Y-46143802D01*
X179671301Y-46276180D01*
X179426779Y-46442357D01*
X179424333Y-46444544D01*
X179208832Y-46637223D01*
X179208828Y-46637227D01*
X179206382Y-46639414D01*
X179013984Y-46863889D01*
X178852964Y-47111838D01*
X178726151Y-47378905D01*
X178635774Y-47660398D01*
X178583420Y-47951371D01*
X178570008Y-48246712D01*
X175400000Y-48246712D01*
X175400000Y-37100000D01*
X220769965Y-37100000D01*
X220788026Y-37237183D01*
X220790509Y-37243177D01*
X220838491Y-37359019D01*
X220838493Y-37359023D01*
X220840976Y-37365017D01*
X220925209Y-37474791D01*
X221034982Y-37559024D01*
X221162817Y-37611974D01*
X221169246Y-37612820D01*
X221169248Y-37612821D01*
X221293567Y-37629188D01*
X221300000Y-37630035D01*
X221306433Y-37629188D01*
X221430752Y-37612821D01*
X221430754Y-37612820D01*
X221437183Y-37611974D01*
X221565018Y-37559024D01*
X221674791Y-37474791D01*
X221759024Y-37365017D01*
X221761507Y-37359023D01*
X221761509Y-37359019D01*
X221809491Y-37243177D01*
X221811974Y-37237183D01*
X221830035Y-37100000D01*
X221811974Y-36962817D01*
X221795727Y-36923592D01*
X221761509Y-36840981D01*
X221761507Y-36840977D01*
X221759024Y-36834983D01*
X221674791Y-36725209D01*
X221565018Y-36640976D01*
X221437183Y-36588026D01*
X221430754Y-36587180D01*
X221430752Y-36587179D01*
X221306433Y-36570812D01*
X221300000Y-36569965D01*
X221293567Y-36570812D01*
X221169248Y-36587179D01*
X221169246Y-36587180D01*
X221162817Y-36588026D01*
X221123592Y-36604273D01*
X221040981Y-36638491D01*
X221040977Y-36638493D01*
X221034983Y-36640976D01*
X220925209Y-36725209D01*
X220840976Y-36834983D01*
X220838493Y-36840977D01*
X220838491Y-36840981D01*
X220804273Y-36923592D01*
X220788026Y-36962817D01*
X220769965Y-37100000D01*
X175400000Y-37100000D01*
X175400000Y-35850000D01*
X219419965Y-35850000D01*
X219420812Y-35856433D01*
X219435786Y-35970166D01*
X219438026Y-35987183D01*
X219440509Y-35993177D01*
X219488491Y-36109019D01*
X219488493Y-36109023D01*
X219490976Y-36115017D01*
X219575209Y-36224791D01*
X219684982Y-36309024D01*
X219812817Y-36361974D01*
X219819246Y-36362820D01*
X219819248Y-36362821D01*
X219943567Y-36379188D01*
X219950000Y-36380035D01*
X219956433Y-36379188D01*
X220080752Y-36362821D01*
X220080754Y-36362820D01*
X220087183Y-36361974D01*
X220215018Y-36309024D01*
X220324791Y-36224791D01*
X220409024Y-36115017D01*
X220411507Y-36109023D01*
X220411509Y-36109019D01*
X220459491Y-35993177D01*
X220461974Y-35987183D01*
X220476917Y-35873684D01*
X220503258Y-35818459D01*
X220557029Y-35789265D01*
X220587991Y-35788454D01*
X220600000Y-35790035D01*
X220606433Y-35789188D01*
X220612009Y-35788454D01*
X220624822Y-35786767D01*
X220730752Y-35772821D01*
X220730754Y-35772820D01*
X220737183Y-35771974D01*
X220865018Y-35719024D01*
X220889810Y-35700000D01*
X221669965Y-35700000D01*
X221670812Y-35706433D01*
X221681819Y-35790035D01*
X221688026Y-35837183D01*
X221693335Y-35850000D01*
X221738491Y-35959019D01*
X221738493Y-35959023D01*
X221740976Y-35965017D01*
X221825209Y-36074791D01*
X221934982Y-36159024D01*
X222062817Y-36211974D01*
X222069246Y-36212820D01*
X222069248Y-36212821D01*
X222193567Y-36229188D01*
X222200000Y-36230035D01*
X222206433Y-36229188D01*
X222330752Y-36212821D01*
X222330754Y-36212820D01*
X222337183Y-36211974D01*
X222465018Y-36159024D01*
X222574791Y-36074791D01*
X222598478Y-36043922D01*
X225315460Y-36043922D01*
X225315558Y-36044544D01*
X225320385Y-36050097D01*
X225369067Y-36084185D01*
X225376537Y-36088497D01*
X225566922Y-36177275D01*
X225575015Y-36180221D01*
X225777944Y-36234595D01*
X225786412Y-36236088D01*
X225995691Y-36254398D01*
X226004309Y-36254398D01*
X226213588Y-36236088D01*
X226222056Y-36234595D01*
X226424985Y-36180221D01*
X226433078Y-36177275D01*
X226623463Y-36088497D01*
X226630933Y-36084185D01*
X226676728Y-36052119D01*
X226684754Y-36041467D01*
X226684766Y-36040835D01*
X226680978Y-36034531D01*
X226011086Y-35364639D01*
X225999203Y-35358585D01*
X225994172Y-35359381D01*
X225321514Y-36032039D01*
X225315460Y-36043922D01*
X222598478Y-36043922D01*
X222659024Y-35965017D01*
X222661507Y-35959023D01*
X222661509Y-35959019D01*
X222706665Y-35850000D01*
X222711974Y-35837183D01*
X222718182Y-35790035D01*
X222729188Y-35706433D01*
X222730035Y-35700000D01*
X222715682Y-35590981D01*
X222712821Y-35569248D01*
X222712820Y-35569246D01*
X222711974Y-35562817D01*
X222694293Y-35520131D01*
X222661509Y-35440981D01*
X222661507Y-35440977D01*
X222659024Y-35434983D01*
X222583976Y-35337179D01*
X222578742Y-35330358D01*
X222574791Y-35325209D01*
X222465018Y-35240976D01*
X222337183Y-35188026D01*
X222330754Y-35187180D01*
X222330752Y-35187179D01*
X222206433Y-35170812D01*
X222200000Y-35169965D01*
X222193567Y-35170812D01*
X222069248Y-35187179D01*
X222069246Y-35187180D01*
X222062817Y-35188026D01*
X222041654Y-35196792D01*
X221940981Y-35238491D01*
X221940977Y-35238493D01*
X221934983Y-35240976D01*
X221825209Y-35325209D01*
X221821258Y-35330358D01*
X221816024Y-35337179D01*
X221740976Y-35434983D01*
X221738493Y-35440977D01*
X221738491Y-35440981D01*
X221705707Y-35520131D01*
X221688026Y-35562817D01*
X221687180Y-35569246D01*
X221687179Y-35569248D01*
X221684318Y-35590981D01*
X221669965Y-35700000D01*
X220889810Y-35700000D01*
X220974791Y-35634791D01*
X221059024Y-35525017D01*
X221061507Y-35519023D01*
X221061509Y-35519019D01*
X221109491Y-35403177D01*
X221111974Y-35397183D01*
X221113119Y-35388491D01*
X221129188Y-35266433D01*
X221130035Y-35260000D01*
X221118293Y-35170812D01*
X221112821Y-35129248D01*
X221112820Y-35129246D01*
X221111974Y-35122817D01*
X221066987Y-35014207D01*
X221062887Y-35004309D01*
X224745602Y-35004309D01*
X224763912Y-35213588D01*
X224765405Y-35222056D01*
X224819779Y-35424985D01*
X224822725Y-35433078D01*
X224911503Y-35623462D01*
X224915815Y-35630932D01*
X224947881Y-35676727D01*
X224958534Y-35684754D01*
X224959164Y-35684765D01*
X224965470Y-35680977D01*
X225635361Y-35011086D01*
X225640603Y-35000797D01*
X226358585Y-35000797D01*
X226359381Y-35005828D01*
X227032039Y-35678486D01*
X227043922Y-35684540D01*
X227044544Y-35684442D01*
X227050097Y-35679615D01*
X227084185Y-35630932D01*
X227088497Y-35623462D01*
X227177275Y-35433078D01*
X227180221Y-35424985D01*
X227234595Y-35222056D01*
X227236088Y-35213588D01*
X227254398Y-35004309D01*
X227254398Y-34995691D01*
X227236088Y-34786412D01*
X227234595Y-34777944D01*
X227185843Y-34595996D01*
X233495814Y-34595996D01*
X233496032Y-34600707D01*
X233496032Y-34600708D01*
X233502851Y-34748026D01*
X233505523Y-34805767D01*
X233506628Y-34810351D01*
X233552526Y-35000797D01*
X233554724Y-35009918D01*
X233641640Y-35201081D01*
X233763137Y-35372360D01*
X233779988Y-35388491D01*
X233911427Y-35514317D01*
X233911431Y-35514320D01*
X233914831Y-35517575D01*
X234091246Y-35631485D01*
X234095623Y-35633249D01*
X234245291Y-35693567D01*
X234286019Y-35709981D01*
X234290643Y-35710884D01*
X234488627Y-35749548D01*
X234488634Y-35749549D01*
X234492122Y-35750230D01*
X234497643Y-35750500D01*
X234652469Y-35750500D01*
X234748540Y-35741334D01*
X234804353Y-35736009D01*
X234804355Y-35736009D01*
X234809046Y-35735561D01*
X235010549Y-35676447D01*
X235197239Y-35580295D01*
X235362379Y-35450576D01*
X235500010Y-35291971D01*
X235605166Y-35110201D01*
X235641410Y-35005828D01*
X235672509Y-34916273D01*
X235672510Y-34916271D01*
X235674053Y-34911826D01*
X235704186Y-34704004D01*
X235694477Y-34494233D01*
X235670040Y-34392836D01*
X235646381Y-34294665D01*
X235646379Y-34294660D01*
X235645276Y-34290082D01*
X235622062Y-34239024D01*
X235560310Y-34103208D01*
X235558360Y-34098919D01*
X235436863Y-33927640D01*
X235289356Y-33786433D01*
X235288573Y-33785683D01*
X235288569Y-33785680D01*
X235285169Y-33782425D01*
X235108754Y-33668515D01*
X234999537Y-33624499D01*
X234918356Y-33591782D01*
X234918354Y-33591781D01*
X234913981Y-33590019D01*
X234908687Y-33588985D01*
X234711373Y-33550452D01*
X234711366Y-33550451D01*
X234707878Y-33549770D01*
X234702357Y-33549500D01*
X234547531Y-33549500D01*
X234451460Y-33558666D01*
X234395647Y-33563991D01*
X234395645Y-33563991D01*
X234390954Y-33564439D01*
X234189451Y-33623553D01*
X234002761Y-33719705D01*
X233837621Y-33849424D01*
X233699990Y-34008029D01*
X233594834Y-34189799D01*
X233593290Y-34194244D01*
X233593290Y-34194245D01*
X233529988Y-34376538D01*
X233525947Y-34388174D01*
X233525271Y-34392836D01*
X233500030Y-34566922D01*
X233495814Y-34595996D01*
X227185843Y-34595996D01*
X227180221Y-34575015D01*
X227177275Y-34566922D01*
X227088497Y-34376538D01*
X227084185Y-34369068D01*
X227052119Y-34323273D01*
X227041466Y-34315246D01*
X227040836Y-34315235D01*
X227034530Y-34319023D01*
X226364639Y-34988914D01*
X226358585Y-35000797D01*
X225640603Y-35000797D01*
X225641415Y-34999203D01*
X225640619Y-34994172D01*
X224967961Y-34321514D01*
X224956078Y-34315460D01*
X224955456Y-34315558D01*
X224949903Y-34320385D01*
X224915815Y-34369068D01*
X224911503Y-34376538D01*
X224822725Y-34566922D01*
X224819779Y-34575015D01*
X224765405Y-34777944D01*
X224763912Y-34786412D01*
X224745602Y-34995691D01*
X224745602Y-35004309D01*
X221062887Y-35004309D01*
X221061509Y-35000981D01*
X221061507Y-35000977D01*
X221059024Y-34994983D01*
X220974791Y-34885209D01*
X220865018Y-34800976D01*
X220737183Y-34748026D01*
X220730754Y-34747180D01*
X220730752Y-34747179D01*
X220606433Y-34730812D01*
X220600000Y-34729965D01*
X220593567Y-34730812D01*
X220469248Y-34747179D01*
X220469246Y-34747180D01*
X220462817Y-34748026D01*
X220423592Y-34764273D01*
X220340981Y-34798491D01*
X220340977Y-34798493D01*
X220334983Y-34800976D01*
X220225209Y-34885209D01*
X220140976Y-34994983D01*
X220138493Y-35000977D01*
X220138491Y-35000981D01*
X220133013Y-35014207D01*
X220088026Y-35122817D01*
X220079441Y-35188026D01*
X220073083Y-35236316D01*
X220046742Y-35291541D01*
X219992971Y-35320735D01*
X219962009Y-35321546D01*
X219950000Y-35319965D01*
X219925178Y-35323233D01*
X219819248Y-35337179D01*
X219819246Y-35337180D01*
X219812817Y-35338026D01*
X219773592Y-35354273D01*
X219690981Y-35388491D01*
X219690977Y-35388493D01*
X219684983Y-35390976D01*
X219575209Y-35475209D01*
X219490976Y-35584983D01*
X219488493Y-35590977D01*
X219488491Y-35590981D01*
X219454273Y-35673592D01*
X219438026Y-35712817D01*
X219437180Y-35719246D01*
X219437179Y-35719248D01*
X219430126Y-35772821D01*
X219419965Y-35850000D01*
X175400000Y-35850000D01*
X175400000Y-33780000D01*
X219319965Y-33780000D01*
X219320812Y-33786433D01*
X219334384Y-33889517D01*
X219338026Y-33917183D01*
X219343949Y-33931483D01*
X219388491Y-34039019D01*
X219388493Y-34039023D01*
X219390976Y-34045017D01*
X219475209Y-34154791D01*
X219584982Y-34239024D01*
X219712817Y-34291974D01*
X219719246Y-34292820D01*
X219719248Y-34292821D01*
X219843567Y-34309188D01*
X219850000Y-34310035D01*
X219856433Y-34309188D01*
X219980752Y-34292821D01*
X219980754Y-34292820D01*
X219987183Y-34291974D01*
X220115018Y-34239024D01*
X220224791Y-34154791D01*
X220272621Y-34092458D01*
X220323046Y-34057803D01*
X220384210Y-34059405D01*
X220429704Y-34092458D01*
X220481254Y-34159638D01*
X220481258Y-34159642D01*
X220485209Y-34164791D01*
X220594982Y-34249024D01*
X220722817Y-34301974D01*
X220729246Y-34302820D01*
X220729248Y-34302821D01*
X220823541Y-34315235D01*
X220852314Y-34319023D01*
X220853567Y-34319188D01*
X220860000Y-34320035D01*
X220866433Y-34319188D01*
X220867687Y-34319023D01*
X220896459Y-34315235D01*
X220990752Y-34302821D01*
X220990754Y-34302820D01*
X220997183Y-34301974D01*
X221125018Y-34249024D01*
X221234791Y-34164791D01*
X221319024Y-34055017D01*
X221358727Y-33959164D01*
X225315235Y-33959164D01*
X225319023Y-33965470D01*
X225988914Y-34635361D01*
X226000797Y-34641415D01*
X226005828Y-34640619D01*
X226678486Y-33967961D01*
X226684540Y-33956078D01*
X226684442Y-33955456D01*
X226679615Y-33949903D01*
X226630933Y-33915815D01*
X226623463Y-33911503D01*
X226433078Y-33822725D01*
X226424985Y-33819779D01*
X226222056Y-33765405D01*
X226213588Y-33763912D01*
X226004309Y-33745602D01*
X225995691Y-33745602D01*
X225786412Y-33763912D01*
X225777944Y-33765405D01*
X225575015Y-33819779D01*
X225566922Y-33822725D01*
X225376538Y-33911503D01*
X225369068Y-33915815D01*
X225323273Y-33947881D01*
X225315246Y-33958534D01*
X225315235Y-33959164D01*
X221358727Y-33959164D01*
X221369981Y-33931995D01*
X221409716Y-33885470D01*
X221474366Y-33871728D01*
X221609482Y-33889517D01*
X221615915Y-33888670D01*
X221740234Y-33872303D01*
X221740236Y-33872302D01*
X221746665Y-33871456D01*
X221874500Y-33818506D01*
X221984273Y-33734273D01*
X222068506Y-33624499D01*
X222070989Y-33618505D01*
X222070991Y-33618501D01*
X222111384Y-33520981D01*
X222121456Y-33496665D01*
X222139517Y-33359482D01*
X222126722Y-33262299D01*
X222122303Y-33228730D01*
X222122302Y-33228728D01*
X222121456Y-33222299D01*
X222082882Y-33129171D01*
X222070991Y-33100463D01*
X222070989Y-33100459D01*
X222068506Y-33094465D01*
X221984273Y-32984691D01*
X221874500Y-32900458D01*
X221746665Y-32847508D01*
X221740236Y-32846662D01*
X221740234Y-32846661D01*
X221615915Y-32830294D01*
X221609482Y-32829447D01*
X221603049Y-32830294D01*
X221478730Y-32846661D01*
X221478728Y-32846662D01*
X221472299Y-32847508D01*
X221433074Y-32863755D01*
X221350463Y-32897973D01*
X221350459Y-32897975D01*
X221344465Y-32900458D01*
X221234691Y-32984691D01*
X221150458Y-33094465D01*
X221099991Y-33216305D01*
X221099502Y-33217486D01*
X221059766Y-33264012D01*
X220995116Y-33277754D01*
X220860000Y-33259965D01*
X220853567Y-33260812D01*
X220729248Y-33277179D01*
X220729246Y-33277180D01*
X220722817Y-33278026D01*
X220683592Y-33294273D01*
X220600981Y-33328491D01*
X220600977Y-33328493D01*
X220594983Y-33330976D01*
X220485209Y-33415209D01*
X220481258Y-33420358D01*
X220437379Y-33477542D01*
X220386954Y-33512197D01*
X220325790Y-33510595D01*
X220280296Y-33477542D01*
X220228746Y-33410362D01*
X220228742Y-33410358D01*
X220224791Y-33405209D01*
X220115018Y-33320976D01*
X219987183Y-33268026D01*
X219980754Y-33267180D01*
X219980752Y-33267179D01*
X219856433Y-33250812D01*
X219850000Y-33249965D01*
X219843567Y-33250812D01*
X219719248Y-33267179D01*
X219719246Y-33267180D01*
X219712817Y-33268026D01*
X219688675Y-33278026D01*
X219590981Y-33318491D01*
X219590977Y-33318493D01*
X219584983Y-33320976D01*
X219475209Y-33405209D01*
X219390976Y-33514983D01*
X219388493Y-33520977D01*
X219388491Y-33520981D01*
X219360269Y-33589116D01*
X219338026Y-33642817D01*
X219337180Y-33649246D01*
X219337179Y-33649248D01*
X219334306Y-33671074D01*
X219319965Y-33780000D01*
X175400000Y-33780000D01*
X175400000Y-32667356D01*
X215989483Y-32667356D01*
X215989792Y-32672885D01*
X216003810Y-32797855D01*
X216006249Y-32808592D01*
X216061632Y-32967629D01*
X216066384Y-32977548D01*
X216155629Y-33120370D01*
X216162459Y-33128987D01*
X216281128Y-33248488D01*
X216289704Y-33255382D01*
X216431893Y-33345619D01*
X216441779Y-33350441D01*
X216524713Y-33379973D01*
X216535590Y-33380277D01*
X216539311Y-33369347D01*
X217039483Y-33369347D01*
X217042925Y-33379941D01*
X217054663Y-33379859D01*
X217127026Y-33355225D01*
X217136974Y-33350543D01*
X217280414Y-33262299D01*
X217289082Y-33255527D01*
X217409408Y-33137694D01*
X217416359Y-33129171D01*
X217507591Y-32987609D01*
X217512478Y-32977763D01*
X217570079Y-32819504D01*
X217572666Y-32808810D01*
X217589093Y-32678775D01*
X217589483Y-32672587D01*
X217589483Y-32667356D01*
X224629483Y-32667356D01*
X224629792Y-32672885D01*
X224643810Y-32797855D01*
X224646249Y-32808592D01*
X224701632Y-32967629D01*
X224706384Y-32977548D01*
X224795629Y-33120370D01*
X224802459Y-33128987D01*
X224921128Y-33248488D01*
X224929704Y-33255382D01*
X225071893Y-33345619D01*
X225081779Y-33350441D01*
X225164713Y-33379973D01*
X225175590Y-33380277D01*
X225179311Y-33369347D01*
X225679483Y-33369347D01*
X225682925Y-33379941D01*
X225694663Y-33379859D01*
X225767026Y-33355225D01*
X225776974Y-33350543D01*
X225920414Y-33262299D01*
X225929082Y-33255527D01*
X226049408Y-33137694D01*
X226056359Y-33129171D01*
X226147591Y-32987609D01*
X226152478Y-32977763D01*
X226210079Y-32819504D01*
X226212666Y-32808810D01*
X226229093Y-32678775D01*
X226229483Y-32672587D01*
X226229483Y-32390680D01*
X226225361Y-32377995D01*
X226221240Y-32375000D01*
X225695163Y-32375000D01*
X225682478Y-32379122D01*
X225679483Y-32383243D01*
X225679483Y-33369347D01*
X225179311Y-33369347D01*
X225179483Y-33368841D01*
X225179483Y-32390680D01*
X225175361Y-32377995D01*
X225171240Y-32375000D01*
X224645163Y-32375000D01*
X224632478Y-32379122D01*
X224629483Y-32383243D01*
X224629483Y-32667356D01*
X217589483Y-32667356D01*
X217589483Y-32390680D01*
X217585361Y-32377995D01*
X217581240Y-32375000D01*
X217055163Y-32375000D01*
X217042478Y-32379122D01*
X217039483Y-32383243D01*
X217039483Y-33369347D01*
X216539311Y-33369347D01*
X216539483Y-33368841D01*
X216539483Y-32390680D01*
X216535361Y-32377995D01*
X216531240Y-32375000D01*
X216005163Y-32375000D01*
X215992478Y-32379122D01*
X215989483Y-32383243D01*
X215989483Y-32667356D01*
X175400000Y-32667356D01*
X175400000Y-31859320D01*
X215989483Y-31859320D01*
X215993605Y-31872005D01*
X215997726Y-31875000D01*
X216523803Y-31875000D01*
X216536488Y-31870878D01*
X216539483Y-31866757D01*
X216539483Y-31859320D01*
X217039483Y-31859320D01*
X217043605Y-31872005D01*
X217047726Y-31875000D01*
X217573803Y-31875000D01*
X217586488Y-31870878D01*
X217589483Y-31866757D01*
X217589483Y-31859320D01*
X224629483Y-31859320D01*
X224633605Y-31872005D01*
X224637726Y-31875000D01*
X225163803Y-31875000D01*
X225176488Y-31870878D01*
X225179483Y-31866757D01*
X225179483Y-31859320D01*
X225679483Y-31859320D01*
X225683605Y-31872005D01*
X225687726Y-31875000D01*
X226213803Y-31875000D01*
X226226488Y-31870878D01*
X226229483Y-31866757D01*
X226229483Y-31582644D01*
X226229174Y-31577115D01*
X226215156Y-31452145D01*
X226212717Y-31441408D01*
X226157334Y-31282371D01*
X226152582Y-31272452D01*
X226063337Y-31129630D01*
X226056507Y-31121013D01*
X225937838Y-31001512D01*
X225929262Y-30994618D01*
X225787073Y-30904381D01*
X225777187Y-30899559D01*
X225694253Y-30870027D01*
X225683376Y-30869723D01*
X225679483Y-30881159D01*
X225679483Y-31859320D01*
X225179483Y-31859320D01*
X225179483Y-30880653D01*
X225176041Y-30870059D01*
X225164303Y-30870141D01*
X225091940Y-30894775D01*
X225081992Y-30899457D01*
X224938552Y-30987701D01*
X224929884Y-30994473D01*
X224809558Y-31112306D01*
X224802607Y-31120829D01*
X224711375Y-31262391D01*
X224706488Y-31272237D01*
X224648887Y-31430496D01*
X224646300Y-31441190D01*
X224629873Y-31571225D01*
X224629483Y-31577413D01*
X224629483Y-31859320D01*
X217589483Y-31859320D01*
X217589483Y-31582644D01*
X217589174Y-31577115D01*
X217575156Y-31452145D01*
X217572717Y-31441408D01*
X217517334Y-31282371D01*
X217512582Y-31272452D01*
X217423337Y-31129630D01*
X217416507Y-31121013D01*
X217297838Y-31001512D01*
X217289262Y-30994618D01*
X217147073Y-30904381D01*
X217137187Y-30899559D01*
X217054253Y-30870027D01*
X217043376Y-30869723D01*
X217039483Y-30881159D01*
X217039483Y-31859320D01*
X216539483Y-31859320D01*
X216539483Y-30880653D01*
X216536041Y-30870059D01*
X216524303Y-30870141D01*
X216451940Y-30894775D01*
X216441992Y-30899457D01*
X216298552Y-30987701D01*
X216289884Y-30994473D01*
X216169558Y-31112306D01*
X216162607Y-31120829D01*
X216071375Y-31262391D01*
X216066488Y-31272237D01*
X216008887Y-31430496D01*
X216006300Y-31441190D01*
X215989873Y-31571225D01*
X215989483Y-31577413D01*
X215989483Y-31859320D01*
X175400000Y-31859320D01*
X175400000Y-30300000D01*
X218169965Y-30300000D01*
X218170812Y-30306433D01*
X218185786Y-30420166D01*
X218188026Y-30437183D01*
X218190509Y-30443177D01*
X218238491Y-30559019D01*
X218238493Y-30559023D01*
X218240976Y-30565017D01*
X218325209Y-30674791D01*
X218434982Y-30759024D01*
X218562817Y-30811974D01*
X218569246Y-30812820D01*
X218569248Y-30812821D01*
X218693567Y-30829188D01*
X218700000Y-30830035D01*
X218706433Y-30829188D01*
X218830752Y-30812821D01*
X218830754Y-30812820D01*
X218837183Y-30811974D01*
X218965018Y-30759024D01*
X219074791Y-30674791D01*
X219159024Y-30565017D01*
X219161507Y-30559023D01*
X219161509Y-30559019D01*
X219209491Y-30443177D01*
X219211974Y-30437183D01*
X219214215Y-30420166D01*
X219229188Y-30306433D01*
X219230035Y-30300000D01*
X219211974Y-30162817D01*
X219206665Y-30150000D01*
X220319965Y-30150000D01*
X220320812Y-30156433D01*
X220325383Y-30191149D01*
X220338026Y-30287183D01*
X220343335Y-30300000D01*
X220388491Y-30409019D01*
X220388493Y-30409023D01*
X220390976Y-30415017D01*
X220475209Y-30524791D01*
X220584982Y-30609024D01*
X220712817Y-30661974D01*
X220719246Y-30662820D01*
X220719248Y-30662821D01*
X220843567Y-30679188D01*
X220850000Y-30680035D01*
X220856433Y-30679188D01*
X220980752Y-30662821D01*
X220980754Y-30662820D01*
X220987183Y-30661974D01*
X221115018Y-30609024D01*
X221224791Y-30524791D01*
X221309024Y-30415017D01*
X221311507Y-30409023D01*
X221311509Y-30409019D01*
X221356665Y-30300000D01*
X221361974Y-30287183D01*
X221374618Y-30191149D01*
X221379188Y-30156433D01*
X221380035Y-30150000D01*
X222769965Y-30150000D01*
X222770812Y-30156433D01*
X222775383Y-30191149D01*
X222788026Y-30287183D01*
X222793335Y-30300000D01*
X222838491Y-30409019D01*
X222838493Y-30409023D01*
X222840976Y-30415017D01*
X222925209Y-30524791D01*
X223034982Y-30609024D01*
X223162817Y-30661974D01*
X223169246Y-30662820D01*
X223169248Y-30662821D01*
X223293567Y-30679188D01*
X223300000Y-30680035D01*
X223306433Y-30679188D01*
X223430752Y-30662821D01*
X223430754Y-30662820D01*
X223437183Y-30661974D01*
X223565018Y-30609024D01*
X223674791Y-30524791D01*
X223759024Y-30415017D01*
X223761507Y-30409023D01*
X223761509Y-30409019D01*
X223806665Y-30300000D01*
X223811974Y-30287183D01*
X223824618Y-30191149D01*
X223829188Y-30156433D01*
X223830035Y-30150000D01*
X223823014Y-30096671D01*
X233645739Y-30096671D01*
X233674614Y-30287599D01*
X233741290Y-30468821D01*
X233743930Y-30473079D01*
X233743931Y-30473081D01*
X233795521Y-30556286D01*
X233843045Y-30632934D01*
X233975721Y-30773235D01*
X233979826Y-30776109D01*
X233979829Y-30776112D01*
X234056840Y-30830035D01*
X234133898Y-30883991D01*
X234138494Y-30885980D01*
X234138496Y-30885981D01*
X234169873Y-30899559D01*
X234311115Y-30960680D01*
X234431779Y-30985888D01*
X234496408Y-30999390D01*
X234496410Y-30999390D01*
X234500133Y-31000168D01*
X234506468Y-31000500D01*
X234648259Y-31000500D01*
X234650747Y-31000247D01*
X234650752Y-31000247D01*
X234787123Y-30986395D01*
X234787127Y-30986394D01*
X234792110Y-30985888D01*
X234976373Y-30928144D01*
X235145261Y-30834528D01*
X235221023Y-30769592D01*
X235288065Y-30712130D01*
X235288067Y-30712128D01*
X235291875Y-30708864D01*
X235354080Y-30628670D01*
X235407156Y-30560246D01*
X235407159Y-30560241D01*
X235410227Y-30556286D01*
X235495481Y-30383026D01*
X235544155Y-30196163D01*
X235546912Y-30143567D01*
X235549632Y-30091660D01*
X235554261Y-30003329D01*
X235525386Y-29812401D01*
X235458710Y-29631179D01*
X235407266Y-29548208D01*
X235359599Y-29471330D01*
X235359598Y-29471329D01*
X235356955Y-29467066D01*
X235224279Y-29326765D01*
X235220174Y-29323891D01*
X235220171Y-29323888D01*
X235070208Y-29218884D01*
X235066102Y-29216009D01*
X235061506Y-29214020D01*
X235061504Y-29214019D01*
X234893481Y-29141309D01*
X234893482Y-29141309D01*
X234888885Y-29139320D01*
X234754062Y-29111154D01*
X234703592Y-29100610D01*
X234703590Y-29100610D01*
X234699867Y-29099832D01*
X234693532Y-29099500D01*
X234551741Y-29099500D01*
X234549253Y-29099753D01*
X234549248Y-29099753D01*
X234412877Y-29113605D01*
X234412873Y-29113606D01*
X234407890Y-29114112D01*
X234223627Y-29171856D01*
X234054739Y-29265472D01*
X233908125Y-29391136D01*
X233905048Y-29395103D01*
X233792844Y-29539754D01*
X233792841Y-29539759D01*
X233789773Y-29543714D01*
X233704519Y-29716974D01*
X233703255Y-29721828D01*
X233659194Y-29890981D01*
X233655845Y-29903837D01*
X233645739Y-30096671D01*
X223823014Y-30096671D01*
X223815682Y-30040981D01*
X223812821Y-30019248D01*
X223812820Y-30019246D01*
X223811974Y-30012817D01*
X223775686Y-29925209D01*
X223761509Y-29890981D01*
X223761507Y-29890977D01*
X223759024Y-29884983D01*
X223674791Y-29775209D01*
X223565018Y-29690976D01*
X223437183Y-29638026D01*
X223430754Y-29637180D01*
X223430752Y-29637179D01*
X223306433Y-29620812D01*
X223300000Y-29619965D01*
X223293567Y-29620812D01*
X223169248Y-29637179D01*
X223169246Y-29637180D01*
X223162817Y-29638026D01*
X223123592Y-29654273D01*
X223040981Y-29688491D01*
X223040977Y-29688493D01*
X223034983Y-29690976D01*
X222925209Y-29775209D01*
X222840976Y-29884983D01*
X222838493Y-29890977D01*
X222838491Y-29890981D01*
X222824314Y-29925209D01*
X222788026Y-30012817D01*
X222787180Y-30019246D01*
X222787179Y-30019248D01*
X222784318Y-30040981D01*
X222769965Y-30150000D01*
X221380035Y-30150000D01*
X221365682Y-30040981D01*
X221362821Y-30019248D01*
X221362820Y-30019246D01*
X221361974Y-30012817D01*
X221325686Y-29925209D01*
X221311509Y-29890981D01*
X221311507Y-29890977D01*
X221309024Y-29884983D01*
X221224791Y-29775209D01*
X221115018Y-29690976D01*
X220987183Y-29638026D01*
X220980754Y-29637180D01*
X220980752Y-29637179D01*
X220856433Y-29620812D01*
X220850000Y-29619965D01*
X220843567Y-29620812D01*
X220719248Y-29637179D01*
X220719246Y-29637180D01*
X220712817Y-29638026D01*
X220673592Y-29654273D01*
X220590981Y-29688491D01*
X220590977Y-29688493D01*
X220584983Y-29690976D01*
X220475209Y-29775209D01*
X220390976Y-29884983D01*
X220388493Y-29890977D01*
X220388491Y-29890981D01*
X220374314Y-29925209D01*
X220338026Y-30012817D01*
X220337180Y-30019246D01*
X220337179Y-30019248D01*
X220334318Y-30040981D01*
X220319965Y-30150000D01*
X219206665Y-30150000D01*
X219182500Y-30091660D01*
X219161509Y-30040981D01*
X219161507Y-30040977D01*
X219159024Y-30034983D01*
X219074791Y-29925209D01*
X218965018Y-29840976D01*
X218837183Y-29788026D01*
X218830754Y-29787180D01*
X218830752Y-29787179D01*
X218706433Y-29770812D01*
X218700000Y-29769965D01*
X218693567Y-29770812D01*
X218569248Y-29787179D01*
X218569246Y-29787180D01*
X218562817Y-29788026D01*
X218523592Y-29804273D01*
X218440981Y-29838491D01*
X218440977Y-29838493D01*
X218434983Y-29840976D01*
X218325209Y-29925209D01*
X218240976Y-30034983D01*
X218238493Y-30040977D01*
X218238491Y-30040981D01*
X218217500Y-30091660D01*
X218188026Y-30162817D01*
X218169965Y-30300000D01*
X175400000Y-30300000D01*
X175400000Y-27968000D01*
X175793548Y-27968000D01*
X178206453Y-27968000D01*
X178206453Y-27557356D01*
X215989483Y-27557356D01*
X215989792Y-27562885D01*
X216003810Y-27687855D01*
X216006249Y-27698592D01*
X216061632Y-27857629D01*
X216066384Y-27867548D01*
X216155629Y-28010370D01*
X216162459Y-28018987D01*
X216281128Y-28138488D01*
X216289704Y-28145382D01*
X216431893Y-28235619D01*
X216441779Y-28240441D01*
X216524713Y-28269973D01*
X216535590Y-28270277D01*
X216539311Y-28259347D01*
X217039483Y-28259347D01*
X217042925Y-28269941D01*
X217054663Y-28269859D01*
X217127026Y-28245225D01*
X217136974Y-28240543D01*
X217280414Y-28152299D01*
X217289082Y-28145527D01*
X217409408Y-28027694D01*
X217416359Y-28019171D01*
X217507591Y-27877609D01*
X217512478Y-27867763D01*
X217570079Y-27709504D01*
X217572666Y-27698810D01*
X217589093Y-27568775D01*
X217589483Y-27562587D01*
X217589483Y-27557356D01*
X224629483Y-27557356D01*
X224629792Y-27562885D01*
X224643810Y-27687855D01*
X224646249Y-27698592D01*
X224701632Y-27857629D01*
X224706384Y-27867548D01*
X224795629Y-28010370D01*
X224802459Y-28018987D01*
X224921128Y-28138488D01*
X224929704Y-28145382D01*
X225071893Y-28235619D01*
X225081779Y-28240441D01*
X225164713Y-28269973D01*
X225175590Y-28270277D01*
X225179311Y-28259347D01*
X225679483Y-28259347D01*
X225682925Y-28269941D01*
X225694663Y-28269859D01*
X225767026Y-28245225D01*
X225776974Y-28240543D01*
X225920414Y-28152299D01*
X225929082Y-28145527D01*
X226049408Y-28027694D01*
X226056359Y-28019171D01*
X226147591Y-27877609D01*
X226152478Y-27867763D01*
X226210079Y-27709504D01*
X226212666Y-27698810D01*
X226229093Y-27568775D01*
X226229483Y-27562587D01*
X226229483Y-27030680D01*
X226225361Y-27017995D01*
X226221240Y-27015000D01*
X225695163Y-27015000D01*
X225682478Y-27019122D01*
X225679483Y-27023243D01*
X225679483Y-28259347D01*
X225179311Y-28259347D01*
X225179483Y-28258841D01*
X225179483Y-27030680D01*
X225175361Y-27017995D01*
X225171240Y-27015000D01*
X224645163Y-27015000D01*
X224632478Y-27019122D01*
X224629483Y-27023243D01*
X224629483Y-27557356D01*
X217589483Y-27557356D01*
X217589483Y-27030680D01*
X217585361Y-27017995D01*
X217581240Y-27015000D01*
X217055163Y-27015000D01*
X217042478Y-27019122D01*
X217039483Y-27023243D01*
X217039483Y-28259347D01*
X216539311Y-28259347D01*
X216539483Y-28258841D01*
X216539483Y-27030680D01*
X216535361Y-27017995D01*
X216531240Y-27015000D01*
X216005163Y-27015000D01*
X215992478Y-27019122D01*
X215989483Y-27023243D01*
X215989483Y-27557356D01*
X178206453Y-27557356D01*
X178206453Y-26499320D01*
X215989483Y-26499320D01*
X215993605Y-26512005D01*
X215997726Y-26515000D01*
X216523803Y-26515000D01*
X216536488Y-26510878D01*
X216539483Y-26506757D01*
X216539483Y-26499320D01*
X217039483Y-26499320D01*
X217043605Y-26512005D01*
X217047726Y-26515000D01*
X217573803Y-26515000D01*
X217586488Y-26510878D01*
X217589483Y-26506757D01*
X217589483Y-26499320D01*
X224629483Y-26499320D01*
X224633605Y-26512005D01*
X224637726Y-26515000D01*
X225163803Y-26515000D01*
X225176488Y-26510878D01*
X225179483Y-26506757D01*
X225179483Y-26499320D01*
X225679483Y-26499320D01*
X225683605Y-26512005D01*
X225687726Y-26515000D01*
X226213803Y-26515000D01*
X226226488Y-26510878D01*
X226229483Y-26506757D01*
X226229483Y-25972644D01*
X226229174Y-25967115D01*
X226215156Y-25842145D01*
X226212717Y-25831408D01*
X226157334Y-25672371D01*
X226152582Y-25662452D01*
X226063337Y-25519630D01*
X226056507Y-25511013D01*
X225937838Y-25391512D01*
X225929262Y-25384618D01*
X225787073Y-25294381D01*
X225777187Y-25289559D01*
X225694253Y-25260027D01*
X225683376Y-25259723D01*
X225679483Y-25271159D01*
X225679483Y-26499320D01*
X225179483Y-26499320D01*
X225179483Y-25270653D01*
X225176041Y-25260059D01*
X225164303Y-25260141D01*
X225091940Y-25284775D01*
X225081992Y-25289457D01*
X224938552Y-25377701D01*
X224929884Y-25384473D01*
X224809558Y-25502306D01*
X224802607Y-25510829D01*
X224711375Y-25652391D01*
X224706488Y-25662237D01*
X224648887Y-25820496D01*
X224646300Y-25831190D01*
X224629873Y-25961225D01*
X224629483Y-25967413D01*
X224629483Y-26499320D01*
X217589483Y-26499320D01*
X217589483Y-25972644D01*
X217589174Y-25967115D01*
X217575156Y-25842145D01*
X217572717Y-25831408D01*
X217517334Y-25672371D01*
X217512582Y-25662452D01*
X217423337Y-25519630D01*
X217416507Y-25511013D01*
X217297838Y-25391512D01*
X217289262Y-25384618D01*
X217147073Y-25294381D01*
X217137187Y-25289559D01*
X217054253Y-25260027D01*
X217043376Y-25259723D01*
X217039483Y-25271159D01*
X217039483Y-26499320D01*
X216539483Y-26499320D01*
X216539483Y-25270653D01*
X216536041Y-25260059D01*
X216524303Y-25260141D01*
X216451940Y-25284775D01*
X216441992Y-25289457D01*
X216298552Y-25377701D01*
X216289884Y-25384473D01*
X216169558Y-25502306D01*
X216162607Y-25510829D01*
X216071375Y-25652391D01*
X216066488Y-25662237D01*
X216008887Y-25820496D01*
X216006300Y-25831190D01*
X215989873Y-25961225D01*
X215989483Y-25967413D01*
X215989483Y-26499320D01*
X178206453Y-26499320D01*
X178206453Y-25632000D01*
X175793548Y-25632000D01*
X175793548Y-27968000D01*
X175400000Y-27968000D01*
X175400000Y-24899000D01*
X175418907Y-24840809D01*
X175468407Y-24804845D01*
X175499000Y-24800000D01*
X243501000Y-24800000D01*
X243559191Y-24818907D01*
G37*
G04 #@! TD.AperFunction*
G04 #@! TA.AperFunction,Conductor*
G36*
X232235242Y-84582309D02*
G01*
X232257562Y-84585248D01*
X232282526Y-84591937D01*
X232324122Y-84609167D01*
X232346504Y-84622089D01*
X232382229Y-84649502D01*
X232400503Y-84667777D01*
X232427908Y-84703492D01*
X232440830Y-84725873D01*
X232458063Y-84767477D01*
X232464752Y-84792440D01*
X232470629Y-84837077D01*
X232470629Y-84862923D01*
X232464752Y-84907560D01*
X232458063Y-84932523D01*
X232440830Y-84974127D01*
X232427908Y-84996508D01*
X232400503Y-85032223D01*
X232382229Y-85050498D01*
X232346504Y-85077911D01*
X232324122Y-85090833D01*
X232282526Y-85108063D01*
X232257562Y-85114752D01*
X232235242Y-85117690D01*
X232212921Y-85120629D01*
X232187079Y-85120629D01*
X232164758Y-85117690D01*
X232142438Y-85114752D01*
X232117474Y-85108063D01*
X232075878Y-85090833D01*
X232053496Y-85077911D01*
X232017771Y-85050498D01*
X231999497Y-85032223D01*
X231972092Y-84996508D01*
X231959170Y-84974127D01*
X231941937Y-84932523D01*
X231935248Y-84907560D01*
X231929371Y-84862923D01*
X231929371Y-84837077D01*
X231935248Y-84792440D01*
X231941937Y-84767477D01*
X231959170Y-84725873D01*
X231972092Y-84703492D01*
X231999499Y-84667774D01*
X232017774Y-84649499D01*
X232053492Y-84622092D01*
X232075873Y-84609170D01*
X232117477Y-84591937D01*
X232142440Y-84585248D01*
X232159004Y-84583067D01*
X232187079Y-84579371D01*
X232212921Y-84579371D01*
X232235242Y-84582309D01*
G37*
G04 #@! TD.AperFunction*
G04 #@! TA.AperFunction,Conductor*
G36*
X229768664Y-63730127D02*
G01*
X229807562Y-63735248D01*
X229832526Y-63741937D01*
X229874122Y-63759167D01*
X229896504Y-63772089D01*
X229932229Y-63799502D01*
X229950503Y-63817777D01*
X229977908Y-63853492D01*
X229990830Y-63875873D01*
X230008063Y-63917477D01*
X230014752Y-63942440D01*
X230020629Y-63987077D01*
X230020629Y-64012923D01*
X230014752Y-64057560D01*
X230008063Y-64082523D01*
X229990830Y-64124127D01*
X229977908Y-64146508D01*
X229950503Y-64182223D01*
X229932229Y-64200498D01*
X229896504Y-64227911D01*
X229874122Y-64240833D01*
X229832526Y-64258063D01*
X229807562Y-64264752D01*
X229791634Y-64266849D01*
X229762921Y-64270629D01*
X229737079Y-64270629D01*
X229708366Y-64266849D01*
X229692438Y-64264752D01*
X229667474Y-64258063D01*
X229625878Y-64240833D01*
X229603496Y-64227911D01*
X229567771Y-64200498D01*
X229549497Y-64182223D01*
X229522092Y-64146508D01*
X229509170Y-64124127D01*
X229491937Y-64082523D01*
X229485248Y-64057560D01*
X229479371Y-64012923D01*
X229479371Y-63987077D01*
X229485248Y-63942440D01*
X229491937Y-63917477D01*
X229509170Y-63875873D01*
X229522092Y-63853492D01*
X229549499Y-63817774D01*
X229567774Y-63799499D01*
X229603492Y-63772092D01*
X229625873Y-63759170D01*
X229667477Y-63741937D01*
X229692440Y-63735248D01*
X229709004Y-63733067D01*
X229737079Y-63729371D01*
X229762921Y-63729371D01*
X229768664Y-63730127D01*
G37*
G04 #@! TD.AperFunction*
G04 #@! TA.AperFunction,Conductor*
G36*
X242758691Y-89418907D02*
G01*
X242794655Y-89468407D01*
X242799500Y-89499000D01*
X242799500Y-117963099D01*
X242780593Y-118021290D01*
X242770504Y-118033103D01*
X240923103Y-119880504D01*
X240868586Y-119908281D01*
X240853099Y-119909500D01*
X240243315Y-119909500D01*
X240185124Y-119890593D01*
X240149160Y-119841093D01*
X240146756Y-119832349D01*
X240139516Y-119800352D01*
X240139516Y-119800351D01*
X240138705Y-119796768D01*
X240123071Y-119756564D01*
X240045735Y-119557698D01*
X240044405Y-119554277D01*
X239915299Y-119328388D01*
X239754223Y-119124064D01*
X239751550Y-119121550D01*
X239751545Y-119121544D01*
X239567387Y-118948306D01*
X239567383Y-118948303D01*
X239564714Y-118945792D01*
X239350937Y-118797489D01*
X239117587Y-118682414D01*
X238869792Y-118603094D01*
X238866175Y-118602505D01*
X238866171Y-118602504D01*
X238616613Y-118561861D01*
X238616608Y-118561861D01*
X238612994Y-118561272D01*
X238609329Y-118561224D01*
X238516844Y-118560013D01*
X238352835Y-118557866D01*
X238349207Y-118558360D01*
X238349203Y-118558360D01*
X238223932Y-118575409D01*
X238095030Y-118592952D01*
X237845243Y-118665758D01*
X237814350Y-118680000D01*
X237612296Y-118773148D01*
X237612290Y-118773151D01*
X237608961Y-118774686D01*
X237391375Y-118917341D01*
X237388643Y-118919780D01*
X237388641Y-118919781D01*
X237220439Y-119069907D01*
X237197265Y-119090591D01*
X237194918Y-119093413D01*
X237194917Y-119093414D01*
X237110716Y-119194655D01*
X237030895Y-119290629D01*
X236895920Y-119513061D01*
X236795305Y-119753001D01*
X236794401Y-119756563D01*
X236794400Y-119756564D01*
X236732449Y-120000500D01*
X236731261Y-120005177D01*
X236705194Y-120264049D01*
X236705370Y-120267714D01*
X236705370Y-120267717D01*
X236711396Y-120393177D01*
X236717677Y-120523930D01*
X236748951Y-120681158D01*
X236765195Y-120762821D01*
X236768435Y-120779112D01*
X236856355Y-121023989D01*
X236979504Y-121253180D01*
X237135177Y-121461651D01*
X237319954Y-121644823D01*
X237322913Y-121646993D01*
X237322917Y-121646996D01*
X237407973Y-121709361D01*
X237529775Y-121798670D01*
X237760033Y-121919815D01*
X237763504Y-121921027D01*
X237763506Y-121921028D01*
X237848581Y-121950737D01*
X238005667Y-122005594D01*
X238009271Y-122006278D01*
X238009270Y-122006278D01*
X238257673Y-122053439D01*
X238257675Y-122053439D01*
X238261282Y-122054124D01*
X238402613Y-122059677D01*
X238517593Y-122064195D01*
X238517596Y-122064195D01*
X238521263Y-122064339D01*
X238654123Y-122049789D01*
X238776257Y-122036413D01*
X238776260Y-122036412D01*
X238779898Y-122036014D01*
X239031505Y-121969771D01*
X239270557Y-121867066D01*
X239384591Y-121796500D01*
X239488677Y-121732090D01*
X239488682Y-121732086D01*
X239491803Y-121730155D01*
X239506503Y-121717711D01*
X239592408Y-121644987D01*
X239690382Y-121562046D01*
X239708585Y-121541290D01*
X239781009Y-121458705D01*
X239861931Y-121366431D01*
X240002683Y-121147608D01*
X240004540Y-121143487D01*
X240108036Y-120913733D01*
X240108037Y-120913731D01*
X240109544Y-120910385D01*
X240145576Y-120782627D01*
X240179569Y-120731753D01*
X240240859Y-120710500D01*
X241123433Y-120710500D01*
X241146380Y-120703044D01*
X241161481Y-120699419D01*
X241177609Y-120696865D01*
X241177611Y-120696864D01*
X241185304Y-120695646D01*
X241206797Y-120684695D01*
X241221143Y-120678752D01*
X241236679Y-120673704D01*
X241244090Y-120671296D01*
X241263607Y-120657116D01*
X241276846Y-120649002D01*
X241298342Y-120638050D01*
X241320905Y-120615487D01*
X241320909Y-120615484D01*
X243230996Y-118705397D01*
X243285513Y-118677620D01*
X243345945Y-118687191D01*
X243389210Y-118730456D01*
X243400000Y-118775401D01*
X243400000Y-139801000D01*
X243381093Y-139859191D01*
X243331593Y-139895155D01*
X243301000Y-139900000D01*
X236919201Y-139900000D01*
X236861010Y-139881093D01*
X236825046Y-139831593D01*
X236825046Y-139770407D01*
X236861010Y-139720907D01*
X236893077Y-139705509D01*
X237103401Y-139647971D01*
X237103404Y-139647970D01*
X237107651Y-139646808D01*
X237226018Y-139590350D01*
X237305151Y-139552606D01*
X237305156Y-139552603D01*
X237309129Y-139550708D01*
X237490405Y-139420448D01*
X237585014Y-139322820D01*
X237642681Y-139263312D01*
X237645749Y-139260146D01*
X237770250Y-139074868D01*
X237859974Y-138870471D01*
X237912085Y-138653415D01*
X237914991Y-138603023D01*
X237920939Y-138499854D01*
X237924934Y-138430562D01*
X237898117Y-138208956D01*
X237896823Y-138204749D01*
X237833778Y-137999815D01*
X237833777Y-137999812D01*
X237832481Y-137995600D01*
X237730099Y-137797241D01*
X237594210Y-137620146D01*
X237590954Y-137617183D01*
X237590951Y-137617180D01*
X237432361Y-137472875D01*
X237432362Y-137472875D01*
X237429107Y-137469914D01*
X237240010Y-137351293D01*
X237235928Y-137349652D01*
X237235924Y-137349650D01*
X237092585Y-137292029D01*
X237032895Y-137268034D01*
X236814310Y-137222767D01*
X236757651Y-137219500D01*
X235613370Y-137219500D01*
X235611176Y-137219696D01*
X235611172Y-137219696D01*
X235452049Y-137233897D01*
X235452045Y-137233898D01*
X235447661Y-137234289D01*
X235443416Y-137235450D01*
X235443412Y-137235451D01*
X235318301Y-137269678D01*
X235232349Y-137293192D01*
X235228371Y-137295089D01*
X235228372Y-137295089D01*
X235034849Y-137387394D01*
X235034844Y-137387397D01*
X235030871Y-137389292D01*
X234849595Y-137519552D01*
X234846522Y-137522723D01*
X234846521Y-137522724D01*
X234752112Y-137620146D01*
X234694251Y-137679854D01*
X234569750Y-137865132D01*
X234480026Y-138069529D01*
X234427915Y-138286585D01*
X234427662Y-138290977D01*
X234427661Y-138290982D01*
X234420654Y-138412523D01*
X234415066Y-138509438D01*
X234441883Y-138731044D01*
X234443176Y-138735249D01*
X234443177Y-138735251D01*
X234494014Y-138900500D01*
X234507519Y-138944400D01*
X234609901Y-139142759D01*
X234745790Y-139319854D01*
X234749046Y-139322817D01*
X234749049Y-139322820D01*
X234856341Y-139420448D01*
X234910893Y-139470086D01*
X235099990Y-139588707D01*
X235104072Y-139590348D01*
X235104076Y-139590350D01*
X235232877Y-139642127D01*
X235307105Y-139671966D01*
X235311422Y-139672860D01*
X235462066Y-139704057D01*
X235515214Y-139734372D01*
X235540392Y-139790136D01*
X235527984Y-139850050D01*
X235482730Y-139891229D01*
X235441990Y-139900000D01*
X231839201Y-139900000D01*
X231781010Y-139881093D01*
X231745046Y-139831593D01*
X231745046Y-139770407D01*
X231781010Y-139720907D01*
X231813077Y-139705509D01*
X232023401Y-139647971D01*
X232023404Y-139647970D01*
X232027651Y-139646808D01*
X232146018Y-139590350D01*
X232225151Y-139552606D01*
X232225156Y-139552603D01*
X232229129Y-139550708D01*
X232410405Y-139420448D01*
X232505014Y-139322820D01*
X232562681Y-139263312D01*
X232565749Y-139260146D01*
X232690250Y-139074868D01*
X232779974Y-138870471D01*
X232832085Y-138653415D01*
X232834991Y-138603023D01*
X232840939Y-138499854D01*
X232844934Y-138430562D01*
X232818117Y-138208956D01*
X232816823Y-138204749D01*
X232753778Y-137999815D01*
X232753777Y-137999812D01*
X232752481Y-137995600D01*
X232650099Y-137797241D01*
X232514210Y-137620146D01*
X232510954Y-137617183D01*
X232510951Y-137617180D01*
X232352361Y-137472875D01*
X232352362Y-137472875D01*
X232349107Y-137469914D01*
X232160010Y-137351293D01*
X232155928Y-137349652D01*
X232155924Y-137349650D01*
X232012585Y-137292029D01*
X231952895Y-137268034D01*
X231734310Y-137222767D01*
X231677651Y-137219500D01*
X230533370Y-137219500D01*
X230531176Y-137219696D01*
X230531172Y-137219696D01*
X230372049Y-137233897D01*
X230372045Y-137233898D01*
X230367661Y-137234289D01*
X230363416Y-137235450D01*
X230363412Y-137235451D01*
X230238301Y-137269678D01*
X230152349Y-137293192D01*
X230148371Y-137295089D01*
X230148372Y-137295089D01*
X229954849Y-137387394D01*
X229954844Y-137387397D01*
X229950871Y-137389292D01*
X229769595Y-137519552D01*
X229766522Y-137522723D01*
X229766521Y-137522724D01*
X229672112Y-137620146D01*
X229614251Y-137679854D01*
X229489750Y-137865132D01*
X229400026Y-138069529D01*
X229347915Y-138286585D01*
X229347662Y-138290977D01*
X229347661Y-138290982D01*
X229340654Y-138412523D01*
X229335066Y-138509438D01*
X229361883Y-138731044D01*
X229363176Y-138735249D01*
X229363177Y-138735251D01*
X229414014Y-138900500D01*
X229427519Y-138944400D01*
X229529901Y-139142759D01*
X229665790Y-139319854D01*
X229669046Y-139322817D01*
X229669049Y-139322820D01*
X229776341Y-139420448D01*
X229830893Y-139470086D01*
X230019990Y-139588707D01*
X230024072Y-139590348D01*
X230024076Y-139590350D01*
X230152877Y-139642127D01*
X230227105Y-139671966D01*
X230231422Y-139672860D01*
X230382066Y-139704057D01*
X230435214Y-139734372D01*
X230460392Y-139790136D01*
X230447984Y-139850050D01*
X230402730Y-139891229D01*
X230361990Y-139900000D01*
X175499000Y-139900000D01*
X175440809Y-139881093D01*
X175404845Y-139831593D01*
X175400000Y-139801000D01*
X175400000Y-137689438D01*
X181395066Y-137689438D01*
X181421883Y-137911044D01*
X181423176Y-137915249D01*
X181423177Y-137915251D01*
X181470639Y-138069529D01*
X181487519Y-138124400D01*
X181589901Y-138322759D01*
X181725790Y-138499854D01*
X181729046Y-138502817D01*
X181729049Y-138502820D01*
X181836341Y-138600448D01*
X181890893Y-138650086D01*
X182079990Y-138768707D01*
X182084072Y-138770348D01*
X182084076Y-138770350D01*
X182212877Y-138822127D01*
X182287105Y-138851966D01*
X182505690Y-138897233D01*
X182562349Y-138900500D01*
X184206630Y-138900500D01*
X184208824Y-138900304D01*
X184208828Y-138900304D01*
X184367951Y-138886103D01*
X184367955Y-138886102D01*
X184372339Y-138885711D01*
X184376584Y-138884550D01*
X184376588Y-138884549D01*
X184583400Y-138827971D01*
X184583401Y-138827971D01*
X184587651Y-138826808D01*
X184706018Y-138770350D01*
X184785151Y-138732606D01*
X184785156Y-138732603D01*
X184789129Y-138730708D01*
X184970405Y-138600448D01*
X185054361Y-138513813D01*
X185122681Y-138443312D01*
X185125749Y-138440146D01*
X185250250Y-138254868D01*
X185339974Y-138050471D01*
X185392085Y-137833415D01*
X185394373Y-137793743D01*
X185401121Y-137676688D01*
X185404934Y-137610562D01*
X185378117Y-137388956D01*
X185336541Y-137253808D01*
X185313778Y-137179815D01*
X185313777Y-137179812D01*
X185312481Y-137175600D01*
X185310459Y-137171683D01*
X185310456Y-137171675D01*
X185236483Y-137028356D01*
X185226595Y-136967975D01*
X185254452Y-136912946D01*
X186610449Y-135556949D01*
X186616817Y-135551114D01*
X186647083Y-135525718D01*
X186666842Y-135491494D01*
X186671484Y-135484207D01*
X186689186Y-135458927D01*
X186689187Y-135458925D01*
X186694155Y-135451830D01*
X186696397Y-135443463D01*
X186698955Y-135437978D01*
X186701027Y-135432285D01*
X186705359Y-135424781D01*
X186712223Y-135385855D01*
X186714088Y-135377440D01*
X186724321Y-135339249D01*
X186720877Y-135299883D01*
X186720500Y-135291255D01*
X186720500Y-132755834D01*
X190569500Y-132755834D01*
X190584277Y-132978309D01*
X190604441Y-133078309D01*
X190629274Y-133201467D01*
X190643370Y-133271377D01*
X190644443Y-133274493D01*
X190719067Y-133491217D01*
X190740704Y-133554056D01*
X190742176Y-133556995D01*
X190742177Y-133556998D01*
X190753223Y-133579056D01*
X190874569Y-133821378D01*
X191042613Y-134068647D01*
X191241883Y-134291520D01*
X191244381Y-134293661D01*
X191244385Y-134293665D01*
X191466386Y-134483942D01*
X191466392Y-134483946D01*
X191468880Y-134486079D01*
X191471634Y-134487867D01*
X191471636Y-134487869D01*
X191510133Y-134512869D01*
X191719614Y-134648908D01*
X191869148Y-134719912D01*
X191986717Y-134775738D01*
X191986722Y-134775740D01*
X191989681Y-134777145D01*
X192274336Y-134868538D01*
X192416522Y-134894121D01*
X192565337Y-134920897D01*
X192565339Y-134920897D01*
X192568578Y-134921480D01*
X192867236Y-134935042D01*
X192870504Y-134934756D01*
X192870508Y-134934756D01*
X193028918Y-134920897D01*
X193165065Y-134908986D01*
X193444033Y-134846629D01*
X193453625Y-134844485D01*
X193453627Y-134844484D01*
X193456832Y-134843768D01*
X193465617Y-134840536D01*
X193666385Y-134766668D01*
X193737410Y-134740536D01*
X193815813Y-134699199D01*
X193998969Y-134602632D01*
X193998974Y-134602629D01*
X194001870Y-134601102D01*
X194023010Y-134586079D01*
X194242883Y-134429822D01*
X194245565Y-134427916D01*
X194464216Y-134224021D01*
X194466300Y-134221484D01*
X194651894Y-133995539D01*
X194651898Y-133995534D01*
X194653979Y-133993000D01*
X194794286Y-133766707D01*
X194809787Y-133741707D01*
X194809788Y-133741705D01*
X194811521Y-133738910D01*
X194851055Y-133650944D01*
X194921491Y-133494216D01*
X194934074Y-133466217D01*
X195019485Y-133179711D01*
X195066254Y-132884425D01*
X195067552Y-132855834D01*
X200729500Y-132855834D01*
X200744277Y-133078309D01*
X200749601Y-133104711D01*
X200788876Y-133299493D01*
X200803370Y-133371377D01*
X200804443Y-133374493D01*
X200870459Y-133566217D01*
X200900704Y-133654056D01*
X200902176Y-133656995D01*
X200902177Y-133656998D01*
X200954212Y-133760909D01*
X201034569Y-133921378D01*
X201202613Y-134168647D01*
X201252123Y-134224021D01*
X201365364Y-134350675D01*
X201401883Y-134391520D01*
X201404381Y-134393661D01*
X201404385Y-134393665D01*
X201626386Y-134583942D01*
X201626392Y-134583946D01*
X201628880Y-134586079D01*
X201879614Y-134748908D01*
X202029148Y-134819912D01*
X202146717Y-134875738D01*
X202146722Y-134875740D01*
X202149681Y-134877145D01*
X202434336Y-134968538D01*
X202637134Y-135005027D01*
X202725337Y-135020897D01*
X202725339Y-135020897D01*
X202728578Y-135021480D01*
X203027236Y-135035042D01*
X203030504Y-135034756D01*
X203030508Y-135034756D01*
X203188918Y-135020897D01*
X203325065Y-135008986D01*
X203604033Y-134946629D01*
X203613625Y-134944485D01*
X203613627Y-134944484D01*
X203616832Y-134943768D01*
X203897410Y-134840536D01*
X203988458Y-134792532D01*
X204158969Y-134702632D01*
X204158974Y-134702629D01*
X204161870Y-134701102D01*
X204198159Y-134675313D01*
X204402883Y-134529822D01*
X204405565Y-134527916D01*
X204624216Y-134324021D01*
X204626300Y-134321484D01*
X204811894Y-134095539D01*
X204811898Y-134095534D01*
X204813979Y-134093000D01*
X204971521Y-133838910D01*
X204980724Y-133818434D01*
X205088304Y-133579056D01*
X205094074Y-133566217D01*
X205179485Y-133279711D01*
X205180312Y-133274493D01*
X205211904Y-133075025D01*
X205226254Y-132984425D01*
X205230500Y-132890922D01*
X205230500Y-132680834D01*
X208869500Y-132680834D01*
X208884277Y-132903309D01*
X208904441Y-133003309D01*
X208940010Y-133179711D01*
X208943370Y-133196377D01*
X208944443Y-133199493D01*
X209037316Y-133469216D01*
X209040704Y-133479056D01*
X209042176Y-133481995D01*
X209042177Y-133481998D01*
X209076703Y-133550944D01*
X209174569Y-133746378D01*
X209342613Y-133993647D01*
X209541883Y-134216520D01*
X209544381Y-134218661D01*
X209544385Y-134218665D01*
X209766386Y-134408942D01*
X209766392Y-134408946D01*
X209768880Y-134411079D01*
X209771634Y-134412867D01*
X209771636Y-134412869D01*
X209829852Y-134450675D01*
X210019614Y-134573908D01*
X210076885Y-134601102D01*
X210286717Y-134700738D01*
X210286722Y-134700740D01*
X210289681Y-134702145D01*
X210574336Y-134793538D01*
X210777134Y-134830027D01*
X210865337Y-134845897D01*
X210865339Y-134845897D01*
X210868578Y-134846480D01*
X211167236Y-134860042D01*
X211170504Y-134859756D01*
X211170508Y-134859756D01*
X211328918Y-134845897D01*
X211465065Y-134833986D01*
X211719356Y-134777145D01*
X211753625Y-134769485D01*
X211753627Y-134769484D01*
X211756832Y-134768768D01*
X211765617Y-134765536D01*
X211945916Y-134699199D01*
X212037410Y-134665536D01*
X212159620Y-134601102D01*
X212298969Y-134527632D01*
X212298974Y-134527629D01*
X212301870Y-134526102D01*
X212323010Y-134511079D01*
X212542883Y-134354822D01*
X212545565Y-134352916D01*
X212764216Y-134149021D01*
X212810232Y-134093000D01*
X212951894Y-133920539D01*
X212951898Y-133920534D01*
X212953979Y-133918000D01*
X213111521Y-133663910D01*
X213114628Y-133656998D01*
X213232726Y-133394216D01*
X213234074Y-133391217D01*
X213319485Y-133104711D01*
X213323157Y-133081531D01*
X213338104Y-132987156D01*
X213366254Y-132809425D01*
X213367552Y-132780834D01*
X219029500Y-132780834D01*
X219044277Y-133003309D01*
X219064069Y-133101467D01*
X219100010Y-133279711D01*
X219103370Y-133296377D01*
X219104443Y-133299493D01*
X219197316Y-133569216D01*
X219200704Y-133579056D01*
X219334569Y-133846378D01*
X219502613Y-134093647D01*
X219571863Y-134171099D01*
X219679531Y-134291520D01*
X219701883Y-134316520D01*
X219704381Y-134318661D01*
X219704385Y-134318665D01*
X219926386Y-134508942D01*
X219926392Y-134508946D01*
X219928880Y-134511079D01*
X219931634Y-134512867D01*
X219931636Y-134512869D01*
X220011148Y-134564505D01*
X220179614Y-134673908D01*
X220329148Y-134744912D01*
X220446717Y-134800738D01*
X220446722Y-134800740D01*
X220449681Y-134802145D01*
X220734336Y-134893538D01*
X220889633Y-134921480D01*
X221025337Y-134945897D01*
X221025339Y-134945897D01*
X221028578Y-134946480D01*
X221327236Y-134960042D01*
X221330504Y-134959756D01*
X221330508Y-134959756D01*
X221488918Y-134945897D01*
X221625065Y-134933986D01*
X221879356Y-134877145D01*
X221913625Y-134869485D01*
X221913627Y-134869484D01*
X221916832Y-134868768D01*
X221920192Y-134867532D01*
X222121302Y-134793538D01*
X222197410Y-134765536D01*
X222247725Y-134739008D01*
X222458969Y-134627632D01*
X222458974Y-134627629D01*
X222461870Y-134626102D01*
X222494896Y-134602632D01*
X222702883Y-134454822D01*
X222705565Y-134452916D01*
X222924216Y-134249021D01*
X223051842Y-134093647D01*
X223111894Y-134020539D01*
X223111898Y-134020534D01*
X223113979Y-134018000D01*
X223234202Y-133824100D01*
X223269787Y-133766707D01*
X223269788Y-133766705D01*
X223271521Y-133763910D01*
X223280724Y-133743434D01*
X223392726Y-133494216D01*
X223394074Y-133491217D01*
X223479485Y-133204711D01*
X223480312Y-133199493D01*
X223511904Y-133000025D01*
X223526254Y-132909425D01*
X223530500Y-132815922D01*
X223530500Y-130629166D01*
X223515723Y-130406691D01*
X223474479Y-130202143D01*
X223457281Y-130116850D01*
X223457280Y-130116845D01*
X223456630Y-130113623D01*
X223441736Y-130070368D01*
X223360368Y-129834056D01*
X223360365Y-129834050D01*
X223359296Y-129830944D01*
X223351705Y-129815784D01*
X223226905Y-129566566D01*
X223225431Y-129563622D01*
X223057387Y-129316353D01*
X222858117Y-129093480D01*
X222855619Y-129091339D01*
X222855615Y-129091335D01*
X222633614Y-128901058D01*
X222633608Y-128901054D01*
X222631120Y-128898921D01*
X222610779Y-128885711D01*
X222498627Y-128812879D01*
X222380386Y-128736092D01*
X222204181Y-128652424D01*
X222113283Y-128609262D01*
X222113278Y-128609260D01*
X222110319Y-128607855D01*
X221825664Y-128516462D01*
X221604841Y-128476730D01*
X221534663Y-128464103D01*
X221534661Y-128464103D01*
X221531422Y-128463520D01*
X221232764Y-128449958D01*
X221229496Y-128450244D01*
X221229492Y-128450244D01*
X221083849Y-128462986D01*
X220934935Y-128476014D01*
X220786193Y-128509262D01*
X220646375Y-128540515D01*
X220646373Y-128540516D01*
X220643168Y-128541232D01*
X220640084Y-128542367D01*
X220640083Y-128542367D01*
X220617358Y-128550728D01*
X220362590Y-128644464D01*
X220359691Y-128645992D01*
X220359692Y-128645992D01*
X220101031Y-128782368D01*
X220101026Y-128782371D01*
X220098130Y-128783898D01*
X220095454Y-128785800D01*
X220095452Y-128785801D01*
X219973975Y-128872131D01*
X219854435Y-128957084D01*
X219635784Y-129160979D01*
X219633701Y-129163515D01*
X219633700Y-129163516D01*
X219448106Y-129389461D01*
X219448102Y-129389466D01*
X219446021Y-129392000D01*
X219355112Y-129538622D01*
X219303980Y-129621090D01*
X219288479Y-129646090D01*
X219287132Y-129649087D01*
X219287130Y-129649091D01*
X219217960Y-129803002D01*
X219165926Y-129918783D01*
X219080515Y-130205289D01*
X219033746Y-130500575D01*
X219029500Y-130594078D01*
X219029500Y-132780834D01*
X213367552Y-132780834D01*
X213370500Y-132715922D01*
X213370500Y-130529166D01*
X213355723Y-130306691D01*
X213314479Y-130102143D01*
X213297281Y-130016850D01*
X213297280Y-130016845D01*
X213296630Y-130013623D01*
X213258540Y-129903002D01*
X213200368Y-129734056D01*
X213200365Y-129734050D01*
X213199296Y-129730944D01*
X213195865Y-129724091D01*
X213101625Y-129535900D01*
X213065431Y-129463622D01*
X212897387Y-129216353D01*
X212756467Y-129058741D01*
X212700315Y-128995938D01*
X212700313Y-128995936D01*
X212698117Y-128993480D01*
X212695619Y-128991339D01*
X212695615Y-128991335D01*
X212473614Y-128801058D01*
X212473608Y-128801054D01*
X212471120Y-128798921D01*
X212220386Y-128636092D01*
X212041212Y-128551014D01*
X211953283Y-128509262D01*
X211953278Y-128509260D01*
X211950319Y-128507855D01*
X211665664Y-128416462D01*
X211444841Y-128376730D01*
X211374663Y-128364103D01*
X211374661Y-128364103D01*
X211371422Y-128363520D01*
X211072764Y-128349958D01*
X211069496Y-128350244D01*
X211069492Y-128350244D01*
X210923850Y-128362986D01*
X210774935Y-128376014D01*
X210596590Y-128415879D01*
X210486375Y-128440515D01*
X210486373Y-128440516D01*
X210483168Y-128441232D01*
X210202590Y-128544464D01*
X210199691Y-128545992D01*
X210199692Y-128545992D01*
X209941031Y-128682368D01*
X209941026Y-128682371D01*
X209938130Y-128683898D01*
X209935454Y-128685800D01*
X209935452Y-128685801D01*
X209822087Y-128766366D01*
X209694435Y-128857084D01*
X209475784Y-129060979D01*
X209473701Y-129063515D01*
X209473700Y-129063516D01*
X209288106Y-129289461D01*
X209288102Y-129289466D01*
X209286021Y-129292000D01*
X209128479Y-129546090D01*
X209127132Y-129549087D01*
X209127130Y-129549091D01*
X209054958Y-129709682D01*
X209005926Y-129818783D01*
X208920515Y-130105289D01*
X208920002Y-130108530D01*
X208920001Y-130108533D01*
X208919195Y-130113623D01*
X208873746Y-130400575D01*
X208869500Y-130494078D01*
X208869500Y-132680834D01*
X205230500Y-132680834D01*
X205230500Y-130704166D01*
X205215723Y-130481691D01*
X205160645Y-130208533D01*
X205157281Y-130191850D01*
X205157280Y-130191845D01*
X205156630Y-130188623D01*
X205131917Y-130116850D01*
X205060368Y-129909056D01*
X205060365Y-129909050D01*
X205059296Y-129905944D01*
X205051705Y-129890784D01*
X204930673Y-129649091D01*
X204925431Y-129638622D01*
X204757387Y-129391353D01*
X204558117Y-129168480D01*
X204555619Y-129166339D01*
X204555615Y-129166335D01*
X204333614Y-128976058D01*
X204333608Y-128976054D01*
X204331120Y-128973921D01*
X204305194Y-128957084D01*
X204218062Y-128900500D01*
X204080386Y-128811092D01*
X203930852Y-128740088D01*
X203813283Y-128684262D01*
X203813278Y-128684260D01*
X203810319Y-128682855D01*
X203525664Y-128591462D01*
X203304841Y-128551730D01*
X203234663Y-128539103D01*
X203234661Y-128539103D01*
X203231422Y-128538520D01*
X202932764Y-128524958D01*
X202929496Y-128525244D01*
X202929492Y-128525244D01*
X202783849Y-128537986D01*
X202634935Y-128551014D01*
X202486193Y-128584262D01*
X202346375Y-128615515D01*
X202346373Y-128615516D01*
X202343168Y-128616232D01*
X202340084Y-128617367D01*
X202340083Y-128617367D01*
X202293008Y-128634687D01*
X202062590Y-128719464D01*
X202059691Y-128720992D01*
X202059692Y-128720992D01*
X201801031Y-128857368D01*
X201801026Y-128857371D01*
X201798130Y-128858898D01*
X201795454Y-128860800D01*
X201795452Y-128860801D01*
X201738805Y-128901058D01*
X201554435Y-129032084D01*
X201335784Y-129235979D01*
X201333701Y-129238515D01*
X201333700Y-129238516D01*
X201148106Y-129464461D01*
X201148102Y-129464466D01*
X201146021Y-129467000D01*
X200988479Y-129721090D01*
X200987132Y-129724087D01*
X200987130Y-129724091D01*
X200945922Y-129815784D01*
X200865926Y-129993783D01*
X200780515Y-130280289D01*
X200780002Y-130283530D01*
X200780001Y-130283533D01*
X200776333Y-130306691D01*
X200733746Y-130575575D01*
X200729500Y-130669078D01*
X200729500Y-132855834D01*
X195067552Y-132855834D01*
X195070500Y-132790922D01*
X195070500Y-130604166D01*
X195055723Y-130381691D01*
X195000645Y-130108533D01*
X194997281Y-130091850D01*
X194997280Y-130091845D01*
X194996630Y-130088623D01*
X194971917Y-130016850D01*
X194900368Y-129809056D01*
X194900365Y-129809050D01*
X194899296Y-129805944D01*
X194765431Y-129538622D01*
X194597387Y-129291353D01*
X194422667Y-129095938D01*
X194400315Y-129070938D01*
X194400313Y-129070936D01*
X194398117Y-129068480D01*
X194395619Y-129066339D01*
X194395615Y-129066335D01*
X194173614Y-128876058D01*
X194173608Y-128876054D01*
X194171120Y-128873921D01*
X194145194Y-128857084D01*
X193996931Y-128760801D01*
X193920386Y-128711092D01*
X193770852Y-128640088D01*
X193653283Y-128584262D01*
X193653278Y-128584260D01*
X193650319Y-128582855D01*
X193365664Y-128491462D01*
X193144841Y-128451730D01*
X193074663Y-128439103D01*
X193074661Y-128439103D01*
X193071422Y-128438520D01*
X192772764Y-128424958D01*
X192769496Y-128425244D01*
X192769492Y-128425244D01*
X192623850Y-128437986D01*
X192474935Y-128451014D01*
X192359889Y-128476730D01*
X192186375Y-128515515D01*
X192186373Y-128515516D01*
X192183168Y-128516232D01*
X192180084Y-128517367D01*
X192180083Y-128517367D01*
X192159451Y-128524958D01*
X191902590Y-128619464D01*
X191899691Y-128620992D01*
X191899692Y-128620992D01*
X191641031Y-128757368D01*
X191641026Y-128757371D01*
X191638130Y-128758898D01*
X191635454Y-128760800D01*
X191635452Y-128760801D01*
X191602952Y-128783898D01*
X191394435Y-128932084D01*
X191175784Y-129135979D01*
X191173701Y-129138515D01*
X191173700Y-129138516D01*
X190988106Y-129364461D01*
X190988102Y-129364466D01*
X190986021Y-129367000D01*
X190968788Y-129394794D01*
X190864111Y-129563622D01*
X190828479Y-129621090D01*
X190827132Y-129624087D01*
X190827130Y-129624091D01*
X190780431Y-129728002D01*
X190705926Y-129893783D01*
X190620515Y-130180289D01*
X190620002Y-130183530D01*
X190620001Y-130183533D01*
X190606003Y-130271913D01*
X190573746Y-130475575D01*
X190569500Y-130569078D01*
X190569500Y-132755834D01*
X186720500Y-132755834D01*
X186720500Y-126669754D01*
X196744967Y-126669754D01*
X196747331Y-126705828D01*
X196757427Y-126859854D01*
X196758796Y-126880749D01*
X196759912Y-126885142D01*
X196759912Y-126885144D01*
X196782414Y-126973743D01*
X196810845Y-127085690D01*
X196812747Y-127089815D01*
X196812747Y-127089816D01*
X196895247Y-127268772D01*
X196899369Y-127277714D01*
X197021405Y-127450391D01*
X197172865Y-127597937D01*
X197176638Y-127600458D01*
X197344899Y-127712887D01*
X197344902Y-127712889D01*
X197348677Y-127715411D01*
X197445472Y-127756997D01*
X197538774Y-127797083D01*
X197538778Y-127797084D01*
X197542953Y-127798878D01*
X197577320Y-127806655D01*
X197744760Y-127844543D01*
X197744765Y-127844544D01*
X197749186Y-127845544D01*
X197854828Y-127849695D01*
X197955937Y-127853668D01*
X197955938Y-127853668D01*
X197960470Y-127853846D01*
X198169730Y-127823504D01*
X198174029Y-127822045D01*
X198174032Y-127822044D01*
X198365654Y-127756997D01*
X198369955Y-127755537D01*
X198376902Y-127751647D01*
X198469407Y-127699841D01*
X198554442Y-127652219D01*
X198574517Y-127635523D01*
X199863859Y-127635523D01*
X199863866Y-127635568D01*
X199869389Y-127641783D01*
X199909103Y-127668319D01*
X199917052Y-127672635D01*
X200094446Y-127748849D01*
X200103058Y-127751647D01*
X200291380Y-127794261D01*
X200300339Y-127795440D01*
X200493289Y-127803021D01*
X200502299Y-127802549D01*
X200693399Y-127774841D01*
X200702191Y-127772730D01*
X200885026Y-127710666D01*
X200893290Y-127706986D01*
X201007903Y-127642800D01*
X201016105Y-127633927D01*
X201011203Y-127624756D01*
X200451086Y-127064639D01*
X200439203Y-127058585D01*
X200434172Y-127059381D01*
X199869913Y-127623640D01*
X199863859Y-127635523D01*
X198574517Y-127635523D01*
X198717012Y-127517012D01*
X198852219Y-127354442D01*
X198955537Y-127169955D01*
X198963999Y-127145026D01*
X199022044Y-126974032D01*
X199022045Y-126974029D01*
X199023504Y-126969730D01*
X199038213Y-126868289D01*
X199053426Y-126763369D01*
X199053426Y-126763363D01*
X199053846Y-126760470D01*
X199055277Y-126705828D01*
X199055353Y-126702914D01*
X199055353Y-126702909D01*
X199055429Y-126700000D01*
X199055152Y-126696977D01*
X199053188Y-126675610D01*
X199335963Y-126675610D01*
X199348591Y-126868289D01*
X199350004Y-126877210D01*
X199397534Y-127064359D01*
X199400554Y-127072887D01*
X199481389Y-127248232D01*
X199485910Y-127256063D01*
X199495276Y-127269316D01*
X199505963Y-127277296D01*
X199506712Y-127277306D01*
X199512843Y-127273604D01*
X200075361Y-126711086D01*
X200080603Y-126700797D01*
X200798585Y-126700797D01*
X200799381Y-126705828D01*
X201364052Y-127270499D01*
X201374814Y-127275982D01*
X201382314Y-127268772D01*
X201446986Y-127153290D01*
X201450666Y-127145026D01*
X201512730Y-126962191D01*
X201514841Y-126953399D01*
X201542782Y-126760691D01*
X201543275Y-126754907D01*
X201544637Y-126702914D01*
X201544447Y-126697101D01*
X201535042Y-126594754D01*
X215044967Y-126594754D01*
X215049883Y-126669754D01*
X215058429Y-126800146D01*
X215058796Y-126805749D01*
X215059912Y-126810142D01*
X215059912Y-126810144D01*
X215101535Y-126974032D01*
X215110845Y-127010690D01*
X215112747Y-127014815D01*
X215112747Y-127014816D01*
X215195247Y-127193772D01*
X215199369Y-127202714D01*
X215321405Y-127375391D01*
X215472865Y-127522937D01*
X215476638Y-127525458D01*
X215644899Y-127637887D01*
X215644902Y-127637889D01*
X215648677Y-127640411D01*
X215745472Y-127681997D01*
X215838774Y-127722083D01*
X215838778Y-127722084D01*
X215842953Y-127723878D01*
X215877320Y-127731655D01*
X216044760Y-127769543D01*
X216044765Y-127769544D01*
X216049186Y-127770544D01*
X216154828Y-127774695D01*
X216255937Y-127778668D01*
X216255938Y-127778668D01*
X216260470Y-127778846D01*
X216469730Y-127748504D01*
X216474029Y-127747045D01*
X216474032Y-127747044D01*
X216665654Y-127681997D01*
X216669955Y-127680537D01*
X216676902Y-127676647D01*
X216817447Y-127597937D01*
X216854442Y-127577219D01*
X216874517Y-127560523D01*
X218163859Y-127560523D01*
X218163866Y-127560568D01*
X218169389Y-127566783D01*
X218209103Y-127593319D01*
X218217052Y-127597635D01*
X218394446Y-127673849D01*
X218403058Y-127676647D01*
X218591380Y-127719261D01*
X218600339Y-127720440D01*
X218793289Y-127728021D01*
X218802299Y-127727549D01*
X218993399Y-127699841D01*
X219002191Y-127697730D01*
X219185026Y-127635666D01*
X219193290Y-127631986D01*
X219307903Y-127567800D01*
X219316105Y-127558927D01*
X219311203Y-127549756D01*
X218751086Y-126989639D01*
X218739203Y-126983585D01*
X218734172Y-126984381D01*
X218169913Y-127548640D01*
X218163859Y-127560523D01*
X216874517Y-127560523D01*
X217017012Y-127442012D01*
X217152219Y-127279442D01*
X217208013Y-127179815D01*
X217253319Y-127098916D01*
X217253320Y-127098914D01*
X217255537Y-127094955D01*
X217273692Y-127041473D01*
X217322044Y-126899032D01*
X217322045Y-126899029D01*
X217323504Y-126894730D01*
X217337218Y-126800146D01*
X217353426Y-126688369D01*
X217353426Y-126688363D01*
X217353846Y-126685470D01*
X217354105Y-126675610D01*
X217355353Y-126627914D01*
X217355353Y-126627909D01*
X217355429Y-126625000D01*
X217354894Y-126619172D01*
X217353188Y-126600610D01*
X217635963Y-126600610D01*
X217648591Y-126793289D01*
X217650004Y-126802210D01*
X217697534Y-126989359D01*
X217700554Y-126997887D01*
X217781389Y-127173232D01*
X217785910Y-127181063D01*
X217795276Y-127194316D01*
X217805963Y-127202296D01*
X217806712Y-127202306D01*
X217812843Y-127198604D01*
X218375361Y-126636086D01*
X218380603Y-126625797D01*
X219098585Y-126625797D01*
X219099381Y-126630828D01*
X219664052Y-127195499D01*
X219674814Y-127200982D01*
X219682314Y-127193772D01*
X219746986Y-127078290D01*
X219750666Y-127070026D01*
X219812730Y-126887191D01*
X219814841Y-126878399D01*
X219842782Y-126685691D01*
X219843275Y-126679907D01*
X219844637Y-126627914D01*
X219844447Y-126622101D01*
X219826629Y-126428200D01*
X219824982Y-126419314D01*
X219772570Y-126233473D01*
X219769332Y-126225038D01*
X219684130Y-126052265D01*
X219675641Y-126046267D01*
X219674193Y-126046286D01*
X219669101Y-126049452D01*
X219104639Y-126613914D01*
X219098585Y-126625797D01*
X218380603Y-126625797D01*
X218381415Y-126624203D01*
X218380619Y-126619172D01*
X217814690Y-126053243D01*
X217804333Y-126047966D01*
X217796458Y-126055739D01*
X217721490Y-126198231D01*
X217718032Y-126206579D01*
X217660773Y-126390984D01*
X217658895Y-126399821D01*
X217636199Y-126591578D01*
X217635963Y-126600610D01*
X217353188Y-126600610D01*
X217341629Y-126474821D01*
X217336081Y-126414440D01*
X217318027Y-126350425D01*
X217279920Y-126215306D01*
X217279920Y-126215305D01*
X217278686Y-126210931D01*
X217185165Y-126021290D01*
X217058651Y-125851867D01*
X216903381Y-125708337D01*
X216892281Y-125701333D01*
X216877408Y-125691949D01*
X218164323Y-125691949D01*
X218169021Y-125700468D01*
X218728914Y-126260361D01*
X218740797Y-126266415D01*
X218745828Y-126265619D01*
X219309676Y-125701771D01*
X219315554Y-125690233D01*
X219309461Y-125683555D01*
X219245363Y-125643113D01*
X219237318Y-125639014D01*
X219057969Y-125567460D01*
X219049306Y-125564894D01*
X218859928Y-125527225D01*
X218850935Y-125526280D01*
X218657864Y-125523751D01*
X218648849Y-125524461D01*
X218458555Y-125557160D01*
X218449819Y-125559501D01*
X218268663Y-125626333D01*
X218260512Y-125630220D01*
X218172581Y-125682533D01*
X218164323Y-125691949D01*
X216877408Y-125691949D01*
X216740293Y-125605435D01*
X216724554Y-125595505D01*
X216528160Y-125517152D01*
X216320775Y-125475901D01*
X216216599Y-125474537D01*
X216113886Y-125473192D01*
X216113881Y-125473192D01*
X216109346Y-125473133D01*
X216104873Y-125473902D01*
X216104868Y-125473902D01*
X216001601Y-125491647D01*
X215900953Y-125508941D01*
X215702575Y-125582127D01*
X215698676Y-125584446D01*
X215698671Y-125584449D01*
X215533807Y-125682533D01*
X215520856Y-125690238D01*
X215517441Y-125693233D01*
X215517438Y-125693235D01*
X215442955Y-125758555D01*
X215361881Y-125829655D01*
X215359073Y-125833217D01*
X215263172Y-125954868D01*
X215230976Y-125995708D01*
X215228862Y-125999726D01*
X215153318Y-126143312D01*
X215132523Y-126182836D01*
X215131179Y-126187165D01*
X215074251Y-126370504D01*
X215069820Y-126384773D01*
X215069286Y-126389283D01*
X215069286Y-126389284D01*
X215049926Y-126552860D01*
X215044967Y-126594754D01*
X201535042Y-126594754D01*
X201526629Y-126503200D01*
X201524982Y-126494314D01*
X201472570Y-126308473D01*
X201469332Y-126300038D01*
X201384130Y-126127265D01*
X201375641Y-126121267D01*
X201374193Y-126121286D01*
X201369101Y-126124452D01*
X200804639Y-126688914D01*
X200798585Y-126700797D01*
X200080603Y-126700797D01*
X200081415Y-126699203D01*
X200080619Y-126694172D01*
X199514690Y-126128243D01*
X199504333Y-126122966D01*
X199496458Y-126130739D01*
X199421490Y-126273231D01*
X199418032Y-126281579D01*
X199360773Y-126465984D01*
X199358895Y-126474821D01*
X199336199Y-126666578D01*
X199335963Y-126675610D01*
X199053188Y-126675610D01*
X199043244Y-126567394D01*
X199036081Y-126489440D01*
X198996875Y-126350425D01*
X198979920Y-126290306D01*
X198979920Y-126290305D01*
X198978686Y-126285931D01*
X198885165Y-126096290D01*
X198758651Y-125926867D01*
X198603381Y-125783337D01*
X198599212Y-125780706D01*
X198577408Y-125766949D01*
X199864323Y-125766949D01*
X199869021Y-125775468D01*
X200428914Y-126335361D01*
X200440797Y-126341415D01*
X200445828Y-126340619D01*
X201009676Y-125776771D01*
X201015554Y-125765233D01*
X201009461Y-125758555D01*
X200945363Y-125718113D01*
X200937318Y-125714014D01*
X200757969Y-125642460D01*
X200749306Y-125639894D01*
X200559928Y-125602225D01*
X200550935Y-125601280D01*
X200357864Y-125598751D01*
X200348849Y-125599461D01*
X200158555Y-125632160D01*
X200149819Y-125634501D01*
X199968663Y-125701333D01*
X199960512Y-125705220D01*
X199872581Y-125757533D01*
X199864323Y-125766949D01*
X198577408Y-125766949D01*
X198437254Y-125678518D01*
X198424554Y-125670505D01*
X198228160Y-125592152D01*
X198020775Y-125550901D01*
X197916599Y-125549537D01*
X197813886Y-125548192D01*
X197813881Y-125548192D01*
X197809346Y-125548133D01*
X197804873Y-125548902D01*
X197804868Y-125548902D01*
X197711801Y-125564894D01*
X197600953Y-125583941D01*
X197402575Y-125657127D01*
X197398676Y-125659446D01*
X197398671Y-125659449D01*
X197245677Y-125750471D01*
X197220856Y-125765238D01*
X197217441Y-125768233D01*
X197217438Y-125768235D01*
X197122074Y-125851867D01*
X197061881Y-125904655D01*
X197059073Y-125908217D01*
X196942777Y-126055739D01*
X196930976Y-126070708D01*
X196928862Y-126074726D01*
X196859491Y-126206579D01*
X196832523Y-126257836D01*
X196831179Y-126262165D01*
X196778256Y-126432606D01*
X196769820Y-126459773D01*
X196769286Y-126464283D01*
X196769286Y-126464284D01*
X196756858Y-126569292D01*
X196744967Y-126669754D01*
X186720500Y-126669754D01*
X186720500Y-125187906D01*
X186739407Y-125129715D01*
X186749496Y-125117902D01*
X190307902Y-121559496D01*
X190362419Y-121531719D01*
X190377906Y-121530500D01*
X194733436Y-121530500D01*
X194791627Y-121549407D01*
X194827591Y-121598907D01*
X194827591Y-121660093D01*
X194803440Y-121699504D01*
X193615076Y-122887868D01*
X195170711Y-124443503D01*
X195540165Y-124074049D01*
X227045194Y-124074049D01*
X227045370Y-124077714D01*
X227045370Y-124077717D01*
X227046420Y-124099582D01*
X227057677Y-124333930D01*
X227108435Y-124589112D01*
X227109675Y-124592567D01*
X227109676Y-124592569D01*
X227154299Y-124716854D01*
X227196355Y-124833989D01*
X227319504Y-125063180D01*
X227321704Y-125066126D01*
X227412642Y-125187906D01*
X227475177Y-125271651D01*
X227659954Y-125454823D01*
X227662913Y-125456993D01*
X227662917Y-125456996D01*
X227735903Y-125510511D01*
X227869775Y-125608670D01*
X228100033Y-125729815D01*
X228103504Y-125731027D01*
X228103506Y-125731028D01*
X228159183Y-125750471D01*
X228345667Y-125815594D01*
X228349271Y-125816278D01*
X228349270Y-125816278D01*
X228597673Y-125863439D01*
X228597675Y-125863439D01*
X228601282Y-125864124D01*
X228742613Y-125869677D01*
X228857593Y-125874195D01*
X228857596Y-125874195D01*
X228861263Y-125874339D01*
X228994123Y-125859789D01*
X229116257Y-125846413D01*
X229116260Y-125846412D01*
X229119898Y-125846014D01*
X229346266Y-125786416D01*
X229367954Y-125780706D01*
X229367955Y-125780706D01*
X229371505Y-125779771D01*
X229610557Y-125677066D01*
X229617247Y-125672926D01*
X229828677Y-125542090D01*
X229828682Y-125542086D01*
X229831803Y-125540155D01*
X229851181Y-125523751D01*
X229930035Y-125456996D01*
X230030382Y-125372046D01*
X230201931Y-125176431D01*
X230342683Y-124957608D01*
X230346323Y-124949529D01*
X230448036Y-124723733D01*
X230448037Y-124723731D01*
X230449544Y-124720385D01*
X230460608Y-124681157D01*
X230493787Y-124563511D01*
X230520168Y-124469972D01*
X230553002Y-124211871D01*
X230554015Y-124173192D01*
X230555343Y-124122492D01*
X230555343Y-124122487D01*
X230555408Y-124120000D01*
X230555224Y-124117527D01*
X230555224Y-124117517D01*
X230551994Y-124074049D01*
X231875194Y-124074049D01*
X231875370Y-124077714D01*
X231875370Y-124077717D01*
X231876420Y-124099582D01*
X231887677Y-124333930D01*
X231938435Y-124589112D01*
X231939675Y-124592567D01*
X231939676Y-124592569D01*
X231984299Y-124716854D01*
X232026355Y-124833989D01*
X232149504Y-125063180D01*
X232151704Y-125066126D01*
X232242642Y-125187906D01*
X232305177Y-125271651D01*
X232489954Y-125454823D01*
X232492913Y-125456993D01*
X232492917Y-125456996D01*
X232565903Y-125510511D01*
X232699775Y-125608670D01*
X232930033Y-125729815D01*
X232933504Y-125731027D01*
X232933506Y-125731028D01*
X232989183Y-125750471D01*
X233175667Y-125815594D01*
X233179271Y-125816278D01*
X233179270Y-125816278D01*
X233427673Y-125863439D01*
X233427675Y-125863439D01*
X233431282Y-125864124D01*
X233572613Y-125869677D01*
X233687593Y-125874195D01*
X233687596Y-125874195D01*
X233691263Y-125874339D01*
X233824123Y-125859789D01*
X233946257Y-125846413D01*
X233946260Y-125846412D01*
X233949898Y-125846014D01*
X234176266Y-125786416D01*
X234197954Y-125780706D01*
X234197955Y-125780706D01*
X234201505Y-125779771D01*
X234440557Y-125677066D01*
X234447247Y-125672926D01*
X234658677Y-125542090D01*
X234658682Y-125542086D01*
X234661803Y-125540155D01*
X234681181Y-125523751D01*
X234760035Y-125456996D01*
X234860382Y-125372046D01*
X235031931Y-125176431D01*
X235172683Y-124957608D01*
X235176323Y-124949529D01*
X235278036Y-124723733D01*
X235278037Y-124723731D01*
X235279544Y-124720385D01*
X235290608Y-124681157D01*
X235323787Y-124563511D01*
X235350168Y-124469972D01*
X235383002Y-124211871D01*
X235384015Y-124173192D01*
X235385343Y-124122492D01*
X235385343Y-124122487D01*
X235385408Y-124120000D01*
X235385224Y-124117527D01*
X235385224Y-124117517D01*
X235381994Y-124074049D01*
X236705194Y-124074049D01*
X236705370Y-124077714D01*
X236705370Y-124077717D01*
X236706420Y-124099582D01*
X236717677Y-124333930D01*
X236768435Y-124589112D01*
X236769675Y-124592567D01*
X236769676Y-124592569D01*
X236814299Y-124716854D01*
X236856355Y-124833989D01*
X236979504Y-125063180D01*
X236981704Y-125066126D01*
X237072642Y-125187906D01*
X237135177Y-125271651D01*
X237319954Y-125454823D01*
X237322913Y-125456993D01*
X237322917Y-125456996D01*
X237395903Y-125510511D01*
X237529775Y-125608670D01*
X237760033Y-125729815D01*
X237763504Y-125731027D01*
X237763506Y-125731028D01*
X237819183Y-125750471D01*
X238005667Y-125815594D01*
X238009271Y-125816278D01*
X238009270Y-125816278D01*
X238257673Y-125863439D01*
X238257675Y-125863439D01*
X238261282Y-125864124D01*
X238402613Y-125869677D01*
X238517593Y-125874195D01*
X238517596Y-125874195D01*
X238521263Y-125874339D01*
X238654123Y-125859789D01*
X238776257Y-125846413D01*
X238776260Y-125846412D01*
X238779898Y-125846014D01*
X239006266Y-125786416D01*
X239027954Y-125780706D01*
X239027955Y-125780706D01*
X239031505Y-125779771D01*
X239270557Y-125677066D01*
X239277247Y-125672926D01*
X239488677Y-125542090D01*
X239488682Y-125542086D01*
X239491803Y-125540155D01*
X239511181Y-125523751D01*
X239590035Y-125456996D01*
X239690382Y-125372046D01*
X239861931Y-125176431D01*
X240002683Y-124957608D01*
X240006323Y-124949529D01*
X240108036Y-124723733D01*
X240108037Y-124723731D01*
X240109544Y-124720385D01*
X240120608Y-124681157D01*
X240153787Y-124563511D01*
X240180168Y-124469972D01*
X240213002Y-124211871D01*
X240214015Y-124173192D01*
X240215343Y-124122492D01*
X240215343Y-124122487D01*
X240215408Y-124120000D01*
X240215224Y-124117527D01*
X240215224Y-124117517D01*
X240196398Y-123864188D01*
X240196397Y-123864182D01*
X240196126Y-123860534D01*
X240138705Y-123606768D01*
X240123071Y-123566564D01*
X240077133Y-123448436D01*
X240044405Y-123364277D01*
X239915299Y-123138388D01*
X239909279Y-123130751D01*
X239756502Y-122936955D01*
X239754223Y-122934064D01*
X239751550Y-122931550D01*
X239751545Y-122931544D01*
X239567387Y-122758306D01*
X239567383Y-122758303D01*
X239564714Y-122755792D01*
X239350937Y-122607489D01*
X239117587Y-122492414D01*
X239062342Y-122474730D01*
X238873288Y-122414213D01*
X238873287Y-122414213D01*
X238869792Y-122413094D01*
X238866175Y-122412505D01*
X238866171Y-122412504D01*
X238616613Y-122371861D01*
X238616608Y-122371861D01*
X238612994Y-122371272D01*
X238609329Y-122371224D01*
X238516844Y-122370013D01*
X238352835Y-122367866D01*
X238349207Y-122368360D01*
X238349203Y-122368360D01*
X238223932Y-122385409D01*
X238095030Y-122402952D01*
X237845243Y-122475758D01*
X237821150Y-122486865D01*
X237612296Y-122583148D01*
X237612290Y-122583151D01*
X237608961Y-122584686D01*
X237448247Y-122690054D01*
X237397696Y-122723197D01*
X237391375Y-122727341D01*
X237388643Y-122729780D01*
X237388641Y-122729781D01*
X237253739Y-122850186D01*
X237197265Y-122900591D01*
X237194918Y-122903413D01*
X237194917Y-122903414D01*
X237120107Y-122993363D01*
X237030895Y-123100629D01*
X236895920Y-123323061D01*
X236795305Y-123563001D01*
X236731261Y-123815177D01*
X236705194Y-124074049D01*
X235381994Y-124074049D01*
X235366398Y-123864188D01*
X235366397Y-123864182D01*
X235366126Y-123860534D01*
X235308705Y-123606768D01*
X235293071Y-123566564D01*
X235247133Y-123448436D01*
X235214405Y-123364277D01*
X235085299Y-123138388D01*
X235079279Y-123130751D01*
X234926502Y-122936955D01*
X234924223Y-122934064D01*
X234921550Y-122931550D01*
X234921545Y-122931544D01*
X234737387Y-122758306D01*
X234737383Y-122758303D01*
X234734714Y-122755792D01*
X234520937Y-122607489D01*
X234287587Y-122492414D01*
X234232342Y-122474730D01*
X234043288Y-122414213D01*
X234043287Y-122414213D01*
X234039792Y-122413094D01*
X234036175Y-122412505D01*
X234036171Y-122412504D01*
X233786613Y-122371861D01*
X233786608Y-122371861D01*
X233782994Y-122371272D01*
X233779329Y-122371224D01*
X233686844Y-122370013D01*
X233522835Y-122367866D01*
X233519207Y-122368360D01*
X233519203Y-122368360D01*
X233393932Y-122385409D01*
X233265030Y-122402952D01*
X233015243Y-122475758D01*
X232991150Y-122486865D01*
X232782296Y-122583148D01*
X232782290Y-122583151D01*
X232778961Y-122584686D01*
X232618247Y-122690054D01*
X232567696Y-122723197D01*
X232561375Y-122727341D01*
X232558643Y-122729780D01*
X232558641Y-122729781D01*
X232423739Y-122850186D01*
X232367265Y-122900591D01*
X232364918Y-122903413D01*
X232364917Y-122903414D01*
X232290107Y-122993363D01*
X232200895Y-123100629D01*
X232065920Y-123323061D01*
X231965305Y-123563001D01*
X231901261Y-123815177D01*
X231875194Y-124074049D01*
X230551994Y-124074049D01*
X230536398Y-123864188D01*
X230536397Y-123864182D01*
X230536126Y-123860534D01*
X230478705Y-123606768D01*
X230463071Y-123566564D01*
X230417133Y-123448436D01*
X230384405Y-123364277D01*
X230255299Y-123138388D01*
X230249279Y-123130751D01*
X230096502Y-122936955D01*
X230094223Y-122934064D01*
X230091550Y-122931550D01*
X230091545Y-122931544D01*
X229907387Y-122758306D01*
X229907383Y-122758303D01*
X229904714Y-122755792D01*
X229690937Y-122607489D01*
X229457587Y-122492414D01*
X229402342Y-122474730D01*
X229213288Y-122414213D01*
X229213287Y-122414213D01*
X229209792Y-122413094D01*
X229206175Y-122412505D01*
X229206171Y-122412504D01*
X228956613Y-122371861D01*
X228956608Y-122371861D01*
X228952994Y-122371272D01*
X228949329Y-122371224D01*
X228856844Y-122370013D01*
X228692835Y-122367866D01*
X228689207Y-122368360D01*
X228689203Y-122368360D01*
X228563932Y-122385409D01*
X228435030Y-122402952D01*
X228185243Y-122475758D01*
X228161150Y-122486865D01*
X227952296Y-122583148D01*
X227952290Y-122583151D01*
X227948961Y-122584686D01*
X227788247Y-122690054D01*
X227737696Y-122723197D01*
X227731375Y-122727341D01*
X227728643Y-122729780D01*
X227728641Y-122729781D01*
X227593739Y-122850186D01*
X227537265Y-122900591D01*
X227534918Y-122903413D01*
X227534917Y-122903414D01*
X227460107Y-122993363D01*
X227370895Y-123100629D01*
X227235920Y-123323061D01*
X227135305Y-123563001D01*
X227071261Y-123815177D01*
X227045194Y-124074049D01*
X195540165Y-124074049D01*
X196443503Y-123170711D01*
X194972296Y-121699504D01*
X194944519Y-121644987D01*
X194954090Y-121584555D01*
X194997355Y-121541290D01*
X195042300Y-121530500D01*
X200223167Y-121530500D01*
X200281358Y-121549407D01*
X200317322Y-121598907D01*
X200317322Y-121660093D01*
X200281358Y-121709593D01*
X200268122Y-121717704D01*
X200253198Y-121725308D01*
X200238856Y-121731249D01*
X200215910Y-121738704D01*
X200196386Y-121752889D01*
X200183156Y-121760996D01*
X200161658Y-121771950D01*
X200139091Y-121794517D01*
X199481892Y-122451715D01*
X199424812Y-122479864D01*
X199394452Y-122483861D01*
X199369249Y-122487179D01*
X199369248Y-122487179D01*
X199362817Y-122488026D01*
X199356823Y-122490509D01*
X199356822Y-122490509D01*
X199262696Y-122529497D01*
X199234983Y-122540976D01*
X199229834Y-122544927D01*
X199185374Y-122579042D01*
X199125107Y-122599500D01*
X198987793Y-122599500D01*
X198927527Y-122579043D01*
X198869269Y-122534339D01*
X198863277Y-122531857D01*
X198863275Y-122531856D01*
X198771986Y-122494044D01*
X198741434Y-122481389D01*
X198735005Y-122480543D01*
X198735003Y-122480542D01*
X198610684Y-122464175D01*
X198604251Y-122463328D01*
X198597818Y-122464175D01*
X198473499Y-122480542D01*
X198473497Y-122480543D01*
X198467068Y-122481389D01*
X198456791Y-122485646D01*
X198345232Y-122531854D01*
X198345228Y-122531856D01*
X198339234Y-122534339D01*
X198229460Y-122618572D01*
X198145227Y-122728346D01*
X198142744Y-122734340D01*
X198142742Y-122734344D01*
X198132817Y-122758306D01*
X198092277Y-122856180D01*
X198091431Y-122862609D01*
X198091430Y-122862611D01*
X198086430Y-122900591D01*
X198074216Y-122993363D01*
X198092277Y-123130546D01*
X198094760Y-123136540D01*
X198142742Y-123252382D01*
X198142744Y-123252386D01*
X198145227Y-123258380D01*
X198229460Y-123368154D01*
X198339233Y-123452387D01*
X198467068Y-123505337D01*
X198473497Y-123506183D01*
X198473499Y-123506184D01*
X198597818Y-123522551D01*
X198604251Y-123523398D01*
X198610684Y-123522551D01*
X198735003Y-123506184D01*
X198735005Y-123506183D01*
X198741434Y-123505337D01*
X198853246Y-123459024D01*
X198863275Y-123454870D01*
X198863277Y-123454869D01*
X198869269Y-123452387D01*
X198910226Y-123420959D01*
X198970494Y-123400500D01*
X199125106Y-123400500D01*
X199185374Y-123420958D01*
X199234982Y-123459024D01*
X199362817Y-123511974D01*
X199369246Y-123512820D01*
X199369248Y-123512821D01*
X199493567Y-123529188D01*
X199500000Y-123530035D01*
X199506433Y-123529188D01*
X199630752Y-123512821D01*
X199630754Y-123512820D01*
X199637183Y-123511974D01*
X199765018Y-123459024D01*
X199874791Y-123374791D01*
X199959024Y-123265017D01*
X199961507Y-123259023D01*
X199961509Y-123259019D01*
X200009491Y-123143178D01*
X200009491Y-123143177D01*
X200011974Y-123137183D01*
X200020136Y-123075188D01*
X200048285Y-123018109D01*
X200536896Y-122529497D01*
X200591413Y-122501719D01*
X200606900Y-122500500D01*
X222663433Y-122500500D01*
X222686380Y-122493044D01*
X222701481Y-122489419D01*
X222717609Y-122486865D01*
X222717611Y-122486864D01*
X222725304Y-122485646D01*
X222746797Y-122474695D01*
X222761143Y-122468752D01*
X222776679Y-122463704D01*
X222784090Y-122461296D01*
X222803607Y-122447116D01*
X222816846Y-122439002D01*
X222838342Y-122428050D01*
X222860905Y-122405487D01*
X222860909Y-122405484D01*
X224526896Y-120739496D01*
X224581413Y-120711719D01*
X224596900Y-120710500D01*
X227014409Y-120710500D01*
X227072600Y-120729407D01*
X227107349Y-120779502D01*
X227108435Y-120779112D01*
X227196355Y-121023989D01*
X227319504Y-121253180D01*
X227475177Y-121461651D01*
X227659954Y-121644823D01*
X227662913Y-121646993D01*
X227662917Y-121646996D01*
X227747973Y-121709361D01*
X227869775Y-121798670D01*
X228100033Y-121919815D01*
X228103504Y-121921027D01*
X228103506Y-121921028D01*
X228188581Y-121950737D01*
X228345667Y-122005594D01*
X228349271Y-122006278D01*
X228349270Y-122006278D01*
X228597673Y-122053439D01*
X228597675Y-122053439D01*
X228601282Y-122054124D01*
X228742613Y-122059677D01*
X228857593Y-122064195D01*
X228857596Y-122064195D01*
X228861263Y-122064339D01*
X228994123Y-122049789D01*
X229116257Y-122036413D01*
X229116260Y-122036412D01*
X229119898Y-122036014D01*
X229371505Y-121969771D01*
X229610557Y-121867066D01*
X229724591Y-121796500D01*
X229828677Y-121732090D01*
X229828682Y-121732086D01*
X229831803Y-121730155D01*
X229846503Y-121717711D01*
X229932408Y-121644987D01*
X230030382Y-121562046D01*
X230048585Y-121541290D01*
X230121009Y-121458705D01*
X230201931Y-121366431D01*
X230342683Y-121147608D01*
X230344540Y-121143487D01*
X230448036Y-120913733D01*
X230448037Y-120913731D01*
X230449544Y-120910385D01*
X230520168Y-120659972D01*
X230553002Y-120401871D01*
X230554546Y-120342917D01*
X230555343Y-120312492D01*
X230555343Y-120312487D01*
X230555408Y-120310000D01*
X230555224Y-120307527D01*
X230555224Y-120307517D01*
X230536398Y-120054188D01*
X230536397Y-120054182D01*
X230536126Y-120050534D01*
X230478705Y-119796768D01*
X230463071Y-119756564D01*
X230385735Y-119557698D01*
X230384405Y-119554277D01*
X230255299Y-119328388D01*
X230094223Y-119124064D01*
X229932158Y-118971608D01*
X229902728Y-118917966D01*
X229910450Y-118857270D01*
X229952373Y-118812704D01*
X229999991Y-118800500D01*
X231513099Y-118800500D01*
X231571290Y-118819407D01*
X231583103Y-118829496D01*
X232086794Y-119333187D01*
X232114571Y-119387704D01*
X232105000Y-119448136D01*
X232101430Y-119454542D01*
X232065920Y-119513061D01*
X231965305Y-119753001D01*
X231964401Y-119756563D01*
X231964400Y-119756564D01*
X231902449Y-120000500D01*
X231901261Y-120005177D01*
X231875194Y-120264049D01*
X231875370Y-120267714D01*
X231875370Y-120267717D01*
X231881396Y-120393177D01*
X231887677Y-120523930D01*
X231918951Y-120681158D01*
X231935195Y-120762821D01*
X231938435Y-120779112D01*
X232026355Y-121023989D01*
X232149504Y-121253180D01*
X232305177Y-121461651D01*
X232489954Y-121644823D01*
X232492913Y-121646993D01*
X232492917Y-121646996D01*
X232577973Y-121709361D01*
X232699775Y-121798670D01*
X232930033Y-121919815D01*
X232933504Y-121921027D01*
X232933506Y-121921028D01*
X233018581Y-121950737D01*
X233175667Y-122005594D01*
X233179271Y-122006278D01*
X233179270Y-122006278D01*
X233427673Y-122053439D01*
X233427675Y-122053439D01*
X233431282Y-122054124D01*
X233572613Y-122059677D01*
X233687593Y-122064195D01*
X233687596Y-122064195D01*
X233691263Y-122064339D01*
X233824123Y-122049789D01*
X233946257Y-122036413D01*
X233946260Y-122036412D01*
X233949898Y-122036014D01*
X234201505Y-121969771D01*
X234440557Y-121867066D01*
X234554591Y-121796500D01*
X234658677Y-121732090D01*
X234658682Y-121732086D01*
X234661803Y-121730155D01*
X234676503Y-121717711D01*
X234762408Y-121644987D01*
X234860382Y-121562046D01*
X234878585Y-121541290D01*
X234951009Y-121458705D01*
X235031931Y-121366431D01*
X235172683Y-121147608D01*
X235174540Y-121143487D01*
X235278036Y-120913733D01*
X235278037Y-120913731D01*
X235279544Y-120910385D01*
X235350168Y-120659972D01*
X235383002Y-120401871D01*
X235384546Y-120342917D01*
X235385343Y-120312492D01*
X235385343Y-120312487D01*
X235385408Y-120310000D01*
X235385224Y-120307527D01*
X235385224Y-120307517D01*
X235366398Y-120054188D01*
X235366397Y-120054182D01*
X235366126Y-120050534D01*
X235308705Y-119796768D01*
X235293071Y-119756564D01*
X235215735Y-119557698D01*
X235214405Y-119554277D01*
X235085299Y-119328388D01*
X234924223Y-119124064D01*
X234921550Y-119121550D01*
X234921545Y-119121544D01*
X234737387Y-118948306D01*
X234737383Y-118948303D01*
X234734714Y-118945792D01*
X234520937Y-118797489D01*
X234287587Y-118682414D01*
X234039792Y-118603094D01*
X234036175Y-118602505D01*
X234036171Y-118602504D01*
X233786613Y-118561861D01*
X233786608Y-118561861D01*
X233782994Y-118561272D01*
X233779329Y-118561224D01*
X233686844Y-118560013D01*
X233522835Y-118557866D01*
X233519207Y-118558360D01*
X233519203Y-118558360D01*
X233393932Y-118575409D01*
X233265030Y-118592952D01*
X233015243Y-118665758D01*
X232778961Y-118774686D01*
X232775897Y-118776695D01*
X232775893Y-118776697D01*
X232775108Y-118777212D01*
X232774825Y-118777289D01*
X232772671Y-118778483D01*
X232772379Y-118777956D01*
X232716077Y-118793308D01*
X232658860Y-118771633D01*
X232650819Y-118764426D01*
X231980910Y-118094517D01*
X231980901Y-118094509D01*
X231958342Y-118071950D01*
X231936846Y-118060998D01*
X231923605Y-118052883D01*
X231910395Y-118043285D01*
X231904090Y-118038704D01*
X231881143Y-118031248D01*
X231866797Y-118025305D01*
X231845304Y-118014354D01*
X231837611Y-118013136D01*
X231837609Y-118013135D01*
X231821481Y-118010581D01*
X231806380Y-118006956D01*
X231783433Y-117999500D01*
X230008242Y-117999500D01*
X229950051Y-117980593D01*
X229914087Y-117931093D01*
X229914087Y-117869907D01*
X229944276Y-117824940D01*
X229996786Y-117780487D01*
X230030382Y-117752046D01*
X230201931Y-117556431D01*
X230342683Y-117337608D01*
X230352175Y-117316538D01*
X230448036Y-117103733D01*
X230448037Y-117103731D01*
X230449544Y-117100385D01*
X230453484Y-117086417D01*
X230519171Y-116853506D01*
X230520168Y-116849972D01*
X230553002Y-116591871D01*
X230555118Y-116511086D01*
X230555343Y-116502492D01*
X230555343Y-116502487D01*
X230555408Y-116500000D01*
X230555224Y-116497527D01*
X230555224Y-116497517D01*
X230536398Y-116244188D01*
X230536397Y-116244182D01*
X230536126Y-116240534D01*
X230478705Y-115986768D01*
X230463071Y-115946564D01*
X230385735Y-115747698D01*
X230384405Y-115744277D01*
X230255299Y-115518388D01*
X230235733Y-115493568D01*
X230096502Y-115316955D01*
X230094223Y-115314064D01*
X230091550Y-115311550D01*
X230091545Y-115311544D01*
X229907387Y-115138306D01*
X229907383Y-115138303D01*
X229904714Y-115135792D01*
X229690937Y-114987489D01*
X229457587Y-114872414D01*
X229367126Y-114843457D01*
X229213288Y-114794213D01*
X229213287Y-114794213D01*
X229209792Y-114793094D01*
X229206175Y-114792505D01*
X229206171Y-114792504D01*
X228956613Y-114751861D01*
X228956608Y-114751861D01*
X228952994Y-114751272D01*
X228949329Y-114751224D01*
X228856844Y-114750013D01*
X228692835Y-114747866D01*
X228689207Y-114748360D01*
X228689203Y-114748360D01*
X228563932Y-114765409D01*
X228435030Y-114782952D01*
X228185243Y-114855758D01*
X228181905Y-114857297D01*
X227952296Y-114963148D01*
X227952290Y-114963151D01*
X227948961Y-114964686D01*
X227731375Y-115107341D01*
X227728643Y-115109780D01*
X227728641Y-115109781D01*
X227689583Y-115144642D01*
X227537265Y-115280591D01*
X227370895Y-115480629D01*
X227235920Y-115703061D01*
X227135305Y-115943001D01*
X227134401Y-115946563D01*
X227134400Y-115946564D01*
X227084915Y-116141415D01*
X227071261Y-116195177D01*
X227045194Y-116454049D01*
X227045370Y-116457714D01*
X227045370Y-116457717D01*
X227055239Y-116663165D01*
X227057677Y-116713930D01*
X227105027Y-116951980D01*
X227105864Y-116956186D01*
X227098672Y-117016948D01*
X227057139Y-117061877D01*
X227008766Y-117074500D01*
X221481901Y-117074500D01*
X221423710Y-117055593D01*
X221411897Y-117045504D01*
X220966393Y-116600000D01*
X222500000Y-116600000D01*
X224700000Y-116600000D01*
X224700000Y-114800000D01*
X222500000Y-114800000D01*
X222500000Y-116600000D01*
X220966393Y-116600000D01*
X208866393Y-104500000D01*
X212969965Y-104500000D01*
X212970812Y-104506433D01*
X212979367Y-104571410D01*
X212988026Y-104637183D01*
X212990509Y-104643177D01*
X213038491Y-104759019D01*
X213038492Y-104759020D01*
X213040976Y-104765017D01*
X213125209Y-104874791D01*
X213234982Y-104959024D01*
X213362817Y-105011974D01*
X213369246Y-105012820D01*
X213369248Y-105012821D01*
X213493567Y-105029188D01*
X213500000Y-105030035D01*
X213506433Y-105029188D01*
X213630752Y-105012821D01*
X213630754Y-105012820D01*
X213637183Y-105011974D01*
X213762616Y-104960019D01*
X213823612Y-104955218D01*
X213875780Y-104987188D01*
X213899195Y-105043716D01*
X213899500Y-105051483D01*
X213899500Y-107863433D01*
X213906955Y-107886375D01*
X213910581Y-107901481D01*
X213912217Y-107911808D01*
X213914354Y-107925304D01*
X213925305Y-107946797D01*
X213931248Y-107961143D01*
X213938704Y-107984090D01*
X213943285Y-107990395D01*
X213952883Y-108003605D01*
X213960998Y-108016846D01*
X213971950Y-108038342D01*
X213994513Y-108060905D01*
X213994516Y-108060909D01*
X220139091Y-114205484D01*
X220139095Y-114205487D01*
X220161658Y-114228050D01*
X220168595Y-114231584D01*
X220168597Y-114231586D01*
X220183151Y-114239001D01*
X220196390Y-114247113D01*
X220215911Y-114261296D01*
X220223316Y-114263702D01*
X220223320Y-114263704D01*
X220238855Y-114268751D01*
X220253201Y-114274694D01*
X220274696Y-114285646D01*
X220282389Y-114286864D01*
X220282391Y-114286865D01*
X220298519Y-114289419D01*
X220313620Y-114293044D01*
X220336567Y-114300500D01*
X230823099Y-114300500D01*
X230881290Y-114319407D01*
X230893103Y-114329496D01*
X232086794Y-115523186D01*
X232114571Y-115577703D01*
X232105000Y-115638135D01*
X232101427Y-115644548D01*
X232065920Y-115703061D01*
X231965305Y-115943001D01*
X231964401Y-115946563D01*
X231964400Y-115946564D01*
X231914915Y-116141415D01*
X231901261Y-116195177D01*
X231875194Y-116454049D01*
X231875370Y-116457714D01*
X231875370Y-116457717D01*
X231885239Y-116663165D01*
X231887677Y-116713930D01*
X231938435Y-116969112D01*
X231939675Y-116972567D01*
X231939676Y-116972569D01*
X231969485Y-117055593D01*
X232026355Y-117213989D01*
X232149504Y-117443180D01*
X232305177Y-117651651D01*
X232489954Y-117834823D01*
X232492913Y-117836993D01*
X232492917Y-117836996D01*
X232562514Y-117888026D01*
X232699775Y-117988670D01*
X232930033Y-118109815D01*
X232933504Y-118111027D01*
X232933506Y-118111028D01*
X232984246Y-118128747D01*
X233175667Y-118195594D01*
X233217757Y-118203585D01*
X233427673Y-118243439D01*
X233427675Y-118243439D01*
X233431282Y-118244124D01*
X233572613Y-118249677D01*
X233687593Y-118254195D01*
X233687596Y-118254195D01*
X233691263Y-118254339D01*
X233824123Y-118239789D01*
X233946257Y-118226413D01*
X233946260Y-118226412D01*
X233949898Y-118226014D01*
X234171860Y-118167576D01*
X234197954Y-118160706D01*
X234197955Y-118160706D01*
X234201505Y-118159771D01*
X234440557Y-118057066D01*
X234479281Y-118033103D01*
X234658677Y-117922090D01*
X234658682Y-117922086D01*
X234661803Y-117920155D01*
X234696823Y-117890509D01*
X234724997Y-117866658D01*
X237452724Y-117866658D01*
X237452914Y-117867857D01*
X237457052Y-117872724D01*
X237553652Y-117943554D01*
X237559858Y-117947432D01*
X237776972Y-118061662D01*
X237783699Y-118064587D01*
X238015310Y-118145468D01*
X238022377Y-118147362D01*
X238263407Y-118193124D01*
X238270686Y-118193953D01*
X238515826Y-118203585D01*
X238523146Y-118203329D01*
X238767028Y-118176620D01*
X238774211Y-118175288D01*
X239011467Y-118112824D01*
X239018397Y-118110437D01*
X239243794Y-118013599D01*
X239250301Y-118010212D01*
X239458915Y-117881117D01*
X239463117Y-117878064D01*
X239469866Y-117867158D01*
X239469638Y-117864094D01*
X239467846Y-117861399D01*
X238471086Y-116864639D01*
X238459203Y-116858585D01*
X238454172Y-116859381D01*
X237458778Y-117854775D01*
X237452724Y-117866658D01*
X234724997Y-117866658D01*
X234760862Y-117836296D01*
X234860382Y-117752046D01*
X235031931Y-117556431D01*
X235172683Y-117337608D01*
X235182175Y-117316538D01*
X235278036Y-117103733D01*
X235278037Y-117103731D01*
X235279544Y-117100385D01*
X235283484Y-117086417D01*
X235349171Y-116853506D01*
X235350168Y-116849972D01*
X235383002Y-116591871D01*
X235385118Y-116511086D01*
X235385343Y-116502492D01*
X235385343Y-116502487D01*
X235385408Y-116500000D01*
X235385224Y-116497527D01*
X235385224Y-116497517D01*
X235382365Y-116459041D01*
X236755993Y-116459041D01*
X236767764Y-116704094D01*
X236768656Y-116711356D01*
X236816519Y-116951980D01*
X236818476Y-116959036D01*
X236901373Y-117189924D01*
X236904362Y-117196637D01*
X237020472Y-117412729D01*
X237024413Y-117418915D01*
X237084767Y-117499738D01*
X237095656Y-117507434D01*
X237097107Y-117507415D01*
X237102198Y-117504249D01*
X238095361Y-116511086D01*
X238100603Y-116500797D01*
X238818585Y-116500797D01*
X238819381Y-116505828D01*
X239817455Y-117503902D01*
X239829117Y-117509844D01*
X239835651Y-117503935D01*
X239956188Y-117316538D01*
X239959691Y-117310087D01*
X240060447Y-117086417D01*
X240062955Y-117079528D01*
X240129544Y-116843417D01*
X240131007Y-116836225D01*
X240162117Y-116591688D01*
X240162496Y-116586738D01*
X240164702Y-116502492D01*
X240164582Y-116497517D01*
X240146314Y-116251673D01*
X240145233Y-116244444D01*
X240091087Y-116005154D01*
X240088947Y-115998153D01*
X240000028Y-115769499D01*
X239996877Y-115762893D01*
X239875140Y-115549897D01*
X239871041Y-115543820D01*
X239836088Y-115499484D01*
X239825000Y-115492075D01*
X239822856Y-115492159D01*
X239818794Y-115494759D01*
X238824639Y-116488914D01*
X238818585Y-116500797D01*
X238100603Y-116500797D01*
X238101415Y-116499203D01*
X238100619Y-116494172D01*
X237103351Y-115496904D01*
X237091468Y-115490850D01*
X237088666Y-115491293D01*
X237085820Y-115493568D01*
X237074476Y-115507207D01*
X237070215Y-115513181D01*
X236942949Y-115722908D01*
X236939619Y-115729444D01*
X236844751Y-115955679D01*
X236842424Y-115962632D01*
X236782036Y-116200409D01*
X236780764Y-116207625D01*
X236756185Y-116451722D01*
X236755993Y-116459041D01*
X235382365Y-116459041D01*
X235366398Y-116244188D01*
X235366397Y-116244182D01*
X235366126Y-116240534D01*
X235308705Y-115986768D01*
X235293071Y-115946564D01*
X235215735Y-115747698D01*
X235214405Y-115744277D01*
X235085299Y-115518388D01*
X235065733Y-115493568D01*
X234926502Y-115316955D01*
X234924223Y-115314064D01*
X234921550Y-115311550D01*
X234921545Y-115311544D01*
X234737387Y-115138306D01*
X234737383Y-115138303D01*
X234734714Y-115135792D01*
X234731909Y-115133846D01*
X237450512Y-115133846D01*
X237454817Y-115141264D01*
X238448914Y-116135361D01*
X238460797Y-116141415D01*
X238465828Y-116140619D01*
X239461805Y-115144642D01*
X239467859Y-115132759D01*
X239467779Y-115132252D01*
X239462814Y-115126565D01*
X239328256Y-115033219D01*
X239321933Y-115029495D01*
X239101921Y-114920998D01*
X239095112Y-114918246D01*
X238861472Y-114843457D01*
X238854345Y-114841746D01*
X238612197Y-114802309D01*
X238604916Y-114801672D01*
X238359590Y-114798461D01*
X238352294Y-114798907D01*
X238109190Y-114831992D01*
X238102039Y-114833512D01*
X237866505Y-114902164D01*
X237859640Y-114904731D01*
X237636848Y-115007440D01*
X237630442Y-115010991D01*
X237458793Y-115123528D01*
X237450512Y-115133846D01*
X234731909Y-115133846D01*
X234520937Y-114987489D01*
X234287587Y-114872414D01*
X234197126Y-114843457D01*
X234043288Y-114794213D01*
X234043287Y-114794213D01*
X234039792Y-114793094D01*
X234036175Y-114792505D01*
X234036171Y-114792504D01*
X233786613Y-114751861D01*
X233786608Y-114751861D01*
X233782994Y-114751272D01*
X233779329Y-114751224D01*
X233686844Y-114750013D01*
X233522835Y-114747866D01*
X233519207Y-114748360D01*
X233519203Y-114748360D01*
X233393932Y-114765409D01*
X233265030Y-114782952D01*
X233015243Y-114855758D01*
X232778961Y-114964686D01*
X232775897Y-114966695D01*
X232775893Y-114966697D01*
X232775108Y-114967212D01*
X232774825Y-114967289D01*
X232772671Y-114968483D01*
X232772379Y-114967956D01*
X232716077Y-114983308D01*
X232658860Y-114961633D01*
X232650819Y-114954426D01*
X231290909Y-113594516D01*
X231290905Y-113594513D01*
X231268342Y-113571950D01*
X231246846Y-113560998D01*
X231233605Y-113552883D01*
X231220395Y-113543285D01*
X231214090Y-113538704D01*
X231191143Y-113531248D01*
X231176797Y-113525305D01*
X231155304Y-113514354D01*
X231147611Y-113513136D01*
X231147609Y-113513135D01*
X231131481Y-113510581D01*
X231116380Y-113506956D01*
X231093433Y-113499500D01*
X220606901Y-113499500D01*
X220548710Y-113480593D01*
X220536897Y-113470504D01*
X216066393Y-109000000D01*
X216700000Y-109000000D01*
X218900000Y-109000000D01*
X218900000Y-108100000D01*
X220744723Y-108100000D01*
X220763793Y-108317977D01*
X220820425Y-108529330D01*
X220912898Y-108727638D01*
X221038402Y-108906877D01*
X221193123Y-109061598D01*
X221230568Y-109087817D01*
X221339147Y-109163845D01*
X221372361Y-109187102D01*
X221570670Y-109279575D01*
X221657220Y-109302766D01*
X221777846Y-109335088D01*
X221777848Y-109335088D01*
X221782023Y-109336207D01*
X222000000Y-109355277D01*
X222217977Y-109336207D01*
X222222152Y-109335088D01*
X222222154Y-109335088D01*
X222342780Y-109302766D01*
X222429330Y-109279575D01*
X222627639Y-109187102D01*
X222660854Y-109163845D01*
X222769432Y-109087817D01*
X222806877Y-109061598D01*
X222961598Y-108906877D01*
X223087102Y-108727638D01*
X223179575Y-108529330D01*
X223236207Y-108317977D01*
X223255277Y-108100000D01*
X223236207Y-107882023D01*
X223229693Y-107857710D01*
X223180693Y-107674843D01*
X223179575Y-107670670D01*
X223087102Y-107472362D01*
X222961598Y-107293123D01*
X222806877Y-107138402D01*
X222627639Y-107012898D01*
X222429330Y-106920425D01*
X222342780Y-106897234D01*
X222222154Y-106864912D01*
X222222152Y-106864912D01*
X222217977Y-106863793D01*
X222000000Y-106844723D01*
X221782023Y-106863793D01*
X221777848Y-106864912D01*
X221777846Y-106864912D01*
X221657220Y-106897234D01*
X221570670Y-106920425D01*
X221372362Y-107012898D01*
X221193123Y-107138402D01*
X221038402Y-107293123D01*
X220912898Y-107472362D01*
X220820425Y-107670670D01*
X220819307Y-107674843D01*
X220770308Y-107857710D01*
X220763793Y-107882023D01*
X220744723Y-108100000D01*
X218900000Y-108100000D01*
X218900000Y-107200000D01*
X216700000Y-107200000D01*
X216700000Y-109000000D01*
X216066393Y-109000000D01*
X214729496Y-107663103D01*
X214701719Y-107608586D01*
X214700500Y-107593099D01*
X214700500Y-104874893D01*
X214720958Y-104814626D01*
X214755073Y-104770166D01*
X214759024Y-104765017D01*
X214811974Y-104637183D01*
X214820634Y-104571410D01*
X214829188Y-104506433D01*
X214830035Y-104500000D01*
X214811974Y-104362817D01*
X214790146Y-104310119D01*
X214761509Y-104240981D01*
X214761507Y-104240977D01*
X214759024Y-104234983D01*
X214674791Y-104125209D01*
X214565018Y-104040976D01*
X214437183Y-103988026D01*
X214430754Y-103987180D01*
X214430752Y-103987179D01*
X214306433Y-103970812D01*
X214300000Y-103969965D01*
X214293567Y-103970812D01*
X214169248Y-103987179D01*
X214169246Y-103987180D01*
X214162817Y-103988026D01*
X214034983Y-104040976D01*
X214029834Y-104044927D01*
X213985374Y-104079042D01*
X213925107Y-104099500D01*
X213874894Y-104099500D01*
X213814626Y-104079042D01*
X213770167Y-104044927D01*
X213765018Y-104040976D01*
X213637183Y-103988026D01*
X213630754Y-103987180D01*
X213630752Y-103987179D01*
X213506433Y-103970812D01*
X213500000Y-103969965D01*
X213493567Y-103970812D01*
X213369248Y-103987179D01*
X213369246Y-103987180D01*
X213362817Y-103988026D01*
X213347156Y-103994513D01*
X213240981Y-104038491D01*
X213240977Y-104038493D01*
X213234983Y-104040976D01*
X213125209Y-104125209D01*
X213040976Y-104234983D01*
X213038493Y-104240977D01*
X213038491Y-104240981D01*
X213009854Y-104310119D01*
X212988026Y-104362817D01*
X212969965Y-104500000D01*
X208866393Y-104500000D01*
X208536750Y-104170357D01*
X208508973Y-104115840D01*
X208518544Y-104055408D01*
X208561809Y-104012143D01*
X208610641Y-104001429D01*
X208658545Y-104003311D01*
X208667556Y-104002839D01*
X208876848Y-103972494D01*
X208885630Y-103970385D01*
X209085878Y-103902410D01*
X209094134Y-103898734D01*
X209241376Y-103816274D01*
X209249578Y-103807400D01*
X209244676Y-103798229D01*
X208611086Y-103164639D01*
X208599203Y-103158585D01*
X208594172Y-103159381D01*
X207957812Y-103795741D01*
X207941366Y-103828019D01*
X207938607Y-103845443D01*
X207895343Y-103888709D01*
X207850396Y-103899500D01*
X204074894Y-103899500D01*
X204014626Y-103879042D01*
X203970167Y-103844927D01*
X203965018Y-103840976D01*
X203837183Y-103788026D01*
X203830754Y-103787180D01*
X203830752Y-103787179D01*
X203706433Y-103770812D01*
X203700000Y-103769965D01*
X203693567Y-103770812D01*
X203569248Y-103787179D01*
X203569246Y-103787180D01*
X203562817Y-103788026D01*
X203434983Y-103840976D01*
X203425225Y-103848463D01*
X203385374Y-103879042D01*
X203325107Y-103899500D01*
X203174894Y-103899500D01*
X203114626Y-103879042D01*
X203070167Y-103844927D01*
X203065018Y-103840976D01*
X202937183Y-103788026D01*
X202930754Y-103787180D01*
X202930752Y-103787179D01*
X202806433Y-103770812D01*
X202800000Y-103769965D01*
X202793567Y-103770812D01*
X202669248Y-103787179D01*
X202669246Y-103787180D01*
X202662817Y-103788026D01*
X202644191Y-103795741D01*
X202540981Y-103838491D01*
X202540977Y-103838493D01*
X202534983Y-103840976D01*
X202425209Y-103925209D01*
X202421258Y-103930358D01*
X202390866Y-103969965D01*
X202340976Y-104034983D01*
X202288026Y-104162817D01*
X202269965Y-104300000D01*
X202288026Y-104437183D01*
X202290509Y-104443177D01*
X202338491Y-104559019D01*
X202338493Y-104559023D01*
X202340976Y-104565017D01*
X202425209Y-104674791D01*
X202534982Y-104759024D01*
X202662817Y-104811974D01*
X202669246Y-104812820D01*
X202669248Y-104812821D01*
X202793567Y-104829188D01*
X202800000Y-104830035D01*
X202806433Y-104829188D01*
X202930752Y-104812821D01*
X202930754Y-104812820D01*
X202937183Y-104811974D01*
X203065018Y-104759024D01*
X203114626Y-104720958D01*
X203174894Y-104700500D01*
X203325106Y-104700500D01*
X203385374Y-104720958D01*
X203434982Y-104759024D01*
X203562817Y-104811974D01*
X203569246Y-104812820D01*
X203569248Y-104812821D01*
X203693567Y-104829188D01*
X203700000Y-104830035D01*
X203706433Y-104829188D01*
X203830752Y-104812821D01*
X203830754Y-104812820D01*
X203837183Y-104811974D01*
X203965018Y-104759024D01*
X204014626Y-104720958D01*
X204074894Y-104700500D01*
X207893099Y-104700500D01*
X207951290Y-104719407D01*
X207963103Y-104729496D01*
X209784103Y-106550496D01*
X209811880Y-106605013D01*
X209802309Y-106665445D01*
X209759044Y-106708710D01*
X209714099Y-106719500D01*
X209468745Y-106719500D01*
X209460117Y-106719123D01*
X209458042Y-106718941D01*
X209420751Y-106715679D01*
X209382560Y-106725912D01*
X209374145Y-106727777D01*
X209335219Y-106734641D01*
X209327715Y-106738973D01*
X209322022Y-106741045D01*
X209316537Y-106743603D01*
X209308170Y-106745845D01*
X209301075Y-106750813D01*
X209301073Y-106750814D01*
X209275793Y-106768516D01*
X209268506Y-106773158D01*
X209234282Y-106792917D01*
X209208886Y-106823183D01*
X209203051Y-106829551D01*
X208289551Y-107743051D01*
X208283184Y-107748885D01*
X208252917Y-107774282D01*
X208248586Y-107781784D01*
X208248585Y-107781785D01*
X208233158Y-107808506D01*
X208228518Y-107815790D01*
X208205845Y-107848170D01*
X208203603Y-107856537D01*
X208201045Y-107862022D01*
X208198973Y-107867715D01*
X208194641Y-107875219D01*
X208190010Y-107901481D01*
X208187778Y-107914141D01*
X208185912Y-107922560D01*
X208175679Y-107960751D01*
X208176434Y-107969378D01*
X208179123Y-108000113D01*
X208179500Y-108008742D01*
X208179500Y-108807000D01*
X208160593Y-108865191D01*
X208111093Y-108901155D01*
X208080500Y-108906000D01*
X200626422Y-108906000D01*
X200568231Y-108887093D01*
X200547880Y-108867267D01*
X200538741Y-108855357D01*
X200534791Y-108850209D01*
X200425018Y-108765976D01*
X200297183Y-108713026D01*
X200290754Y-108712180D01*
X200290752Y-108712179D01*
X200166433Y-108695812D01*
X200160000Y-108694965D01*
X200153567Y-108695812D01*
X200029248Y-108712179D01*
X200029246Y-108712180D01*
X200022817Y-108713026D01*
X199997016Y-108723713D01*
X199900981Y-108763491D01*
X199900977Y-108763493D01*
X199894983Y-108765976D01*
X199889834Y-108769927D01*
X199815268Y-108827144D01*
X199757592Y-108847568D01*
X199694732Y-108827143D01*
X199620172Y-108769930D01*
X199620167Y-108769927D01*
X199615018Y-108765976D01*
X199487183Y-108713026D01*
X199480754Y-108712180D01*
X199480752Y-108712179D01*
X199356433Y-108695812D01*
X199350000Y-108694965D01*
X199343567Y-108695812D01*
X199219248Y-108712179D01*
X199219246Y-108712180D01*
X199212817Y-108713026D01*
X199187016Y-108723713D01*
X199090981Y-108763491D01*
X199090977Y-108763493D01*
X199084983Y-108765976D01*
X198975209Y-108850209D01*
X198890976Y-108959983D01*
X198888493Y-108965977D01*
X198888491Y-108965981D01*
X198854273Y-109048592D01*
X198838026Y-109087817D01*
X198837180Y-109094246D01*
X198837179Y-109094248D01*
X198823233Y-109200178D01*
X198819965Y-109225000D01*
X198820812Y-109231433D01*
X198837117Y-109355277D01*
X198838026Y-109362183D01*
X198840509Y-109368177D01*
X198888491Y-109484019D01*
X198888493Y-109484023D01*
X198890976Y-109490017D01*
X198975209Y-109599791D01*
X199084982Y-109684024D01*
X199212817Y-109736974D01*
X199219246Y-109737820D01*
X199219248Y-109737821D01*
X199325178Y-109751767D01*
X199334931Y-109753051D01*
X199343567Y-109754188D01*
X199350000Y-109755035D01*
X199356433Y-109754188D01*
X199365070Y-109753051D01*
X199374822Y-109751767D01*
X199480752Y-109737821D01*
X199480754Y-109737820D01*
X199487183Y-109736974D01*
X199615018Y-109684024D01*
X199620167Y-109680073D01*
X199620172Y-109680070D01*
X199694732Y-109622857D01*
X199752407Y-109602432D01*
X199815268Y-109622857D01*
X199889828Y-109680070D01*
X199889833Y-109680073D01*
X199894982Y-109684024D01*
X200022817Y-109736974D01*
X200029246Y-109737820D01*
X200029248Y-109737821D01*
X200135178Y-109751767D01*
X200144931Y-109753051D01*
X200153567Y-109754188D01*
X200160000Y-109755035D01*
X200166433Y-109754188D01*
X200175070Y-109753051D01*
X200184822Y-109751767D01*
X200290752Y-109737821D01*
X200290754Y-109737820D01*
X200297183Y-109736974D01*
X200425018Y-109684024D01*
X200534791Y-109599791D01*
X200547880Y-109582733D01*
X200598304Y-109548077D01*
X200626422Y-109544000D01*
X208080500Y-109544000D01*
X208138691Y-109562907D01*
X208174655Y-109612407D01*
X208179500Y-109643000D01*
X208179500Y-119795370D01*
X208160593Y-119853561D01*
X208140769Y-119873911D01*
X208127599Y-119884017D01*
X208127597Y-119884019D01*
X208122448Y-119887970D01*
X208038215Y-119997744D01*
X208035732Y-120003738D01*
X208035730Y-120003742D01*
X208008739Y-120068907D01*
X207985265Y-120125578D01*
X207984419Y-120132007D01*
X207984418Y-120132009D01*
X207977649Y-120183423D01*
X207951307Y-120238648D01*
X207897536Y-120267842D01*
X207879496Y-120269500D01*
X189918741Y-120269500D01*
X189910112Y-120269123D01*
X189879379Y-120266434D01*
X189870750Y-120265679D01*
X189862383Y-120267921D01*
X189832576Y-120275908D01*
X189824143Y-120277778D01*
X189793747Y-120283137D01*
X189793745Y-120283138D01*
X189785219Y-120284641D01*
X189777718Y-120288971D01*
X189772029Y-120291042D01*
X189766538Y-120293602D01*
X189758170Y-120295845D01*
X189751075Y-120300813D01*
X189751073Y-120300814D01*
X189725793Y-120318516D01*
X189718506Y-120323158D01*
X189684282Y-120342917D01*
X189658886Y-120373183D01*
X189653051Y-120379551D01*
X183662098Y-126370504D01*
X183607581Y-126398281D01*
X183592094Y-126399500D01*
X182593370Y-126399500D01*
X182591176Y-126399696D01*
X182591172Y-126399696D01*
X182432049Y-126413897D01*
X182432045Y-126413898D01*
X182427661Y-126414289D01*
X182423416Y-126415450D01*
X182423412Y-126415451D01*
X182216600Y-126472029D01*
X182212349Y-126473192D01*
X182208371Y-126475089D01*
X182208372Y-126475089D01*
X182014849Y-126567394D01*
X182014844Y-126567397D01*
X182010871Y-126569292D01*
X182007292Y-126571864D01*
X182007290Y-126571865D01*
X181967440Y-126600500D01*
X181829595Y-126699552D01*
X181826522Y-126702723D01*
X181826521Y-126702724D01*
X181677319Y-126856688D01*
X181674251Y-126859854D01*
X181549750Y-127045132D01*
X181547980Y-127049164D01*
X181547979Y-127049166D01*
X181543495Y-127059381D01*
X181460026Y-127249529D01*
X181407915Y-127466585D01*
X181407662Y-127470977D01*
X181407661Y-127470982D01*
X181401536Y-127577219D01*
X181395066Y-127689438D01*
X181395595Y-127693808D01*
X181395595Y-127693813D01*
X181411957Y-127829018D01*
X181421883Y-127911044D01*
X181423176Y-127915249D01*
X181423177Y-127915251D01*
X181464776Y-128050471D01*
X181487519Y-128124400D01*
X181589901Y-128322759D01*
X181592585Y-128326256D01*
X181592585Y-128326257D01*
X181621178Y-128363520D01*
X181725790Y-128499854D01*
X181729046Y-128502817D01*
X181729049Y-128502820D01*
X181836341Y-128600448D01*
X181890893Y-128650086D01*
X182079990Y-128768707D01*
X182084072Y-128770348D01*
X182084076Y-128770350D01*
X182155150Y-128798921D01*
X182287105Y-128851966D01*
X182505690Y-128897233D01*
X182562349Y-128900500D01*
X184206630Y-128900500D01*
X184208824Y-128900304D01*
X184208828Y-128900304D01*
X184367951Y-128886103D01*
X184367955Y-128886102D01*
X184372339Y-128885711D01*
X184376584Y-128884550D01*
X184376588Y-128884549D01*
X184583400Y-128827971D01*
X184583401Y-128827971D01*
X184587651Y-128826808D01*
X184641637Y-128801058D01*
X184785151Y-128732606D01*
X184785156Y-128732603D01*
X184789129Y-128730708D01*
X184970405Y-128600448D01*
X185024658Y-128544464D01*
X185122681Y-128443312D01*
X185125749Y-128440146D01*
X185250250Y-128254868D01*
X185339974Y-128050471D01*
X185392085Y-127833415D01*
X185392657Y-127823504D01*
X185402532Y-127652219D01*
X185404934Y-127610562D01*
X185403712Y-127600458D01*
X185378646Y-127393329D01*
X185378117Y-127388956D01*
X185376823Y-127384749D01*
X185313778Y-127179815D01*
X185313777Y-127179812D01*
X185312481Y-127175600D01*
X185309568Y-127169955D01*
X185229493Y-127014816D01*
X185210099Y-126977241D01*
X185191805Y-126953399D01*
X185139431Y-126885144D01*
X185074210Y-126800146D01*
X185070954Y-126797183D01*
X185070951Y-126797180D01*
X184930911Y-126669754D01*
X184909107Y-126649914D01*
X184905380Y-126647576D01*
X184723747Y-126533637D01*
X184723745Y-126533636D01*
X184720010Y-126531293D01*
X184715918Y-126529648D01*
X184715916Y-126529647D01*
X184688212Y-126518511D01*
X184656552Y-126505783D01*
X184609613Y-126466537D01*
X184594707Y-126407195D01*
X184617528Y-126350425D01*
X184623474Y-126343924D01*
X185890496Y-125076902D01*
X185945013Y-125049125D01*
X186005445Y-125058696D01*
X186048710Y-125101961D01*
X186059500Y-125146906D01*
X186059500Y-135132094D01*
X186040593Y-135190285D01*
X186030504Y-135202098D01*
X184752917Y-136479685D01*
X184698400Y-136507462D01*
X184645989Y-136501537D01*
X184512895Y-136448034D01*
X184294310Y-136402767D01*
X184237651Y-136399500D01*
X182593370Y-136399500D01*
X182591176Y-136399696D01*
X182591172Y-136399696D01*
X182432049Y-136413897D01*
X182432045Y-136413898D01*
X182427661Y-136414289D01*
X182423416Y-136415450D01*
X182423412Y-136415451D01*
X182298301Y-136449678D01*
X182212349Y-136473192D01*
X182208371Y-136475089D01*
X182208372Y-136475089D01*
X182014849Y-136567394D01*
X182014844Y-136567397D01*
X182010871Y-136569292D01*
X181829595Y-136699552D01*
X181674251Y-136859854D01*
X181549750Y-137045132D01*
X181460026Y-137249529D01*
X181407915Y-137466585D01*
X181407662Y-137470977D01*
X181407661Y-137470982D01*
X181404861Y-137519552D01*
X181395066Y-137689438D01*
X175400000Y-137689438D01*
X175400000Y-125389438D01*
X178395066Y-125389438D01*
X178395595Y-125393808D01*
X178395595Y-125393813D01*
X178411740Y-125527225D01*
X178421883Y-125611044D01*
X178423176Y-125615249D01*
X178423177Y-125615251D01*
X178484438Y-125814384D01*
X178487519Y-125824400D01*
X178489541Y-125828317D01*
X178489542Y-125828320D01*
X178513088Y-125873939D01*
X178589901Y-126022759D01*
X178725790Y-126199854D01*
X178729046Y-126202817D01*
X178729049Y-126202820D01*
X178835891Y-126300038D01*
X178890893Y-126350086D01*
X179079990Y-126468707D01*
X179084072Y-126470348D01*
X179084076Y-126470350D01*
X179212877Y-126522127D01*
X179287105Y-126551966D01*
X179505690Y-126597233D01*
X179562349Y-126600500D01*
X181206630Y-126600500D01*
X181208824Y-126600304D01*
X181208828Y-126600304D01*
X181367951Y-126586103D01*
X181367955Y-126586102D01*
X181372339Y-126585711D01*
X181376584Y-126584550D01*
X181376588Y-126584549D01*
X181583400Y-126527971D01*
X181583401Y-126527971D01*
X181587651Y-126526808D01*
X181655776Y-126494314D01*
X181785151Y-126432606D01*
X181785156Y-126432603D01*
X181789129Y-126430708D01*
X181804986Y-126419314D01*
X181898073Y-126352424D01*
X181970405Y-126300448D01*
X181988691Y-126281579D01*
X182122681Y-126143312D01*
X182125749Y-126140146D01*
X182250250Y-125954868D01*
X182339974Y-125750471D01*
X182392085Y-125533415D01*
X182392497Y-125526280D01*
X182404680Y-125314961D01*
X182404934Y-125310562D01*
X182400539Y-125274237D01*
X182378646Y-125093329D01*
X182378117Y-125088956D01*
X182371094Y-125066126D01*
X182313778Y-124879815D01*
X182313777Y-124879812D01*
X182312481Y-124875600D01*
X182210099Y-124677241D01*
X182074210Y-124500146D01*
X182070954Y-124497183D01*
X182070951Y-124497180D01*
X181912361Y-124352875D01*
X181912362Y-124352875D01*
X181909107Y-124349914D01*
X181720010Y-124231293D01*
X181715928Y-124229652D01*
X181715924Y-124229650D01*
X181572585Y-124172029D01*
X181512895Y-124148034D01*
X181294310Y-124102767D01*
X181237651Y-124099500D01*
X179593370Y-124099500D01*
X179591176Y-124099696D01*
X179591172Y-124099696D01*
X179432049Y-124113897D01*
X179432045Y-124113898D01*
X179427661Y-124114289D01*
X179423416Y-124115450D01*
X179423412Y-124115451D01*
X179298301Y-124149678D01*
X179212349Y-124173192D01*
X179208371Y-124175089D01*
X179208372Y-124175089D01*
X179014849Y-124267394D01*
X179014844Y-124267397D01*
X179010871Y-124269292D01*
X178829595Y-124399552D01*
X178826522Y-124402723D01*
X178826521Y-124402724D01*
X178732112Y-124500146D01*
X178674251Y-124559854D01*
X178549750Y-124745132D01*
X178460026Y-124949529D01*
X178407915Y-125166585D01*
X178407662Y-125170977D01*
X178407661Y-125170982D01*
X178402027Y-125268705D01*
X178395066Y-125389438D01*
X175400000Y-125389438D01*
X175400000Y-111641003D01*
X179101840Y-111641003D01*
X179107918Y-111898892D01*
X179108573Y-111902585D01*
X179108573Y-111902590D01*
X179152277Y-112149191D01*
X179152279Y-112149198D01*
X179152934Y-112152895D01*
X179235853Y-112397165D01*
X179237589Y-112400506D01*
X179353032Y-112622746D01*
X179353036Y-112622752D01*
X179354766Y-112626083D01*
X179356980Y-112629114D01*
X179356984Y-112629120D01*
X179459250Y-112769104D01*
X179506937Y-112834380D01*
X179688865Y-113017263D01*
X179691884Y-113019493D01*
X179691890Y-113019498D01*
X179836566Y-113126356D01*
X179896362Y-113170522D01*
X180022504Y-113236889D01*
X180121327Y-113288883D01*
X180121332Y-113288885D01*
X180124654Y-113290633D01*
X180368487Y-113374829D01*
X180372183Y-113375504D01*
X180619127Y-113420605D01*
X180619133Y-113420606D01*
X180622250Y-113421175D01*
X180704780Y-113425500D01*
X180865599Y-113425500D01*
X180942228Y-113419671D01*
X181053464Y-113411210D01*
X181053470Y-113411209D01*
X181057218Y-113410924D01*
X181308516Y-113352676D01*
X181548112Y-113257087D01*
X181770493Y-113126356D01*
X181970540Y-112963492D01*
X182084996Y-112837043D01*
X182141128Y-112775030D01*
X182141131Y-112775026D01*
X182143651Y-112772242D01*
X182285841Y-112557008D01*
X182393839Y-112322743D01*
X182465159Y-112074838D01*
X182498160Y-111818997D01*
X182492082Y-111561108D01*
X182491427Y-111557410D01*
X182447723Y-111310809D01*
X182447721Y-111310802D01*
X182447066Y-111307105D01*
X182364147Y-111062835D01*
X182308896Y-110956473D01*
X182246968Y-110837254D01*
X182246964Y-110837248D01*
X182245234Y-110833917D01*
X182243020Y-110830886D01*
X182243016Y-110830880D01*
X182095280Y-110628655D01*
X182093063Y-110625620D01*
X181911135Y-110442737D01*
X181908116Y-110440507D01*
X181908110Y-110440502D01*
X181706668Y-110291716D01*
X181703638Y-110289478D01*
X181539106Y-110202913D01*
X181478673Y-110171117D01*
X181478668Y-110171115D01*
X181475346Y-110169367D01*
X181231513Y-110085171D01*
X181215798Y-110082301D01*
X180980873Y-110039395D01*
X180980867Y-110039394D01*
X180977750Y-110038825D01*
X180895220Y-110034500D01*
X180734401Y-110034500D01*
X180657772Y-110040329D01*
X180546536Y-110048790D01*
X180546530Y-110048791D01*
X180542782Y-110049076D01*
X180291484Y-110107324D01*
X180287989Y-110108718D01*
X180287987Y-110108719D01*
X180217356Y-110136898D01*
X180051888Y-110202913D01*
X179829507Y-110333644D01*
X179629460Y-110496508D01*
X179626940Y-110499292D01*
X179626938Y-110499294D01*
X179458872Y-110684970D01*
X179458869Y-110684974D01*
X179456349Y-110687758D01*
X179314159Y-110902992D01*
X179206161Y-111137257D01*
X179134841Y-111385162D01*
X179101840Y-111641003D01*
X175400000Y-111641003D01*
X175400000Y-108100000D01*
X190344723Y-108100000D01*
X190363793Y-108317977D01*
X190420425Y-108529330D01*
X190512898Y-108727638D01*
X190638402Y-108906877D01*
X190793123Y-109061598D01*
X190830568Y-109087817D01*
X190939147Y-109163845D01*
X190972361Y-109187102D01*
X191170670Y-109279575D01*
X191257220Y-109302766D01*
X191377846Y-109335088D01*
X191377848Y-109335088D01*
X191382023Y-109336207D01*
X191600000Y-109355277D01*
X191817977Y-109336207D01*
X191822152Y-109335088D01*
X191822154Y-109335088D01*
X191942780Y-109302766D01*
X192029330Y-109279575D01*
X192227639Y-109187102D01*
X192260854Y-109163845D01*
X192369432Y-109087817D01*
X192406877Y-109061598D01*
X192468475Y-109000000D01*
X194600000Y-109000000D01*
X196800000Y-109000000D01*
X196800000Y-107200000D01*
X194600000Y-107200000D01*
X194600000Y-109000000D01*
X192468475Y-109000000D01*
X192561598Y-108906877D01*
X192687102Y-108727638D01*
X192779575Y-108529330D01*
X192836207Y-108317977D01*
X192855277Y-108100000D01*
X192836207Y-107882023D01*
X192829693Y-107857710D01*
X192780693Y-107674843D01*
X192779575Y-107670670D01*
X192687102Y-107472362D01*
X192561598Y-107293123D01*
X192406877Y-107138402D01*
X192227639Y-107012898D01*
X192029330Y-106920425D01*
X191942780Y-106897234D01*
X191822154Y-106864912D01*
X191822152Y-106864912D01*
X191817977Y-106863793D01*
X191600000Y-106844723D01*
X191382023Y-106863793D01*
X191377848Y-106864912D01*
X191377846Y-106864912D01*
X191257220Y-106897234D01*
X191170670Y-106920425D01*
X190972362Y-107012898D01*
X190793123Y-107138402D01*
X190638402Y-107293123D01*
X190512898Y-107472362D01*
X190420425Y-107670670D01*
X190419307Y-107674843D01*
X190370308Y-107857710D01*
X190363793Y-107882023D01*
X190344723Y-108100000D01*
X175400000Y-108100000D01*
X175400000Y-103446712D01*
X194570008Y-103446712D01*
X194595775Y-103741232D01*
X194606235Y-103788026D01*
X194656331Y-104012143D01*
X194660268Y-104029757D01*
X194762354Y-104307218D01*
X194763884Y-104310119D01*
X194898711Y-104565844D01*
X194898715Y-104565851D01*
X194900239Y-104568741D01*
X195071501Y-104809729D01*
X195273131Y-105025951D01*
X195275667Y-105028034D01*
X195275668Y-105028035D01*
X195499047Y-105211521D01*
X195499052Y-105211525D01*
X195501586Y-105213606D01*
X195752853Y-105369398D01*
X195755850Y-105370745D01*
X195755854Y-105370747D01*
X195914971Y-105442257D01*
X196022517Y-105490590D01*
X196305840Y-105575052D01*
X196309081Y-105575565D01*
X196309084Y-105575566D01*
X196397510Y-105589571D01*
X196597846Y-105621301D01*
X196668014Y-105624487D01*
X196689209Y-105625450D01*
X196689215Y-105625450D01*
X196690313Y-105625500D01*
X196874991Y-105625500D01*
X197094995Y-105610887D01*
X197241637Y-105581319D01*
X197381581Y-105553102D01*
X197381586Y-105553101D01*
X197384808Y-105552451D01*
X197561738Y-105491529D01*
X197661234Y-105457270D01*
X197661240Y-105457268D01*
X197664346Y-105456198D01*
X197928699Y-105323820D01*
X198173221Y-105157643D01*
X198300642Y-105043716D01*
X198391168Y-104962777D01*
X198391172Y-104962773D01*
X198393618Y-104960586D01*
X198398344Y-104955073D01*
X198495869Y-104841287D01*
X198586016Y-104736111D01*
X198747036Y-104488162D01*
X198768397Y-104443177D01*
X198872442Y-104224058D01*
X198873849Y-104221095D01*
X198964226Y-103939602D01*
X199016580Y-103648629D01*
X199029992Y-103353288D01*
X199024095Y-103285878D01*
X199004511Y-103062040D01*
X199004225Y-103058768D01*
X198959184Y-102857266D01*
X198940447Y-102773440D01*
X198940445Y-102773435D01*
X198940344Y-102772981D01*
X207395569Y-102772981D01*
X207409399Y-102984000D01*
X207410812Y-102992921D01*
X207462866Y-103197882D01*
X207465886Y-103206410D01*
X207554417Y-103398449D01*
X207558935Y-103406274D01*
X207583525Y-103441069D01*
X207594210Y-103449048D01*
X207594961Y-103449058D01*
X207601090Y-103445357D01*
X208235361Y-102811086D01*
X208240603Y-102800797D01*
X208958585Y-102800797D01*
X208959381Y-102805828D01*
X209597525Y-103443972D01*
X209608287Y-103449455D01*
X209611140Y-103446712D01*
X216570008Y-103446712D01*
X216595775Y-103741232D01*
X216606235Y-103788026D01*
X216656331Y-104012143D01*
X216660268Y-104029757D01*
X216762354Y-104307218D01*
X216763884Y-104310119D01*
X216898711Y-104565844D01*
X216898715Y-104565851D01*
X216900239Y-104568741D01*
X217071501Y-104809729D01*
X217273131Y-105025951D01*
X217275667Y-105028034D01*
X217275668Y-105028035D01*
X217499047Y-105211521D01*
X217499052Y-105211525D01*
X217501586Y-105213606D01*
X217752853Y-105369398D01*
X217755850Y-105370745D01*
X217755854Y-105370747D01*
X217914971Y-105442257D01*
X218022517Y-105490590D01*
X218305840Y-105575052D01*
X218309081Y-105575565D01*
X218309084Y-105575566D01*
X218397510Y-105589571D01*
X218597846Y-105621301D01*
X218668014Y-105624487D01*
X218689209Y-105625450D01*
X218689215Y-105625450D01*
X218690313Y-105625500D01*
X218874991Y-105625500D01*
X219094995Y-105610887D01*
X219241637Y-105581319D01*
X219381581Y-105553102D01*
X219381586Y-105553101D01*
X219384808Y-105552451D01*
X219561738Y-105491529D01*
X219661234Y-105457270D01*
X219661240Y-105457268D01*
X219664346Y-105456198D01*
X219928699Y-105323820D01*
X220173221Y-105157643D01*
X220300642Y-105043716D01*
X220391168Y-104962777D01*
X220391172Y-104962773D01*
X220393618Y-104960586D01*
X220398344Y-104955073D01*
X220495869Y-104841287D01*
X220586016Y-104736111D01*
X220747036Y-104488162D01*
X220768397Y-104443177D01*
X220872442Y-104224058D01*
X220873849Y-104221095D01*
X220964226Y-103939602D01*
X221016580Y-103648629D01*
X221029992Y-103353288D01*
X221024095Y-103285878D01*
X221004511Y-103062040D01*
X221004225Y-103058768D01*
X220959184Y-102857266D01*
X220940447Y-102773440D01*
X220940445Y-102773435D01*
X220939732Y-102770243D01*
X220837646Y-102492782D01*
X220743806Y-102314798D01*
X220701289Y-102234156D01*
X220701285Y-102234149D01*
X220699761Y-102231259D01*
X220528499Y-101990271D01*
X220326869Y-101774049D01*
X220266584Y-101724530D01*
X220100953Y-101588479D01*
X220100948Y-101588475D01*
X220098414Y-101586394D01*
X219847147Y-101430602D01*
X219844150Y-101429255D01*
X219844146Y-101429253D01*
X219657286Y-101345275D01*
X219577483Y-101309410D01*
X219294160Y-101224948D01*
X219290919Y-101224435D01*
X219290916Y-101224434D01*
X219202490Y-101210429D01*
X219002154Y-101178699D01*
X218931986Y-101175513D01*
X218910791Y-101174550D01*
X218910785Y-101174550D01*
X218909687Y-101174500D01*
X218725009Y-101174500D01*
X218505005Y-101189113D01*
X218358363Y-101218681D01*
X218218419Y-101246898D01*
X218218414Y-101246899D01*
X218215192Y-101247549D01*
X218212075Y-101248622D01*
X218212076Y-101248622D01*
X217938766Y-101342730D01*
X217938760Y-101342732D01*
X217935654Y-101343802D01*
X217671301Y-101476180D01*
X217426779Y-101642357D01*
X217424333Y-101644544D01*
X217208832Y-101837223D01*
X217208828Y-101837227D01*
X217206382Y-101839414D01*
X217013984Y-102063889D01*
X216852964Y-102311838D01*
X216851561Y-102314792D01*
X216851558Y-102314798D01*
X216824166Y-102372486D01*
X216726151Y-102578905D01*
X216635774Y-102860398D01*
X216583420Y-103151371D01*
X216570008Y-103446712D01*
X209611140Y-103446712D01*
X209615787Y-103442244D01*
X209698734Y-103294134D01*
X209702410Y-103285878D01*
X209770385Y-103085630D01*
X209772494Y-103076848D01*
X209803072Y-102865949D01*
X209803565Y-102860161D01*
X209805065Y-102802913D01*
X209804875Y-102797101D01*
X209785376Y-102584898D01*
X209783729Y-102576012D01*
X209726328Y-102372486D01*
X209723087Y-102364042D01*
X209629560Y-102174388D01*
X209624837Y-102166680D01*
X209617988Y-102157508D01*
X209607098Y-102149812D01*
X209605647Y-102149831D01*
X209600556Y-102152997D01*
X208964639Y-102788914D01*
X208958585Y-102800797D01*
X208240603Y-102800797D01*
X208241415Y-102799203D01*
X208240619Y-102794172D01*
X207600721Y-102154274D01*
X207588838Y-102148220D01*
X207586714Y-102148556D01*
X207586679Y-102148585D01*
X207488705Y-102334802D01*
X207485251Y-102343142D01*
X207422541Y-102545098D01*
X207420660Y-102553948D01*
X207395805Y-102763948D01*
X207395569Y-102772981D01*
X198940344Y-102772981D01*
X198939732Y-102770243D01*
X198934124Y-102755000D01*
X201200000Y-102755000D01*
X203000000Y-102755000D01*
X203000000Y-101793989D01*
X207951362Y-101793989D01*
X207956058Y-101802505D01*
X208588914Y-102435361D01*
X208600797Y-102441415D01*
X208605828Y-102440619D01*
X209242179Y-101804268D01*
X209248057Y-101792731D01*
X209241963Y-101786051D01*
X209150964Y-101728635D01*
X209142906Y-101724530D01*
X208946491Y-101646168D01*
X208937833Y-101643603D01*
X208730426Y-101602347D01*
X208721433Y-101601402D01*
X208509985Y-101598633D01*
X208500970Y-101599343D01*
X208292556Y-101635155D01*
X208283832Y-101637493D01*
X208085436Y-101710684D01*
X208077268Y-101714580D01*
X207959619Y-101784574D01*
X207951362Y-101793989D01*
X203000000Y-101793989D01*
X203000000Y-100555000D01*
X201200000Y-100555000D01*
X201200000Y-102755000D01*
X198934124Y-102755000D01*
X198837646Y-102492782D01*
X198743806Y-102314798D01*
X198701289Y-102234156D01*
X198701285Y-102234149D01*
X198699761Y-102231259D01*
X198528499Y-101990271D01*
X198326869Y-101774049D01*
X198266584Y-101724530D01*
X198100953Y-101588479D01*
X198100948Y-101588475D01*
X198098414Y-101586394D01*
X197847147Y-101430602D01*
X197844150Y-101429255D01*
X197844146Y-101429253D01*
X197657286Y-101345275D01*
X197577483Y-101309410D01*
X197294160Y-101224948D01*
X197290919Y-101224435D01*
X197290916Y-101224434D01*
X197202490Y-101210429D01*
X197002154Y-101178699D01*
X196931986Y-101175513D01*
X196910791Y-101174550D01*
X196910785Y-101174550D01*
X196909687Y-101174500D01*
X196725009Y-101174500D01*
X196505005Y-101189113D01*
X196358363Y-101218681D01*
X196218419Y-101246898D01*
X196218414Y-101246899D01*
X196215192Y-101247549D01*
X196212075Y-101248622D01*
X196212076Y-101248622D01*
X195938766Y-101342730D01*
X195938760Y-101342732D01*
X195935654Y-101343802D01*
X195671301Y-101476180D01*
X195426779Y-101642357D01*
X195424333Y-101644544D01*
X195208832Y-101837223D01*
X195208828Y-101837227D01*
X195206382Y-101839414D01*
X195013984Y-102063889D01*
X194852964Y-102311838D01*
X194851561Y-102314792D01*
X194851558Y-102314798D01*
X194824166Y-102372486D01*
X194726151Y-102578905D01*
X194635774Y-102860398D01*
X194583420Y-103151371D01*
X194570008Y-103446712D01*
X175400000Y-103446712D01*
X175400000Y-98000000D01*
X200844723Y-98000000D01*
X200863793Y-98217977D01*
X200920425Y-98429330D01*
X201012898Y-98627638D01*
X201138402Y-98806877D01*
X201293123Y-98961598D01*
X201472361Y-99087102D01*
X201670670Y-99179575D01*
X201757220Y-99202766D01*
X201877846Y-99235088D01*
X201877848Y-99235088D01*
X201882023Y-99236207D01*
X202100000Y-99255277D01*
X202317977Y-99236207D01*
X202322152Y-99235088D01*
X202322154Y-99235088D01*
X202442780Y-99202766D01*
X202529330Y-99179575D01*
X202727639Y-99087102D01*
X202906877Y-98961598D01*
X203013475Y-98855000D01*
X212400000Y-98855000D01*
X214200000Y-98855000D01*
X214200000Y-96655000D01*
X212400000Y-96655000D01*
X212400000Y-98855000D01*
X203013475Y-98855000D01*
X203061598Y-98806877D01*
X203187102Y-98627638D01*
X203279575Y-98429330D01*
X203336207Y-98217977D01*
X203355277Y-98000000D01*
X203336207Y-97782023D01*
X203279575Y-97570670D01*
X203187102Y-97372362D01*
X203061598Y-97193123D01*
X202906877Y-97038402D01*
X202727639Y-96912898D01*
X202529330Y-96820425D01*
X202442780Y-96797234D01*
X202322154Y-96764912D01*
X202322152Y-96764912D01*
X202317977Y-96763793D01*
X202100000Y-96744723D01*
X201882023Y-96763793D01*
X201877848Y-96764912D01*
X201877846Y-96764912D01*
X201757220Y-96797234D01*
X201670670Y-96820425D01*
X201472362Y-96912898D01*
X201293123Y-97038402D01*
X201138402Y-97193123D01*
X201012898Y-97372362D01*
X200920425Y-97570670D01*
X200863793Y-97782023D01*
X200844723Y-98000000D01*
X175400000Y-98000000D01*
X175400000Y-94000000D01*
X212044723Y-94000000D01*
X212063793Y-94217977D01*
X212120425Y-94429330D01*
X212212898Y-94627638D01*
X212338402Y-94806877D01*
X212493123Y-94961598D01*
X212672361Y-95087102D01*
X212870670Y-95179575D01*
X212957220Y-95202766D01*
X213077846Y-95235088D01*
X213077848Y-95235088D01*
X213082023Y-95236207D01*
X213300000Y-95255277D01*
X213517977Y-95236207D01*
X213522152Y-95235088D01*
X213522154Y-95235088D01*
X213642780Y-95202766D01*
X213729330Y-95179575D01*
X213927639Y-95087102D01*
X214106877Y-94961598D01*
X214261598Y-94806877D01*
X214387102Y-94627638D01*
X214479575Y-94429330D01*
X214536207Y-94217977D01*
X214555277Y-94000000D01*
X214536207Y-93782023D01*
X214479575Y-93570670D01*
X214387102Y-93372362D01*
X214261598Y-93193123D01*
X214106877Y-93038402D01*
X213927639Y-92912898D01*
X213729330Y-92820425D01*
X213642780Y-92797234D01*
X213522154Y-92764912D01*
X213522152Y-92764912D01*
X213517977Y-92763793D01*
X213300000Y-92744723D01*
X213082023Y-92763793D01*
X213077848Y-92764912D01*
X213077846Y-92764912D01*
X212957220Y-92797234D01*
X212870670Y-92820425D01*
X212672362Y-92912898D01*
X212493123Y-93038402D01*
X212338402Y-93193123D01*
X212212898Y-93372362D01*
X212120425Y-93570670D01*
X212063793Y-93782023D01*
X212044723Y-94000000D01*
X175400000Y-94000000D01*
X175400000Y-89499000D01*
X175418907Y-89440809D01*
X175468407Y-89404845D01*
X175499000Y-89400000D01*
X242700500Y-89400000D01*
X242758691Y-89418907D01*
G37*
G04 #@! TD.AperFunction*
G04 #@! TA.AperFunction,Conductor*
G36*
X209789767Y-118324330D02*
G01*
X209829829Y-118355071D01*
X209829835Y-118355074D01*
X209834982Y-118359024D01*
X209962817Y-118411974D01*
X209969245Y-118412820D01*
X209969248Y-118412821D01*
X209998144Y-118416625D01*
X210053369Y-118442966D01*
X210083375Y-118501856D01*
X210088026Y-118537183D01*
X210096593Y-118557866D01*
X210138491Y-118659019D01*
X210138493Y-118659023D01*
X210140976Y-118665017D01*
X210225209Y-118774791D01*
X210334982Y-118859024D01*
X210462817Y-118911974D01*
X210469247Y-118912821D01*
X210469249Y-118912821D01*
X210488308Y-118915330D01*
X210524809Y-118920135D01*
X210581891Y-118948284D01*
X211539091Y-119905484D01*
X211539095Y-119905487D01*
X211561658Y-119928050D01*
X211583154Y-119939002D01*
X211596393Y-119947116D01*
X211615910Y-119961296D01*
X211623321Y-119963704D01*
X211638857Y-119968752D01*
X211653203Y-119974695D01*
X211674696Y-119985646D01*
X211682389Y-119986864D01*
X211682391Y-119986865D01*
X211698519Y-119989419D01*
X211713620Y-119993044D01*
X211736567Y-120000500D01*
X213789979Y-120000500D01*
X213848170Y-120019407D01*
X213884134Y-120068907D01*
X213885266Y-120112454D01*
X213888026Y-120112817D01*
X213869965Y-120250000D01*
X213870812Y-120256433D01*
X213883072Y-120349551D01*
X213888026Y-120387183D01*
X213890509Y-120393177D01*
X213938491Y-120509019D01*
X213938493Y-120509023D01*
X213940976Y-120515017D01*
X214025209Y-120624791D01*
X214134982Y-120709024D01*
X214262817Y-120761974D01*
X214269246Y-120762820D01*
X214269248Y-120762821D01*
X214355733Y-120774207D01*
X214392990Y-120779112D01*
X214393567Y-120779188D01*
X214400000Y-120780035D01*
X214406433Y-120779188D01*
X214407011Y-120779112D01*
X214444267Y-120774207D01*
X214530752Y-120762821D01*
X214530754Y-120762820D01*
X214537183Y-120761974D01*
X214665018Y-120709024D01*
X214774791Y-120624791D01*
X214859024Y-120515017D01*
X214861507Y-120509023D01*
X214861509Y-120509019D01*
X214909491Y-120393177D01*
X214911974Y-120387183D01*
X214916929Y-120349551D01*
X214929188Y-120256433D01*
X214930035Y-120250000D01*
X214911974Y-120112817D01*
X214915067Y-120112410D01*
X214917583Y-120064057D01*
X214956070Y-120016492D01*
X215010021Y-120000500D01*
X222463433Y-120000500D01*
X222486380Y-119993044D01*
X222501481Y-119989419D01*
X222517609Y-119986865D01*
X222517611Y-119986864D01*
X222525304Y-119985646D01*
X222546797Y-119974695D01*
X222561143Y-119968752D01*
X222576679Y-119963704D01*
X222584090Y-119961296D01*
X222603607Y-119947116D01*
X222616846Y-119939002D01*
X222638342Y-119928050D01*
X222660905Y-119905487D01*
X222660909Y-119905484D01*
X223736896Y-118829496D01*
X223791413Y-118801719D01*
X223806900Y-118800500D01*
X227602689Y-118800500D01*
X227660880Y-118819407D01*
X227696844Y-118868907D01*
X227696844Y-118930093D01*
X227668611Y-118973360D01*
X227568611Y-119062614D01*
X227537265Y-119090591D01*
X227534918Y-119093413D01*
X227534917Y-119093414D01*
X227450716Y-119194655D01*
X227370895Y-119290629D01*
X227235920Y-119513061D01*
X227135305Y-119753001D01*
X227134402Y-119756558D01*
X227134399Y-119756566D01*
X227114514Y-119834868D01*
X227081865Y-119886615D01*
X227025036Y-119909288D01*
X227018560Y-119909500D01*
X224358481Y-119909500D01*
X224358477Y-119909501D01*
X224326567Y-119909501D01*
X224319160Y-119911907D01*
X224319157Y-119911908D01*
X224303627Y-119916954D01*
X224288525Y-119920580D01*
X224264696Y-119924354D01*
X224243206Y-119935304D01*
X224228856Y-119941249D01*
X224205910Y-119948704D01*
X224186386Y-119962889D01*
X224173156Y-119970996D01*
X224151658Y-119981950D01*
X224129091Y-120004517D01*
X222463103Y-121670504D01*
X222408586Y-121698281D01*
X222393099Y-121699500D01*
X209172178Y-121699500D01*
X209113987Y-121680593D01*
X209078023Y-121631093D01*
X209078023Y-121569907D01*
X209093636Y-121540232D01*
X209155073Y-121460166D01*
X209159024Y-121455017D01*
X209161507Y-121449023D01*
X209161509Y-121449019D01*
X209209491Y-121333177D01*
X209211974Y-121327183D01*
X209230035Y-121190000D01*
X209229188Y-121183567D01*
X209229188Y-121179218D01*
X209248095Y-121121027D01*
X209258184Y-121109214D01*
X209520449Y-120846949D01*
X209526817Y-120841114D01*
X209557083Y-120815718D01*
X209576842Y-120781494D01*
X209581484Y-120774207D01*
X209599186Y-120748927D01*
X209599187Y-120748925D01*
X209604155Y-120741830D01*
X209606398Y-120733462D01*
X209608958Y-120727971D01*
X209611029Y-120722282D01*
X209615359Y-120714781D01*
X209617429Y-120703045D01*
X209622222Y-120675857D01*
X209624092Y-120667424D01*
X209632079Y-120637617D01*
X209634321Y-120629250D01*
X209630877Y-120589888D01*
X209630500Y-120581259D01*
X209630500Y-118402872D01*
X209649407Y-118344681D01*
X209698907Y-118308717D01*
X209760093Y-118308717D01*
X209789767Y-118324330D01*
G37*
G04 #@! TD.AperFunction*
G04 #@! TA.AperFunction,Conductor*
G36*
X210235785Y-109817407D02*
G01*
X210247598Y-109827496D01*
X219055971Y-118635869D01*
X219083748Y-118690386D01*
X219081594Y-118731495D01*
X219080509Y-118735544D01*
X219078026Y-118741539D01*
X219059965Y-118878722D01*
X219060812Y-118885155D01*
X219072425Y-118973360D01*
X219078026Y-119015905D01*
X219097374Y-119062616D01*
X219102175Y-119123611D01*
X219070205Y-119175780D01*
X219013678Y-119199195D01*
X219005910Y-119199500D01*
X214099000Y-119199500D01*
X214040809Y-119180593D01*
X214004845Y-119131093D01*
X214000000Y-119100500D01*
X214000000Y-117180000D01*
X212200000Y-117180000D01*
X212200000Y-119100500D01*
X212181093Y-119158691D01*
X212131593Y-119194655D01*
X212101000Y-119199500D01*
X212006901Y-119199500D01*
X211948710Y-119180593D01*
X211936897Y-119170504D01*
X211148284Y-118381891D01*
X211120135Y-118324808D01*
X211112821Y-118269249D01*
X211112821Y-118269247D01*
X211111974Y-118262817D01*
X211084130Y-118195594D01*
X211061509Y-118140981D01*
X211061507Y-118140977D01*
X211059024Y-118134983D01*
X211000350Y-118058518D01*
X210978742Y-118030358D01*
X210974791Y-118025209D01*
X210865018Y-117940976D01*
X210737183Y-117888026D01*
X210730755Y-117887180D01*
X210730752Y-117887179D01*
X210701856Y-117883375D01*
X210646631Y-117857034D01*
X210616625Y-117798144D01*
X210612821Y-117769248D01*
X210612820Y-117769245D01*
X210611974Y-117762817D01*
X210595727Y-117723592D01*
X210561509Y-117640981D01*
X210561507Y-117640977D01*
X210559024Y-117634983D01*
X210474791Y-117525209D01*
X210365018Y-117440976D01*
X210237183Y-117388026D01*
X210230754Y-117387180D01*
X210230752Y-117387179D01*
X210106433Y-117370812D01*
X210100000Y-117369965D01*
X210093567Y-117370812D01*
X209969248Y-117387179D01*
X209969246Y-117387180D01*
X209962817Y-117388026D01*
X209940840Y-117397129D01*
X209840981Y-117438491D01*
X209840977Y-117438493D01*
X209834983Y-117440976D01*
X209829834Y-117444927D01*
X209789768Y-117475671D01*
X209732092Y-117496095D01*
X209673426Y-117478718D01*
X209636179Y-117430176D01*
X209630500Y-117397129D01*
X209630500Y-110177906D01*
X209649407Y-110119715D01*
X209659496Y-110107902D01*
X209939902Y-109827496D01*
X209994419Y-109799719D01*
X210009906Y-109798500D01*
X210177594Y-109798500D01*
X210235785Y-109817407D01*
G37*
G04 #@! TD.AperFunction*
G04 #@! TA.AperFunction,Conductor*
G36*
X240435864Y-60718907D02*
G01*
X240471828Y-60768407D01*
X240474498Y-60819639D01*
X239715859Y-64378742D01*
X239715331Y-64381217D01*
X239684708Y-64434187D01*
X239652772Y-64453459D01*
X239600833Y-64472621D01*
X239574193Y-64482449D01*
X239400371Y-64585862D01*
X239396956Y-64588857D01*
X239396953Y-64588859D01*
X239380630Y-64603174D01*
X239248305Y-64719220D01*
X239123089Y-64878057D01*
X239028914Y-65057053D01*
X238968937Y-65250213D01*
X238945164Y-65451069D01*
X238958392Y-65652894D01*
X239008178Y-65848928D01*
X239092856Y-66032607D01*
X239209588Y-66197780D01*
X239212836Y-66200944D01*
X239268608Y-66255274D01*
X239297097Y-66309422D01*
X239296352Y-66346824D01*
X239032276Y-67585718D01*
X239028767Y-67597007D01*
X239028914Y-67597053D01*
X238968937Y-67790213D01*
X238945164Y-67991069D01*
X238944885Y-67991036D01*
X238943636Y-68001564D01*
X237792295Y-73402995D01*
X235016714Y-86424425D01*
X234986091Y-86477395D01*
X234930181Y-86502250D01*
X234919825Y-86502786D01*
X232300736Y-86501097D01*
X230688097Y-86500057D01*
X230629920Y-86481112D01*
X230593988Y-86431589D01*
X230589825Y-86412492D01*
X230408140Y-84850000D01*
X231669965Y-84850000D01*
X231688026Y-84987183D01*
X231690509Y-84993177D01*
X231738491Y-85109019D01*
X231738493Y-85109023D01*
X231740976Y-85115017D01*
X231825209Y-85224791D01*
X231934982Y-85309024D01*
X232062817Y-85361974D01*
X232069246Y-85362820D01*
X232069248Y-85362821D01*
X232193567Y-85379188D01*
X232200000Y-85380035D01*
X232206433Y-85379188D01*
X232330752Y-85362821D01*
X232330754Y-85362820D01*
X232337183Y-85361974D01*
X232465018Y-85309024D01*
X232574791Y-85224791D01*
X232659024Y-85115017D01*
X232661507Y-85109023D01*
X232661509Y-85109019D01*
X232709491Y-84993177D01*
X232711974Y-84987183D01*
X232730035Y-84850000D01*
X232726767Y-84825178D01*
X232712821Y-84719248D01*
X232712820Y-84719246D01*
X232711974Y-84712817D01*
X232662396Y-84593123D01*
X232661509Y-84590981D01*
X232661507Y-84590977D01*
X232659024Y-84584983D01*
X232574791Y-84475209D01*
X232465018Y-84390976D01*
X232337183Y-84338026D01*
X232330754Y-84337180D01*
X232330752Y-84337179D01*
X232206433Y-84320812D01*
X232200000Y-84319965D01*
X232193567Y-84320812D01*
X232069248Y-84337179D01*
X232069246Y-84337180D01*
X232062817Y-84338026D01*
X232023592Y-84354273D01*
X231940981Y-84388491D01*
X231940977Y-84388493D01*
X231934983Y-84390976D01*
X231825209Y-84475209D01*
X231740976Y-84584983D01*
X231738493Y-84590977D01*
X231738491Y-84590981D01*
X231737604Y-84593123D01*
X231688026Y-84712817D01*
X231687180Y-84719246D01*
X231687179Y-84719248D01*
X231673233Y-84825178D01*
X231669965Y-84850000D01*
X230408140Y-84850000D01*
X229752049Y-79207624D01*
X231751758Y-79207624D01*
X231751765Y-79207669D01*
X231757288Y-79213884D01*
X231821178Y-79256575D01*
X231829133Y-79260893D01*
X232023412Y-79344362D01*
X232032024Y-79347160D01*
X232238272Y-79393829D01*
X232247232Y-79395009D01*
X232458544Y-79403311D01*
X232467556Y-79402839D01*
X232676848Y-79372494D01*
X232685630Y-79370385D01*
X232885878Y-79302410D01*
X232894134Y-79298734D01*
X233041376Y-79216274D01*
X233049578Y-79207400D01*
X233044676Y-79198229D01*
X232411086Y-78564639D01*
X232399203Y-78558585D01*
X232394172Y-78559381D01*
X231757812Y-79195741D01*
X231751758Y-79207624D01*
X229752049Y-79207624D01*
X229631742Y-78172981D01*
X231195569Y-78172981D01*
X231209399Y-78384000D01*
X231210812Y-78392921D01*
X231262866Y-78597882D01*
X231265886Y-78606410D01*
X231354417Y-78798449D01*
X231358935Y-78806274D01*
X231383525Y-78841069D01*
X231394210Y-78849048D01*
X231394961Y-78849058D01*
X231401090Y-78845357D01*
X232035361Y-78211086D01*
X232040603Y-78200797D01*
X232758585Y-78200797D01*
X232759381Y-78205828D01*
X233397525Y-78843972D01*
X233408287Y-78849455D01*
X233415787Y-78842244D01*
X233498734Y-78694134D01*
X233502410Y-78685878D01*
X233570385Y-78485630D01*
X233572494Y-78476848D01*
X233603072Y-78265949D01*
X233603565Y-78260161D01*
X233605065Y-78202913D01*
X233604875Y-78197101D01*
X233585376Y-77984898D01*
X233583729Y-77976012D01*
X233526328Y-77772486D01*
X233523087Y-77764042D01*
X233429560Y-77574388D01*
X233424837Y-77566680D01*
X233417988Y-77557508D01*
X233407098Y-77549812D01*
X233405647Y-77549831D01*
X233400556Y-77552997D01*
X232764639Y-78188914D01*
X232758585Y-78200797D01*
X232040603Y-78200797D01*
X232041415Y-78199203D01*
X232040619Y-78194172D01*
X231400721Y-77554274D01*
X231388838Y-77548220D01*
X231386714Y-77548556D01*
X231386679Y-77548585D01*
X231288705Y-77734802D01*
X231285251Y-77743142D01*
X231222541Y-77945098D01*
X231220660Y-77953948D01*
X231195805Y-78163948D01*
X231195569Y-78172981D01*
X229631742Y-78172981D01*
X229517906Y-77193989D01*
X231751362Y-77193989D01*
X231756058Y-77202505D01*
X232388914Y-77835361D01*
X232400797Y-77841415D01*
X232405828Y-77840619D01*
X233042179Y-77204268D01*
X233048057Y-77192731D01*
X233041963Y-77186051D01*
X232950964Y-77128635D01*
X232942906Y-77124530D01*
X232746491Y-77046168D01*
X232737833Y-77043603D01*
X232530426Y-77002347D01*
X232521433Y-77001402D01*
X232309985Y-76998633D01*
X232300970Y-76999343D01*
X232092556Y-77035155D01*
X232083832Y-77037493D01*
X231885436Y-77110684D01*
X231877268Y-77114580D01*
X231759619Y-77184574D01*
X231751362Y-77193989D01*
X229517906Y-77193989D01*
X229298888Y-75310435D01*
X229310947Y-75250449D01*
X229355962Y-75209009D01*
X229397225Y-75200000D01*
X230200000Y-75200000D01*
X230200000Y-73400000D01*
X229164899Y-73400000D01*
X229106708Y-73381093D01*
X229070744Y-73331593D01*
X229066562Y-73312435D01*
X228053909Y-64603616D01*
X228065968Y-64543630D01*
X228114361Y-64500717D01*
X228209020Y-64461509D01*
X228209024Y-64461507D01*
X228215018Y-64459024D01*
X228324791Y-64374791D01*
X228409024Y-64265017D01*
X228411507Y-64259023D01*
X228411509Y-64259019D01*
X228459491Y-64143177D01*
X228461974Y-64137183D01*
X228480035Y-64000000D01*
X229219965Y-64000000D01*
X229238026Y-64137183D01*
X229240509Y-64143177D01*
X229288491Y-64259019D01*
X229288493Y-64259023D01*
X229290976Y-64265017D01*
X229375209Y-64374791D01*
X229484982Y-64459024D01*
X229612817Y-64511974D01*
X229619246Y-64512820D01*
X229619248Y-64512821D01*
X229743567Y-64529188D01*
X229750000Y-64530035D01*
X229756433Y-64529188D01*
X229880752Y-64512821D01*
X229880754Y-64512820D01*
X229887183Y-64511974D01*
X230015018Y-64459024D01*
X230124791Y-64374791D01*
X230209024Y-64265017D01*
X230211507Y-64259023D01*
X230211509Y-64259019D01*
X230259491Y-64143177D01*
X230261974Y-64137183D01*
X230280035Y-64000000D01*
X230261974Y-63862817D01*
X230245727Y-63823592D01*
X230211509Y-63740981D01*
X230211507Y-63740977D01*
X230209024Y-63734983D01*
X230124791Y-63625209D01*
X230015018Y-63540976D01*
X229887183Y-63488026D01*
X229880754Y-63487180D01*
X229880752Y-63487179D01*
X229756433Y-63470812D01*
X229750000Y-63469965D01*
X229743567Y-63470812D01*
X229619248Y-63487179D01*
X229619246Y-63487180D01*
X229612817Y-63488026D01*
X229573592Y-63504273D01*
X229490981Y-63538491D01*
X229490977Y-63538493D01*
X229484983Y-63540976D01*
X229375209Y-63625209D01*
X229290976Y-63734983D01*
X229288493Y-63740977D01*
X229288491Y-63740981D01*
X229254273Y-63823592D01*
X229238026Y-63862817D01*
X229219965Y-64000000D01*
X228480035Y-64000000D01*
X228461974Y-63862817D01*
X228445727Y-63823592D01*
X228411509Y-63740981D01*
X228411507Y-63740977D01*
X228409024Y-63734983D01*
X228324791Y-63625209D01*
X228215018Y-63540976D01*
X228087183Y-63488026D01*
X228080756Y-63487180D01*
X228080753Y-63487179D01*
X227998157Y-63476305D01*
X227942932Y-63449964D01*
X227913738Y-63396193D01*
X227912743Y-63389587D01*
X227751257Y-62000813D01*
X227612841Y-60810434D01*
X227624900Y-60750450D01*
X227669915Y-60709009D01*
X227711178Y-60700000D01*
X240377673Y-60700000D01*
X240435864Y-60718907D01*
G37*
G04 #@! TD.AperFunction*
M02*
