%TF.GenerationSoftware,KiCad,Pcbnew,6.0.11+dfsg-1*%
%TF.CreationDate,2023-09-07T21:49:34+01:00*%
%TF.ProjectId,low-noise-power-probe-panel,6c6f772d-6e6f-4697-9365-2d706f776572,rev?*%
%TF.SameCoordinates,Original*%
%TF.FileFunction,Drillmap*%
%TF.FilePolarity,Positive*%
%FSLAX45Y45*%
G04 Gerber Fmt 4.5, Leading zero omitted, Abs format (unit mm)*
G04 Created by KiCad (PCBNEW 6.0.11+dfsg-1) date 2023-09-07 21:49:34*
%MOMM*%
%LPD*%
G01*
G04 APERTURE LIST*
%ADD10C,0.100000*%
%ADD11C,0.200000*%
%ADD12C,0.030000*%
%ADD13C,0.060000*%
%ADD14C,0.080000*%
%ADD15C,0.089000*%
%ADD16C,0.185000*%
%ADD17C,0.201000*%
G04 APERTURE END LIST*
D10*
X24989400Y-2000091D02*
X24989354Y-2000072D01*
X17010072Y-14479354D02*
X17010091Y-14479400D01*
X24989958Y-2000739D02*
X24989944Y-2000692D01*
X24989068Y-2000008D02*
X24989019Y-2000006D01*
X17010112Y-2000556D02*
X17010091Y-2000600D01*
X24989610Y-2000217D02*
X24989570Y-2000188D01*
X17010513Y-14479865D02*
X17010556Y-14479888D01*
X17010600Y-14479909D02*
X17010646Y-14479927D01*
X17010430Y-14479812D02*
X17010470Y-14479839D01*
X24989783Y-14479610D02*
X24989812Y-14479570D01*
X24989839Y-2000470D02*
X24989812Y-2000430D01*
X24989261Y-2000042D02*
X24989214Y-2000030D01*
X24989970Y-14479214D02*
X24989980Y-14479165D01*
X17010316Y-2000281D02*
X17010281Y-2000316D01*
X24989987Y-14479117D02*
X24989992Y-14479068D01*
X24989354Y-2000072D02*
X24989308Y-2000056D01*
X17010112Y-14479444D02*
X17010135Y-14479487D01*
X24989992Y-2000932D02*
X24989987Y-2000883D01*
X17010556Y-14479888D02*
X17010600Y-14479909D01*
X17010390Y-2000217D02*
X17010352Y-2000248D01*
X24989719Y-2000316D02*
X24989684Y-2000281D01*
X24989117Y-2000013D02*
X24989068Y-2000008D01*
X24989987Y-2000883D02*
X24989980Y-2000834D01*
X17010281Y-14479684D02*
X17010316Y-14479719D01*
X17010006Y-14479019D02*
X17010008Y-14479068D01*
X17010013Y-14479117D02*
X17010020Y-14479165D01*
X17010217Y-2000390D02*
X17010188Y-2000430D01*
X24989648Y-14479752D02*
X24989684Y-14479719D01*
X17010932Y-14479992D02*
X17010981Y-14479994D01*
X17010042Y-2000739D02*
X17010030Y-2000786D01*
X17010091Y-14479400D02*
X17010112Y-14479444D01*
X17010739Y-14479958D02*
X17010786Y-14479970D01*
X24989927Y-2000645D02*
X24989909Y-2000600D01*
X17010135Y-2000512D02*
X17010112Y-2000556D01*
X17010281Y-2000316D02*
X17010248Y-2000352D01*
X17010008Y-14479068D02*
X17010013Y-14479117D01*
X17010006Y-2000981D02*
X17010000Y-2001203D01*
X17010786Y-2000030D02*
X17010739Y-2000042D01*
X17010646Y-2000072D02*
X17010600Y-2000091D01*
X24989570Y-14479812D02*
X24989610Y-14479783D01*
X17010020Y-14479165D02*
X17010030Y-14479214D01*
X24989354Y-14479927D02*
X24989400Y-14479909D01*
X24989684Y-14479719D02*
X24989719Y-14479684D01*
X17010030Y-14479214D02*
X17010042Y-14479261D01*
X17010161Y-14479529D02*
X17010188Y-14479570D01*
X24989970Y-2000786D02*
X24989958Y-2000739D01*
X17010692Y-2000056D02*
X17010646Y-2000072D01*
X24989719Y-14479684D02*
X24989752Y-14479648D01*
X24989752Y-2000352D02*
X24989719Y-2000316D01*
X17010217Y-14479610D02*
X17010248Y-14479648D01*
X17010556Y-2000112D02*
X17010513Y-2000135D01*
X24989944Y-2000692D02*
X24989927Y-2000645D01*
X24989019Y-2000006D02*
X24988797Y-2000000D01*
X24989909Y-2000600D02*
X24989888Y-2000556D01*
X17010161Y-2000470D02*
X17010135Y-2000512D01*
X17010470Y-14479839D02*
X17010513Y-14479865D01*
X24989214Y-2000030D02*
X24989165Y-2000020D01*
X24989308Y-2000056D02*
X24989261Y-2000042D01*
X17010981Y-2000006D02*
X17010981Y-2000006D01*
X24989165Y-2000020D02*
X24989117Y-2000013D01*
X17010188Y-2000430D02*
X17010161Y-2000470D01*
X17011203Y-14480000D02*
X17011227Y-14480000D01*
X17010056Y-2000692D02*
X17010042Y-2000739D01*
X24989888Y-2000556D02*
X24989865Y-2000512D01*
X17010000Y-14478773D02*
X17010000Y-14478797D01*
X24989992Y-14479068D02*
X24989994Y-14479019D01*
X24989261Y-14479958D02*
X24989308Y-14479944D01*
X17010042Y-14479261D02*
X17010056Y-14479308D01*
X24990000Y-2001227D02*
X24990000Y-2001203D01*
X24990000Y-2001203D02*
X24989994Y-2000981D01*
X17010135Y-14479487D02*
X17010161Y-14479529D01*
X17010739Y-2000042D02*
X17010692Y-2000056D01*
X17010390Y-14479783D02*
X17010430Y-14479812D01*
X24989909Y-14479400D02*
X24989927Y-14479354D01*
X24989865Y-2000512D02*
X24989839Y-2000470D01*
X17010248Y-14479648D02*
X17010281Y-14479684D01*
X17010008Y-2000932D02*
X17010006Y-2000981D01*
X24989165Y-14479980D02*
X24989214Y-14479970D01*
X24988797Y-2000000D02*
X24988773Y-2000000D01*
X17010000Y-14478797D02*
X17010006Y-14479019D01*
X24989752Y-14479648D02*
X24989783Y-14479610D01*
X24989610Y-14479783D02*
X24989648Y-14479752D01*
X24989927Y-14479354D02*
X24989944Y-14479308D01*
X24989068Y-14479992D02*
X24989117Y-14479987D01*
X17010786Y-14479970D02*
X17010834Y-14479980D01*
X17010000Y-2001203D02*
X17010000Y-2001227D01*
X17011203Y-2000000D02*
X17010981Y-2000006D01*
X17010646Y-14479927D02*
X17010692Y-14479944D01*
X17010834Y-14479980D02*
X17010883Y-14479987D01*
X17010072Y-2000645D02*
X17010056Y-2000692D01*
X24989529Y-14479839D02*
X24989570Y-14479812D01*
X24989487Y-2000135D02*
X24989444Y-2000112D01*
X24989308Y-14479944D02*
X24989354Y-14479927D01*
X24989888Y-14479444D02*
X24989909Y-14479400D01*
X17010188Y-14479570D02*
X17010217Y-14479610D01*
X24989944Y-14479308D02*
X24989958Y-14479261D01*
X17011227Y-2000000D02*
X17011203Y-2000000D01*
X24989812Y-14479570D02*
X24989839Y-14479529D01*
X17010352Y-14479752D02*
X17010390Y-14479783D01*
X24989958Y-14479261D02*
X24989970Y-14479214D01*
X24989444Y-2000112D02*
X24989400Y-2000091D01*
X17010030Y-2000786D02*
X17010020Y-2000834D01*
X17010470Y-2000160D02*
X17010430Y-2000188D01*
X24989980Y-14479165D02*
X24989987Y-14479117D01*
X17010000Y-2001227D02*
X17010000Y-14478773D01*
X24990000Y-14478773D02*
X24990000Y-2001227D01*
X17010981Y-2000006D02*
X17010932Y-2000008D01*
X17010248Y-2000352D02*
X17010217Y-2000390D01*
X17010932Y-2000008D02*
X17010883Y-2000013D01*
X17010091Y-2000600D02*
X17010072Y-2000645D01*
X24989400Y-14479909D02*
X24989444Y-14479888D01*
X17010020Y-2000834D02*
X17010013Y-2000883D01*
X17010513Y-2000135D02*
X17010470Y-2000160D01*
X24989783Y-2000390D02*
X24989752Y-2000352D01*
X24989994Y-2000981D02*
X24989992Y-2000932D01*
X24989865Y-14479487D02*
X24989888Y-14479444D01*
X24989487Y-14479865D02*
X24989529Y-14479839D01*
X17010013Y-2000883D02*
X17010008Y-2000932D01*
X17010600Y-2000091D02*
X17010556Y-2000112D01*
X17010056Y-14479308D02*
X17010072Y-14479354D01*
X24988797Y-14480000D02*
X24989019Y-14479994D01*
X17011227Y-14480000D02*
X24988773Y-14480000D01*
X24989980Y-2000834D02*
X24989970Y-2000786D01*
X24989444Y-14479888D02*
X24989487Y-14479865D01*
X17010883Y-14479987D02*
X17010932Y-14479992D01*
X24988773Y-14480000D02*
X24988797Y-14480000D01*
X24990000Y-14478797D02*
X24990000Y-14478773D01*
X17010692Y-14479944D02*
X17010739Y-14479958D01*
X24989570Y-2000188D02*
X24989529Y-2000160D01*
X24989648Y-2000248D02*
X24989610Y-2000217D01*
X24989684Y-2000281D02*
X24989648Y-2000248D01*
X24989994Y-14479019D02*
X24990000Y-14478797D01*
X24989812Y-2000430D02*
X24989783Y-2000390D01*
X24989117Y-14479987D02*
X24989165Y-14479980D01*
X24988773Y-2000000D02*
X17011227Y-2000000D01*
X17010834Y-2000020D02*
X17010786Y-2000030D01*
X17010316Y-14479719D02*
X17010352Y-14479752D01*
X24989214Y-14479970D02*
X24989261Y-14479958D01*
X24989529Y-2000160D02*
X24989487Y-2000135D01*
X17010352Y-2000248D02*
X17010316Y-2000281D01*
X24989019Y-14479994D02*
X24989068Y-14479992D01*
X24989839Y-14479529D02*
X24989865Y-14479487D01*
X17010430Y-2000188D02*
X17010390Y-2000217D01*
X17010981Y-14479994D02*
X17011203Y-14480000D01*
X17010883Y-2000013D02*
X17010834Y-2000020D01*
D11*
D12*
X17740000Y-12355000D02*
X17770000Y-12385000D01*
X17770000Y-12355000D02*
X17740000Y-12385000D01*
X17740000Y-12855000D02*
X17770000Y-12885000D01*
X17770000Y-12855000D02*
X17740000Y-12885000D01*
X17740000Y-13355000D02*
X17770000Y-13385000D01*
X17770000Y-13355000D02*
X17740000Y-13385000D01*
X17740000Y-13855000D02*
X17770000Y-13885000D01*
X17770000Y-13855000D02*
X17740000Y-13885000D01*
X17745000Y-3167500D02*
X17775000Y-3197500D01*
X17775000Y-3167500D02*
X17745000Y-3197500D01*
X17745000Y-3667500D02*
X17775000Y-3697500D01*
X17775000Y-3667500D02*
X17745000Y-3697500D01*
X17745000Y-4167500D02*
X17775000Y-4197500D01*
X17775000Y-4167500D02*
X17745000Y-4197500D01*
X17745000Y-4667500D02*
X17775000Y-4697500D01*
X17775000Y-4667500D02*
X17745000Y-4697500D01*
X17745000Y-5167500D02*
X17775000Y-5197500D01*
X17775000Y-5167500D02*
X17745000Y-5197500D01*
X17745000Y-5667500D02*
X17775000Y-5697500D01*
X17775000Y-5667500D02*
X17745000Y-5697500D01*
X17745000Y-6167500D02*
X17775000Y-6197500D01*
X17775000Y-6167500D02*
X17745000Y-6197500D01*
X17745000Y-6667500D02*
X17775000Y-6697500D01*
X17775000Y-6667500D02*
X17745000Y-6697500D01*
X17745000Y-7167500D02*
X17775000Y-7197500D01*
X17775000Y-7167500D02*
X17745000Y-7197500D01*
X17745000Y-7667500D02*
X17775000Y-7697500D01*
X17775000Y-7667500D02*
X17745000Y-7697500D01*
X17745000Y-8167500D02*
X17775000Y-8197500D01*
X17775000Y-8167500D02*
X17745000Y-8197500D01*
X17745000Y-8667500D02*
X17775000Y-8697500D01*
X17775000Y-8667500D02*
X17745000Y-8697500D01*
X17745000Y-9167500D02*
X17775000Y-9197500D01*
X17775000Y-9167500D02*
X17745000Y-9197500D01*
X17745000Y-9667500D02*
X17775000Y-9697500D01*
X17775000Y-9667500D02*
X17745000Y-9697500D01*
X17745000Y-10167500D02*
X17775000Y-10197500D01*
X17775000Y-10167500D02*
X17745000Y-10197500D01*
X17745000Y-10667500D02*
X17775000Y-10697500D01*
X17775000Y-10667500D02*
X17745000Y-10697500D01*
X17745000Y-11167500D02*
X17775000Y-11197500D01*
X17775000Y-11167500D02*
X17745000Y-11197500D01*
X17745000Y-11667500D02*
X17775000Y-11697500D01*
X17775000Y-11667500D02*
X17745000Y-11697500D01*
X18271548Y-2667500D02*
X18301548Y-2697500D01*
X18301548Y-2667500D02*
X18271548Y-2697500D01*
X18271548Y-3167500D02*
X18301548Y-3197500D01*
X18301548Y-3167500D02*
X18271548Y-3197500D01*
X18271548Y-3667500D02*
X18301548Y-3697500D01*
X18301548Y-3667500D02*
X18271548Y-3697500D01*
X18271548Y-4167500D02*
X18301548Y-4197500D01*
X18301548Y-4167500D02*
X18271548Y-4197500D01*
X18271548Y-4667500D02*
X18301548Y-4697500D01*
X18301548Y-4667500D02*
X18271548Y-4697500D01*
X18271548Y-5167500D02*
X18301548Y-5197500D01*
X18301548Y-5167500D02*
X18271548Y-5197500D01*
X18271548Y-5667500D02*
X18301548Y-5697500D01*
X18301548Y-5667500D02*
X18271548Y-5697500D01*
X18271548Y-6167500D02*
X18301548Y-6197500D01*
X18301548Y-6167500D02*
X18271548Y-6197500D01*
X18271548Y-6667500D02*
X18301548Y-6697500D01*
X18301548Y-6667500D02*
X18271548Y-6697500D01*
X18271548Y-7167500D02*
X18301548Y-7197500D01*
X18301548Y-7167500D02*
X18271548Y-7197500D01*
X18271548Y-7667500D02*
X18301548Y-7697500D01*
X18301548Y-7667500D02*
X18271548Y-7697500D01*
X18271548Y-8167500D02*
X18301548Y-8197500D01*
X18301548Y-8167500D02*
X18271548Y-8197500D01*
X18271548Y-8667500D02*
X18301548Y-8697500D01*
X18301548Y-8667500D02*
X18271548Y-8697500D01*
X18271548Y-9167500D02*
X18301548Y-9197500D01*
X18301548Y-9167500D02*
X18271548Y-9197500D01*
X18271548Y-9667500D02*
X18301548Y-9697500D01*
X18301548Y-9667500D02*
X18271548Y-9697500D01*
X18271548Y-10167500D02*
X18301548Y-10197500D01*
X18301548Y-10167500D02*
X18271548Y-10197500D01*
X18271548Y-10667500D02*
X18301548Y-10697500D01*
X18301548Y-10667500D02*
X18271548Y-10697500D01*
X18271548Y-11167500D02*
X18301548Y-11197500D01*
X18301548Y-11167500D02*
X18271548Y-11197500D01*
X18271548Y-11667500D02*
X18301548Y-11697500D01*
X18301548Y-11667500D02*
X18271548Y-11697500D01*
X18271548Y-13167500D02*
X18301548Y-13197500D01*
X18301548Y-13167500D02*
X18271548Y-13197500D01*
X18755000Y-12142500D02*
X18785000Y-12172500D01*
X18785000Y-12142500D02*
X18755000Y-12172500D01*
X18755000Y-13855000D02*
X18785000Y-13885000D01*
X18785000Y-13855000D02*
X18755000Y-13885000D01*
X18771548Y-2667500D02*
X18801548Y-2697500D01*
X18801548Y-2667500D02*
X18771548Y-2697500D01*
X18771548Y-3167500D02*
X18801548Y-3197500D01*
X18801548Y-3167500D02*
X18771548Y-3197500D01*
X18771548Y-4167500D02*
X18801548Y-4197500D01*
X18801548Y-4167500D02*
X18771548Y-4197500D01*
X18771548Y-4667500D02*
X18801548Y-4697500D01*
X18801548Y-4667500D02*
X18771548Y-4697500D01*
X18771548Y-5167500D02*
X18801548Y-5197500D01*
X18801548Y-5167500D02*
X18771548Y-5197500D01*
X18771548Y-5667500D02*
X18801548Y-5697500D01*
X18801548Y-5667500D02*
X18771548Y-5697500D01*
X18771548Y-6167500D02*
X18801548Y-6197500D01*
X18801548Y-6167500D02*
X18771548Y-6197500D01*
X18771548Y-6667500D02*
X18801548Y-6697500D01*
X18801548Y-6667500D02*
X18771548Y-6697500D01*
X18771548Y-7167500D02*
X18801548Y-7197500D01*
X18801548Y-7167500D02*
X18771548Y-7197500D01*
X18771548Y-7667500D02*
X18801548Y-7697500D01*
X18801548Y-7667500D02*
X18771548Y-7697500D01*
X18771548Y-8167500D02*
X18801548Y-8197500D01*
X18801548Y-8167500D02*
X18771548Y-8197500D01*
X18771548Y-8667500D02*
X18801548Y-8697500D01*
X18801548Y-8667500D02*
X18771548Y-8697500D01*
X18771548Y-9167500D02*
X18801548Y-9197500D01*
X18801548Y-9167500D02*
X18771548Y-9197500D01*
X18771548Y-9667500D02*
X18801548Y-9697500D01*
X18801548Y-9667500D02*
X18771548Y-9697500D01*
X18771548Y-10167500D02*
X18801548Y-10197500D01*
X18801548Y-10167500D02*
X18771548Y-10197500D01*
X18771548Y-10667500D02*
X18801548Y-10697500D01*
X18801548Y-10667500D02*
X18771548Y-10697500D01*
X18945000Y-13015000D02*
X18975000Y-13045000D01*
X18975000Y-13015000D02*
X18945000Y-13045000D01*
X18945000Y-13545000D02*
X18975000Y-13575000D01*
X18975000Y-13545000D02*
X18945000Y-13575000D01*
X18955000Y-11005000D02*
X18985000Y-11035000D01*
X18985000Y-11005000D02*
X18955000Y-11035000D01*
X18955000Y-12415000D02*
X18985000Y-12445000D01*
X18985000Y-12415000D02*
X18955000Y-12445000D01*
X19270000Y-13855000D02*
X19300000Y-13885000D01*
X19300000Y-13855000D02*
X19270000Y-13885000D01*
X19271548Y-2667500D02*
X19301548Y-2697500D01*
X19301548Y-2667500D02*
X19271548Y-2697500D01*
X19271548Y-3167500D02*
X19301548Y-3197500D01*
X19301548Y-3167500D02*
X19271548Y-3197500D01*
X19271548Y-4167500D02*
X19301548Y-4197500D01*
X19301548Y-4167500D02*
X19271548Y-4197500D01*
X19271548Y-4667500D02*
X19301548Y-4697500D01*
X19301548Y-4667500D02*
X19271548Y-4697500D01*
X19271548Y-5167500D02*
X19301548Y-5197500D01*
X19301548Y-5167500D02*
X19271548Y-5197500D01*
X19271548Y-5667500D02*
X19301548Y-5697500D01*
X19301548Y-5667500D02*
X19271548Y-5697500D01*
X19271548Y-6167500D02*
X19301548Y-6197500D01*
X19301548Y-6167500D02*
X19271548Y-6197500D01*
X19271548Y-6667500D02*
X19301548Y-6697500D01*
X19301548Y-6667500D02*
X19271548Y-6697500D01*
X19271548Y-7167500D02*
X19301548Y-7197500D01*
X19301548Y-7167500D02*
X19271548Y-7197500D01*
X19271548Y-7667500D02*
X19301548Y-7697500D01*
X19301548Y-7667500D02*
X19271548Y-7697500D01*
X19271548Y-8167500D02*
X19301548Y-8197500D01*
X19301548Y-8167500D02*
X19271548Y-8197500D01*
X19271548Y-8667500D02*
X19301548Y-8697500D01*
X19301548Y-8667500D02*
X19271548Y-8697500D01*
X19271548Y-9167500D02*
X19301548Y-9197500D01*
X19301548Y-9167500D02*
X19271548Y-9197500D01*
X19271548Y-9667500D02*
X19301548Y-9697500D01*
X19301548Y-9667500D02*
X19271548Y-9697500D01*
X19271548Y-10167500D02*
X19301548Y-10197500D01*
X19301548Y-10167500D02*
X19271548Y-10197500D01*
X19271548Y-12167500D02*
X19301548Y-12197500D01*
X19301548Y-12167500D02*
X19271548Y-12197500D01*
X19271548Y-13667500D02*
X19301548Y-13697500D01*
X19301548Y-13667500D02*
X19271548Y-13697500D01*
X19305000Y-12495000D02*
X19335000Y-12525000D01*
X19335000Y-12495000D02*
X19305000Y-12525000D01*
X19325000Y-10660000D02*
X19355000Y-10690000D01*
X19355000Y-10660000D02*
X19325000Y-10690000D01*
X19365000Y-10945000D02*
X19395000Y-10975000D01*
X19395000Y-10945000D02*
X19365000Y-10975000D01*
X19365000Y-11325000D02*
X19395000Y-11355000D01*
X19395000Y-11325000D02*
X19365000Y-11355000D01*
X19495000Y-13545000D02*
X19525000Y-13575000D01*
X19525000Y-13545000D02*
X19495000Y-13575000D01*
X19585000Y-12685000D02*
X19615000Y-12715000D01*
X19615000Y-12685000D02*
X19585000Y-12715000D01*
X19607500Y-12557500D02*
X19637500Y-12587500D01*
X19637500Y-12557500D02*
X19607500Y-12587500D01*
X19642500Y-12800000D02*
X19672500Y-12830000D01*
X19672500Y-12800000D02*
X19642500Y-12830000D01*
X19710000Y-12480000D02*
X19740000Y-12510000D01*
X19740000Y-12480000D02*
X19710000Y-12510000D01*
X19755000Y-12167500D02*
X19785000Y-12197500D01*
X19785000Y-12167500D02*
X19755000Y-12197500D01*
X19765000Y-12845000D02*
X19795000Y-12875000D01*
X19795000Y-12845000D02*
X19765000Y-12875000D01*
X19770000Y-13855000D02*
X19800000Y-13885000D01*
X19800000Y-13855000D02*
X19770000Y-13885000D01*
X19771548Y-2667500D02*
X19801548Y-2697500D01*
X19801548Y-2667500D02*
X19771548Y-2697500D01*
X19771548Y-3167500D02*
X19801548Y-3197500D01*
X19801548Y-3167500D02*
X19771548Y-3197500D01*
X19771548Y-4167500D02*
X19801548Y-4197500D01*
X19801548Y-4167500D02*
X19771548Y-4197500D01*
X19771548Y-4667500D02*
X19801548Y-4697500D01*
X19801548Y-4667500D02*
X19771548Y-4697500D01*
X19771548Y-5167500D02*
X19801548Y-5197500D01*
X19801548Y-5167500D02*
X19771548Y-5197500D01*
X19771548Y-5667500D02*
X19801548Y-5697500D01*
X19801548Y-5667500D02*
X19771548Y-5697500D01*
X19771548Y-6167500D02*
X19801548Y-6197500D01*
X19801548Y-6167500D02*
X19771548Y-6197500D01*
X19771548Y-6667500D02*
X19801548Y-6697500D01*
X19801548Y-6667500D02*
X19771548Y-6697500D01*
X19771548Y-7167500D02*
X19801548Y-7197500D01*
X19801548Y-7167500D02*
X19771548Y-7197500D01*
X19771548Y-7667500D02*
X19801548Y-7697500D01*
X19801548Y-7667500D02*
X19771548Y-7697500D01*
X19771548Y-8167500D02*
X19801548Y-8197500D01*
X19801548Y-8167500D02*
X19771548Y-8197500D01*
X19771548Y-8667500D02*
X19801548Y-8697500D01*
X19801548Y-8667500D02*
X19771548Y-8697500D01*
X19771548Y-9167500D02*
X19801548Y-9197500D01*
X19801548Y-9167500D02*
X19771548Y-9197500D01*
X19771548Y-9667500D02*
X19801548Y-9697500D01*
X19801548Y-9667500D02*
X19771548Y-9697500D01*
X19771548Y-10667500D02*
X19801548Y-10697500D01*
X19801548Y-10667500D02*
X19771548Y-10697500D01*
X19771548Y-13167500D02*
X19801548Y-13197500D01*
X19801548Y-13167500D02*
X19771548Y-13197500D01*
X19771548Y-13667500D02*
X19801548Y-13697500D01*
X19801548Y-13667500D02*
X19771548Y-13697500D01*
X19785000Y-11575000D02*
X19815000Y-11605000D01*
X19815000Y-11575000D02*
X19785000Y-11605000D01*
X19785000Y-11895000D02*
X19815000Y-11925000D01*
X19815000Y-11895000D02*
X19785000Y-11925000D01*
X19835000Y-12475000D02*
X19865000Y-12505000D01*
X19865000Y-12475000D02*
X19835000Y-12505000D01*
X19845425Y-12284336D02*
X19875425Y-12314336D01*
X19875425Y-12284336D02*
X19845425Y-12314336D01*
X19865000Y-11325000D02*
X19895000Y-11355000D01*
X19895000Y-11325000D02*
X19865000Y-11355000D01*
X19895000Y-12795000D02*
X19925000Y-12825000D01*
X19925000Y-12795000D02*
X19895000Y-12825000D01*
X19920000Y-10612500D02*
X19950000Y-10642500D01*
X19950000Y-10612500D02*
X19920000Y-10642500D01*
X19920000Y-10700000D02*
X19950000Y-10730000D01*
X19950000Y-10700000D02*
X19920000Y-10730000D01*
X19920000Y-10907500D02*
X19950000Y-10937500D01*
X19950000Y-10907500D02*
X19920000Y-10937500D01*
X19935000Y-12285000D02*
X19965000Y-12315000D01*
X19965000Y-12285000D02*
X19935000Y-12315000D01*
X20001000Y-10907500D02*
X20031000Y-10937500D01*
X20031000Y-10907500D02*
X20001000Y-10937500D01*
X20045000Y-9995000D02*
X20075000Y-10025000D01*
X20075000Y-9995000D02*
X20045000Y-10025000D01*
X20045000Y-12380000D02*
X20075000Y-12410000D01*
X20075000Y-12380000D02*
X20045000Y-12410000D01*
X20055000Y-11575000D02*
X20085000Y-11605000D01*
X20085000Y-11575000D02*
X20055000Y-11605000D01*
X20055000Y-11895000D02*
X20085000Y-11925000D01*
X20085000Y-11895000D02*
X20055000Y-11925000D01*
X20095000Y-13545000D02*
X20125000Y-13575000D01*
X20125000Y-13545000D02*
X20095000Y-13575000D01*
X20105000Y-11325000D02*
X20135000Y-11355000D01*
X20135000Y-11325000D02*
X20105000Y-11355000D01*
X20165000Y-12555000D02*
X20195000Y-12585000D01*
X20195000Y-12555000D02*
X20165000Y-12585000D01*
X20195000Y-10645000D02*
X20225000Y-10675000D01*
X20225000Y-10645000D02*
X20195000Y-10675000D01*
X20265000Y-10415000D02*
X20295000Y-10445000D01*
X20295000Y-10415000D02*
X20265000Y-10445000D01*
X20270000Y-13855000D02*
X20300000Y-13885000D01*
X20300000Y-13855000D02*
X20270000Y-13885000D01*
X20271548Y-2667500D02*
X20301548Y-2697500D01*
X20301548Y-2667500D02*
X20271548Y-2697500D01*
X20271548Y-3167500D02*
X20301548Y-3197500D01*
X20301548Y-3167500D02*
X20271548Y-3197500D01*
X20271548Y-4167500D02*
X20301548Y-4197500D01*
X20301548Y-4167500D02*
X20271548Y-4197500D01*
X20271548Y-5167500D02*
X20301548Y-5197500D01*
X20301548Y-5167500D02*
X20271548Y-5197500D01*
X20271548Y-5667500D02*
X20301548Y-5697500D01*
X20301548Y-5667500D02*
X20271548Y-5697500D01*
X20271548Y-6167500D02*
X20301548Y-6197500D01*
X20301548Y-6167500D02*
X20271548Y-6197500D01*
X20271548Y-6667500D02*
X20301548Y-6697500D01*
X20301548Y-6667500D02*
X20271548Y-6697500D01*
X20271548Y-7167500D02*
X20301548Y-7197500D01*
X20301548Y-7167500D02*
X20271548Y-7197500D01*
X20271548Y-7667500D02*
X20301548Y-7697500D01*
X20301548Y-7667500D02*
X20271548Y-7697500D01*
X20271548Y-8167500D02*
X20301548Y-8197500D01*
X20301548Y-8167500D02*
X20271548Y-8197500D01*
X20271548Y-8667500D02*
X20301548Y-8697500D01*
X20301548Y-8667500D02*
X20271548Y-8697500D01*
X20271548Y-9167500D02*
X20301548Y-9197500D01*
X20301548Y-9167500D02*
X20271548Y-9197500D01*
X20345000Y-9995000D02*
X20375000Y-10025000D01*
X20375000Y-9995000D02*
X20345000Y-10025000D01*
X20355000Y-10415000D02*
X20385000Y-10445000D01*
X20385000Y-10415000D02*
X20355000Y-10445000D01*
X20405000Y-12375000D02*
X20435000Y-12405000D01*
X20435000Y-12375000D02*
X20405000Y-12405000D01*
X20405000Y-12555000D02*
X20435000Y-12585000D01*
X20435000Y-12555000D02*
X20405000Y-12585000D01*
X20495000Y-10655000D02*
X20525000Y-10685000D01*
X20525000Y-10655000D02*
X20495000Y-10685000D01*
X20515000Y-11765000D02*
X20545000Y-11795000D01*
X20545000Y-11765000D02*
X20515000Y-11795000D01*
X20605000Y-11325000D02*
X20635000Y-11355000D01*
X20635000Y-11325000D02*
X20605000Y-11355000D01*
X20605000Y-11945000D02*
X20635000Y-11975000D01*
X20635000Y-11945000D02*
X20605000Y-11975000D01*
X20610000Y-10565000D02*
X20640000Y-10595000D01*
X20640000Y-10565000D02*
X20610000Y-10595000D01*
X20610000Y-10740000D02*
X20640000Y-10770000D01*
X20640000Y-10740000D02*
X20610000Y-10770000D01*
X20645000Y-12495000D02*
X20675000Y-12525000D01*
X20675000Y-12495000D02*
X20645000Y-12525000D01*
X20695000Y-13545000D02*
X20725000Y-13575000D01*
X20725000Y-13545000D02*
X20695000Y-13575000D01*
X20770000Y-13855000D02*
X20800000Y-13885000D01*
X20800000Y-13855000D02*
X20770000Y-13885000D01*
X20771548Y-2667500D02*
X20801548Y-2697500D01*
X20801548Y-2667500D02*
X20771548Y-2697500D01*
X20771548Y-3167500D02*
X20801548Y-3197500D01*
X20801548Y-3167500D02*
X20771548Y-3197500D01*
X20771548Y-4167500D02*
X20801548Y-4197500D01*
X20801548Y-4167500D02*
X20771548Y-4197500D01*
X20771548Y-4667500D02*
X20801548Y-4697500D01*
X20801548Y-4667500D02*
X20771548Y-4697500D01*
X20771548Y-5167500D02*
X20801548Y-5197500D01*
X20801548Y-5167500D02*
X20771548Y-5197500D01*
X20771548Y-5667500D02*
X20801548Y-5697500D01*
X20801548Y-5667500D02*
X20771548Y-5697500D01*
X20771548Y-6167500D02*
X20801548Y-6197500D01*
X20801548Y-6167500D02*
X20771548Y-6197500D01*
X20771548Y-6667500D02*
X20801548Y-6697500D01*
X20801548Y-6667500D02*
X20771548Y-6697500D01*
X20771548Y-7167500D02*
X20801548Y-7197500D01*
X20801548Y-7167500D02*
X20771548Y-7197500D01*
X20771548Y-7667500D02*
X20801548Y-7697500D01*
X20801548Y-7667500D02*
X20771548Y-7697500D01*
X20771548Y-8167500D02*
X20801548Y-8197500D01*
X20801548Y-8167500D02*
X20771548Y-8197500D01*
X20771548Y-8667500D02*
X20801548Y-8697500D01*
X20801548Y-8667500D02*
X20771548Y-8697500D01*
X20771548Y-9167500D02*
X20801548Y-9197500D01*
X20801548Y-9167500D02*
X20771548Y-9197500D01*
X20771548Y-9667500D02*
X20801548Y-9697500D01*
X20801548Y-9667500D02*
X20771548Y-9697500D01*
X20771548Y-13167500D02*
X20801548Y-13197500D01*
X20801548Y-13167500D02*
X20771548Y-13197500D01*
X20834724Y-12011276D02*
X20864724Y-12041276D01*
X20864724Y-12011276D02*
X20834724Y-12041276D01*
X20845000Y-10675000D02*
X20875000Y-10705000D01*
X20875000Y-10675000D02*
X20845000Y-10705000D01*
X20855000Y-12104000D02*
X20885000Y-12134000D01*
X20885000Y-12104000D02*
X20855000Y-12134000D01*
X20885000Y-12495000D02*
X20915000Y-12525000D01*
X20915000Y-12495000D02*
X20885000Y-12525000D01*
X20955000Y-12285000D02*
X20985000Y-12315000D01*
X20985000Y-12285000D02*
X20955000Y-12315000D01*
X20969000Y-10805000D02*
X20999000Y-10835000D01*
X20999000Y-10805000D02*
X20969000Y-10835000D01*
X20969187Y-10747605D02*
X20999187Y-10777605D01*
X20999187Y-10747605D02*
X20969187Y-10777605D01*
X21035000Y-9775000D02*
X21065000Y-9805000D01*
X21065000Y-9775000D02*
X21035000Y-9805000D01*
X21082500Y-10570000D02*
X21112500Y-10600000D01*
X21112500Y-10570000D02*
X21082500Y-10600000D01*
X21095000Y-12095000D02*
X21125000Y-12125000D01*
X21125000Y-12095000D02*
X21095000Y-12125000D01*
X21095000Y-12285000D02*
X21125000Y-12315000D01*
X21125000Y-12285000D02*
X21095000Y-12315000D01*
X21095000Y-12495000D02*
X21125000Y-12525000D01*
X21125000Y-12495000D02*
X21095000Y-12525000D01*
X21130000Y-10145000D02*
X21160000Y-10175000D01*
X21160000Y-10145000D02*
X21130000Y-10175000D01*
X21197500Y-10345000D02*
X21227500Y-10375000D01*
X21227500Y-10345000D02*
X21197500Y-10375000D01*
X21205000Y-3875000D02*
X21235000Y-3905000D01*
X21235000Y-3875000D02*
X21205000Y-3905000D01*
X21205000Y-3955000D02*
X21235000Y-3985000D01*
X21235000Y-3955000D02*
X21205000Y-3985000D01*
X21271548Y-3167500D02*
X21301548Y-3197500D01*
X21301548Y-3167500D02*
X21271548Y-3197500D01*
X21271548Y-5167500D02*
X21301548Y-5197500D01*
X21301548Y-5167500D02*
X21271548Y-5197500D01*
X21271548Y-5667500D02*
X21301548Y-5697500D01*
X21301548Y-5667500D02*
X21271548Y-5697500D01*
X21271548Y-6167500D02*
X21301548Y-6197500D01*
X21301548Y-6167500D02*
X21271548Y-6197500D01*
X21271548Y-6667500D02*
X21301548Y-6697500D01*
X21301548Y-6667500D02*
X21271548Y-6697500D01*
X21271548Y-7167500D02*
X21301548Y-7197500D01*
X21301548Y-7167500D02*
X21271548Y-7197500D01*
X21271548Y-7667500D02*
X21301548Y-7697500D01*
X21301548Y-7667500D02*
X21271548Y-7697500D01*
X21271548Y-8167500D02*
X21301548Y-8197500D01*
X21301548Y-8167500D02*
X21271548Y-8197500D01*
X21271548Y-8667500D02*
X21301548Y-8697500D01*
X21301548Y-8667500D02*
X21271548Y-8697500D01*
X21271548Y-9167500D02*
X21301548Y-9197500D01*
X21301548Y-9167500D02*
X21271548Y-9197500D01*
X21275000Y-13855000D02*
X21305000Y-13885000D01*
X21305000Y-13855000D02*
X21275000Y-13885000D01*
X21295000Y-13545000D02*
X21325000Y-13575000D01*
X21325000Y-13545000D02*
X21295000Y-13575000D01*
X21335000Y-10435000D02*
X21365000Y-10465000D01*
X21365000Y-10435000D02*
X21335000Y-10465000D01*
X21335000Y-12495000D02*
X21365000Y-12525000D01*
X21365000Y-12495000D02*
X21335000Y-12525000D01*
X21415000Y-10435000D02*
X21445000Y-10465000D01*
X21445000Y-10435000D02*
X21415000Y-10465000D01*
X21415000Y-12675000D02*
X21445000Y-12705000D01*
X21445000Y-12675000D02*
X21415000Y-12705000D01*
X21425000Y-12010000D02*
X21455000Y-12040000D01*
X21455000Y-12010000D02*
X21425000Y-12040000D01*
X21425000Y-12555000D02*
X21455000Y-12585000D01*
X21455000Y-12555000D02*
X21425000Y-12585000D01*
X21472500Y-12785000D02*
X21502500Y-12815000D01*
X21502500Y-12785000D02*
X21472500Y-12815000D01*
X21495000Y-12277450D02*
X21525000Y-12307450D01*
X21525000Y-12277450D02*
X21495000Y-12307450D01*
X21515000Y-12495000D02*
X21545000Y-12525000D01*
X21545000Y-12495000D02*
X21515000Y-12525000D01*
X21555000Y-11825000D02*
X21585000Y-11855000D01*
X21585000Y-11825000D02*
X21555000Y-11855000D01*
X21595000Y-9775000D02*
X21625000Y-9805000D01*
X21625000Y-9775000D02*
X21595000Y-9805000D01*
X21595000Y-12830000D02*
X21625000Y-12860000D01*
X21625000Y-12830000D02*
X21595000Y-12860000D01*
X21680000Y-3025000D02*
X21710000Y-3055000D01*
X21710000Y-3025000D02*
X21680000Y-3055000D01*
X21685000Y-10535000D02*
X21715000Y-10565000D01*
X21715000Y-10535000D02*
X21685000Y-10565000D01*
X21695000Y-12277450D02*
X21725000Y-12307450D01*
X21725000Y-12277450D02*
X21695000Y-12307450D01*
X21725000Y-12780000D02*
X21755000Y-12810000D01*
X21755000Y-12780000D02*
X21725000Y-12810000D01*
X21735000Y-12505000D02*
X21765000Y-12535000D01*
X21765000Y-12505000D02*
X21735000Y-12535000D01*
X21771548Y-3667500D02*
X21801548Y-3697500D01*
X21801548Y-3667500D02*
X21771548Y-3697500D01*
X21771548Y-4167500D02*
X21801548Y-4197500D01*
X21801548Y-4167500D02*
X21771548Y-4197500D01*
X21771548Y-4667500D02*
X21801548Y-4697500D01*
X21801548Y-4667500D02*
X21771548Y-4697500D01*
X21771548Y-6167500D02*
X21801548Y-6197500D01*
X21801548Y-6167500D02*
X21771548Y-6197500D01*
X21771548Y-6667500D02*
X21801548Y-6697500D01*
X21801548Y-6667500D02*
X21771548Y-6697500D01*
X21771548Y-7167500D02*
X21801548Y-7197500D01*
X21801548Y-7167500D02*
X21771548Y-7197500D01*
X21771548Y-7667500D02*
X21801548Y-7697500D01*
X21801548Y-7667500D02*
X21771548Y-7697500D01*
X21771548Y-8167500D02*
X21801548Y-8197500D01*
X21801548Y-8167500D02*
X21771548Y-8197500D01*
X21771548Y-8667500D02*
X21801548Y-8697500D01*
X21801548Y-8667500D02*
X21771548Y-8697500D01*
X21771548Y-9167500D02*
X21801548Y-9197500D01*
X21801548Y-9167500D02*
X21771548Y-9197500D01*
X21771548Y-9667500D02*
X21801548Y-9697500D01*
X21801548Y-9667500D02*
X21771548Y-9697500D01*
X21771548Y-13167500D02*
X21801548Y-13197500D01*
X21801548Y-13167500D02*
X21771548Y-13197500D01*
X21775000Y-13855000D02*
X21805000Y-13885000D01*
X21805000Y-13855000D02*
X21775000Y-13885000D01*
X21795000Y-3330000D02*
X21825000Y-3360000D01*
X21825000Y-3330000D02*
X21795000Y-3360000D01*
X21855000Y-3015000D02*
X21885000Y-3045000D01*
X21885000Y-3015000D02*
X21855000Y-3045000D01*
X21895000Y-13545000D02*
X21925000Y-13575000D01*
X21925000Y-13545000D02*
X21895000Y-13575000D01*
X21935000Y-12305000D02*
X21965000Y-12335000D01*
X21965000Y-12305000D02*
X21935000Y-12335000D01*
X21944000Y-11872872D02*
X21974000Y-11902872D01*
X21974000Y-11872872D02*
X21944000Y-11902872D01*
X21955000Y-10945000D02*
X21985000Y-10975000D01*
X21985000Y-10945000D02*
X21955000Y-10975000D01*
X21970000Y-3363000D02*
X22000000Y-3393000D01*
X22000000Y-3363000D02*
X21970000Y-3393000D01*
X21980000Y-3570000D02*
X22010000Y-3600000D01*
X22010000Y-3570000D02*
X21980000Y-3600000D01*
X22041000Y-11853000D02*
X22071000Y-11883000D01*
X22071000Y-11853000D02*
X22041000Y-11883000D01*
X22045000Y-3511000D02*
X22075000Y-3541000D01*
X22075000Y-3511000D02*
X22045000Y-3541000D01*
X22070000Y-3000000D02*
X22100000Y-3030000D01*
X22100000Y-3000000D02*
X22070000Y-3030000D01*
X22071000Y-3364000D02*
X22101000Y-3394000D01*
X22101000Y-3364000D02*
X22071000Y-3394000D01*
X22095000Y-11265000D02*
X22125000Y-11295000D01*
X22125000Y-11265000D02*
X22095000Y-11295000D01*
X22115000Y-3695000D02*
X22145000Y-3725000D01*
X22145000Y-3695000D02*
X22115000Y-3725000D01*
X22145000Y-5195000D02*
X22175000Y-5225000D01*
X22175000Y-5195000D02*
X22145000Y-5225000D01*
X22145948Y-3320948D02*
X22175948Y-3350948D01*
X22175948Y-3320948D02*
X22145948Y-3350948D01*
X22205000Y-3555000D02*
X22235000Y-3585000D01*
X22235000Y-3555000D02*
X22205000Y-3585000D01*
X22245000Y-4680000D02*
X22275000Y-4710000D01*
X22275000Y-4680000D02*
X22245000Y-4710000D01*
X22271548Y-5667500D02*
X22301548Y-5697500D01*
X22301548Y-5667500D02*
X22271548Y-5697500D01*
X22271548Y-6667500D02*
X22301548Y-6697500D01*
X22301548Y-6667500D02*
X22271548Y-6697500D01*
X22271548Y-7167500D02*
X22301548Y-7197500D01*
X22301548Y-7167500D02*
X22271548Y-7197500D01*
X22271548Y-7667500D02*
X22301548Y-7697500D01*
X22301548Y-7667500D02*
X22271548Y-7697500D01*
X22271548Y-8167500D02*
X22301548Y-8197500D01*
X22301548Y-8167500D02*
X22271548Y-8197500D01*
X22271548Y-8667500D02*
X22301548Y-8697500D01*
X22301548Y-8667500D02*
X22271548Y-8697500D01*
X22271548Y-9167500D02*
X22301548Y-9197500D01*
X22301548Y-9167500D02*
X22271548Y-9197500D01*
X22271548Y-9667500D02*
X22301548Y-9697500D01*
X22301548Y-9667500D02*
X22271548Y-9697500D01*
X22271548Y-10167500D02*
X22301548Y-10197500D01*
X22301548Y-10167500D02*
X22271548Y-10197500D01*
X22271548Y-11167500D02*
X22301548Y-11197500D01*
X22301548Y-11167500D02*
X22271548Y-11197500D01*
X22271548Y-12667500D02*
X22301548Y-12697500D01*
X22301548Y-12667500D02*
X22271548Y-12697500D01*
X22271548Y-13667500D02*
X22301548Y-13697500D01*
X22301548Y-13667500D02*
X22271548Y-13697500D01*
X22275000Y-13855000D02*
X22305000Y-13885000D01*
X22305000Y-13855000D02*
X22275000Y-13885000D01*
X22315000Y-3000000D02*
X22345000Y-3030000D01*
X22345000Y-3000000D02*
X22315000Y-3030000D01*
X22335000Y-11295000D02*
X22365000Y-11325000D01*
X22365000Y-11295000D02*
X22335000Y-11325000D01*
X22395000Y-3325000D02*
X22425000Y-3355000D01*
X22425000Y-3325000D02*
X22395000Y-3355000D01*
X22447091Y-12432909D02*
X22477091Y-12462909D01*
X22477091Y-12432909D02*
X22447091Y-12462909D01*
X22465000Y-13015000D02*
X22495000Y-13045000D01*
X22495000Y-13015000D02*
X22465000Y-13045000D01*
X22475000Y-13535000D02*
X22505000Y-13565000D01*
X22505000Y-13535000D02*
X22475000Y-13565000D01*
X22485000Y-7945000D02*
X22515000Y-7975000D01*
X22515000Y-7945000D02*
X22485000Y-7975000D01*
X22490000Y-3025000D02*
X22520000Y-3055000D01*
X22520000Y-3025000D02*
X22490000Y-3055000D01*
X22565000Y-4680000D02*
X22595000Y-4710000D01*
X22595000Y-4680000D02*
X22565000Y-4710000D01*
X22575000Y-4890000D02*
X22605000Y-4920000D01*
X22605000Y-4890000D02*
X22575000Y-4920000D01*
X22585000Y-5195000D02*
X22615000Y-5225000D01*
X22615000Y-5195000D02*
X22585000Y-5225000D01*
X22595000Y-11035000D02*
X22625000Y-11065000D01*
X22625000Y-11035000D02*
X22595000Y-11065000D01*
X22700000Y-4645000D02*
X22730000Y-4675000D01*
X22730000Y-4645000D02*
X22700000Y-4675000D01*
X22705000Y-7145000D02*
X22735000Y-7175000D01*
X22735000Y-7145000D02*
X22705000Y-7175000D01*
X22705000Y-7445000D02*
X22735000Y-7475000D01*
X22735000Y-7445000D02*
X22705000Y-7475000D01*
X22771548Y-2667500D02*
X22801548Y-2697500D01*
X22801548Y-2667500D02*
X22771548Y-2697500D01*
X22771548Y-3167500D02*
X22801548Y-3197500D01*
X22801548Y-3167500D02*
X22771548Y-3197500D01*
X22771548Y-4167500D02*
X22801548Y-4197500D01*
X22801548Y-4167500D02*
X22771548Y-4197500D01*
X22771548Y-5167500D02*
X22801548Y-5197500D01*
X22801548Y-5167500D02*
X22771548Y-5197500D01*
X22771548Y-5667500D02*
X22801548Y-5697500D01*
X22801548Y-5667500D02*
X22771548Y-5697500D01*
X22771548Y-7667500D02*
X22801548Y-7697500D01*
X22801548Y-7667500D02*
X22771548Y-7697500D01*
X22771548Y-9167500D02*
X22801548Y-9197500D01*
X22801548Y-9167500D02*
X22771548Y-9197500D01*
X22771548Y-9667500D02*
X22801548Y-9697500D01*
X22801548Y-9667500D02*
X22771548Y-9697500D01*
X22771548Y-10167500D02*
X22801548Y-10197500D01*
X22801548Y-10167500D02*
X22771548Y-10197500D01*
X22771548Y-10667500D02*
X22801548Y-10697500D01*
X22801548Y-10667500D02*
X22771548Y-10697500D01*
X22771548Y-11167500D02*
X22801548Y-11197500D01*
X22801548Y-11167500D02*
X22771548Y-11197500D01*
X22771548Y-13167500D02*
X22801548Y-13197500D01*
X22801548Y-13167500D02*
X22771548Y-13197500D01*
X22771548Y-13667500D02*
X22801548Y-13697500D01*
X22801548Y-13667500D02*
X22771548Y-13697500D01*
X22775000Y-13855000D02*
X22805000Y-13885000D01*
X22805000Y-13855000D02*
X22775000Y-13885000D01*
X22776217Y-12704950D02*
X22806217Y-12734950D01*
X22806217Y-12704950D02*
X22776217Y-12734950D01*
X22780000Y-6385000D02*
X22810000Y-6415000D01*
X22810000Y-6385000D02*
X22780000Y-6415000D01*
X22785000Y-7955000D02*
X22815000Y-7985000D01*
X22815000Y-7955000D02*
X22785000Y-7985000D01*
X22880334Y-6828187D02*
X22910334Y-6858187D01*
X22910334Y-6828187D02*
X22880334Y-6858187D01*
X22895000Y-3435000D02*
X22925000Y-3465000D01*
X22925000Y-3435000D02*
X22895000Y-3465000D01*
X22895000Y-3800000D02*
X22925000Y-3830000D01*
X22925000Y-3800000D02*
X22895000Y-3830000D01*
X22920000Y-4430000D02*
X22950000Y-4460000D01*
X22950000Y-4430000D02*
X22920000Y-4460000D01*
X22925000Y-8235000D02*
X22955000Y-8265000D01*
X22955000Y-8235000D02*
X22925000Y-8265000D01*
X22960000Y-5295000D02*
X22990000Y-5325000D01*
X22990000Y-5295000D02*
X22960000Y-5325000D01*
X22960000Y-6385000D02*
X22990000Y-6415000D01*
X22990000Y-6385000D02*
X22960000Y-6415000D01*
X23065000Y-6175000D02*
X23095000Y-6205000D01*
X23095000Y-6175000D02*
X23065000Y-6205000D01*
X23065000Y-6256000D02*
X23095000Y-6286000D01*
X23095000Y-6256000D02*
X23065000Y-6286000D01*
X23100000Y-3620000D02*
X23130000Y-3650000D01*
X23130000Y-3620000D02*
X23100000Y-3650000D01*
X23105000Y-12735000D02*
X23135000Y-12765000D01*
X23135000Y-12735000D02*
X23105000Y-12765000D01*
X23185000Y-7415000D02*
X23215000Y-7445000D01*
X23215000Y-7415000D02*
X23185000Y-7445000D01*
X23205000Y-8470000D02*
X23235000Y-8500000D01*
X23235000Y-8470000D02*
X23205000Y-8500000D01*
X23235000Y-13675000D02*
X23265000Y-13705000D01*
X23265000Y-13675000D02*
X23235000Y-13705000D01*
X23247000Y-4882000D02*
X23277000Y-4912000D01*
X23277000Y-4882000D02*
X23247000Y-4912000D01*
X23248000Y-5084000D02*
X23278000Y-5114000D01*
X23278000Y-5084000D02*
X23248000Y-5114000D01*
X23271548Y-2667500D02*
X23301548Y-2697500D01*
X23301548Y-2667500D02*
X23271548Y-2697500D01*
X23271548Y-3167500D02*
X23301548Y-3197500D01*
X23301548Y-3167500D02*
X23271548Y-3197500D01*
X23271548Y-3667500D02*
X23301548Y-3697500D01*
X23301548Y-3667500D02*
X23271548Y-3697500D01*
X23271548Y-5667500D02*
X23301548Y-5697500D01*
X23301548Y-5667500D02*
X23271548Y-5697500D01*
X23271548Y-9167500D02*
X23301548Y-9197500D01*
X23301548Y-9167500D02*
X23271548Y-9197500D01*
X23271548Y-9667500D02*
X23301548Y-9697500D01*
X23301548Y-9667500D02*
X23271548Y-9697500D01*
X23271548Y-10167500D02*
X23301548Y-10197500D01*
X23301548Y-10167500D02*
X23271548Y-10197500D01*
X23271548Y-10667500D02*
X23301548Y-10697500D01*
X23301548Y-10667500D02*
X23271548Y-10697500D01*
X23271548Y-11167500D02*
X23301548Y-11197500D01*
X23301548Y-11167500D02*
X23271548Y-11197500D01*
X23318000Y-8590000D02*
X23348000Y-8620000D01*
X23348000Y-8590000D02*
X23318000Y-8620000D01*
X23330000Y-5000000D02*
X23360000Y-5030000D01*
X23360000Y-5000000D02*
X23330000Y-5030000D01*
X23405000Y-8590000D02*
X23435000Y-8620000D01*
X23435000Y-8590000D02*
X23405000Y-8620000D01*
X23504000Y-4687000D02*
X23534000Y-4717000D01*
X23534000Y-4687000D02*
X23504000Y-4717000D01*
X23505000Y-13675000D02*
X23535000Y-13705000D01*
X23535000Y-13675000D02*
X23505000Y-13705000D01*
X23525000Y-13095000D02*
X23555000Y-13125000D01*
X23555000Y-13095000D02*
X23525000Y-13125000D01*
X23585000Y-12555000D02*
X23615000Y-12585000D01*
X23615000Y-12555000D02*
X23585000Y-12585000D01*
X23665000Y-4440000D02*
X23695000Y-4470000D01*
X23695000Y-4440000D02*
X23665000Y-4470000D01*
X23745000Y-13095000D02*
X23775000Y-13125000D01*
X23775000Y-13095000D02*
X23745000Y-13125000D01*
X23771548Y-2667500D02*
X23801548Y-2697500D01*
X23801548Y-2667500D02*
X23771548Y-2697500D01*
X23771548Y-3167500D02*
X23801548Y-3197500D01*
X23801548Y-3167500D02*
X23771548Y-3197500D01*
X23771548Y-3667500D02*
X23801548Y-3697500D01*
X23801548Y-3667500D02*
X23771548Y-3697500D01*
X23771548Y-4167500D02*
X23801548Y-4197500D01*
X23801548Y-4167500D02*
X23771548Y-4197500D01*
X23771548Y-4667500D02*
X23801548Y-4697500D01*
X23801548Y-4667500D02*
X23771548Y-4697500D01*
X23771548Y-5167500D02*
X23801548Y-5197500D01*
X23801548Y-5167500D02*
X23771548Y-5197500D01*
X23771548Y-5667500D02*
X23801548Y-5697500D01*
X23801548Y-5667500D02*
X23771548Y-5697500D01*
X23771548Y-7667500D02*
X23801548Y-7697500D01*
X23801548Y-7667500D02*
X23771548Y-7697500D01*
X23771548Y-8167500D02*
X23801548Y-8197500D01*
X23801548Y-8167500D02*
X23771548Y-8197500D01*
X23771548Y-8667500D02*
X23801548Y-8697500D01*
X23801548Y-8667500D02*
X23771548Y-8697500D01*
X23771548Y-9167500D02*
X23801548Y-9197500D01*
X23801548Y-9167500D02*
X23771548Y-9197500D01*
X23771548Y-9667500D02*
X23801548Y-9697500D01*
X23801548Y-9667500D02*
X23771548Y-9697500D01*
X23771548Y-10167500D02*
X23801548Y-10197500D01*
X23801548Y-10167500D02*
X23771548Y-10197500D01*
X23771548Y-10667500D02*
X23801548Y-10697500D01*
X23801548Y-10667500D02*
X23771548Y-10697500D01*
X23771548Y-13667500D02*
X23801548Y-13697500D01*
X23801548Y-13667500D02*
X23771548Y-13697500D01*
X23883000Y-6208000D02*
X23913000Y-6238000D01*
X23913000Y-6208000D02*
X23883000Y-6238000D01*
X23935000Y-6155000D02*
X23965000Y-6185000D01*
X23965000Y-6155000D02*
X23935000Y-6185000D01*
X23945000Y-12655000D02*
X23975000Y-12685000D01*
X23975000Y-12655000D02*
X23945000Y-12685000D01*
X24045000Y-13435000D02*
X24075000Y-13465000D01*
X24075000Y-13435000D02*
X24045000Y-13465000D01*
X24205000Y-2667500D02*
X24235000Y-2697500D01*
X24235000Y-2667500D02*
X24205000Y-2697500D01*
X24205000Y-3167500D02*
X24235000Y-3197500D01*
X24235000Y-3167500D02*
X24205000Y-3197500D01*
X24205000Y-3667500D02*
X24235000Y-3697500D01*
X24235000Y-3667500D02*
X24205000Y-3697500D01*
X24205000Y-4265000D02*
X24235000Y-4295000D01*
X24235000Y-4265000D02*
X24205000Y-4295000D01*
X24205000Y-4667500D02*
X24235000Y-4697500D01*
X24235000Y-4667500D02*
X24205000Y-4697500D01*
X24205000Y-5167500D02*
X24235000Y-5197500D01*
X24235000Y-5167500D02*
X24205000Y-5197500D01*
X24205000Y-6167500D02*
X24235000Y-6197500D01*
X24235000Y-6167500D02*
X24205000Y-6197500D01*
X24205000Y-6667500D02*
X24235000Y-6697500D01*
X24235000Y-6667500D02*
X24205000Y-6697500D01*
X24205000Y-7667500D02*
X24235000Y-7697500D01*
X24235000Y-7667500D02*
X24205000Y-7697500D01*
X24205000Y-8167500D02*
X24235000Y-8197500D01*
X24235000Y-8167500D02*
X24205000Y-8197500D01*
X24205000Y-8667500D02*
X24235000Y-8697500D01*
X24235000Y-8667500D02*
X24205000Y-8697500D01*
X24205000Y-9167500D02*
X24235000Y-9197500D01*
X24235000Y-9167500D02*
X24205000Y-9197500D01*
X24205000Y-9667500D02*
X24235000Y-9697500D01*
X24235000Y-9667500D02*
X24205000Y-9697500D01*
X24205000Y-10167500D02*
X24235000Y-10197500D01*
X24235000Y-10167500D02*
X24205000Y-10197500D01*
X24205000Y-10667500D02*
X24235000Y-10697500D01*
X24235000Y-10667500D02*
X24205000Y-10697500D01*
X24205000Y-11167500D02*
X24235000Y-11197500D01*
X24235000Y-11167500D02*
X24205000Y-11197500D01*
X24205000Y-12667500D02*
X24235000Y-12697500D01*
X24235000Y-12667500D02*
X24205000Y-12697500D01*
X24205000Y-13667500D02*
X24235000Y-13697500D01*
X24235000Y-13667500D02*
X24205000Y-13697500D01*
D13*
X21708948Y-2676500D02*
G75*
G03*
X21708948Y-2676500I-30000J0D01*
G01*
D11*
X21708948Y-2751500D02*
X21708948Y-2601500D01*
X21648948Y-2751500D02*
X21648948Y-2601500D01*
X21708948Y-2601500D02*
G75*
G03*
X21648948Y-2601500I-30000J0D01*
G01*
X21648948Y-2751500D02*
G75*
G03*
X21708948Y-2751500I30000J0D01*
G01*
D13*
X21708948Y-3212500D02*
G75*
G03*
X21708948Y-3212500I-30000J0D01*
G01*
D11*
X21708948Y-3262500D02*
X21708948Y-3162500D01*
X21648948Y-3262500D02*
X21648948Y-3162500D01*
X21708948Y-3162500D02*
G75*
G03*
X21648948Y-3162500I-30000J0D01*
G01*
X21648948Y-3262500D02*
G75*
G03*
X21708948Y-3262500I30000J0D01*
G01*
D13*
X22572948Y-2676500D02*
G75*
G03*
X22572948Y-2676500I-30000J0D01*
G01*
D11*
X22572948Y-2751500D02*
X22572948Y-2601500D01*
X22512948Y-2751500D02*
X22512948Y-2601500D01*
X22572948Y-2601500D02*
G75*
G03*
X22512948Y-2601500I-30000J0D01*
G01*
X22512948Y-2751500D02*
G75*
G03*
X22572948Y-2751500I30000J0D01*
G01*
D13*
X22572948Y-3212500D02*
G75*
G03*
X22572948Y-3212500I-30000J0D01*
G01*
D11*
X22572948Y-3262500D02*
X22572948Y-3162500D01*
X22512948Y-3262500D02*
X22512948Y-3162500D01*
X22572948Y-3162500D02*
G75*
G03*
X22512948Y-3162500I-30000J0D01*
G01*
X22512948Y-3262500D02*
G75*
G03*
X22572948Y-3262500I30000J0D01*
G01*
D14*
X18040000Y-12362500D02*
X18040000Y-12442500D01*
X18000000Y-12402500D02*
X18080000Y-12402500D01*
D11*
X17975000Y-12442500D02*
X18105000Y-12442500D01*
X17975000Y-12362500D02*
X18105000Y-12362500D01*
X18105000Y-12442500D02*
G75*
G03*
X18105000Y-12362500I0J40000D01*
G01*
X17975000Y-12362500D02*
G75*
G03*
X17975000Y-12442500I0J-40000D01*
G01*
D14*
X18340000Y-12592500D02*
X18340000Y-12672500D01*
X18300000Y-12632500D02*
X18380000Y-12632500D01*
D11*
X18275000Y-12672500D02*
X18405000Y-12672500D01*
X18275000Y-12592500D02*
X18405000Y-12592500D01*
X18405000Y-12672500D02*
G75*
G03*
X18405000Y-12592500I0J40000D01*
G01*
X18275000Y-12592500D02*
G75*
G03*
X18275000Y-12672500I0J-40000D01*
G01*
D14*
X18340000Y-13592500D02*
X18340000Y-13672500D01*
X18300000Y-13632500D02*
X18380000Y-13632500D01*
D11*
X18275000Y-13672500D02*
X18405000Y-13672500D01*
X18275000Y-13592500D02*
X18405000Y-13592500D01*
X18405000Y-13672500D02*
G75*
G03*
X18405000Y-13592500I0J40000D01*
G01*
X18275000Y-13592500D02*
G75*
G03*
X18275000Y-13672500I0J-40000D01*
G01*
D14*
X23109000Y-13807000D02*
X23109000Y-13887000D01*
X23069000Y-13847000D02*
X23149000Y-13847000D01*
D11*
X23056500Y-13887000D02*
X23161500Y-13887000D01*
X23056500Y-13807000D02*
X23161500Y-13807000D01*
X23161500Y-13887000D02*
G75*
G03*
X23161500Y-13807000I0J40000D01*
G01*
X23056500Y-13807000D02*
G75*
G03*
X23056500Y-13887000I0J-40000D01*
G01*
D14*
X23617000Y-13807000D02*
X23617000Y-13887000D01*
X23577000Y-13847000D02*
X23657000Y-13847000D01*
D11*
X23564500Y-13887000D02*
X23669500Y-13887000D01*
X23564500Y-13807000D02*
X23669500Y-13807000D01*
X23669500Y-13887000D02*
G75*
G03*
X23669500Y-13807000I0J40000D01*
G01*
X23564500Y-13807000D02*
G75*
G03*
X23564500Y-13887000I0J-40000D01*
G01*
D15*
X19821467Y-12711467D02*
X19821467Y-12648533D01*
X19758533Y-12648533D01*
X19758533Y-12711467D01*
X19821467Y-12711467D01*
X20075467Y-12711467D02*
X20075467Y-12648533D01*
X20012533Y-12648533D01*
X20012533Y-12711467D01*
X20075467Y-12711467D01*
X21651467Y-12711467D02*
X21651467Y-12648533D01*
X21588533Y-12648533D01*
X21588533Y-12711467D01*
X21651467Y-12711467D01*
X21905467Y-12711467D02*
X21905467Y-12648533D01*
X21842533Y-12648533D01*
X21842533Y-12711467D01*
X21905467Y-12711467D01*
D10*
X19160000Y-10860000D02*
X19210000Y-10810000D01*
X19160000Y-10760000D01*
X19110000Y-10810000D01*
X19160000Y-10860000D01*
X20210000Y-9850000D02*
X20260000Y-9800000D01*
X20210000Y-9750000D01*
X20160000Y-9800000D01*
X20210000Y-9850000D01*
X20860000Y-10330000D02*
X20910000Y-10280000D01*
X20860000Y-10230000D01*
X20810000Y-10280000D01*
X20860000Y-10330000D01*
X21330000Y-9450000D02*
X21380000Y-9400000D01*
X21330000Y-9350000D01*
X21280000Y-9400000D01*
X21330000Y-9450000D01*
X22200000Y-10860000D02*
X22250000Y-10810000D01*
X22200000Y-10760000D01*
X22150000Y-10810000D01*
X22200000Y-10860000D01*
X22600000Y-3550000D02*
X22650000Y-3500000D01*
X22600000Y-3450000D01*
X22550000Y-3500000D01*
X22600000Y-3550000D01*
X22860000Y-8600000D02*
X22910000Y-8550000D01*
X22860000Y-8500000D01*
X22810000Y-8550000D01*
X22860000Y-8600000D01*
X23240000Y-7870000D02*
X23290000Y-7820000D01*
X23240000Y-7770000D01*
X23190000Y-7820000D01*
X23240000Y-7870000D01*
X24005000Y-6598000D02*
X24055000Y-6548000D01*
X24005000Y-6498000D01*
X23955000Y-6548000D01*
X24005000Y-6598000D01*
X24005000Y-6852000D02*
X24055000Y-6802000D01*
X24005000Y-6752000D01*
X23955000Y-6802000D01*
X24005000Y-6852000D01*
X24005000Y-7106000D02*
X24055000Y-7056000D01*
X24005000Y-7006000D01*
X23955000Y-7056000D01*
X24005000Y-7106000D01*
X24005000Y-7360000D02*
X24055000Y-7310000D01*
X24005000Y-7260000D01*
X23955000Y-7310000D01*
X24005000Y-7360000D01*
X24010000Y-8590000D02*
X24060000Y-8540000D01*
X24010000Y-8490000D01*
X23960000Y-8540000D01*
X24010000Y-8590000D01*
D16*
X22800500Y-11557500D02*
X22985500Y-11742500D01*
X22985500Y-11557500D02*
X22800500Y-11742500D01*
X22985500Y-11650000D02*
G75*
G03*
X22985500Y-11650000I-92500J0D01*
G01*
X22800500Y-11938500D02*
X22985500Y-12123500D01*
X22985500Y-11938500D02*
X22800500Y-12123500D01*
X22985500Y-12031000D02*
G75*
G03*
X22985500Y-12031000I-92500J0D01*
G01*
X22800500Y-12319500D02*
X22985500Y-12504500D01*
X22985500Y-12319500D02*
X22800500Y-12504500D01*
X22985500Y-12412000D02*
G75*
G03*
X22985500Y-12412000I-92500J0D01*
G01*
X23270500Y-11557500D02*
X23455500Y-11742500D01*
X23455500Y-11557500D02*
X23270500Y-11742500D01*
X23455500Y-11650000D02*
G75*
G03*
X23455500Y-11650000I-92500J0D01*
G01*
X23270500Y-11938500D02*
X23455500Y-12123500D01*
X23455500Y-11938500D02*
X23270500Y-12123500D01*
X23455500Y-12031000D02*
G75*
G03*
X23455500Y-12031000I-92500J0D01*
G01*
X23270500Y-12319500D02*
X23455500Y-12504500D01*
X23455500Y-12319500D02*
X23270500Y-12504500D01*
X23455500Y-12412000D02*
G75*
G03*
X23455500Y-12412000I-92500J0D01*
G01*
X23740500Y-11557500D02*
X23925500Y-11742500D01*
X23925500Y-11557500D02*
X23740500Y-11742500D01*
X23925500Y-11650000D02*
G75*
G03*
X23925500Y-11650000I-92500J0D01*
G01*
X23740500Y-11938500D02*
X23925500Y-12123500D01*
X23925500Y-11938500D02*
X23740500Y-12123500D01*
X23925500Y-12031000D02*
G75*
G03*
X23925500Y-12031000I-92500J0D01*
G01*
X23740500Y-12319500D02*
X23925500Y-12504500D01*
X23925500Y-12319500D02*
X23740500Y-12504500D01*
X23925500Y-12412000D02*
G75*
G03*
X23925500Y-12412000I-92500J0D01*
G01*
D17*
X19181500Y-13077500D02*
X19382500Y-13278500D01*
X19382500Y-13077500D02*
X19181500Y-13278500D01*
X19282000Y-13077500D02*
X19282000Y-13278500D01*
X19181500Y-13178000D02*
X19382500Y-13178000D01*
X20197500Y-13087500D02*
X20398500Y-13288500D01*
X20398500Y-13087500D02*
X20197500Y-13288500D01*
X20298000Y-13087500D02*
X20298000Y-13288500D01*
X20197500Y-13188000D02*
X20398500Y-13188000D01*
X21011500Y-13077500D02*
X21212500Y-13278500D01*
X21212500Y-13077500D02*
X21011500Y-13278500D01*
X21112000Y-13077500D02*
X21112000Y-13278500D01*
X21011500Y-13178000D02*
X21212500Y-13178000D01*
X22027500Y-13087500D02*
X22228500Y-13288500D01*
X22228500Y-13087500D02*
X22027500Y-13288500D01*
X22128000Y-13087500D02*
X22128000Y-13288500D01*
X22027500Y-13188000D02*
X22228500Y-13188000D01*
D11*
X17262619Y-14795476D02*
X17262619Y-14595476D01*
X17310238Y-14595476D01*
X17338810Y-14605000D01*
X17357857Y-14624048D01*
X17367381Y-14643095D01*
X17376905Y-14681190D01*
X17376905Y-14709762D01*
X17367381Y-14747857D01*
X17357857Y-14766905D01*
X17338810Y-14785952D01*
X17310238Y-14795476D01*
X17262619Y-14795476D01*
X17462619Y-14795476D02*
X17462619Y-14662143D01*
X17462619Y-14700238D02*
X17472143Y-14681190D01*
X17481667Y-14671667D01*
X17500714Y-14662143D01*
X17519762Y-14662143D01*
X17586429Y-14795476D02*
X17586429Y-14662143D01*
X17586429Y-14595476D02*
X17576905Y-14605000D01*
X17586429Y-14614524D01*
X17595952Y-14605000D01*
X17586429Y-14595476D01*
X17586429Y-14614524D01*
X17710238Y-14795476D02*
X17691190Y-14785952D01*
X17681667Y-14766905D01*
X17681667Y-14595476D01*
X17815000Y-14795476D02*
X17795952Y-14785952D01*
X17786429Y-14766905D01*
X17786429Y-14595476D01*
X18043571Y-14795476D02*
X18043571Y-14595476D01*
X18110238Y-14738333D01*
X18176905Y-14595476D01*
X18176905Y-14795476D01*
X18357857Y-14795476D02*
X18357857Y-14690714D01*
X18348333Y-14671667D01*
X18329286Y-14662143D01*
X18291190Y-14662143D01*
X18272143Y-14671667D01*
X18357857Y-14785952D02*
X18338810Y-14795476D01*
X18291190Y-14795476D01*
X18272143Y-14785952D01*
X18262619Y-14766905D01*
X18262619Y-14747857D01*
X18272143Y-14728809D01*
X18291190Y-14719286D01*
X18338810Y-14719286D01*
X18357857Y-14709762D01*
X18453095Y-14662143D02*
X18453095Y-14862143D01*
X18453095Y-14671667D02*
X18472143Y-14662143D01*
X18510238Y-14662143D01*
X18529286Y-14671667D01*
X18538810Y-14681190D01*
X18548333Y-14700238D01*
X18548333Y-14757381D01*
X18538810Y-14776428D01*
X18529286Y-14785952D01*
X18510238Y-14795476D01*
X18472143Y-14795476D01*
X18453095Y-14785952D01*
X18634048Y-14776428D02*
X18643571Y-14785952D01*
X18634048Y-14795476D01*
X18624524Y-14785952D01*
X18634048Y-14776428D01*
X18634048Y-14795476D01*
X18634048Y-14671667D02*
X18643571Y-14681190D01*
X18634048Y-14690714D01*
X18624524Y-14681190D01*
X18634048Y-14671667D01*
X18634048Y-14690714D01*
D12*
X16975000Y-15110000D02*
X17005000Y-15140000D01*
X17005000Y-15110000D02*
X16975000Y-15140000D01*
D11*
X17300714Y-15015476D02*
X17319762Y-15015476D01*
X17338810Y-15025000D01*
X17348333Y-15034524D01*
X17357857Y-15053571D01*
X17367381Y-15091667D01*
X17367381Y-15139286D01*
X17357857Y-15177381D01*
X17348333Y-15196428D01*
X17338810Y-15205952D01*
X17319762Y-15215476D01*
X17300714Y-15215476D01*
X17281667Y-15205952D01*
X17272143Y-15196428D01*
X17262619Y-15177381D01*
X17253095Y-15139286D01*
X17253095Y-15091667D01*
X17262619Y-15053571D01*
X17272143Y-15034524D01*
X17281667Y-15025000D01*
X17300714Y-15015476D01*
X17453095Y-15196428D02*
X17462619Y-15205952D01*
X17453095Y-15215476D01*
X17443571Y-15205952D01*
X17453095Y-15196428D01*
X17453095Y-15215476D01*
X17529286Y-15015476D02*
X17653095Y-15015476D01*
X17586429Y-15091667D01*
X17615000Y-15091667D01*
X17634048Y-15101190D01*
X17643571Y-15110714D01*
X17653095Y-15129762D01*
X17653095Y-15177381D01*
X17643571Y-15196428D01*
X17634048Y-15205952D01*
X17615000Y-15215476D01*
X17557857Y-15215476D01*
X17538810Y-15205952D01*
X17529286Y-15196428D01*
X17776905Y-15015476D02*
X17795952Y-15015476D01*
X17815000Y-15025000D01*
X17824524Y-15034524D01*
X17834048Y-15053571D01*
X17843571Y-15091667D01*
X17843571Y-15139286D01*
X17834048Y-15177381D01*
X17824524Y-15196428D01*
X17815000Y-15205952D01*
X17795952Y-15215476D01*
X17776905Y-15215476D01*
X17757857Y-15205952D01*
X17748333Y-15196428D01*
X17738810Y-15177381D01*
X17729286Y-15139286D01*
X17729286Y-15091667D01*
X17738810Y-15053571D01*
X17748333Y-15034524D01*
X17757857Y-15025000D01*
X17776905Y-15015476D01*
X17967381Y-15015476D02*
X17986429Y-15015476D01*
X18005476Y-15025000D01*
X18015000Y-15034524D01*
X18024524Y-15053571D01*
X18034048Y-15091667D01*
X18034048Y-15139286D01*
X18024524Y-15177381D01*
X18015000Y-15196428D01*
X18005476Y-15205952D01*
X17986429Y-15215476D01*
X17967381Y-15215476D01*
X17948333Y-15205952D01*
X17938810Y-15196428D01*
X17929286Y-15177381D01*
X17919762Y-15139286D01*
X17919762Y-15091667D01*
X17929286Y-15053571D01*
X17938810Y-15034524D01*
X17948333Y-15025000D01*
X17967381Y-15015476D01*
X18119762Y-15215476D02*
X18119762Y-15082143D01*
X18119762Y-15101190D02*
X18129286Y-15091667D01*
X18148333Y-15082143D01*
X18176905Y-15082143D01*
X18195952Y-15091667D01*
X18205476Y-15110714D01*
X18205476Y-15215476D01*
X18205476Y-15110714D02*
X18215000Y-15091667D01*
X18234048Y-15082143D01*
X18262619Y-15082143D01*
X18281667Y-15091667D01*
X18291190Y-15110714D01*
X18291190Y-15215476D01*
X18386429Y-15215476D02*
X18386429Y-15082143D01*
X18386429Y-15101190D02*
X18395952Y-15091667D01*
X18415000Y-15082143D01*
X18443571Y-15082143D01*
X18462619Y-15091667D01*
X18472143Y-15110714D01*
X18472143Y-15215476D01*
X18472143Y-15110714D02*
X18481667Y-15091667D01*
X18500714Y-15082143D01*
X18529286Y-15082143D01*
X18548333Y-15091667D01*
X18557857Y-15110714D01*
X18557857Y-15215476D01*
X18948333Y-15005952D02*
X18776905Y-15263095D01*
X19205476Y-15015476D02*
X19224524Y-15015476D01*
X19243571Y-15025000D01*
X19253095Y-15034524D01*
X19262619Y-15053571D01*
X19272143Y-15091667D01*
X19272143Y-15139286D01*
X19262619Y-15177381D01*
X19253095Y-15196428D01*
X19243571Y-15205952D01*
X19224524Y-15215476D01*
X19205476Y-15215476D01*
X19186429Y-15205952D01*
X19176905Y-15196428D01*
X19167381Y-15177381D01*
X19157857Y-15139286D01*
X19157857Y-15091667D01*
X19167381Y-15053571D01*
X19176905Y-15034524D01*
X19186429Y-15025000D01*
X19205476Y-15015476D01*
X19357857Y-15196428D02*
X19367381Y-15205952D01*
X19357857Y-15215476D01*
X19348333Y-15205952D01*
X19357857Y-15196428D01*
X19357857Y-15215476D01*
X19491190Y-15015476D02*
X19510238Y-15015476D01*
X19529286Y-15025000D01*
X19538810Y-15034524D01*
X19548333Y-15053571D01*
X19557857Y-15091667D01*
X19557857Y-15139286D01*
X19548333Y-15177381D01*
X19538810Y-15196428D01*
X19529286Y-15205952D01*
X19510238Y-15215476D01*
X19491190Y-15215476D01*
X19472143Y-15205952D01*
X19462619Y-15196428D01*
X19453095Y-15177381D01*
X19443571Y-15139286D01*
X19443571Y-15091667D01*
X19453095Y-15053571D01*
X19462619Y-15034524D01*
X19472143Y-15025000D01*
X19491190Y-15015476D01*
X19748333Y-15215476D02*
X19634048Y-15215476D01*
X19691190Y-15215476D02*
X19691190Y-15015476D01*
X19672143Y-15044048D01*
X19653095Y-15063095D01*
X19634048Y-15072619D01*
X19938810Y-15215476D02*
X19824524Y-15215476D01*
X19881667Y-15215476D02*
X19881667Y-15015476D01*
X19862619Y-15044048D01*
X19843571Y-15063095D01*
X19824524Y-15072619D01*
X20053095Y-15101190D02*
X20034048Y-15091667D01*
X20024524Y-15082143D01*
X20015000Y-15063095D01*
X20015000Y-15053571D01*
X20024524Y-15034524D01*
X20034048Y-15025000D01*
X20053095Y-15015476D01*
X20091190Y-15015476D01*
X20110238Y-15025000D01*
X20119762Y-15034524D01*
X20129286Y-15053571D01*
X20129286Y-15063095D01*
X20119762Y-15082143D01*
X20110238Y-15091667D01*
X20091190Y-15101190D01*
X20053095Y-15101190D01*
X20034048Y-15110714D01*
X20024524Y-15120238D01*
X20015000Y-15139286D01*
X20015000Y-15177381D01*
X20024524Y-15196428D01*
X20034048Y-15205952D01*
X20053095Y-15215476D01*
X20091190Y-15215476D01*
X20110238Y-15205952D01*
X20119762Y-15196428D01*
X20129286Y-15177381D01*
X20129286Y-15139286D01*
X20119762Y-15120238D01*
X20110238Y-15110714D01*
X20091190Y-15101190D01*
X20205476Y-15015476D02*
X20205476Y-15053571D01*
X20281667Y-15015476D02*
X20281667Y-15053571D01*
X20576905Y-15291667D02*
X20567381Y-15282143D01*
X20548333Y-15253571D01*
X20538810Y-15234524D01*
X20529286Y-15205952D01*
X20519762Y-15158333D01*
X20519762Y-15120238D01*
X20529286Y-15072619D01*
X20538810Y-15044048D01*
X20548333Y-15025000D01*
X20567381Y-14996428D01*
X20576905Y-14986905D01*
X20634048Y-15015476D02*
X20757857Y-15015476D01*
X20691190Y-15091667D01*
X20719762Y-15091667D01*
X20738810Y-15101190D01*
X20748333Y-15110714D01*
X20757857Y-15129762D01*
X20757857Y-15177381D01*
X20748333Y-15196428D01*
X20738810Y-15205952D01*
X20719762Y-15215476D01*
X20662619Y-15215476D01*
X20643571Y-15205952D01*
X20634048Y-15196428D01*
X20929286Y-15015476D02*
X20891190Y-15015476D01*
X20872143Y-15025000D01*
X20862619Y-15034524D01*
X20843571Y-15063095D01*
X20834048Y-15101190D01*
X20834048Y-15177381D01*
X20843571Y-15196428D01*
X20853095Y-15205952D01*
X20872143Y-15215476D01*
X20910238Y-15215476D01*
X20929286Y-15205952D01*
X20938810Y-15196428D01*
X20948333Y-15177381D01*
X20948333Y-15129762D01*
X20938810Y-15110714D01*
X20929286Y-15101190D01*
X20910238Y-15091667D01*
X20872143Y-15091667D01*
X20853095Y-15101190D01*
X20843571Y-15110714D01*
X20834048Y-15129762D01*
X21119762Y-15082143D02*
X21119762Y-15215476D01*
X21072143Y-15005952D02*
X21024524Y-15148809D01*
X21148333Y-15148809D01*
X21376905Y-15215476D02*
X21376905Y-15015476D01*
X21462619Y-15215476D02*
X21462619Y-15110714D01*
X21453095Y-15091667D01*
X21434048Y-15082143D01*
X21405476Y-15082143D01*
X21386429Y-15091667D01*
X21376905Y-15101190D01*
X21586429Y-15215476D02*
X21567381Y-15205952D01*
X21557857Y-15196428D01*
X21548333Y-15177381D01*
X21548333Y-15120238D01*
X21557857Y-15101190D01*
X21567381Y-15091667D01*
X21586429Y-15082143D01*
X21615000Y-15082143D01*
X21634048Y-15091667D01*
X21643571Y-15101190D01*
X21653095Y-15120238D01*
X21653095Y-15177381D01*
X21643571Y-15196428D01*
X21634048Y-15205952D01*
X21615000Y-15215476D01*
X21586429Y-15215476D01*
X21767381Y-15215476D02*
X21748333Y-15205952D01*
X21738810Y-15186905D01*
X21738810Y-15015476D01*
X21919762Y-15205952D02*
X21900714Y-15215476D01*
X21862619Y-15215476D01*
X21843571Y-15205952D01*
X21834048Y-15186905D01*
X21834048Y-15110714D01*
X21843571Y-15091667D01*
X21862619Y-15082143D01*
X21900714Y-15082143D01*
X21919762Y-15091667D01*
X21929286Y-15110714D01*
X21929286Y-15129762D01*
X21834048Y-15148809D01*
X22005476Y-15205952D02*
X22024524Y-15215476D01*
X22062619Y-15215476D01*
X22081667Y-15205952D01*
X22091190Y-15186905D01*
X22091190Y-15177381D01*
X22081667Y-15158333D01*
X22062619Y-15148809D01*
X22034048Y-15148809D01*
X22015000Y-15139286D01*
X22005476Y-15120238D01*
X22005476Y-15110714D01*
X22015000Y-15091667D01*
X22034048Y-15082143D01*
X22062619Y-15082143D01*
X22081667Y-15091667D01*
X22157857Y-15291667D02*
X22167381Y-15282143D01*
X22186429Y-15253571D01*
X22195952Y-15234524D01*
X22205476Y-15205952D01*
X22215000Y-15158333D01*
X22215000Y-15120238D01*
X22205476Y-15072619D01*
X22195952Y-15044048D01*
X22186429Y-15025000D01*
X22167381Y-14996428D01*
X22157857Y-14986905D01*
D13*
X17005000Y-15389000D02*
G75*
G03*
X17005000Y-15389000I-30000J0D01*
G01*
D11*
X17300714Y-15279476D02*
X17319762Y-15279476D01*
X17338810Y-15289000D01*
X17348333Y-15298524D01*
X17357857Y-15317571D01*
X17367381Y-15355667D01*
X17367381Y-15403286D01*
X17357857Y-15441381D01*
X17348333Y-15460428D01*
X17338810Y-15469952D01*
X17319762Y-15479476D01*
X17300714Y-15479476D01*
X17281667Y-15469952D01*
X17272143Y-15460428D01*
X17262619Y-15441381D01*
X17253095Y-15403286D01*
X17253095Y-15355667D01*
X17262619Y-15317571D01*
X17272143Y-15298524D01*
X17281667Y-15289000D01*
X17300714Y-15279476D01*
X17453095Y-15460428D02*
X17462619Y-15469952D01*
X17453095Y-15479476D01*
X17443571Y-15469952D01*
X17453095Y-15460428D01*
X17453095Y-15479476D01*
X17634048Y-15279476D02*
X17595952Y-15279476D01*
X17576905Y-15289000D01*
X17567381Y-15298524D01*
X17548333Y-15327095D01*
X17538810Y-15365190D01*
X17538810Y-15441381D01*
X17548333Y-15460428D01*
X17557857Y-15469952D01*
X17576905Y-15479476D01*
X17615000Y-15479476D01*
X17634048Y-15469952D01*
X17643571Y-15460428D01*
X17653095Y-15441381D01*
X17653095Y-15393762D01*
X17643571Y-15374714D01*
X17634048Y-15365190D01*
X17615000Y-15355667D01*
X17576905Y-15355667D01*
X17557857Y-15365190D01*
X17548333Y-15374714D01*
X17538810Y-15393762D01*
X17776905Y-15279476D02*
X17795952Y-15279476D01*
X17815000Y-15289000D01*
X17824524Y-15298524D01*
X17834048Y-15317571D01*
X17843571Y-15355667D01*
X17843571Y-15403286D01*
X17834048Y-15441381D01*
X17824524Y-15460428D01*
X17815000Y-15469952D01*
X17795952Y-15479476D01*
X17776905Y-15479476D01*
X17757857Y-15469952D01*
X17748333Y-15460428D01*
X17738810Y-15441381D01*
X17729286Y-15403286D01*
X17729286Y-15355667D01*
X17738810Y-15317571D01*
X17748333Y-15298524D01*
X17757857Y-15289000D01*
X17776905Y-15279476D01*
X17967381Y-15279476D02*
X17986429Y-15279476D01*
X18005476Y-15289000D01*
X18015000Y-15298524D01*
X18024524Y-15317571D01*
X18034048Y-15355667D01*
X18034048Y-15403286D01*
X18024524Y-15441381D01*
X18015000Y-15460428D01*
X18005476Y-15469952D01*
X17986429Y-15479476D01*
X17967381Y-15479476D01*
X17948333Y-15469952D01*
X17938810Y-15460428D01*
X17929286Y-15441381D01*
X17919762Y-15403286D01*
X17919762Y-15355667D01*
X17929286Y-15317571D01*
X17938810Y-15298524D01*
X17948333Y-15289000D01*
X17967381Y-15279476D01*
X18119762Y-15479476D02*
X18119762Y-15346143D01*
X18119762Y-15365190D02*
X18129286Y-15355667D01*
X18148333Y-15346143D01*
X18176905Y-15346143D01*
X18195952Y-15355667D01*
X18205476Y-15374714D01*
X18205476Y-15479476D01*
X18205476Y-15374714D02*
X18215000Y-15355667D01*
X18234048Y-15346143D01*
X18262619Y-15346143D01*
X18281667Y-15355667D01*
X18291190Y-15374714D01*
X18291190Y-15479476D01*
X18386429Y-15479476D02*
X18386429Y-15346143D01*
X18386429Y-15365190D02*
X18395952Y-15355667D01*
X18415000Y-15346143D01*
X18443571Y-15346143D01*
X18462619Y-15355667D01*
X18472143Y-15374714D01*
X18472143Y-15479476D01*
X18472143Y-15374714D02*
X18481667Y-15355667D01*
X18500714Y-15346143D01*
X18529286Y-15346143D01*
X18548333Y-15355667D01*
X18557857Y-15374714D01*
X18557857Y-15479476D01*
X18948333Y-15269952D02*
X18776905Y-15527095D01*
X19205476Y-15279476D02*
X19224524Y-15279476D01*
X19243571Y-15289000D01*
X19253095Y-15298524D01*
X19262619Y-15317571D01*
X19272143Y-15355667D01*
X19272143Y-15403286D01*
X19262619Y-15441381D01*
X19253095Y-15460428D01*
X19243571Y-15469952D01*
X19224524Y-15479476D01*
X19205476Y-15479476D01*
X19186429Y-15469952D01*
X19176905Y-15460428D01*
X19167381Y-15441381D01*
X19157857Y-15403286D01*
X19157857Y-15355667D01*
X19167381Y-15317571D01*
X19176905Y-15298524D01*
X19186429Y-15289000D01*
X19205476Y-15279476D01*
X19357857Y-15460428D02*
X19367381Y-15469952D01*
X19357857Y-15479476D01*
X19348333Y-15469952D01*
X19357857Y-15460428D01*
X19357857Y-15479476D01*
X19491190Y-15279476D02*
X19510238Y-15279476D01*
X19529286Y-15289000D01*
X19538810Y-15298524D01*
X19548333Y-15317571D01*
X19557857Y-15355667D01*
X19557857Y-15403286D01*
X19548333Y-15441381D01*
X19538810Y-15460428D01*
X19529286Y-15469952D01*
X19510238Y-15479476D01*
X19491190Y-15479476D01*
X19472143Y-15469952D01*
X19462619Y-15460428D01*
X19453095Y-15441381D01*
X19443571Y-15403286D01*
X19443571Y-15355667D01*
X19453095Y-15317571D01*
X19462619Y-15298524D01*
X19472143Y-15289000D01*
X19491190Y-15279476D01*
X19634048Y-15298524D02*
X19643571Y-15289000D01*
X19662619Y-15279476D01*
X19710238Y-15279476D01*
X19729286Y-15289000D01*
X19738810Y-15298524D01*
X19748333Y-15317571D01*
X19748333Y-15336619D01*
X19738810Y-15365190D01*
X19624524Y-15479476D01*
X19748333Y-15479476D01*
X19815000Y-15279476D02*
X19938810Y-15279476D01*
X19872143Y-15355667D01*
X19900714Y-15355667D01*
X19919762Y-15365190D01*
X19929286Y-15374714D01*
X19938810Y-15393762D01*
X19938810Y-15441381D01*
X19929286Y-15460428D01*
X19919762Y-15469952D01*
X19900714Y-15479476D01*
X19843571Y-15479476D01*
X19824524Y-15469952D01*
X19815000Y-15460428D01*
X20110238Y-15279476D02*
X20072143Y-15279476D01*
X20053095Y-15289000D01*
X20043571Y-15298524D01*
X20024524Y-15327095D01*
X20015000Y-15365190D01*
X20015000Y-15441381D01*
X20024524Y-15460428D01*
X20034048Y-15469952D01*
X20053095Y-15479476D01*
X20091190Y-15479476D01*
X20110238Y-15469952D01*
X20119762Y-15460428D01*
X20129286Y-15441381D01*
X20129286Y-15393762D01*
X20119762Y-15374714D01*
X20110238Y-15365190D01*
X20091190Y-15355667D01*
X20053095Y-15355667D01*
X20034048Y-15365190D01*
X20024524Y-15374714D01*
X20015000Y-15393762D01*
X20205476Y-15279476D02*
X20205476Y-15317571D01*
X20281667Y-15279476D02*
X20281667Y-15317571D01*
X20576905Y-15555667D02*
X20567381Y-15546143D01*
X20548333Y-15517571D01*
X20538810Y-15498524D01*
X20529286Y-15469952D01*
X20519762Y-15422333D01*
X20519762Y-15384238D01*
X20529286Y-15336619D01*
X20538810Y-15308048D01*
X20548333Y-15289000D01*
X20567381Y-15260428D01*
X20576905Y-15250905D01*
X20691190Y-15279476D02*
X20710238Y-15279476D01*
X20729286Y-15289000D01*
X20738810Y-15298524D01*
X20748333Y-15317571D01*
X20757857Y-15355667D01*
X20757857Y-15403286D01*
X20748333Y-15441381D01*
X20738810Y-15460428D01*
X20729286Y-15469952D01*
X20710238Y-15479476D01*
X20691190Y-15479476D01*
X20672143Y-15469952D01*
X20662619Y-15460428D01*
X20653095Y-15441381D01*
X20643571Y-15403286D01*
X20643571Y-15355667D01*
X20653095Y-15317571D01*
X20662619Y-15298524D01*
X20672143Y-15289000D01*
X20691190Y-15279476D01*
X20995952Y-15479476D02*
X20995952Y-15279476D01*
X21081667Y-15479476D02*
X21081667Y-15374714D01*
X21072143Y-15355667D01*
X21053095Y-15346143D01*
X21024524Y-15346143D01*
X21005476Y-15355667D01*
X20995952Y-15365190D01*
X21205476Y-15479476D02*
X21186429Y-15469952D01*
X21176905Y-15460428D01*
X21167381Y-15441381D01*
X21167381Y-15384238D01*
X21176905Y-15365190D01*
X21186429Y-15355667D01*
X21205476Y-15346143D01*
X21234048Y-15346143D01*
X21253095Y-15355667D01*
X21262619Y-15365190D01*
X21272143Y-15384238D01*
X21272143Y-15441381D01*
X21262619Y-15460428D01*
X21253095Y-15469952D01*
X21234048Y-15479476D01*
X21205476Y-15479476D01*
X21386429Y-15479476D02*
X21367381Y-15469952D01*
X21357857Y-15450905D01*
X21357857Y-15279476D01*
X21538810Y-15469952D02*
X21519762Y-15479476D01*
X21481667Y-15479476D01*
X21462619Y-15469952D01*
X21453095Y-15450905D01*
X21453095Y-15374714D01*
X21462619Y-15355667D01*
X21481667Y-15346143D01*
X21519762Y-15346143D01*
X21538810Y-15355667D01*
X21548333Y-15374714D01*
X21548333Y-15393762D01*
X21453095Y-15412809D01*
X21624524Y-15469952D02*
X21643571Y-15479476D01*
X21681667Y-15479476D01*
X21700714Y-15469952D01*
X21710238Y-15450905D01*
X21710238Y-15441381D01*
X21700714Y-15422333D01*
X21681667Y-15412809D01*
X21653095Y-15412809D01*
X21634048Y-15403286D01*
X21624524Y-15384238D01*
X21624524Y-15374714D01*
X21634048Y-15355667D01*
X21653095Y-15346143D01*
X21681667Y-15346143D01*
X21700714Y-15355667D01*
X21948333Y-15403286D02*
X22100714Y-15403286D01*
X22024524Y-15479476D02*
X22024524Y-15327095D01*
X22434048Y-15346143D02*
X22434048Y-15479476D01*
X22386428Y-15269952D02*
X22338810Y-15412809D01*
X22462619Y-15412809D01*
X22681667Y-15469952D02*
X22700714Y-15479476D01*
X22738809Y-15479476D01*
X22757857Y-15469952D01*
X22767381Y-15450905D01*
X22767381Y-15441381D01*
X22757857Y-15422333D01*
X22738809Y-15412809D01*
X22710238Y-15412809D01*
X22691190Y-15403286D01*
X22681667Y-15384238D01*
X22681667Y-15374714D01*
X22691190Y-15355667D01*
X22710238Y-15346143D01*
X22738809Y-15346143D01*
X22757857Y-15355667D01*
X22881667Y-15479476D02*
X22862619Y-15469952D01*
X22853095Y-15450905D01*
X22853095Y-15279476D01*
X22986428Y-15479476D02*
X22967381Y-15469952D01*
X22957857Y-15460428D01*
X22948333Y-15441381D01*
X22948333Y-15384238D01*
X22957857Y-15365190D01*
X22967381Y-15355667D01*
X22986428Y-15346143D01*
X23015000Y-15346143D01*
X23034048Y-15355667D01*
X23043571Y-15365190D01*
X23053095Y-15384238D01*
X23053095Y-15441381D01*
X23043571Y-15460428D01*
X23034048Y-15469952D01*
X23015000Y-15479476D01*
X22986428Y-15479476D01*
X23110238Y-15346143D02*
X23186428Y-15346143D01*
X23138809Y-15279476D02*
X23138809Y-15450905D01*
X23148333Y-15469952D01*
X23167381Y-15479476D01*
X23186428Y-15479476D01*
X23243571Y-15469952D02*
X23262619Y-15479476D01*
X23300714Y-15479476D01*
X23319762Y-15469952D01*
X23329286Y-15450905D01*
X23329286Y-15441381D01*
X23319762Y-15422333D01*
X23300714Y-15412809D01*
X23272143Y-15412809D01*
X23253095Y-15403286D01*
X23243571Y-15384238D01*
X23243571Y-15374714D01*
X23253095Y-15355667D01*
X23272143Y-15346143D01*
X23300714Y-15346143D01*
X23319762Y-15355667D01*
X23395952Y-15555667D02*
X23405476Y-15546143D01*
X23424524Y-15517571D01*
X23434048Y-15498524D01*
X23443571Y-15469952D01*
X23453095Y-15422333D01*
X23453095Y-15384238D01*
X23443571Y-15336619D01*
X23434048Y-15308048D01*
X23424524Y-15289000D01*
X23405476Y-15260428D01*
X23395952Y-15250905D01*
D14*
X16965000Y-15613000D02*
X16965000Y-15693000D01*
X16925000Y-15653000D02*
X17005000Y-15653000D01*
D11*
X17300714Y-15543476D02*
X17319762Y-15543476D01*
X17338810Y-15553000D01*
X17348333Y-15562524D01*
X17357857Y-15581571D01*
X17367381Y-15619667D01*
X17367381Y-15667286D01*
X17357857Y-15705381D01*
X17348333Y-15724428D01*
X17338810Y-15733952D01*
X17319762Y-15743476D01*
X17300714Y-15743476D01*
X17281667Y-15733952D01*
X17272143Y-15724428D01*
X17262619Y-15705381D01*
X17253095Y-15667286D01*
X17253095Y-15619667D01*
X17262619Y-15581571D01*
X17272143Y-15562524D01*
X17281667Y-15553000D01*
X17300714Y-15543476D01*
X17453095Y-15724428D02*
X17462619Y-15733952D01*
X17453095Y-15743476D01*
X17443571Y-15733952D01*
X17453095Y-15724428D01*
X17453095Y-15743476D01*
X17576905Y-15629190D02*
X17557857Y-15619667D01*
X17548333Y-15610143D01*
X17538810Y-15591095D01*
X17538810Y-15581571D01*
X17548333Y-15562524D01*
X17557857Y-15553000D01*
X17576905Y-15543476D01*
X17615000Y-15543476D01*
X17634048Y-15553000D01*
X17643571Y-15562524D01*
X17653095Y-15581571D01*
X17653095Y-15591095D01*
X17643571Y-15610143D01*
X17634048Y-15619667D01*
X17615000Y-15629190D01*
X17576905Y-15629190D01*
X17557857Y-15638714D01*
X17548333Y-15648238D01*
X17538810Y-15667286D01*
X17538810Y-15705381D01*
X17548333Y-15724428D01*
X17557857Y-15733952D01*
X17576905Y-15743476D01*
X17615000Y-15743476D01*
X17634048Y-15733952D01*
X17643571Y-15724428D01*
X17653095Y-15705381D01*
X17653095Y-15667286D01*
X17643571Y-15648238D01*
X17634048Y-15638714D01*
X17615000Y-15629190D01*
X17776905Y-15543476D02*
X17795952Y-15543476D01*
X17815000Y-15553000D01*
X17824524Y-15562524D01*
X17834048Y-15581571D01*
X17843571Y-15619667D01*
X17843571Y-15667286D01*
X17834048Y-15705381D01*
X17824524Y-15724428D01*
X17815000Y-15733952D01*
X17795952Y-15743476D01*
X17776905Y-15743476D01*
X17757857Y-15733952D01*
X17748333Y-15724428D01*
X17738810Y-15705381D01*
X17729286Y-15667286D01*
X17729286Y-15619667D01*
X17738810Y-15581571D01*
X17748333Y-15562524D01*
X17757857Y-15553000D01*
X17776905Y-15543476D01*
X17967381Y-15543476D02*
X17986429Y-15543476D01*
X18005476Y-15553000D01*
X18015000Y-15562524D01*
X18024524Y-15581571D01*
X18034048Y-15619667D01*
X18034048Y-15667286D01*
X18024524Y-15705381D01*
X18015000Y-15724428D01*
X18005476Y-15733952D01*
X17986429Y-15743476D01*
X17967381Y-15743476D01*
X17948333Y-15733952D01*
X17938810Y-15724428D01*
X17929286Y-15705381D01*
X17919762Y-15667286D01*
X17919762Y-15619667D01*
X17929286Y-15581571D01*
X17938810Y-15562524D01*
X17948333Y-15553000D01*
X17967381Y-15543476D01*
X18119762Y-15743476D02*
X18119762Y-15610143D01*
X18119762Y-15629190D02*
X18129286Y-15619667D01*
X18148333Y-15610143D01*
X18176905Y-15610143D01*
X18195952Y-15619667D01*
X18205476Y-15638714D01*
X18205476Y-15743476D01*
X18205476Y-15638714D02*
X18215000Y-15619667D01*
X18234048Y-15610143D01*
X18262619Y-15610143D01*
X18281667Y-15619667D01*
X18291190Y-15638714D01*
X18291190Y-15743476D01*
X18386429Y-15743476D02*
X18386429Y-15610143D01*
X18386429Y-15629190D02*
X18395952Y-15619667D01*
X18415000Y-15610143D01*
X18443571Y-15610143D01*
X18462619Y-15619667D01*
X18472143Y-15638714D01*
X18472143Y-15743476D01*
X18472143Y-15638714D02*
X18481667Y-15619667D01*
X18500714Y-15610143D01*
X18529286Y-15610143D01*
X18548333Y-15619667D01*
X18557857Y-15638714D01*
X18557857Y-15743476D01*
X18948333Y-15533952D02*
X18776905Y-15791095D01*
X19205476Y-15543476D02*
X19224524Y-15543476D01*
X19243571Y-15553000D01*
X19253095Y-15562524D01*
X19262619Y-15581571D01*
X19272143Y-15619667D01*
X19272143Y-15667286D01*
X19262619Y-15705381D01*
X19253095Y-15724428D01*
X19243571Y-15733952D01*
X19224524Y-15743476D01*
X19205476Y-15743476D01*
X19186429Y-15733952D01*
X19176905Y-15724428D01*
X19167381Y-15705381D01*
X19157857Y-15667286D01*
X19157857Y-15619667D01*
X19167381Y-15581571D01*
X19176905Y-15562524D01*
X19186429Y-15553000D01*
X19205476Y-15543476D01*
X19357857Y-15724428D02*
X19367381Y-15733952D01*
X19357857Y-15743476D01*
X19348333Y-15733952D01*
X19357857Y-15724428D01*
X19357857Y-15743476D01*
X19491190Y-15543476D02*
X19510238Y-15543476D01*
X19529286Y-15553000D01*
X19538810Y-15562524D01*
X19548333Y-15581571D01*
X19557857Y-15619667D01*
X19557857Y-15667286D01*
X19548333Y-15705381D01*
X19538810Y-15724428D01*
X19529286Y-15733952D01*
X19510238Y-15743476D01*
X19491190Y-15743476D01*
X19472143Y-15733952D01*
X19462619Y-15724428D01*
X19453095Y-15705381D01*
X19443571Y-15667286D01*
X19443571Y-15619667D01*
X19453095Y-15581571D01*
X19462619Y-15562524D01*
X19472143Y-15553000D01*
X19491190Y-15543476D01*
X19624524Y-15543476D02*
X19748333Y-15543476D01*
X19681667Y-15619667D01*
X19710238Y-15619667D01*
X19729286Y-15629190D01*
X19738810Y-15638714D01*
X19748333Y-15657762D01*
X19748333Y-15705381D01*
X19738810Y-15724428D01*
X19729286Y-15733952D01*
X19710238Y-15743476D01*
X19653095Y-15743476D01*
X19634048Y-15733952D01*
X19624524Y-15724428D01*
X19938810Y-15743476D02*
X19824524Y-15743476D01*
X19881667Y-15743476D02*
X19881667Y-15543476D01*
X19862619Y-15572048D01*
X19843571Y-15591095D01*
X19824524Y-15600619D01*
X20119762Y-15543476D02*
X20024524Y-15543476D01*
X20015000Y-15638714D01*
X20024524Y-15629190D01*
X20043571Y-15619667D01*
X20091190Y-15619667D01*
X20110238Y-15629190D01*
X20119762Y-15638714D01*
X20129286Y-15657762D01*
X20129286Y-15705381D01*
X20119762Y-15724428D01*
X20110238Y-15733952D01*
X20091190Y-15743476D01*
X20043571Y-15743476D01*
X20024524Y-15733952D01*
X20015000Y-15724428D01*
X20205476Y-15543476D02*
X20205476Y-15581571D01*
X20281667Y-15543476D02*
X20281667Y-15581571D01*
X20576905Y-15819667D02*
X20567381Y-15810143D01*
X20548333Y-15781571D01*
X20538810Y-15762524D01*
X20529286Y-15733952D01*
X20519762Y-15686333D01*
X20519762Y-15648238D01*
X20529286Y-15600619D01*
X20538810Y-15572048D01*
X20548333Y-15553000D01*
X20567381Y-15524428D01*
X20576905Y-15514905D01*
X20691190Y-15543476D02*
X20710238Y-15543476D01*
X20729286Y-15553000D01*
X20738810Y-15562524D01*
X20748333Y-15581571D01*
X20757857Y-15619667D01*
X20757857Y-15667286D01*
X20748333Y-15705381D01*
X20738810Y-15724428D01*
X20729286Y-15733952D01*
X20710238Y-15743476D01*
X20691190Y-15743476D01*
X20672143Y-15733952D01*
X20662619Y-15724428D01*
X20653095Y-15705381D01*
X20643571Y-15667286D01*
X20643571Y-15619667D01*
X20653095Y-15581571D01*
X20662619Y-15562524D01*
X20672143Y-15553000D01*
X20691190Y-15543476D01*
X20995952Y-15743476D02*
X20995952Y-15543476D01*
X21081667Y-15743476D02*
X21081667Y-15638714D01*
X21072143Y-15619667D01*
X21053095Y-15610143D01*
X21024524Y-15610143D01*
X21005476Y-15619667D01*
X20995952Y-15629190D01*
X21205476Y-15743476D02*
X21186429Y-15733952D01*
X21176905Y-15724428D01*
X21167381Y-15705381D01*
X21167381Y-15648238D01*
X21176905Y-15629190D01*
X21186429Y-15619667D01*
X21205476Y-15610143D01*
X21234048Y-15610143D01*
X21253095Y-15619667D01*
X21262619Y-15629190D01*
X21272143Y-15648238D01*
X21272143Y-15705381D01*
X21262619Y-15724428D01*
X21253095Y-15733952D01*
X21234048Y-15743476D01*
X21205476Y-15743476D01*
X21386429Y-15743476D02*
X21367381Y-15733952D01*
X21357857Y-15714905D01*
X21357857Y-15543476D01*
X21538810Y-15733952D02*
X21519762Y-15743476D01*
X21481667Y-15743476D01*
X21462619Y-15733952D01*
X21453095Y-15714905D01*
X21453095Y-15638714D01*
X21462619Y-15619667D01*
X21481667Y-15610143D01*
X21519762Y-15610143D01*
X21538810Y-15619667D01*
X21548333Y-15638714D01*
X21548333Y-15657762D01*
X21453095Y-15676809D01*
X21624524Y-15733952D02*
X21643571Y-15743476D01*
X21681667Y-15743476D01*
X21700714Y-15733952D01*
X21710238Y-15714905D01*
X21710238Y-15705381D01*
X21700714Y-15686333D01*
X21681667Y-15676809D01*
X21653095Y-15676809D01*
X21634048Y-15667286D01*
X21624524Y-15648238D01*
X21624524Y-15638714D01*
X21634048Y-15619667D01*
X21653095Y-15610143D01*
X21681667Y-15610143D01*
X21700714Y-15619667D01*
X21948333Y-15667286D02*
X22100714Y-15667286D01*
X22024524Y-15743476D02*
X22024524Y-15591095D01*
X22443571Y-15543476D02*
X22348333Y-15543476D01*
X22338810Y-15638714D01*
X22348333Y-15629190D01*
X22367381Y-15619667D01*
X22415000Y-15619667D01*
X22434048Y-15629190D01*
X22443571Y-15638714D01*
X22453095Y-15657762D01*
X22453095Y-15705381D01*
X22443571Y-15724428D01*
X22434048Y-15733952D01*
X22415000Y-15743476D01*
X22367381Y-15743476D01*
X22348333Y-15733952D01*
X22338810Y-15724428D01*
X22681667Y-15733952D02*
X22700714Y-15743476D01*
X22738809Y-15743476D01*
X22757857Y-15733952D01*
X22767381Y-15714905D01*
X22767381Y-15705381D01*
X22757857Y-15686333D01*
X22738809Y-15676809D01*
X22710238Y-15676809D01*
X22691190Y-15667286D01*
X22681667Y-15648238D01*
X22681667Y-15638714D01*
X22691190Y-15619667D01*
X22710238Y-15610143D01*
X22738809Y-15610143D01*
X22757857Y-15619667D01*
X22881667Y-15743476D02*
X22862619Y-15733952D01*
X22853095Y-15714905D01*
X22853095Y-15543476D01*
X22986428Y-15743476D02*
X22967381Y-15733952D01*
X22957857Y-15724428D01*
X22948333Y-15705381D01*
X22948333Y-15648238D01*
X22957857Y-15629190D01*
X22967381Y-15619667D01*
X22986428Y-15610143D01*
X23015000Y-15610143D01*
X23034048Y-15619667D01*
X23043571Y-15629190D01*
X23053095Y-15648238D01*
X23053095Y-15705381D01*
X23043571Y-15724428D01*
X23034048Y-15733952D01*
X23015000Y-15743476D01*
X22986428Y-15743476D01*
X23110238Y-15610143D02*
X23186428Y-15610143D01*
X23138809Y-15543476D02*
X23138809Y-15714905D01*
X23148333Y-15733952D01*
X23167381Y-15743476D01*
X23186428Y-15743476D01*
X23243571Y-15733952D02*
X23262619Y-15743476D01*
X23300714Y-15743476D01*
X23319762Y-15733952D01*
X23329286Y-15714905D01*
X23329286Y-15705381D01*
X23319762Y-15686333D01*
X23300714Y-15676809D01*
X23272143Y-15676809D01*
X23253095Y-15667286D01*
X23243571Y-15648238D01*
X23243571Y-15638714D01*
X23253095Y-15619667D01*
X23272143Y-15610143D01*
X23300714Y-15610143D01*
X23319762Y-15619667D01*
X23395952Y-15819667D02*
X23405476Y-15810143D01*
X23424524Y-15781571D01*
X23434048Y-15762524D01*
X23443571Y-15733952D01*
X23453095Y-15686333D01*
X23453095Y-15648238D01*
X23443571Y-15600619D01*
X23434048Y-15572048D01*
X23424524Y-15553000D01*
X23405476Y-15524428D01*
X23395952Y-15514905D01*
D15*
X16991967Y-15948467D02*
X16991967Y-15885533D01*
X16929033Y-15885533D01*
X16929033Y-15948467D01*
X16991967Y-15948467D01*
D11*
X17300714Y-15807476D02*
X17319762Y-15807476D01*
X17338810Y-15817000D01*
X17348333Y-15826524D01*
X17357857Y-15845571D01*
X17367381Y-15883667D01*
X17367381Y-15931286D01*
X17357857Y-15969381D01*
X17348333Y-15988428D01*
X17338810Y-15997952D01*
X17319762Y-16007476D01*
X17300714Y-16007476D01*
X17281667Y-15997952D01*
X17272143Y-15988428D01*
X17262619Y-15969381D01*
X17253095Y-15931286D01*
X17253095Y-15883667D01*
X17262619Y-15845571D01*
X17272143Y-15826524D01*
X17281667Y-15817000D01*
X17300714Y-15807476D01*
X17453095Y-15988428D02*
X17462619Y-15997952D01*
X17453095Y-16007476D01*
X17443571Y-15997952D01*
X17453095Y-15988428D01*
X17453095Y-16007476D01*
X17576905Y-15893190D02*
X17557857Y-15883667D01*
X17548333Y-15874143D01*
X17538810Y-15855095D01*
X17538810Y-15845571D01*
X17548333Y-15826524D01*
X17557857Y-15817000D01*
X17576905Y-15807476D01*
X17615000Y-15807476D01*
X17634048Y-15817000D01*
X17643571Y-15826524D01*
X17653095Y-15845571D01*
X17653095Y-15855095D01*
X17643571Y-15874143D01*
X17634048Y-15883667D01*
X17615000Y-15893190D01*
X17576905Y-15893190D01*
X17557857Y-15902714D01*
X17548333Y-15912238D01*
X17538810Y-15931286D01*
X17538810Y-15969381D01*
X17548333Y-15988428D01*
X17557857Y-15997952D01*
X17576905Y-16007476D01*
X17615000Y-16007476D01*
X17634048Y-15997952D01*
X17643571Y-15988428D01*
X17653095Y-15969381D01*
X17653095Y-15931286D01*
X17643571Y-15912238D01*
X17634048Y-15902714D01*
X17615000Y-15893190D01*
X17748333Y-16007476D02*
X17786429Y-16007476D01*
X17805476Y-15997952D01*
X17815000Y-15988428D01*
X17834048Y-15959857D01*
X17843571Y-15921762D01*
X17843571Y-15845571D01*
X17834048Y-15826524D01*
X17824524Y-15817000D01*
X17805476Y-15807476D01*
X17767381Y-15807476D01*
X17748333Y-15817000D01*
X17738810Y-15826524D01*
X17729286Y-15845571D01*
X17729286Y-15893190D01*
X17738810Y-15912238D01*
X17748333Y-15921762D01*
X17767381Y-15931286D01*
X17805476Y-15931286D01*
X17824524Y-15921762D01*
X17834048Y-15912238D01*
X17843571Y-15893190D01*
X17967381Y-15807476D02*
X17986429Y-15807476D01*
X18005476Y-15817000D01*
X18015000Y-15826524D01*
X18024524Y-15845571D01*
X18034048Y-15883667D01*
X18034048Y-15931286D01*
X18024524Y-15969381D01*
X18015000Y-15988428D01*
X18005476Y-15997952D01*
X17986429Y-16007476D01*
X17967381Y-16007476D01*
X17948333Y-15997952D01*
X17938810Y-15988428D01*
X17929286Y-15969381D01*
X17919762Y-15931286D01*
X17919762Y-15883667D01*
X17929286Y-15845571D01*
X17938810Y-15826524D01*
X17948333Y-15817000D01*
X17967381Y-15807476D01*
X18119762Y-16007476D02*
X18119762Y-15874143D01*
X18119762Y-15893190D02*
X18129286Y-15883667D01*
X18148333Y-15874143D01*
X18176905Y-15874143D01*
X18195952Y-15883667D01*
X18205476Y-15902714D01*
X18205476Y-16007476D01*
X18205476Y-15902714D02*
X18215000Y-15883667D01*
X18234048Y-15874143D01*
X18262619Y-15874143D01*
X18281667Y-15883667D01*
X18291190Y-15902714D01*
X18291190Y-16007476D01*
X18386429Y-16007476D02*
X18386429Y-15874143D01*
X18386429Y-15893190D02*
X18395952Y-15883667D01*
X18415000Y-15874143D01*
X18443571Y-15874143D01*
X18462619Y-15883667D01*
X18472143Y-15902714D01*
X18472143Y-16007476D01*
X18472143Y-15902714D02*
X18481667Y-15883667D01*
X18500714Y-15874143D01*
X18529286Y-15874143D01*
X18548333Y-15883667D01*
X18557857Y-15902714D01*
X18557857Y-16007476D01*
X18948333Y-15797952D02*
X18776905Y-16055095D01*
X19205476Y-15807476D02*
X19224524Y-15807476D01*
X19243571Y-15817000D01*
X19253095Y-15826524D01*
X19262619Y-15845571D01*
X19272143Y-15883667D01*
X19272143Y-15931286D01*
X19262619Y-15969381D01*
X19253095Y-15988428D01*
X19243571Y-15997952D01*
X19224524Y-16007476D01*
X19205476Y-16007476D01*
X19186429Y-15997952D01*
X19176905Y-15988428D01*
X19167381Y-15969381D01*
X19157857Y-15931286D01*
X19157857Y-15883667D01*
X19167381Y-15845571D01*
X19176905Y-15826524D01*
X19186429Y-15817000D01*
X19205476Y-15807476D01*
X19357857Y-15988428D02*
X19367381Y-15997952D01*
X19357857Y-16007476D01*
X19348333Y-15997952D01*
X19357857Y-15988428D01*
X19357857Y-16007476D01*
X19491190Y-15807476D02*
X19510238Y-15807476D01*
X19529286Y-15817000D01*
X19538810Y-15826524D01*
X19548333Y-15845571D01*
X19557857Y-15883667D01*
X19557857Y-15931286D01*
X19548333Y-15969381D01*
X19538810Y-15988428D01*
X19529286Y-15997952D01*
X19510238Y-16007476D01*
X19491190Y-16007476D01*
X19472143Y-15997952D01*
X19462619Y-15988428D01*
X19453095Y-15969381D01*
X19443571Y-15931286D01*
X19443571Y-15883667D01*
X19453095Y-15845571D01*
X19462619Y-15826524D01*
X19472143Y-15817000D01*
X19491190Y-15807476D01*
X19624524Y-15807476D02*
X19748333Y-15807476D01*
X19681667Y-15883667D01*
X19710238Y-15883667D01*
X19729286Y-15893190D01*
X19738810Y-15902714D01*
X19748333Y-15921762D01*
X19748333Y-15969381D01*
X19738810Y-15988428D01*
X19729286Y-15997952D01*
X19710238Y-16007476D01*
X19653095Y-16007476D01*
X19634048Y-15997952D01*
X19624524Y-15988428D01*
X19929286Y-15807476D02*
X19834048Y-15807476D01*
X19824524Y-15902714D01*
X19834048Y-15893190D01*
X19853095Y-15883667D01*
X19900714Y-15883667D01*
X19919762Y-15893190D01*
X19929286Y-15902714D01*
X19938810Y-15921762D01*
X19938810Y-15969381D01*
X19929286Y-15988428D01*
X19919762Y-15997952D01*
X19900714Y-16007476D01*
X19853095Y-16007476D01*
X19834048Y-15997952D01*
X19824524Y-15988428D01*
X20062619Y-15807476D02*
X20081667Y-15807476D01*
X20100714Y-15817000D01*
X20110238Y-15826524D01*
X20119762Y-15845571D01*
X20129286Y-15883667D01*
X20129286Y-15931286D01*
X20119762Y-15969381D01*
X20110238Y-15988428D01*
X20100714Y-15997952D01*
X20081667Y-16007476D01*
X20062619Y-16007476D01*
X20043571Y-15997952D01*
X20034048Y-15988428D01*
X20024524Y-15969381D01*
X20015000Y-15931286D01*
X20015000Y-15883667D01*
X20024524Y-15845571D01*
X20034048Y-15826524D01*
X20043571Y-15817000D01*
X20062619Y-15807476D01*
X20205476Y-15807476D02*
X20205476Y-15845571D01*
X20281667Y-15807476D02*
X20281667Y-15845571D01*
X20576905Y-16083667D02*
X20567381Y-16074143D01*
X20548333Y-16045571D01*
X20538810Y-16026524D01*
X20529286Y-15997952D01*
X20519762Y-15950333D01*
X20519762Y-15912238D01*
X20529286Y-15864619D01*
X20538810Y-15836048D01*
X20548333Y-15817000D01*
X20567381Y-15788428D01*
X20576905Y-15778905D01*
X20738810Y-15874143D02*
X20738810Y-16007476D01*
X20691190Y-15797952D02*
X20643571Y-15940809D01*
X20767381Y-15940809D01*
X20995952Y-16007476D02*
X20995952Y-15807476D01*
X21081667Y-16007476D02*
X21081667Y-15902714D01*
X21072143Y-15883667D01*
X21053095Y-15874143D01*
X21024524Y-15874143D01*
X21005476Y-15883667D01*
X20995952Y-15893190D01*
X21205476Y-16007476D02*
X21186429Y-15997952D01*
X21176905Y-15988428D01*
X21167381Y-15969381D01*
X21167381Y-15912238D01*
X21176905Y-15893190D01*
X21186429Y-15883667D01*
X21205476Y-15874143D01*
X21234048Y-15874143D01*
X21253095Y-15883667D01*
X21262619Y-15893190D01*
X21272143Y-15912238D01*
X21272143Y-15969381D01*
X21262619Y-15988428D01*
X21253095Y-15997952D01*
X21234048Y-16007476D01*
X21205476Y-16007476D01*
X21386429Y-16007476D02*
X21367381Y-15997952D01*
X21357857Y-15978905D01*
X21357857Y-15807476D01*
X21538810Y-15997952D02*
X21519762Y-16007476D01*
X21481667Y-16007476D01*
X21462619Y-15997952D01*
X21453095Y-15978905D01*
X21453095Y-15902714D01*
X21462619Y-15883667D01*
X21481667Y-15874143D01*
X21519762Y-15874143D01*
X21538810Y-15883667D01*
X21548333Y-15902714D01*
X21548333Y-15921762D01*
X21453095Y-15940809D01*
X21624524Y-15997952D02*
X21643571Y-16007476D01*
X21681667Y-16007476D01*
X21700714Y-15997952D01*
X21710238Y-15978905D01*
X21710238Y-15969381D01*
X21700714Y-15950333D01*
X21681667Y-15940809D01*
X21653095Y-15940809D01*
X21634048Y-15931286D01*
X21624524Y-15912238D01*
X21624524Y-15902714D01*
X21634048Y-15883667D01*
X21653095Y-15874143D01*
X21681667Y-15874143D01*
X21700714Y-15883667D01*
X21776905Y-16083667D02*
X21786429Y-16074143D01*
X21805476Y-16045571D01*
X21815000Y-16026524D01*
X21824524Y-15997952D01*
X21834048Y-15950333D01*
X21834048Y-15912238D01*
X21824524Y-15864619D01*
X21815000Y-15836048D01*
X21805476Y-15817000D01*
X21786429Y-15788428D01*
X21776905Y-15778905D01*
D10*
X16955000Y-16231000D02*
X17005000Y-16181000D01*
X16955000Y-16131000D01*
X16905000Y-16181000D01*
X16955000Y-16231000D01*
D11*
X17367381Y-16271476D02*
X17253095Y-16271476D01*
X17310238Y-16271476D02*
X17310238Y-16071476D01*
X17291190Y-16100048D01*
X17272143Y-16119095D01*
X17253095Y-16128619D01*
X17453095Y-16252428D02*
X17462619Y-16261952D01*
X17453095Y-16271476D01*
X17443571Y-16261952D01*
X17453095Y-16252428D01*
X17453095Y-16271476D01*
X17586429Y-16071476D02*
X17605476Y-16071476D01*
X17624524Y-16081000D01*
X17634048Y-16090524D01*
X17643571Y-16109571D01*
X17653095Y-16147667D01*
X17653095Y-16195286D01*
X17643571Y-16233381D01*
X17634048Y-16252428D01*
X17624524Y-16261952D01*
X17605476Y-16271476D01*
X17586429Y-16271476D01*
X17567381Y-16261952D01*
X17557857Y-16252428D01*
X17548333Y-16233381D01*
X17538810Y-16195286D01*
X17538810Y-16147667D01*
X17548333Y-16109571D01*
X17557857Y-16090524D01*
X17567381Y-16081000D01*
X17586429Y-16071476D01*
X17776905Y-16071476D02*
X17795952Y-16071476D01*
X17815000Y-16081000D01*
X17824524Y-16090524D01*
X17834048Y-16109571D01*
X17843571Y-16147667D01*
X17843571Y-16195286D01*
X17834048Y-16233381D01*
X17824524Y-16252428D01*
X17815000Y-16261952D01*
X17795952Y-16271476D01*
X17776905Y-16271476D01*
X17757857Y-16261952D01*
X17748333Y-16252428D01*
X17738810Y-16233381D01*
X17729286Y-16195286D01*
X17729286Y-16147667D01*
X17738810Y-16109571D01*
X17748333Y-16090524D01*
X17757857Y-16081000D01*
X17776905Y-16071476D01*
X17967381Y-16071476D02*
X17986429Y-16071476D01*
X18005476Y-16081000D01*
X18015000Y-16090524D01*
X18024524Y-16109571D01*
X18034048Y-16147667D01*
X18034048Y-16195286D01*
X18024524Y-16233381D01*
X18015000Y-16252428D01*
X18005476Y-16261952D01*
X17986429Y-16271476D01*
X17967381Y-16271476D01*
X17948333Y-16261952D01*
X17938810Y-16252428D01*
X17929286Y-16233381D01*
X17919762Y-16195286D01*
X17919762Y-16147667D01*
X17929286Y-16109571D01*
X17938810Y-16090524D01*
X17948333Y-16081000D01*
X17967381Y-16071476D01*
X18119762Y-16271476D02*
X18119762Y-16138143D01*
X18119762Y-16157190D02*
X18129286Y-16147667D01*
X18148333Y-16138143D01*
X18176905Y-16138143D01*
X18195952Y-16147667D01*
X18205476Y-16166714D01*
X18205476Y-16271476D01*
X18205476Y-16166714D02*
X18215000Y-16147667D01*
X18234048Y-16138143D01*
X18262619Y-16138143D01*
X18281667Y-16147667D01*
X18291190Y-16166714D01*
X18291190Y-16271476D01*
X18386429Y-16271476D02*
X18386429Y-16138143D01*
X18386429Y-16157190D02*
X18395952Y-16147667D01*
X18415000Y-16138143D01*
X18443571Y-16138143D01*
X18462619Y-16147667D01*
X18472143Y-16166714D01*
X18472143Y-16271476D01*
X18472143Y-16166714D02*
X18481667Y-16147667D01*
X18500714Y-16138143D01*
X18529286Y-16138143D01*
X18548333Y-16147667D01*
X18557857Y-16166714D01*
X18557857Y-16271476D01*
X18948333Y-16061952D02*
X18776905Y-16319095D01*
X19205476Y-16071476D02*
X19224524Y-16071476D01*
X19243571Y-16081000D01*
X19253095Y-16090524D01*
X19262619Y-16109571D01*
X19272143Y-16147667D01*
X19272143Y-16195286D01*
X19262619Y-16233381D01*
X19253095Y-16252428D01*
X19243571Y-16261952D01*
X19224524Y-16271476D01*
X19205476Y-16271476D01*
X19186429Y-16261952D01*
X19176905Y-16252428D01*
X19167381Y-16233381D01*
X19157857Y-16195286D01*
X19157857Y-16147667D01*
X19167381Y-16109571D01*
X19176905Y-16090524D01*
X19186429Y-16081000D01*
X19205476Y-16071476D01*
X19357857Y-16252428D02*
X19367381Y-16261952D01*
X19357857Y-16271476D01*
X19348333Y-16261952D01*
X19357857Y-16252428D01*
X19357857Y-16271476D01*
X19491190Y-16071476D02*
X19510238Y-16071476D01*
X19529286Y-16081000D01*
X19538810Y-16090524D01*
X19548333Y-16109571D01*
X19557857Y-16147667D01*
X19557857Y-16195286D01*
X19548333Y-16233381D01*
X19538810Y-16252428D01*
X19529286Y-16261952D01*
X19510238Y-16271476D01*
X19491190Y-16271476D01*
X19472143Y-16261952D01*
X19462619Y-16252428D01*
X19453095Y-16233381D01*
X19443571Y-16195286D01*
X19443571Y-16147667D01*
X19453095Y-16109571D01*
X19462619Y-16090524D01*
X19472143Y-16081000D01*
X19491190Y-16071476D01*
X19624524Y-16071476D02*
X19748333Y-16071476D01*
X19681667Y-16147667D01*
X19710238Y-16147667D01*
X19729286Y-16157190D01*
X19738810Y-16166714D01*
X19748333Y-16185762D01*
X19748333Y-16233381D01*
X19738810Y-16252428D01*
X19729286Y-16261952D01*
X19710238Y-16271476D01*
X19653095Y-16271476D01*
X19634048Y-16261952D01*
X19624524Y-16252428D01*
X19843571Y-16271476D02*
X19881667Y-16271476D01*
X19900714Y-16261952D01*
X19910238Y-16252428D01*
X19929286Y-16223857D01*
X19938810Y-16185762D01*
X19938810Y-16109571D01*
X19929286Y-16090524D01*
X19919762Y-16081000D01*
X19900714Y-16071476D01*
X19862619Y-16071476D01*
X19843571Y-16081000D01*
X19834048Y-16090524D01*
X19824524Y-16109571D01*
X19824524Y-16157190D01*
X19834048Y-16176238D01*
X19843571Y-16185762D01*
X19862619Y-16195286D01*
X19900714Y-16195286D01*
X19919762Y-16185762D01*
X19929286Y-16176238D01*
X19938810Y-16157190D01*
X20110238Y-16138143D02*
X20110238Y-16271476D01*
X20062619Y-16061952D02*
X20015000Y-16204809D01*
X20138810Y-16204809D01*
X20205476Y-16071476D02*
X20205476Y-16109571D01*
X20281667Y-16071476D02*
X20281667Y-16109571D01*
X20576905Y-16347667D02*
X20567381Y-16338143D01*
X20548333Y-16309571D01*
X20538810Y-16290524D01*
X20529286Y-16261952D01*
X20519762Y-16214333D01*
X20519762Y-16176238D01*
X20529286Y-16128619D01*
X20538810Y-16100048D01*
X20548333Y-16081000D01*
X20567381Y-16052428D01*
X20576905Y-16042905D01*
X20757857Y-16271476D02*
X20643571Y-16271476D01*
X20700714Y-16271476D02*
X20700714Y-16071476D01*
X20681667Y-16100048D01*
X20662619Y-16119095D01*
X20643571Y-16128619D01*
X20824524Y-16071476D02*
X20948333Y-16071476D01*
X20881667Y-16147667D01*
X20910238Y-16147667D01*
X20929286Y-16157190D01*
X20938810Y-16166714D01*
X20948333Y-16185762D01*
X20948333Y-16233381D01*
X20938810Y-16252428D01*
X20929286Y-16261952D01*
X20910238Y-16271476D01*
X20853095Y-16271476D01*
X20834048Y-16261952D01*
X20824524Y-16252428D01*
X21186429Y-16271476D02*
X21186429Y-16071476D01*
X21272143Y-16271476D02*
X21272143Y-16166714D01*
X21262619Y-16147667D01*
X21243571Y-16138143D01*
X21215000Y-16138143D01*
X21195952Y-16147667D01*
X21186429Y-16157190D01*
X21395952Y-16271476D02*
X21376905Y-16261952D01*
X21367381Y-16252428D01*
X21357857Y-16233381D01*
X21357857Y-16176238D01*
X21367381Y-16157190D01*
X21376905Y-16147667D01*
X21395952Y-16138143D01*
X21424524Y-16138143D01*
X21443571Y-16147667D01*
X21453095Y-16157190D01*
X21462619Y-16176238D01*
X21462619Y-16233381D01*
X21453095Y-16252428D01*
X21443571Y-16261952D01*
X21424524Y-16271476D01*
X21395952Y-16271476D01*
X21576905Y-16271476D02*
X21557857Y-16261952D01*
X21548333Y-16242905D01*
X21548333Y-16071476D01*
X21729286Y-16261952D02*
X21710238Y-16271476D01*
X21672143Y-16271476D01*
X21653095Y-16261952D01*
X21643571Y-16242905D01*
X21643571Y-16166714D01*
X21653095Y-16147667D01*
X21672143Y-16138143D01*
X21710238Y-16138143D01*
X21729286Y-16147667D01*
X21738810Y-16166714D01*
X21738810Y-16185762D01*
X21643571Y-16204809D01*
X21815000Y-16261952D02*
X21834048Y-16271476D01*
X21872143Y-16271476D01*
X21891190Y-16261952D01*
X21900714Y-16242905D01*
X21900714Y-16233381D01*
X21891190Y-16214333D01*
X21872143Y-16204809D01*
X21843571Y-16204809D01*
X21824524Y-16195286D01*
X21815000Y-16176238D01*
X21815000Y-16166714D01*
X21824524Y-16147667D01*
X21843571Y-16138143D01*
X21872143Y-16138143D01*
X21891190Y-16147667D01*
X21967381Y-16347667D02*
X21976905Y-16338143D01*
X21995952Y-16309571D01*
X22005476Y-16290524D01*
X22015000Y-16261952D01*
X22024524Y-16214333D01*
X22024524Y-16176238D01*
X22015000Y-16128619D01*
X22005476Y-16100048D01*
X21995952Y-16081000D01*
X21976905Y-16052428D01*
X21967381Y-16042905D01*
D16*
X16820000Y-16352500D02*
X17005000Y-16537500D01*
X17005000Y-16352500D02*
X16820000Y-16537500D01*
X17005000Y-16445000D02*
G75*
G03*
X17005000Y-16445000I-92500J0D01*
G01*
D11*
X17367381Y-16535476D02*
X17253095Y-16535476D01*
X17310238Y-16535476D02*
X17310238Y-16335476D01*
X17291190Y-16364048D01*
X17272143Y-16383095D01*
X17253095Y-16392619D01*
X17453095Y-16516428D02*
X17462619Y-16525952D01*
X17453095Y-16535476D01*
X17443571Y-16525952D01*
X17453095Y-16516428D01*
X17453095Y-16535476D01*
X17576905Y-16421190D02*
X17557857Y-16411667D01*
X17548333Y-16402143D01*
X17538810Y-16383095D01*
X17538810Y-16373571D01*
X17548333Y-16354524D01*
X17557857Y-16345000D01*
X17576905Y-16335476D01*
X17615000Y-16335476D01*
X17634048Y-16345000D01*
X17643571Y-16354524D01*
X17653095Y-16373571D01*
X17653095Y-16383095D01*
X17643571Y-16402143D01*
X17634048Y-16411667D01*
X17615000Y-16421190D01*
X17576905Y-16421190D01*
X17557857Y-16430714D01*
X17548333Y-16440238D01*
X17538810Y-16459286D01*
X17538810Y-16497381D01*
X17548333Y-16516428D01*
X17557857Y-16525952D01*
X17576905Y-16535476D01*
X17615000Y-16535476D01*
X17634048Y-16525952D01*
X17643571Y-16516428D01*
X17653095Y-16497381D01*
X17653095Y-16459286D01*
X17643571Y-16440238D01*
X17634048Y-16430714D01*
X17615000Y-16421190D01*
X17834048Y-16335476D02*
X17738810Y-16335476D01*
X17729286Y-16430714D01*
X17738810Y-16421190D01*
X17757857Y-16411667D01*
X17805476Y-16411667D01*
X17824524Y-16421190D01*
X17834048Y-16430714D01*
X17843571Y-16449762D01*
X17843571Y-16497381D01*
X17834048Y-16516428D01*
X17824524Y-16525952D01*
X17805476Y-16535476D01*
X17757857Y-16535476D01*
X17738810Y-16525952D01*
X17729286Y-16516428D01*
X17967381Y-16335476D02*
X17986429Y-16335476D01*
X18005476Y-16345000D01*
X18015000Y-16354524D01*
X18024524Y-16373571D01*
X18034048Y-16411667D01*
X18034048Y-16459286D01*
X18024524Y-16497381D01*
X18015000Y-16516428D01*
X18005476Y-16525952D01*
X17986429Y-16535476D01*
X17967381Y-16535476D01*
X17948333Y-16525952D01*
X17938810Y-16516428D01*
X17929286Y-16497381D01*
X17919762Y-16459286D01*
X17919762Y-16411667D01*
X17929286Y-16373571D01*
X17938810Y-16354524D01*
X17948333Y-16345000D01*
X17967381Y-16335476D01*
X18119762Y-16535476D02*
X18119762Y-16402143D01*
X18119762Y-16421190D02*
X18129286Y-16411667D01*
X18148333Y-16402143D01*
X18176905Y-16402143D01*
X18195952Y-16411667D01*
X18205476Y-16430714D01*
X18205476Y-16535476D01*
X18205476Y-16430714D02*
X18215000Y-16411667D01*
X18234048Y-16402143D01*
X18262619Y-16402143D01*
X18281667Y-16411667D01*
X18291190Y-16430714D01*
X18291190Y-16535476D01*
X18386429Y-16535476D02*
X18386429Y-16402143D01*
X18386429Y-16421190D02*
X18395952Y-16411667D01*
X18415000Y-16402143D01*
X18443571Y-16402143D01*
X18462619Y-16411667D01*
X18472143Y-16430714D01*
X18472143Y-16535476D01*
X18472143Y-16430714D02*
X18481667Y-16411667D01*
X18500714Y-16402143D01*
X18529286Y-16402143D01*
X18548333Y-16411667D01*
X18557857Y-16430714D01*
X18557857Y-16535476D01*
X18948333Y-16325952D02*
X18776905Y-16583095D01*
X19205476Y-16335476D02*
X19224524Y-16335476D01*
X19243571Y-16345000D01*
X19253095Y-16354524D01*
X19262619Y-16373571D01*
X19272143Y-16411667D01*
X19272143Y-16459286D01*
X19262619Y-16497381D01*
X19253095Y-16516428D01*
X19243571Y-16525952D01*
X19224524Y-16535476D01*
X19205476Y-16535476D01*
X19186429Y-16525952D01*
X19176905Y-16516428D01*
X19167381Y-16497381D01*
X19157857Y-16459286D01*
X19157857Y-16411667D01*
X19167381Y-16373571D01*
X19176905Y-16354524D01*
X19186429Y-16345000D01*
X19205476Y-16335476D01*
X19357857Y-16516428D02*
X19367381Y-16525952D01*
X19357857Y-16535476D01*
X19348333Y-16525952D01*
X19357857Y-16516428D01*
X19357857Y-16535476D01*
X19491190Y-16335476D02*
X19510238Y-16335476D01*
X19529286Y-16345000D01*
X19538810Y-16354524D01*
X19548333Y-16373571D01*
X19557857Y-16411667D01*
X19557857Y-16459286D01*
X19548333Y-16497381D01*
X19538810Y-16516428D01*
X19529286Y-16525952D01*
X19510238Y-16535476D01*
X19491190Y-16535476D01*
X19472143Y-16525952D01*
X19462619Y-16516428D01*
X19453095Y-16497381D01*
X19443571Y-16459286D01*
X19443571Y-16411667D01*
X19453095Y-16373571D01*
X19462619Y-16354524D01*
X19472143Y-16345000D01*
X19491190Y-16335476D01*
X19624524Y-16335476D02*
X19757857Y-16335476D01*
X19672143Y-16535476D01*
X19824524Y-16354524D02*
X19834048Y-16345000D01*
X19853095Y-16335476D01*
X19900714Y-16335476D01*
X19919762Y-16345000D01*
X19929286Y-16354524D01*
X19938810Y-16373571D01*
X19938810Y-16392619D01*
X19929286Y-16421190D01*
X19815000Y-16535476D01*
X19938810Y-16535476D01*
X20053095Y-16421190D02*
X20034048Y-16411667D01*
X20024524Y-16402143D01*
X20015000Y-16383095D01*
X20015000Y-16373571D01*
X20024524Y-16354524D01*
X20034048Y-16345000D01*
X20053095Y-16335476D01*
X20091190Y-16335476D01*
X20110238Y-16345000D01*
X20119762Y-16354524D01*
X20129286Y-16373571D01*
X20129286Y-16383095D01*
X20119762Y-16402143D01*
X20110238Y-16411667D01*
X20091190Y-16421190D01*
X20053095Y-16421190D01*
X20034048Y-16430714D01*
X20024524Y-16440238D01*
X20015000Y-16459286D01*
X20015000Y-16497381D01*
X20024524Y-16516428D01*
X20034048Y-16525952D01*
X20053095Y-16535476D01*
X20091190Y-16535476D01*
X20110238Y-16525952D01*
X20119762Y-16516428D01*
X20129286Y-16497381D01*
X20129286Y-16459286D01*
X20119762Y-16440238D01*
X20110238Y-16430714D01*
X20091190Y-16421190D01*
X20205476Y-16335476D02*
X20205476Y-16373571D01*
X20281667Y-16335476D02*
X20281667Y-16373571D01*
X20576905Y-16611667D02*
X20567381Y-16602143D01*
X20548333Y-16573571D01*
X20538810Y-16554524D01*
X20529286Y-16525952D01*
X20519762Y-16478333D01*
X20519762Y-16440238D01*
X20529286Y-16392619D01*
X20538810Y-16364048D01*
X20548333Y-16345000D01*
X20567381Y-16316428D01*
X20576905Y-16306905D01*
X20662619Y-16535476D02*
X20700714Y-16535476D01*
X20719762Y-16525952D01*
X20729286Y-16516428D01*
X20748333Y-16487857D01*
X20757857Y-16449762D01*
X20757857Y-16373571D01*
X20748333Y-16354524D01*
X20738810Y-16345000D01*
X20719762Y-16335476D01*
X20681667Y-16335476D01*
X20662619Y-16345000D01*
X20653095Y-16354524D01*
X20643571Y-16373571D01*
X20643571Y-16421190D01*
X20653095Y-16440238D01*
X20662619Y-16449762D01*
X20681667Y-16459286D01*
X20719762Y-16459286D01*
X20738810Y-16449762D01*
X20748333Y-16440238D01*
X20757857Y-16421190D01*
X20995952Y-16535476D02*
X20995952Y-16335476D01*
X21081667Y-16535476D02*
X21081667Y-16430714D01*
X21072143Y-16411667D01*
X21053095Y-16402143D01*
X21024524Y-16402143D01*
X21005476Y-16411667D01*
X20995952Y-16421190D01*
X21205476Y-16535476D02*
X21186429Y-16525952D01*
X21176905Y-16516428D01*
X21167381Y-16497381D01*
X21167381Y-16440238D01*
X21176905Y-16421190D01*
X21186429Y-16411667D01*
X21205476Y-16402143D01*
X21234048Y-16402143D01*
X21253095Y-16411667D01*
X21262619Y-16421190D01*
X21272143Y-16440238D01*
X21272143Y-16497381D01*
X21262619Y-16516428D01*
X21253095Y-16525952D01*
X21234048Y-16535476D01*
X21205476Y-16535476D01*
X21386429Y-16535476D02*
X21367381Y-16525952D01*
X21357857Y-16506905D01*
X21357857Y-16335476D01*
X21538810Y-16525952D02*
X21519762Y-16535476D01*
X21481667Y-16535476D01*
X21462619Y-16525952D01*
X21453095Y-16506905D01*
X21453095Y-16430714D01*
X21462619Y-16411667D01*
X21481667Y-16402143D01*
X21519762Y-16402143D01*
X21538810Y-16411667D01*
X21548333Y-16430714D01*
X21548333Y-16449762D01*
X21453095Y-16468809D01*
X21624524Y-16525952D02*
X21643571Y-16535476D01*
X21681667Y-16535476D01*
X21700714Y-16525952D01*
X21710238Y-16506905D01*
X21710238Y-16497381D01*
X21700714Y-16478333D01*
X21681667Y-16468809D01*
X21653095Y-16468809D01*
X21634048Y-16459286D01*
X21624524Y-16440238D01*
X21624524Y-16430714D01*
X21634048Y-16411667D01*
X21653095Y-16402143D01*
X21681667Y-16402143D01*
X21700714Y-16411667D01*
X21776905Y-16611667D02*
X21786429Y-16602143D01*
X21805476Y-16573571D01*
X21815000Y-16554524D01*
X21824524Y-16525952D01*
X21834048Y-16478333D01*
X21834048Y-16440238D01*
X21824524Y-16392619D01*
X21815000Y-16364048D01*
X21805476Y-16345000D01*
X21786429Y-16316428D01*
X21776905Y-16306905D01*
X16805000Y-16650000D02*
X17005000Y-16850000D01*
X17005000Y-16650000D02*
X16805000Y-16850000D01*
X16905000Y-16650000D02*
X16905000Y-16850000D01*
X16805000Y-16750000D02*
X17005000Y-16750000D01*
X17253095Y-16659524D02*
X17262619Y-16650000D01*
X17281667Y-16640476D01*
X17329286Y-16640476D01*
X17348333Y-16650000D01*
X17357857Y-16659524D01*
X17367381Y-16678571D01*
X17367381Y-16697619D01*
X17357857Y-16726190D01*
X17243571Y-16840476D01*
X17367381Y-16840476D01*
X17453095Y-16821429D02*
X17462619Y-16830952D01*
X17453095Y-16840476D01*
X17443571Y-16830952D01*
X17453095Y-16821429D01*
X17453095Y-16840476D01*
X17586429Y-16640476D02*
X17605476Y-16640476D01*
X17624524Y-16650000D01*
X17634048Y-16659524D01*
X17643571Y-16678571D01*
X17653095Y-16716667D01*
X17653095Y-16764286D01*
X17643571Y-16802381D01*
X17634048Y-16821429D01*
X17624524Y-16830952D01*
X17605476Y-16840476D01*
X17586429Y-16840476D01*
X17567381Y-16830952D01*
X17557857Y-16821429D01*
X17548333Y-16802381D01*
X17538810Y-16764286D01*
X17538810Y-16716667D01*
X17548333Y-16678571D01*
X17557857Y-16659524D01*
X17567381Y-16650000D01*
X17586429Y-16640476D01*
X17843571Y-16840476D02*
X17729286Y-16840476D01*
X17786429Y-16840476D02*
X17786429Y-16640476D01*
X17767381Y-16669048D01*
X17748333Y-16688095D01*
X17729286Y-16697619D01*
X17967381Y-16640476D02*
X17986429Y-16640476D01*
X18005476Y-16650000D01*
X18015000Y-16659524D01*
X18024524Y-16678571D01*
X18034048Y-16716667D01*
X18034048Y-16764286D01*
X18024524Y-16802381D01*
X18015000Y-16821429D01*
X18005476Y-16830952D01*
X17986429Y-16840476D01*
X17967381Y-16840476D01*
X17948333Y-16830952D01*
X17938810Y-16821429D01*
X17929286Y-16802381D01*
X17919762Y-16764286D01*
X17919762Y-16716667D01*
X17929286Y-16678571D01*
X17938810Y-16659524D01*
X17948333Y-16650000D01*
X17967381Y-16640476D01*
X18119762Y-16840476D02*
X18119762Y-16707143D01*
X18119762Y-16726190D02*
X18129286Y-16716667D01*
X18148333Y-16707143D01*
X18176905Y-16707143D01*
X18195952Y-16716667D01*
X18205476Y-16735714D01*
X18205476Y-16840476D01*
X18205476Y-16735714D02*
X18215000Y-16716667D01*
X18234048Y-16707143D01*
X18262619Y-16707143D01*
X18281667Y-16716667D01*
X18291190Y-16735714D01*
X18291190Y-16840476D01*
X18386429Y-16840476D02*
X18386429Y-16707143D01*
X18386429Y-16726190D02*
X18395952Y-16716667D01*
X18415000Y-16707143D01*
X18443571Y-16707143D01*
X18462619Y-16716667D01*
X18472143Y-16735714D01*
X18472143Y-16840476D01*
X18472143Y-16735714D02*
X18481667Y-16716667D01*
X18500714Y-16707143D01*
X18529286Y-16707143D01*
X18548333Y-16716667D01*
X18557857Y-16735714D01*
X18557857Y-16840476D01*
X18948333Y-16630952D02*
X18776905Y-16888095D01*
X19205476Y-16640476D02*
X19224524Y-16640476D01*
X19243571Y-16650000D01*
X19253095Y-16659524D01*
X19262619Y-16678571D01*
X19272143Y-16716667D01*
X19272143Y-16764286D01*
X19262619Y-16802381D01*
X19253095Y-16821429D01*
X19243571Y-16830952D01*
X19224524Y-16840476D01*
X19205476Y-16840476D01*
X19186429Y-16830952D01*
X19176905Y-16821429D01*
X19167381Y-16802381D01*
X19157857Y-16764286D01*
X19157857Y-16716667D01*
X19167381Y-16678571D01*
X19176905Y-16659524D01*
X19186429Y-16650000D01*
X19205476Y-16640476D01*
X19357857Y-16821429D02*
X19367381Y-16830952D01*
X19357857Y-16840476D01*
X19348333Y-16830952D01*
X19357857Y-16821429D01*
X19357857Y-16840476D01*
X19491190Y-16640476D02*
X19510238Y-16640476D01*
X19529286Y-16650000D01*
X19538810Y-16659524D01*
X19548333Y-16678571D01*
X19557857Y-16716667D01*
X19557857Y-16764286D01*
X19548333Y-16802381D01*
X19538810Y-16821429D01*
X19529286Y-16830952D01*
X19510238Y-16840476D01*
X19491190Y-16840476D01*
X19472143Y-16830952D01*
X19462619Y-16821429D01*
X19453095Y-16802381D01*
X19443571Y-16764286D01*
X19443571Y-16716667D01*
X19453095Y-16678571D01*
X19462619Y-16659524D01*
X19472143Y-16650000D01*
X19491190Y-16640476D01*
X19624524Y-16640476D02*
X19757857Y-16640476D01*
X19672143Y-16840476D01*
X19843571Y-16840476D02*
X19881667Y-16840476D01*
X19900714Y-16830952D01*
X19910238Y-16821429D01*
X19929286Y-16792857D01*
X19938810Y-16754762D01*
X19938810Y-16678571D01*
X19929286Y-16659524D01*
X19919762Y-16650000D01*
X19900714Y-16640476D01*
X19862619Y-16640476D01*
X19843571Y-16650000D01*
X19834048Y-16659524D01*
X19824524Y-16678571D01*
X19824524Y-16726190D01*
X19834048Y-16745238D01*
X19843571Y-16754762D01*
X19862619Y-16764286D01*
X19900714Y-16764286D01*
X19919762Y-16754762D01*
X19929286Y-16745238D01*
X19938810Y-16726190D01*
X20129286Y-16840476D02*
X20015000Y-16840476D01*
X20072143Y-16840476D02*
X20072143Y-16640476D01*
X20053095Y-16669048D01*
X20034048Y-16688095D01*
X20015000Y-16697619D01*
X20205476Y-16640476D02*
X20205476Y-16678571D01*
X20281667Y-16640476D02*
X20281667Y-16678571D01*
X20576905Y-16916667D02*
X20567381Y-16907143D01*
X20548333Y-16878571D01*
X20538810Y-16859524D01*
X20529286Y-16830952D01*
X20519762Y-16783333D01*
X20519762Y-16745238D01*
X20529286Y-16697619D01*
X20538810Y-16669048D01*
X20548333Y-16650000D01*
X20567381Y-16621428D01*
X20576905Y-16611905D01*
X20738810Y-16707143D02*
X20738810Y-16840476D01*
X20691190Y-16630952D02*
X20643571Y-16773809D01*
X20767381Y-16773809D01*
X20995952Y-16840476D02*
X20995952Y-16640476D01*
X21081667Y-16840476D02*
X21081667Y-16735714D01*
X21072143Y-16716667D01*
X21053095Y-16707143D01*
X21024524Y-16707143D01*
X21005476Y-16716667D01*
X20995952Y-16726190D01*
X21205476Y-16840476D02*
X21186429Y-16830952D01*
X21176905Y-16821429D01*
X21167381Y-16802381D01*
X21167381Y-16745238D01*
X21176905Y-16726190D01*
X21186429Y-16716667D01*
X21205476Y-16707143D01*
X21234048Y-16707143D01*
X21253095Y-16716667D01*
X21262619Y-16726190D01*
X21272143Y-16745238D01*
X21272143Y-16802381D01*
X21262619Y-16821429D01*
X21253095Y-16830952D01*
X21234048Y-16840476D01*
X21205476Y-16840476D01*
X21386429Y-16840476D02*
X21367381Y-16830952D01*
X21357857Y-16811905D01*
X21357857Y-16640476D01*
X21538810Y-16830952D02*
X21519762Y-16840476D01*
X21481667Y-16840476D01*
X21462619Y-16830952D01*
X21453095Y-16811905D01*
X21453095Y-16735714D01*
X21462619Y-16716667D01*
X21481667Y-16707143D01*
X21519762Y-16707143D01*
X21538810Y-16716667D01*
X21548333Y-16735714D01*
X21548333Y-16754762D01*
X21453095Y-16773809D01*
X21624524Y-16830952D02*
X21643571Y-16840476D01*
X21681667Y-16840476D01*
X21700714Y-16830952D01*
X21710238Y-16811905D01*
X21710238Y-16802381D01*
X21700714Y-16783333D01*
X21681667Y-16773809D01*
X21653095Y-16773809D01*
X21634048Y-16764286D01*
X21624524Y-16745238D01*
X21624524Y-16735714D01*
X21634048Y-16716667D01*
X21653095Y-16707143D01*
X21681667Y-16707143D01*
X21700714Y-16716667D01*
X21776905Y-16916667D02*
X21786429Y-16907143D01*
X21805476Y-16878571D01*
X21815000Y-16859524D01*
X21824524Y-16830952D01*
X21834048Y-16783333D01*
X21834048Y-16745238D01*
X21824524Y-16697619D01*
X21815000Y-16669048D01*
X21805476Y-16650000D01*
X21786429Y-16621428D01*
X21776905Y-16611905D01*
M02*
