G04 #@! TF.GenerationSoftware,KiCad,Pcbnew,6.0.11+dfsg-1*
G04 #@! TF.CreationDate,2023-09-05T11:20:00+01:00*
G04 #@! TF.ProjectId,low-noise-power-probe-panel,6c6f772d-6e6f-4697-9365-2d706f776572,rev?*
G04 #@! TF.SameCoordinates,Original*
G04 #@! TF.FileFunction,Other,Comment*
%FSLAX46Y46*%
G04 Gerber Fmt 4.6, Leading zero omitted, Abs format (unit mm)*
G04 Created by KiCad (PCBNEW 6.0.11+dfsg-1) date 2023-09-05 11:20:00*
%MOMM*%
%LPD*%
G01*
G04 APERTURE LIST*
%ADD10C,0.150000*%
%ADD11C,0.400000*%
G04 APERTURE END LIST*
D10*
X253537976Y-40739761D02*
X253680833Y-40787380D01*
X253918928Y-40787380D01*
X254014166Y-40739761D01*
X254061785Y-40692142D01*
X254109404Y-40596904D01*
X254109404Y-40501666D01*
X254061785Y-40406428D01*
X254014166Y-40358809D01*
X253918928Y-40311190D01*
X253728452Y-40263571D01*
X253633214Y-40215952D01*
X253585595Y-40168333D01*
X253537976Y-40073095D01*
X253537976Y-39977857D01*
X253585595Y-39882619D01*
X253633214Y-39835000D01*
X253728452Y-39787380D01*
X253966547Y-39787380D01*
X254109404Y-39835000D01*
X254395119Y-40120714D02*
X254776071Y-40120714D01*
X254537976Y-39787380D02*
X254537976Y-40644523D01*
X254585595Y-40739761D01*
X254680833Y-40787380D01*
X254776071Y-40787380D01*
X255537976Y-40787380D02*
X255537976Y-40263571D01*
X255490357Y-40168333D01*
X255395119Y-40120714D01*
X255204642Y-40120714D01*
X255109404Y-40168333D01*
X255537976Y-40739761D02*
X255442738Y-40787380D01*
X255204642Y-40787380D01*
X255109404Y-40739761D01*
X255061785Y-40644523D01*
X255061785Y-40549285D01*
X255109404Y-40454047D01*
X255204642Y-40406428D01*
X255442738Y-40406428D01*
X255537976Y-40358809D01*
X256442738Y-40739761D02*
X256347500Y-40787380D01*
X256157023Y-40787380D01*
X256061785Y-40739761D01*
X256014166Y-40692142D01*
X255966547Y-40596904D01*
X255966547Y-40311190D01*
X256014166Y-40215952D01*
X256061785Y-40168333D01*
X256157023Y-40120714D01*
X256347500Y-40120714D01*
X256442738Y-40168333D01*
X256871309Y-40787380D02*
X256871309Y-39787380D01*
X256966547Y-40406428D02*
X257252261Y-40787380D01*
X257252261Y-40120714D02*
X256871309Y-40501666D01*
X258109404Y-40120714D02*
X258109404Y-40787380D01*
X257680833Y-40120714D02*
X257680833Y-40644523D01*
X257728452Y-40739761D01*
X257823690Y-40787380D01*
X257966547Y-40787380D01*
X258061785Y-40739761D01*
X258109404Y-40692142D01*
X258585595Y-40120714D02*
X258585595Y-41120714D01*
X258585595Y-40168333D02*
X258680833Y-40120714D01*
X258871309Y-40120714D01*
X258966547Y-40168333D01*
X259014166Y-40215952D01*
X259061785Y-40311190D01*
X259061785Y-40596904D01*
X259014166Y-40692142D01*
X258966547Y-40739761D01*
X258871309Y-40787380D01*
X258680833Y-40787380D01*
X258585595Y-40739761D01*
X259490357Y-40692142D02*
X259537976Y-40739761D01*
X259490357Y-40787380D01*
X259442738Y-40739761D01*
X259490357Y-40692142D01*
X259490357Y-40787380D01*
X259490357Y-40168333D02*
X259537976Y-40215952D01*
X259490357Y-40263571D01*
X259442738Y-40215952D01*
X259490357Y-40168333D01*
X259490357Y-40263571D01*
X260680833Y-39882619D02*
X260728452Y-39835000D01*
X260823690Y-39787380D01*
X261061785Y-39787380D01*
X261157023Y-39835000D01*
X261204642Y-39882619D01*
X261252261Y-39977857D01*
X261252261Y-40073095D01*
X261204642Y-40215952D01*
X260633214Y-40787380D01*
X261252261Y-40787380D01*
X262204642Y-40787380D02*
X261633214Y-40787380D01*
X261918928Y-40787380D02*
X261918928Y-39787380D01*
X261823690Y-39930238D01*
X261728452Y-40025476D01*
X261633214Y-40073095D01*
X263157023Y-40787380D02*
X262585595Y-40787380D01*
X262871309Y-40787380D02*
X262871309Y-39787380D01*
X262776071Y-39930238D01*
X262680833Y-40025476D01*
X262585595Y-40073095D01*
X264014166Y-39787380D02*
X263823690Y-39787380D01*
X263728452Y-39835000D01*
X263680833Y-39882619D01*
X263585595Y-40025476D01*
X263537976Y-40215952D01*
X263537976Y-40596904D01*
X263585595Y-40692142D01*
X263633214Y-40739761D01*
X263728452Y-40787380D01*
X263918928Y-40787380D01*
X264014166Y-40739761D01*
X264061785Y-40692142D01*
X264109404Y-40596904D01*
X264109404Y-40358809D01*
X264061785Y-40263571D01*
X264014166Y-40215952D01*
X263918928Y-40168333D01*
X263728452Y-40168333D01*
X263633214Y-40215952D01*
X263585595Y-40263571D01*
X263537976Y-40358809D01*
X265442738Y-39787380D02*
X265442738Y-40025476D01*
X265204642Y-39930238D02*
X265442738Y-40025476D01*
X265680833Y-39930238D01*
X265299880Y-40215952D02*
X265442738Y-40025476D01*
X265585595Y-40215952D01*
X267347500Y-40787380D02*
X266776071Y-40787380D01*
X267061785Y-40787380D02*
X267061785Y-39787380D01*
X266966547Y-39930238D01*
X266871309Y-40025476D01*
X266776071Y-40073095D01*
X268537976Y-40787380D02*
X268537976Y-40120714D01*
X268537976Y-39787380D02*
X268490357Y-39835000D01*
X268537976Y-39882619D01*
X268585595Y-39835000D01*
X268537976Y-39787380D01*
X268537976Y-39882619D01*
X269014166Y-40787380D02*
X269014166Y-40120714D01*
X269014166Y-40215952D02*
X269061785Y-40168333D01*
X269157023Y-40120714D01*
X269299880Y-40120714D01*
X269395119Y-40168333D01*
X269442738Y-40263571D01*
X269442738Y-40787380D01*
X269442738Y-40263571D02*
X269490357Y-40168333D01*
X269585595Y-40120714D01*
X269728452Y-40120714D01*
X269823690Y-40168333D01*
X269871309Y-40263571D01*
X269871309Y-40787380D01*
X270347500Y-40120714D02*
X270347500Y-41120714D01*
X270347500Y-40168333D02*
X270442738Y-40120714D01*
X270633214Y-40120714D01*
X270728452Y-40168333D01*
X270776071Y-40215952D01*
X270823690Y-40311190D01*
X270823690Y-40596904D01*
X270776071Y-40692142D01*
X270728452Y-40739761D01*
X270633214Y-40787380D01*
X270442738Y-40787380D01*
X270347500Y-40739761D01*
X271633214Y-40739761D02*
X271537976Y-40787380D01*
X271347500Y-40787380D01*
X271252261Y-40739761D01*
X271204642Y-40644523D01*
X271204642Y-40263571D01*
X271252261Y-40168333D01*
X271347500Y-40120714D01*
X271537976Y-40120714D01*
X271633214Y-40168333D01*
X271680833Y-40263571D01*
X271680833Y-40358809D01*
X271204642Y-40454047D01*
X272537976Y-40787380D02*
X272537976Y-39787380D01*
X272537976Y-40739761D02*
X272442738Y-40787380D01*
X272252261Y-40787380D01*
X272157023Y-40739761D01*
X272109404Y-40692142D01*
X272061785Y-40596904D01*
X272061785Y-40311190D01*
X272109404Y-40215952D01*
X272157023Y-40168333D01*
X272252261Y-40120714D01*
X272442738Y-40120714D01*
X272537976Y-40168333D01*
X273442738Y-40787380D02*
X273442738Y-40263571D01*
X273395119Y-40168333D01*
X273299880Y-40120714D01*
X273109404Y-40120714D01*
X273014166Y-40168333D01*
X273442738Y-40739761D02*
X273347500Y-40787380D01*
X273109404Y-40787380D01*
X273014166Y-40739761D01*
X272966547Y-40644523D01*
X272966547Y-40549285D01*
X273014166Y-40454047D01*
X273109404Y-40406428D01*
X273347500Y-40406428D01*
X273442738Y-40358809D01*
X273918928Y-40120714D02*
X273918928Y-40787380D01*
X273918928Y-40215952D02*
X273966547Y-40168333D01*
X274061785Y-40120714D01*
X274204642Y-40120714D01*
X274299880Y-40168333D01*
X274347500Y-40263571D01*
X274347500Y-40787380D01*
X275252261Y-40739761D02*
X275157023Y-40787380D01*
X274966547Y-40787380D01*
X274871309Y-40739761D01*
X274823690Y-40692142D01*
X274776071Y-40596904D01*
X274776071Y-40311190D01*
X274823690Y-40215952D01*
X274871309Y-40168333D01*
X274966547Y-40120714D01*
X275157023Y-40120714D01*
X275252261Y-40168333D01*
X276061785Y-40739761D02*
X275966547Y-40787380D01*
X275776071Y-40787380D01*
X275680833Y-40739761D01*
X275633214Y-40644523D01*
X275633214Y-40263571D01*
X275680833Y-40168333D01*
X275776071Y-40120714D01*
X275966547Y-40120714D01*
X276061785Y-40168333D01*
X276109404Y-40263571D01*
X276109404Y-40358809D01*
X275633214Y-40454047D01*
X277728452Y-40739761D02*
X277633214Y-40787380D01*
X277442738Y-40787380D01*
X277347500Y-40739761D01*
X277299880Y-40692142D01*
X277252261Y-40596904D01*
X277252261Y-40311190D01*
X277299880Y-40215952D01*
X277347500Y-40168333D01*
X277442738Y-40120714D01*
X277633214Y-40120714D01*
X277728452Y-40168333D01*
X278299880Y-40787380D02*
X278204642Y-40739761D01*
X278157023Y-40692142D01*
X278109404Y-40596904D01*
X278109404Y-40311190D01*
X278157023Y-40215952D01*
X278204642Y-40168333D01*
X278299880Y-40120714D01*
X278442738Y-40120714D01*
X278537976Y-40168333D01*
X278585595Y-40215952D01*
X278633214Y-40311190D01*
X278633214Y-40596904D01*
X278585595Y-40692142D01*
X278537976Y-40739761D01*
X278442738Y-40787380D01*
X278299880Y-40787380D01*
X279061785Y-40120714D02*
X279061785Y-40787380D01*
X279061785Y-40215952D02*
X279109404Y-40168333D01*
X279204642Y-40120714D01*
X279347500Y-40120714D01*
X279442738Y-40168333D01*
X279490357Y-40263571D01*
X279490357Y-40787380D01*
X279823690Y-40120714D02*
X280204642Y-40120714D01*
X279966547Y-39787380D02*
X279966547Y-40644523D01*
X280014166Y-40739761D01*
X280109404Y-40787380D01*
X280204642Y-40787380D01*
X280537976Y-40787380D02*
X280537976Y-40120714D01*
X280537976Y-40311190D02*
X280585595Y-40215952D01*
X280633214Y-40168333D01*
X280728452Y-40120714D01*
X280823690Y-40120714D01*
X281299880Y-40787380D02*
X281204642Y-40739761D01*
X281157023Y-40692142D01*
X281109404Y-40596904D01*
X281109404Y-40311190D01*
X281157023Y-40215952D01*
X281204642Y-40168333D01*
X281299880Y-40120714D01*
X281442738Y-40120714D01*
X281537976Y-40168333D01*
X281585595Y-40215952D01*
X281633214Y-40311190D01*
X281633214Y-40596904D01*
X281585595Y-40692142D01*
X281537976Y-40739761D01*
X281442738Y-40787380D01*
X281299880Y-40787380D01*
X282204642Y-40787380D02*
X282109404Y-40739761D01*
X282061785Y-40644523D01*
X282061785Y-39787380D01*
X282728452Y-40787380D02*
X282633214Y-40739761D01*
X282585595Y-40644523D01*
X282585595Y-39787380D01*
X283490357Y-40739761D02*
X283395119Y-40787380D01*
X283204642Y-40787380D01*
X283109404Y-40739761D01*
X283061785Y-40644523D01*
X283061785Y-40263571D01*
X283109404Y-40168333D01*
X283204642Y-40120714D01*
X283395119Y-40120714D01*
X283490357Y-40168333D01*
X283537976Y-40263571D01*
X283537976Y-40358809D01*
X283061785Y-40454047D01*
X284395119Y-40787380D02*
X284395119Y-39787380D01*
X284395119Y-40739761D02*
X284299880Y-40787380D01*
X284109404Y-40787380D01*
X284014166Y-40739761D01*
X283966547Y-40692142D01*
X283918928Y-40596904D01*
X283918928Y-40311190D01*
X283966547Y-40215952D01*
X284014166Y-40168333D01*
X284109404Y-40120714D01*
X284299880Y-40120714D01*
X284395119Y-40168333D01*
X254109404Y-42397380D02*
X253537976Y-42397380D01*
X253823690Y-42397380D02*
X253823690Y-41397380D01*
X253728452Y-41540238D01*
X253633214Y-41635476D01*
X253537976Y-41683095D01*
X254537976Y-42302142D02*
X254585595Y-42349761D01*
X254537976Y-42397380D01*
X254490357Y-42349761D01*
X254537976Y-42302142D01*
X254537976Y-42397380D01*
X255442738Y-41397380D02*
X255252261Y-41397380D01*
X255157023Y-41445000D01*
X255109404Y-41492619D01*
X255014166Y-41635476D01*
X254966547Y-41825952D01*
X254966547Y-42206904D01*
X255014166Y-42302142D01*
X255061785Y-42349761D01*
X255157023Y-42397380D01*
X255347500Y-42397380D01*
X255442738Y-42349761D01*
X255490357Y-42302142D01*
X255537976Y-42206904D01*
X255537976Y-41968809D01*
X255490357Y-41873571D01*
X255442738Y-41825952D01*
X255347500Y-41778333D01*
X255157023Y-41778333D01*
X255061785Y-41825952D01*
X255014166Y-41873571D01*
X254966547Y-41968809D01*
X255966547Y-42397380D02*
X255966547Y-41730714D01*
X255966547Y-41825952D02*
X256014166Y-41778333D01*
X256109404Y-41730714D01*
X256252261Y-41730714D01*
X256347500Y-41778333D01*
X256395119Y-41873571D01*
X256395119Y-42397380D01*
X256395119Y-41873571D02*
X256442738Y-41778333D01*
X256537976Y-41730714D01*
X256680833Y-41730714D01*
X256776071Y-41778333D01*
X256823690Y-41873571D01*
X256823690Y-42397380D01*
X257299880Y-42397380D02*
X257299880Y-41730714D01*
X257299880Y-41825952D02*
X257347500Y-41778333D01*
X257442738Y-41730714D01*
X257585595Y-41730714D01*
X257680833Y-41778333D01*
X257728452Y-41873571D01*
X257728452Y-42397380D01*
X257728452Y-41873571D02*
X257776071Y-41778333D01*
X257871309Y-41730714D01*
X258014166Y-41730714D01*
X258109404Y-41778333D01*
X258157023Y-41873571D01*
X258157023Y-42397380D01*
X259252261Y-41730714D02*
X259633214Y-41730714D01*
X259395119Y-41397380D02*
X259395119Y-42254523D01*
X259442738Y-42349761D01*
X259537976Y-42397380D01*
X259633214Y-42397380D01*
X260109404Y-42397380D02*
X260014166Y-42349761D01*
X259966547Y-42302142D01*
X259918928Y-42206904D01*
X259918928Y-41921190D01*
X259966547Y-41825952D01*
X260014166Y-41778333D01*
X260109404Y-41730714D01*
X260252261Y-41730714D01*
X260347500Y-41778333D01*
X260395119Y-41825952D01*
X260442738Y-41921190D01*
X260442738Y-42206904D01*
X260395119Y-42302142D01*
X260347500Y-42349761D01*
X260252261Y-42397380D01*
X260109404Y-42397380D01*
X260728452Y-41730714D02*
X261109404Y-41730714D01*
X260871309Y-41397380D02*
X260871309Y-42254523D01*
X260918928Y-42349761D01*
X261014166Y-42397380D01*
X261109404Y-42397380D01*
X261871309Y-42397380D02*
X261871309Y-41873571D01*
X261823690Y-41778333D01*
X261728452Y-41730714D01*
X261537976Y-41730714D01*
X261442738Y-41778333D01*
X261871309Y-42349761D02*
X261776071Y-42397380D01*
X261537976Y-42397380D01*
X261442738Y-42349761D01*
X261395119Y-42254523D01*
X261395119Y-42159285D01*
X261442738Y-42064047D01*
X261537976Y-42016428D01*
X261776071Y-42016428D01*
X261871309Y-41968809D01*
X262490357Y-42397380D02*
X262395119Y-42349761D01*
X262347500Y-42254523D01*
X262347500Y-41397380D01*
X263490357Y-41730714D02*
X263871309Y-41730714D01*
X263633214Y-41397380D02*
X263633214Y-42254523D01*
X263680833Y-42349761D01*
X263776071Y-42397380D01*
X263871309Y-42397380D01*
X264204642Y-42397380D02*
X264204642Y-41397380D01*
X264633214Y-42397380D02*
X264633214Y-41873571D01*
X264585595Y-41778333D01*
X264490357Y-41730714D01*
X264347500Y-41730714D01*
X264252261Y-41778333D01*
X264204642Y-41825952D01*
X265109404Y-42397380D02*
X265109404Y-41730714D01*
X265109404Y-41397380D02*
X265061785Y-41445000D01*
X265109404Y-41492619D01*
X265157023Y-41445000D01*
X265109404Y-41397380D01*
X265109404Y-41492619D01*
X266014166Y-42349761D02*
X265918928Y-42397380D01*
X265728452Y-42397380D01*
X265633214Y-42349761D01*
X265585595Y-42302142D01*
X265537976Y-42206904D01*
X265537976Y-41921190D01*
X265585595Y-41825952D01*
X265633214Y-41778333D01*
X265728452Y-41730714D01*
X265918928Y-41730714D01*
X266014166Y-41778333D01*
X266442738Y-42397380D02*
X266442738Y-41397380D01*
X266537976Y-42016428D02*
X266823690Y-42397380D01*
X266823690Y-41730714D02*
X266442738Y-42111666D01*
X267252261Y-41730714D02*
X267252261Y-42397380D01*
X267252261Y-41825952D02*
X267299880Y-41778333D01*
X267395119Y-41730714D01*
X267537976Y-41730714D01*
X267633214Y-41778333D01*
X267680833Y-41873571D01*
X267680833Y-42397380D01*
X268537976Y-42349761D02*
X268442738Y-42397380D01*
X268252261Y-42397380D01*
X268157023Y-42349761D01*
X268109404Y-42254523D01*
X268109404Y-41873571D01*
X268157023Y-41778333D01*
X268252261Y-41730714D01*
X268442738Y-41730714D01*
X268537976Y-41778333D01*
X268585595Y-41873571D01*
X268585595Y-41968809D01*
X268109404Y-42064047D01*
X268966547Y-42349761D02*
X269061785Y-42397380D01*
X269252261Y-42397380D01*
X269347500Y-42349761D01*
X269395119Y-42254523D01*
X269395119Y-42206904D01*
X269347500Y-42111666D01*
X269252261Y-42064047D01*
X269109404Y-42064047D01*
X269014166Y-42016428D01*
X268966547Y-41921190D01*
X268966547Y-41873571D01*
X269014166Y-41778333D01*
X269109404Y-41730714D01*
X269252261Y-41730714D01*
X269347500Y-41778333D01*
X269776071Y-42349761D02*
X269871309Y-42397380D01*
X270061785Y-42397380D01*
X270157023Y-42349761D01*
X270204642Y-42254523D01*
X270204642Y-42206904D01*
X270157023Y-42111666D01*
X270061785Y-42064047D01*
X269918928Y-42064047D01*
X269823690Y-42016428D01*
X269776071Y-41921190D01*
X269776071Y-41873571D01*
X269823690Y-41778333D01*
X269918928Y-41730714D01*
X270061785Y-41730714D01*
X270157023Y-41778333D01*
X253585595Y-44007380D02*
X253585595Y-43007380D01*
X253585595Y-43483571D02*
X254157023Y-43483571D01*
X254157023Y-44007380D02*
X254157023Y-43007380D01*
X254585595Y-43721666D02*
X255061785Y-43721666D01*
X254490357Y-44007380D02*
X254823690Y-43007380D01*
X255157023Y-44007380D01*
X255442738Y-43959761D02*
X255585595Y-44007380D01*
X255823690Y-44007380D01*
X255918928Y-43959761D01*
X255966547Y-43912142D01*
X256014166Y-43816904D01*
X256014166Y-43721666D01*
X255966547Y-43626428D01*
X255918928Y-43578809D01*
X255823690Y-43531190D01*
X255633214Y-43483571D01*
X255537976Y-43435952D01*
X255490357Y-43388333D01*
X255442738Y-43293095D01*
X255442738Y-43197857D01*
X255490357Y-43102619D01*
X255537976Y-43055000D01*
X255633214Y-43007380D01*
X255871309Y-43007380D01*
X256014166Y-43055000D01*
X256918928Y-44007380D02*
X256442738Y-44007380D01*
X256442738Y-43007380D01*
X257871309Y-43340714D02*
X258252261Y-43340714D01*
X258014166Y-44007380D02*
X258014166Y-43150238D01*
X258061785Y-43055000D01*
X258157023Y-43007380D01*
X258252261Y-43007380D01*
X258585595Y-44007380D02*
X258585595Y-43340714D01*
X258585595Y-43007380D02*
X258537976Y-43055000D01*
X258585595Y-43102619D01*
X258633214Y-43055000D01*
X258585595Y-43007380D01*
X258585595Y-43102619D01*
X259061785Y-43340714D02*
X259061785Y-44007380D01*
X259061785Y-43435952D02*
X259109404Y-43388333D01*
X259204642Y-43340714D01*
X259347500Y-43340714D01*
X259442738Y-43388333D01*
X259490357Y-43483571D01*
X259490357Y-44007380D01*
X259966547Y-44007380D02*
X259966547Y-43340714D01*
X259966547Y-43007380D02*
X259918928Y-43055000D01*
X259966547Y-43102619D01*
X260014166Y-43055000D01*
X259966547Y-43007380D01*
X259966547Y-43102619D01*
X260395119Y-43959761D02*
X260490357Y-44007380D01*
X260680833Y-44007380D01*
X260776071Y-43959761D01*
X260823690Y-43864523D01*
X260823690Y-43816904D01*
X260776071Y-43721666D01*
X260680833Y-43674047D01*
X260537976Y-43674047D01*
X260442738Y-43626428D01*
X260395119Y-43531190D01*
X260395119Y-43483571D01*
X260442738Y-43388333D01*
X260537976Y-43340714D01*
X260680833Y-43340714D01*
X260776071Y-43388333D01*
X261252261Y-44007380D02*
X261252261Y-43007380D01*
X261680833Y-44007380D02*
X261680833Y-43483571D01*
X261633214Y-43388333D01*
X261537976Y-43340714D01*
X261395119Y-43340714D01*
X261299880Y-43388333D01*
X261252261Y-43435952D01*
X253918928Y-45093571D02*
X254061785Y-45141190D01*
X254109404Y-45188809D01*
X254157023Y-45284047D01*
X254157023Y-45426904D01*
X254109404Y-45522142D01*
X254061785Y-45569761D01*
X253966547Y-45617380D01*
X253585595Y-45617380D01*
X253585595Y-44617380D01*
X253918928Y-44617380D01*
X254014166Y-44665000D01*
X254061785Y-44712619D01*
X254109404Y-44807857D01*
X254109404Y-44903095D01*
X254061785Y-44998333D01*
X254014166Y-45045952D01*
X253918928Y-45093571D01*
X253585595Y-45093571D01*
X254728452Y-45617380D02*
X254633214Y-45569761D01*
X254585595Y-45474523D01*
X254585595Y-44617380D01*
X255537976Y-44950714D02*
X255537976Y-45617380D01*
X255109404Y-44950714D02*
X255109404Y-45474523D01*
X255157023Y-45569761D01*
X255252261Y-45617380D01*
X255395119Y-45617380D01*
X255490357Y-45569761D01*
X255537976Y-45522142D01*
X256395119Y-45569761D02*
X256299880Y-45617380D01*
X256109404Y-45617380D01*
X256014166Y-45569761D01*
X255966547Y-45474523D01*
X255966547Y-45093571D01*
X256014166Y-44998333D01*
X256109404Y-44950714D01*
X256299880Y-44950714D01*
X256395119Y-44998333D01*
X256442738Y-45093571D01*
X256442738Y-45188809D01*
X255966547Y-45284047D01*
X257585595Y-45569761D02*
X257680833Y-45617380D01*
X257871309Y-45617380D01*
X257966547Y-45569761D01*
X258014166Y-45474523D01*
X258014166Y-45426904D01*
X257966547Y-45331666D01*
X257871309Y-45284047D01*
X257728452Y-45284047D01*
X257633214Y-45236428D01*
X257585595Y-45141190D01*
X257585595Y-45093571D01*
X257633214Y-44998333D01*
X257728452Y-44950714D01*
X257871309Y-44950714D01*
X257966547Y-44998333D01*
X258585595Y-45617380D02*
X258490357Y-45569761D01*
X258442738Y-45522142D01*
X258395119Y-45426904D01*
X258395119Y-45141190D01*
X258442738Y-45045952D01*
X258490357Y-44998333D01*
X258585595Y-44950714D01*
X258728452Y-44950714D01*
X258823690Y-44998333D01*
X258871309Y-45045952D01*
X258918928Y-45141190D01*
X258918928Y-45426904D01*
X258871309Y-45522142D01*
X258823690Y-45569761D01*
X258728452Y-45617380D01*
X258585595Y-45617380D01*
X259490357Y-45617380D02*
X259395119Y-45569761D01*
X259347500Y-45474523D01*
X259347500Y-44617380D01*
X260299880Y-45617380D02*
X260299880Y-44617380D01*
X260299880Y-45569761D02*
X260204642Y-45617380D01*
X260014166Y-45617380D01*
X259918928Y-45569761D01*
X259871309Y-45522142D01*
X259823690Y-45426904D01*
X259823690Y-45141190D01*
X259871309Y-45045952D01*
X259918928Y-44998333D01*
X260014166Y-44950714D01*
X260204642Y-44950714D01*
X260299880Y-44998333D01*
X261157023Y-45569761D02*
X261061785Y-45617380D01*
X260871309Y-45617380D01*
X260776071Y-45569761D01*
X260728452Y-45474523D01*
X260728452Y-45093571D01*
X260776071Y-44998333D01*
X260871309Y-44950714D01*
X261061785Y-44950714D01*
X261157023Y-44998333D01*
X261204642Y-45093571D01*
X261204642Y-45188809D01*
X260728452Y-45284047D01*
X261633214Y-45617380D02*
X261633214Y-44950714D01*
X261633214Y-45141190D02*
X261680833Y-45045952D01*
X261728452Y-44998333D01*
X261823690Y-44950714D01*
X261918928Y-44950714D01*
X262252261Y-45617380D02*
X262252261Y-44950714D01*
X262252261Y-45045952D02*
X262299880Y-44998333D01*
X262395119Y-44950714D01*
X262537976Y-44950714D01*
X262633214Y-44998333D01*
X262680833Y-45093571D01*
X262680833Y-45617380D01*
X262680833Y-45093571D02*
X262728452Y-44998333D01*
X262823690Y-44950714D01*
X262966547Y-44950714D01*
X263061785Y-44998333D01*
X263109404Y-45093571D01*
X263109404Y-45617380D01*
X264014166Y-45617380D02*
X264014166Y-45093571D01*
X263966547Y-44998333D01*
X263871309Y-44950714D01*
X263680833Y-44950714D01*
X263585595Y-44998333D01*
X264014166Y-45569761D02*
X263918928Y-45617380D01*
X263680833Y-45617380D01*
X263585595Y-45569761D01*
X263537976Y-45474523D01*
X263537976Y-45379285D01*
X263585595Y-45284047D01*
X263680833Y-45236428D01*
X263918928Y-45236428D01*
X264014166Y-45188809D01*
X264442738Y-45569761D02*
X264537976Y-45617380D01*
X264728452Y-45617380D01*
X264823690Y-45569761D01*
X264871309Y-45474523D01*
X264871309Y-45426904D01*
X264823690Y-45331666D01*
X264728452Y-45284047D01*
X264585595Y-45284047D01*
X264490357Y-45236428D01*
X264442738Y-45141190D01*
X264442738Y-45093571D01*
X264490357Y-44998333D01*
X264585595Y-44950714D01*
X264728452Y-44950714D01*
X264823690Y-44998333D01*
X265299880Y-45617380D02*
X265299880Y-44617380D01*
X265395119Y-45236428D02*
X265680833Y-45617380D01*
X265680833Y-44950714D02*
X265299880Y-45331666D01*
D11*
X175100000Y-17000000D02*
X175100000Y-147800000D01*
X167100000Y-139800000D02*
X252900000Y-139800000D01*
X244900000Y-17000000D02*
X244900000Y-147800000D01*
X167100000Y-25000000D02*
X252900000Y-25000000D01*
X174004761Y-13549523D02*
X176004761Y-12882857D01*
X174004761Y-12216190D01*
X175242857Y-11549523D02*
X175242857Y-10025714D01*
X175814285Y-7930476D02*
X175909523Y-8025714D01*
X176004761Y-8311428D01*
X176004761Y-8501904D01*
X175909523Y-8787619D01*
X175719047Y-8978095D01*
X175528571Y-9073333D01*
X175147619Y-9168571D01*
X174861904Y-9168571D01*
X174480952Y-9073333D01*
X174290476Y-8978095D01*
X174100000Y-8787619D01*
X174004761Y-8501904D01*
X174004761Y-8311428D01*
X174100000Y-8025714D01*
X174195238Y-7930476D01*
X174004761Y-7073333D02*
X175623809Y-7073333D01*
X175814285Y-6978095D01*
X175909523Y-6882857D01*
X176004761Y-6692380D01*
X176004761Y-6311428D01*
X175909523Y-6120952D01*
X175814285Y-6025714D01*
X175623809Y-5930476D01*
X174004761Y-5930476D01*
X174004761Y-5263809D02*
X174004761Y-4120952D01*
X176004761Y-4692380D02*
X174004761Y-4692380D01*
X243804761Y-13549523D02*
X245804761Y-12882857D01*
X243804761Y-12216190D01*
X245042857Y-11549523D02*
X245042857Y-10025714D01*
X245614285Y-7930476D02*
X245709523Y-8025714D01*
X245804761Y-8311428D01*
X245804761Y-8501904D01*
X245709523Y-8787619D01*
X245519047Y-8978095D01*
X245328571Y-9073333D01*
X244947619Y-9168571D01*
X244661904Y-9168571D01*
X244280952Y-9073333D01*
X244090476Y-8978095D01*
X243900000Y-8787619D01*
X243804761Y-8501904D01*
X243804761Y-8311428D01*
X243900000Y-8025714D01*
X243995238Y-7930476D01*
X243804761Y-7073333D02*
X245423809Y-7073333D01*
X245614285Y-6978095D01*
X245709523Y-6882857D01*
X245804761Y-6692380D01*
X245804761Y-6311428D01*
X245709523Y-6120952D01*
X245614285Y-6025714D01*
X245423809Y-5930476D01*
X243804761Y-5930476D01*
X243804761Y-5263809D02*
X243804761Y-4120952D01*
X245804761Y-4692380D02*
X243804761Y-4692380D01*
X256350476Y-23904761D02*
X257017142Y-25904761D01*
X257683809Y-23904761D01*
X258350476Y-25142857D02*
X259874285Y-25142857D01*
X261969523Y-25714285D02*
X261874285Y-25809523D01*
X261588571Y-25904761D01*
X261398095Y-25904761D01*
X261112380Y-25809523D01*
X260921904Y-25619047D01*
X260826666Y-25428571D01*
X260731428Y-25047619D01*
X260731428Y-24761904D01*
X260826666Y-24380952D01*
X260921904Y-24190476D01*
X261112380Y-24000000D01*
X261398095Y-23904761D01*
X261588571Y-23904761D01*
X261874285Y-24000000D01*
X261969523Y-24095238D01*
X262826666Y-23904761D02*
X262826666Y-25523809D01*
X262921904Y-25714285D01*
X263017142Y-25809523D01*
X263207619Y-25904761D01*
X263588571Y-25904761D01*
X263779047Y-25809523D01*
X263874285Y-25714285D01*
X263969523Y-25523809D01*
X263969523Y-23904761D01*
X264636190Y-23904761D02*
X265779047Y-23904761D01*
X265207619Y-25904761D02*
X265207619Y-23904761D01*
X256350476Y-138704761D02*
X257017142Y-140704761D01*
X257683809Y-138704761D01*
X258350476Y-139942857D02*
X259874285Y-139942857D01*
X261969523Y-140514285D02*
X261874285Y-140609523D01*
X261588571Y-140704761D01*
X261398095Y-140704761D01*
X261112380Y-140609523D01*
X260921904Y-140419047D01*
X260826666Y-140228571D01*
X260731428Y-139847619D01*
X260731428Y-139561904D01*
X260826666Y-139180952D01*
X260921904Y-138990476D01*
X261112380Y-138800000D01*
X261398095Y-138704761D01*
X261588571Y-138704761D01*
X261874285Y-138800000D01*
X261969523Y-138895238D01*
X262826666Y-138704761D02*
X262826666Y-140323809D01*
X262921904Y-140514285D01*
X263017142Y-140609523D01*
X263207619Y-140704761D01*
X263588571Y-140704761D01*
X263779047Y-140609523D01*
X263874285Y-140514285D01*
X263969523Y-140323809D01*
X263969523Y-138704761D01*
X264636190Y-138704761D02*
X265779047Y-138704761D01*
X265207619Y-140704761D02*
X265207619Y-138704761D01*
M02*
