G04 #@! TF.GenerationSoftware,KiCad,Pcbnew,6.0.11+dfsg-1*
G04 #@! TF.CreationDate,2023-09-05T11:20:00+01:00*
G04 #@! TF.ProjectId,low-noise-power-probe-panel,6c6f772d-6e6f-4697-9365-2d706f776572,rev?*
G04 #@! TF.SameCoordinates,Original*
G04 #@! TF.FileFunction,Profile,NP*
%FSLAX46Y46*%
G04 Gerber Fmt 4.6, Leading zero omitted, Abs format (unit mm)*
G04 Created by KiCad (PCBNEW 6.0.11+dfsg-1) date 2023-09-05 11:20:00*
%MOMM*%
%LPD*%
G01*
G04 APERTURE LIST*
G04 #@! TA.AperFunction,Profile*
%ADD10C,0.100000*%
G04 #@! TD*
G04 APERTURE END LIST*
D10*
X249891169Y-144799870D02*
X249891655Y-144799798D01*
X249890681Y-144799918D02*
X249891169Y-144799870D01*
X249899702Y-20007863D02*
X249899583Y-20007387D01*
X170100559Y-20006917D02*
X170100416Y-20007387D01*
X170100057Y-144790190D02*
X170100081Y-144790681D01*
X170108830Y-144799870D02*
X170109318Y-144799918D01*
X170107387Y-144799583D02*
X170107863Y-144799702D01*
X249895703Y-144798121D02*
X249896097Y-144797829D01*
X249899702Y-144792136D02*
X249899798Y-144791655D01*
X249898646Y-144794874D02*
X249898877Y-144794441D01*
X170106455Y-144799275D02*
X170106917Y-144799440D01*
X249898121Y-20004296D02*
X249897829Y-20003902D01*
X249893082Y-20000559D02*
X249892612Y-20000416D01*
X170102811Y-144796840D02*
X170103159Y-144797188D01*
X249892612Y-144799583D02*
X249893082Y-144799440D01*
X249898877Y-20005558D02*
X249898646Y-20005125D01*
X170103522Y-144797517D02*
X170103902Y-144797829D01*
X170108830Y-20000129D02*
X170108344Y-20000201D01*
X170107387Y-20000416D02*
X170106917Y-20000559D01*
X170101878Y-20004296D02*
X170101605Y-20004704D01*
X170105125Y-144798646D02*
X170105558Y-144798877D01*
X249894441Y-20001122D02*
X249893997Y-20000912D01*
X249898646Y-20005125D02*
X249898394Y-20004704D01*
X170105558Y-144798877D02*
X170106002Y-144799087D01*
X170100724Y-144793544D02*
X170100912Y-144793997D01*
X170112027Y-20000003D02*
X170109809Y-20000057D01*
X249887727Y-20000000D02*
X170112272Y-20000000D01*
X249892136Y-144799702D02*
X249892612Y-144799583D01*
X170104704Y-144798394D02*
X170105125Y-144798646D01*
X170108344Y-144799798D02*
X170108830Y-144799870D01*
X170106002Y-144799087D02*
X170106455Y-144799275D01*
X249899942Y-144790190D02*
X249899996Y-144787972D01*
X170100297Y-20007863D02*
X170100201Y-20008344D01*
X170100416Y-144792612D02*
X170100559Y-144793082D01*
X170106917Y-20000559D02*
X170106455Y-20000724D01*
X249899870Y-144791169D02*
X249899918Y-144790681D01*
X249898877Y-144794441D02*
X249899087Y-144793997D01*
X170102811Y-20003159D02*
X170102482Y-20003522D01*
X249897517Y-144796477D02*
X249897829Y-144796097D01*
X249899798Y-20008344D02*
X249899702Y-20007863D01*
X170100003Y-144787972D02*
X170100057Y-144790190D01*
X249893544Y-20000724D02*
X249893082Y-20000559D01*
X170104704Y-20001605D02*
X170104296Y-20001878D01*
X170101353Y-144794874D02*
X170101605Y-144795295D01*
X170100000Y-144787727D02*
X170100003Y-144787972D01*
X249887727Y-144800000D02*
X249887972Y-144799996D01*
X170104296Y-20001878D02*
X170103902Y-20002170D01*
X249890190Y-144799942D02*
X249890681Y-144799918D01*
X249899087Y-144793997D02*
X249899275Y-144793544D01*
X249893082Y-144799440D02*
X249893544Y-144799275D01*
X249899440Y-144793082D02*
X249899583Y-144792612D01*
X170101605Y-144795295D02*
X170101878Y-144795703D01*
X249887972Y-144799996D02*
X249890190Y-144799942D01*
X249899942Y-20009809D02*
X249899918Y-20009318D01*
X249897517Y-20003522D02*
X249897188Y-20003159D01*
X249898394Y-20004704D02*
X249898121Y-20004296D01*
X249897829Y-20003902D02*
X249897517Y-20003522D01*
X170109809Y-20000057D02*
X170109809Y-20000057D01*
X170100057Y-20009809D02*
X170100003Y-20012027D01*
X249896477Y-144797517D02*
X249896840Y-144797188D01*
X249890681Y-20000081D02*
X249890190Y-20000057D01*
X170100000Y-20012272D02*
X170100000Y-144787727D01*
X249899087Y-20006002D02*
X249898877Y-20005558D01*
X170107863Y-144799702D02*
X170108344Y-144799798D01*
X170100912Y-144793997D02*
X170101122Y-144794441D01*
X249897829Y-144796097D02*
X249898121Y-144795703D01*
X170107863Y-20000297D02*
X170107387Y-20000416D01*
X249899918Y-144790681D02*
X249899942Y-144790190D01*
X249894874Y-20001353D02*
X249894441Y-20001122D01*
X249900000Y-20012272D02*
X249899996Y-20012027D01*
X249893997Y-20000912D02*
X249893544Y-20000724D01*
X249891655Y-20000201D02*
X249891169Y-20000129D01*
X249899583Y-144792612D02*
X249899702Y-144792136D01*
X249897188Y-20003159D02*
X249896840Y-20002811D01*
X249898121Y-144795703D02*
X249898394Y-144795295D01*
X170101122Y-144794441D02*
X170101353Y-144794874D01*
X249892612Y-20000416D02*
X249892136Y-20000297D01*
X249899275Y-20006455D02*
X249899087Y-20006002D01*
X249887972Y-20000003D02*
X249887727Y-20000000D01*
X249899996Y-144787972D02*
X249900000Y-144787727D01*
X170100081Y-144790681D02*
X170100129Y-144791169D01*
X170101122Y-20005558D02*
X170100912Y-20006002D01*
X170106917Y-144799440D02*
X170107387Y-144799583D01*
X170108344Y-20000201D02*
X170107863Y-20000297D01*
X170102482Y-144796477D02*
X170102811Y-144796840D01*
X249899996Y-20012027D02*
X249899942Y-20009809D01*
X170100559Y-144793082D02*
X170100724Y-144793544D01*
X170102170Y-144796097D02*
X170102482Y-144796477D01*
X249894441Y-144798877D02*
X249894874Y-144798646D01*
X249895295Y-20001605D02*
X249894874Y-20001353D01*
X249894874Y-144798646D02*
X249895295Y-144798394D01*
X170100297Y-144792136D02*
X170100416Y-144792612D01*
X170100081Y-20009318D02*
X170100057Y-20009809D01*
X249896097Y-20002170D02*
X249895703Y-20001878D01*
X249895703Y-20001878D02*
X249895295Y-20001605D01*
X170109809Y-144799942D02*
X170112027Y-144799996D01*
X249893544Y-144799275D02*
X249893997Y-144799087D01*
X249899798Y-144791655D02*
X249899870Y-144791169D01*
X170112027Y-144799996D02*
X170112272Y-144800000D01*
X170103159Y-144797188D02*
X170103522Y-144797517D01*
X170103902Y-144797829D02*
X170104296Y-144798121D01*
X249899583Y-20007387D02*
X249899440Y-20006917D01*
X170101353Y-20005125D02*
X170101122Y-20005558D01*
X249896840Y-144797188D02*
X249897188Y-144796840D01*
X249890190Y-20000057D02*
X249887972Y-20000003D01*
X170100201Y-144791655D02*
X170100297Y-144792136D01*
X249891655Y-144799798D02*
X249892136Y-144799702D01*
X170109318Y-144799918D02*
X170109809Y-144799942D01*
X170100129Y-144791169D02*
X170100201Y-144791655D01*
X249899918Y-20009318D02*
X249899870Y-20008830D01*
X170102170Y-20003902D02*
X170101878Y-20004296D01*
X249896097Y-144797829D02*
X249896477Y-144797517D01*
X249896477Y-20002482D02*
X249896097Y-20002170D01*
X249895295Y-144798394D02*
X249895703Y-144798121D01*
X170109809Y-20000057D02*
X170109318Y-20000081D01*
X170103522Y-20002482D02*
X170103159Y-20002811D01*
X170112272Y-20000000D02*
X170112027Y-20000003D01*
X170102482Y-20003522D02*
X170102170Y-20003902D01*
X170109318Y-20000081D02*
X170108830Y-20000129D01*
X170100724Y-20006455D02*
X170100559Y-20006917D01*
X170101605Y-20004704D02*
X170101353Y-20005125D01*
X170100201Y-20008344D02*
X170100129Y-20008830D01*
X249900000Y-144787727D02*
X249900000Y-20012272D01*
X249899440Y-20006917D02*
X249899275Y-20006455D01*
X170106002Y-20000912D02*
X170105558Y-20001122D01*
X170103902Y-20002170D02*
X170103522Y-20002482D01*
X170105558Y-20001122D02*
X170105125Y-20001353D01*
X249899870Y-20008830D02*
X249899798Y-20008344D01*
X170112272Y-144800000D02*
X249887727Y-144800000D01*
X170100003Y-20012027D02*
X170100000Y-20012272D01*
X170100129Y-20008830D02*
X170100081Y-20009318D01*
X170100912Y-20006002D02*
X170100724Y-20006455D01*
X249898394Y-144795295D02*
X249898646Y-144794874D01*
X170106455Y-20000724D02*
X170106002Y-20000912D01*
X249893997Y-144799087D02*
X249894441Y-144798877D01*
X249896840Y-20002811D02*
X249896477Y-20002482D01*
X249899275Y-144793544D02*
X249899440Y-144793082D01*
X170103159Y-20002811D02*
X170102811Y-20003159D01*
X249892136Y-20000297D02*
X249891655Y-20000201D01*
X170105125Y-20001353D02*
X170104704Y-20001605D01*
X249897188Y-144796840D02*
X249897517Y-144796477D01*
X249891169Y-20000129D02*
X249890681Y-20000081D01*
X170101878Y-144795703D02*
X170102170Y-144796097D01*
X170100416Y-20007387D02*
X170100297Y-20007863D01*
X170104296Y-144798121D02*
X170104704Y-144798394D01*
M02*
