G04 #@! TF.GenerationSoftware,KiCad,Pcbnew,6.0.11+dfsg-1*
G04 #@! TF.CreationDate,2023-09-07T21:49:32+01:00*
G04 #@! TF.ProjectId,low-noise-power-probe-panel,6c6f772d-6e6f-4697-9365-2d706f776572,rev?*
G04 #@! TF.SameCoordinates,Original*
G04 #@! TF.FileFunction,Soldermask,Top*
G04 #@! TF.FilePolarity,Negative*
%FSLAX46Y46*%
G04 Gerber Fmt 4.6, Leading zero omitted, Abs format (unit mm)*
G04 Created by KiCad (PCBNEW 6.0.11+dfsg-1) date 2023-09-07 21:49:32*
%MOMM*%
%LPD*%
G01*
G04 APERTURE LIST*
G04 Aperture macros list*
%AMRoundRect*
0 Rectangle with rounded corners*
0 $1 Rounding radius*
0 $2 $3 $4 $5 $6 $7 $8 $9 X,Y pos of 4 corners*
0 Add a 4 corners polygon primitive as box body*
4,1,4,$2,$3,$4,$5,$6,$7,$8,$9,$2,$3,0*
0 Add four circle primitives for the rounded corners*
1,1,$1+$1,$2,$3*
1,1,$1+$1,$4,$5*
1,1,$1+$1,$6,$7*
1,1,$1+$1,$8,$9*
0 Add four rect primitives between the rounded corners*
20,1,$1+$1,$2,$3,$4,$5,0*
20,1,$1+$1,$4,$5,$6,$7,0*
20,1,$1+$1,$6,$7,$8,$9,0*
20,1,$1+$1,$8,$9,$2,$3,0*%
%AMFreePoly0*
4,1,9,3.862500,-0.866500,0.737500,-0.866500,0.737500,-0.450000,-0.737500,-0.450000,-0.737500,0.450000,0.737500,0.450000,0.737500,0.866500,3.862500,0.866500,3.862500,-0.866500,3.862500,-0.866500,$1*%
G04 Aperture macros list end*
%ADD10O,4.000000X6.000000*%
%ADD11C,1.800000*%
%ADD12C,1.700000*%
%ADD13C,1.400000*%
%ADD14R,3.000000X2.500000*%
%ADD15RoundRect,0.250000X0.475000X-0.250000X0.475000X0.250000X-0.475000X0.250000X-0.475000X-0.250000X0*%
%ADD16RoundRect,0.200000X-0.275000X0.200000X-0.275000X-0.200000X0.275000X-0.200000X0.275000X0.200000X0*%
%ADD17C,3.450000*%
%ADD18C,2.390000*%
%ADD19R,6.350000X7.340000*%
%ADD20C,1.000000*%
%ADD21R,0.900000X1.300000*%
%ADD22FreePoly0,270.000000*%
%ADD23R,1.800000X2.500000*%
%ADD24RoundRect,0.140000X0.170000X-0.140000X0.170000X0.140000X-0.170000X0.140000X-0.170000X-0.140000X0*%
%ADD25R,0.300000X0.700000*%
%ADD26R,1.000000X0.700000*%
%ADD27O,1.100000X2.100000*%
%ADD28O,1.100000X2.600000*%
%ADD29R,0.450000X0.600000*%
%ADD30C,1.500000*%
%ADD31R,0.600000X0.450000*%
%ADD32RoundRect,0.218750X-0.256250X0.218750X-0.256250X-0.218750X0.256250X-0.218750X0.256250X0.218750X0*%
%ADD33RoundRect,0.101600X-1.100000X-0.525000X1.100000X-0.525000X1.100000X0.525000X-1.100000X0.525000X0*%
%ADD34RoundRect,0.101600X-0.525000X-0.500000X0.525000X-0.500000X0.525000X0.500000X-0.525000X0.500000X0*%
%ADD35R,0.300000X0.650000*%
%ADD36R,2.480000X1.550000*%
%ADD37RoundRect,0.200000X0.275000X-0.200000X0.275000X0.200000X-0.275000X0.200000X-0.275000X-0.200000X0*%
%ADD38RoundRect,0.218750X-0.218750X-0.256250X0.218750X-0.256250X0.218750X0.256250X-0.218750X0.256250X0*%
%ADD39C,3.000000*%
%ADD40O,3.000000X2.000000*%
%ADD41O,3.500000X2.000000*%
%ADD42RoundRect,0.250000X-1.450000X0.312500X-1.450000X-0.312500X1.450000X-0.312500X1.450000X0.312500X0*%
%ADD43RoundRect,0.200000X0.200000X0.275000X-0.200000X0.275000X-0.200000X-0.275000X0.200000X-0.275000X0*%
%ADD44RoundRect,0.140000X0.094906X-0.198728X0.213239X0.055038X-0.094906X0.198728X-0.213239X-0.055038X0*%
%ADD45RoundRect,0.062500X-0.062500X0.362500X-0.062500X-0.362500X0.062500X-0.362500X0.062500X0.362500X0*%
%ADD46R,2.380000X1.650000*%
%ADD47RoundRect,0.250000X-0.475000X0.250000X-0.475000X-0.250000X0.475000X-0.250000X0.475000X0.250000X0*%
%ADD48RoundRect,0.250000X0.250000X0.475000X-0.250000X0.475000X-0.250000X-0.475000X0.250000X-0.475000X0*%
%ADD49RoundRect,0.140000X0.198728X0.094906X-0.055038X0.213239X-0.198728X-0.094906X0.055038X-0.213239X0*%
%ADD50R,1.700000X1.700000*%
%ADD51O,1.700000X1.700000*%
%ADD52RoundRect,0.218750X0.256250X-0.218750X0.256250X0.218750X-0.256250X0.218750X-0.256250X-0.218750X0*%
%ADD53RoundRect,0.101600X-0.525000X1.100000X-0.525000X-1.100000X0.525000X-1.100000X0.525000X1.100000X0*%
%ADD54RoundRect,0.101600X-0.500000X0.525000X-0.500000X-0.525000X0.500000X-0.525000X0.500000X0.525000X0*%
%ADD55C,2.000000*%
G04 APERTURE END LIST*
D10*
X211120000Y-131780000D03*
X221280000Y-131880000D03*
D11*
X216200000Y-126800000D03*
X218740000Y-126800000D03*
D12*
X234600000Y-34650000D03*
D13*
X234600000Y-30050000D03*
D14*
X240100000Y-30050000D03*
X240100000Y-36350000D03*
X229100000Y-36350000D03*
X229100000Y-30050000D03*
D15*
X232200000Y-85850000D03*
X232200000Y-83950000D03*
D10*
X202980000Y-131880000D03*
X192820000Y-131780000D03*
D11*
X197900000Y-126800000D03*
X200440000Y-126800000D03*
D16*
X224700000Y-50475000D03*
X224700000Y-52125000D03*
D17*
X180800000Y-48200000D03*
X196800000Y-103400000D03*
D18*
X180800000Y-111730000D03*
D19*
X188800000Y-115130000D03*
X188800000Y-36470000D03*
D20*
X180100000Y-142300000D03*
D21*
X232300000Y-47500000D03*
D22*
X230800000Y-47587500D03*
D21*
X229300000Y-47500000D03*
D23*
X230800000Y-60000000D03*
X230800000Y-56000000D03*
D24*
X234600000Y-52980000D03*
X234600000Y-52020000D03*
D25*
X224109483Y-32535000D03*
X223609483Y-32535000D03*
X223109483Y-32535000D03*
X222609483Y-32535000D03*
X222109483Y-32535000D03*
X221609483Y-32535000D03*
X220609483Y-32535000D03*
X220109483Y-32535000D03*
X219609483Y-32535000D03*
X219109483Y-32535000D03*
X218609483Y-32535000D03*
X218109483Y-32535000D03*
D26*
X218009483Y-31235000D03*
D25*
X218859483Y-31235000D03*
X219359483Y-31235000D03*
X219859483Y-31235000D03*
X220359483Y-31235000D03*
X220859483Y-31235000D03*
X221359483Y-31235000D03*
X221859483Y-31235000D03*
X222359483Y-31235000D03*
X222859483Y-31235000D03*
X223359483Y-31235000D03*
D26*
X224209483Y-31235000D03*
D27*
X225429483Y-32125000D03*
D28*
X216789483Y-26765000D03*
D27*
X216789483Y-32125000D03*
D28*
X225429483Y-26765000D03*
D20*
X180100000Y-22500000D03*
D29*
X229350000Y-45500000D03*
X229350000Y-43400000D03*
D30*
X172600000Y-22500000D03*
D31*
X230800000Y-53100000D03*
X228700000Y-53100000D03*
D32*
X212225000Y-120712500D03*
X212225000Y-122287500D03*
D33*
X229200000Y-72825000D03*
X229200000Y-75775000D03*
D34*
X230725000Y-74300000D03*
D35*
X235000000Y-86050000D03*
X235500000Y-86050000D03*
X236000000Y-86050000D03*
X236500000Y-86050000D03*
X237000000Y-86050000D03*
X237000000Y-82950000D03*
X236500000Y-82950000D03*
X236000000Y-82950000D03*
X235500000Y-82950000D03*
X235000000Y-82950000D03*
D36*
X236000000Y-84500000D03*
D37*
X236300000Y-50125000D03*
X236300000Y-48475000D03*
D16*
X211650000Y-27475000D03*
X211650000Y-29125000D03*
D38*
X211662500Y-25950000D03*
X213237500Y-25950000D03*
D17*
X218800000Y-103400000D03*
X202800000Y-48200000D03*
D18*
X218800000Y-39870000D03*
D19*
X210800000Y-36470000D03*
X210800000Y-115130000D03*
D16*
X234600000Y-48475000D03*
X234600000Y-50125000D03*
D20*
X239900000Y-22500000D03*
D39*
X238330000Y-124120000D03*
X233630000Y-124120000D03*
X228930000Y-124120000D03*
X238330000Y-120310000D03*
X233630000Y-120310000D03*
X228930000Y-120310000D03*
X238330000Y-116500000D03*
X233630000Y-116500000D03*
X228930000Y-116500000D03*
D40*
X231090000Y-138470000D03*
X236170000Y-138470000D03*
D41*
X183400000Y-136325000D03*
X180400000Y-124025000D03*
X183400000Y-126325000D03*
D42*
X240300000Y-41262500D03*
X240300000Y-45537500D03*
D43*
X233225000Y-82200000D03*
X231575000Y-82200000D03*
D44*
X219872143Y-119210028D03*
X220277857Y-118339972D03*
D45*
X225200000Y-45500000D03*
X224700000Y-45500000D03*
X224200000Y-45500000D03*
X223700000Y-45500000D03*
X223200000Y-45500000D03*
X223200000Y-48400000D03*
X223700000Y-48400000D03*
X224200000Y-48400000D03*
X224700000Y-48400000D03*
X225200000Y-48400000D03*
D46*
X224200000Y-46950000D03*
D23*
X240300000Y-60000000D03*
X240300000Y-56000000D03*
D42*
X233500000Y-41262500D03*
X233500000Y-45537500D03*
D30*
X172600000Y-142300000D03*
D47*
X227150000Y-45550000D03*
X227150000Y-47450000D03*
D48*
X230790000Y-63980000D03*
X228890000Y-63980000D03*
D15*
X236800000Y-45550000D03*
X236800000Y-43650000D03*
D49*
X209032639Y-120975328D03*
X208162583Y-120569614D03*
D50*
X240050000Y-73100000D03*
D51*
X240050000Y-70560000D03*
X240050000Y-68020000D03*
X240050000Y-65480000D03*
D52*
X213925000Y-122287500D03*
X213925000Y-120712500D03*
D53*
X227975000Y-81555000D03*
X225025000Y-81555000D03*
D54*
X226500000Y-83080000D03*
D37*
X236300000Y-53325000D03*
X236300000Y-51675000D03*
D16*
X222900000Y-50475000D03*
X222900000Y-52125000D03*
D30*
X247400000Y-22500000D03*
D55*
X208600000Y-102800000D03*
X222000000Y-108100000D03*
X202100000Y-98000000D03*
X228600000Y-85500000D03*
X191600000Y-108100000D03*
X213300000Y-94000000D03*
X232400000Y-78200000D03*
X240100000Y-85400000D03*
X226000000Y-35000000D03*
M02*
