G04 #@! TF.GenerationSoftware,KiCad,Pcbnew,6.0.11+dfsg-1*
G04 #@! TF.CreationDate,2023-09-05T11:20:00+01:00*
G04 #@! TF.ProjectId,low-noise-power-probe-panel,6c6f772d-6e6f-4697-9365-2d706f776572,rev?*
G04 #@! TF.SameCoordinates,Original*
G04 #@! TF.FileFunction,Paste,Bot*
G04 #@! TF.FilePolarity,Positive*
%FSLAX46Y46*%
G04 Gerber Fmt 4.6, Leading zero omitted, Abs format (unit mm)*
G04 Created by KiCad (PCBNEW 6.0.11+dfsg-1) date 2023-09-05 11:20:00*
%MOMM*%
%LPD*%
G01*
G04 APERTURE LIST*
G04 Aperture macros list*
%AMRoundRect*
0 Rectangle with rounded corners*
0 $1 Rounding radius*
0 $2 $3 $4 $5 $6 $7 $8 $9 X,Y pos of 4 corners*
0 Add a 4 corners polygon primitive as box body*
4,1,4,$2,$3,$4,$5,$6,$7,$8,$9,$2,$3,0*
0 Add four circle primitives for the rounded corners*
1,1,$1+$1,$2,$3*
1,1,$1+$1,$4,$5*
1,1,$1+$1,$6,$7*
1,1,$1+$1,$8,$9*
0 Add four rect primitives between the rounded corners*
20,1,$1+$1,$2,$3,$4,$5,0*
20,1,$1+$1,$4,$5,$6,$7,0*
20,1,$1+$1,$6,$7,$8,$9,0*
20,1,$1+$1,$8,$9,$2,$3,0*%
%AMRotRect*
0 Rectangle, with rotation*
0 The origin of the aperture is its center*
0 $1 length*
0 $2 width*
0 $3 Rotation angle, in degrees counterclockwise*
0 Add horizontal line*
21,1,$1,$2,0,0,$3*%
G04 Aperture macros list end*
%ADD10RoundRect,0.140000X0.170000X-0.140000X0.170000X0.140000X-0.170000X0.140000X-0.170000X-0.140000X0*%
%ADD11RoundRect,0.250000X-1.075000X0.375000X-1.075000X-0.375000X1.075000X-0.375000X1.075000X0.375000X0*%
%ADD12R,2.200000X1.050000*%
%ADD13R,1.050000X1.000000*%
%ADD14RoundRect,0.140000X-0.170000X0.140000X-0.170000X-0.140000X0.170000X-0.140000X0.170000X0.140000X0*%
%ADD15RoundRect,0.140000X0.140000X0.170000X-0.140000X0.170000X-0.140000X-0.170000X0.140000X-0.170000X0*%
%ADD16RoundRect,0.218750X0.256250X-0.218750X0.256250X0.218750X-0.256250X0.218750X-0.256250X-0.218750X0*%
%ADD17RoundRect,0.200000X0.200000X0.275000X-0.200000X0.275000X-0.200000X-0.275000X0.200000X-0.275000X0*%
%ADD18RoundRect,0.150000X-0.150000X0.512500X-0.150000X-0.512500X0.150000X-0.512500X0.150000X0.512500X0*%
%ADD19RotRect,2.200000X1.050000X315.000000*%
%ADD20RotRect,1.050000X1.000000X315.000000*%
%ADD21R,1.050000X2.200000*%
%ADD22R,1.000000X1.050000*%
%ADD23RoundRect,0.150000X0.150000X-0.512500X0.150000X0.512500X-0.150000X0.512500X-0.150000X-0.512500X0*%
%ADD24RoundRect,0.150000X-0.150000X0.725000X-0.150000X-0.725000X0.150000X-0.725000X0.150000X0.725000X0*%
%ADD25R,0.450000X0.700000*%
%ADD26RoundRect,0.135000X-0.135000X-0.185000X0.135000X-0.185000X0.135000X0.185000X-0.135000X0.185000X0*%
%ADD27RoundRect,0.200000X0.275000X-0.200000X0.275000X0.200000X-0.275000X0.200000X-0.275000X-0.200000X0*%
%ADD28RoundRect,0.200000X-0.275000X0.200000X-0.275000X-0.200000X0.275000X-0.200000X0.275000X0.200000X0*%
%ADD29R,1.400000X2.100000*%
%ADD30RoundRect,0.140000X-0.140000X-0.170000X0.140000X-0.170000X0.140000X0.170000X-0.140000X0.170000X0*%
%ADD31RoundRect,0.250000X-0.250000X-0.475000X0.250000X-0.475000X0.250000X0.475000X-0.250000X0.475000X0*%
%ADD32RoundRect,0.250000X0.475000X-0.250000X0.475000X0.250000X-0.475000X0.250000X-0.475000X-0.250000X0*%
%ADD33RoundRect,0.150000X0.512500X0.150000X-0.512500X0.150000X-0.512500X-0.150000X0.512500X-0.150000X0*%
%ADD34RoundRect,0.250000X-0.475000X0.250000X-0.475000X-0.250000X0.475000X-0.250000X0.475000X0.250000X0*%
%ADD35R,1.000000X1.000000*%
%ADD36R,2.100000X1.000000*%
%ADD37R,1.000000X3.300000*%
%ADD38R,3.300000X1.000000*%
%ADD39R,1.000000X1.750000*%
%ADD40RoundRect,0.135000X0.135000X0.185000X-0.135000X0.185000X-0.135000X-0.185000X0.135000X-0.185000X0*%
G04 APERTURE END LIST*
D10*
X210600000Y-107680000D03*
X210600000Y-106720000D03*
D11*
X221600000Y-121900000D03*
X221600000Y-124700000D03*
D12*
X223500000Y-114225000D03*
X223500000Y-117175000D03*
D13*
X221975000Y-115700000D03*
D14*
X199350000Y-107770000D03*
X199350000Y-108730000D03*
D15*
X213680000Y-103600000D03*
X212720000Y-103600000D03*
D16*
X233700000Y-138937500D03*
X233700000Y-137362500D03*
D17*
X220425000Y-115700000D03*
X218775000Y-115700000D03*
D18*
X201150000Y-105562500D03*
X202100000Y-105562500D03*
X203050000Y-105562500D03*
X203050000Y-107837500D03*
X201150000Y-107837500D03*
X212350000Y-105562500D03*
X213300000Y-105562500D03*
X214250000Y-105562500D03*
X214250000Y-107837500D03*
X212350000Y-107837500D03*
D19*
X194057017Y-124142983D03*
X196142983Y-122057017D03*
D20*
X196178338Y-124178338D03*
D10*
X199350000Y-105630000D03*
X199350000Y-104670000D03*
X200600000Y-123280000D03*
X200600000Y-122320000D03*
D17*
X203825000Y-122200000D03*
X202175000Y-122200000D03*
D21*
X211825000Y-97855000D03*
X214775000Y-97855000D03*
D22*
X213300000Y-99380000D03*
D23*
X220543750Y-119943750D03*
X219593750Y-119943750D03*
X218643750Y-119943750D03*
X218643750Y-117668750D03*
X220543750Y-117668750D03*
D24*
X234495000Y-128525000D03*
X235765000Y-128525000D03*
X237035000Y-128525000D03*
X238305000Y-128525000D03*
X238305000Y-133675000D03*
X237035000Y-133675000D03*
X235765000Y-133675000D03*
X234495000Y-133675000D03*
D25*
X220350000Y-29300000D03*
X219050000Y-29300000D03*
X219700000Y-27300000D03*
D26*
X215190000Y-123800000D03*
X216210000Y-123800000D03*
D12*
X217700000Y-106625000D03*
X217700000Y-109575000D03*
D13*
X216175000Y-108100000D03*
D27*
X237250000Y-72925000D03*
X237250000Y-71275000D03*
D25*
X223350000Y-29300000D03*
X222050000Y-29300000D03*
X222700000Y-27300000D03*
D28*
X216800000Y-118625000D03*
X216800000Y-120275000D03*
D29*
X203800000Y-119100000D03*
X199400000Y-119100000D03*
D30*
X207090000Y-123800000D03*
X208050000Y-123800000D03*
D31*
X212350000Y-101600000D03*
X214250000Y-101600000D03*
D32*
X205100000Y-109450000D03*
X205100000Y-107550000D03*
D12*
X195800000Y-109575000D03*
X195800000Y-106625000D03*
D13*
X197325000Y-108100000D03*
D33*
X209737500Y-120250000D03*
X209737500Y-121200000D03*
X209737500Y-122150000D03*
X207462500Y-122150000D03*
X207462500Y-120250000D03*
D34*
X208600000Y-106050000D03*
X208600000Y-107950000D03*
D27*
X205500000Y-123825000D03*
X205500000Y-122175000D03*
D29*
X199400000Y-115900000D03*
X203800000Y-115900000D03*
D21*
X200625000Y-101755000D03*
X203575000Y-101755000D03*
D22*
X202100000Y-103280000D03*
D21*
X211625000Y-118380000D03*
X214575000Y-118380000D03*
D22*
X213100000Y-119905000D03*
D34*
X205100000Y-103900000D03*
X205100000Y-105800000D03*
D17*
X208125000Y-118450000D03*
X206475000Y-118450000D03*
D35*
X188150000Y-136900000D03*
X226050000Y-136900000D03*
D36*
X189700000Y-136900000D03*
D37*
X188150000Y-130300000D03*
D38*
X213100000Y-136900000D03*
D39*
X226050000Y-135525000D03*
D38*
X207100000Y-111700000D03*
X219100000Y-136900000D03*
D39*
X188150000Y-135525000D03*
D38*
X213100000Y-111700000D03*
D35*
X226050000Y-111700000D03*
D38*
X207100000Y-136900000D03*
D36*
X189700000Y-111700000D03*
D37*
X226050000Y-130300000D03*
D38*
X201100000Y-136900000D03*
X219100000Y-111700000D03*
X195100000Y-136900000D03*
D36*
X224500000Y-136900000D03*
D35*
X188150000Y-111700000D03*
D37*
X226050000Y-118300000D03*
X188150000Y-124300000D03*
D39*
X226050000Y-113075000D03*
D38*
X195100000Y-111700000D03*
D37*
X188150000Y-118300000D03*
X226050000Y-124300000D03*
D39*
X188150000Y-113075000D03*
D38*
X201100000Y-111700000D03*
D36*
X224500000Y-111700000D03*
D40*
X218410000Y-123800000D03*
X217390000Y-123800000D03*
D27*
X232600000Y-131725000D03*
X232600000Y-130075000D03*
M02*
