M48
; DRILL file {KiCad 6.0.11+dfsg-1} date Tue 05 Sep 2023 11:20:02 BST
; FORMAT={-:-/ absolute / metric / decimal}
; #@! TF.CreationDate,2023-09-05T11:20:02+01:00
; #@! TF.GenerationSoftware,Kicad,Pcbnew,6.0.11+dfsg-1
; #@! TF.FileFunction,Plated,1,4,PTH
FMAT,2
METRIC
; #@! TA.AperFunction,Plated,PTH,ViaDrill
T1C0.300
; #@! TA.AperFunction,Plated,PTH,ComponentDrill
T2C0.600
; #@! TA.AperFunction,Plated,PTH,ComponentDrill
T3C0.800
; #@! TA.AperFunction,Plated,PTH,ComponentDrill
T4C0.890
; #@! TA.AperFunction,Plated,PTH,ComponentDrill
T5C1.000
; #@! TA.AperFunction,Plated,PTH,ComponentDrill
T6C1.850
; #@! TA.AperFunction,Plated,PTH,ComponentDrill
T7C2.010
%
G90
G05
T1
X177.55Y-123.7
X177.55Y-128.7
X177.55Y-133.7
X177.55Y-138.7
X177.6Y-31.825
X177.6Y-36.825
X177.6Y-41.825
X177.6Y-46.825
X177.6Y-51.825
X177.6Y-56.825
X177.6Y-61.825
X177.6Y-66.825
X177.6Y-71.825
X177.6Y-76.825
X177.6Y-81.825
X177.6Y-86.825
X177.6Y-91.825
X177.6Y-96.825
X177.6Y-101.825
X177.6Y-106.825
X177.6Y-111.825
X177.6Y-116.825
X182.865Y-26.825
X182.865Y-31.825
X182.865Y-36.825
X182.865Y-41.825
X182.865Y-46.825
X182.865Y-51.825
X182.865Y-56.825
X182.865Y-61.825
X182.865Y-66.825
X182.865Y-71.825
X182.865Y-76.825
X182.865Y-81.825
X182.865Y-86.825
X182.865Y-91.825
X182.865Y-96.825
X182.865Y-101.825
X182.865Y-106.825
X182.865Y-111.825
X182.865Y-116.825
X182.865Y-131.825
X187.7Y-138.7
X187.865Y-26.825
X187.865Y-31.825
X187.865Y-41.825
X187.865Y-46.825
X187.865Y-51.825
X187.865Y-56.825
X187.865Y-61.825
X187.865Y-66.825
X187.865Y-71.825
X187.865Y-76.825
X187.865Y-81.825
X187.865Y-86.825
X187.865Y-91.825
X187.865Y-96.825
X187.865Y-101.825
X187.865Y-106.825
X187.865Y-121.825
X189.6Y-130.3
X189.6Y-135.6
X189.7Y-110.2
X189.7Y-124.3
X192.85Y-138.7
X192.865Y-26.825
X192.865Y-31.825
X192.865Y-41.825
X192.865Y-46.825
X192.865Y-51.825
X192.865Y-56.825
X192.865Y-61.825
X192.865Y-66.825
X192.865Y-71.825
X192.865Y-76.825
X192.865Y-81.825
X192.865Y-86.825
X192.865Y-91.825
X192.865Y-96.825
X192.865Y-101.825
X192.865Y-121.825
X192.865Y-136.825
X193.2Y-125.1
X193.4Y-106.75
X193.8Y-109.6
X193.8Y-113.4
X195.1Y-135.6
X196.0Y-127.0
X196.225Y-125.725
X196.575Y-128.15
X197.25Y-124.95
X197.7Y-121.825
X197.8Y-128.6
X197.85Y-138.7
X197.865Y-26.825
X197.865Y-31.825
X197.865Y-41.825
X197.865Y-46.825
X197.865Y-51.825
X197.865Y-56.825
X197.865Y-61.825
X197.865Y-66.825
X197.865Y-71.825
X197.865Y-76.825
X197.865Y-81.825
X197.865Y-86.825
X197.865Y-91.825
X197.865Y-96.825
X197.865Y-106.825
X197.865Y-131.825
X197.865Y-136.825
X198.0Y-115.9
X198.0Y-119.1
X198.5Y-124.9
X198.604Y-122.993
X198.8Y-113.4
X199.1Y-128.1
X199.35Y-106.275
X199.35Y-107.15
X199.35Y-109.225
X199.5Y-123.0
X200.16Y-109.225
X200.6Y-100.1
X200.6Y-123.95
X200.7Y-115.9
X200.7Y-119.1
X201.1Y-135.6
X201.2Y-113.4
X201.8Y-125.7
X202.1Y-106.6
X202.8Y-104.3
X202.85Y-138.7
X202.865Y-26.825
X202.865Y-31.825
X202.865Y-41.825
X202.865Y-51.825
X202.865Y-56.825
X202.865Y-61.825
X202.865Y-66.825
X202.865Y-71.825
X202.865Y-76.825
X202.865Y-81.825
X202.865Y-86.825
X202.865Y-91.825
X203.6Y-100.1
X203.7Y-104.3
X204.2Y-123.9
X204.2Y-125.7
X205.1Y-106.7
X205.3Y-117.8
X206.2Y-113.4
X206.2Y-119.6
X206.25Y-105.8
X206.25Y-107.55
X206.6Y-125.1
X207.1Y-135.6
X207.85Y-138.7
X207.865Y-26.825
X207.865Y-31.825
X207.865Y-41.825
X207.865Y-46.825
X207.865Y-51.825
X207.865Y-56.825
X207.865Y-61.825
X207.865Y-66.825
X207.865Y-71.825
X207.865Y-76.825
X207.865Y-81.825
X207.865Y-86.825
X207.865Y-91.825
X207.865Y-96.825
X207.865Y-131.825
X208.497Y-120.263
X208.6Y-106.9
X208.7Y-121.19
X209.0Y-125.1
X209.7Y-123.0
X209.84Y-108.2
X209.842Y-107.626
X210.1Y-117.9
X210.5Y-97.9
X210.6Y-118.4
X210.975Y-105.85
X211.1Y-121.1
X211.1Y-123.0
X211.1Y-125.1
X211.45Y-101.6
X212.125Y-103.6
X212.2Y-38.9
X212.2Y-39.7
X212.865Y-31.825
X212.865Y-51.825
X212.865Y-56.825
X212.865Y-61.825
X212.865Y-66.825
X212.865Y-71.825
X212.865Y-76.825
X212.865Y-81.825
X212.865Y-86.825
X212.865Y-91.825
X212.9Y-138.7
X213.1Y-135.6
X213.5Y-104.5
X213.5Y-125.1
X214.3Y-104.5
X214.3Y-126.9
X214.4Y-120.25
X214.4Y-125.7
X214.875Y-128.0
X215.1Y-122.924
X215.3Y-125.1
X215.7Y-118.4
X216.1Y-97.9
X216.1Y-128.45
X216.95Y-30.4
X217.0Y-105.5
X217.1Y-122.924
X217.4Y-127.95
X217.5Y-125.2
X217.865Y-36.825
X217.865Y-41.825
X217.865Y-46.825
X217.865Y-61.825
X217.865Y-66.825
X217.865Y-71.825
X217.865Y-76.825
X217.865Y-81.825
X217.865Y-86.825
X217.865Y-91.825
X217.865Y-96.825
X217.865Y-131.825
X217.9Y-138.7
X218.1Y-33.45
X218.7Y-30.3
X219.1Y-135.6
X219.5Y-123.2
X219.59Y-118.879
X219.7Y-109.6
X219.85Y-33.78
X219.95Y-35.85
X220.56Y-118.68
X220.6Y-35.26
X220.85Y-30.15
X220.86Y-33.79
X221.1Y-112.8
X221.3Y-37.1
X221.6Y-52.1
X221.609Y-33.359
X222.2Y-35.7
X222.6Y-46.95
X222.865Y-56.825
X222.865Y-66.825
X222.865Y-71.825
X222.865Y-76.825
X222.865Y-81.825
X222.865Y-86.825
X222.865Y-91.825
X222.865Y-96.825
X222.865Y-101.825
X222.865Y-111.825
X222.865Y-126.825
X222.865Y-136.825
X222.9Y-138.7
X223.3Y-30.15
X223.5Y-113.1
X224.1Y-33.4
X224.8Y-124.3
X224.8Y-130.3
X224.9Y-135.5
X225.0Y-79.6
X225.05Y-30.4
X225.8Y-46.95
X225.9Y-49.05
X226.0Y-52.1
X226.1Y-110.5
X227.15Y-46.6
X227.2Y-71.6
X227.2Y-74.6
X227.865Y-26.825
X227.865Y-31.825
X227.865Y-41.825
X227.865Y-51.825
X227.865Y-56.825
X227.865Y-76.825
X227.865Y-91.825
X227.865Y-96.825
X227.865Y-101.825
X227.865Y-106.825
X227.865Y-111.825
X227.865Y-126.825
X227.865Y-131.825
X227.865Y-136.825
X227.9Y-138.7
X227.95Y-64.0
X228.0Y-79.7
X228.953Y-68.432
X229.1Y-34.5
X229.1Y-38.15
X229.35Y-44.45
X229.4Y-82.5
X229.75Y-53.1
X229.75Y-64.0
X230.8Y-61.9
X230.8Y-62.71
X231.15Y-36.35
X231.2Y-127.5
X232.0Y-74.3
X232.2Y-84.85
X232.5Y-136.9
X232.62Y-48.97
X232.63Y-50.99
X232.865Y-26.825
X232.865Y-31.825
X232.865Y-36.825
X232.865Y-56.825
X232.865Y-91.825
X232.865Y-96.825
X232.865Y-101.825
X232.865Y-106.825
X232.865Y-111.825
X233.33Y-86.05
X233.45Y-50.15
X234.2Y-86.05
X235.19Y-47.02
X235.2Y-136.9
X235.4Y-131.1
X236.0Y-125.7
X236.8Y-44.55
X237.6Y-131.1
X237.865Y-26.825
X237.865Y-31.825
X237.865Y-36.825
X237.865Y-41.825
X237.865Y-46.825
X237.865Y-51.825
X237.865Y-56.825
X237.865Y-76.825
X237.865Y-81.825
X237.865Y-86.825
X237.865Y-91.825
X237.865Y-96.825
X237.865Y-101.825
X237.865Y-106.825
X237.865Y-111.825
X237.865Y-136.825
X238.98Y-62.23
X239.5Y-61.7
X239.6Y-126.7
X240.6Y-134.5
X242.2Y-26.825
X242.2Y-31.825
X242.2Y-36.825
X242.2Y-42.8
X242.2Y-46.825
X242.2Y-51.825
X242.2Y-61.825
X242.2Y-66.825
X242.2Y-76.825
X242.2Y-81.825
X242.2Y-86.825
X242.2Y-91.825
X242.2Y-96.825
X242.2Y-101.825
X242.2Y-106.825
X242.2Y-111.825
X242.2Y-126.825
X242.2Y-136.825
T4
X197.9Y-126.7
X200.44Y-126.7
X216.2Y-126.625
X218.74Y-126.625
T5
X191.6Y-108.1
X202.1Y-98.0
X208.6Y-102.8
X213.3Y-94.0
X222.0Y-108.1
X226.0Y-35.0
X228.6Y-85.5
X232.4Y-78.2
X240.05Y-65.48
X240.05Y-68.02
X240.05Y-70.56
X240.05Y-73.1
X240.1Y-85.4
T6
X228.8Y-116.5
X228.8Y-120.31
X228.8Y-124.12
X233.63Y-116.5
X233.63Y-120.31
X233.63Y-124.12
X238.46Y-116.5
X238.46Y-120.31
X238.46Y-124.12
T7
X192.82Y-131.68
X202.98Y-131.78
X211.12Y-131.605
X221.28Y-131.705
T2
X216.789Y-27.515G85X216.789Y-26.015
G05
X216.789Y-32.625G85X216.789Y-31.625
G05
X225.429Y-27.515G85X225.429Y-26.015
G05
X225.429Y-32.625G85X225.429Y-31.625
G05
T3
X179.75Y-125.35G85X181.05Y-125.35
G05
X182.75Y-127.65G85X184.05Y-127.65
G05
X182.75Y-137.65G85X184.05Y-137.65
G05
X230.565Y-138.47G85X231.615Y-138.47
G05
X235.645Y-138.47G85X236.695Y-138.47
G05
T0
M30
