G04 #@! TF.GenerationSoftware,KiCad,Pcbnew,6.0.11+dfsg-1*
G04 #@! TF.CreationDate,2023-09-05T11:20:00+01:00*
G04 #@! TF.ProjectId,low-noise-power-probe-panel,6c6f772d-6e6f-4697-9365-2d706f776572,rev?*
G04 #@! TF.SameCoordinates,Original*
G04 #@! TF.FileFunction,Soldermask,Bot*
G04 #@! TF.FilePolarity,Negative*
%FSLAX46Y46*%
G04 Gerber Fmt 4.6, Leading zero omitted, Abs format (unit mm)*
G04 Created by KiCad (PCBNEW 6.0.11+dfsg-1) date 2023-09-05 11:20:00*
%MOMM*%
%LPD*%
G01*
G04 APERTURE LIST*
G04 Aperture macros list*
%AMRoundRect*
0 Rectangle with rounded corners*
0 $1 Rounding radius*
0 $2 $3 $4 $5 $6 $7 $8 $9 X,Y pos of 4 corners*
0 Add a 4 corners polygon primitive as box body*
4,1,4,$2,$3,$4,$5,$6,$7,$8,$9,$2,$3,0*
0 Add four circle primitives for the rounded corners*
1,1,$1+$1,$2,$3*
1,1,$1+$1,$4,$5*
1,1,$1+$1,$6,$7*
1,1,$1+$1,$8,$9*
0 Add four rect primitives between the rounded corners*
20,1,$1+$1,$2,$3,$4,$5,0*
20,1,$1+$1,$4,$5,$6,$7,0*
20,1,$1+$1,$6,$7,$8,$9,0*
20,1,$1+$1,$8,$9,$2,$3,0*%
G04 Aperture macros list end*
%ADD10C,3.450000*%
%ADD11C,2.390000*%
%ADD12C,1.500000*%
%ADD13C,3.000000*%
%ADD14O,3.000000X2.000000*%
%ADD15O,4.000000X6.000000*%
%ADD16C,1.800000*%
%ADD17O,1.100000X2.100000*%
%ADD18O,1.100000X2.600000*%
%ADD19R,1.700000X1.700000*%
%ADD20O,1.700000X1.700000*%
%ADD21C,1.700000*%
%ADD22C,1.400000*%
%ADD23O,3.500000X2.000000*%
%ADD24RoundRect,0.140000X0.170000X-0.140000X0.170000X0.140000X-0.170000X0.140000X-0.170000X-0.140000X0*%
%ADD25RoundRect,0.250000X-1.075000X0.375000X-1.075000X-0.375000X1.075000X-0.375000X1.075000X0.375000X0*%
%ADD26RoundRect,0.101600X1.100000X0.525000X-1.100000X0.525000X-1.100000X-0.525000X1.100000X-0.525000X0*%
%ADD27RoundRect,0.101600X0.525000X0.500000X-0.525000X0.500000X-0.525000X-0.500000X0.525000X-0.500000X0*%
%ADD28RoundRect,0.140000X-0.170000X0.140000X-0.170000X-0.140000X0.170000X-0.140000X0.170000X0.140000X0*%
%ADD29RoundRect,0.140000X0.140000X0.170000X-0.140000X0.170000X-0.140000X-0.170000X0.140000X-0.170000X0*%
%ADD30RoundRect,0.218750X0.256250X-0.218750X0.256250X0.218750X-0.256250X0.218750X-0.256250X-0.218750X0*%
%ADD31RoundRect,0.200000X0.200000X0.275000X-0.200000X0.275000X-0.200000X-0.275000X0.200000X-0.275000X0*%
%ADD32RoundRect,0.150000X-0.150000X0.512500X-0.150000X-0.512500X0.150000X-0.512500X0.150000X0.512500X0*%
%ADD33RoundRect,0.101600X-1.149049X0.406586X0.406586X-1.149049X1.149049X-0.406586X-0.406586X1.149049X0*%
%ADD34RoundRect,0.101600X-0.724784X0.017678X0.017678X-0.724784X0.724784X-0.017678X-0.017678X0.724784X0*%
%ADD35RoundRect,0.101600X-0.525000X1.100000X-0.525000X-1.100000X0.525000X-1.100000X0.525000X1.100000X0*%
%ADD36RoundRect,0.101600X-0.500000X0.525000X-0.500000X-0.525000X0.500000X-0.525000X0.500000X0.525000X0*%
%ADD37RoundRect,0.150000X0.150000X-0.512500X0.150000X0.512500X-0.150000X0.512500X-0.150000X-0.512500X0*%
%ADD38C,2.000000*%
%ADD39RoundRect,0.150000X-0.150000X0.725000X-0.150000X-0.725000X0.150000X-0.725000X0.150000X0.725000X0*%
%ADD40R,0.450000X0.700000*%
%ADD41RoundRect,0.135000X-0.135000X-0.185000X0.135000X-0.185000X0.135000X0.185000X-0.135000X0.185000X0*%
%ADD42RoundRect,0.200000X0.275000X-0.200000X0.275000X0.200000X-0.275000X0.200000X-0.275000X-0.200000X0*%
%ADD43RoundRect,0.200000X-0.275000X0.200000X-0.275000X-0.200000X0.275000X-0.200000X0.275000X0.200000X0*%
%ADD44R,1.400000X2.100000*%
%ADD45RoundRect,0.140000X-0.140000X-0.170000X0.140000X-0.170000X0.140000X0.170000X-0.140000X0.170000X0*%
%ADD46RoundRect,0.250000X-0.250000X-0.475000X0.250000X-0.475000X0.250000X0.475000X-0.250000X0.475000X0*%
%ADD47C,1.000000*%
%ADD48RoundRect,0.250000X0.475000X-0.250000X0.475000X0.250000X-0.475000X0.250000X-0.475000X-0.250000X0*%
%ADD49RoundRect,0.101600X-1.100000X-0.525000X1.100000X-0.525000X1.100000X0.525000X-1.100000X0.525000X0*%
%ADD50RoundRect,0.101600X-0.525000X-0.500000X0.525000X-0.500000X0.525000X0.500000X-0.525000X0.500000X0*%
%ADD51RoundRect,0.150000X0.512500X0.150000X-0.512500X0.150000X-0.512500X-0.150000X0.512500X-0.150000X0*%
%ADD52RoundRect,0.250000X-0.475000X0.250000X-0.475000X-0.250000X0.475000X-0.250000X0.475000X0.250000X0*%
%ADD53R,1.000000X1.000000*%
%ADD54R,2.100000X1.000000*%
%ADD55R,1.000000X3.300000*%
%ADD56R,3.300000X1.000000*%
%ADD57R,1.000000X1.750000*%
%ADD58RoundRect,0.135000X0.135000X0.185000X-0.135000X0.185000X-0.135000X-0.185000X0.135000X-0.185000X0*%
G04 APERTURE END LIST*
D10*
X202800000Y-48200000D03*
D11*
X218800000Y-39870000D03*
D10*
X218800000Y-103400000D03*
D12*
X172600000Y-22500000D03*
D13*
X228800000Y-124120000D03*
X228800000Y-120310000D03*
X228800000Y-116500000D03*
X233630000Y-124120000D03*
X233630000Y-120310000D03*
X233630000Y-116500000D03*
X238460000Y-124120000D03*
X238460000Y-120310000D03*
X238460000Y-116500000D03*
D14*
X231090000Y-138470000D03*
X236170000Y-138470000D03*
D15*
X192820000Y-131680000D03*
X202980000Y-131780000D03*
D16*
X197900000Y-126700000D03*
X200440000Y-126700000D03*
D17*
X225429483Y-32125000D03*
X216789483Y-32125000D03*
D18*
X216789483Y-26765000D03*
X225429483Y-26765000D03*
D19*
X240050000Y-73100000D03*
D20*
X240050000Y-70560000D03*
X240050000Y-68020000D03*
X240050000Y-65480000D03*
D21*
X234600000Y-34650000D03*
D22*
X234600000Y-30050000D03*
D12*
X247400000Y-22500000D03*
X172600000Y-142300000D03*
D23*
X183400000Y-137650000D03*
X180400000Y-125350000D03*
X183400000Y-127650000D03*
D15*
X221280000Y-131705000D03*
X211120000Y-131605000D03*
D16*
X216200000Y-126625000D03*
X218740000Y-126625000D03*
D10*
X196800000Y-103400000D03*
D11*
X180800000Y-111730000D03*
D10*
X180800000Y-48200000D03*
D24*
X210600000Y-107680000D03*
X210600000Y-106720000D03*
D25*
X221600000Y-121900000D03*
X221600000Y-124700000D03*
D26*
X223500000Y-114225000D03*
X223500000Y-117175000D03*
D27*
X221975000Y-115700000D03*
D28*
X199350000Y-107770000D03*
X199350000Y-108730000D03*
D29*
X213680000Y-103600000D03*
X212720000Y-103600000D03*
D30*
X233700000Y-138937500D03*
X233700000Y-137362500D03*
D31*
X220425000Y-115700000D03*
X218775000Y-115700000D03*
D32*
X201150000Y-105562500D03*
X202100000Y-105562500D03*
X203050000Y-105562500D03*
X203050000Y-107837500D03*
X201150000Y-107837500D03*
X212350000Y-105562500D03*
X213300000Y-105562500D03*
X214250000Y-105562500D03*
X214250000Y-107837500D03*
X212350000Y-107837500D03*
D33*
X194057017Y-124142983D03*
X196142983Y-122057017D03*
D34*
X196178338Y-124178338D03*
D24*
X199350000Y-105630000D03*
X199350000Y-104670000D03*
X200600000Y-123280000D03*
X200600000Y-122320000D03*
D31*
X203825000Y-122200000D03*
X202175000Y-122200000D03*
D35*
X211825000Y-97855000D03*
X214775000Y-97855000D03*
D36*
X213300000Y-99380000D03*
D37*
X220543750Y-119943750D03*
X219593750Y-119943750D03*
X218643750Y-119943750D03*
X218643750Y-117668750D03*
X220543750Y-117668750D03*
D38*
X228600000Y-85500000D03*
D39*
X234495000Y-128525000D03*
X235765000Y-128525000D03*
X237035000Y-128525000D03*
X238305000Y-128525000D03*
X238305000Y-133675000D03*
X237035000Y-133675000D03*
X235765000Y-133675000D03*
X234495000Y-133675000D03*
D38*
X232400000Y-78200000D03*
D40*
X220350000Y-29300000D03*
X219050000Y-29300000D03*
X219700000Y-27300000D03*
D41*
X215190000Y-123800000D03*
X216210000Y-123800000D03*
D26*
X217700000Y-106625000D03*
X217700000Y-109575000D03*
D27*
X216175000Y-108100000D03*
D42*
X237250000Y-72925000D03*
X237250000Y-71275000D03*
D38*
X240100000Y-85400000D03*
D40*
X223350000Y-29300000D03*
X222050000Y-29300000D03*
X222700000Y-27300000D03*
D38*
X202100000Y-98000000D03*
D43*
X216800000Y-118625000D03*
X216800000Y-120275000D03*
D44*
X203800000Y-119100000D03*
X199400000Y-119100000D03*
D45*
X207090000Y-123800000D03*
X208050000Y-123800000D03*
D46*
X212350000Y-101600000D03*
X214250000Y-101600000D03*
D38*
X222000000Y-108100000D03*
D47*
X180100000Y-142300000D03*
D38*
X226000000Y-35000000D03*
D48*
X205100000Y-109450000D03*
X205100000Y-107550000D03*
D47*
X180100000Y-22500000D03*
D49*
X195800000Y-109575000D03*
X195800000Y-106625000D03*
D50*
X197325000Y-108100000D03*
D51*
X209737500Y-120250000D03*
X209737500Y-121200000D03*
X209737500Y-122150000D03*
X207462500Y-122150000D03*
X207462500Y-120250000D03*
D38*
X191600000Y-108100000D03*
D52*
X208600000Y-106050000D03*
X208600000Y-107950000D03*
D42*
X205500000Y-123825000D03*
X205500000Y-122175000D03*
D38*
X213300000Y-94000000D03*
D44*
X199400000Y-115900000D03*
X203800000Y-115900000D03*
D47*
X239900000Y-22500000D03*
D35*
X200625000Y-101755000D03*
X203575000Y-101755000D03*
D36*
X202100000Y-103280000D03*
D35*
X211625000Y-118380000D03*
X214575000Y-118380000D03*
D36*
X213100000Y-119905000D03*
D52*
X205100000Y-103900000D03*
X205100000Y-105800000D03*
D31*
X208125000Y-118450000D03*
X206475000Y-118450000D03*
D53*
X188150000Y-136900000D03*
X226050000Y-136900000D03*
D54*
X189700000Y-136900000D03*
D55*
X188150000Y-130300000D03*
D56*
X213100000Y-136900000D03*
D57*
X226050000Y-135525000D03*
D56*
X207100000Y-111700000D03*
X219100000Y-136900000D03*
D57*
X188150000Y-135525000D03*
D56*
X213100000Y-111700000D03*
D53*
X226050000Y-111700000D03*
D56*
X207100000Y-136900000D03*
D54*
X189700000Y-111700000D03*
D55*
X226050000Y-130300000D03*
D56*
X201100000Y-136900000D03*
X219100000Y-111700000D03*
X195100000Y-136900000D03*
D54*
X224500000Y-136900000D03*
D53*
X188150000Y-111700000D03*
D55*
X226050000Y-118300000D03*
X188150000Y-124300000D03*
D57*
X226050000Y-113075000D03*
D56*
X195100000Y-111700000D03*
D55*
X188150000Y-118300000D03*
X226050000Y-124300000D03*
D57*
X188150000Y-113075000D03*
D56*
X201100000Y-111700000D03*
D54*
X224500000Y-111700000D03*
D58*
X218410000Y-123800000D03*
X217390000Y-123800000D03*
D42*
X232600000Y-131725000D03*
X232600000Y-130075000D03*
D38*
X208600000Y-102800000D03*
M02*
